<svg id="Слой_1" xmlns="http://www.w3.org/2000/svg" viewBox="0 0 92.6 111.1"><g fill="#FFF"><path d="M83.7,12C83.8,11.9,83.8,11.9,83.7,12c0.1-0.1,0.1-0.1,0.1-0.1C83.8,11.9,83.8,11.9,83.7,12 C83.7,12,83.7,12,83.7,12z"/><path d="M32,41.3c0.6,0.4,1.3,0.8,1.6,1.6c0.8,0.2,1.4,0.6,1.8,1.3c0.8,0.5,1.7,1.1,2.5,1.6 c4.2,2.6,8.7,4.1,13.6,4.5c2.3,0.2,4.7,0,6.8-0.8c1.8-0.7,3.5-1.5,5.2-2.4c3.8-2,6.6-4.9,8.3-8.7c2.4-5.2,2.7-10.9,1.3-16.4 c-1.1-4.3-4-7.6-7.2-10.5c-3.2-3-7.2-4.1-11.5-4c-0.9,0-1.3-0.2-1.3-1.2c-0.1-1.5-0.2-3-0.2-4.6c0-0.9-0.5-1.5-1.4-1.5 c-1.1,0-1.2,0.8-1.2,1.6c0.1,1.5-0.1,3,0.2,4.4c0.1,0.8-0.1,1.2-1,1.2c-4.2-0.1-7.9,1.2-11.4,3.5c-2.5,1.6-4.3,3.9-5.9,6.3 c-1,1.5-1.4,3.2-2.2,4.7c-1.1,2.3-1.7,4.7-1.7,7.2c0,4.2,1.7,7.8,3.1,11.6C31.4,40.9,31.7,41.1,32,41.3z M54,42.4 c0,0.5-0.1,1.3-0.7,1.3c-0.5,0-0.3-0.7-0.4-1.1c-0.1-0.6,0.2-1,0.8-1C54.1,41.7,53.9,42.1,54,42.4z M55,38.3 c-0.4,0.5,0.2,1.8-1.3,1.7c-0.7-0.1-0.9-0.6-0.7-1.1c0.2-0.6-0.5-1.9,1-1.7C54.7,37.2,55.1,37.4,55,38.3z M54.7,35.6 c-0.9,0-1.7-0.1-1.7-1.1c0-0.8,0.5-1.1,1.2-0.9c0.6,0.1,1.6-0.2,1.6,0.8C55.8,35,55.6,35.8,54.7,35.6z M57.1,40.5 c-0.4,0.1-0.8-0.2-0.7-0.7c0.2-0.6,0-1.6,0.9-1.8c0.6-0.1,0.5,0.4,0.6,0.9C57.7,39.3,57.9,40.2,57.1,40.5z M57.3,35.1 c0-0.6,0.1-1.1,0.9-1.1c0.6,0,0.7,0.3,0.6,1.1c-0.1,0.3,0.1,1.1-0.7,1.2C57.5,36.3,57.3,35.8,57.3,35.1z M58.3,32.2 c-0.6,0-0.8-0.3-0.6-0.9c0.5-0.4-0.6-1.7,0.9-1.7c0.7,0,0.8,0.5,0.6,1C59,31,59.8,32.3,58.3,32.2z M58.5,27.3c-0.3,0-0.8,0-0.8-0.4 c0-0.4,0.5-0.4,0.8-0.5c0.3-0.1,0.6,0,0.7,0.4C59.2,27.2,58.8,27.3,58.5,27.3z M58.2,24.8c-0.8-0.2-0.7-0.9-0.8-1.5 c-0.1-0.3,0.1-0.6,0.5-0.6c0.9,0.1,0.7,0.8,0.8,1.1C58.7,24.5,58.7,24.9,58.2,24.8z M58.4,41.1c0,0.1-0.1,0.2-0.1,0.2 c-0.1,0-0.1-0.1-0.2-0.1c0-0.1,0.1-0.2,0.1-0.2C58.3,41,58.4,41.1,58.4,41.1z M58.8,43.2c-0.1,0.2-0.2,0.4-0.4,0.4 c-0.3,0-0.3-0.2-0.3-0.4c0-0.2,0.2-0.4,0.4-0.4C58.8,42.9,58.9,43,58.8,43.2z M60.6,44.5c0,0.6-0.4,0.9-1,1 c-0.1-0.6,0.3-0.8,0.6-1.1c0.1-0.4,0.4-0.7,0.7-0.4C61.1,44.3,60.8,44.4,60.6,44.5z M60.6,40.1c-0.3,0.7-0.6,1.7-1.7,0.7 c-0.2-0.4-0.1-0.8,0.2-1.1c0-0.4,0-0.9,0.6-1c0.4-0.1,0.8,0,1.1,0.3C61.3,39.4,60.8,39.8,60.6,40.1z M60.3,36.5 c0.1-0.6-0.3-1.7,0.9-1.7c0.5,0,1.3-0.2,1.4,0.8c-0.4,0.6-0.2,1.6-1.2,1.7C60.9,37.4,60.1,37.2,60.3,36.5z M62.1,42.3 c-0.1,0.1-0.4-0.2-0.3-0.5c0.4-0.6,0.1-1.5,1-1.8c0.2-0.1,0.4,0.2,0.5,0.6C63,41.2,62.8,41.9,62.1,42.3z M62.7,33.2 c-0.7,0.2-1.8,0-1.7-1.4c0.1-2.1,0.3-2.5,2-2.5c0.6-0.1,1.1,0.1,0.9,0.9C63.6,31.3,64.1,32.8,62.7,33.2z M61.2,26.7 c0-1.1,1.2-0.8,1.8-1c0.6-0.2,0.7,0.3,0.7,0.8c0.1,1.2-0.8,0.6-1.2,0.8C62,27,61.1,27.5,61.2,26.7z M63.8,37.7 c0.3-0.6,0-1.7,1.1-1.7c0.3,0,0.9,0.1,0.7,0.7c-0.2,0.7-0.5,1.5-1.3,1.8C63.9,38.3,63.6,38.1,63.8,37.7z M67.8,30.3 c-0.1,1.3-0.6,2.5-1.2,3.7c-0.3,0.6-0.7,0.3-1.1,0.2c-0.5-0.1-0.6-0.4-0.5-0.9c0.2-1.1,0.5-2.2,0.7-3.3c0.1-1,0.9-0.7,1.5-0.7 C67.9,29.3,67.8,29.9,67.8,30.3z M66.7,27.2c-0.5-0.1-1.1,0.1-1.1-0.8c0.1-0.9,0.3-1.7,1.3-1.7c1,0.1,0.7,1.1,0.8,1.6 C68,27.3,67.1,27.1,66.7,27.2z M65.9,23.2c-0.8,0.1-0.9-0.4-0.9-1.1c-0.1-0.9,0.5-1,1.3-1.1c0.7,0,0.7,0.7,0.8,1.2 C67.1,23,66.5,23.2,65.9,23.2z M66.4,42.5c-0.3,0.8-1.1,1.3-1.9,1.6c-0.4,0-0.6-0.3-0.6-0.7c0-0.5,1.2-2,1.6-1.8 C65.9,41.7,66.5,42.1,66.4,42.5z M67.8,40.7c-0.8-0.1-1.2-0.6-1.5-1.3c-0.2-0.4,0.9-2.2,1.3-2.3c0.6-0.1,1.8,0.9,1.8,1.5 C69.4,39.3,68.3,40.8,67.8,40.7z M71,35.5c-0.2,0.5-0.4,1.1-1.1,0.7c-0.6-0.4-2-0.2-1.7-1.5c0.4-1.6,1-3.1,1.3-4.7 c0.2-1,1.1-0.6,1.7-0.7c0.9,0,0.5,0.7,0.7,1.1C71.7,32.1,71.7,33.9,71,35.5z M71.9,25.1c0.3,1.4,0,1.8-1.2,1.8 c-1.8,0-1.2-1.3-1.3-2.2c-0.2-1.4,1.2-1.4,1.8-1.3C72.4,23.5,71.7,24.7,71.9,25.1z M71,20.9c-0.3,0.8-1.1,1.1-1.8,1.2 c-0.9,0.1-1-0.9-1-1.4c0-0.9,1-1,1.7-1.1C70.8,19.5,70.7,20.4,71,20.9z M67.5,14.1c0.1,0,0.1,0.1,0.1,0.2c-0.1,0-0.1,0.1-0.2,0.1 c0-0.1-0.1-0.1-0.1-0.2C67.3,14.1,67.4,14.1,67.5,14.1z M68.1,16.5c0.7-0.1,0.7,0.6,0.9,1.1c-0.2,0.6-0.6,1-1.2,0.9 c-0.7,0-0.8-0.8-0.9-1.3C66.9,16.7,67.6,16.6,68.1,16.5z M66,14.1c0.5,0,0.7,0.2,0.8,0.6c0.1,0.4-0.4,0.6-0.7,0.6 c-0.6,0.1-0.7-0.4-0.8-0.8C65.2,14,65.7,14.2,66,14.1z M64.7,17.8c0.7,0.1,0.7,0.9,1,1.3c-0.1,0.7-0.6,0.5-0.9,0.5 c-0.8,0-0.9-0.8-1-1.3C63.7,17.8,64.4,17.7,64.7,17.8z M64.3,12.4c0,0.2-0.1,0.3-0.3,0.3c-0.6-0.1-0.7-0.6-0.9-1.1 C63.8,11.7,64.1,12,64.3,12.4z M63.1,14.9c0.6,0,0.6,0.6,0.9,0.9c-0.1,0.4-0.3,0.5-0.6,0.5c-0.6,0-0.6-0.5-0.8-0.9 C62.5,15.1,62.8,15,63.1,14.9z M63.4,23c0,1.4-1.2,1.2-1.9,1.3c-1.1,0.2-1-0.8-1-1.4c0-1.1,1-0.9,2-1C63,21.7,63.3,22.2,63.4,23z M61.3,12.4c0.2,0.1,0.3,0.1,0.3,0.1c-0.1,0.4-0.2,0.5-0.3,0.4c-0.1-0.1-0.2-0.2-0.3-0.4C61,12.4,61.1,12.3,61.3,12.4z M62.4,19.8 c-0.1,0.8-1.1,0.6-1.4,0.7c-1.2,0.2-1.5-0.5-1.5-1.2c0-1,0.8-0.7,1.4-0.8C62,18.4,62.5,19.1,62.4,19.8z M60.9,16.6 c0,0.7-0.7,0.6-1.1,0.7c-0.7,0.1-0.8-0.2-0.9-0.8c-0.1-0.8,0.4-0.7,0.9-0.8C60.4,15.6,60.9,15.9,60.9,16.6z M59.8,14.1 c-0.7-0.1-1.4,0.4-1.7-0.4c-0.1-0.2-0.1-0.5,0.2-0.6C59.1,12.9,59.3,13.4,59.8,14.1z M58,12c0.1,0,0.1,0.1,0.2,0.1 c-0.1,0.1-0.1,0.2-0.2,0.2c-0.1,0-0.1-0.1-0.2-0.2C57.9,12.1,58,12,58,12z M57.8,18c0.1,0,0.1,0.1,0.2,0.1 c-0.1,0.1-0.1,0.1-0.2,0.2c-0.1-0.1-0.1-0.1-0.1-0.2C57.6,18.1,57.7,18,57.8,18z M57.5,19.2c0.6,0.1,0.3,0.7,0.4,1 c-0.1,0.3,0.1,0.9-0.4,0.8c-0.7-0.1-0.5-0.8-0.6-1.3C56.7,19.4,57.2,19.2,57.5,19.2z M57.2,17c0.1,0.2,0.1,0.4-0.2,0.5 c-0.5,0-0.4-0.5-0.5-0.7c-0.1-0.2,0-0.3,0.2-0.3C57.1,16.4,57.1,16.8,57.2,17z M56.4,13.9c0.1,0.1,0.1,0.2,0.2,0.3 c-0.1,0.1-0.2,0.2-0.3,0.2c-0.1-0.1-0.2-0.2-0.2-0.3C56.1,14.1,56.3,14,56.4,13.9z M56.5,42.2c0,0.4-0.1,0.8-0.4,1.2 c-0.1,0.2-0.2,0.4-0.4,0.7c-0.2-0.4-0.1-0.7,0.1-0.9c0-0.4-0.2-0.8,0.3-1C56.2,42.1,56.5,42.2,56.5,42.2z M55.7,31.8 c-0.8,0.1-1.7,0-2.4-0.3c-0.5-0.2-0.5-0.9-0.3-1.3c0.5-0.8,1.4-0.5,2.1-0.5c0.7-0.1,1.2,0.2,1,1.1C56,31.1,56.3,31.7,55.7,31.8z M55.6,21.9c0.1,0,0.2,0.1,0.1,0.2c0,0.1-0.1,0.1-0.2,0.1c0-0.1-0.1-0.1-0.1-0.2C55.5,22,55.6,21.9,55.6,21.9z M55.8,24.2 c-0.1,1.1-1,0.8-1.6,0.8c-0.7,0.1-1.6,0.1-1.5-1c0.1-1.2,1.1-0.6,1.6-0.8C55.1,23.2,55.9,23,55.8,24.2z M54,14.5 c0,0.2-0.1,0.3-0.4,0.3c-0.3,0-0.5-0.1-0.6-0.4c-0.1-0.2,0.2-0.4,0.4-0.4C53.7,14.1,54,14.1,54,14.5z M53.2,10.7 c0.4,0.6,0.7,1,0.3,1.5c-0.1,0.1-0.3,0.1-0.5-0.1C52.6,11.6,53.3,11.3,53.2,10.7z M53.8,16.4c0.8-0.1,0.8,0.6,0.8,0.9 c0.1,0.7-0.6,0.3-0.9,0.5c-0.5,0-0.8-0.1-0.8-0.6C52.9,16.5,53.3,16.5,53.8,16.4z M54.1,19.5c0.9-0.2,1.2,0.3,1.2,1.1 c0.2,1.4-1,0.8-1.6,1c-0.8,0.2-1-0.3-1-1C52.5,19.3,53.4,19.7,54.1,19.5z M55.5,26.7c0.3,0,0.5,0.1,0.6,0.4c0,0.5-0.4,0.3-0.5,0.3 c-0.9,0-1.8,0.2-2.9-0.3C53.7,26.6,54.6,26.6,55.5,26.7z M35.3,33.1c-1-0.2-0.9-1.2-1-2c0.1-0.4-0.2-1.2,0.7-1 c1.3,0.2,1,1.5,1.4,2.2C36.6,32.8,35.7,33.2,35.3,33.1z M38.9,43.2c-0.4,0.3-0.7-0.2-0.9-0.5c-0.4-0.8-0.9-1.5-1.2-2.3 c-0.2-0.6-0.1-1,0.5-1.2c0.6-0.2,1-0.2,1.3,0.4c0.4,0.9,0.8,1.7,1.1,2.6C39.7,42.8,39.2,43,38.9,43.2z M39.3,34.3 c0.5,0.5,0.1,1.1,0.4,1.7c-0.3-0.1-0.4-0.1-0.4-0.1c-0.3-0.5-0.4-1-0.4-1.6C39,34.3,39.3,34.2,39.3,34.3z M39.5,32.6 c0.1,0,0.2,0.1,0.3,0.2c-0.1,0.1-0.2,0.2-0.3,0.2c-0.1-0.1-0.3-0.1-0.3-0.2C39.1,32.6,39.3,32.6,39.5,32.6z M38.5,32.4 c-1-0.2-0.5-1.2-0.8-1.8c-0.2-0.3,0.2-0.6,0.6-0.5c0.8,0.3,0.6,1,0.7,1.5C39.1,32.1,38.9,32.5,38.5,32.4z M40.1,44.7 c0.3-0.7,0.7-0.6,1.1-0.1c0.3,0.2,0.4,0.4,0.4,0.8C40.9,45.5,40.5,45.2,40.1,44.7z M40.9,31.2c0-0.6-0.1-1.1,0.7-1.1 c0.9,0,0.7,0.8,0.8,1.2c0.2,0.6-0.3,0.8-0.7,0.8C40.8,32.1,40.9,31.5,40.9,31.2z M41.5,41.3c-0.4,0.4-0.3-0.1-0.4-0.3 c0-0.1,0-0.2,0.1-0.3C41.5,40.8,41.6,41.2,41.5,41.3z M41.1,27.3c-0.4,0-0.7-0.1-0.7-0.5c0-0.5,0.5-0.4,0.8-0.4 c0.3,0,0.8-0.1,0.7,0.5C41.9,27.3,41.5,27.3,41.1,27.3z M40.4,38.3c0.2,0,0.2,0.2,0.2,0.4c0,0.1,0.1,0.4-0.2,0.3 c-0.1,0-0.2-0.2-0.3-0.4C40.1,38.5,40.2,38.4,40.4,38.3z M42.1,36c-0.7-0.1-0.6-0.8-0.7-1.3c-0.1-0.5,0.1-0.9,0.6-0.9 c0.7,0,0.6,0.7,0.7,1.2C42.7,35.4,42.8,36.1,42.1,36z M43,40.6c-0.4-0.8-0.6-1.6-0.6-2.5c0-0.3,0.2-0.3,0.4-0.4 c0.3,0,0.5,0.1,0.6,0.4c0.2,0.7,0.4,1.3,0.6,2c0.1,0.2,0.2,0.5-0.2,0.7C43.6,40.9,43.2,40.9,43,40.6z M42.9,22.2 c0.1,0,0.2,0.1,0.4,0.1c-0.2,0.1-0.2,0.2-0.3,0.2c-0.1,0-0.2,0-0.2-0.1C42.7,22.3,42.8,22.2,42.9,22.2z M45.6,35.6 c-0.8,0-1-0.5-1.1-1.1c0-0.6,0.3-0.9,0.9-1c0.8-0.1,1,0.4,0.9,1C46.4,35,46.5,35.5,45.6,35.6z M45.1,31.7c-0.8,0-1-0.5-1.1-1.2 c0-0.7,0.4-0.7,0.9-0.8c0.7-0.1,1.1,0.2,0.9,0.9C45.9,31.3,45.9,31.8,45.1,31.7z M46.3,24.1c-0.1,0.5-0.2,1-1.1,0.9 c-0.3-0.1-0.9,0.2-0.9-0.7c0-0.9,0.7-0.8,1.2-0.8C45.8,23.5,46.4,23.5,46.3,24.1z M44.5,26.7c0.3-0.2,0.5-0.6,0.8,0 c0.3,0.1,0.5,0.2,0.5,0.5c0,0.3-0.3,0.3-0.5,0.3c-0.3,0-0.5,0-0.8,0c-0.2,0-0.6,0-0.6-0.3C43.8,26.8,44.2,26.8,44.5,26.7z M45.2,44.4c-0.8-0.2-1-0.9-1.2-1.5c-0.1-0.4,0.2-0.5,0.6-0.5c0.8,0.2,0.7,1.1,0.9,1.7C45.6,44.3,45.4,44.5,45.2,44.4z M46.3,40.2 c-1-0.3-0.8-1.3-1-2c-0.2-0.6,0.1-0.9,0.8-0.8c1.4,0.2,0.3,1.5,1,1.9C47.2,40,46.8,40.4,46.3,40.2z M47.5,44 c-0.7-0.3-0.6-1.1-0.8-1.7c-0.1-0.3,0.1-0.5,0.3-0.4c0.8,0.2,0.5,1.1,0.9,1.4C47.9,43.8,47.8,44.1,47.5,44z M47.7,30.6 c0-1.1,0.7-0.7,1.3-0.8c0.4,0.1,1.2-0.3,1.1,0.7c-0.1,0.8-0.5,1.2-1.4,1.2C47.8,31.6,47.7,31.2,47.7,30.6z M47.8,26.9 c0.7-0.5,1.3,0,1.9,0.2c-0.6,0.7-1.3,0.4-1.9,0.3C47.6,27.3,47.6,27,47.8,26.9z M48,34c-0.1-0.7,0.6-0.7,0.9-0.7 c0.7-0.1,1,0.4,0.8,1.1c0.1,0.6-0.1,0.9-0.8,1C48,35.4,48.1,34.6,48,34z M48.5,38c-0.1-0.5,0-1,0.7-0.9c1.5,0.1,0.3,1.4,0.8,1.8 c0.1,0.6-0.1,1-0.7,0.9C48.3,39.6,48.6,38.7,48.5,38z M50,43.8c-0.6-0.8-0.9-1.3-0.6-2c0-0.1,0.4-0.2,0.4-0.1 C50.3,42.2,50,42.9,50,43.8z M50.2,24.3c0,0.6-0.2,0.9-0.8,0.8C48.8,25,48,25.2,48,24.3c-0.1-0.8,0.6-0.8,1.5-0.8 C49.7,23.5,50.2,23.4,50.2,24.3z M49.4,17.5c0.1-0.4,0-0.8,0.6-0.8c0.6-0.1,0.5,0.3,0.5,0.7c0,0.4-0.1,0.7-0.6,0.6 C49.7,18,49.2,18.1,49.4,17.5z M48.5,21.3c0.2-0.7,0.1-1.7,1.3-1.7c0.9,0,0.7,0.6,0.8,1.2c0.1,0.7-0.2,1.2-1.1,1.1 C48.9,21.9,48.3,22,48.5,21.3z M48.1,13.8c0.2,0.5,0.1,1-0.3,1.3c-0.1,0.1-0.3-0.1-0.4-0.2C47.3,14.2,47.5,13.9,48.1,13.8z M47.3,11.7c0,0.1,0.1,0.1,0.1,0.2c0,0.1-0.1,0.1-0.2,0.1c0-0.1-0.1-0.1-0.1-0.2C47.1,11.8,47.3,11.7,47.3,11.7z M46.4,17.7 c0-0.1,0-0.2,0-0.3c0.1-0.4,0.2-0.7,0.7-0.8c0.3,0,0.3,0.1,0.4,0.4c0.1,0.6-0.4,0.6-0.8,0.7c0,0.2,0.2,0.5-0.2,0.5 C46.2,18.2,46.3,17.9,46.4,17.7z M46.9,20.6c-0.1,0.6,0,1.5-1.1,1.4c-0.4,0-0.9-0.1-0.7-0.6c0.2-0.7,0.1-1.6,1.2-1.7 C47,19.6,46.9,20,46.9,20.6z M45,17.9c0-0.1,0.1-0.1,0.1-0.2c0.1,0,0.2,0.1,0.2,0.1c0,0.1-0.1,0.1-0.1,0.2C45.2,18,45.1,18,45,17.9 z M45.1,12.8c0.4,0,0.8,0.2,0.7,0.6c-0.1,0.5-0.1,1.2-0.9,1.2c-0.4,0-1-0.1-0.9-0.4C44,13.5,44.5,13.1,45.1,12.8z M43.2,16 c0.5,0.1,1.3-0.1,1.3,0.7c0,0.5-0.2,1.3-1.1,1.1c-0.5-0.1-1.1,0-1.2-0.7C42.2,16.5,42.5,15.8,43.2,16z M41.1,20.7 c0.1-1,0.5-1.5,1.6-1.4c0.4,0.1,0.9,0,0.8,0.8c-0.3,0.4-0.1,1.5-1.1,1.4C41.9,21.4,40.9,21.9,41.1,20.7z M41.3,23.2 c0.5,0.1,1.1-0.2,1.1,1.1c0,0.1-0.1,0.4-0.6,0.3c-0.5-0.1-1.2,0-1.2-0.8C40.6,23.2,40.9,23.2,41.3,23.2z M39.4,16.4 c0.2-0.6,0.3-1.4,1.1-1.4c0.5,0,0.3,0.5,0.4,0.8c-0.2,0.4-0.1,1.2-0.9,1.2C39.6,16.9,39.3,16.7,39.4,16.4z M37.8,20.1 c0.2-0.6-0.1-1.6,1-1.6c0.5,0,0.9,0.2,0.7,1.3c-0.1,0.2,0.1,1.1-0.9,1.1C38,20.9,37.6,20.6,37.8,20.1z M37.8,22.6 c0.4,0.1,1,0,0.9,0.7c0,0.4-0.1,0.8-0.6,0.7c-0.5-0.1-1-0.2-1-0.8C37.2,22.8,37.3,22.5,37.8,22.6z M37.7,25.6 c0.5,0.1,0.9,0.3,0.8,0.9c0,0.7-0.5,0.6-0.9,0.6c-0.5,0.1-0.7-0.2-0.7-0.8C37,25.9,37.1,25.6,37.7,25.6z M37.7,36.7 c0.2,0.8-0.7,0.9-1.1,0.9c-1-0.2-0.9-1.2-1.1-2c-0.2-0.7,0.4-0.8,1.2-0.8C37.6,34.9,37.5,36,37.7,36.7z M34.9,19.1 c0.2-0.6,0.1-1.5,1-1.6c0.4,0,0.6,0.4,0.5,1c-0.4,0.4,0.2,1.5-0.9,1.6C34.7,20.2,34.8,19.5,34.9,19.1z M34.4,21.1 c0.1,0,0.2,0.1,0.2,0.1c0,0.1-0.1,0.1-0.1,0.2c-0.1,0-0.2-0.1-0.2-0.1C34.3,21.3,34.4,21.2,34.4,21.1z M34.8,22 c0.3,0.1,0.8,0.1,0.8,0.7c0,0.4-0.1,0.9-0.7,0.8c-0.4,0-0.8-0.2-0.8-0.6C34,22.5,34.2,22,34.8,22z M33.8,26.4 c0.2-0.4-0.4-1.2,0.7-1.1c0.5,0.1,1.1,0.2,0.8,0.8c-0.2,0.5,0.2,1.4-0.9,1.3C33.6,27.4,33.7,26.9,33.8,26.4z M33.4,35.7 c0.3,0.1,0.4,0.3,0.5,0.5c0.1,0.3,0.2,0.7,0.3,1c0.1,0.5,0.8,1.3-0.2,1.5c-0.8,0.1-1.1-1-1.5-1.6c-0.4-0.6-0.1-1,0.5-1.2 C33.1,35.8,33.2,35.8,33.4,35.7z M31.5,24.9c0.7,0,0.4,0.9,0.5,1.4c0,0.1,0,0.2,0,0.3c-0.1,0.4,0.2,1-0.5,1c-0.5,0-0.3-0.6-0.3-1 c0-0.1,0-0.3,0-0.5C31.3,25.8,30.9,24.9,31.5,24.9z M31.1,32.1c0.2-0.7-0.3-1.8,0.6-1.9c1-0.1,0.8,1.1,1,1.7 c0.2,0.4,0.2,0.9,0.2,1.4c0,0.7-0.5,0.7-1,0.9c-0.6,0.2-0.6-0.4-0.7-0.7C31.2,33.1,31.2,32.6,31.1,32.1z"/><path d="M33.8 73.5L33.8 73.5 33.8 73.5z"/><path d="M58.8,68.8c-1.5-0.2-3-0.5-4.4-0.2c-3,0.5-6,0.6-9.1,0.9c-1.1,0.1-2.2,0-3.4,0c1.2-2,3.3-3.1,5.1-2.9 c2,0.2,4-1.3,4-3.5c0-1.3,0.4-2.2,1.4-3c0.1-0.7,0.4-1.4-0.8-1.1c-0.9,0.2-1.6,0.9-2.7,0.5c-2.4-0.7-4.9,1.3-4.8,3.8 c0.1,1.4-0.5,2.3-1.5,3.1c-0.9,0.8-1.8,1.6-2.8,2.3c-1,0.7-2,1.1-3.3,1c-3,0-6,0.1-9,0c-2.4-0.1-4.8,0.1-7.2,0.2 c-1.1,0.1-1.7-0.4-2-1.4c-0.3-1-0.7-2.1-1.6-2.8c-2-1.6-4.2-2.7-6.9-2.4c-3.4,0.4-6.3,1.5-8.4,4.4c-1.6,2.2-2,5.9-0.4,8 c2.2,3,4.6,5.9,9.1,5.3c1.9-0.3,3.6-0.6,5-1.8c0.8-0.7,1.4-0.6,2.1-0.1c2.4,1.8,4.7,3.7,7.1,5.5c0.5,0,0.8,0.4,1.1,0.8 c2,1.5,4,3.1,5.9,4.7c0.7,0.6,0.9,1.1,0.9,1.9c0,2.7,0.1,5.5-0.1,8.2c-0.1,1.9,0,3.8-0.5,5.7c-0.1,0.5-0.3,0.8-0.8,0.8 c-0.9,0.5-1.9,0.9-2.8,1.4c-0.7,0.4-1.5,0.4-2.3,0.5c-0.7,0.2-1.1,0.6-1.1,1.3c0,0.4,0.2,0.7,0.7,0.7c2-0.1,4,0.3,6,0.2 c2.1-0.2,4.2-0.5,6.4-0.3c0.9,0.1,1.6,0,2.4-0.3c0.6-0.2,1.2-0.5,1.1-1.2c0-0.6-0.5-0.9-1.1-1.1c-1.3-0.4-2.7-0.8-4-1.3 c-1.8-0.6-2.5-1.7-2.4-3.5c0.3-3.4,0.2-6.8,0.3-10.2c0-1.5,0.5-2.7,1.8-3.7c1.8-1.3,3.7-2.4,5.2-4c0-1.5,1.3-1.4,2.1-1.8 c0.2-1.1,1.3-1.2,2.1-1.6c0.7-0.2,1.1-0.8,1.5-1.3c0.4-0.8,1-1.4,1.9-1.6c0.6-0.2,0.8-0.8,1.2-1.1c0.5-0.6,0.9-1.3,1.9-1.3 c1-0.6,1.8-1.5,2.8-2.2c1.4-1.1,2.5-2.7,4.3-3.3c0.5-0.2,1-0.4,0.9-1C59.8,69.5,59.5,68.9,58.8,68.8z M48,61.2 c1.2-0.2,1.5,0.6,1.5,1.6c0,1.2-0.8,2.1-1.8,2.1c-1.2,0-1.9-0.6-1.9-1.7C45.8,62,46.7,61.2,48,61.2z M13.1,77.7 c-1.8,1.1-3.7,2.3-5.8,1.2c-2.2-1.1-5.5-5.3-4.4-8.7c0.6-1.8,1.7-3,3.5-3.4c2-0.5,3.9-0.7,5.9-0.6c1.7,0.1,2.8,1.1,3.6,2.5 c0.3,0.6,0.5,1.3-0.8,1.5c-2.1,0.2-4.1,0.2-6.2,0.2c-0.5,0-1,0.1-1.1,0.7c-0.2,0.7,0.4,0.9,1,1.1c0.6,0.1,1,0.5,1.3,1.1 c0.8,1.2,2.2,1.8,3.2,2.8C13.9,76.8,13.8,77.2,13.1,77.7z M15.7,74.8c-1,0.4-1.4-0.6-2-1c-0.5-0.4-1.5-0.6-1.2-1.3 c0.2-0.6,1.2-0.2,1.8-0.3c0.3,0,0.5,0,0.8,0c1-0.1,1.5,0.3,1.2,1.3C16.1,73.9,17,74.9,15.7,74.8z M36.5,71.4c0.1,0,0.2,0,0.2,0.3 c-0.1,0-0.2,0.1-0.3,0.1c-0.1,0-0.1-0.2-0.2-0.3C36.3,71.4,36.4,71.4,36.5,71.4z M17.8,76.9c-0.3-0.3-0.1-0.6,0-1 c0.5-0.9,0.9-1.8,0.8-2.8c0-0.8,0.5-1,1.1-0.9c3.8,0.5,7.6-0.1,11.4,0c0.9,0,1.8-0.2,2.7-0.2c0.4,0,1-0.2,1,0.5 c0.1,0.8-0.6,0.9-1.1,1c-1,1.3-2.2,2.3-3.6,3.2c-2,0.4-4,0.6-6.1,0.4c-1.8-0.2-3.5-0.4-5.3,0.1C18.4,77.2,18,77.2,17.8,76.9z M34.7,107.7c0.2,0.1,0.3,0.4,0.2,0.6c-0.3,0.5-0.8,0.2-1.2,0.3c-0.5,0.1-1,0.2-1.5,0.2c-0.4,0-0.9,0.4-1-0.4 c0.3-0.5,0.7-0.7,1.3-0.8c0.2-0.1,0.4-0.3,0.7-0.4C33.8,106.9,34.2,107.5,34.7,107.7z M45.8,79c-0.8,0.7-1.6,1.3-2.4,2l0,0 c-0.6,1.4-1.9,2.1-3.2,2.7c-1.9,1.4-3.9,2.8-5.8,4.1c-1.7,1.1-2,1.1-3.5-0.1c-0.6-0.2-1-0.6-1.3-1.1c-1.3-1.2-2.7-2.2-4.2-3.1 c-0.5-0.1-0.8-0.3-1.1-0.8c-1.2-1-2.4-2-3.6-3.1c0.5-0.4,1.1-0.5,1.6-0.5c1,0,1.9,0,2.9,0c0.4,0,1-0.2,1.2,0.2 c0.2,0.5-0.3,0.7-0.6,1.1c-0.4,0.4-0.8,0.9-0.3,1.5c0.6,0.6,1,0.1,1.5-0.3c0.2-0.1,0.4-0.2,0.5-0.4c1.5-2.5,3.9-2.9,6.5-2.9 c3.8,0.1,7.7-0.5,11.5-0.2c0.3,0,0.8-0.1,0.9,0.3C46.6,78.8,46.1,78.8,45.8,79z M46.7,76.4c-2.5-0.1-5,0-7.6,0.1 c-1.3,0-2.7,0.2-4,0.4c-0.9,0.1-1.8,0.1-2.6-0.4c0.2-1,1-1.5,1.9-1.8c0.2-0.2,0.3-0.4,0.5-0.5c0.6-0.5,1-1.3,1.9-1.3 c1.2-0.9,2.5-1.1,3.9-1.1c3,0,6.1-0.3,9.1-0.4c1.6-0.1,3.2,0,4.8,0.2C52.2,73.5,50.4,76.5,46.7,76.4z"/><path d="M16.3,73.5c0,0.1-0.1,0.1-0.1,0.2C16.2,73.6,16.2,73.6,16.3,73.5z"/><path d="M83.8,73.8c-0.8-2.2-1.6-2.6-4.1-2.3c-3.8,0.5-7.7,0.7-11.4,0.8c-1.3,0-2.5,0.1-3.6,0 c-1.2-0.1-1.9,0.4-2.3,1.4c-0.9,2.1-1.6,4.3-2,6.6c-0.5,2.5-0.5,5.1,0.6,7.4c1.9,4.2,5,6.7,9.8,6.8c0.6,0,1.1,0.2,1.1,1 c0,2.5,0,5,0.1,7.4c0,0.8-0.3,1.3-0.8,1.8c-1.8,1.5-3.6,3-6.1,3.4c-0.6,0.1-1,0.5-0.9,1.1c0.1,0.6,0.5,0.7,1.1,0.8 c0.3,0,0.7,0,1-0.1c4.5-1,9-1.2,13.6-0.6c0.6,0.1,1.3,0.2,1.5-0.6c0.2-0.8-0.5-1.2-1.1-1.3c-1-0.1-1.9-0.4-2.8-0.6 c-2.4-0.5-3.4-1.8-3.4-4.2c0-2.4,0-4.7-0.1-7.1c0-1,0.4-1.3,1.3-1.3c7.6-0.3,11.1-7,10.7-13.4C85.6,78.2,84.6,76,83.8,73.8z M74,107.1c-1.1,0.1-1.9,0.5-2.9,0.3C71.8,106.2,72.7,106.1,74,107.1z M82.5,81.6c-0.2,2.2-0.8,4.3-1.7,6.2 c-0.8,1.9-2.4,3.1-4.4,3.7c-2.4,0.8-4.8,1.2-7.4,0.9c-3.4-0.5-6.4-4.1-7-6.6c-0.1-0.5-0.2-0.9-0.3-1.4c-0.2-2.7,0-2.9,2.7-3 c0.2,0,0.4,0,0.7,0l0,0h0c0.4-0.4,0.9-0.3,1.4-0.2c3.2-0.1,6.3-0.1,9.5-0.2c1.8-0.1,3.6-0.2,5.5-0.4C82.4,80.5,82.6,80.7,82.5,81.6 z M80,78.5c-0.9,0-1.8,0.2-2.7,0.2c-0.9,0-1.7,0-2.6,0c0,0.1,0,0.2,0,0.3c-2.7,0-5.3,0-8,0c-1,0-2-0.2-3-0.3 c-0.9-0.1-1.2-0.6-0.8-1.4c0.3-0.7,0.5-1.4,0.8-2.1c0.2-0.7,0.7-0.9,1.4-0.9c3,0,6.1-0.3,9.1-0.3c2.2,0,4.4-0.2,6.6-0.2 c0.8,0,1.3,0.2,1.5,1c0.1,0.3,0.2,0.5,0.2,0.8C82.9,78.4,83.4,78.5,80,78.5z"/><path d="M15,41.8c-0.5,1.3-1.2,2.3-2.8,2.6c-0.9,0.1-1.6,0.7-2.3,1.1c-1.1,0.6-1.1,1.1-0.3,2.1 c1,1.2,1.8,2.5,1.7,4.2c-0.1,0.7-0.3,1.4,0.4,1.8c0.8,0.4,1.1-0.3,1.6-0.7c1.7-1.4,3-2,5.1-0.8c0.6,0.4,1.3,0.6,2,0.9 c0.6,0.3,1.1,0.2,1.5-0.2c0.4-0.4,0.2-0.8,0-1.3c-1.1-2.5-0.7-4.2,1.5-5.9c0.1-0.1,0.2-0.2,0.3-0.3c0.7-0.7,0.6-1.2-0.3-1.7 c-1-0.4-2-0.4-3-0.2c-1.7,0.3-2.6-0.2-3.3-1.8c-0.2-0.5-0.3-1.3-1.1-1.3C15.3,40.4,15.2,41.2,15,41.8z M16.5,44.1 c1.3,0.8,2.7,1.5,4.8,1c-1.3,1.5-2,2.9-1.4,4.6c0.2,0.5-0.2,0.8-0.8,0.6c-0.4-0.1-0.8-0.2-1.1-0.4c-1.4-0.6-2.7-0.5-3.9,0.4 c-0.6,0.5-1,0.5-1.2-0.5c-0.2-0.8-0.5-1.5-0.9-2.2c-0.6-1-0.3-1.5,0.7-1.7c1.3-0.2,2.5-0.6,3.2-1.9C15.9,43.8,16.2,44,16.5,44.1z"/><path d="M83.7 12L83.7 12 83.7 12z"/><path d="M92.4,13.6c-0.3-0.5-0.8-0.4-1.2-0.3c-1.5,0.5-2.9,0.1-4.3-0.5c-0.5-0.2-0.6-0.7-0.9-1.1 c-0.8-1.1-1.1-1.1-2,0c-0.1,0.1-0.2,0.2-0.3,0.2c0,0,0,0,0,0c0,0-0.1,0-0.1,0.1c-0.2,0.9,0.3,2.2-1.3,2.4c-0.4,0.4-0.9,0.4-1.3,0.3 c-0.1,0-0.2,0-0.3,0c-0.8-0.1-1.7-0.3-2.1,0.7c-0.4,1,0.3,1.5,1,1.9c1.1,0.7,1.7,1.5,1,2.9c-0.3,0.5-0.2,1.2,0.4,1.7 c0.4,0.3,0.9,0.4,1.4,0.1c1.9-1.5,3.8-1.1,5.8-0.3c1.1,0.4,1.8-0.2,1.5-1.3c-0.5-1.5,0.1-2.6,1.1-3.6c0.5-0.5,0.9-1.1,1.4-1.7 C92.6,14.5,92.7,14.1,92.4,13.6z M82.1,20.7c-0.1,0-0.2-0.1-0.2-0.1c0-0.1,0.1-0.1,0.1-0.2c0.1,0,0.2,0.1,0.2,0.1 C82.2,20.5,82.2,20.6,82.1,20.7z M89.1,16.1c-0.1,0.1-0.2,0.2-0.3,0.3c-0.9,0.8-0.3,2.8-1.9,2.8c-1.2,0-2.4-0.2-3.6,0.1 c-0.2,0.1-0.6,0.2-0.5-0.3c0.1-0.9-0.3-1.6-0.8-2.3c-0.3-0.5-0.1-0.8,0.5-0.9c0.4-0.5,1-0.7,1.6-1c0-0.7,0.2-1.4,0.8-1.9 c0.5-0.2,0.7,0.3,0.9,0.5c0.8,0.9,1.8,1.4,2.9,1.5C89.7,15.2,89.5,15.6,89.1,16.1z"/><path d="M83.7 12L83.7 12 83.7 12z"/><path d="M9.9,35.6c0.2,1.2,0.8,1.2,1.6,0.6c0.8-0.6,1.6-1.1,2.4-0.9c0.4,0,0.6,0,0.7,0c0.8,0.1,1.5-0.3,1.2-1 c-0.4-0.9,0.6-2.6-1.1-2.7c-1-0.1-1.5-0.3-1.8-1.3c-0.1-0.4-0.3-0.7-0.8-0.8c-0.5,0-0.7,0.4-0.8,0.7c-0.3,0.9-0.9,1.5-1.7,1.9 c-1,0.6-1.3,1.2-0.4,2.1C9.7,34.7,9.8,35.2,9.9,35.6z M11.3,33.3c0-0.5,0.4-0.7,0.8-0.6c0.5,0,0.8,0.4,0.9,0.8 c-0.3,0.4-0.8,0.6-1.2,0.7C11.3,34.2,11.3,33.7,11.3,33.3z"/><path d="M87.8,25.8c-1.5,0.4-1.9-0.5-2.1-1.8c-0.1-0.4-0.3-0.8-0.7-0.8c-0.5-0.1-0.6,0.4-0.7,0.8 c-0.3,0.9-0.7,1.7-1.6,2.3c-0.6,0.4-0.9,1-0.2,1.6c0.5,0.4,0.5,1,0.4,1.5c0,0.4-0.1,0.8,0.4,1c0.4,0.2,0.8-0.1,1-0.4 c0.8-0.9,1.6-1.3,2.7-0.4c0.4,0.4,1.2,0.3,1.2-0.4c0.1-0.9-0.3-1.8,0.4-2.5C88.6,26,88.3,25.6,87.8,25.8z"/><path d="M52.7,58.9c0.5,0.5,0,0.9-0.3,1.3c0.9-0.5,1.8-1,2.7-1.6c0.5-0.3,0.5-0.7,0.2-1.1c-0.3-0.4-0.7-0.5-1.1-0.2 c-0.8,0.6-1.7,1.2-2.5,1.8C51.9,58.9,52.3,58.5,52.7,58.9z"/><path d="M52.4,60.2c0.3-0.4,0.8-0.8,0.3-1.3c-0.4-0.4-0.8,0-1.1,0.2C52.8,58.8,52.5,59.6,52.4,60.2z"/><path d="M83.7,12c0,0,0.1,0,0.1-0.1c0.4-0.5,0.3-1.4,1.1-1.4c0.8,0,1.1,0.8,1.5,1.4c0.2,0.3,0.3,0.6,0.6,0.8 c-0.3-0.6-0.5-1.3-1-1.8c-0.8-1-1.5-1-2,0.2C83.9,11.4,83.8,11.7,83.7,12L83.7,12C83.7,11.9,83.7,11.9,83.7,12z"/><path d="M83.7 12L83.7 12 83.7 12z"/><path d="M83.7,11.9L83.7,11.9L83.7,11.9L83.7,11.9L83.7,11.9C83.7,12,83.7,11.9,83.7,11.9z"/><path d="M86.4,11.9c-0.4-0.6-0.7-1.4-1.5-1.4c-0.8,0-0.7,0.9-1.1,1.4c0.1-0.1,0.2-0.1,0.3-0.2c0.9-1.1,1.2-1.1,2,0 c0.3,0.4,0.4,0.9,0.9,1.1C86.7,12.6,86.6,12.2,86.4,11.9z"/><path d="M41.1,85.3c0.9-0.4,1.4-1.2,2.1-1.8c0,0,0,0,0,0C42.4,84,41.7,84.6,41.1,85.3z"/><path d="M43.3,83.5C43.3,83.5,43.3,83.5,43.3,83.5c-0.8,0.5-2.2,0.3-2.1,1.8C41.7,84.6,42.4,84,43.3,83.5z"/><path d="M83.7 12L83.7 12 83.7 12 83.7 12z"/><path d="M82.5,14.3c1.2-0.4,0.8-1.6,1.2-2.4c0,0,0,0,0,0C83.2,12.7,83.3,13.8,82.5,14.3 C82.5,14.3,82.5,14.3,82.5,14.3C82.5,14.3,82.5,14.3,82.5,14.3z"/><path d="M82.5,14.3L82.5,14.3c1.6-0.2,1-1.5,1.3-2.4c0,0,0,0,0,0C83.3,12.7,83.7,14,82.5,14.3z"/><path d="M83.7,11.9C83.7,11.9,83.7,12,83.7,11.9C83.7,12,83.7,12,83.7,11.9C83.7,11.9,83.7,11.9,83.7,11.9z"/><path d="M83.7,12C83.7,12,83.7,12,83.7,12C83.7,12,83.7,11.9,83.7,12C83.7,11.9,83.7,12,83.7,12z"/><path d="M43.3,83.5C43.3,83.5,43.3,83.5,43.3,83.5L43.3,83.5L43.3,83.5L43.3,83.5c0.7-0.5,1.5-0.9,2.1-1.6 C44.6,82.4,43.8,82.8,43.3,83.5z"/><path d="M43.3 83.5L43.3 83.5 43.3 83.5z"/><path d="M43.3 83.5L43.3 83.5 43.3 83.5 43.3 83.5z"/><path d="M43.3,83.5C43.3,83.5,43.3,83.5,43.3,83.5c0.6-0.7,1.4-1.1,2.1-1.6C44.6,82.3,43.5,82.4,43.3,83.5z"/><path d="M43.3 83.5L43.3 83.5 43.3 83.5 43.3 83.5z"/><path d="M43.3 83.5L43.3 83.5 43.3 83.5z"/><path d="M51.9,76.7C51.2,77,50.6,77.5,50,78C50.8,77.8,51.4,77.2,51.9,76.7z"/><path d="M50,78c0.6-0.4,1.1-1,1.9-1.3C51,76.7,50.5,77.3,50,78z"/><path d="M48.8,79c-0.8,0.4-1.2,1.1-1.9,1.6C47.7,80.3,48.2,79.6,48.8,79z"/><path d="M46.9,80.6c0.6-0.5,1.1-1.2,1.9-1.6C47.9,79.2,47.3,79.8,46.9,80.6z"/><path d="M33.5,42.9L33.5,42.9L33.5,42.9L33.5,42.9C33.5,42.9,33.5,42.9,33.5,42.9c0.5,0.6,1.1,1.1,1.8,1.3 C34.7,43.8,34.1,43.3,33.5,42.9C33.5,42.9,33.5,42.9,33.5,42.9z"/><path d="M33.5 42.9L33.5 42.9 33.5 42.9z"/><path d="M33.5,42.9C33.5,42.9,33.5,42.9,33.5,42.9c0.6,0.4,1.2,0.9,1.8,1.3C34.9,43.5,34.3,43.1,33.5,42.9z"/><path d="M33.5,42.9c-0.5-0.5-1.1-1-1.6-1.6C32.2,42.1,32.8,42.6,33.5,42.9C33.5,42.9,33.5,42.9,33.5,42.9L33.5,42.9 z"/><path d="M33.5,42.9C33.5,42.9,33.5,42.9,33.5,42.9c-0.3-0.7-0.9-1.1-1.6-1.6C32.4,41.9,33,42.4,33.5,42.9z"/><path d="M33.5 42.9L33.5 42.9 33.5 42.9z"/><path d="M33.5 42.9L33.5 42.9 33.5 42.9 33.5 42.9z"/><path d="M33.5 42.9L33.5 42.9 33.5 42.9z"/><path d="M33.5 42.9L33.5 42.9 33.5 42.9 33.5 42.9z"/><path d="M82.5,14.3C82.5,14.3,82.5,14.3,82.5,14.3C82.5,14.3,82.5,14.3,82.5,14.3c-0.5,0.1-0.9-0.1-1.3,0.3 C81.5,14.3,82.1,14.7,82.5,14.3z"/><path d="M82.5,14.3L82.5,14.3c-0.4,0.4-0.9,0-1.3,0.3C81.6,14.7,82.1,14.8,82.5,14.3z"/><path d="M82.5 14.3L82.5 14.3 82.5 14.3z"/><path d="M82.5 14.3L82.5 14.3 82.5 14.3z"/><path d="M82.5 14.3L82.5 14.3 82.5 14.3z"/><path d="M82.5 14.3L82.5 14.3 82.5 14.3z"/><path d="M25.4,85.6c-0.3-0.3-0.7-0.6-1.1-0.8C24.6,85.1,24.9,85.5,25.4,85.6z"/><path d="M24.3,84.8c0.4,0.2,0.7,0.5,1.1,0.8C25.2,85.1,24.9,84.8,24.3,84.8z"/><path d="M31.7,106.2c-0.3,0.3-0.5,0.6-0.8,0.8C31.3,106.8,31.5,106.6,31.7,106.2z"/><path d="M31.7,106.2c-0.1,0.4-0.4,0.7-0.8,0.8C31.4,106.9,31.6,106.6,31.7,106.2z"/><path d="M33.8,73.5L33.8,73.5c-1.4,0.9-2.4,2.2-3.7,3.2C31.5,75.8,32.7,74.8,33.8,73.5 C33.8,73.5,33.8,73.5,33.8,73.5L33.8,73.5z"/><path d="M30.1,76.6c1.3-1,2.3-2.3,3.7-3.2C32.3,74.2,31.2,75.5,30.1,76.6z"/><path d="M33.8,73.5L33.8,73.5L33.8,73.5L33.8,73.5C33.8,73.5,33.8,73.5,33.8,73.5z"/><path d="M40.2,83.7c1.3-0.6,2.6-1.2,3.2-2.7C42.5,82,41.4,83,40.2,83.7z"/><path d="M40.2,83.7c1.2-0.7,2.3-1.6,3.2-2.7l0,0C42.3,81.9,41.2,82.7,40.2,83.7z"/><path d="M34.4,74.6c-0.9,0.3-1.6,0.8-1.9,1.8C33,75.7,33.6,75,34.4,74.6z"/><path d="M32.5,76.4c0.6-0.6,1.3-1.2,1.9-1.8C33.6,75,33,75.7,32.5,76.4z"/><path d="M34.8,74c0.7-0.3,1.2-0.9,1.9-1.3C35.8,72.8,35.4,73.6,34.8,74z"/><path d="M36.7,72.7c-0.7,0.4-1.2,1-1.9,1.3C35.7,73.9,36.2,73.3,36.7,72.7z"/><path d="M16.3,73.5c0,0.1-0.1,0.1-0.1,0.2c-0.1,0.4,0.1,0.9-0.5,1.1C17,74.9,16.1,73.9,16.3,73.5z"/><path d="M16.2,73.7c-0.2,0.4-0.3,0.7-0.5,1.1C16.2,74.6,16.1,74.1,16.2,73.7z"/><path d="M8.6,72.2c0.5,0.3,0.9,0.7,1.3,1.1C9.7,72.7,9.3,72.3,8.6,72.2z"/><path d="M10,73.3c-0.4-0.4-0.8-0.8-1.3-1.1C9,72.7,9.4,73.1,10,73.3z"/><path d="M33.8,73.5C33.8,73.5,33.8,73.5,33.8,73.5c0.5-0.1,1.1-0.2,1.1-1C34.6,72.9,34.2,73.3,33.8,73.5z"/><path d="M33.8,73.5c0.5-0.2,0.8-0.6,1.1-1C34.5,72.8,34.1,73.1,33.8,73.5C33.8,73.5,33.8,73.5,33.8,73.5z"/><path d="M33.7 73.5L33.8 73.5 33.8 73.5z"/><path d="M33.8,73.5C33.8,73.5,33.8,73.5,33.8,73.5C33.8,73.5,33.8,73.5,33.8,73.5C33.8,73.5,33.8,73.5,33.8,73.5z"/><path d="M30.9,87.7c-0.5-0.3-0.8-0.7-1.3-1.1C29.9,87.1,30.3,87.5,30.9,87.7z"/><path d="M29.6,86.6c0.5,0.3,0.8,0.7,1.3,1.1C30.6,87.1,30.2,86.8,29.6,86.6z"/><path d="M31.2,108.4c0.4-0.4,0.9-0.5,1.3-0.8C31.9,107.6,31.5,107.9,31.2,108.4z"/><path d="M25.4,83.4c-0.4-0.2-0.7-0.5-1.1-0.8C24.6,83.1,24.9,83.4,25.4,83.4z"/><path d="M24.4,82.6c0.3,0.3,0.7,0.6,1.1,0.8C25.2,83,24.8,82.8,24.4,82.6z"/><path d="M36.4,71.7c0.1,0,0.2-0.1,0.3-0.1c0-0.2-0.1-0.3-0.2-0.3c-0.1,0-0.1,0.1-0.2,0.1 C36.3,71.6,36.3,71.7,36.4,71.7z"/><path d="M66.6,81.1c-0.5-0.1-1-0.2-1.4,0.2h0C65.7,81.1,66.2,81.3,66.6,81.1z"/><path d="M66.6,81.1c-0.5,0.2-1-0.1-1.4,0.2C65.7,81.4,66.2,81.4,66.6,81.1z"/><path d="M84.8,13c-0.6,0.5-0.7,1.1-0.8,1.9c0,0,0,0,0,0C84.4,14.3,84.4,13.6,84.8,13z"/><path d="M84.1,14.9C84.1,14.9,84.1,14.9,84.1,14.9c0.6-0.5,0.5-1.2,0.7-1.8C84.4,13.6,84.4,14.3,84.1,14.9 C84.1,14.9,84.1,14.9,84.1,14.9z"/><path d="M84.1,14.9c-0.6,0.3-1.2,0.5-1.6,1C83,15.5,83.6,15.4,84.1,14.9C84.1,14.9,84.1,14.9,84.1,14.9z"/><path d="M84.1 14.9L84.1 14.9 84.1 14.9z"/><path d="M84.1,14.9C84.1,14.9,84.1,14.9,84.1,14.9L84.1,14.9L84.1,14.9L84.1,14.9C84.1,14.9,84.1,14.9,84.1,14.9 c-0.4,0.5-1.1,0.6-1.6,1C83.2,15.8,83.8,15.6,84.1,14.9z"/><path d="M84.1 14.9L84.1 14.9 84.1 14.9 84.1 14.9z"/><path d="M84.1 14.9L84.1 14.9 84.1 14.9z"/><path d="M84.1 14.9L84.1 14.9 84.1 14.9 84.1 14.9z"/><path d="M84.1,14.9C84.1,14.9,84.1,14.9,84.1,14.9C84.1,14.9,84.1,14.9,84.1,14.9L84.1,14.9z"/><path d="M82,20.3c0,0.1-0.1,0.1-0.1,0.2c0,0.1,0.1,0.1,0.2,0.1c0-0.1,0.1-0.1,0.1-0.2C82.2,20.4,82.1,20.4,82,20.3z"/></g></svg>