<svg id="Слой_1" xmlns="http://www.w3.org/2000/svg" viewBox="0 0 59.9 52.1"><path fill="#FFF" d="M58.8,9.8c-1.5-0.2-3-0.5-4.4-0.2c-3,0.5-6,0.6-9.1,0.9c-1.1,0.1-2.2,0-3.4,0c1.2-2,3.3-3.1,5.1-2.9 c2,0.2,4-1.3,4-3.5c0-1.3,0.4-2.2,1.4-3c0.1-0.7,0.4-1.4-0.8-1.1c-0.9,0.2-1.6,0.9-2.7,0.5c-2.4-0.7-4.9,1.3-4.8,3.8 c0.1,1.4-0.5,2.3-1.5,3.1c-0.9,0.8-1.8,1.6-2.8,2.3c-1,0.7-2,1.1-3.3,1c-3,0-6,0.1-9,0c-2.4-0.1-4.8,0.1-7.2,0.2 c-1.1,0.1-1.7-0.4-2-1.4c-0.3-1-0.7-2.1-1.6-2.8c-2-1.6-4.2-2.7-6.9-2.4C6.4,4.9,3.5,6,1.4,8.9c-1.6,2.2-2,5.9-0.4,8 c2.2,3,4.6,5.9,9.1,5.3c1.9-0.3,3.6-0.6,5-1.8c0.8-0.7,1.4-0.6,2.1-0.1c2.4,1.8,4.7,3.7,7.1,5.5c0.5,0,0.8,0.4,1.1,0.8 c2,1.5,4,3.1,5.9,4.7c0.7,0.6,0.9,1.1,0.9,1.9c0,2.7,0.1,5.5-0.1,8.2c-0.1,1.9,0,3.8-0.5,5.7c-0.1,0.5-0.3,0.8-0.8,0.8 c-0.9,0.5-1.9,0.9-2.8,1.4c-0.7,0.4-1.5,0.4-2.3,0.5c-0.7,0.2-1.1,0.6-1.1,1.3c0,0.4,0.2,0.7,0.7,0.7c2-0.1,4,0.3,6,0.2 c2.1-0.2,4.2-0.5,6.4-0.3c0.9,0.1,1.6,0,2.4-0.3c0.6-0.2,1.2-0.5,1.1-1.2c0-0.6-0.5-0.9-1.1-1.1c-1.3-0.4-2.7-0.8-4-1.3 c-1.8-0.6-2.5-1.7-2.4-3.5c0.3-3.4,0.2-6.8,0.3-10.2c0-1.5,0.5-2.7,1.8-3.7c1.8-1.3,3.7-2.4,5.2-4c0-1.5,1.3-1.4,2.1-1.8 c0.2-1.1,1.3-1.2,2.1-1.6c0.7-0.2,1.1-0.8,1.5-1.3c0.4-0.8,1-1.4,1.9-1.6c0.6-0.2,0.8-0.8,1.2-1.1c0.5-0.6,0.9-1.3,1.9-1.3 c1-0.6,1.8-1.5,2.8-2.2c1.4-1.1,2.5-2.7,4.3-3.3c0.5-0.2,1-0.4,0.9-1C59.8,10.5,59.5,9.9,58.8,9.8z M48,2.2c1.2-0.2,1.5,0.6,1.5,1.6 c0,1.2-0.8,2.1-1.8,2.1c-1.2,0-1.9-0.6-1.9-1.7C45.8,3,46.7,2.2,48,2.2z M13.1,18.6c-1.8,1.1-3.7,2.3-5.8,1.2 c-2.2-1.1-5.5-5.3-4.4-8.7c0.6-1.8,1.7-3,3.5-3.4c2-0.5,3.9-0.7,5.9-0.6c1.7,0.1,2.8,1.1,3.6,2.5c0.3,0.6,0.5,1.3-0.8,1.5 c-2.1,0.2-4.1,0.2-6.2,0.2c-0.5,0-1,0.1-1.1,0.7c-0.2,0.7,0.4,0.9,1,1.1c0.6,0.1,1,0.5,1.3,1.1c0.8,1.2,2.2,1.8,3.2,2.8 C13.9,17.8,13.8,18.2,13.1,18.6z M15.7,15.8c-1,0.4-1.4-0.6-2-1c-0.5-0.4-1.5-0.6-1.2-1.3c0.2-0.6,1.2-0.2,1.8-0.3 c0.3,0,0.5,0,0.8,0c1-0.1,1.5,0.3,1.2,1.3C16.1,14.9,17,15.8,15.7,15.8z M36.5,12.3c0.1,0,0.2,0,0.2,0.3c-0.1,0-0.2,0.1-0.3,0.1 c-0.1,0-0.1-0.2-0.2-0.3C36.3,12.4,36.4,12.3,36.5,12.3z M34.7,48.7c0.2,0.1,0.3,0.4,0.2,0.6c-0.3,0.5-0.8,0.2-1.2,0.3 c-0.5,0.1-1,0.2-1.5,0.2c-0.4,0-0.9,0.4-1-0.4c0.3-0.5,0.7-0.7,1.3-0.8c0.2-0.1,0.4-0.3,0.7-0.4C33.8,47.9,34.2,48.4,34.7,48.7z M49.8,16.6c-0.1,0.1-0.1,0.1-0.2,0.2c-0.8,0.8-1.7,1.6-2.7,2.2c-0.1,0.1-0.3,0.2-0.4,0.3c0,0.3-0.4,0.4-0.6,0.6 c-0.8,0.7-1.6,1.3-2.4,2v0c-0.6,1.4-1.9,2.1-3.2,2.7c-1.9,1.4-3.9,2.8-5.8,4.1c-1.7,1.1-2,1.1-3.5-0.1c-0.6-0.2-1-0.6-1.3-1.1 c-1.3-1.2-2.7-2.2-4.2-3.1c-0.5-0.1-0.8-0.3-1.1-0.8c-1.2-1-2.3-2-3.5-3.1c-0.2-0.1-0.3-0.2-0.4-0.3c-0.7-0.4-1.4-0.9-1.9-1.5 c-0.1-0.1-0.2-0.2-0.2-0.3C18.1,18.3,18,18.2,18,18c-0.1,0-0.2-0.1-0.2-0.2c-0.3-0.3-0.1-0.6,0-1c0.5-0.9,0.9-1.8,0.8-2.8 c0-0.8,0.5-1,1.1-0.9c3.8,0.5,7.6-0.1,11.4,0c0.9,0,1.8-0.2,2.7-0.2c0.4,0,1-0.2,1,0.5c0.1,0.8-0.6,0.9-1.1,1c-1,1.2-2.1,2.2-3.4,3 c-0.5,0.8-1.3,1.1-2.1,1.7c-0.6,0.4-1.2,1.1-1.9,1.5c-0.1,0.2-0.4,0.4-0.6,0.6c-0.4,0.4-0.8,0.9-0.3,1.5c0.6,0.6,1,0.1,1.5-0.3 c0.2-0.1,0.4-0.2,0.5-0.4c0.5-0.8,1.1-1.4,1.7-1.8c0.9-0.9,2-1.7,3-2.7c0.1-0.1,0.2-0.2,0.3-0.3c0,0,0,0,0,0c0.2-1,1-1.5,1.9-1.8 c0.2-0.2,0.3-0.4,0.5-0.5c0.6-0.5,1-1.3,1.9-1.3c1.2-0.9,2.5-1.1,3.9-1.1c3,0,6.1-0.3,9.1-0.4c1.6-0.1,3.2,0,4.8,0.2 C53,13.8,51.6,15.6,49.8,16.6z"/></svg>