<svg id="Слой_1" xmlns="http://www.w3.org/2000/svg" viewBox="0 0 14 11.8"><g fill="#FFF"><path d="M5.1,1.7C5.1,1.7,5.2,1.7,5.1,1.7c0.1-0.1,0.1-0.1,0.1-0.1C5.2,1.7,5.1,1.7,5.1,1.7 C5.1,1.7,5.1,1.7,5.1,1.7z"/><path d="M5.1 1.7L5.1 1.7 5.1 1.7z"/><path d="M13.8,3.3c-0.3-0.5-0.8-0.4-1.2-0.3c-1.5,0.5-2.9,0.1-4.3-0.5C7.9,2.3,7.7,1.8,7.5,1.5 c-0.8-1.1-1.1-1.1-2,0C5.4,1.5,5.3,1.6,5.2,1.7c0,0,0,0,0,0c0,0-0.1,0-0.1,0.1C4.9,2.6,5.4,3.9,3.8,4.1C3.5,4.5,3,4.5,2.5,4.4 c-0.1,0-0.2,0-0.3,0C1.4,4.2,0.5,4,0.1,5.1c-0.4,1,0.3,1.5,1,1.9c1.1,0.7,1.7,1.5,1,2.9c-0.3,0.5-0.2,1.2,0.4,1.7 c0.4,0.3,0.9,0.4,1.4,0.1c1.9-1.5,3.8-1.1,5.8-0.3c1.1,0.4,1.8-0.2,1.5-1.3c-0.5-1.5,0.1-2.6,1.1-3.6c0.5-0.5,0.9-1.1,1.4-1.7 C14,4.3,14.1,3.8,13.8,3.3z M3.5,10.4c-0.1,0-0.2-0.1-0.2-0.1c0-0.1,0.1-0.1,0.1-0.2c0.1,0,0.2,0.1,0.2,0.1 C3.6,10.3,3.5,10.4,3.5,10.4z M10.4,5.9c-0.1,0.1-0.2,0.2-0.3,0.3C9.2,6.9,9.8,8.9,8.3,9C7.1,9,5.9,8.8,4.7,9.1 C4.4,9.2,4.1,9.3,4.1,8.8C4.2,8,3.8,7.2,3.4,6.5C3.1,6,3.3,5.7,3.8,5.7c0.4-0.5,1-0.7,1.6-1c0-0.7,0.2-1.4,0.8-1.9 c0.5-0.2,0.7,0.3,0.9,0.5c0.8,0.9,1.8,1.4,2.9,1.5C11.1,5,10.9,5.4,10.4,5.9z"/><path d="M5.1 1.7L5.1 1.7 5.1 1.7z"/><path d="M5.1,1.7c0,0,0.1,0,0.1-0.1c0.4-0.5,0.3-1.4,1.1-1.4c0.8,0,1.1,0.8,1.5,1.4C8,2,8.1,2.3,8.4,2.5 c-0.3-0.6-0.5-1.3-1-1.8c-0.8-1-1.5-1-2,0.2C5.2,1.2,5.2,1.5,5.1,1.7L5.1,1.7C5.1,1.7,5.1,1.7,5.1,1.7z"/><path d="M5.1 1.7L5.1 1.7 5.1 1.7z"/><path d="M5.1,1.7L5.1,1.7L5.1,1.7L5.1,1.7L5.1,1.7C5.1,1.7,5.1,1.7,5.1,1.7z"/><path d="M7.8,1.7C7.4,1.1,7.1,0.3,6.3,0.3c-0.8,0-0.7,0.9-1.1,1.4c0.1-0.1,0.2-0.1,0.3-0.2c0.9-1.1,1.2-1.1,2,0 c0.3,0.4,0.4,0.9,0.9,1.1C8.1,2.3,8,2,7.8,1.7z"/><path d="M5.1 1.7L5.1 1.7 5.1 1.7 5.1 1.7z"/><path d="M3.8,4.1c1.2-0.4,0.8-1.6,1.2-2.4c0,0,0,0,0,0C4.5,2.5,4.7,3.5,3.8,4.1C3.8,4.1,3.8,4.1,3.8,4.1 C3.8,4.1,3.8,4.1,3.8,4.1z"/><path d="M3.8,4.1L3.8,4.1c1.6-0.2,1-1.5,1.3-2.4c0,0,0,0,0,0C4.6,2.5,5.1,3.7,3.8,4.1z"/><path d="M5.1,1.7C5.1,1.7,5.1,1.7,5.1,1.7C5.1,1.7,5.1,1.7,5.1,1.7C5.1,1.7,5.1,1.7,5.1,1.7z"/><path d="M5.1,1.7C5.1,1.7,5.1,1.7,5.1,1.7C5.1,1.7,5.1,1.7,5.1,1.7C5.1,1.7,5.1,1.7,5.1,1.7z"/><path d="M3.8,4.1C3.8,4.1,3.8,4.1,3.8,4.1C3.8,4.1,3.8,4.1,3.8,4.1C3.4,4.2,2.9,4,2.5,4.4C2.9,4.1,3.4,4.5,3.8,4.1z"/><path d="M3.8,4.1L3.8,4.1c-0.4,0.4-0.9,0-1.3,0.3C3,4.5,3.5,4.5,3.8,4.1z"/><path d="M3.8 4.1L3.8 4.1 3.8 4.1z"/><path d="M3.8 4.1L3.8 4.1 3.8 4.1z"/><path d="M3.8 4.1L3.8 4.1 3.8 4.1z"/><path d="M3.8 4.1L3.8 4.1 3.8 4.1z"/><path d="M6.2,2.8C5.6,3.3,5.5,4,5.4,4.7c0,0,0,0,0,0C5.8,4.1,5.7,3.3,6.2,2.8z"/><path d="M5.5,4.7C5.5,4.7,5.5,4.7,5.5,4.7C6,4.2,6,3.4,6.2,2.8C5.7,3.3,5.8,4.1,5.5,4.7C5.5,4.7,5.5,4.7,5.5,4.7z"/><path d="M5.4,4.7c-0.6,0.3-1.2,0.5-1.6,1C4.4,5.3,5,5.2,5.4,4.7C5.4,4.7,5.4,4.7,5.4,4.7z"/><path d="M5.4 4.7L5.4 4.7 5.4 4.7z"/><path d="M5.5,4.7C5.5,4.7,5.4,4.7,5.5,4.7L5.5,4.7L5.5,4.7L5.5,4.7C5.4,4.7,5.4,4.7,5.5,4.7C5,5.2,4.4,5.3,3.8,5.7 C4.5,5.6,5.1,5.4,5.5,4.7z"/><path d="M5.4 4.7L5.5 4.7 5.4 4.7 5.4 4.7z"/><path d="M5.5 4.7L5.4 4.7 5.5 4.7z"/><path d="M5.4 4.7L5.4 4.7 5.4 4.7 5.5 4.7z"/><path d="M5.4,4.7C5.4,4.7,5.5,4.7,5.4,4.7C5.5,4.7,5.5,4.7,5.4,4.7L5.4,4.7z"/><path d="M3.4,10.1c0,0.1-0.1,0.1-0.1,0.2c0,0.1,0.1,0.1,0.2,0.1c0-0.1,0.1-0.1,0.1-0.2C3.6,10.2,3.5,10.2,3.4,10.1z"/></g></svg>