<svg id="Слой_1" xmlns="http://www.w3.org/2000/svg" viewBox="0 0 25.8 38.5"><g fill="#FFF"><path d="M15,22.8c7.6-0.3,11.1-7,10.7-13.4c-0.1-2.5-1.1-4.7-2-7c-0.8-2.2-1.6-2.6-4.1-2.3 c-3.8,0.5-7.7,0.7-11.4,0.8c-1.3,0-2.5,0.1-3.6,0C3.5,0.7,2.8,1.2,2.3,2.3c-0.9,2.1-1.6,4.3-2,6.6c-0.5,2.5-0.5,5.1,0.6,7.4 c1.9,4.2,5,6.7,9.8,6.8c0.6,0,1.1,0.2,1.1,1c0,2.5,0,5,0.1,7.4c0,0.8-0.3,1.3-0.8,1.8c-1.8,1.5-3.6,3-6.1,3.4 c-0.6,0.1-1,0.5-0.9,1.1c0.1,0.6,0.5,0.7,1.1,0.8c0.3,0,0.7,0,1-0.1c4.5-1,9-1.2,13.6-0.6c0.6,0.1,1.3,0.2,1.5-0.6 c0.2-0.8-0.5-1.2-1.1-1.3c-1-0.1-1.9-0.4-2.8-0.6c-2.4-0.5-3.4-1.8-3.4-4.2c0-2.4,0-4.7-0.1-7.1C13.7,23.1,14.1,22.8,15,22.8z M14,35.8c-1.1,0.1-1.9,0.5-2.9,0.3C11.8,34.9,12.7,34.8,14,35.8z M9.1,21.1c-3.4-0.5-6.4-4.1-7-6.6C2,14,1.8,13.5,1.8,13.1 c-0.1-1.1-0.1-1.8,0.1-2.2c0-0.4,0.2-0.8,0.3-1.1c0-0.5,0.1-1,0.3-1.4c0-0.5,0.1-1,0.2-1.5C2.7,6.6,2.7,6.3,2.9,6 c0.3-0.7,0.5-1.4,0.8-2.1C3.8,3.2,4.3,2.9,5,2.9c3,0,6.1-0.3,9.1-0.3c2.2,0,4.4-0.2,6.6-0.2c0.8,0,1.3,0.2,1.5,1 c0.1,0.3,0.2,0.5,0.2,0.8c0.2,1.3,0.4,2,0.2,2.4c0.1,0.6,0.1,1.2,0,1.8c0,0.4,0,0.8-0.2,1.2c0,0.2,0,0.3,0,0.6 c-0.2,2.2-0.8,4.3-1.7,6.2c-0.8,1.9-2.4,3.1-4.4,3.7C14.1,21,11.7,21.5,9.1,21.1z"/><path d="M21.3,13.8c-3.9,0.3-7.8,0.7-11.7,0.6c-2.1-0.1-4.2-0.2-6.3-0.1c-0.7,0-1.6,0.3-1.6-0.7 c0-0.9,0.8-1,1.6-1.1c1.9-0.1,3.8-0.3,5.7-0.4c3.5,0,6.9,0,10,0c0.9-0.1,1.6-0.1,2.2-0.2c0.7,0,1.3,0.1,1.3,0.8 C22.5,13.5,22,13.8,21.3,13.8z"/></g></svg>