<svg id="Слой_1" xmlns="http://www.w3.org/2000/svg" viewBox="0 0 45.7 50.3"><g fill="#FFF"><path d="M3.7,41.3c0.6,0.4,1.3,0.8,1.6,1.6c0.8,0.2,1.4,0.6,1.8,1.3c0.8,0.5,1.7,1.1,2.5,1.6 c4.2,2.6,8.7,4.1,13.6,4.5c2.3,0.2,4.7,0,6.8-0.8c1.8-0.7,3.5-1.5,5.2-2.4c3.8-2,6.6-4.9,8.3-8.7c2.4-5.2,2.7-10.9,1.3-16.4 c-1.1-4.3-4-7.6-7.2-10.5c-3.2-3-7.2-4.1-11.5-4c-0.9,0-1.3-0.2-1.3-1.2c-0.1-1.5-0.2-3-0.2-4.6c0-0.9-0.5-1.5-1.4-1.5 C22.1,0,22,0.8,22,1.6c0.1,1.5-0.1,3,0.2,4.4c0.1,0.8-0.1,1.2-1,1.2C17,7.2,13.2,8.5,9.8,10.8c-2.5,1.6-4.3,3.9-5.9,6.3 c-1,1.5-1.4,3.2-2.2,4.7C0.6,24.1,0,26.5,0,29c0,4.2,1.7,7.8,3.1,11.6C3.2,40.9,3.5,41.1,3.7,41.3z M25.7,42.4 c0,0.5-0.1,1.3-0.7,1.3c-0.5,0-0.3-0.7-0.4-1.1c-0.1-0.6,0.2-1,0.8-1C25.9,41.7,25.6,42.1,25.7,42.4z M26.7,38.3 c-0.4,0.5,0.2,1.8-1.3,1.7c-0.7-0.1-0.9-0.6-0.7-1.1c0.2-0.6-0.5-1.9,1-1.7C26.4,37.2,26.8,37.4,26.7,38.3z M26.4,35.6 c-0.9,0-1.7-0.1-1.7-1.1c0-0.8,0.5-1.1,1.2-0.9c0.6,0.1,1.6-0.2,1.6,0.8C27.5,35,27.4,35.8,26.4,35.6z M28.8,40.5 c-0.4,0.1-0.8-0.2-0.7-0.7c0.2-0.6,0-1.6,0.9-1.8c0.6-0.1,0.5,0.4,0.6,0.9C29.4,39.3,29.6,40.2,28.8,40.5z M29.1,35.1 c0-0.6,0.1-1.1,0.9-1.1c0.6,0,0.7,0.3,0.6,1.1c-0.1,0.3,0.1,1.1-0.7,1.2C29.2,36.3,29,35.8,29.1,35.1z M30,32.2 c-0.6,0-0.8-0.3-0.6-0.9c0.5-0.4-0.6-1.7,0.9-1.7c0.7,0,0.8,0.5,0.6,1C30.7,31,31.5,32.3,30,32.2z M30.2,27.3c-0.3,0-0.8,0-0.8-0.4 c0-0.4,0.5-0.4,0.8-0.5c0.3-0.1,0.6,0,0.7,0.4C30.9,27.2,30.5,27.3,30.2,27.3z M29.9,24.8c-0.8-0.2-0.7-0.9-0.8-1.5 c-0.1-0.3,0.1-0.6,0.5-0.6c0.9,0.1,0.7,0.8,0.8,1.1C30.5,24.5,30.4,24.9,29.9,24.8z M30.1,41.1c0,0.1-0.1,0.2-0.1,0.2 c-0.1,0-0.1-0.1-0.2-0.1c0-0.1,0.1-0.2,0.1-0.2C30,41,30.1,41.1,30.1,41.1z M30.5,43.2c-0.1,0.2-0.2,0.4-0.4,0.4 c-0.3,0-0.3-0.2-0.3-0.4c0-0.2,0.2-0.4,0.4-0.4C30.5,42.9,30.6,43,30.5,43.2z M32.3,44.5c0,0.6-0.4,0.9-1,1 c-0.1-0.6,0.3-0.8,0.6-1.1c0.1-0.4,0.4-0.7,0.7-0.4C32.8,44.3,32.5,44.4,32.3,44.5z M32.3,40.1c-0.3,0.7-0.6,1.7-1.7,0.7 c-0.2-0.4-0.1-0.8,0.2-1.1c0-0.4,0-0.9,0.6-1c0.4-0.1,0.8,0,1.1,0.3C33,39.4,32.5,39.8,32.3,40.1z M32,36.5 c0.1-0.6-0.3-1.7,0.9-1.7c0.5,0,1.3-0.2,1.4,0.8c-0.4,0.6-0.2,1.6-1.2,1.7C32.6,37.4,31.8,37.2,32,36.5z M33.8,42.3 c-0.1,0.1-0.4-0.2-0.3-0.5c0.4-0.6,0.1-1.5,1-1.8c0.2-0.1,0.4,0.2,0.5,0.6C34.7,41.2,34.5,41.9,33.8,42.3z M34.4,33.2 c-0.7,0.2-1.8,0-1.7-1.4c0.1-2.1,0.3-2.5,2-2.5c0.6-0.1,1.1,0.1,0.9,0.9C35.3,31.3,35.8,32.8,34.4,33.2z M32.9,26.7 c0-1.1,1.2-0.8,1.8-1c0.6-0.2,0.7,0.3,0.7,0.8c0.1,1.2-0.8,0.6-1.2,0.8C33.8,27,32.9,27.5,32.9,26.7z M35.5,37.7 c0.3-0.6,0-1.7,1.1-1.7c0.3,0,0.9,0.1,0.7,0.7c-0.2,0.7-0.5,1.5-1.3,1.8C35.6,38.3,35.3,38.1,35.5,37.7z M39.5,30.3 c-0.1,1.3-0.6,2.5-1.2,3.7c-0.3,0.6-0.7,0.3-1.1,0.2c-0.5-0.1-0.6-0.4-0.5-0.9c0.2-1.1,0.5-2.2,0.7-3.3c0.1-1,0.9-0.7,1.5-0.7 C39.6,29.3,39.5,29.9,39.5,30.3z M38.4,27.2c-0.5-0.1-1.1,0.1-1.1-0.8c0.1-0.9,0.3-1.7,1.3-1.7c1,0.1,0.7,1.1,0.8,1.6 C39.7,27.3,38.8,27.1,38.4,27.2z M37.6,23.2c-0.8,0.1-0.9-0.4-0.9-1.1c-0.1-0.9,0.5-1,1.3-1.1c0.7,0,0.7,0.7,0.8,1.2 C38.8,23,38.2,23.2,37.6,23.2z M38.1,42.5c-0.3,0.8-1.1,1.3-1.9,1.6c-0.4,0-0.6-0.3-0.6-0.7c0-0.5,1.2-2,1.6-1.8 C37.6,41.7,38.2,42.1,38.1,42.5z M39.5,40.7c-0.8-0.1-1.2-0.6-1.5-1.3c-0.2-0.4,0.9-2.2,1.3-2.3c0.6-0.1,1.8,0.9,1.8,1.5 C41.1,39.3,40.1,40.8,39.5,40.7z M42.7,35.5c-0.2,0.5-0.4,1.1-1.1,0.7c-0.6-0.4-2-0.2-1.7-1.5c0.4-1.6,1-3.1,1.3-4.7 c0.2-1,1.1-0.6,1.7-0.7c0.9,0,0.5,0.7,0.7,1.1C43.4,32.1,43.4,33.9,42.7,35.5z M43.6,25.1c0.3,1.4,0,1.8-1.2,1.8 c-1.8,0-1.2-1.3-1.3-2.2c-0.2-1.4,1.2-1.4,1.8-1.3C44.1,23.5,43.4,24.7,43.6,25.1z M42.7,20.9c-0.3,0.8-1.1,1.1-1.8,1.2 c-0.9,0.1-1-0.9-1-1.4c0-0.9,1-1,1.7-1.1C42.5,19.5,42.4,20.4,42.7,20.9z M39.2,14.1c0.1,0,0.1,0.1,0.1,0.2c-0.1,0-0.1,0.1-0.2,0.1 c0-0.1-0.1-0.1-0.1-0.2C39.1,14.1,39.1,14.1,39.2,14.1z M39.8,16.5c0.7-0.1,0.7,0.6,0.9,1.1c-0.2,0.6-0.6,1-1.2,0.9 c-0.7,0-0.8-0.8-0.9-1.3C38.6,16.7,39.3,16.6,39.8,16.5z M37.7,14.1c0.5,0,0.7,0.2,0.8,0.6c0.1,0.4-0.4,0.6-0.7,0.6 c-0.6,0.1-0.7-0.4-0.8-0.8C36.9,14,37.4,14.2,37.7,14.1z M36.5,17.8c0.7,0.1,0.7,0.9,1,1.3c-0.1,0.7-0.6,0.5-0.9,0.5 c-0.8,0-0.9-0.8-1-1.3C35.4,17.8,36.1,17.7,36.5,17.8z M36,12.4c0,0.2-0.1,0.3-0.3,0.3c-0.6-0.1-0.7-0.6-0.9-1.1 C35.5,11.7,35.8,12,36,12.4z M34.8,14.9c0.6,0,0.6,0.6,0.9,0.9c-0.1,0.4-0.3,0.5-0.6,0.5c-0.6,0-0.6-0.5-0.8-0.9 C34.2,15.1,34.5,15,34.8,14.9z M35.1,23c0,1.4-1.2,1.2-1.9,1.3c-1.1,0.2-1-0.8-1-1.4c0-1.1,1-0.9,2-1C34.7,21.7,35.1,22.2,35.1,23z M33,12.4c0.2,0.1,0.3,0.1,0.3,0.1c-0.1,0.4-0.2,0.5-0.3,0.4c-0.1-0.1-0.2-0.2-0.3-0.4C32.7,12.4,32.8,12.3,33,12.4z M34.2,19.8 c-0.1,0.8-1.1,0.6-1.4,0.7c-1.2,0.2-1.5-0.5-1.5-1.2c0-1,0.8-0.7,1.4-0.8C33.7,18.4,34.2,19.1,34.2,19.8z M32.6,16.6 c0,0.7-0.7,0.6-1.1,0.7c-0.7,0.1-0.8-0.2-0.9-0.8c-0.1-0.8,0.4-0.7,0.9-0.8C32.1,15.6,32.6,15.9,32.6,16.6z M31.5,14.1 c-0.7-0.1-1.4,0.4-1.7-0.4c-0.1-0.2-0.1-0.5,0.2-0.6C30.8,12.9,31,13.4,31.5,14.1z M29.7,12c0.1,0,0.1,0.1,0.2,0.1 c-0.1,0.1-0.1,0.2-0.2,0.2c-0.1,0-0.1-0.1-0.2-0.2C29.6,12.1,29.7,12,29.7,12z M29.5,18c0.1,0,0.1,0.1,0.2,0.1 c-0.1,0.1-0.1,0.1-0.2,0.2c-0.1-0.1-0.1-0.1-0.1-0.2C29.3,18.1,29.4,18,29.5,18z M29.2,19.2c0.6,0.1,0.3,0.7,0.4,1 c-0.1,0.3,0.1,0.9-0.4,0.8c-0.7-0.1-0.5-0.8-0.6-1.3C28.4,19.4,28.9,19.2,29.2,19.2z M28.9,17c0.1,0.2,0.1,0.4-0.2,0.5 c-0.5,0-0.4-0.5-0.5-0.7c-0.1-0.2,0-0.3,0.2-0.3C28.8,16.4,28.8,16.8,28.9,17z M28.1,13.9c0.1,0.1,0.1,0.2,0.2,0.3 c-0.1,0.1-0.2,0.2-0.3,0.2c-0.1-0.1-0.2-0.2-0.2-0.3C27.9,14.1,28,14,28.1,13.9z M28.2,42.2c0,0.4-0.1,0.8-0.4,1.2 c-0.1,0.2-0.2,0.4-0.4,0.7c-0.2-0.4-0.1-0.7,0.1-0.9c0-0.4-0.2-0.8,0.3-1C27.9,42.1,28.2,42.2,28.2,42.2z M27.4,31.8 c-0.8,0.1-1.7,0-2.4-0.3c-0.5-0.2-0.5-0.9-0.3-1.3c0.5-0.8,1.4-0.5,2.1-0.5c0.7-0.1,1.2,0.2,1,1.1C27.7,31.1,28,31.7,27.4,31.8z M27.3,21.9c0.1,0,0.2,0.1,0.1,0.2c0,0.1-0.1,0.1-0.2,0.1c0-0.1-0.1-0.1-0.1-0.2C27.2,22,27.3,21.9,27.3,21.9z M27.5,24.2 c-0.1,1.1-1,0.8-1.6,0.8c-0.7,0.1-1.6,0.1-1.5-1c0.1-1.2,1.1-0.6,1.6-0.8C26.8,23.2,27.6,23,27.5,24.2z M25.7,14.5 c0,0.2-0.1,0.3-0.4,0.3c-0.3,0-0.5-0.1-0.6-0.4c-0.1-0.2,0.2-0.4,0.4-0.4C25.4,14.1,25.7,14.1,25.7,14.5z M24.9,10.7 c0.4,0.6,0.7,1,0.3,1.5c-0.1,0.1-0.3,0.1-0.5-0.1C24.3,11.6,25,11.3,24.9,10.7z M25.5,16.4c0.8-0.1,0.8,0.6,0.8,0.9 c0.1,0.7-0.6,0.3-0.9,0.5c-0.5,0-0.8-0.1-0.8-0.6C24.6,16.5,25,16.5,25.5,16.4z M25.8,19.5c0.9-0.2,1.2,0.3,1.2,1.1 c0.2,1.4-1,0.8-1.6,1c-0.8,0.2-1-0.3-1-1C24.2,19.3,25.1,19.7,25.8,19.5z M27.2,26.7c0.3,0,0.5,0.1,0.6,0.4c0,0.5-0.4,0.3-0.5,0.3 c-0.9,0-1.8,0.2-2.9-0.3C25.4,26.6,26.3,26.6,27.2,26.7z M7,33.1c-1-0.2-0.9-1.2-1-2c0.1-0.4-0.2-1.2,0.7-1c1.3,0.2,1,1.5,1.4,2.2 C8.3,32.8,7.4,33.2,7,33.1z M10.6,43.2c-0.4,0.3-0.7-0.2-0.9-0.5c-0.4-0.8-0.9-1.5-1.2-2.3c-0.2-0.6-0.1-1,0.5-1.2 c0.6-0.2,1-0.2,1.3,0.4c0.4,0.9,0.8,1.7,1.1,2.6C11.4,42.8,10.9,43,10.6,43.2z M11,34.3c0.5,0.5,0.1,1.1,0.4,1.7 c-0.3-0.1-0.4-0.1-0.4-0.1c-0.3-0.5-0.4-1-0.4-1.6C10.7,34.3,11,34.2,11,34.3z M11.2,32.6c0.1,0,0.2,0.1,0.3,0.2 c-0.1,0.1-0.2,0.2-0.3,0.2c-0.1-0.1-0.3-0.1-0.3-0.2C10.8,32.6,11,32.6,11.2,32.6z M10.3,32.4c-1-0.2-0.5-1.2-0.8-1.8 C9.3,30.2,9.7,30,10,30.1c0.8,0.3,0.6,1,0.7,1.5C10.9,32.1,10.7,32.5,10.3,32.4z M11.8,44.7c0.3-0.7,0.7-0.6,1.1-0.1 c0.3,0.2,0.4,0.4,0.4,0.8C12.7,45.5,12.2,45.2,11.8,44.7z M12.6,31.2c0-0.6-0.1-1.1,0.7-1.1c0.9,0,0.7,0.8,0.8,1.2 c0.2,0.6-0.3,0.8-0.7,0.8C12.5,32.1,12.6,31.5,12.6,31.2z M13.2,41.3c-0.4,0.4-0.3-0.1-0.4-0.3c0-0.1,0-0.2,0.1-0.3 C13.2,40.8,13.3,41.2,13.2,41.3z M12.8,27.3c-0.4,0-0.7-0.1-0.7-0.5c0-0.5,0.5-0.4,0.8-0.4c0.3,0,0.8-0.1,0.7,0.5 C13.6,27.3,13.2,27.3,12.8,27.3z M12.1,38.3c0.2,0,0.2,0.2,0.2,0.4c0,0.1,0.1,0.4-0.2,0.3c-0.1,0-0.2-0.2-0.3-0.4 C11.8,38.5,11.9,38.4,12.1,38.3z M13.8,36c-0.7-0.1-0.6-0.8-0.7-1.3c-0.1-0.5,0.1-0.9,0.6-0.9c0.7,0,0.6,0.7,0.7,1.2 C14.4,35.4,14.5,36.1,13.8,36z M14.7,40.6c-0.4-0.8-0.6-1.6-0.6-2.5c0-0.3,0.2-0.3,0.4-0.4c0.3,0,0.5,0.1,0.6,0.4 c0.2,0.7,0.4,1.3,0.6,2c0.1,0.2,0.2,0.5-0.2,0.7C15.3,40.9,14.9,40.9,14.7,40.6z M14.6,22.2c0.1,0,0.2,0.1,0.4,0.1 c-0.2,0.1-0.2,0.2-0.3,0.2c-0.1,0-0.2,0-0.2-0.1C14.4,22.3,14.5,22.2,14.6,22.2z M17.3,35.6c-0.8,0-1-0.5-1.1-1.1 c0-0.6,0.3-0.9,0.9-1c0.8-0.1,1,0.4,0.9,1C18.1,35,18.2,35.5,17.3,35.6z M16.8,31.7c-0.8,0-1-0.5-1.1-1.2c0-0.7,0.4-0.7,0.9-0.8 c0.7-0.1,1.1,0.2,0.9,0.9C17.6,31.3,17.6,31.8,16.8,31.7z M18,24.1c-0.1,0.5-0.2,1-1.1,0.9C16.6,25,16,25.2,16,24.3 c0-0.9,0.7-0.8,1.2-0.8C17.6,23.5,18.1,23.5,18,24.1z M16.2,26.7c0.3-0.2,0.5-0.6,0.8,0c0.3,0.1,0.5,0.2,0.5,0.5 c0,0.3-0.3,0.3-0.5,0.3c-0.3,0-0.5,0-0.8,0c-0.2,0-0.6,0-0.6-0.3C15.5,26.8,15.9,26.8,16.2,26.7z M16.9,44.4 c-0.8-0.2-1-0.9-1.2-1.5c-0.1-0.4,0.2-0.5,0.6-0.5c0.8,0.2,0.7,1.1,0.9,1.7C17.3,44.3,17.1,44.5,16.9,44.4z M18.1,40.2 c-1-0.3-0.8-1.3-1-2c-0.2-0.6,0.1-0.9,0.8-0.8c1.4,0.2,0.3,1.5,1,1.9C18.9,40,18.5,40.4,18.1,40.2z M19.2,44 c-0.7-0.3-0.6-1.1-0.8-1.7c-0.1-0.3,0.1-0.5,0.3-0.4c0.8,0.2,0.5,1.1,0.9,1.4C19.6,43.8,19.5,44.1,19.2,44z M19.4,30.6 c0-1.1,0.7-0.7,1.3-0.8c0.4,0.1,1.2-0.3,1.1,0.7c-0.1,0.8-0.5,1.2-1.4,1.2C19.5,31.6,19.4,31.2,19.4,30.6z M19.5,26.9 c0.7-0.5,1.3,0,1.9,0.2c-0.6,0.7-1.3,0.4-1.9,0.3C19.3,27.3,19.4,27,19.5,26.9z M19.7,34c-0.1-0.7,0.6-0.7,0.9-0.7 c0.7-0.1,1,0.4,0.8,1.1c0.1,0.6-0.1,0.9-0.8,1C19.7,35.4,19.8,34.6,19.7,34z M20.2,38c-0.1-0.5,0-1,0.7-0.9 c1.5,0.1,0.3,1.4,0.8,1.8c0.1,0.6-0.1,1-0.7,0.9C20,39.6,20.3,38.7,20.2,38z M21.7,43.8c-0.6-0.8-0.9-1.3-0.6-2 c0-0.1,0.4-0.2,0.4-0.1C22,42.2,21.7,42.9,21.7,43.8z M21.9,24.3c0,0.6-0.2,0.9-0.8,0.8c-0.6-0.1-1.3,0.1-1.4-0.8 c-0.1-0.8,0.6-0.8,1.5-0.8C21.4,23.5,21.9,23.4,21.9,24.3z M21.1,17.5c0.1-0.4,0-0.8,0.6-0.8c0.6-0.1,0.5,0.3,0.5,0.7 c0,0.4-0.1,0.7-0.6,0.6C21.4,18,20.9,18.1,21.1,17.5z M20.2,21.3c0.2-0.7,0.1-1.7,1.3-1.7c0.9,0,0.7,0.6,0.8,1.2 c0.1,0.7-0.2,1.2-1.1,1.1C20.7,21.9,20,22,20.2,21.3z M19.8,13.8c0.2,0.5,0.1,1-0.3,1.3c-0.1,0.1-0.3-0.1-0.4-0.2 C19.1,14.2,19.2,13.9,19.8,13.8z M19,11.7c0,0.1,0.1,0.1,0.1,0.2c0,0.1-0.1,0.1-0.2,0.1c0-0.1-0.1-0.1-0.1-0.2 C18.9,11.8,19,11.8,19,11.7z M18.1,17.7c0-0.1,0-0.2,0-0.3c0.1-0.4,0.2-0.7,0.7-0.8c0.3,0,0.3,0.1,0.4,0.4c0.1,0.6-0.4,0.6-0.8,0.7 c0,0.2,0.2,0.5-0.2,0.5C17.9,18.2,18,17.9,18.1,17.7z M18.6,20.6c-0.1,0.6,0,1.5-1.1,1.4c-0.4,0-0.9-0.1-0.7-0.6 c0.2-0.7,0.1-1.6,1.2-1.7C18.7,19.6,18.6,20,18.6,20.6z M16.8,17.9c0-0.1,0.1-0.1,0.1-0.2c0.1,0,0.2,0.1,0.2,0.1 c0,0.1-0.1,0.1-0.1,0.2C16.9,18,16.8,18,16.8,17.9z M16.8,12.8c0.4,0,0.8,0.2,0.7,0.6c-0.1,0.5-0.1,1.2-0.9,1.2 c-0.4,0-1-0.1-0.9-0.4C15.7,13.5,16.2,13.1,16.8,12.8z M14.9,16c0.5,0.1,1.3-0.1,1.3,0.7c0,0.5-0.2,1.3-1.1,1.1 c-0.5-0.1-1.1,0-1.2-0.7C13.9,16.5,14.2,15.8,14.9,16z M12.8,20.7c0.1-1,0.5-1.5,1.6-1.4c0.4,0.1,0.9,0,0.8,0.8 c-0.3,0.4-0.1,1.5-1.1,1.4C13.6,21.4,12.7,21.9,12.8,20.7z M13.1,23.2c0.5,0.1,1.1-0.2,1.1,1.1c0,0.1-0.1,0.4-0.6,0.3 c-0.5-0.1-1.2,0-1.2-0.8C12.3,23.2,12.6,23.2,13.1,23.2z M11.1,16.4c0.2-0.6,0.3-1.4,1.1-1.4c0.5,0,0.3,0.5,0.4,0.8 c-0.2,0.4-0.1,1.2-0.9,1.2C11.3,16.9,11,16.7,11.1,16.4z M9.5,20.1c0.2-0.6-0.1-1.6,1-1.6c0.5,0,0.9,0.2,0.7,1.3 c-0.1,0.2,0.1,1.1-0.9,1.1C9.7,20.9,9.3,20.6,9.5,20.1z M9.5,22.6c0.4,0.1,1,0,0.9,0.7c0,0.4-0.1,0.8-0.6,0.7c-0.5-0.1-1-0.2-1-0.8 C8.9,22.8,9,22.5,9.5,22.6z M9.4,25.6c0.5,0.1,0.9,0.3,0.8,0.9c0,0.7-0.5,0.6-0.9,0.6c-0.5,0.1-0.7-0.2-0.7-0.8 C8.7,25.9,8.9,25.6,9.4,25.6z M9.4,36.7c0.2,0.8-0.7,0.9-1.1,0.9c-1-0.2-0.9-1.2-1.1-2c-0.2-0.7,0.4-0.8,1.2-0.8 C9.3,34.9,9.2,36,9.4,36.7z M6.6,19.1c0.2-0.6,0.1-1.5,1-1.6c0.4,0,0.6,0.4,0.5,1c-0.4,0.4,0.2,1.5-0.9,1.6 C6.4,20.2,6.5,19.5,6.6,19.1z M6.1,21.1c0.1,0,0.2,0.1,0.2,0.1c0,0.1-0.1,0.1-0.1,0.2c-0.1,0-0.2-0.1-0.2-0.1 C6,21.3,6.1,21.2,6.1,21.1z M6.5,22c0.3,0.1,0.8,0.1,0.8,0.7c0,0.4-0.1,0.9-0.7,0.8c-0.4,0-0.8-0.2-0.8-0.6C5.7,22.5,5.9,22,6.5,22 z M5.5,26.4c0.2-0.4-0.4-1.2,0.7-1.1c0.5,0.1,1.1,0.2,0.8,0.8c-0.2,0.5,0.2,1.4-0.9,1.3C5.3,27.4,5.4,26.9,5.5,26.4z M5.1,35.7 c0.3,0.1,0.4,0.3,0.5,0.5c0.1,0.3,0.2,0.7,0.3,1c0.1,0.5,0.8,1.3-0.2,1.5c-0.8,0.1-1.1-1-1.5-1.6c-0.4-0.6-0.1-1,0.5-1.2 C4.8,35.8,5,35.8,5.1,35.7z M3.2,24.9c0.7,0,0.4,0.9,0.5,1.4c0,0.1,0,0.2,0,0.3c-0.1,0.4,0.2,1-0.5,1c-0.5,0-0.3-0.6-0.3-1 c0-0.1,0-0.3,0-0.5C3,25.8,2.6,24.9,3.2,24.9z M2.9,32.1c0.2-0.7-0.3-1.8,0.6-1.9c1-0.1,0.8,1.1,1,1.7c0.2,0.4,0.2,0.9,0.2,1.4 c0,0.7-0.5,0.7-1,0.9c-0.6,0.2-0.6-0.4-0.7-0.7C2.9,33.1,2.9,32.6,2.9,32.1z"/><path d="M5.2,42.9L5.2,42.9L5.2,42.9L5.2,42.9C5.2,42.9,5.2,42.9,5.2,42.9c0.5,0.6,1.1,1.1,1.8,1.3 C6.4,43.8,5.8,43.3,5.2,42.9C5.2,42.9,5.2,42.9,5.2,42.9z"/><path d="M5.2 42.9L5.2 42.9 5.2 42.9z"/><path d="M5.2,42.9C5.2,42.9,5.2,42.9,5.2,42.9c0.6,0.4,1.2,0.9,1.8,1.3C6.6,43.5,6,43.1,5.2,42.9z"/><path d="M5.2,42.9c-0.5-0.5-1.1-1-1.6-1.6C3.9,42.1,4.5,42.6,5.2,42.9C5.2,42.9,5.2,42.9,5.2,42.9L5.2,42.9z"/><path d="M5.2,42.9C5.2,42.9,5.2,42.9,5.2,42.9c-0.3-0.7-0.9-1.1-1.6-1.6C4.1,41.9,4.7,42.4,5.2,42.9z"/><path d="M5.2 42.9L5.2 42.9 5.2 42.9z"/><path d="M5.2 42.9L5.2 42.9 5.2 42.9 5.2 42.9z"/><path d="M5.2 42.9L5.2 42.9 5.2 42.9z"/><path d="M5.2 42.9L5.2 42.9 5.2 42.9 5.2 42.9z"/></g></svg>