<svg id="Слой_1" xmlns="http://www.w3.org/2000/svg" viewBox="0 0 43 2.8"><g fill="#FFF"><path d="M43,0.8c0-0.6-0.9-0.8-1.3-0.7c-0.2,0-0.4,0.1-0.6,0.1c-0.4,0.5-1,0.6-2.4,0.6c-3,0-6,0-9-0.1h0 c-2.3-0.2-4.6,0.1-6.9,0c-3-0.2-6,0.1-9.1,0.1c-3.3,0-6.6,0.1-9.9,0.1c-0.1,0-0.1,0-0.2,0c-0.1,0-0.3,0.1-0.4,0 C2.8,0.7,2.4,0.6,1.9,0.6c0.3,0.7,0.7,0.8,1.9,0.9c0.2,0,0.4,0,0.7,0c0.3,0,0.6,0,0.6,0.4c0,0.3-0.3,0.3-0.5,0.3 c-1.2,0.3-2.4,0-3.6-0.3C0.6,1.7,0.4,1.4,0.4,1C0.1,1.3-0.1,1.6,0,1.9c0.3,0.7,1,0.9,2.6,0.9c0.3,0,0.5,0,0.8,0 c3.8-0.5,7.6-0.2,11.3-0.4c4.1-0.2,8.2,0,12.3,0c0,0,0-0.1,0-0.1c4.5,0,9,0,13.4,0C42.1,2.2,42.7,1.9,43,0.8C43,0.8,43,0.8,43,0.8z"/><path d="M4.4,1.5c-0.2,0-0.4,0-0.7,0C2.6,1.4,2.2,1.3,1.9,0.6c-0.4,0-0.8,0-1.1,0.2C0.7,0.9,0.5,0.9,0.4,1 c0,0.3,0.2,0.7,0.5,0.8c1.1,0.3,2.3,0.6,3.6,0.3C4.7,2.1,5,2.1,5,1.8C5,1.5,4.7,1.5,4.4,1.5z"/><path d="M40.7,0.2c-0.3,0.3-0.8,0.4-1.4,0.4c-2.8,0-5.6,0-8.3,0c-0.4,0-0.9-0.1-1.3,0.1c3,0,6,0.1,9,0.1 c1.3,0,2-0.1,2.4-0.6C40.9,0.2,40.8,0.2,40.7,0.2z"/><path d="M40.2,0.3c-0.3,0.1-0.7,0.2-1.2,0.2c-2.4,0-4.9,0-7.3,0c-0.7,0-1.5-0.1-2.2,0.2h0c0.4-0.2,0.9-0.1,1.3-0.1 c2.8,0,5.6,0,8.3,0c0.6,0,1.1-0.1,1.4-0.4C40.5,0.3,40.4,0.3,40.2,0.3z"/></g></svg>