<svg id="Слой_1" xmlns="http://www.w3.org/2000/svg" viewBox="0 0 60.3 56.3"><g fill="#FFF"><path d="M48,55.7c0.2-0.1,0.4-0.1,0.5-0.1C48.4,55.6,48.2,55.6,48,55.7z"/><path d="M45.4 1.3L45.4 1.3 45.4 1.3z"/><path d="M58.8,39.5c0,0.1,0,0.2,0,0.3l0,0c0.4,1.5,0.4,3,0,4.4c0,0.1,0,0.2,0,0.3c0.1,0.1,0.1,0.2,0.1,0.3 c0.3,0.8,0.1,1.6,0.1,2.3c0,0.3,0,0.5,0,0.8l0,0l0,0c0,1,0.2,2-0.2,2.9c-0.1,0.2-0.2,0.3-0.3,0.5c0.1,0.3,0.2,0.7,0.3,1v0 c0.3,0.8,0.6,1.7-0.3,2.4c-0.1,0.1-0.2,0.2-0.3,0.3l0,0c-0.4,0.3-0.9,0.2-1.3,0.2c-0.1,0-0.2,0-0.3,0l0,0c-0.8,0.4-1.7,0.2-2.6,0.2 c-0.3-0.1-0.5-0.2-0.8,0l0,0l0,0c-1.7,0.5-3.5,0.1-5.2,0.3c-0.7,0-1.4,0-2.1,0c0,0,0,0,0,0l0,0c-2,0-4,0-6,0c-0.1,0-0.2,0-0.3,0 l0,0C39.2,56,38.7,56,38.3,56c-4.3,0-8.6,0-12.9,0c-0.5,0-1,0-1.4-0.2c-0.3,0-0.5,0-0.8,0c0,0,0,0,0,0s0,0,0,0 c-0.8,0-1.6,0.2-2.4-0.2c-0.5,0-1,0.3-1.6,0l0,0c-2.2,0.5-4.4,0.1-6.6,0.2c-0.8,0-1.6,0.2-2.3-0.2c-0.1,0-0.2,0-0.3,0l0,0 c-1.3,0.4-2.6,0.4-3.9,0c-0.2,0-0.4,0-0.5,0l0,0l0,0c-0.6,0-1.3,0.1-1.8-0.3c-0.1,0-0.2,0-0.3,0l0,0v0c-0.1,0-0.2,0-0.3,0l0,0l0,0 c-0.7,0-1.5,0.5-2.1-0.3l0,0c-0.3-0.7,0-1.4,0-2.1c0-0.2,0-0.3,0-0.5l0,0c-0.3-0.6-0.2-1.2-0.3-1.8c0-3,0-5.9,0-8.9l0,0l0,0 c0.1-1.1-0.2-2.3,0.3-3.4c0-0.3,0-0.5,0-0.8l0,0c-0.3-0.4-0.3-0.9,0-1.3c0-1,0-2.1,0-3.1l0,0c-0.3-0.5-0.3-1.1,0-1.6v0v0 c0-0.8,0-1.6,0-2.3c0,0,0-0.1-0.1-0.1c-0.3-0.5-0.2-1.1-0.2-1.7c0-1,0-1.9,0-2.9c0,0,0.1-0.1,0.1-0.1c0,0-0.1,0.1-0.1,0.1 c0-0.4,0-0.8,0.2-1.1c0-0.1,0.1-0.1,0.1-0.2c0-0.7,0-1.4,0-2.1c0,0,0,0,0,0c-0.4-0.8-0.2-1.7-0.3-2.6c0-0.5,0-1,0-1.6l0,0 c-0.4-0.9-0.2-1.9-0.3-2.9c0-0.2,0-0.4,0-0.5l0,0l0,0c0-0.6,0-1.2,0-1.8C0.4,8.7,0.4,8.7,3.3,8.8c2.7,0.1,5.4,0,8-0.8 c0.9-0.3,1.2-0.8,1.1-1.7c-0.2-1.2,0-2.4,0-3.6C12.4,1.6,13,1,14,0.8c2.4-0.5,4.8-0.4,7.1,0.1C22,1,22.4,1.5,22.4,2.3 c0,1.2,0,2.4,0,3.5c0,1.1,0.6,1.7,1.7,1.7c3.6,0,7.2,0.1,10.9-0.1c0.6,0,1.3,0.1,2,0.1c1.6,0,2.2-0.6,2.3-2.2 c0-0.9-0.4-1.7-0.1-2.6c0.1-0.4,0.4-0.7,0.6-1c0.3-0.2,0.7-0.3,1-0.4C42.2,1,43.8,1,45.4,1.3l0,0c0.1,0,0.3,0,0.4,0 c2.4,0,3.4,1.2,3,3.5c-0.1,0.8,0,1.5,0.2,2.3l0,0c0.1,0,0.2,0,0.3,0c-0.1-0.9-0.1-1.7-0.1-2.6c0-2.2-0.1-3.4-3.4-3.7 C44,0.5,42.2,0.8,40.3,1c-1.2,0.1-2.2,1.3-1.9,2.5c0.2,0.8,0.1,1.6,0.2,2.5c0.1,0.8-0.3,1.1-1.1,1.1c-0.9,0-1.8,0-2.7,0 c-3.7,0-7.3,0-11,0c-0.5,0-1-0.1-0.9-0.8c0.1-1.4-0.4-2.8-0.1-4.3c0.2-0.8-0.3-1.3-1-1.4c-2.9-0.7-5.8-0.8-8.6,0 c-0.6,0.2-0.9,0.5-1,1.1c-0.3,1.6-0.3,3.2-0.1,4.8c0.1,0.5,0.1,1-0.5,1C9.8,7.7,8.2,8.4,6.3,8.4C4.4,8.4,2.4,8,0.5,8.6 C0.1,8.8,0,8.9,0,9.4c0.2,3.5,0.4,7.1,0.6,10.6c0.2,2.5-0.4,5-0.2,7.6c0.4,4.3,0.3,8.5,0.1,12.8c-0.3,4.8,0,9.6,0.1,14.3 c0,0.7,0.4,1.2,1.2,1.2c1.5,0,3.1-0.1,4.6,0c6.1,0.2,12.3,0,18.4,0.2c5.8,0.2,11.7,0,17.5-0.1c5.2-0.1,10.3,0,15.5-0.6 c1.1-0.1,1.4-0.6,1.4-1.6c0-4.5,0-9,0-13.4c0-0.4,0.1-0.9-0.2-1.3C59,39.3,58.9,39.4,58.8,39.5L58.8,39.5z"/><path d="M58.8,6.9c-0.8-0.1-1.5-0.2-2.3-0.2c-2.4,0.1-4.8,0.2-7.2,0.3c-0.1,0.1-0.1,0.1-0.2,0.1 c0.7,0.6,1.6,0.4,2.5,0.3c2-0.2,4-0.4,6.1-0.2c1.8,0.2,2.1,0.5,1.9,2.4c0,0.3,0,0.7,0,1c0.5,1.2,0.2,2.5,0.2,3.7 c-0.1,3-0.4,6-0.4,9c0,3.1-0.5,6.2-0.5,9.3c0,2.2,0,4.3,0,6.5c0.1,0,0.2-0.1,0.3-0.1c0.1-0.4,0.2-0.8,0.2-1.2c0-3.5,0.3-7,0.5-10.5 c0.2-4.9,0.5-9.8,0.5-14.7c0-1.3-0.3-2.6,0.1-4C60.5,7.9,59.8,7.1,58.8,6.9z"/><path d="M49.2,7.2c0.1,0,0.1-0.1,0.2-0.1c-0.1,0-0.2,0-0.3,0C49.1,7.1,49.1,7.1,49.2,7.2z"/><path d="M58.8,39.5c0.1-0.1,0.2-0.2,0.3-0.3c-0.1,0-0.2,0-0.3,0.1C58.8,39.3,58.8,39.4,58.8,39.5z"/><path d="M2.3,53c0-0.1-0.1-0.1-0.1-0.2l0,0C2.3,52.9,2.3,53,2.3,53z"/><path d="M2.5,54.2L2.5,54.2L2.5,54.2c0-0.1-0.1-0.1-0.1-0.1c-0.2-0.4-0.2-0.8-0.2-1.2c-0.7-1.6-0.1-3.3-0.3-5 c0-0.4,0-0.9,0-1.3v0c0-1.2-0.2-2.5,0.3-3.7c0-1,0-2.1,0-3.1l0,0l0,0c0-0.8,0-1.6,0-2.4c0-0.1,0-0.2,0-0.3l0,0l0,0 c0-1.2,0-2.4,0-3.7c0-0.1,0-0.2,0-0.3l0,0l0,0c0-1.4,0-2.8,0-4.2c0.1-0.3,0.1-0.5,0-0.8v0l0,0c0-3.3,0-6.6,0-9.9 c0-0.2,0.1-0.3,0.1-0.5c0-0.1,0.1-0.2,0.1-0.3c0.2-2.1,0.4-4.2,0.5-6.2C3.1,10.4,3.6,10,4.4,10c2-0.1,3.9-0.3,5.9-0.3 c1.7,0,2,0.5,2,2.1c0,1.6,0.4,2.1,2,2c2-0.1,3.9,0,5.9,0c1.5,0,2.5-0.9,2.6-2.3c0-1.5,0.7-1.8,2-1.9c2.5,0,4.9-0.2,7.4-0.2l0,0 C32.4,9,32.9,9,33.4,9.1c0.2,0,0.3,0,0.5,0c0.4-0.2,0.9-0.6,1.3,0c0.1,0,0.2,0,0.3,0l0,0c0.4-0.4,0.8-0.4,1.3-0.3 c0.3,0,0.5,0,0.8,0c0.1,0.1,0.2,0.1,0.4,0.1c-0.1,0-0.2-0.1-0.4-0.1c0.4-0.1,0.7,0,1,0.3c0.1,0.2,0.2,0.3,0.3,0.5l0,0v0 c0.6,0.5,0.2,1,0,1.6c-0.1,0.5-0.2,0.9-0.2,1.4c-0.2,1.2,0.3,1.8,1.5,1.8l0,0l0,0c1.7,0,3.5,0,5.2,0c0.9,0,1.7-0.2,2.4-0.8 c0.1-0.3,0.2-0.5,0.3-0.8c0-0.2,0-0.3,0-0.5v0l0,0c-0.3-0.1-0.5-0.2-0.8-0.3v0v0c-0.6,1.5-1.5,2-3,1.7c-0.4-0.1-0.8-0.1-1.2-0.1 c-2.1,0-2.6-0.3-2.9-2.4c-0.1-0.7-0.2-1.4-0.3-2c0-1,0-2.1,0-3.1c0-1.2-0.5-2.5,1-3.1c0.2-0.3,0.4-0.5,0.8-0.3 c0.7-0.3,1.4-0.5,2.1-0.8c-0.1-0.1-0.2-0.1-0.2-0.2c-1.2,0.1-2.3,0.3-3.5,0.9c-0.6,0.4-0.8,0.9-0.6,1.6c0.1,0.5,0,1,0,1.5 c0,1.9-0.6,2.5-2.4,2.5c-4.1,0-8.3,0.1-12.4,0.1c-2.4,0-2.9-0.6-3-2.9c0-0.2,0-0.4,0-0.7c0-2.9-0.3-3.2-3.2-3.4 c-1.1-0.1-2.3-0.1-3.4,0.1c-1.6,0.3-2,0.8-2.1,2.4c-0.1,1-0.1,2-0.1,2.9c0,1.3-0.4,1.8-1.7,2.1c-2,0.5-4.1,0.9-6.2,0.7 c-0.7,0-1.3,0-2,0.1c-1.6,0.1-1.7,0.4-1.7,2c0.1,0.6,0.1,1.2,0.1,1.8c0,0.2,0,0.4,0,0.7c0,0.9,0,1.9,0.1,2.8c0,0.5,0,1,0.1,1.5 c0,0.9,0,1.8,0,2.7c0,0.7,0,1.3,0,2c-0.1,0.5,0.1,1,0,1.5c-0.2,0.9-0.1,1.8-0.1,2.7c0.1,0.7,0.2,1.3,0.1,2c0,0.7,0,1.4,0,2.2 c0,0.6,0,1.3,0,1.9c0,0.9,0,1.8,0,2.7c0,0.5,0,1.1,0,1.6c0,0.3-0.1,0.6-0.1,0.9c0.1,1.1,0.2,2.3-0.1,3.4c-0.2,2.8-0.2,5.6-0.1,8.4 c0,0.6,0.1,1.3,0.1,1.9c0,0.2,0,0.4,0,0.6c0.3,0.5-0.2,1.2,0.3,1.7c0.3,0.5,0.7,0.4,1.1,0.4C2.8,54.6,2.6,54.4,2.5,54.2L2.5,54.2z M13.6,4.8c0.1-0.6,0.4-0.9,0.6-1.4c1.7-1.3,4.6-1.5,6-0.5c0.7,2.7,0.1,5.4,0.1,8.1c0,0.6-0.4,0.8-0.9,0.9 c-1.6,0.3-3.3,0.3-4.9,0.3c-0.6,0-0.8-0.4-0.8-0.9C13.7,9.2,13.4,7,13.6,4.8z"/><path d="M33.4,9.1c0,0-0.1,0-0.1,0.1C33.3,9.2,33.3,9.2,33.4,9.1z"/><path d="M36.8,8.9C36.7,8.9,36.7,8.9,36.8,8.9C36.7,8.9,36.7,8.9,36.8,8.9z"/><path d="M2,47.9c0.1,0.2,0.1,0.4,0.1,0.6C2.1,48.3,2.1,48.1,2,47.9z"/><path d="M1.1,23.2c0-0.1,0.1-0.1,0.1-0.2C1.1,23.1,1.1,23.1,1.1,23.2z"/><path d="M1.9,54.4c-0.5-0.5,0-1.2-0.3-1.7c0-0.2,0-0.4,0-0.6c0-0.6-0.1-1.3-0.1-1.9c-0.1-2.8-0.1-5.6,0.1-8.4 c0.3-1.1,0.2-2.3,0.1-3.4c0-0.3,0.1-0.6,0.1-0.9c0-0.5,0-1.1,0-1.6c0-0.9,0-1.8,0-2.7c0-0.6,0-1.3,0-1.9c0-0.7,0-1.4,0-2.2 c0.1-0.7-0.1-1.3-0.1-2c0-0.9-0.1-1.8,0.1-2.7c0.1-0.5,0-1,0-1.5c0-0.7,0-1.3,0-2c0-0.9,0-1.8,0-2.7c-0.1-0.5-0.1-1-0.1-1.5 c0-0.9,0-1.9-0.1-2.8c0-0.2,0-0.4,0-0.7c0-0.6,0-1.2-0.1-1.8c-0.1-1.6,0.1-1.8,1.7-2c0.7-0.1,1.3-0.1,2-0.1 c2.1,0.1,4.2-0.3,6.2-0.7C12.6,8.4,13,7.9,13,6.6c0-1,0-2,0.1-2.9c0.1-1.6,0.5-2,2.1-2.4c1.1-0.2,2.3-0.2,3.4-0.1 c2.8,0.2,3.1,0.6,3.2,3.4c0,0.2,0,0.4,0,0.7c0,2.4,0.6,2.9,3,2.9c4.1,0.1,8.3,0,12.4-0.1c1.8,0,2.4-0.7,2.4-2.5c0-0.5,0.1-1,0-1.5 c-0.1-0.7,0.1-1.2,0.6-1.6c1.1-0.5,2.3-0.8,3.5-0.9c-0.8-0.4-1.6,0-2.4,0c-0.5,0-1,0.1-1.5,0.2c0.3-0.1,0.7-0.3,1-0.4 c-0.3,0.1-0.7,0.2-1,0.4c-0.2,0.3-0.5,0.6-0.6,1c-0.3,0.9,0.2,1.7,0.1,2.6C39,7,38.5,7.6,36.9,7.5c-0.7,0-1.3-0.1-2-0.1 c-3.6,0.2-7.2,0.1-10.9,0.1c-1.1,0-1.7-0.6-1.7-1.7c0-1.2,0-2.4,0-3.5c0-0.9-0.4-1.3-1.2-1.4c-2.4-0.4-4.8-0.6-7.1-0.1 C13,1,12.4,1.6,12.4,2.7c0,1.2-0.2,2.4,0,3.6c0.1,0.8-0.2,1.4-1.1,1.7C8.7,8.8,6,8.9,3.3,8.8c-2.9-0.1-2.9-0.2-2.7,2.6 c0.3,0.6,0.3,1.2,0,1.8l0,0c0,0.2,0,0.4,0,0.5c0.5,0.9,0.2,1.9,0.3,2.9l0,0l0,0c0,0.5,0,1,0,1.6c0.4,0.8,0.2,1.7,0.3,2.6 c0,0,0,0,0,0s0,0,0,0c0,0.7,0,1.4,0,2.1c0,0.4,0,0.8-0.2,1.2c0,0,0,0.1-0.1,0.1c0,1,0,1.9,0,2.9c0.4,0.6,0.2,1.2,0.3,1.8 c0,0,0-0.1-0.1-0.1c0,0,0,0.1,0.1,0.1c0,0.8,0,1.6,0,2.3v0c0,0.5,0,1.1,0,1.6l0,0l0,0c0,1,0,2.1,0,3.1c0,0.4,0,0.9,0,1.3l0,0l0,0 c0,0.3,0,0.5,0,0.8c-0.1,1.1,0.2,2.3-0.3,3.4l0,0c0,3,0,5.9,0,8.9c0.5,0.6,0.3,1.2,0.3,1.8l0,0l0,0c0,0.2,0,0.3,0,0.5 c0.4,0.7,0.8,1.4,0,2.1c0.6,0.7,1.4,0.2,2.1,0.3l0,0c-0.1-0.1-0.2-0.3-0.3-0.4C2.6,54.8,2.1,54.9,1.9,54.4z"/><path d="M58,51.3c-0.1,0.8,0.1,1.6-0.2,2.3c-1.1,1.4-2.5,1-4,0.8l0,0c-0.5,0-1,0-1.6,0l-0.1,0l-0.1,0l0,0l0,0 c-0.6,0-1.2,0-1.8,0l0,0c-2.3,0.5-4.5-0.2-6.8,0l0,0l0,0c-1.2-0.1-2.5,0.2-3.7-0.3c-0.1,0-0.2,0-0.3,0l0,0l0,0c-0.6,0-1.2,0-1.8,0 l0,0l0,0c-0.8,0-1.6,0-2.4,0l0,0c-0.9,0.4-1.7,0.4-2.6,0c-0.1,0-0.2,0-0.3,0l0,0l0,0c-1.6,0-3.1,0-4.7,0c-5.7,0-11.3,0-17,0l0,0 c-0.8,0.4-1.6,0.2-2.4,0.3c-0.2,0-0.3,0-0.5,0l0,0c-1,0.4-1.9,0.4-2.9,0l0,0c-0.2,0-0.3,0-0.5,0c-0.2,0.1-0.4,0.3-0.5,0.4 c0.1,0,0.2,0,0.2,0C4.6,55,5.1,55,5.7,55.1c0.2,0,0.4,0,0.6,0c1.3,0,2.5-0.2,3.8-0.1c0.1,0,0.3,0,0.4,0c0.3,0,0.6-0.1,0.9,0 c2.5,0.6,5,0.2,7.5,0c0.7,0,1.3,0,2,0c0.8,0.1,1.6,0.1,2.4,0.1c0.3,0.1,0.6,0.1,0.9,0.1c1.9-0.1,3.7,0.5,5.6,0.5 c3.3,0.1,6.5-0.2,9.7-0.6c0.2,0,0.3,0,0.5-0.1c2,0,3.9,0,5.9,0c0.7,0.1,1.4,0.3,2.1,0.1c1.6,0,3.3-0.2,4.9-0.1 c0.4-0.1,0.8-0.1,1.3-0.1c0.8,0,1.5,0.3,2.3,0c0.1,0,0.2,0,0.4-0.1c0.3-0.1,0.7-0.2,0.9-0.4c0.2-0.1,0.3-0.1,0.4-0.3 c0.3-0.5,0.3-1.1,0.2-1.7c-0.2-0.3-0.2-0.7-0.2-1.1c0,0,0,0,0,0C58.1,51.3,58,51.3,58,51.3L58,51.3z"/><path d="M58.1,51.3c0,0.4,0,0.7,0.2,1.1c0.1,0.6,0.2,1.1-0.2,1.7c-0.1,0.1-0.3,0.2-0.4,0.3 c-0.3,0.2-0.6,0.4-0.9,0.4c-0.1,0-0.2,0-0.4,0.1c-0.8,0.3-1.5,0-2.3,0c-0.4,0-0.8,0-1.3,0.1c-1.6,0-3.3,0.1-4.9,0.1 c-0.7,0.2-1.4,0-2.1-0.1c-2,0-3.9,0-5.9,0c-0.2,0-0.3,0-0.5,0.1c-3.2,0.3-6.5,0.7-9.7,0.6c-1.9-0.1-3.7-0.6-5.6-0.5 c-0.3,0-0.6-0.1-0.9-0.1c-0.8-0.1-1.6,0-2.4-0.1c-0.7,0-1.3,0.1-2,0c-2.5,0.2-5,0.6-7.5,0c-0.3-0.1-0.6,0-0.9,0c-0.1,0-0.3,0-0.4,0 c-1.3-0.1-2.5,0.2-3.8,0.1c-0.2,0-0.4,0-0.6,0C5.1,55,4.6,55,4,54.8c-0.1,0-0.2,0-0.2,0c-0.1,0.1-0.2,0.2-0.2,0.4l0,0 c0.1,0,0.2,0,0.3,0c0.6-0.1,1.3-0.1,1.8,0.3l0,0c0.2,0,0.4,0,0.5,0c1.3,0,2.6,0,3.9,0l0,0l0,0c0.1,0,0.2,0,0.3,0c3,0,5.9,0,8.9,0 l0,0l0,0c0.5,0.3,1,0,1.6,0c0.8,0,1.6-0.1,2.4,0.2c0,0,0,0,0,0c0.3,0,0.5,0,0.8,0c5.2,0,10.5,0,15.7,0l0,0l0,0c0.1,0,0.2,0,0.3,0 c2-0.4,4-0.4,6,0c0,0,0,0,0,0c0.7,0,1.4,0,2.1,0c0.2-0.1,0.4-0.1,0.5-0.1c1.6-0.3,3.1,0,4.7-0.1l0,0c0.3-0.2,0.5-0.1,0.8,0 c0.8-0.4,1.7-0.2,2.6-0.2l0,0l0,0c0.1,0,0.2,0,0.3,0c0.4-0.3,0.8-0.4,1.3-0.2l0,0l0,0c0.1-0.1,0.2-0.2,0.3-0.3 c0.4-0.7,0-1.6,0.3-2.4l0,0v0c-0.1-0.3-0.2-0.7-0.3-1C58.4,51.3,58.2,51.3,58.1,51.3C58.1,51.3,58.1,51.3,58.1,51.3z"/><path d="M59,11.7L59,11.7L59,11.7L59,11.7c0,0.4-0.1,0.8,0.1,1.3c0.2,0.6,0.3,1.5-0.4,1.6c-0.6,0.1-0.5-0.8-0.7-1.3 c-0.1,0-0.2,0-0.3,0v0v0c0,2.1,0,4.2,0,6.3l0,0c0.3,0.7,0.3,1.4,0,2.1c0.5,6.3,0.1,12.6,0.3,18.9l0,0c0.3,0.4,0.3,0.9,0,1.3 c-0.2,0.9-0.1,1.8,0.2,2.6c0,0,0,0,0,0c0,0,0,0,0,0c0,0.1,0,0.2,0,0.3v0l0,0c0.1,0,0.1,0.1,0.2,0.1c0-0.1,0-0.2-0.1-0.4 c0-0.1,0-0.3,0-0.4c-0.2-1.4,0.4-2.8,0-4.2c0-0.1,0-0.3,0.1-0.4c-0.3-0.1-0.3-0.4-0.3-0.7c0.1-3.2,0-6.5,0.2-9.7 c0.2-4.1,0.4-8.1,0.5-12.2c0-1.4,0.6-2.8,0.4-4.2c-0.1-0.3-0.1-0.6-0.1-1C59.2,11.7,59.1,11.7,59,11.7L59,11.7z"/><path d="M58.5,39.4c-0.1,0.1-0.1,0.3-0.1,0.4c0.4,1.4-0.2,2.8,0,4.2c0,0.1,0,0.3,0,0.4c0,0.1,0.1,0.2,0.1,0.4 c0.1,0,0.2,0.1,0.3,0.1l0,0v0c0-0.2,0-0.3,0-0.5c0,0.1,0.1,0.2,0.1,0.3c0-0.1,0-0.2-0.1-0.3c0-0.1,0-0.2,0-0.3c0-1.5,0-3,0-4.4l0,0 l0,0c0-0.1,0-0.2,0-0.3v0l0,0C58.6,39.5,58.6,39.5,58.5,39.4z"/><path d="M59.2,11.6c0,0.3,0,0.7,0.1,1c0.2,1.5-0.4,2.8-0.4,4.2c-0.1,4.1-0.2,8.1-0.5,12.2c-0.2,3.2-0.1,6.5-0.2,9.7 c0,0.3,0,0.6,0.3,0.7c0,0,0,0,0,0c0.1-0.1,0.2-0.2,0.2-0.2c0-2.2,0-4.3,0-6.5c0.1-3.1,0.5-6.2,0.5-9.3c0-3,0.3-6,0.4-9 c0-1.2,0.3-2.5-0.2-3.7C59.5,11.1,59.5,11.4,59.2,11.6z"/><path d="M58.5,39.4C58.5,39.4,58.5,39.4,58.5,39.4c0.1,0,0.1,0,0.2,0l0,0c0-0.1,0-0.2,0-0.3 C58.7,39.3,58.6,39.3,58.5,39.4z"/><path d="M48.3,5.9c0-0.3-0.1-0.6-0.1-0.9c0.2-2,0-2.8-1.2-3.1c0,0.1,0,0.2,0,0.4c1.4,1.3,0.7,3,0.7,4.5 c-0.1,1.6-0.2,3.3-0.4,4.9c0,0,0,0,0,0c0.3-0.1,0.5,0,0.7,0.2c0-0.5-0.2-1,0.3-1.4c-0.2-1.1,0.4-1.6,1.4-1.7 c1.3-0.2,2.6-0.1,3.9-0.1l0,0l0,0c1,0.1,2.1-0.2,3.1,0.2c0.3,0.1,0.5,0.2,0.8,0.3c0,0.2,0,0.3,0,0.5c0-0.2,0-0.3,0-0.5 c0.5,0.6,0.1,1.5,0.5,2.1c0.3-0.2,0.7-0.3,0.9-0.6c0.1,0.1,0.2,0.3,0.2,0.4c0,0,0,0,0.1-0.1c0,0,0-0.1,0-0.1c-0.5-3-0.5-3-3.6-2.9 c-1.8,0-3.6,0.2-5.4,0.2c-0.6,0-1.3,0-1.2-0.9c0,0,0,0,0,0C48.2,7.1,48.3,6.5,48.3,5.9z"/><path d="M45.4,1.3C45.4,1.3,45.4,1.3,45.4,1.3c0.3,0.5,1.4-0.1,1.6,0.7c1.2,0.4,1.4,1.1,1.2,3.1 c0,0.3,0.1,0.6,0.1,0.9c0,0.6,0,1.2,0.7,1.3c0,0,0,0,0,0c0,0,0-0.1,0-0.1l0,0l0,0c-0.2-0.7-0.3-1.5-0.2-2.3c0.4-2.3-0.7-3.5-3-3.5 C45.7,1.3,45.5,1.3,45.4,1.3L45.4,1.3L45.4,1.3L45.4,1.3z"/><path d="M50.2,8.1c1.8,0,3.6-0.2,5.4-0.2c3,0,3.1,0,3.6,2.9c0,0,0,0.1,0,0.1c0.1-0.1,0.2-0.2,0.4-0.2 c0-0.3,0-0.7,0-1c0.2-1.9,0-2.2-1.9-2.4c-2-0.2-4,0-6.1,0.2c-0.8,0.1-1.7,0.3-2.5-0.3c0,0-0.1,0-0.1,0C48.9,8,49.6,8.1,50.2,8.1z"/><path d="M49.1,7.1c0,0,0,0.1,0,0.1c0,0,0.1,0,0.1,0C49.1,7.1,49.1,7.1,49.1,7.1L49.1,7.1z"/><path d="M47.2,12c0.3,0.1,0.5,0.2,0.8,0.3l0,0c0-0.1,0-0.3,0-0.4c-0.2-0.1-0.4-0.2-0.7-0.2c0,0,0,0,0,0 C47.3,11.8,47.2,11.9,47.2,12L47.2,12z"/><path d="M59.1,11c0,0.3-0.1,0.5-0.1,0.8c0.1,0,0.1-0.1,0.2-0.1C59.2,11.4,59.2,11.1,59.1,11 C59.2,10.9,59.1,11,59.1,11z"/><path d="M59.2,11.6c0.3-0.2,0.3-0.6,0.3-0.9c-0.1,0-0.3,0.1-0.4,0.2C59.2,11.1,59.2,11.4,59.2,11.6z"/><path d="M38.2,55.8c-4.3,0-8.6,0-12.9,0c-0.5,0-1,0.1-1.4-0.1c0.4,0.3,0.9,0.2,1.4,0.2c4.3,0,8.6,0,12.9,0 c0.5,0,1,0,1.4-0.2C39.2,56,38.7,55.8,38.2,55.8z"/><path d="M23.9,55.7c0.5,0.2,0.9,0.1,1.4,0.1c4.3,0,8.6,0,12.9,0c0.5,0,1,0.1,1.4-0.1l0,0 C34.4,55.7,29.2,55.7,23.9,55.7z"/><path d="M58.2,45.1c0,0.6,0.1,1.2-0.2,1.7c0,0.3,0,0.5,0,0.8l0,0c0.4,0.9,0.4,1.7,0,2.6v0l0,0 c-0.1,0.3-0.1,0.5,0,0.8l0,0l0,0c0,0,0,0,0,0c0.1,0,0.2-0.1,0.2-0.1c0-0.1,0.1-0.3,0.1-0.4c0.3-0.8,0.3-1.6,0.2-2.5 c-0.1-0.4-0.1-0.8,0-1.2c0.1-0.6,0.1-1.2,0-1.7C58.4,45.1,58.3,45.1,58.2,45.1z"/><path d="M58.8,45.1c-0.1,0-0.2,0.1-0.3,0.1c0.1,0.6,0.1,1.2,0,1.7c-0.1,0.4,0,0.8,0,1.2c0.2,0.8,0.1,1.7-0.2,2.5 c0,0.1-0.1,0.2-0.1,0.4c0.1,0,0.2,0,0.3,0.4c0.1-0.2,0.2-0.3,0.3-0.5c0.1-1-0.4-2,0.2-2.9l0,0c0-0.3,0-0.5,0-0.8 C58.7,46.4,58.8,45.7,58.8,45.1z"/><path d="M58,51.3L58,51.3L58,51.3c0.1,0,0.1,0,0.2,0c0-0.1,0-0.2,0.1-0.4C58.1,50.9,58,51,58,51 C58,51.1,58,51.2,58,51.3z"/><path d="M58.2,50.9c0,0.1-0.1,0.2-0.1,0.4c0.1,0,0.2,0,0.4,0C58.4,51,58.3,50.9,58.2,50.9z"/><path d="M58.2,44.7c0,0.1,0,0.2,0,0.3c0.1,0,0.2,0.1,0.3,0.1c0-0.1,0-0.2,0-0.3C58.4,44.8,58.3,44.8,58.2,44.7 L58.2,44.7z"/><path d="M58.8,45.1C58.8,45,58.8,45,58.8,45.1L58.8,45.1c-0.1-0.1-0.2-0.2-0.3-0.2c0,0.1,0,0.2,0,0.3 C58.6,45.1,58.7,45.1,58.8,45.1z"/><path d="M10.3,55.5c0.7,0.4,1.5,0.3,2.3,0.2c2.2-0.1,4.4,0.3,6.6-0.2C16.3,55.7,13.3,55.7,10.3,55.5z"/><path d="M10.3,55.5c3,0.2,5.9,0.2,8.9,0l0,0C16.3,55.5,13.3,55.5,10.3,55.5z"/><path d="M44.1,1.8C44.1,1.8,44.1,1.8,44.1,1.8c0-0.1,0.1-0.1,0.1-0.2c0,0-0.1,0-0.1,0C44.1,1.7,44.1,1.7,44.1,1.8 C44.1,1.8,44.1,1.8,44.1,1.8z"/><path d="M43.7,1.2c0.2-0.1,0.4,0.2,0.4,0.4c0,0,0.1,0,0.1,0c0.3-0.4,0.8-0.3,1.2-0.3l0,0l0,0l0,0 C43.8,1,42.2,1,40.7,1.4C41.6,1.3,42.7,1.6,43.7,1.2z"/><path d="M44.1,1.8C44.1,1.8,44.1,1.8,44.1,1.8c0-0.1,0-0.1,0-0.2c-0.2,0-0.3,0-0.5,0c0.1,0,0.2,0.1,0.2,0.2 C43.9,1.8,44,1.8,44.1,1.8z"/><path d="M41.2,1.6c0.8,0.1,1.7-0.4,2.4,0c0.2,0,0.3,0,0.5,0c-0.1-0.2-0.2-0.5-0.4-0.4c-1,0.4-2,0.1-3,0.2 c-0.3,0.1-0.7,0.2-1,0.4C40.1,1.7,40.7,1.6,41.2,1.6z"/><path d="M45.4 1.3L45.4 1.3 45.4 1.3z"/><path d="M39.9,55.7c2,0,4,0,6,0l0,0C43.9,55.5,41.9,55.5,39.9,55.7z"/><path d="M39.9,55.7c2-0.2,4-0.2,6,0C43.9,55.3,41.9,55.3,39.9,55.7z"/><path d="M49.4,55.6c-0.3,0-0.6,0-0.9,0c-0.2,0-0.4,0.1-0.5,0.1c1.7-0.1,3.5,0.3,5.2-0.3l0,0 C52,55.7,50.7,55.5,49.4,55.6z"/><path d="M48.5,55.6c0.3,0,0.6,0,0.9,0c1.3-0.1,2.6,0.2,3.8-0.1C51.7,55.6,50.1,55.3,48.5,55.6z"/><path d="M58.8,44.2c0.4-1.5,0.4-3,0-4.4C59,41.2,58.9,42.7,58.8,44.2z"/><path d="M58.8,44.2c0.2-1.5,0.2-3,0-4.4l0,0C58.8,41.2,58.8,42.7,58.8,44.2z"/><path d="M6.1,55.5c1.3,0.4,2.6,0.4,3.9,0C8.8,55.7,7.5,55.7,6.1,55.5z"/><path d="M6.1,55.5c1.3,0.2,2.6,0.2,3.9,0l0,0C8.8,55.5,7.5,55.5,6.1,55.5z"/><path d="M58.8,50.7c0.4-0.9,0.2-1.9,0.2-2.9l0,0C58.6,48.8,59.1,49.8,58.8,50.7z"/><path d="M58.8,50.7c0.3-0.9-0.1-2,0.2-2.9C58.4,48.8,58.9,49.8,58.8,50.7z"/><path d="M1.2,52.8c0,0.7-0.3,1.4,0,2.1l0,0l0,0C1.4,54.2,1.4,53.5,1.2,52.8z"/><path d="M1.2,52.8c0.2,0.7,0.2,1.4,0,2.1l0,0C2,54.2,1.5,53.5,1.2,52.8z"/><path d="M1.2,38.2c-0.5,1.1-0.1,2.3-0.3,3.4l0,0C1.3,40.5,0.8,39.3,1.2,38.2z"/><path d="M1.2,38.2c-0.4,1.1,0.1,2.3-0.3,3.4C1.4,40.5,1.1,39.3,1.2,38.2z"/><path d="M58.5,54.7c0.8-0.7,0.5-1.5,0.3-2.4C58.7,53.1,59.3,54,58.5,54.7z"/><path d="M58.5,54.7c0.8-0.7,0.2-1.6,0.3-2.4l0,0C58.4,53.1,58.9,53.9,58.5,54.7z"/><path d="M0.7,13.8c0.1,1-0.2,1.9,0.3,2.9C0.6,15.8,1,14.8,0.7,13.8z"/><path d="M0.7,13.8c0.3,0.9-0.1,1.9,0.3,2.9l0,0C0.8,15.8,1.1,14.8,0.7,13.8z"/><path d="M3,53.9C3,53.9,3,53.9,3,53.9C3,53.8,3.1,53.8,3,53.9C3.1,53.8,3.1,53.8,3,53.9C3.1,53.8,3,53.8,3,53.9z"/><path d="M3.5,54.6c0-0.1,0.1-0.1,0.2-0.2c-0.1,0-0.2,0-0.3,0C3.4,54.5,3.4,54.5,3.5,54.6z"/><path d="M3.3,55.2L3.3,55.2c0.1,0,0.2,0,0.3,0v0c0-0.1-0.1-0.2-0.1-0.2C3.4,55,3.3,55.1,3.3,55.2z"/><path d="M3 53.9L3 53.9 3 53.9z"/><path d="M3.3,54.4c-0.2,0-0.4-0.1-0.5-0.3l0,0c-0.1,0-0.2,0-0.3,0.1l0,0c0.2,0.2,0.3,0.4,0.5,0.6c0.1,0,0.2,0,0.3,0 c0,0,0.1,0,0.1,0c0-0.1,0-0.1,0-0.2C3.4,54.5,3.4,54.5,3.3,54.4z"/><path d="M3.4,54.8c0,0-0.1,0-0.1,0c-0.1,0-0.2,0-0.3,0c0.1,0.1,0.2,0.3,0.3,0.4C3.3,55.1,3.4,55,3.4,55 C3.4,54.9,3.4,54.9,3.4,54.8z"/><path d="M3.6,54.4c-0.1,0.1-0.1,0.1-0.2,0.2c0,0.1,0,0.1,0,0.2c0.1,0,0.1,0,0.2,0c0,0,0.1,0,0.1,0 c0.2-0.2,0.4-0.3,0.5-0.4C4.1,54.4,3.9,54.4,3.6,54.4z"/><path d="M3.8,54.8c0,0-0.1,0-0.1,0c-0.1,0-0.1,0-0.2,0c0,0,0,0.1,0,0.2c0,0.1,0,0.1,0.1,0.2 C3.6,55,3.7,54.9,3.8,54.8z"/><path d="M3.5,54.6c0,0.1,0,0.1,0,0.2c0,0,0,0,0.1,0C3.5,54.7,3.5,54.7,3.5,54.6z"/><path d="M3.4,55c0-0.1,0-0.1,0-0.2c0,0,0,0-0.1,0C3.4,54.9,3.4,54.9,3.4,55z"/><path d="M58.8,45C58.8,45,58.8,45,58.8,45c0.3,0.7-0.1,1.4,0.2,2.1c0-0.8,0.1-1.6-0.1-2.3 C58.9,44.8,58.8,44.9,58.8,45z"/><path d="M58.8,45L58.8,45C58.8,45,58.8,45,58.8,45C58.8,45,58.8,45,58.8,45c0.1-0.1,0.1-0.2,0.1-0.2 c0-0.1-0.1-0.2-0.1-0.3C58.8,44.6,58.8,44.8,58.8,45z"/><path d="M58.8,45C58.8,45,58.8,45,58.8,45c0,0.7-0.1,1.4,0.2,2C58.7,46.4,59.1,45.7,58.8,45z"/><path d="M58.8,45C58.8,45,58.8,45,58.8,45C58.8,45,58.8,45,58.8,45C58.8,45,58.8,45,58.8,45z"/><path d="M54,55.4c0.9,0,1.8,0.2,2.6-0.2C55.8,55.5,54.9,55.1,54,55.4z"/><path d="M54,55.4c0.9-0.3,1.8,0.1,2.6-0.2l0,0C55.8,55.3,54.9,55,54,55.4z"/><path d="M0.9,18.3c0.1,0.9-0.2,1.8,0.3,2.6C0.8,20.1,1.3,19.1,0.9,18.3z"/><path d="M0.9,18.3c0.3,0.8-0.1,1.8,0.3,2.6c0,0,0,0,0,0C1.1,20,1.3,19.1,0.9,18.3z"/><path d="M20.8,55.5c0.8,0.4,1.6,0.2,2.4,0.2c0,0,0,0,0,0C22.4,55.4,21.6,55.8,20.8,55.5z"/><path d="M20.8,55.5c0.8,0.3,1.6-0.1,2.4,0.2C22.4,55.3,21.6,55.5,20.8,55.5z"/><path d="M0.9,50.5c0,0.6-0.1,1.3,0.3,1.8C0.9,51.7,1.3,51.1,0.9,50.5z"/><path d="M0.9,50.5c0.4,0.6,0,1.3,0.3,1.8l0,0C1.2,51.7,1.4,51,0.9,50.5z"/><path d="M3.8,55.2c0.6,0.3,1.2,0.2,1.8,0.3l0,0C5,55.1,4.4,55.5,3.8,55.2z"/><path d="M3.8,55.2c0.6,0.3,1.3-0.1,1.8,0.3C5,55.1,4.4,55.1,3.8,55.2z"/><path d="M0.6,11.5c0,0.6,0,1.2,0,1.8l0,0C0.8,12.7,0.9,12.1,0.6,11.5z"/><path d="M0.6,11.5c0.2,0.6,0.2,1.2,0,1.8C1,12.7,1,12.1,0.6,11.5z"/><path d="M0.9,27.2c0,0.6-0.1,1.2,0.2,1.7C0.9,28.4,1.2,27.7,0.9,27.2z"/><path d="M0.9,27.2c0.3,0.5,0,1.2,0.2,1.7c0,0,0,0.1,0.1,0.1C1.1,28.4,1.3,27.8,0.9,27.2z"/><path d="M1.2,31.4L1.2,31.4c-0.3,0.5-0.3,1.1,0,1.6C1,32.4,1,31.9,1.2,31.4z"/><path d="M1.2,31.4c-0.2,0.5-0.2,1.1,0,1.6l0,0C1.2,32.4,1.2,31.9,1.2,31.4z"/><path d="M58.2,54.9c-0.4,0.2-0.9,0-1.3,0.2C57.4,55.2,57.8,55.2,58.2,54.9z"/><path d="M56.9,55.2c0.4-0.2,0.9-0.1,1.3-0.2l0,0C57.7,54.8,57.3,54.9,56.9,55.2z"/><path d="M1.1,23.2c-0.1,0.4-0.1,0.7-0.2,1.1c0,0,0.1-0.1,0.1-0.1C1.1,23.9,1,23.5,1.1,23.2z"/><path d="M1.2,23c0,0.1-0.1,0.1-0.1,0.2c-0.1,0.3,0.1,0.7-0.1,1C1.2,23.8,1.2,23.4,1.2,23z"/><path d="M1.2,36.1c-0.3,0.4-0.3,0.9,0,1.3C1,37,1,36.5,1.2,36.1z"/><path d="M1.2,36.1C1,36.5,1,37,1.2,37.4l0,0C1.2,37,1.2,36.5,1.2,36.1z"/><path d="M48.4,12.7c0,0.5-0.1,1.1-0.6,1.4c-0.5,0.5-1.2,0.7-1.9,0.7c-1.9,0-3.8,0-5.7,0c-2-0.1-2.2-0.5-1.9-3.2 c0.1-0.5,0.4-1,0-1.5c-0.1-0.2-0.3-0.3-0.4-0.5c-0.2-0.1-0.3-0.3-0.5-0.3c-0.2,0-0.4-0.1-0.6-0.1c-0.4,0-0.9,0.1-1.3,0.2 c-0.1,0-0.2,0-0.3,0c-0.4-0.1-0.9-0.1-1.3,0c-0.2,0-0.3,0-0.5,0c-0.6,0-1.1,0.2-1.6,0.2c-2.2-0.1-4.3,0.2-6.5,0.4 c-1.2,0.1-1.8,0.7-2.2,1.7c-0.7,1.8-1.4,2.3-3.3,2.3c-2,0-4,0-6,0c-1.1,0-1.7-0.5-1.9-1.5c-0.6-2.3-1.1-2.7-3.4-2.5 c-0.5,0-1,0.1-1.6,0c-2.4-0.2-3,0.7-3.6,3.3c-0.3,1.3-0.3,2.7-0.4,4C2.4,21,2.6,24.5,2.7,27.9c0.1,0.5,0.1,0.9,0,1.4 c-0.2,1.3-0.1,2.6-0.1,3.8c0,0.1,0,0.3,0,0.4c0,1.1,0,2.2,0,3.3c0,0.1,0,0.3,0,0.4c0,0.8,0,1.6,0,2.4c0.1,1.1,0.4,2.2,0,3.4 c-0.3,1.1-0.2,2.3-0.2,3.4c0,0.5,0,1,0,1.5c0.1,1.5-0.1,3.1,0.2,4.6c0,0.1,0.1,0.2,0.1,0.3c0,0.3,0.1,0.7,0.3,0.9 c0,0,0,0.1,0.1,0.1c0,0,0.1,0,0.1,0c0.5-0.6,0.3-1.4,0.2-2.2c-0.2-2-0.2-3.9-0.1-5.9c0.5-7.8,0-15.7,0.3-23.5 c0.1-3.2,0.2-6.4,0.5-9.5c0.1-1.1,0.7-1.5,1.7-1.6c0.8,0,1.7,0,2.5-0.1c2.3-0.3,2.5-0.2,3.1,2c0.5,1.7,1,2.2,2.7,1.9 c1.9-0.3,3.7,0,5.6,0c2.2,0.1,3.3-0.6,4.1-2.7c0.4-1.2,1.2-1.7,2.3-1.7c3.4,0,6.8-0.2,10.2-0.4c1.1-0.1,1.5,0.4,1.5,1.5 c0,0.3-0.1,0.6-0.1,0.9c-0.2,1.8,0.5,2.8,2.2,2.9c2.5,0.2,5,0.3,7.4,0c0.6-0.1,1-0.3,1.2-0.8c0.5-0.8,0.7-1.7,0.8-2.7 c0.1-1.6,0.6-2.1,2.2-2.1c1,0,2,0,3,0c1.6,0,2.1,0.5,2.1,2.1c0,4.5,0.2,9.1,0.3,13.6c0.1,4.2,0.1,8.5,0,12.7c0,4.4,0.4,8.7,0,13.1 c-0.1,1.6-0.5,2-2.1,2c-2.1,0-4.2,0.1-6.3,0C42,53.2,35.6,53,29.2,53c-8.2,0-16.4,0-24.6,0.3c-0.6,0-1.1,0.1-1.6,0.5 c0.4-0.1,0.7,0.1,1,0.4c0,0,0.1,0,0.1,0C4.4,54,4.6,54,4.8,54c1,0.2,1.9,0.2,2.9,0c0.2,0,0.4,0,0.6,0c0.8,0,1.6-0.1,2.4-0.2 c5.7,0.1,11.3-0.2,17,0c1.5,0,2.9,0,4.4,0c0.1,0,0.3,0,0.4,0c0.9,0.2,1.9,0.2,2.8,0c0.7,0,1.5,0,2.2,0c0.6,0,1.2,0,1.8,0 c0.1,0,0.3,0,0.4,0c1.2,0.3,2.3,0.2,3.5,0.2c2.3-0.1,4.5,0.3,6.8,0c0.6,0,1.1,0,1.7,0c0.1,0,0.3,0,0.4,0c0.5,0,0.9,0,1.4,0 c0.4,0,0.8-0.1,1.1,0c1.1,0.3,1.8-0.1,2.3-1c0.7-0.5,0.4-1.3,0.7-1.8c0,0-0.1-0.1-0.1-0.1c-0.3-0.4-0.2-0.7-0.1-1.1 c0.3-0.8,0.2-1.6,0-2.5c0-0.3,0-0.5,0-0.8c0.2-0.6,0-1.3,0.4-1.8c-0.1-0.1-0.2-0.2-0.2-0.3c-0.4-0.9-0.5-1.8-0.3-2.8 c0.1-0.5,0.1-1.1,0.1-1.6c-0.4-6.1,0.3-12.2-0.3-18.3c0.1-0.8,0.1-1.6,0-2.4c0-1.6,0.1-3.2-0.2-4.8c-0.1-0.4,0.1-0.8,0.2-1.2 c0.1-0.1,0.2-0.2,0.3-0.3c-0.2-0.7-0.2-1.3-0.2-2c-0.2-0.4-0.1-1.1-0.7-1.3c-0.2-0.2-0.4-0.4-0.7-0.5c-0.7-0.6-1.6-0.3-2.4-0.4 c-0.7,0-1.3,0-2,0c-1.3-0.1-2.3,0.5-3,1.5c-0.3,0.5-0.1,1.1-0.5,1.6c0,0,0,0,0,0C48.4,12.3,48.4,12.5,48.4,12.7z"/><path d="M2.8,53.9c0.1,0,0.1,0,0.2-0.1c0,0,0-0.1-0.1-0.1c-0.2-0.3-0.3-0.6-0.3-0.9c0-0.1,0-0.2-0.1-0.3 c-0.3-1.5-0.1-3.1-0.2-4.6c0-0.5,0-1,0-1.5c0-1.1-0.1-2.3,0.2-3.4c0.4-1.1,0.1-2.2,0-3.4c0-0.8,0-1.6,0-2.4c0-0.1,0-0.3,0-0.4 c0-1.1,0-2.2,0-3.3c0-0.1,0-0.3,0-0.4c0-1.3-0.1-2.6,0.1-3.8c0.1-0.5,0.1-0.9,0-1.4C2.6,24.5,2.4,21,2.8,17.6 c0.1-1.3,0.1-2.7,0.4-4c0.6-2.6,1.2-3.5,3.6-3.3c0.5,0,1,0,1.6,0c2.3-0.2,2.8,0.2,3.4,2.5c0.3,1,0.8,1.5,1.9,1.5c2-0.1,4,0,6,0 c1.9,0,2.6-0.5,3.3-2.3c0.4-1,1-1.6,2.2-1.7c2.2-0.2,4.3-0.5,6.5-0.4c0.6,0,1.1-0.2,1.6-0.2c0.2,0,0.3,0,0.5,0 c0.4-0.1,0.9-0.1,1.3,0c0.1,0,0.2,0,0.3,0c0.4-0.1,0.8-0.2,1.3-0.2c0.2,0,0.4,0,0.6,0.1c0.2,0,0.4,0.2,0.5,0.3 c0.1,0.1,0.3,0.3,0.4,0.5c0.4,0.5,0.1,1,0,1.5c-0.3,2.7-0.1,3.1,1.9,3.2c1.9,0,3.8,0,5.7,0c0.7,0,1.4-0.2,1.9-0.7 c0.5-0.3,0.6-0.8,0.6-1.4c0-0.2,0-0.4-0.2-0.6c0,0.2-0.1,0.5-0.2,0.7v0c-0.1,0.3-0.2,0.5-0.3,0.8c-0.1,0.5-0.4,0.9-0.9,0.9 c-2.2,0-4.5,0.4-6.7-0.2l0,0c-1.2,0.1-1.7-0.6-1.5-1.8c0.1-0.5,0.2-0.9,0.2-1.4c0-0.5,0-1,0-1.6l0,0c-0.1-0.2-0.2-0.3-0.3-0.5 C38.4,9.1,38.1,9,37.9,9c-0.1,0-0.2,0-0.4-0.1c-0.3,0-0.5,0-0.8,0c0,0-0.1,0-0.1,0.1c-0.4,0.2-0.8,0.2-1.2,0.2l0,0l0,0 c-0.1,0-0.2,0-0.3,0c-0.4,0-0.9,0-1.3,0c-0.2,0-0.3,0-0.5,0c0,0-0.1,0-0.1,0.1c-0.4,0.2-0.8,0.2-1.2,0.2c0,0,0,0,0,0l0,0 c-2.5,0.1-4.9,0.2-7.4,0.2c-1.3,0-2,0.4-2,1.9c0,1.5-1.1,2.4-2.6,2.3c-2,0-3.9-0.1-5.9,0c-1.5,0.1-2-0.5-2-2c0.1-1.6-0.3-2.1-2-2.1 c-2,0-3.9,0.2-5.9,0.3c-0.8,0-1.3,0.5-1.4,1.3c-0.2,2.1-0.3,4.2-0.5,6.2c0,3,0,6,0,9c0,0.6,0.1,1.2-0.2,1.8v0 c0.1,0.3,0.1,0.5,0,0.8c0.4,1.4,0.4,2.8,0,4.2l0,0c0,0.1,0,0.2,0,0.3c0.4,1.2,0.4,2.4,0,3.7l0,0c0,0.1,0,0.2,0,0.3 c0.3,0.8,0.3,1.6,0,2.4l0,0c0,1,0,2.1,0,3.1c-0.1,1.2,0.2,2.5-0.3,3.7v0v0c0,0.4,0,0.9,0,1.3c0.1,0.2,0.1,0.4,0.1,0.6 c0.3,1.4,0,2.9,0.1,4.3c0,0.1,0.1,0.1,0.1,0.2c0.1,0.4,0.1,0.7,0.2,1.1c0,0-0.1-0.1-0.1-0.1c0,0,0,0.1,0.1,0.1l0,0l0,0 c0-0.1,0.1-0.1,0.1-0.2C2.7,53.9,2.7,53.9,2.8,53.9z"/><path d="M2.4,17.8c0-0.1,0.1-0.2,0.1-0.3C2.4,17.6,2.4,17.7,2.4,17.8z"/><path d="M57.9,51.2c0,0-0.1,0-0.1-0.1c-0.3,0.6-0.1,1.4-0.7,1.8c-0.5,0.9-1.2,1.4-2.3,1c-0.4-0.1-0.8,0-1.1,0 c-0.5,0-0.9,0-1.4,0c-0.1,0-0.3,0-0.4,0c-0.6,0-1.1,0-1.7,0c-2.3,0.3-4.5-0.1-6.8,0c-1.2,0-2.4,0-3.5-0.2c-0.1,0-0.3,0-0.4,0 c-0.6,0-1.2,0-1.8,0c-0.7,0-1.5,0-2.2,0c-0.9,0.2-1.9,0.2-2.8,0c-0.1,0-0.3,0-0.4,0c-1.5,0-2.9,0-4.4,0c-5.7-0.2-11.3,0.1-17,0 C9.9,53.9,9.1,54,8.3,54c-0.2,0-0.4,0-0.6,0c-1,0.2-1.9,0.2-2.9,0c-0.2,0-0.4,0-0.6,0.1c0,0-0.1,0-0.1,0c0.1,0.1,0.1,0.2,0.2,0.3 c0.2,0,0.3,0,0.5,0l0,0l0,0c1,0,1.9,0,2.9,0l0,0l0,0c0.2,0,0.3,0,0.5,0c0.8-0.4,1.6-0.2,2.4-0.3l0,0l0,0c5.7,0,11.3,0,17,0 c1.6-0.4,3.1-0.4,4.7,0l0,0c0.1,0,0.2,0,0.3,0c0.9,0,1.7,0,2.6,0l0,0l0,0c0.8,0,1.6,0,2.4,0l0,0c0.6-0.3,1.2-0.3,1.8,0l0,0 c0.1,0,0.2,0,0.3,0c1.2,0.1,2.5-0.2,3.7,0.3l0,0c2.3-0.2,4.5,0.5,6.8,0l0,0h0c0.6-0.3,1.2-0.3,1.8,0l0,0l0.1,0l0.1,0 c0.5-0.3,1-0.3,1.6,0l0,0l0,0c1.4,0.2,2.9,0.6,4-0.8C57.8,52.8,57.6,52,57.9,51.2z"/><path d="M57.4,13.5c-0.1,0.4-0.3,0.8-0.2,1.2c0.2,1.6,0.1,3.2,0.2,4.8c0.1,0.8,0.1,1.6,0,2.4 c0.6,6.1-0.1,12.2,0.3,18.3c0,0.5,0.1,1.1-0.1,1.6c-0.2,1-0.1,1.9,0.3,2.8c0.1,0.1,0.1,0.2,0.2,0.3c0,0,0,0,0-0.1 c0-0.1,0.1-0.3,0.2-0.4c0,0,0,0,0,0c-0.3-0.9-0.4-1.7-0.2-2.6c0-0.4,0-0.9,0-1.3l0,0v0c-0.2-6.3,0.2-12.6-0.3-18.9 c0-0.7,0-1.4,0-2.1l0,0l0,0c0-2.1,0-4.2,0-6.3v0c0,0,0-0.1,0-0.1C57.6,13.3,57.5,13.4,57.4,13.5z"/><path d="M48.2,12.1c0.4-0.4,0.2-1.1,0.5-1.6c0.7-1,1.7-1.6,3-1.5c0.6,0,1.3,0,2,0c0.8,0.1,1.7-0.2,2.4,0.4 c0.2,0.2,0.4,0.4,0.7,0.5c0.6,0.2,0.5,0.8,0.7,1.3c0-0.5,0-1.1,0-1.6c0-0.2,0-0.3,0-0.5c-0.3-0.1-0.5-0.2-0.8-0.3 c-1-0.1-2.1,0.2-3.1-0.2l0,0c-1.3,0.1-2.6-0.1-3.9,0.1c-1,0.2-1.6,0.6-1.4,1.7C48.2,11,48.3,11.5,48.2,12.1z"/><path d="M58.1,45C58,45,58,44.9,58.1,45C58,44.9,58,44.9,58.1,45c-0.4,0.5-0.2,1.2-0.4,1.7c0,0.3,0,0.5,0,0.8 c0.2,0.8,0.3,1.6,0,2.5c-0.1,0.4-0.3,0.7,0.1,1.1c0,0,0.1,0.1,0.1,0.1c0,0,0,0,0,0c0.1,0,0.1-0.1,0.2-0.1c0,0,0,0,0,0l0,0 c-0.1-0.3-0.1-0.5,0-0.8l0,0c0-0.9,0-1.7,0-2.6l0,0l0,0c0-0.3,0-0.5,0-0.8C58,46.2,57.9,45.6,58.1,45z"/><path d="M58,51c-0.1,0-0.1,0.1-0.2,0.1c0,0,0,0,0,0c0,0,0.1,0,0.1,0.1C57.9,51.2,57.9,51.1,58,51z"/><path d="M58.1,45C58.1,44.9,58.1,44.9,58.1,45C58.1,44.9,58,44.9,58.1,45C58,44.9,58,44.9,58.1,45 C58,44.9,58,45,58.1,45z"/><path d="M3.1,53.8C3.1,53.8,3,53.8,3.1,53.8c-0.1,0.1,0,0.2,0,0.2c0.1,0.1,0.2,0.2,0.2,0.4c0.1,0,0.2,0,0.3,0 c0.1-0.1,0.3-0.2,0.5-0.3C3.8,53.9,3.5,53.7,3.1,53.8z"/><path d="M3,53.8C3,53.8,3,53.9,3,53.8C3,53.8,3.1,53.8,3,53.8C3,53.8,3,53.8,3,53.8z"/><path d="M3,53.9C3,53.9,3,53.9,3,53.9c-0.1,0.1-0.1,0.2-0.2,0.2c0.2,0.2,0.3,0.2,0.5,0.3c-0.1-0.1-0.2-0.2-0.2-0.4 C3.1,54,3,53.9,3,53.9z"/><path d="M3,53.9c-0.1,0.1-0.1,0.1-0.2,0.2c0,0,0,0,0,0C2.9,54,2.9,53.9,3,53.9z"/><path d="M3,53.9C3,53.9,3,53.9,3,53.9C3,53.9,3,53.8,3,53.9c-0.1,0-0.1,0-0.2,0c-0.1,0-0.1,0.1-0.2,0.1 c0,0.1-0.1,0.1-0.1,0.2c0.1,0,0.2,0,0.3-0.1l0,0c0,0,0,0,0,0C2.9,54,2.9,53.9,3,53.9z"/><path d="M3.6,54.4c0.2,0,0.5,0,0.7,0c-0.1-0.1-0.1-0.2-0.2-0.3C3.9,54.2,3.8,54.3,3.6,54.4z"/><path d="M42.9,13.1c-0.5,0-0.8,0-1.1-0.1c0.2,0.1,0.5,0.2,0.8,0.2c0.7,0,1.4,0.1,2,0.1c0.6,0.1,1-0.2,1.4-0.5 c-0.3,0.2-0.7,0.2-1.3,0.2C44.2,13.1,43.5,13.1,42.9,13.1z"/><path d="M44.2,1.9c0,0-0.1,0-0.1,0c-0.3,0.8-1.4,0.5-1.9,1C41.8,3,41.4,3.1,41,3.2c-1.2,0.7-0.6,1.9-0.7,2.9 c0,0.9,0,1.9,0,2.8c0.2,0.9,0.2,1.8,0.5,2.7c0,0,0,0,0,0.1c0-0.2-0.1-0.4-0.1-0.7c-0.1-1-0.2-2-0.1-2.7c0-0.9,0.1-1.5,0-2.1 c-0.3-2.6-0.2-2.7,2.2-3.3c3.5-0.9,4.8-0.2,4.5,2.9c0.1-1,0-2-0.5-2.9c-0.1-0.3-0.4-0.5-0.6-0.7c-0.6-0.1-1.3-0.2-1.9-0.3 C44.3,1.9,44.2,1.9,44.2,1.9z"/><path d="M46.8,11.2c0,0.7-0.1,1.1-0.4,1.4c0.3-0.2,0.5-0.5,0.7-0.7c-0.5-0.5-0.3-1.2-0.2-1.7 c0.2-1.2,0.2-2.3,0.3-3.5c0,0.1,0,0.1,0,0.2C46.9,8.3,46.9,9.8,46.8,11.2z"/><path d="M47.1,11.9c-0.2,0.2-0.5,0.5-0.7,0.7c-0.1,0.1-0.2,0.2-0.3,0.2c-0.4,0.3-0.9,0.5-1.4,0.5 c-0.7-0.1-1.4-0.1-2-0.1c-0.3,0-0.6-0.1-0.8-0.2c-0.7-0.1-0.9-0.4-1-1.3c0,0,0,0,0-0.1c-0.2-0.9-0.3-1.8-0.5-2.7c0-0.9,0-1.9,0-2.8 c0.1-1-0.4-2.2,0.7-2.9c0.4-0.1,0.7-0.2,1.1-0.3c0.5-0.5,1.6-0.2,1.9-1c-0.1,0-0.1-0.1-0.2-0.1c-0.7,0.3-1.4,0.5-2.1,0.8 c-0.3,0.1-0.5,0.2-0.8,0.3c-1.5,0.7-1.1,2-1,3.1c0.4,1,0.4,2.1,0,3.1c0.1,0.7,0.2,1.4,0.3,2c0.3,2.1,0.7,2.5,2.9,2.4 c0.4,0,0.8,0,1.2,0.1c1.5,0.3,2.5-0.2,3-1.7v0C47.2,12,47.1,11.9,47.1,11.9z"/><path d="M46.8,2.9c0.5,0.9,0.6,1.9,0.5,2.9c0,0.3-0.1,0.6-0.1,0.9c-0.1,1.2-0.1,2.3-0.3,3.5 c-0.1,0.5-0.3,1.2,0.2,1.7c0.1-0.1,0.1-0.1,0.2-0.2c0.1-1.6,0.3-3.2,0.4-4.9c0.1-1.5,0.7-3.2-0.7-4.5c-0.3,0-0.5-0.1-0.8-0.1 C46.5,2.3,46.7,2.5,46.8,2.9z"/><path d="M47.1,11.9c0,0,0.1,0.1,0.1,0.1c0-0.1,0-0.2,0-0.3C47.2,11.8,47.2,11.8,47.1,11.9z"/><path d="M44.2,1.9c0.1,0,0.1-0.1,0.2-0.1c-0.1,0-0.1,0-0.2,0c0,0,0,0,0,0c0,0,0,0.1,0,0.1 C44.1,1.9,44.1,1.9,44.2,1.9z"/><path d="M44.1,1.8c-0.1,0-0.2,0-0.2,0C43.9,1.9,44,1.9,44,1.9C44.1,1.9,44.1,1.8,44.1,1.8z"/><path d="M2.4,19c0-0.4-0.1-0.8,0-1.2c-0.1,0.2-0.1,0.3-0.1,0.5c0,3.3,0,6.6,0,9.9l0,0C2.5,25.2,2.3,22.1,2.4,19z"/><path d="M2.5,26.5c0-3,0-6,0-9c0,0.1-0.1,0.2-0.1,0.3c-0.1,0.4,0,0.8,0,1.2c-0.1,3.1,0.1,6.1-0.1,9.2 C2.5,27.7,2.5,27.1,2.5,26.5z"/><path d="M46.6,14.5c0.6,0,0.9-0.5,1.2-0.9c-0.7,0.6-1.5,0.8-2.4,0.8c-1.7,0-3.5,0-5.2,0l0,0 C42.3,14.6,44.5,14.4,46.6,14.5z"/><path d="M46.8,14.5c0.5,0,0.8-0.5,0.9-0.9c-0.3,0.4-0.6,0.9-1.2,0.9c-2.1,0-4.3,0.2-6.4-0.1 C42.4,14.9,44.6,14.6,46.8,14.5z"/><path d="M20.3,2.9c-1.4-1-4.3-0.8-6,0.5C16.2,2.5,18.2,2,20.3,2.9z"/><path d="M20.3,2.9c-2.1-0.9-4.1-0.4-6,0.5C16.2,2.8,18.2,2.1,20.3,2.9z"/><path d="M2.2,52.8c-0.3-1.2-0.1-2.4-0.1-3.6c0-0.3,0-0.5,0-0.8c0-0.2-0.1-0.4-0.1-0.6C2.1,49.5,1.5,51.2,2.2,52.8 L2.2,52.8L2.2,52.8z"/><path d="M2.1,49.3c0,1.2-0.2,2.4,0.1,3.6l0,0c-0.1-1.4,0.1-2.9-0.1-4.3C2.1,48.7,2.1,49,2.1,49.3z"/><path d="M2.2 52.8L2.2 52.8 2.2 52.8z"/><path d="M2.2,29c0,1.4,0,2.8,0,4.2l0,0C2.4,31.8,2.4,30.4,2.2,29z"/><path d="M2.2,29c0.2,1.4,0.2,2.8,0,4.2C2.6,31.8,2.6,30.4,2.2,29z"/><path d="M2.2,42.9c-0.4,1.2-0.3,2.4-0.3,3.7C2.3,45.4,1.9,44.1,2.2,42.9z"/><path d="M2.2,42.9c-0.3,1.2,0.1,2.5-0.3,3.7v0C2.4,45.4,2.1,44.1,2.2,42.9z"/><path d="M2.2,33.5c0,1.2,0,2.4,0,3.7l0,0C2.4,35.9,2.4,34.7,2.2,33.5z"/><path d="M2.2,33.5c0.2,1.2,0.2,2.4,0,3.7C2.6,35.9,2.6,34.7,2.2,33.5z"/><path d="M39.9,6c0,1,0,2.1,0,3.1C40.1,8.1,40.1,7,39.9,6z"/><path d="M39.9,6c0.2,1,0.2,2.1,0,3.1C40.3,8.1,40.3,7,39.9,6z"/><path d="M2.2,37.4c0,0.8,0,1.6,0,2.4l0,0C2.5,39,2.3,38.2,2.2,37.4z"/><path d="M2.2,37.4c0.1,0.8,0.2,1.6,0,2.4C2.6,39,2.6,38.2,2.2,37.4z"/><path d="M48.2,12.1c0,0-0.1,0.1-0.1,0.1v0c0,0.2,0,0.3,0,0.5l0,0C48.1,12.6,48.2,12.4,48.2,12.1z"/><path d="M48.2,12c0-0.5-0.2-1.1,0.1-1.6c-0.4,0.4-0.3,0.9-0.3,1.4C48.1,11.9,48.1,12,48.2,12z"/><path d="M48,12.3c0.1,0,0.1-0.1,0.1-0.1c0,0,0-0.1,0-0.1c-0.1-0.1-0.1-0.1-0.2-0.1C48,12,48,12.1,48,12.3z"/><path d="M48.2,12.1C48.2,12.1,48.2,12.1,48.2,12.1C48.2,12.1,48.2,12.1,48.2,12.1C48.2,12.1,48.2,12.1,48.2,12.1z"/><path d="M48.2,12.1C48.2,12.1,48.2,12.1,48.2,12.1C48.2,12.1,48.2,12.1,48.2,12.1c-0.1,0.3-0.1,0.5-0.2,0.7l0,0v0 C48.1,12.6,48.2,12.3,48.2,12.1z"/><path d="M48.2,12C48.2,12,48.2,12.1,48.2,12C48.2,12.1,48.2,12.1,48.2,12C48.2,12.1,48.2,12.1,48.2,12 c0.1-0.5,0.1-1,0.1-1.6C48,10.9,48.2,11.5,48.2,12z"/><path d="M48.2,12.1C48.2,12.1,48.2,12,48.2,12.1C48.2,12.1,48.2,12.1,48.2,12.1C48.2,12.1,48.2,12.1,48.2,12.1 C48.2,12.1,48.2,12.1,48.2,12.1z"/><path d="M38.9,11.2c0.2-0.5,0.6-1,0-1.6v0C39.1,10.2,39.1,10.7,38.9,11.2z"/><path d="M38.9,9.7c0,0.5,0,1,0,1.6C39.1,10.7,39.1,10.2,38.9,9.7z"/><path d="M33.3,9.2c0,0,0.1,0,0.1-0.1C32.9,9,32.4,9,32.1,9.4C32.4,9.1,32.9,9.3,33.3,9.2z"/><path d="M33.3,9.2c-0.4,0.2-0.8-0.1-1.2,0.2c0,0,0,0,0,0C32.5,9.4,32.9,9.4,33.3,9.2z"/><path d="M36.7,8.9C36.7,8.9,36.7,8.9,36.7,8.9c-0.4-0.2-0.8-0.2-1.2,0.2C35.8,8.8,36.3,9.1,36.7,8.9z"/><path d="M36.7,8.9c-0.4,0.2-0.9-0.1-1.2,0.2l0,0C35.9,9.1,36.3,9.1,36.7,8.9z"/><path d="M35.2,9.1c-0.4-0.6-0.9-0.2-1.3,0C34.3,8.9,34.8,8.9,35.2,9.1z"/><path d="M33.9,9.1c0.4,0,0.9,0,1.3,0C34.8,8.9,34.3,8.9,33.9,9.1z"/><path d="M2.3,53c0-0.1-0.1-0.1-0.1-0.2v0v0v0v0l0,0c0,0.4,0,0.8,0.2,1.2C2.3,53.7,2.4,53.3,2.3,53z"/><path d="M2.2 52.8L2.2 52.8 2.2 52.8z"/><path d="M2.3,53c0.1,0.3-0.1,0.7,0.1,1c0,0,0.1,0.1,0.1,0.1C2.5,53.8,2.5,53.4,2.3,53z"/><path d="M2.2 52.8L2.2 52.8 2.2 52.8z"/><path d="M37.6,8.9c0.1,0,0.2,0.1,0.4,0.1c0.2,0,0.5,0,0.7,0.2C38.3,8.9,38,8.7,37.6,8.9z"/><path d="M37.9,9c0.2,0.1,0.5,0.1,0.7,0.2C38.4,9,38.1,9,37.9,9z"/><path d="M41,2.8c0.2-0.2,0.5-0.3,0.8-0.3C41.4,2.4,41.2,2.6,41,2.8z"/><path d="M41,2.8c0.3-0.1,0.5-0.2,0.8-0.3C41.5,2.6,41.2,2.6,41,2.8z"/><path d="M27.6,54.1c1.6,0,3.1,0,4.7,0l0,0C30.7,53.9,29.2,53.9,27.6,54.1z"/><path d="M27.6,54.1c1.6-0.2,3.1-0.2,4.7,0C30.7,53.8,29.2,53.8,27.6,54.1z"/><path d="M39.6,54.1c1.2,0.5,2.4,0.2,3.7,0.3l0,0C42.1,54,40.9,54.5,39.6,54.1z"/><path d="M39.6,54.1c1.2,0.4,2.5-0.1,3.7,0.3C42.1,53.9,40.9,54.3,39.6,54.1z"/><path d="M4.8,54.4c1,0.4,1.9,0.4,2.9,0C6.8,54.6,5.8,54.6,4.8,54.4z"/><path d="M4.8,54.4L4.8,54.4c1,0.2,1.9,0.2,2.9,0l0,0C6.8,54.4,5.8,54.4,4.8,54.4z"/><path d="M32.6,54.2c0.9,0.4,1.7,0.4,2.6,0C34.3,54.4,33.5,54.4,32.6,54.2z"/><path d="M32.6,54.2c0.9,0.2,1.7,0.2,2.6,0l0,0C34.3,54.2,33.5,54.2,32.6,54.2z"/><path d="M57.7,53.6c0.4-0.7,0.2-1.6,0.2-2.3c0,0-0.1,0-0.1,0C57.7,52,58,52.8,57.7,53.6z"/><path d="M58,51C58,51,58,51,58,51L58,51C58,51,58,51,58,51C58,51,58,51,58,51z"/><path d="M57.9,51.2C57.9,51.2,57.9,51.3,57.9,51.2L57.9,51.2C58,51.2,58,51.1,58,51c0,0,0,0,0,0 C57.9,51.1,57.9,51.2,57.9,51.2z"/><path d="M57.9,51.2C57.9,51.2,57.9,51.2,57.9,51.2c-0.3,0.8-0.1,1.6-0.2,2.4C58,52.8,57.7,52,57.9,51.2z"/><path d="M58,51C58,51,58,51,58,51C58,51,58,51,58,51C58,51,58,51,58,51z"/><path d="M57.9,51.2c0-0.1,0-0.1,0.1-0.2c0,0,0,0,0,0C57.9,51.1,57.9,51.2,57.9,51.2C57.9,51.2,57.9,51.2,57.9,51.2z"/><path d="M8.2,54.4c0.8,0,1.6,0.2,2.4-0.3C9.8,54.5,9,54.1,8.2,54.4z"/><path d="M8.2,54.4c0.8-0.3,1.6,0.1,2.4-0.3l0,0C9.8,54.2,9,54,8.2,54.4z"/><path d="M37.5,54.1L37.5,54.1c0.6,0,1.2,0,1.8,0l0,0C38.8,53.9,38.2,53.9,37.5,54.1z"/><path d="M37.5,54.1c0.6-0.2,1.2-0.2,1.8,0C38.8,53.8,38.2,53.8,37.5,54.1z"/><path d="M50.1,54.4c0.6,0,1.2,0,1.8,0l0,0C51.3,54.2,50.7,54.2,50.1,54.4z"/><path d="M50.1,54.4L50.1,54.4c0.6-0.2,1.2-0.2,1.8,0C51.3,54.1,50.7,54.1,50.1,54.4z"/><path d="M52.2,54.4c0.5,0,1,0,1.6,0C53.3,54.2,52.7,54.2,52.2,54.4z"/><path d="M52.2,54.4c0.5-0.2,1-0.2,1.6,0l0,0C53.3,54.1,52.7,54.1,52.2,54.4z"/><path d="M58,13.2c0.3,0,0.6-0.2,0.5-0.7c0-0.1,0-0.1,0-0.2c-0.1,0.2-0.2,0.4-0.3,0.6C58.2,12.9,58.1,13,58,13.2z"/><path d="M59 11.7L59 11.7 59 11.7z"/><path d="M58.5,12.2c0,0.1,0,0.1,0,0.2c0.1,0.6-0.1,0.7-0.5,0.7c0,0,0,0.1-0.1,0.1l0,0c0.1,0.5,0,1.4,0.7,1.3 c0.7-0.1,0.7-1,0.4-1.6c-0.2-0.4-0.1-0.8-0.1-1.3C58.8,11.9,58.6,12,58.5,12.2z"/><path d="M57.9,11.6c0,0-0.1,0-0.1-0.1c0,0.1,0,0.2,0,0.3C57.8,11.7,57.8,11.7,57.9,11.6z"/><path d="M57.9,12.6C57.8,12.6,57.8,12.6,57.9,12.6c-0.1,0.2-0.1,0.4-0.1,0.6c0.1,0,0.1,0,0.2,0 C57.9,13,57.8,12.8,57.9,12.6z"/><path d="M57.9,13.2c-0.1,0-0.1,0-0.2,0c0,0,0,0.1,0,0.1v0c0.1,0,0.2,0,0.3,0l0,0C58,13.3,57.9,13.2,57.9,13.2z"/><path d="M57.9,11.6c0-0.1,0.1-0.2,0.1-0.4c-0.4-0.6-0.1-1.5-0.5-2.1c0,0.2,0,0.3,0,0.5c0.1,0.6,0.2,1.3,0.3,1.9 C57.8,11.5,57.8,11.6,57.9,11.6z"/><path d="M57.7,13.2C57.7,13.2,57.7,13.2,57.7,13.2C57.7,13.2,57.7,13.2,57.7,13.2c0.1-0.2,0.1-0.4,0.1-0.7 c-0.2-0.2-0.1-0.5,0-0.7c0-0.1,0-0.2,0-0.3c0,0,0,0-0.1,0c-0.1-0.1-0.2-0.2-0.2-0.3C57.4,11.9,57.5,12.5,57.7,13.2z"/><path d="M57.7,13.2C57.7,13.2,57.7,13.2,57.7,13.2c0,0,0,0.1,0,0.1C57.7,13.3,57.7,13.2,57.7,13.2 C57.7,13.2,57.7,13.2,57.7,13.2z"/><path d="M57.4,11.2c0.1,0.1,0.1,0.2,0.2,0.3c0,0,0,0,0.1,0c-0.1-0.6-0.2-1.3-0.3-1.9C57.5,10.1,57.5,10.7,57.4,11.2 z"/><path d="M57.9,12.6c0,0.2,0,0.4,0.1,0.6c0,0,0.1,0,0.1,0c0.1-0.1,0.1-0.3,0.2-0.4C58.1,12.7,58,12.7,57.9,12.6z"/><path d="M58,13.2c0,0-0.1,0-0.1,0c0,0,0,0.1,0,0.1l0,0l0,0C58,13.3,58,13.2,58,13.2z"/><path d="M58.2,44.7L58.2,44.7c0-0.1,0-0.2,0-0.3c0,0,0,0,0,0c-0.1,0.1-0.1,0.2-0.1,0.4 C58.2,44.8,58.2,44.8,58.2,44.7z"/><path d="M58,46.8c0.3-0.6,0.2-1.2,0.2-1.7c0,0-0.1,0-0.1-0.1C58,45.6,58.2,46.2,58,46.8z"/><path d="M58.1,44.8c0,0.1,0,0.1,0,0.2c0,0,0.1,0.1,0.1,0.1c0-0.1,0-0.2,0-0.3C58.2,44.8,58.2,44.8,58.1,44.8z"/><path d="M58.1,44.8c0-0.1,0.1-0.3,0.1-0.4C58.2,44.6,58.1,44.7,58.1,44.8C58.1,44.9,58.1,44.9,58.1,44.8z"/><path d="M58.1,45C58.1,45,58.1,45,58.1,45c-0.2,0.6-0.1,1.2-0.1,1.8C58.2,46.2,58,45.6,58.1,45z"/><path d="M58.1,45c0-0.1,0-0.1,0-0.2c0,0,0,0,0,0.1C58.1,44.9,58.1,44.9,58.1,45C58.1,45,58.1,45,58.1,45z"/><path d="M57.7,21.7c0.4-0.7,0.4-1.4,0-2.1C57.9,20.3,57.9,21,57.7,21.7z"/><path d="M57.7,21.7c0.2-0.7,0.2-1.4,0-2.1l0,0C57.7,20.3,57.7,21,57.7,21.7z"/><path d="M58,41.8c0.3-0.4,0.3-0.9,0-1.3C58.2,41,58.2,41.4,58,41.8z"/><path d="M58,41.8c0.2-0.4,0.2-0.9,0-1.3l0,0C58,41,58,41.4,58,41.8z"/><path d="M44.9,1.6C44.9,1.6,44.9,1.6,44.9,1.6C44.9,1.6,45,1.6,44.9,1.6C45,1.6,44.9,1.6,44.9,1.6z"/><path d="M44.9,1.6C44.9,1.6,45,1.6,44.9,1.6c0.2,0,0.4,0,0.5,0c0-0.1-0.1-0.1-0.1-0.2c0-0.1,0-0.1,0.1-0.2l0,0v0 C45.3,1.5,45.1,1.6,44.9,1.6z"/><path d="M47,2.3c0-0.2,0-0.3,0-0.4c-0.3-0.1-0.6-0.1-1-0.2C46.3,1.8,46.6,2,47,2.3z"/><path d="M45.5,1.6c0.2,0,0.3,0,0.5,0.1c0.4,0.1,0.8,0.1,1,0.2c-0.1-0.8-1.2-0.1-1.6-0.6c0,0.1,0,0.1-0.1,0.2 C45.4,1.5,45.4,1.6,45.5,1.6z"/><path d="M44.9,1.6C44.9,1.6,44.9,1.6,44.9,1.6c-0.2,0-0.4,0-0.7,0c0,0.1-0.1,0.1-0.1,0.2 C44.4,1.7,44.6,1.7,44.9,1.6z"/><path d="M45.4,1.3L45.4,1.3L45.4,1.3c-0.4,0-0.9,0-1.2,0.3c0.2,0,0.5,0,0.7,0C45.1,1.6,45.3,1.5,45.4,1.3z"/><path d="M46.2,2.2c-0.3-0.1-0.5-0.3-0.7-0.5c-0.1,0-0.1,0-0.2,0c-0.1,0-0.2,0-0.3,0c0,0-0.1,0-0.1,0 c-0.2,0.1-0.4,0.1-0.5,0.2C44.9,2,45.6,2.1,46.2,2.2z"/><path d="M45.5,1.7C45.5,1.7,45.5,1.7,45.5,1.7c-0.2,0-0.3,0-0.5,0c0.1,0,0.2,0,0.3,0C45.3,1.7,45.4,1.7,45.5,1.7z"/><path d="M45.5,1.7c0.2,0.2,0.5,0.4,0.7,0.5c0.3,0,0.5,0.1,0.8,0.1c-0.3-0.3-0.7-0.5-1.1-0.6 C45.8,1.7,45.6,1.7,45.5,1.7z"/><path d="M45.9,1.7c-0.2,0-0.3-0.1-0.5-0.1c0,0,0,0,0,0C45.6,1.7,45.8,1.7,45.9,1.7z"/><path d="M44.9,1.6c-0.3,0-0.5,0.1-0.8,0.1c0.1,0,0.1,0,0.2,0C44.5,1.8,44.7,1.7,44.9,1.6z"/><path d="M58.6,11.7c-0.1,0-0.3,0-0.4,0c0,0.1,0,0.2,0,0.3C58.2,11.8,58.4,11.7,58.6,11.7z"/><path d="M59 11.7L59 11.7 59 11.7z"/><path d="M59 11.7L59 11.7 59 11.7z"/><path d="M59 11.7L59 11.7 59 11.7z"/><path d="M58.2,11.6c0.1,0,0.3,0,0.4,0c0,0,0,0,0,0c0,0,0-0.1,0-0.1c0.2-0.2,0.3-0.4,0.5-0.6c0-0.1-0.1-0.3-0.2-0.4 c-0.2,0.3-0.6,0.5-0.9,0.6C58.1,11.3,58.2,11.5,58.2,11.6z"/><path d="M58.6,11.7c0.1,0,0.2,0,0.4,0.1c0,0,0,0,0,0l0,0c0-0.2,0.1-0.5,0.1-0.8C58.9,11.2,58.8,11.4,58.6,11.7 C58.6,11.6,58.6,11.6,58.6,11.7z"/><path d="M58.1,11.9c-0.1,0.3-0.2,0.6,0.1,0.9c0.1-0.2,0.2-0.4,0.3-0.6c0-0.2,0-0.4,0.1-0.6c0,0,0,0,0,0 C58.4,11.7,58.2,11.8,58.1,11.9z"/><path d="M59,11.7c-0.1,0-0.1,0-0.2,0c-0.1,0-0.2,0-0.2-0.1c-0.1,0.2-0.1,0.4-0.1,0.6C58.6,12,58.8,11.9,59,11.7 L59,11.7C59,11.7,59,11.7,59,11.7z"/><path d="M58.6,11.7C58.6,11.7,58.6,11.7,58.6,11.7C58.6,11.7,58.6,11.7,58.6,11.7C58.6,11.7,58.6,11.7,58.6,11.7z"/><path d="M58.8,11.7c0.1,0,0.1,0,0.2,0c-0.2-0.1-0.3-0.1-0.4-0.1c0,0,0,0,0,0C58.7,11.7,58.8,11.7,58.8,11.7z"/><path d="M57.8,12.5C57.8,12.6,57.8,12.6,57.8,12.5C57.9,12.6,57.9,12.6,57.8,12.5c0.1-0.2,0.2-0.5,0.3-0.6 c0-0.1,0-0.2,0-0.3c-0.1,0-0.2,0-0.3-0.1c0,0.1-0.1,0.1-0.1,0.2C57.8,12,57.8,12.3,57.8,12.5z"/><path d="M58.2,11.6c0-0.2,0-0.3-0.2-0.4c0,0.1-0.1,0.2-0.1,0.4C58,11.6,58.1,11.6,58.2,11.6z"/><path d="M57.8,11.8c-0.1,0.3-0.2,0.5,0,0.7C57.8,12.3,57.8,12,57.8,11.8z"/><path d="M58.1,11.9c-0.1,0.2-0.2,0.4-0.3,0.7c0,0,0,0,0,0c0.1,0.1,0.2,0.1,0.4,0.2C57.9,12.5,58.1,12.2,58.1,11.9z"/><path d="M56.7,8.9c-1-0.5-2.1-0.2-3.1-0.2l0,0C54.5,9,55.6,8.5,56.7,8.9z"/><path d="M56.7,8.9c-1-0.3-2.1,0.1-3.1-0.2C54.5,9,55.6,8.8,56.7,8.9z"/><path d="M58,50.2L58,50.2c0.4-0.9,0.4-1.7,0-2.6C58.2,48.5,58.2,49.3,58,50.2z"/><path d="M58,50.2c0.2-0.9,0.2-1.7,0-2.6l0,0C58,48.5,58,49.3,58,50.2z"/></g></svg>