<svg id="Слой_1" xmlns="http://www.w3.org/2000/svg" viewBox="0 0 2.9 27.6"><g fill="#FFF"><path d="M1.5,0C1.5,0,1.5,0,1.5,0C1.2,0.2,0.9,0.3,0.8,0.6C2,0.7,2.2,0.9,2.2,2.3c0,2.1-0.1,4.2-0.1,6.3 C2,12,1.9,15.5,1.8,19c0,0.3,0.3,0.9-0.3,0.9c-0.4,0-0.3-0.6-0.3-0.9c0.4-3.6,0.1-7.1,0.2-10.7C1.5,6.5,1.3,4.7,1.2,3 c0-0.6-0.3-1-0.8-1.3C0.3,2,0.3,2.4,0.4,2.7c0,0,0,0,0,0.1c0,0.1,0.1,0.2,0.1,0.3c0.3,1.7-0.1,3.4,0.3,5.1c0.2,2.8,0.5,5.5,0.3,8.3 c-0.2,2.3-0.3,4.7-0.5,7c-0.1,1.2-0.2,1.9-0.6,2.3c0,0.3,0,0.6,0,0.8c0,0.3,0.1,0.7,0.4,0.9c0,0,0,0,0.1,0c0.1,0,0.1,0,0.2,0 c1.2-0.2,1.6-0.8,1.6-2.4c0.2-4.9,0.4-9.9,0.4-14.8c0-3,0.1-6,0.2-9C2.9,0.4,2.5,0,1.5,0z"/><path d="M2.2,2.3c0-1.5-0.2-1.6-1.4-1.7C0.7,0.7,0.6,0.9,0.6,1C0.5,1.2,0.5,1.5,0.4,1.7C0.9,1.9,1.1,2.4,1.2,3 c0.1,1.8,0.3,3.6,0.2,5.3C1.3,11.8,1.6,15.4,1.2,19c0,0.3-0.2,0.9,0.3,0.9c0.6,0,0.3-0.6,0.3-0.9C1.9,15.5,2,12,2.1,8.6 C2.1,6.5,2.2,4.4,2.2,2.3z"/><path d="M0,25.8c0.4-0.4,0.5-1.1,0.6-2.3c0.1-2.3,0.3-4.7,0.5-7c0.2-2.8-0.1-5.5-0.3-8.3C0.9,12,1.2,16,0.7,19.8 c-0.2,1.6-0.1,3.2-0.3,4.8c-0.1,0.3-0.1,0.6-0.3,0.8C0,25.5,0,25.6,0,25.8z"/><path d="M0.1,24.9c0,0.2,0,0.3,0,0.5c0.1-0.2,0.2-0.5,0.3-0.8c0.2-1.6,0.1-3.2,0.3-4.8C1.2,16,0.9,12,0.8,8.1 c-0.3,1-0.3,2-0.2,3c0.5,4.4-0.3,8.8-0.4,13.2C0.2,24.6,0.1,24.8,0.1,24.9z"/></g></svg>