<svg id="Слой_1" xmlns="http://www.w3.org/2000/svg" viewBox="0 0 43.5 3.4"><g fill="#FFF"><path d="M2.4,1.6C4.3,1.7,6.2,1.1,8,1.2c2.1,0,4.2,0,6.3-0.2c3.7-0.2,7.5,0,11.2-0.3c3.2-0.2,6.3-0.1,9.5,0 c2,0,4-0.1,6,0.1c1.6,0.1,1.8,0.2,1.8,1.7c0.1,0,0.2-0.1,0.3-0.2c0.2-0.2,0.3-0.5,0.4-0.8c0-1-0.4-1.3-1.4-1.3 c-2,0-4.1-0.1-6.1-0.2C31.7,0,27.3,0,22.9,0.1c-3.8,0.1-7.6,0.2-11.5,0.3c-1.4,0-2.9,0.1-4.3,0.2C5.2,0.8,3.3,1.3,1.3,0.8 C0.6,0.7,0.2,1,0.1,1.9C0,2.2,0,2.4,0,2.7C0.1,3,0.3,3.2,0.6,3.3C0.4,1.9,0.9,1.5,2.4,1.6z"/><path d="M40.6,2.4c0.3,0,0.7,0.1,1,0.1C41.4,2,41,1.7,40.3,1.8C36.9,2,33.5,1.5,29.6,1.5C24.6,1.9,19,1.6,13.4,2 C10,2.1,6.6,2.4,3.2,2.6C2.3,2.7,1.8,2.9,1.5,3.4c0.3,0,0.5,0,0.8-0.1c0.1-0.1,0.3-0.1,0.5-0.1c8.2-0.6,16.5-1,24.7-1 c4.2,0,8.4,0.1,12.6,0.1C40.3,2.3,40.5,2.3,40.6,2.4z"/><path d="M41.7,2.6c0.4,0.1,0.8,0.1,1.2-0.1c0-1.5-0.3-1.6-1.8-1.7c-2-0.2-4-0.1-6-0.1c-3.2,0-6.3-0.2-9.5,0 C21.8,1,18.1,0.8,14.3,1C12.2,1.1,10.1,1.2,8,1.2c-1.8,0-3.7,0.5-5.6,0.4C0.9,1.5,0.4,1.9,0.6,3.3c0.3,0.1,0.6,0.1,0.9,0.1 c0.3-0.5,0.8-0.7,1.7-0.8C6.6,2.4,10,2.1,13.4,2C19,1.6,24.6,1.9,29.6,1.5c3.9,0,7.3,0.5,10.7,0.3C41,1.7,41.4,2,41.7,2.6z"/></g></svg>