<svg id="Слой_1" xmlns="http://www.w3.org/2000/svg" viewBox="0 0 42.4 33"><path fill="#FFF" d="M0.5,14.6C0.5,14.6,0.5,14.6,0.5,14.6C0.5,14.6,0.5,14.6,0.5,14.6C0.5,14.6,0.5,14.6,0.5,14.6z"/><path fill="#FFF" d="M12.3,7.1c0,0-0.1-0.1-0.1-0.1C12.2,7,12.2,7,12.3,7.1C12.3,7.1,12.3,7.1,12.3,7.1z"/><path fill="#FFF" d="M13.4,31.8c-3.3-0.9-5.5-4.2-5.1-7.6c0.1-1.3-0.5-1.7-1.5-2c-3.1-0.7-5.1-2.6-6.3-5.5v0l0,0 c-0.1-0.2-0.2-0.4-0.3-0.6c-0.3,1.5,0.8,2.5,1.6,3.5C3,21.4,4.9,22.2,7,22.7c0.4,0.1,1,0,0.9,0.9c-0.7,3.9,2.1,7.6,5.8,8.7 c3,0.9,6,0.6,9-0.1c2.1-0.5,4-1.4,5.5-3c0-0.1,0-0.2,0-0.4C23.8,32.6,18.8,33.3,13.4,31.8z"/><path fill="#FFF" d="M18.1,1C18,1,18,1,18.1,1c-0.2,0.2-0.4,0.3-0.7,0.4c-1,0.3-2,0.7-2.8,1.6c0,0.1,0,0.2,0,0.3 c0.8-0.6,1.6-1.2,2.6-1.5c0.7-0.2,1.2-0.6,1.4-1.1C18.4,0.8,18.2,0.9,18.1,1z"/><path fill="#FFF" d="M33,32.3c-0.4,0.2-1,0.2-1.3-0.2c-0.3-0.4-0.1-0.8,0.1-1.1c0.9-1.3,0.7-2.7,0.3-4.1c-0.2-0.5-0.2-1.2-1-1.4 c-0.8-0.2-0.8,0.6-1.3,0.9c-0.2,0.4-0.4,0.9-0.5,1.3c0.1,0,0.2,0,0.3,0c0.3-0.3,0.5-0.7,0.8-1c0.2-0.2,0.3-0.8,0.7-0.7 c0.2,0.1,0.5,0.5,0.6,0.8c0.4,1.4,0.6,2.9-0.3,4.2c-0.5,0.7-0.5,1.7,0.5,1.8c0.9,0.1,2.2,0.3,2.5-1.2c0-0.1,0-0.2,0-0.3 C33.8,31.7,33.5,32.1,33,32.3z"/><path fill="#FFF" d="M36.9,23.4c0.2,3-0.7,5.7-2.7,7.9c0,0,0,0,0,0c0.1,0.1,0,0.2,0,0.4c1.7-1.1,2.2-3,2.8-4.7 c0.8-2.5,0.1-4.9-0.4-7.3c0,0-0.1-0.1-0.1-0.1C36.2,20.9,36.9,22.1,36.9,23.4z"/><path fill="#FFF" d="M34.3,31.3C34.3,31.3,34.3,31.3,34.3,31.3C34.3,31.3,34.2,31.4,34.3,31.3L34.3,31.3c-0.1,0.1-0.1,0.2,0,0.4 C34.3,31.6,34.3,31.5,34.3,31.3z"/><path fill="#FFF" d="M39.1,18.7c0.2,0,0.4,0,0.6-0.1c-0.6-0.4-1-0.1-2.3,0.5c-0.3,0.1-0.6,0.4-0.8,0.5c0,0,0.1,0.1,0.1,0.1 c0.5-0.2,1.1-0.3,1.5-0.6c0.2-0.2,0.5-0.2,0.6-0.3C38.9,18.7,39,18.7,39.1,18.7z"/><path fill="#FFF" d="M36.5,19.6L36.5,19.6c0,0,0.1,0.1,0.1,0.1C36.6,19.6,36.6,19.6,36.5,19.6C36.5,19.6,36.5,19.6,36.5,19.6z"/><path fill="#FFF" d="M0.3,14.1c0-0.1,0.1-0.2,0.1-0.3C0.4,13.9,0.3,14,0.3,14.1z"/><path fill="#FFF" d="M4.6,7.5c0,0,0.1,0,0.1-0.1C4.7,7.5,4.6,7.5,4.6,7.5z"/><path fill="#FFF" d="M0.5,14.6c0.4-1,0.8-1.9,1.1-2.9C2.2,9.9,3.3,8.6,5,7.6c-0.1,0-0.2,0-0.3-0.1C3.5,8,2.6,8.7,2.1,9.8 c-0.6,1.3-1.1,2.6-1.6,3.9C0.4,14,0.5,14.3,0.5,14.6C0.5,14.6,0.5,14.6,0.5,14.6z"/><path fill="#FFF" d="M5,7.5C5,7.5,5,7.6,5,7.5c0.7-0.2,1.3-0.4,1.9-0.8c1-0.6,2-0.6,3.1-0.1c0.7,0.3,1.5,0.8,2.3,0.4 c0,0,0-0.1-0.1-0.1c-0.7,0-1.3-0.3-1.8-0.6C9.2,5.8,8,5.6,6.7,6.3c-0.7,0.4-1.3,0.8-2,1.2C4.8,7.4,4.9,7.5,5,7.5z"/><path fill="#FFF" d="M5,7.6C5,7.6,5,7.6,5,7.6C5,7.6,5,7.5,5,7.6C4.9,7.5,4.8,7.4,4.7,7.5c0,0-0.1,0-0.1,0.1 C4.7,7.6,4.8,7.6,5,7.6L5,7.6z"/><path fill="#FFF" d="M12.3,7.1c0.5-0.4,0.4-1,0.5-1.5c0.3-1,0.7-1.8,1.7-2.2c-0.1-0.1-0.1-0.2,0-0.4c-2,0.6-2.1,2.3-2.4,4 C12.2,7,12.2,7,12.3,7.1L12.3,7.1z"/><path fill="#FFF" d="M14.5,3.4C14.6,3.4,14.6,3.4,14.5,3.4L14.5,3.4c0-0.1,0-0.2,0-0.4C14.5,3.1,14.5,3.3,14.5,3.4z"/><path fill="#FFF" d="M29.2,27.8c-0.3,0.4-0.6,0.8-1,1.2c0,0,0,0,0,0c0.1,0.1,0,0.3,0,0.4c0.6-0.4,1.1-0.9,1.3-1.6 C29.4,27.8,29.3,27.8,29.2,27.8z"/><path fill="#FFF" d="M28.3,29C28.3,29,28.3,29,28.3,29C28.2,29,28.2,29,28.3,29L28.3,29c-0.1,0.1,0,0.3,0,0.4 C28.3,29.2,28.3,29.1,28.3,29z"/><path fill="#FFF" d="M29.2,27.7C29.2,27.7,29.2,27.7,29.2,27.7c0.1,0.1,0.2,0.1,0.3,0C29.5,27.7,29.4,27.7,29.2,27.7L29.2,27.7z"/><path fill="#FFF" d="M0.4,15.1L0.4,15.1c0-0.2,0-0.3,0-0.5l0,0c0,0,0,0,0,0c0,0-0.1,0-0.1,0c0-0.2,0-0.3,0-0.5 c-0.2,0.6-0.5,1.2-0.2,1.9C0.2,15.7,0.3,15.4,0.4,15.1L0.4,15.1z"/><path fill="#FFF" d="M0.4,14.6c0,0,0.1,0,0.1,0c0-0.3,0-0.6,0-0.8c0,0.1-0.1,0.2-0.1,0.3C0.3,14.3,0.3,14.4,0.4,14.6z"/><path fill="#FFF" d="M0.4,15.9C0.4,15.9,0.3,16,0.2,16l0,0.1c0.1,0,0.2,0,0.3,0.1C0.4,16.1,0.4,16,0.4,15.9z"/><path fill="#FFF" d="M0.4,16.7c0-0.2,0-0.4,0-0.5c-0.1,0-0.2-0.1-0.3-0.1C0.3,16.3,0.3,16.5,0.4,16.7L0.4,16.7z"/><path fill="#FFF" d="M0.4,15.1L0.4,15.1c-0.1,0.3-0.2,0.6-0.3,0.9c0.1,0,0.2-0.1,0.3-0.2C0.4,15.6,0.4,15.4,0.4,15.1z"/><path fill="#FFF" d="M39.5,7.8c-1-0.4-1.9-0.7-2.9-1.1l0,0l0,0c-1,0-2.1,0-3.1,0c-0.3,0.1-0.7,0.2-1,0.3h0 c-0.4,0.3-0.9,0.3-1.3,0c-0.6-1.1-1.2-2.2-2.1-3.1l0,0c-2.1-1.7-4.7-2.3-7.3-2.6c-0.8-0.1-1.3-0.5-1.5-1.1 c-0.3,0.1-0.6,0.2-0.9,0.3c-0.1,1-0.6,1.5-1.8,1.9c-1,0.4-1.8,1.3-2.9,1c0,0,0,0,0,0c-0.4,1.1-1.2,2-1.4,3.2c0,0.4-0.5,0.6-0.9,0.5 l0,0c0,0,0,0,0,0c0,0,0,0,0,0.1c-0.2,0.7-0.6,0.8-1.2,0.6c-0.5-0.1-1-0.3-1.5-0.5C8.7,6.9,7.8,6.9,6.9,7.5C6.4,7.9,5.7,8.2,5,7.6 C5.1,8,5,8.2,4.7,8.4C3,9.8,2.3,11.7,1.6,13.7c-0.2,0.5-0.3,1.2-1.1,0.9c0,0,0,0,0,0v0c0.2,0.1,0.3,0.3,0.3,0.6c0,0.1,0,0.2,0,0.2 c0.2,0.3,0.2,0.6,0.1,0.9c0,0,0.1,0.1,0.1,0.1c1.4,2.6,3.3,4.7,6.4,5.3c1.2,0.3,1.8,1,1.6,2.3c-0.4,4,2.7,7.4,7.5,7.8 c3.9,0.3,7.4-0.5,10.7-2.7c0.3-0.2,0.7-0.5,1.1-0.2c-0.2-0.8,0.2-1.2,1-1.2c-0.5-0.5,0-1,0.2-1.4c0.1-0.1,0.1-0.2,0.2-0.2 c-0.1-0.1-0.2-0.3-0.3-0.4h0c-0.7,0.3-0.7,1-1.1,1.6c-2.6,2.5-5.7,4.2-9.5,4.2c-1.6,0-3.3-0.4-4.8-1.1c-0.6-0.3-1.1-0.7-1.4-1.3 l0,0c-1.7-2-2.3-4.2-1.6-6.8c0.1-0.3,0.1-0.6,0.2-0.9c0.3-0.5,0.4-0.9-0.1-1.3c-0.5-0.4-0.9-0.4-1.5-0.2c-1.3,0.5-2.6,1-4,0.3 C5.3,20.1,5,20,4.8,19.7c-1.2-1.7-2.7-5.3-1.3-7.8c0.4-0.7,1-1.1,1.4-1.7c1.1-2.1,4.5-2.9,6.4-1.6c1.6,1.1,2,0.9,2.5-0.9 c0.3-1.2,1-2.2,2.2-2.8c0.1-0.1,0.1-0.2,0.2-0.3c1.5-1.8,5.1-2.4,7.9-1.4l0,0c1.4,0.4,2.7,1,3.9,1.9c0.7,0.4,1.3,1.1,1.6,1.8 c0.3,0.6,0.4,1.2-0.3,1.6C29.7,9.8,30.1,9.9,31,9c0.6-0.5,1.1-1.1,1.9-1.2l0,0c1-0.5,2.1-0.2,3.1-0.2c1.1,0.2,1.9,0.8,2.6,1.6 C38.7,8.5,39.2,8.2,39.5,7.8L39.5,7.8L39.5,7.8z"/><path fill="#FFF" d="M29.2 8.6L29.2 8.6 29.2 8.6z"/><path fill="#FFF" d="M23.6,29.8c-0.1,0-0.2,0.1-0.4,0.1C23.3,29.9,23.4,29.9,23.6,29.8z"/><path fill="#FFF" d="M28.2,28.9c-0.4-0.3-0.7,0-1.1,0.2c-3.2,2.2-6.7,3-10.7,2.7c-4.8-0.4-7.9-3.7-7.5-7.8 c0.1-1.2-0.4-2-1.6-2.3c-3.1-0.7-5-2.7-6.4-5.3c0,0-0.1-0.1-0.1-0.1c-0.1,0.1-0.2,0.2-0.3,0.4v0c1.2,2.9,3.2,4.8,6.3,5.5 c1,0.2,1.7,0.7,1.5,2c-0.3,3.4,1.8,6.7,5.1,7.6C18.8,33.3,23.8,32.6,28.2,28.9L28.2,28.9C28.2,29,28.2,29,28.2,28.9z"/><path fill="#FFF" d="M18.6,0.8c-0.2,0.5-0.7,0.9-1.4,1.1c-1,0.3-1.8,0.9-2.6,1.5c0,0,0,0,0,0.1c0,0,0,0,0,0c1.2,0.3,2-0.7,2.9-1 c1.2-0.4,1.7-1,1.8-1.9C19.1,0.6,18.8,0.7,18.6,0.8z"/><path fill="#FFF" d="M29.4,26.3c-0.2,0.5-0.7,0.9-0.2,1.4c0,0,0.1,0,0.1,0l0,0c0.2-0.4,0.4-0.9,0.5-1.3 c-0.1-0.1-0.2-0.2-0.3-0.4C29.5,26.1,29.4,26.2,29.4,26.3z"/><path fill="#FFF" d="M1.6,13.7c0.7-2,1.4-3.9,3.2-5.2C5,8.2,5.1,8,5,7.6c0,0,0,0-0.1-0.1l0,0c-1.6,1-2.7,2.3-3.3,4.2 c-0.3,1-0.7,1.9-1.1,2.9C1.3,14.9,1.4,14.1,1.6,13.7z"/><path fill="#FFF" d="M6.9,7.5c0.9-0.6,1.8-0.6,2.7-0.3c0.5,0.2,1,0.4,1.5,0.5c0.6,0.2,1,0.1,1.2-0.6c0,0,0,0,0-0.1 C11.4,7.5,10.7,7,9.9,6.6C8.9,6.1,7.8,6.1,6.8,6.7C6.2,7.1,5.6,7.3,5,7.6c0,0,0,0,0,0.1C5.7,8.2,6.4,7.9,6.9,7.5z"/><path fill="#FFF" d="M5,7.6C5,7.6,5,7.6,5,7.6C5,7.6,5,7.6,5,7.6L5,7.6L5,7.6C5,7.6,5,7.6,5,7.6z"/><path fill="#FFF" d="M13.2,6.6c0.1-1.2,1-2.1,1.4-3.2c0,0,0,0,0,0c-1,0.4-1.5,1.2-1.7,2.2c-0.1,0.5-0.1,1.1-0.5,1.5l0,0l0,0 C12.7,7.2,13.1,7,13.2,6.6z"/><path fill="#FFF" d="M14.6,3.4C14.6,3.4,14.6,3.4,14.6,3.4C14.6,3.4,14.6,3.4,14.6,3.4C14.6,3.4,14.6,3.4,14.6,3.4z"/><path fill="#FFF" d="M29.1,27.7c-0.8,0-1.1,0.4-1,1.2c0,0,0,0,0.1,0C28.6,28.6,28.9,28.2,29.1,27.7 C29.2,27.7,29.2,27.7,29.1,27.7C29.2,27.7,29.2,27.7,29.1,27.7z"/><path fill="#FFF" d="M28.2,29L28.2,29L28.2,29C28.2,29,28.2,29,28.2,29C28.2,28.9,28.2,28.9,28.2,29C28.2,29,28.2,29,28.2,29z"/><path fill="#FFF" d="M29.1,27.7C29.2,27.7,29.2,27.7,29.1,27.7C29.2,27.7,29.2,27.7,29.1,27.7c0.1,0,0.1,0,0.1,0l0,0l0,0 C29.2,27.7,29.2,27.7,29.1,27.7z"/><path fill="#FFF" d="M0.7,15.4c0-0.1,0-0.2,0-0.2c0-0.2-0.1-0.4-0.3-0.6l0,0l0,0c0,0.2,0,0.3,0,0.5v0 C0.6,15.2,0.6,15.3,0.7,15.4z"/><path fill="#FFF" d="M0.7,15.4c0,0.2-0.1,0.3-0.3,0.4c0,0.1,0,0.2,0,0.3c0.1,0,0.2,0.1,0.3,0.2C0.9,16,0.9,15.7,0.7,15.4z"/><path fill="#FFF" d="M0.4,16.2c0,0.2,0,0.4,0,0.5c0.1-0.1,0.2-0.2,0.3-0.4C0.7,16.3,0.6,16.2,0.4,16.2z"/><path fill="#FFF" d="M0.7,15.4c-0.1-0.1-0.2-0.2-0.3-0.3c0,0.2,0,0.5,0,0.7C0.6,15.7,0.7,15.6,0.7,15.4z"/><path fill="#FFF" d="M40.3,18.2c0.2-0.2,0.4-0.3,0.6-0.5c0-0.5,0-1,0.2-1.4c0.7-1.6,1.2-3.3,0.7-5.1c-0.2-0.6,0-1,0.4-1.2 c-0.1-0.8-0.5-1.6-1-2.2c0,0,0,0-0.1,0l0,0l0,0c-0.4,0-0.9,0-1.3,0c0,0-0.1,0-0.1,0c0.2,0.7-0.3,1.1-0.8,1.5c-0.1,0-0.1,0-0.2,0 c0.2,0.8,0.3,1.6,0.5,2.4c0,0,0,0.1,0.1,0.1c0.2,0.4,0.2,0.8,0.2,1.2c0,0.1,0,0.2,0,0.3c0,0.4,0,0.7,0,1.1c-0.1,0.8-0.6,1.3-1,1.8 l0,0c-0.7,1-1.8,1.4-3,1.7c-1.1,0.2-1.4,0.8-1,1.8c0.2,0.6,0.4,1.1,0.7,1.7c1,2.1,0.6,4.2-0.2,6.3c-0.2,0.5-0.5,0.9-1.1,0.7 c-0.1,0-0.1,0-0.2-0.1c-0.6-1.7-1.1-3.4-2.8-4.5c-0.5-0.3-1-0.6-1.4,0c0,0.4,0,0.8-0.2,1.2c0,0,0,0.1-0.1,0.1c0,0.1,0,0.2,0,0.3 c0,0,0,0,0,0c0.2,0.1,0.3,0.2,0.4,0.3c0.1-0.2,0.2-0.4,0.3-0.5c0.5-0.5,1.6-0.4,2,0.3c0.8,1.5,1.3,3.1,0.8,4.8 c-0.3,1-0.1,1.2,0.9,0.9c0.2-0.1,0.3,0,0.5,0.1c-0.1-0.5,0.1-0.9,0.3-1.2c1.8-2.8,2.3-5.8,1.4-9c-0.2-0.6-0.3-1.1,0.4-1.5 c0.1,0,0.2,0,0.2,0c-0.1-1.4,1.3-1.3,2-1.7C39.1,17.6,39.8,17.6,40.3,18.2z"/><path fill="#FFF" d="M39.5,13c0-0.1-0.1-0.1-0.1-0.2C39.4,12.9,39.4,13,39.5,13z"/><path fill="#FFF" d="M34.2,31.3c-0.1-0.1-0.3-0.2-0.5-0.1c-0.9,0.3-1.2,0.1-0.9-0.9c0.5-1.7,0-3.3-0.8-4.8 c-0.4-0.7-1.4-0.9-2-0.3c-0.1,0.1-0.2,0.3-0.3,0.5c0.1,0.2,0.2,0.4,0.1,0.7c0.5-0.3,0.5-1.1,1.3-0.9c0.8,0.2,0.8,0.9,1,1.4 c0.4,1.4,0.6,2.8-0.3,4.1c-0.2,0.3-0.4,0.7-0.1,1.1c0.4,0.4,0.9,0.4,1.3,0.2c0.5-0.2,0.8-0.6,1.2-0.9v0 C34.2,31.3,34.2,31.3,34.2,31.3z"/><path fill="#FFF" d="M36.5,19.6c-0.1,0-0.1,0-0.2,0c-0.7,0.4-0.5,0.9-0.4,1.5c0.9,3.2,0.4,6.2-1.4,9c-0.2,0.4-0.4,0.8-0.3,1.2 c0,0,0,0,0.1,0.1c2-2.3,2.9-4.9,2.7-7.9C36.9,22.1,36.2,20.9,36.5,19.6L36.5,19.6C36.5,19.6,36.5,19.6,36.5,19.6z"/><path fill="#FFF" d="M34.2,31.4L34.2,31.4L34.2,31.4C34.2,31.4,34.3,31.3,34.2,31.4c0-0.1,0-0.1,0-0.1 C34.2,31.3,34.2,31.3,34.2,31.4z"/><path fill="#FFF" d="M39.7,18.6c0.2-0.1,0.4-0.2,0.6-0.4c-0.4-0.6-1.1-0.6-1.7-0.4c-0.8,0.4-2.1,0.3-2,1.7c0,0,0,0,0,0 c0.3-0.2,0.5-0.4,0.8-0.5C38.7,18.4,39.1,18.1,39.7,18.6z"/><path fill="#FFF" d="M36.5,19.6L36.5,19.6L36.5,19.6C36.5,19.6,36.5,19.6,36.5,19.6C36.5,19.6,36.5,19.6,36.5,19.6 C36.5,19.6,36.5,19.6,36.5,19.6z"/><path fill="#FFF" d="M38.7,9.3c0.1,0,0.1,0,0.2,0c0.5-0.4,1-0.8,0.8-1.5c-0.1,0-0.1,0-0.2,0l0,0c-0.3,0.4-0.8,0.7-0.8,1.3l0,0 C38.7,9.2,38.7,9.2,38.7,9.3z"/><path fill="#FFF" d="M29.3,25.3C29.3,25.3,29.3,25.3,29.3,25.3c0,0.1,0,0.2,0,0.3l0,0l0,0c0.1,0.1,0.2,0.3,0.3,0.4 c0.1-0.1,0.1-0.2,0.2-0.4C29.6,25.5,29.5,25.4,29.3,25.3z"/><path fill="#FFF" d="M29.7,25.7c-0.1,0.1-0.1,0.2-0.2,0.4c0.1,0.1,0.2,0.2,0.3,0.4C29.9,26.1,29.8,25.9,29.7,25.7z"/><path fill="#FFF" d="M27.6,1.7c-1.4-0.6-2.9-1.1-4.4-1.3c-0.5-0.1-0.9-0.2-1.2-0.3c-0.3,0-0.6,0-0.9,0c0,0,0.1,0.1,0.1,0.1 c0.5,0.5,1.2,0.8,1.9,0.9C25.3,1.4,27.3,2,29,3.4c0,0,0.1,0.1,0.1,0.1c0,0,0.1,0,0.1-0.1C29.2,2.5,28.4,2,27.6,1.7z"/><path fill="#FFF" d="M29,3.4c-1.7-1.4-3.7-2-5.8-2.4c-0.7-0.1-1.4-0.4-1.9-0.9c-0.2,0-0.4,0-0.6,0c0,0,0,0,0,0 c-0.1,0-0.2,0-0.4,0c0,0-0.1,0-0.1,0c0.2,0.6,0.7,1,1.5,1.1c2.6,0.3,5.2,0.9,7.3,2.6l0,0c0-0.1,0-0.2,0-0.3c0,0,0.1-0.1,0.1-0.1 C29.1,3.5,29,3.4,29,3.4z"/><path fill="#FFF" d="M35.3,23.9C35.3,23.9,35.3,23.9,35.3,23.9C35.3,23.9,35.3,23.9,35.3,23.9z"/><path fill="#FFF" d="M39.6,6.4c-0.2-0.1-0.5-0.1-0.7-0.2c-1.6-0.4-3.2-0.9-4.9-0.6c-1.6,0.2-2.7-0.2-3.5-1.6 c-0.3-0.5-0.7-0.9-1.3-0.6c0,0,0,0,0,0.1c0,0,0,0,0,0.1c0.9,0.8,1.4,1.9,2.4,2.6c0.2,0.1,0.5,0.3,0.7,0.3c0.4,0,0.7-0.1,1.1-0.1 c1.1,0,2.2,0,3.3,0c1,0.2,2,0.6,2.8,1.3c0.1-0.1,0.1-0.1,0.2-0.2c0.3-0.1,0.7-0.1,1-0.1C40.4,7.1,40,6.7,39.6,6.4z"/><path fill="#FFF" d="M36.7,6.4c-1.1,0-2.2,0-3.3,0c-0.4,0-0.7,0-1.1,0.1c-0.3,0-0.5-0.1-0.7-0.3c-1-0.6-1.5-1.8-2.4-2.6 c0,0.1-0.1,0.2-0.2,0.3c0.9,0.9,1.5,2,2.1,3.1c0.4,0,0.9,0,1.3,0l0,0l0,0c0.3-0.1,0.7-0.2,1-0.3c1-0.4,2.1-0.4,3.1,0l0,0 c1,0.4,1.9,0.7,2.9,1.1h0c0-0.1,0.1-0.1,0.1-0.1C38.7,7,37.8,6.6,36.7,6.4z"/><path fill="#FFF" d="M39.6,7.7C39.6,7.7,39.6,7.7,39.6,7.7c-0.1,0-0.1,0-0.2,0.1C39.5,7.8,39.6,7.8,39.6,7.7 C39.6,7.8,39.6,7.7,39.6,7.7z"/><path fill="#FFF" d="M29.2,3.5c0,0-0.1,0-0.1,0.1c0,0,0.1,0,0.1,0.1C29.2,3.6,29.2,3.5,29.2,3.5C29.2,3.5,29.2,3.5,29.2,3.5z"/><path fill="#FFF" d="M29.2,3.6C29.2,3.5,29.2,3.5,29.2,3.6c-0.1,0-0.2,0-0.2,0c0,0.1,0,0.2,0,0.3v0C29.1,3.8,29.2,3.7,29.2,3.6z"/><path fill="#FFF" d="M27.6,27.4c-1.2,1-2.3,2.2-4,2.4c0,0,0,0-0.1,0c-0.1,0-0.2,0.1-0.4,0.1c-0.4,0.2-0.7,0.6-1.2,0.8 c-2.9,0.8-5.6,0.3-8.3-0.9c-0.4-0.2-0.7-0.4-0.9-0.7c0,0-0.1-0.1-0.1-0.1c-0.1,0-0.1,0-0.2,0c0.3,0.6,0.8,1,1.4,1.3 c1.5,0.7,3.1,1.1,4.8,1.1c3.8,0,6.8-1.6,9.5-4.2c-0.1,0-0.3,0-0.4,0C27.7,27.2,27.7,27.3,27.6,27.4z"/><path fill="#FFF" d="M21.6,30.5c-1,0.3-2,0.4-3,0.4C19.8,31,20.8,30.9,21.6,30.5z"/><path fill="#FFF" d="M27.6,27.2L27.6,27.2c-1.1,1.3-2.6,2-4.1,2.6c0,0,0,0,0.1,0c1.7-0.2,2.8-1.4,4-2.4c0.1-0.1,0.1-0.1,0.2-0.2 C27.7,27.2,27.7,27.2,27.6,27.2L27.6,27.2z"/><path fill="#FFF" d="M21.6,30.5c-0.8,0.4-1.9,0.5-3,0.4c-2,0-3.9-0.7-5.7-1.9c-0.1,0-0.2,0-0.3,0c0,0,0.1,0.1,0.1,0.1 c0.2,0.3,0.5,0.6,0.9,0.7c2.7,1.2,5.4,1.7,8.3,0.9c0.5-0.1,0.8-0.5,1.2-0.8c-0.2,0.1-0.5,0.2-0.7,0.3 C22.2,30.3,21.9,30.4,21.6,30.5z"/><path fill="#FFF" d="M38.4,9.5c0-0.1,0.1-0.1,0.1-0.2c-0.1,0-0.1,0-0.2,0C38.4,9.3,38.4,9.4,38.4,9.5 C38.4,9.5,38.4,9.5,38.4,9.5z"/><path fill="#FFF" d="M29.2,8.6L29.2,8.6c-0.2,0.5-0.1,0.9,0.4,1.2c0.5,0.3,0.9,0.1,1.3-0.3c0.9-1.1,2.1-1.5,3.3-1.6 c-0.4,0-0.8,0-1.2,0l0,0l0,0C32.1,8,31.6,8.5,31,9C30.1,9.9,29.7,9.8,29.2,8.6C29.2,8.6,29.2,8.6,29.2,8.6L29.2,8.6z"/><path fill="#FFF" d="M36.4,7.9c1,0.1,1.7,0.7,2,1.4c0.1,0,0.1,0,0.2,0c0-0.1,0.1-0.1,0.1-0.2l0,0c-0.7-0.8-1.6-1.4-2.6-1.6 c-0.3,0.1-0.7,0.2-1,0.2C35.5,7.8,35.9,7.8,36.4,7.9z"/><path fill="#FFF" d="M38.4,9.5c0.5,1.6,0.9,3.2,0.8,4.9c-0.1,0.8-0.7,1.1-1,1.8c0.1,0,0.1,0,0.2,0l0,0l0,0 c0.4-0.6,0.9-1.1,1-1.8c-0.2-0.3-0.2-0.6-0.1-0.9c0-0.1,0-0.1,0.1-0.2c0-0.1,0-0.2,0-0.3c-0.1-0.1-0.1-0.1-0.1-0.2 c-0.1-0.3-0.1-0.7-0.1-1.1c0,0,0,0.1,0.1,0.1c0,0,0-0.1-0.1-0.1c-0.2-0.8-0.3-1.6-0.5-2.4c-0.1,0-0.1,0-0.2,0 C38.5,9.4,38.5,9.4,38.4,9.5z"/><path fill="#FFF" d="M38.6,9.3c0.1,0,0.1,0,0.2,0c0-0.1,0-0.1,0-0.2l0,0l0,0C38.6,9.2,38.6,9.2,38.6,9.3z"/><path fill="#FFF" d="M38.2,9.4c0,0.1,0.1,0.2,0.1,0.3c0-0.1,0.1-0.2,0.1-0.3c0,0,0,0,0,0c0-0.1-0.1-0.1-0.1-0.2 c-0.1,0-0.2,0-0.2-0.1C38.1,9.3,38.2,9.3,38.2,9.4z"/><path fill="#FFF" d="M29.6,10c0.5,0.3,0.9,0.1,1.3-0.2c-0.8,0.5-1.3,0.3-1.8-0.4C29.1,9.6,29.3,9.8,29.6,10z"/><path fill="#FFF" d="M34.5,8c-0.3,0-0.6,0.1-0.9,0.1C33.9,8,34.2,8,34.5,8z"/><path fill="#FFF" d="M30.8,9.8c0,0,0.1-0.1,0.1-0.1c0.2-0.2,0.3-0.4,0.5-0.6c0.6-0.5,1.3-0.8,2.1-1C33.9,8,34.2,8,34.5,8 c1.6-0.1,3.1,0.3,3.6,1.2c0.1,0,0.2,0,0.2,0.1c-0.3-0.7-1-1.3-2-1.4c-0.4,0-0.9-0.1-1.3-0.1c-0.3,0-0.6,0-0.9,0 c-1.2,0.1-2.3,0.5-3.3,1.6c-0.3,0.4-0.8,0.6-1.3,0.3c-0.5-0.3-0.6-0.7-0.4-1.2C29,8.9,29,9.1,29,9.4C29.5,10.1,30,10.2,30.8,9.8z"/><path fill="#FFF" d="M29.2 8.6L29.2 8.6 29.2 8.6 29.2 8.6z"/><path fill="#FFF" d="M38.1,16.2c0,0,0.1,0,0.1,0c0.2-0.6,0.9-1,1-1.8c0.2-1.7-0.3-3.3-0.8-4.9c0,0.1-0.1,0.2-0.1,0.3 C39.1,11.8,39.7,14.1,38.1,16.2z"/><path fill="#FFF" d="M9.4,8.2c0.8,0,1.5,0.1,2,0.7c0.4,0.5,1,0.6,1.5,0.7c0.6,0.1,1.1-0.1,1.1-0.8C13.8,7.1,14.8,6,16,5 c-1.2,0.6-1.9,1.5-2.2,2.8c-0.4,1.9-0.9,2-2.5,0.9c-1.9-1.3-5.3-0.5-6.4,1.6C6.1,8.9,7.6,8.2,9.4,8.2z"/><path fill="#FFF" d="M14,9.4c-0.3,0.3-0.7,0.5-1.2,0.4c0.1,0,0.2,0,0.4,0.1C13.6,9.9,14,9.7,14,9.4z"/><path fill="#FFF" d="M11.5,9.3c0.4,0.3,0.9,0.4,1.3,0.5c0.5,0,0.9-0.1,1.2-0.4c0-0.1,0-0.1,0-0.2c-0.2-1.8,1-3,2-4.2 c-1.1,1-2.2,2.1-2.1,3.8c0,0.6-0.4,0.9-1.1,0.8c-0.6-0.1-1.1-0.2-1.5-0.7c-0.5-0.6-1.2-0.7-2-0.7c-1.8,0-3.3,0.7-4.4,2.1 C5.2,10,5.5,9.9,5.8,9.6C7.6,8.1,9.5,8,11.5,9.3z"/><path fill="#FFF" d="M28.9,25.4c0,0,0.1,0,0.1,0c0,0-0.1-0.1-0.1-0.2C29,25.2,28.9,25.3,28.9,25.4z"/><path fill="#FFF" d="M28.9,25.4c-0.3,0.6-0.6,1.2-1,1.7c0.1,0,0.2,0,0.3,0.1v0l0,0c0.4-0.5,0.4-1.3,1.1-1.6 c-0.1-0.1-0.2-0.2-0.2-0.3C29,25.3,28.9,25.4,28.9,25.4z"/><path fill="#FFF" d="M29.3,25c0,0,0,0.1-0.1,0.1C29.3,25,29.3,25,29.3,25z"/><path fill="#FFF" d="M34,27.6c-0.4-0.2-0.5-0.6-0.6-1c-0.4-1.3-1.2-2.3-2.4-3.1c-1-0.6-1.5-0.5-1.7,0.6 c-0.1,0.4-0.2,0.7-0.3,1.1c0,0.1,0,0.1,0.1,0.2c0.1,0,0.1,0,0.2,0c0-0.1,0-0.2,0-0.3c0-0.4,0-0.8,0.2-1.1c0-0.1,0.1-0.1,0.1-0.2 c0.5-0.6,0.9-0.4,1.4,0c1.7,1.1,2.2,2.8,2.8,4.5c0.1,0,0.2,0,0.3,0C34,28,34,27.8,34,27.6z"/><path fill="#FFF" d="M33.9,28.3c-0.1,0-0.1,0-0.2-0.1C33.8,28.3,33.8,28.3,33.9,28.3z"/><path fill="#FFF" d="M29.3,25.3c-0.1,0-0.1,0-0.2,0c0.1,0.1,0.1,0.2,0.2,0.3l0,0C29.3,25.5,29.3,25.4,29.3,25.3z"/><path fill="#FFF" d="M29,25.1c0-0.5,0.2-0.9,0.2-1.4c0.4-0.6,0.6-0.8,1-0.9c-0.6-0.1-1,0.2-1.1,1.1c-0.1,0.5-0.2,1-0.4,1.5 c0.1-0.1,0.2-0.1,0.3-0.1C28.9,25.3,29,25.2,29,25.1C29,25.2,29,25.1,29,25.1z"/><path fill="#FFF" d="M32.3,24.3c-0.3-0.4-0.7-0.7-1.1-1C31.6,23.6,31.9,23.9,32.3,24.3z"/><path fill="#FFF" d="M27.6,27.2c0.1-0.1,0.2-0.1,0.2-0.1c0.4-0.5,0.8-1.1,1-1.7c-0.1,0-0.2,0.1-0.3,0.1 C28.4,26.1,28,26.6,27.6,27.2z"/><path fill="#FFF" d="M32.3,24.3c-0.3-0.4-0.7-0.7-1.1-1c-0.1,0-0.1-0.1-0.2-0.1c-0.3-0.2-0.6-0.3-0.8-0.3c-0.3,0-0.6,0.3-1,0.9 c0,0.5-0.2,0.9-0.2,1.4c0,0,0,0.1,0,0.1c0.1-0.3,0.2-0.7,0.3-1.1c0.2-1.2,0.7-1.3,1.7-0.6c1.2,0.8,2,1.8,2.4,3.1 c0.1,0.4,0.2,0.8,0.6,1c0,0,0-0.1,0-0.1C33.4,26.4,33,25.2,32.3,24.3z"/><path fill="#FFF" d="M27.9,27.1C27.8,27.1,27.8,27.1,27.9,27.1c0.1,0.1,0.2,0.1,0.3,0.1v0C28.1,27.1,28,27,27.9,27.1z"/><path fill="#FFF" d="M27.6,27.2c0.1,0,0.1,0,0.2,0c0,0,0.1-0.1,0.1-0.1C27.8,27.1,27.7,27.1,27.6,27.2L27.6,27.2z"/><path fill="#FFF" d="M23.6,3.2c0.1,0,0.2,0.1,0.3,0.1c0.1,0,0.1,0,0.2,0l0,0l0,0c-2.8-1.1-6.3-0.5-7.9,1.4 C18.4,3,20.9,2.6,23.6,3.2z"/><path fill="#FFF" d="M23.6,3.4c0,0,0.1,0,0.1,0.1C23.7,3.4,23.7,3.4,23.6,3.4c0.1,0,0.2,0,0.3,0c-0.1,0-0.2-0.1-0.3-0.1 c-2.7-0.6-5.2-0.2-7.4,1.5c1,0,1.5-0.9,2.4-1.2C20.3,3,21.9,3.1,23.6,3.4z"/><path fill="#FFF" d="M12.6,28.9C11,27,10.4,24.7,11,22.2c-0.8,2.6-0.2,4.8,1.6,6.8l0,0v0C12.6,28.9,12.6,28.9,12.6,28.9z"/><path fill="#FFF" d="M12.6,28.9c0.1,0,0.2,0,0.3,0.1c-1.9-1.9-2.1-4.3-2-6.8C10.4,24.7,11,27,12.6,28.9z"/><path fill="#FFF" d="M12.6,28.9c0,0-0.1,0-0.1,0.1l0,0C12.6,29,12.7,29,12.6,28.9C12.7,29,12.7,28.9,12.6,28.9z"/><path fill="#FFF" d="M12.6,28.9C12.7,28.9,12.7,29,12.6,28.9C12.8,29,12.9,29,13,29C12.9,28.9,12.8,28.9,12.6,28.9z"/><path fill="#FFF" d="M28,5.4c0.6,0.4,0.9,1,1.3,1.6c0.4,0.5,0.5,1.1-0.1,1.6l0,0c0.7-0.4,0.6-1,0.3-1.6 c-0.4-0.7-0.9-1.4-1.6-1.8C27.9,5.2,27.9,5.3,28,5.4C27.9,5.4,27.9,5.4,28,5.4z"/><path fill="#FFF" d="M29.3,7c-0.4-0.6-0.8-1.2-1.3-1.6c0,0,0,0,0,0c0,0.1,0,0.1,0,0.2c0.6,0.9,1.9,1.6,1.3,3c0,0,0,0,0,0 C29.8,8.1,29.7,7.5,29.3,7z"/><path fill="#FFF" d="M29.2 8.6L29.2 8.6 29.2 8.6z"/><path fill="#FFF" d="M29.2 8.6L29.2 8.6 29.2 8.6z"/><path fill="#FFF" d="M27.8,5.3c0,0,0.1-0.1,0.1-0.1c-1.2-0.8-2.5-1.5-3.9-1.9c0,0,0,0-0.1,0.1C25.3,3.9,26.6,4.5,27.8,5.3z"/><path fill="#FFF" d="M27.8,5.3c-1.2-0.8-2.5-1.4-3.8-1.9c-0.1,0.1-0.1,0.1-0.2,0.1c1.4,0.6,2.9,1.2,4.1,2.1 C27.8,5.4,27.8,5.4,27.8,5.3z"/><path fill="#FFF" d="M23.9,3.4C23.9,3.4,24,3.4,23.9,3.4c0.1,0,0.1,0,0.2,0l0,0C24,3.3,23.9,3.4,23.9,3.4z"/><path fill="#FFF" d="M24,3.4C24,3.4,23.9,3.4,24,3.4c-0.2,0-0.3,0-0.3,0c0,0,0.1,0,0.1,0.1C23.8,3.5,23.9,3.5,24,3.4z"/><path fill="#FFF" d="M27.8,5.3C27.9,5.3,27.9,5.3,27.8,5.3c0.1,0,0.1,0,0.1-0.1C27.9,5.2,27.9,5.3,27.8,5.3z"/><path fill="#FFF" d="M27.8,5.3c0,0.1,0,0.2,0.1,0.2C27.9,5.5,27.9,5.4,27.8,5.3C27.9,5.3,27.9,5.3,27.8,5.3z"/><path fill="#FFF" d="M33.4,6.8c1,0,2.1,0,3.1,0l0,0C35.5,6.6,34.5,6.6,33.4,6.8z"/><path fill="#FFF" d="M33.4,6.8c1-0.2,2.1-0.2,3.1,0C35.5,6.4,34.5,6.4,33.4,6.8z"/><path fill="#FFF" d="M36.1,7.6c-1,0.1-2.1-0.2-3.1,0.2C33.9,7.5,35,7.9,36.1,7.6z"/><path fill="#FFF" d="M34.2,7.8c0.3,0,0.6,0,0.9,0c0.3,0,0.7-0.1,1-0.2c-1,0.3-2.1-0.1-3.1,0.2l0,0C33.3,7.8,33.7,7.8,34.2,7.8z"/><path fill="#FFF" d="M35.1,7.8c-0.3,0-0.6,0-0.9,0C34.5,7.8,34.8,7.8,35.1,7.8z"/><path fill="#FFF" d="M31.1,7c0.4,0.3,0.9,0.3,1.3,0C32,7.2,31.5,7.2,31.1,7z"/><path fill="#FFF" d="M31.1,7c0.4,0.2,0.9,0.2,1.3,0l0,0C32,7,31.5,7,31.1,7z"/><path fill="#FFF" d="M41.3,17c0-0.2,0.1-0.4,0.2-0.6c0.2-0.4,0.4-0.8,0.5-1.2c0.1-0.5,0.2-1,0.3-1.5c0.1-0.8,0-1.6-0.1-2.4 c-0.1-0.3-0.1-0.5,0-0.7c0-0.2,0-0.5-0.1-0.7c-0.4,0.2-0.6,0.6-0.4,1.2c0.5,1.8,0,3.5-0.7,5.1c-0.2,0.4-0.3,0.9-0.2,1.4 C41,17.5,41.2,17.2,41.3,17z"/><path fill="#FFF" d="M38.2,16.2c-0.8,0.8-1.9,1.3-3,1.5c-1.2,0.2-1.5,0.6-1,1.8c0.4,1,0.8,1.9,1.1,2.9c0.6,1.7,0.1,3.3-0.5,4.9 c-0.1,0.1-0.1,0.1-0.2,0.2c0,0.3-0.1,0.5-0.5,0.7c0,0,0,0,0,0c-0.1,0.1-0.1,0.1-0.2,0.1c0.6,0.2,0.9-0.2,1.1-0.7 c0.8-2.1,1.2-4.2,0.2-6.3c-0.3-0.5-0.5-1.1-0.7-1.7c-0.4-1-0.1-1.6,1-1.8c1.2-0.2,2.3-0.6,3-1.7C38.3,16.3,38.3,16.3,38.2,16.2z"/><path fill="#FFF" d="M35.3,23.9c0-0.1,0-0.2,0-0.3C35.3,23.7,35.3,23.8,35.3,23.9z"/><path fill="#FFF" d="M34.8,17.5c-0.1,0-0.2,0-0.2,0c-0.5,0-0.7,0.3-0.8,0.9c0,0.5,0.1,1,0.3,1.5c0,0,0,0,0,0 C33.6,18.6,33.7,18,34.8,17.5z"/><path fill="#FFF" d="M35.3,24.4c0-0.1,0-0.3,0-0.4C35.3,24.1,35.3,24.2,35.3,24.4z"/><path fill="#FFF" d="M38.1,16.2c-1,0.7-2.1,1.4-3.3,1.4c-1,0.4-1.2,1-0.7,2.4c0.6,1.2,1,2.5,1.2,3.7c0,0.1,0,0.2,0,0.3 c0,0,0,0,0,0c0,0.1,0,0.3,0,0.4c0,0.9-0.2,1.9-0.7,2.8c0,0.1,0,0.2,0,0.3c0.1,0,0.1-0.1,0.2-0.2c0.7-1.6,1.1-3.2,0.5-4.9 c-0.3-1-0.7-1.9-1.1-2.9c-0.5-1.2-0.3-1.6,1-1.8C36.3,17.5,37.3,17.1,38.1,16.2C38.2,16.2,38.1,16.2,38.1,16.2z"/><path fill="#FFF" d="M38.2,16.2C38.2,16.2,38.2,16.2,38.2,16.2C38.2,16.2,38.2,16.2,38.2,16.2c0,0.1,0.1,0.1,0.2,0l0,0 C38.4,16.2,38.3,16.2,38.2,16.2z"/><path fill="#FFF" d="M38.2,16.2C38.2,16.2,38.2,16.2,38.2,16.2C38.2,16.2,38.2,16.2,38.2,16.2C38.2,16.2,38.1,16.2,38.2,16.2 C38.1,16.2,38.2,16.2,38.2,16.2z"/><path fill="#FFF" d="M34.1,28.2C34.1,28.2,34.1,28.2,34.1,28.2C34.1,28.2,34,28.2,34.1,28.2c-0.2,0-0.3,0-0.4,0 c0.1,0,0.1,0.1,0.2,0.1C33.9,28.3,34,28.3,34.1,28.2z"/><path fill="#FFF" d="M39.7,7.8c0.4,0,0.9,0,1.3,0l0,0C40.6,7.6,40.2,7.6,39.7,7.8z"/><path fill="#FFF" d="M39.7,7.8c0.4-0.2,0.9-0.2,1.3,0C40.6,7.5,40.2,7.5,39.7,7.8z"/><path fill="#FFF" d="M29.3,25c0.2-0.4,0.2-0.8,0.2-1.2c0,0.1-0.1,0.1-0.1,0.2C29.3,24.3,29.5,24.6,29.3,25z"/><path fill="#FFF" d="M29.3,25.1c0,0,0.1-0.1,0.1-0.1c0.1-0.3,0-0.7,0.1-1C29.3,24.3,29.3,24.7,29.3,25.1z"/><path fill="#FFF" d="M39.4,12.8c0,0.1,0.1,0.1,0.1,0.2c0-0.4,0-0.8-0.2-1.2C39.4,12.2,39.3,12.5,39.4,12.8z"/><path fill="#FFF" d="M39.4,12.8c-0.1-0.3,0.1-0.7-0.1-1c0,0,0-0.1-0.1-0.1C39.2,12.1,39.2,12.5,39.4,12.8z"/><path fill="#FFF" d="M39.5,14.4c0-0.4,0-0.7,0-1.1c0,0.1-0.1,0.1-0.1,0.2C39.3,13.8,39.4,14.1,39.5,14.4z"/><path fill="#FFF" d="M39.5,14.4c-0.1-0.3-0.2-0.6-0.1-0.9C39.2,13.8,39.3,14.1,39.5,14.4z"/><path fill="#FFF" d="M39.5,8c0.4,0.2,0.7,0.5,1,0.9C41,9.5,41.9,8.6,41.4,8c-0.3-0.4-0.8-0.8-1.3-1.1 C39.4,6.5,38.8,7.5,39.5,8L39.5,8z"/></svg>