<svg id="Слой_1" xmlns="http://www.w3.org/2000/svg" viewBox="0 0 39.2 30"><path fill="#FFF" d="M37.8,19.4C37.8,19.4,37.8,19.4,37.8,19.4c0.6-0.7,1.1-1.5,0.8-2.6c-0.2,0.8-0.2,1.6-0.7,2.3 C37.9,19.2,37.8,19.3,37.8,19.4z"/><path fill="#FFF" d="M37.7,19.2c0,0,0.1-0.1,0.1-0.1C37.7,19.2,37.7,19.2,37.7,19.2z"/><path fill="#FFF" d="M37.8,19.4c0-0.1,0.1-0.2,0.1-0.3c0.5-0.7,0.5-1.5,0.7-2.3c-0.3,0.8-0.6,1.5-0.8,2.3 C37.8,19.2,37.8,19.3,37.8,19.4z"/><path fill="#FFF" d="M36.7,20.8c0.7-0.2,1-0.6,1-1.3c0,0,0,0,0,0C37.5,19.9,37.2,20.4,36.7,20.8z"/><path fill="#FFF" d="M37.8,19.4c-0.1-0.1-0.1-0.1-0.1-0.2c-0.3,0.5-0.6,1-0.9,1.5C37.2,20.4,37.5,19.9,37.8,19.4z"/><path fill="#FFF" d="M37.8,19.4C37.8,19.4,37.8,19.4,37.8,19.4C37.8,19.4,37.8,19.4,37.8,19.4C37.8,19.4,37.8,19.4,37.8,19.4z"/><path fill="#FFF" d="M37.8,19.4C37.8,19.4,37.8,19.4,37.8,19.4c0-0.1,0-0.2,0-0.3c0,0-0.1,0.1-0.1,0.1 C37.7,19.3,37.7,19.4,37.8,19.4z"/><path fill="#FFF" d="M31.5,23.9c-1.3,0.3-2.5,0.9-3.8,1c-0.5,0.1-0.9,0.1-1.2-0.3c-0.1,0.3-0.4,0.6-0.6,0.9 c-0.4,0.4-0.4,0.8,0,1.2c0-0.1,0.1-0.1,0.1-0.2c0-0.1,0.1-0.1,0.1-0.2c0,0,0,0,0-0.1c0.3-0.5,0.6-1.1,1.3-1c0.4,0,0.7,0,1.1,0 c0,0,0.1,0,0.1,0c0,0,0,0,0.1,0c0.3-0.4,0.7-0.4,1.1-0.5c2.1-0.5,4-1.2,5.9-2.3c0.6-0.4,1-0.7,1.2-1.4 C35.2,22.4,33.4,23.4,31.5,23.9z"/><path fill="#FFF" d="M26.5,24.4c0,0.1,0,0.1-0.1,0.2c0.3,0.4,0.7,0.4,1.2,0.3c1.3-0.2,2.5-0.7,3.8-1c2-0.5,3.8-1.4,5.2-2.9 c-1.2,0.7-2.4,1.6-3.7,2.1C30.9,23.9,28.8,24.6,26.5,24.4z"/><path fill="#FFF" d="M27.4,23.2c0,0,0.1,0,0.1,0c0.7-0.1,1.3-0.2,2-0.3c-0.4,0.1-0.8,0.1-1.2,0.2C28,23.1,27.7,23.1,27.4,23.2z"/><path fill="#FFF" d="M26.5 24.4L26.5 24.4 26.5 24.4z"/><path fill="#FFF" d="M26.5 24.4L26.5 24.4 26.5 24.4z"/><path fill="#FFF" d="M26.4,24.5c0,0,0,0.1,0.1,0.1c0-0.1,0.1-0.1,0.1-0.2l0,0C26.5,24.4,26.4,24.4,26.4,24.5z"/><path fill="#FFF" d="M26.5 24.4L26.5 24.4 26.5 24.4z"/><path fill="#FFF" d="M26.3,24.4C26.3,24.4,26.3,24.4,26.3,24.4c0.1,0,0.1,0,0.2-0.1l0,0C26.4,24.4,26.4,24.4,26.3,24.4 C26.3,24.4,26.3,24.4,26.3,24.4z"/><path fill="#FFF" d="M25.3,25.3C25.1,25.5,25,25.7,25,26c0.4-0.6,0.8-1.1,1.4-1.5c0,0,0,0,0,0c0,0,0,0,0,0 C26,24.7,25.6,25,25.3,25.3z"/><path fill="#FFF" d="M26.5,24.4L26.5,24.4c-0.1,0-0.1,0-0.2,0.1c0,0,0,0,0,0C26.4,24.4,26.5,24.4,26.5,24.4z"/><g fill="#FFF"><path d="M24.2,25.5c-0.7,1-1.7,1.6-2.9,1.7c-0.1,0-0.2,0-0.3,0c0.5,0.6,1,0.6,1.6,0.2c0.8-0.5,1.5-1,2-1.8 c0.4-0.6,1-1.1,1.7-1.3c0-0.5,0.2-0.8,0.5-1C25.8,23.8,24.9,24.4,24.2,25.5z"/><path d="M25,26c-0.1,0.2-0.2,0.3-0.3,0.5c-0.5,1.1-1.7,1.4-2.8,1.7c-0.7,0.2-1-0.2-1.1-0.9c0-0.1,0.1-0.2,0.2-0.3 l0,0c0.2-0.6,0.5-1.2,0.7-1.8l0,0h0c-0.1-0.6-0.5-0.8-1.1-0.8c0.4,0.3,0.8,0.5,0.4,1.1c-0.1,0.2-0.4,0.5-0.6,0.4 c-0.5-0.3-1.3-0.7-1.3-1.1c-0.1-0.7,0.8-0.3,1.2-0.5c-0.7-0.5-1.5-0.1-2.2,0c0.1,0.5,0.1,1,0.1,1.5c0.1-0.1,0.2-0.1,0.3-0.1 c0.3,0,0.6,0.1,0.8,0.2c0.3,0.3-0.1,0.6-0.2,0.9c-0.1,0.2-0.1,0.4-0.2,0.6c-0.2,0.5-0.1,1.3-1,1c0,0.4-0.1,0.8-0.1,1.2 c0,0,0,0,0.1-0.1l0,0c1.3,0.1,2.5-0.2,3.7-0.8v0c0.5-0.2,0.9-0.7,1.5-0.2c0,0,0,0,0,0c0.6-0.3,1-0.6,1.4-1 c0.3-0.2,0.6-0.5,0.9-0.8C25.3,26.6,25,26.3,25,26z"/><path d="M24.7,25.7c-0.5,0.8-1.2,1.3-2,1.8c-0.6,0.3-1.1,0.4-1.6-0.2l0,0c0-0.1,0.1-0.2,0.1-0.3l0,0 c-0.1,0.1-0.2,0.2-0.2,0.3c0,0.7,0.4,1,1.1,0.9c1.1-0.2,2.2-0.6,2.8-1.7c0.1-0.2,0.2-0.4,0.3-0.5c0-0.2,0.1-0.5,0.3-0.7 c0.3-0.3,0.7-0.5,1-0.8c0,0,0,0,0,0c0,0,0,0,0,0c0,0,0,0,0,0C25.6,24.6,25.1,25.1,24.7,25.7z"/><path d="M18.8,23.8c0.1,0,0.2,0,0.3-0.1C19,23.8,18.9,23.8,18.8,23.8z"/><path d="M21.3,27c-0.1,0.1-0.2,0.2-0.3,0.3l0,0c0.1,0,0.2,0,0.3,0C21.3,27.1,21.3,27,21.3,27z"/><path d="M22,25.2c-0.1,0-0.1,0-0.2,0l0,0c-0.2,0.6-0.5,1.2-0.7,1.8c0.1,0,0.2-0.1,0.2-0.1 C21.4,26.3,21.9,25.8,22,25.2z"/><path d="M21.3,27C21.3,26.9,21.3,26.9,21.3,27c-0.1,0-0.1,0-0.2,0c0,0.1-0.1,0.2-0.1,0.3l0,0l0,0 C21.1,27.1,21.2,27.1,21.3,27z"/><path d="M21.5,26.8C21.5,26.8,21.5,26.8,21.5,26.8C21.5,26.8,21.5,26.8,21.5,26.8C21.5,26.8,21.5,26.8,21.5,26.8z"/><path d="M21.3,27c0,0.1,0,0.2,0,0.3c0-0.1,0.1-0.3,0.1-0.4c0,0,0,0,0,0C21.4,26.9,21.4,26.9,21.3,27z"/><path d="M22,25.2c-0.1,0.6-0.6,1.1-0.7,1.7c0,0,0.1,0,0.1,0c0,0,0,0,0.1-0.1c0.2-0.5,0.4-1.1,0.6-1.6 C22.1,25.2,22,25.2,22,25.2z"/><path d="M21.3,27c0,0,0.1-0.1,0.1-0.1C21.4,26.9,21.4,26.9,21.3,27C21.3,26.9,21.3,26.9,21.3,27z"/><path d="M20.5,24c0.1,0.6,0.3,0.2,0.4,0.1c-0.2-0.1-0.4-0.1-0.6-0.2C20.4,23.9,20.5,23.9,20.5,24z"/><path d="M21,24.1c-0.2,0.1-0.4,0.5-0.4-0.1c0,0-0.1,0-0.1-0.1c-0.3-0.1-0.6-0.1-0.9,0c-0.6,0.1-0.9,0.1-1.2,0.1 c0,0,0,0,0,0c0,0.1,0,0.3,0,0.4c0.7-0.1,1.5-0.4,2.2,0c0.1,0,0.2,0,0.3,0l0,0c0.6,0,1,0.1,1.1,0.8h0c0.1-0.1,0.1-0.1,0.2-0.1 c0,0,0-0.1,0-0.1C21.9,24.6,21.5,24.3,21,24.1z"/><path d="M20.4,23.9c0.2,0,0.4,0.1,0.6,0.2c0,0,0.1,0,0.1,0c0.7-0.1,1.1,0.2,1.1,0.9c0,0.1,0,0.1,0,0.2 c0.4-0.6,0.1-1-0.4-1.1c-0.8-0.2-1.7-0.6-2.6-0.3c0,0-0.1,0-0.1,0C19.5,23.7,20,23.7,20.4,23.9z"/><path d="M21,24C21,24,21,24,21,24c0.4,0.2,0.8,0.5,1,0.9c0,0,0,0.1,0,0.1c0,0,0.1,0,0.1,0.1c0,0,0,0,0-0.1 c0-0.1,0-0.1,0-0.2C22.1,24.2,21.8,23.9,21,24z"/><path d="M19.5,23.9c0.3,0,0.6,0,0.9,0c-0.4-0.2-0.9-0.2-1.3-0.2c-0.1,0-0.2,0.1-0.3,0.1c-0.2,0-0.3,0.1-0.5,0.1 C18.5,24,18.9,23.9,19.5,23.9z"/><path d="M22,25.1c-0.1,0-0.1,0-0.2,0.1C21.9,25.2,21.9,25.2,22,25.1C22,25.1,22,25.1,22,25.1z"/><path d="M22,25.1C22,25.1,22,25.1,22,25.1c0,0.1,0.1,0.1,0.1,0.1C22.1,25.1,22,25.1,22,25.1z"/><path d="M20.5,24.4c-0.4,0.2-1.3-0.3-1.2,0.5c0,0.4,0.8,0.8,1.3,1.1c0.2,0.1,0.4-0.2,0.6-0.4 c0.4-0.6,0-0.9-0.4-1.1l0,0C20.7,24.5,20.6,24.5,20.5,24.4z"/><path d="M20.5,24.4c0.1,0.1,0.2,0.1,0.3,0l0,0v0C20.7,24.4,20.6,24.4,20.5,24.4z"/><path d="M18.4,29.9c1.2-0.2,2.4-0.1,3.4-0.9c0,0,0,0,0,0c0-0.1,0-0.1,0-0.2c-1.1,0.6-2.4,0.9-3.7,0.8l0,0l0,0 C18.2,29.7,18.3,29.8,18.4,29.9z"/><path d="M19.8,30c-0.1,0-0.2,0-0.2,0C19.7,30,19.8,30,19.8,30z"/><path d="M18.4,30c0.4,0.1,0.8,0.1,1.2,0c0.1,0,0.2,0,0.2,0c0.7-0.1,1.3-0.4,2-0.9c0,0,0-0.1,0-0.1c0,0,0,0,0,0 C20.8,29.8,19.6,29.7,18.4,30C18.4,29.9,18.4,29.9,18.4,30C18.4,29.9,18.4,30,18.4,30z"/><path d="M21.9,29c0.5-0.1,0.8-0.8,1.4-0.4c-0.6-0.5-1,0.1-1.5,0.2v0l0,0C21.9,28.9,21.9,28.9,21.9,29z"/><path d="M21.9,29c0,0,0,0.1-0.1,0.1c0.5-0.2,1-0.3,1.5-0.5C22.7,28.2,22.4,28.8,21.9,29z"/><path d="M21.9,29c0,0,0-0.1-0.1-0.1l0,0c0,0.1,0,0.1,0,0.2C21.8,29,21.9,29,21.9,29z"/><path d="M21.9,29c0,0-0.1,0-0.1,0c0,0,0,0.1,0,0.1C21.9,29.1,21.9,29,21.9,29z"/><path d="M36.7,4.7c-0.6-2.7-2.5-4.3-5.3-4.4c-7-0.1-13.9,0.4-20.8,0.5c-1,0-1.9,0.2-2.7,0.7l0,0l0,0 c1,0.3,2.1-0.1,3.1-0.2c3-0.5,6-0.1,9-0.3C22,1,24.1,0.8,26.2,0.8c2.2,0,4.3,0,6.5,0c1.2,0,3.5,2,3.7,3.2 c0.1,0.5,0.2,1.2-0.4,1.5l0,0l0,0c0,0.1,0,0.2,0,0.3c1,0.3,1.4,0.9,0.8,1.8c1,3.1,1,6.2,0.1,9.2C36,19.9,34,22.2,30.7,23 c-0.9,0.2-1.8,0.5-2.8,0.5c-0.6,0-1.1,0.2-1.4,0.8l0,0l0,0c2.3,0.3,4.4-0.5,6.4-1.3c1.3-0.5,2.5-1.4,3.7-2.1 c0-0.1,0.1-0.1,0.1-0.2c0.3-0.5,0.6-1,0.9-1.5c0,0,0-0.1,0.1-0.1c0.3-0.8,0.6-1.5,0.8-2.3c0.9-2.1,0.7-4.3,0.5-6.3 c-0.2-1.7-1.2-3.3-1.8-5C36.9,5.3,36.8,5,36.7,4.7z"/><path d="M7.9,1.6c0-0.1,0-0.1,0-0.2c1.4-0.9,3-0.8,4.5-0.8c2.8-0.1,5.6,0,8.4-0.3c3.8-0.3,7.6-0.1,11.4-0.2 c2.1-0.1,4.5,2.3,4.6,4.4c0,0.4,0.2,0.7,0.4,0.9c-0.1-0.2-0.2-0.5-0.2-0.7C37,2.4,34.6,0.1,32.2,0c-4.9-0.1-9.8,0.1-14.7,0.3 C14.3,0.4,11,0.2,7.9,1.1C6.4,1.5,4.6,1.8,3.7,3.3c0,0,0.1,0.1,0.1,0.1C5,2.4,6.4,1.8,7.9,1.6z"/><path d="M32.3,0.2C28.4,0.3,24.6,0,20.8,0.3c-2.8,0.2-5.6,0.2-8.4,0.3c-1.5,0.1-3.1-0.1-4.5,0.8 c0,0.1,0,0.1,0,0.2c0,0,0,0,0,0l0,0c0.9-0.5,1.8-0.7,2.7-0.7c6.9-0.2,13.9-0.7,20.8-0.5c2.8,0.1,4.7,1.6,5.3,4.4 c0.1,0.4,0.2,0.7,0.5,0.8c-0.2-0.3-0.4-0.5-0.4-0.9C36.8,2.5,34.4,0.1,32.3,0.2z"/><path d="M0.6,17.3c0-0.2,0-0.5,0-0.7l0,0c-0.3-0.4-0.3-0.9,0-1.3c0-0.1,0-0.2,0-0.2l0,0c-0.4-1.1-0.3-2.1,0-3.2 C0.4,8.6,1.2,5.7,3.7,3.5c0,0-0.1-0.1-0.1-0.2c-1.2,0.7-2.1,1.7-2.5,3c-1.2,3.6-1.3,7.2-0.8,10.9C0.4,17.2,0.5,17.2,0.6,17.3z"/><path d="M3.8,3.5L3.8,3.5c0,0-0.1-0.1-0.1-0.1C3.7,3.4,3.7,3.5,3.8,3.5C3.8,3.5,3.8,3.5,3.8,3.5z"/><path d="M24.2,1.2c-4.3,0.4-8.5,0.3-12.8,0.7C10.6,2,9.8,1.8,8.9,2.2C8.5,2.4,8,2.1,7.9,1.6 C7.8,1.9,7.6,2,7.4,2.1C6.3,2.7,5.1,3.2,3.9,3.6c0,0-0.1,0-0.1,0c0.2,0.4,0,0.7-0.3,1c-1.9,2.1-2.4,4.6-2.3,7.3 c-0.2,1,0,1.9,0,2.9c0,0.1,0,0.3,0,0.4c0,0.5,0,1-0.1,1.6C1,17,0.9,17.2,0.6,17.3c0.6,0,1.2-0.1,1.9-0.2c0-0.1-0.1-0.2-0.1-0.3 C2.2,15,2,13.2,2.2,11.4C2.4,9,2.8,6.7,4.3,4.7C5.1,3.2,6.8,3,8.2,2.8c4.7-0.6,9.5-0.5,14.2-1.4c1.5-0.3,3-0.4,4.5-0.3 C26,1.1,25.1,1.1,24.2,1.2z"/><path d="M34.1,2c-1.3-0.7-2.9-0.8-4.2-0.8c-1,0-2,0-2.9-0.1c1.5,0.1,3.1,0.4,4.6,0.9l0.3,0.2 c0.1,0,0.1,0.1,0.2,0.1c0.3,0.1,0.7,0.2,1,0.3c0.2,0,0.4,0,0.5,0c0.4,0.1,1-0.3,1,0.5c0.3,0.6,0.7,1.3,1,1.9 C35.8,3.9,35.1,2.6,34.1,2z"/><path d="M33.6,2.6c0.1,0,0.1,0.1,0.2,0.1C33.7,2.7,33.6,2.7,33.6,2.6z"/><path d="M8.9,2.2c0.8-0.4,1.6-0.2,2.4-0.3c4.3-0.4,8.5-0.3,12.8-0.7c1.9-0.2,3.8,0.1,5.7,0c1.4,0,2.9,0,4.2,0.8 c1,0.6,1.7,1.9,1.6,3c0.1,0.2,0.2,0.3,0.3,0.5l0,0c0.6-0.4,0.5-1,0.4-1.5c-0.2-1.2-2.4-3.1-3.7-3.2c-2.2-0.1-4.3,0-6.5,0 c-2.1,0-4.2,0.2-6.2,0.3c-3,0.2-6-0.2-9,0.3c-1,0.2-2,0.5-3.1,0.2l0,0c0,0,0,0,0,0C8,2.1,8.5,2.4,8.9,2.2z"/><path d="M3.8,3.6C3.9,3.6,3.9,3.6,3.8,3.6c1.3-0.4,2.4-0.9,3.6-1.5C7.6,2,7.8,1.9,7.9,1.6c0,0,0,0,0,0 C6.4,1.8,5,2.4,3.8,3.6L3.8,3.6C3.8,3.5,3.8,3.5,3.8,3.6z"/><path d="M7.9 1.6L7.9 1.6 7.9 1.6z"/><path d="M0.6,15L0.6,15L0.6,15c0,0.1,0,0.2,0,0.2c0,0.4,0,0.9,0,1.3l0,0l0,0c0,0.2,0,0.5,0,0.7c0,0,0,0,0,0 c0,0,0,0,0.1,0C0.9,17.2,1,17,1.1,16.7c0.1-0.5,0.1-1,0.1-1.6c0-0.1,0-0.3,0-0.4c0-1-0.2-1.9,0-2.9C1.1,9.2,1.6,6.6,3.5,4.5 C3.8,4.3,4,4,3.8,3.6c0,0-0.1,0-0.1-0.1c-2.6,2.2-3.3,5.1-3.2,8.3C0.9,12.9,0.5,13.9,0.6,15z"/><path d="M3.8,3.6C3.8,3.5,3.8,3.5,3.8,3.6L3.8,3.6L3.8,3.6C3.8,3.5,3.8,3.5,3.8,3.6C3.8,3.5,3.8,3.6,3.8,3.6z"/><path d="M34.2,3.5c-0.2-0.2-0.4-0.4-0.7-0.4c0,0,0,0-0.1,0c1,0.4,1.4,1.4,1.8,2.4c1.4,3.1,2,6.3,1.4,9.9 c-0.4,2-1.2,3.7-2.5,5.1c-0.3,0.3-0.6,0.6-0.9,0.8c1.8-1.3,2.9-3.3,3.3-5.8c0.5-2.6,0.3-5.1-0.3-7.6c0.1-0.8-0.2-1.4-0.7-2 c0-0.1,0-0.3,0-0.4C34.9,5,34.7,4.1,34.2,3.5z"/><path d="M35.6,5.8c0.5,0.6,0.8,1.2,0.7,2c0.6,2.5,0.8,5,0.3,7.6c-0.5,2.6-1.5,4.5-3.3,5.8 c-1.1,0.9-2.4,1.3-3.8,1.6c-0.7,0.2-1.3,0.3-2,0.3c0,0-0.1,0-0.1,0c-0.2,0-0.4,0.1-0.5,0.2c-0.3,0.2-0.5,0.5-0.5,1 c0.1,0,0.1,0,0.2,0c0.3-0.5,0.8-0.8,1.4-0.8c1,0,1.9-0.3,2.8-0.5c3.2-0.9,5.3-3.1,6.1-6.2c0.8-3,0.9-6.2-0.1-9.2 c-0.3-0.6-0.5-1.2-0.8-1.8l0,0c0-0.1,0-0.2,0-0.3l0,0c-0.1,0-0.2-0.1-0.3-0.1C35.6,5.5,35.6,5.7,35.6,5.8z"/><path d="M33.8,2.7c-0.1,0-0.1,0-0.2-0.1c-0.2,0-0.4,0-0.5,0c0,0.1,0,0.2,0,0.3c0.1,0,0.3,0.1,0.4,0.1 c0,0,0,0,0.1,0c0.3,0.1,0.5,0.2,0.7,0.4c0.5,0.6,0.7,1.5,1.4,1.8l0,0c0-0.1,0-0.2,0.1-0.3c-0.3-0.6-0.7-1.3-1-1.9 C34.3,3,34.1,2.9,33.8,2.7z"/><path d="M35.6,5.4L35.6,5.4c0.1,0.1,0.2,0.1,0.3,0.1c-0.1-0.2-0.2-0.3-0.3-0.5C35.7,5.2,35.6,5.3,35.6,5.4z"/><path d="M36.7,7.6c0.6-1,0.2-1.5-0.8-1.8l0,0C36.6,6.2,36.8,6.8,36.7,7.6z"/><path d="M36.7,7.6c0.1-0.8-0.1-1.4-0.8-1.8l0,0l0,0C36.2,6.4,36.5,7,36.7,7.6z"/><path d="M0.6,11.8c-0.3,1.1-0.4,2.1,0,3.2C0.3,13.9,0.5,12.8,0.6,11.8z"/><path d="M0.6,11.8c-0.1,1.1-0.3,2.1,0,3.2l0,0C0.5,13.9,0.9,12.9,0.6,11.8z"/><path d="M0.6,15.2c-0.3,0.4-0.3,0.9,0,1.3C0.4,16.1,0.4,15.6,0.6,15.2z"/><path d="M0.6,15.2c-0.2,0.4-0.2,0.9,0,1.3l0,0C0.6,16.1,0.6,15.6,0.6,15.2z"/><path d="M28.5,1.9c-1.5-0.2-3.1-0.3-4.6-0.1C25.4,1.7,26.9,1.7,28.5,1.9z"/><path d="M4.7,4.7C6.7,3.2,9,3,11.3,2.9c3.4-0.1,6.7-0.4,10-0.9c0.8-0.1,1.7-0.2,2.5-0.3c1.6-0.1,3.1-0.1,4.6,0.1 C29.2,1.9,30,2,30.7,2.1c0.1,0.1,0.2,0.1,0.2,0.1c-0.1,0-0.2-0.1-0.2-0.1c0.3,0,0.5,0,0.8,0v0c-3-1.2-6.1-1.1-9.1-0.6 c-4.7,0.8-9.5,0.7-14.2,1.4C6.8,3,5.1,3.2,4.3,4.7C4.4,4.7,4.6,4.7,4.7,4.7L4.7,4.7z"/><path d="M30.6,2.5c0.4,0.1,0.8,0.2,1.2,0.3c0,0,0.1,0,0.1,0c0,0-0.1,0-0.1,0c-0.2-0.1-0.5-0.2-0.7-0.3 c0,0-0.1,0-0.1,0c-0.1,0-0.2,0-0.3,0.1C30.7,2.5,30.7,2.5,30.6,2.5z"/><path d="M31.8,2.3c0.1,0,0.1,0.1,0.2,0.1C31.9,2.3,31.9,2.3,31.8,2.3z"/><path d="M31.1,2.4c0,0,0.1,0,0.1,0c0.2,0.1,0.5,0.2,0.7,0.3c0,0,0.1,0,0.1,0c0.3,0.1,0.6,0.1,0.9,0.2 c0-0.1,0.1-0.2,0.2-0.3l0,0v0c-0.3-0.1-0.7-0.2-1-0.3c-0.2,0-0.5,0-0.7,0C31.2,2.4,31.1,2.4,31.1,2.4z"/><path d="M32.9,2.9C32.9,3,33,3,33,3c0-0.1,0-0.2,0-0.3l0,0C33,2.7,32.9,2.8,32.9,2.9z"/><path d="M12.5,3c-2.1,0-4,0.4-6,0.9C5.9,4,5.4,4.2,5,4.7c2.4-1.2,5-1.5,7.7-1.5c3,0,6-0.5,9-0.9 c3-0.4,5.9-0.4,8.8,0.2c0,0,0.1,0,0.1,0c0.1,0,0.2,0,0.3-0.1c-0.9-0.3-1.7-0.4-2.6-0.6c-1.5-0.1-3.1-0.2-4.6-0.1 c-0.5,0-1,0.1-1.4,0.2C19.1,2.5,15.8,3,12.5,3z"/><path d="M31.3,2.3c-0.1,0-0.2-0.1-0.4-0.1c-0.1,0-0.2-0.1-0.2-0.1C30,2,29.2,1.9,28.5,1.9 c0.9,0.1,1.7,0.3,2.6,0.6C31.1,2.4,31.2,2.4,31.3,2.3z"/><path d="M4.8,4.8C4.9,4.8,5,4.7,5,4.7C5.4,4.2,5.9,4,6.5,3.8c2-0.5,3.9-0.9,6-0.9c3.3,0,6.7-0.5,10-1 c0.5-0.1,1-0.1,1.4-0.2c-0.8,0-1.7,0.1-2.5,0.3c-3.3,0.5-6.6,0.8-10,0.9C9,3,6.7,3.2,4.7,4.7l0,0l0,0C4.8,4.7,4.8,4.7,4.8,4.8z"/><path d="M3.1,16.7c-1-3.2-0.6-6.5,0.3-9.6c0.2-0.7,0.8-1.4,1.3-2C4.5,5,4.4,4.9,4.3,4.7c-1.4,2-1.9,4.3-2.1,6.6 c-0.2,1.8,0,3.6,0.3,5.4l0,0v0C2.6,16.7,2.8,16.7,3.1,16.7z"/><path d="M4.8,4.8c0-0.1-0.1-0.1-0.1-0.2c-0.2,0-0.3,0.1-0.5,0.1C4.4,4.9,4.5,5,4.7,5C4.7,4.9,4.8,4.9,4.8,4.8z"/><path d="M4.7,4.7L4.7,4.7c0,0.1,0.1,0.1,0.1,0.2c0,0,0,0,0,0C4.8,4.7,4.8,4.7,4.7,4.7z"/><path d="M34.6,3.2c0-0.8-0.7-0.4-1-0.5c0.1,0,0.1,0.1,0.2,0.1C34.1,2.8,34.5,2.7,34.6,3.2z"/><path d="M33.8,2.7c0.3,0.1,0.6,0.3,0.9,0.4C34.5,2.7,34.1,2.8,33.8,2.7z"/><path d="M31.8,2.3c-0.1-0.1-0.2-0.1-0.3-0.2l0,0c0,0.1-0.1,0.1-0.1,0.1C31.5,2.2,31.7,2.2,31.8,2.3z"/><path d="M30.9,2.2c0.1,0,0.3,0,0.5,0c0,0,0.1-0.1,0.1-0.1c-0.3,0-0.5,0-0.8,0C30.8,2.2,30.8,2.2,30.9,2.2z"/><path d="M31.4,2.2C31.4,2.3,31.3,2.3,31.4,2.2c0.1,0.1,0.4,0.1,0.6,0.1c-0.1,0-0.1-0.1-0.2-0.1 C31.7,2.2,31.5,2.2,31.4,2.2z"/><path d="M31.4,2.2c-0.2,0-0.3,0-0.5,0C31,2.3,31.2,2.3,31.4,2.2C31.3,2.3,31.4,2.3,31.4,2.2z"/><path d="M27.3,9.9c-1.1,0-2.3-0.1-3.4-0.1c-2.2,0-4.5,0-6.7,0.1c-1.8,0.1-3.5,0.6-5.3,0.2 c-0.9-0.2-1.1,0.4-0.9,1.1c0.3,0.9,1.2,1.2,2,0.8c0.5-0.2,1-0.3,1.5-0.3c3.6-0.5,7.3-0.3,10.9-0.3c0.7,0,1.4,0.1,2.1,0.1 c0.5,0,1.2,0.1,1.2-0.6C28.6,10.3,28.1,9.9,27.3,9.9z"/><path d="M24.6,12.4c-3.4,0.3-6.9,0.5-10.3,0.8c-0.6,0-1,0.2-0.9,0.9c0.1,0.6,0.4,0.8,1.1,0.7 c2.9-0.4,5.9-0.5,8.8-0.7c0.5,0,1,0,1.4,0c0.6,0,1.4,0.1,1.4-0.8C26.1,12.4,25.4,12.3,24.6,12.4z"/></g><path fill="#FFF" d="M25.2,27.3c0.7-0.7,1.4-1.4,2.1-2c0.7-0.7-0.3-1.7-1.1-1.1c-0.7,0.7-1.4,1.3-2.1,2 C23.4,26.9,24.5,28,25.2,27.3L25.2,27.3z"/></svg>