<svg id="Слой_1" xmlns="http://www.w3.org/2000/svg" viewBox="0 0 36 30.4"><path fill="#FFF" d="M21,0.7c-0.2,0.1-0.3,0.2-0.6,0.2c-1.5,0-3.1,0.1-4.6,0.3C11.1,1.9,6.4,1.6,1.7,1.6c-0.5,0-1,0.1-1.1,0.5 C0.5,3.1-0.1,3.9,0,4.9c0.4,4.8,1,9.6,0.8,14.4c0,1.3-0.2,2.6-0.2,3.9c0,1.4,0.6,1.8,1.9,1.4c1.2-0.4,2.5-0.5,3.7-0.6 C8,24,8.1,24.2,7.8,25.9c-0.1,0.6-0.5,1-1,1.3c-0.3,0.2-0.5,0.4-0.5,0.8c0,0.1-0.1,0.2-0.1,0.2c-0.4,0.4-1.1,0.8-0.7,1.5 c0.3,0.6,1.1,0.4,1.6,0.4C7.1,30,7.2,30,7.2,30c1.1-0.5,2.1-1,3.2-1.5l0,0c0.5-0.7,1.4-0.9,2-1.4c0.8-0.6,1.6-1.3,1.9-2.2 c-0.3,0-0.7,0-1,0v0l0,0c-0.9,1.4-2.5,2-3.7,3.1h0c-0.4,0.3-0.8,0.3-1.2-0.1c-0.4-0.4-0.2-0.8,0-1.2c1.6-3.3,1.2-3.8-2.5-3.7 c-0.9,0-1.8,0.4-2.7,0.3c-1-0.1-1.4-0.6-1.5-1.5c0-0.3,0-0.7,0-1c0.2-3.5-0.4-7-0.3-10.6c0-0.8-0.6-1.4-0.5-2.1 c-0.5-1.6-0.8-3.3-0.2-5c0.3-0.7,0.6-0.9,1.4-0.9C6.2,2.2,10.1,2.1,14,2.1c1.6,0,3.2-0.6,4.9-0.5l0,0c1.6-0.3,2.4-0.4,2.7-0.9 C21.4,0.7,21.2,0.7,21,0.7z"/><path fill="#FFF" d="M21.8,23c-2.4-0.4-4.6-0.1-6.8,0.8c0.2,0,0.4,0,0.6,0c1.5-0.2,3.1-0.5,4.6-0.7c0.7-0.1,1.4-0.1,1.7,0.5 C21.8,23.4,21.8,23.2,21.8,23z"/><path fill="#FFF" d="M14.9,23.8c-0.2,0.3-0.3,0.6-0.5,0.9c0,0,0,0.1,0.1,0.1c-0.2,1.4-1.3,2.1-2.3,2.7c-0.5,0.3-1.2,0.5-1.6,1 c0,0,0.1,0,0.1,0c2.3-0.9,3.9-2.4,4.8-4.7C15.3,24,15.1,24,14.9,23.8z"/><path fill="#FFF" d="M14.4,24.9c-0.4,1-1.1,1.6-1.9,2.2c-0.7,0.5-1.5,0.7-2,1.4l0,0l0,0c0.1,0,0.1,0,0.2,0 c0.4-0.5,1.1-0.7,1.6-1c1.1-0.7,2.1-1.3,2.3-2.7c0,0,0-0.1-0.1-0.1C14.4,24.7,14.4,24.8,14.4,24.9L14.4,24.9z"/><path fill="#FFF" d="M14.9,23.8c0.2,0.2,0.4,0.1,0.6,0C15.3,23.8,15.1,23.8,14.9,23.8L14.9,23.8z"/><path fill="#FFF" d="M6.9,30.2c-0.6-0.1-1.5,0.3-1.8-0.6c-0.2-0.8,0.6-1.2,1.2-1.7c-0.8,0.3-1.6,0.8-1.4,1.8 c0.2,0.9,1.2,0.7,1.9,0.7c0.3,0,0.6,0,0.8-0.3c-0.1,0-0.2,0-0.3,0C7.2,30.1,7.1,30.2,6.9,30.2z"/><path fill="#FFF" d="M5.1,29.6c0.2,0.9,1.1,0.5,1.8,0.6c0.2,0,0.3-0.1,0.5-0.1c-0.1,0-0.2,0-0.3,0c0.1,0,0.1,0,0.2-0.1 c-0.1,0-0.1,0-0.2,0.1c-0.6,0-1.3,0.2-1.6-0.4c-0.4-0.7,0.4-1,0.7-1.5C6.2,28.1,6.2,28,6.3,28C5.7,28.4,4.9,28.8,5.1,29.6z"/><path fill="#FFF" d="M10.5,28.6C10.5,28.6,10.5,28.6,10.5,28.6c-1,0.6-1.9,1.1-3,1.5c0,0,0.1,0,0.1,0.1c1.2-0.2,2.2-0.8,3.1-1.6 C10.7,28.6,10.6,28.6,10.5,28.6z"/><path fill="#FFF" d="M10.4,28.5c-1.1,0.5-2.1,1-3.2,1.5c0.1,0,0.2,0,0.3,0c1-0.3,2-0.9,2.9-1.4C10.5,28.6,10.5,28.6,10.4,28.5 C10.5,28.6,10.5,28.5,10.4,28.5z"/><path fill="#FFF" d="M10.5,28.6c0.1,0,0.1,0,0.2-0.1C10.7,28.5,10.7,28.5,10.5,28.6C10.6,28.5,10.6,28.6,10.5,28.6z"/><path fill="#FFF" d="M10.4,28.5C10.5,28.5,10.5,28.6,10.4,28.5c0.1,0.1,0.1,0,0.2,0C10.6,28.5,10.5,28.5,10.4,28.5L10.4,28.5z"/><path fill="#FFF" d="M7.4,30.1c0.1,0,0.2,0,0.3,0c0,0-0.1-0.1-0.1-0.1C7.5,30.1,7.4,30.1,7.4,30.1z"/><path fill="#FFF" d="M7.2,30c-0.1,0-0.1,0-0.2,0.1c0.1,0,0.2,0,0.3,0c0.1,0,0.1,0,0.2-0.1C7.5,30,7.3,30,7.2,30z"/><path fill="#FFF" d="M6.8,27.2c0.3-0.5,0.8-0.8,1-1.3C7.4,26.2,7,26.6,6.8,27.2z"/><path fill="#FFF" d="M7.8,25.9c-0.2,0.5-0.7,0.8-1,1.3C7.3,26.9,7.7,26.5,7.8,25.9z"/><path fill="#FFF" d="M21.6,21.6c-0.4,0.1-0.8,0-1.2,0.1v0c-0.3,0.1-0.7,0.2-1,0.2l0,0l0,0c0,0,0,0,0,0c0,0-0.1,0-0.1,0.1 c-0.5,0.3-1.1,0.2-1.7,0.2c-0.9,0.5-1.9,0.2-2.9,0.3c-0.6,0.5-1,1.2-1.2,2c0.3-0.1,0.6-0.2,0.9,0c0-0.4,0.1-0.6,0.6-0.7 c0,0,0,0-0.1-0.1c0.1-0.7,0.7-0.8,1.2-0.8c1.5-0.3,3-0.5,4.5-0.6c0.4,0,0.8,0,1.1,0.1C21.7,22.2,21.6,21.9,21.6,21.6z"/><path fill="#FFF" d="M17.7,22.2c-0.1,0-0.1,0-0.2,0.1l0,0C17.6,22.2,17.6,22.2,17.7,22.2z"/><path fill="#FFF" d="M14.3,24.5c-0.3-0.2-0.6-0.1-0.9,0c0,0.1-0.1,0.3-0.1,0.4l0,0c0.3,0,0.7,0,1,0l0,0 C14.4,24.7,14.3,24.6,14.3,24.5z"/><path fill="#FFF" d="M21.7,22.4c-0.3-0.1-0.7-0.2-1.1-0.1c-1.5,0.1-3,0.4-4.5,0.6C15.5,23,15,23,14.9,23.7c0,0,0,0,0.1,0.1l0,0 c2.2-0.9,4.5-1.3,6.8-0.8C21.7,22.8,21.7,22.6,21.7,22.4z"/><path fill="#FFF" d="M14.3,24.5c0.1,0,0.1,0.1,0.2,0.2c0.2-0.3,0.3-0.6,0.5-0.9c0,0,0,0,0,0C14.5,23.9,14.3,24.2,14.3,24.5z"/><path fill="#FFF" d="M14.3,24.5c0,0.1,0,0.2,0.1,0.3l0,0h0c0-0.1,0.1-0.1,0.1-0.2C14.4,24.6,14.4,24.5,14.3,24.5z"/><path fill="#FFF" d="M14.9 23.8L14.9 23.8 14.9 23.8z"/><path fill="#FFF" d="M35.3,1c-0.1-0.1-0.2-0.2-0.3-0.3c-0.4-0.1-1,0.3-1.3-0.3c-1.3,0.2-2.6,0.3-3.9,0.3 c-1.1,0.5-2.3,0.4-3.4,0.3c-0.5,0-1,0-1.6,0c-0.3,0.2-0.7,0.6-1,0c-0.2-0.1-0.4-0.2-0.6-0.4c-0.3,0-0.6,0-0.9,0 c-0.1,0.6-0.5,1-1.1,1c-0.8,0-1.6,0.3-2.4,0.3c0,0,0,0.1,0,0.1c1.5,0,3,0,4.4,0h0c0.6-0.5,1.2-0.3,1.8-0.3c2.4-0.1,4.9-0.2,7.3-0.3 c1.5,0,1.8,0.3,1.9,1.8c0,1.1,0,2.3,0,3.4v0c0.2,0.2,0.4,0.5,0.5,0.8c0.1,0,0.1,0,0.2,0c0,0,0,0,0,0c0.1-0.4-0.1-0.9,0.4-1.1 c0-0.2,0-0.3,0-0.5v0l0,0c-0.3-0.6,0.1-1.2,0-1.8C34.8,3.1,34.9,2.1,35.3,1z"/><path fill="#FFF" d="M29.8 0.8L29.8 0.8 29.8 0.8z"/><path fill="#FFF" d="M34.9,0.7c0.1,0,0.2,0.1,0.2,0.1C35,0.7,34.9,0.7,34.9,0.7z"/><path fill="#FFF" d="M21.6,0.7c-0.4,0.5-1.2,0.6-2.7,0.9c0,0.1,0,0.3,0,0.4c0.8,0,1.6-0.3,2.4-0.3c0.6,0,1-0.4,1.1-1 C22.1,0.7,21.8,0.7,21.6,0.7z"/><path fill="#FFF" d="M34.9,7.7c-0.1,0-0.1,0-0.2,0c0,0.1,0,0.1,0.1,0.2C34.9,7.8,34.9,7.7,34.9,7.7C35,7.7,35,7.7,34.9,7.7z"/><path fill="#FFF" d="M1.9,9C1.9,7.5,2.4,6.1,2.4,4.6c0-0.6,0.6-0.7,1.1-0.7c3.2-0.3,6.3-0.5,9.5-0.8c5.2-0.4,10.4-0.5,15.6-0.8 c1.3-0.1,2.5-0.1,3.8-0.2C32,2,31.7,2,31.3,2c-2,0.2-4,0.2-6,0.2c-0.8-0.1-1.6,0.2-2.4,0.3c-1.4-0.1-2.8,0.3-4.1-0.3 c0,0-0.1-0.1-0.1-0.1c-1.3,0.2-2.7,0.3-4,0.4c-0.1,0-0.1,0-0.2,0.1c-0.7,0.2-1.4,0.2-2.2,0.1C9.5,2.8,6.6,3,3.7,3.3 C2.4,3.5,1.8,4,1.8,5.4c0,0.8-0.1,1.6-0.5,2.3c0,0.1,0.1,0.2,0.1,0.3c0.9,4.1,0.7,8.2,0.8,12.4c0,0.4,0.1,0.8,0.2,1.1 C2.4,17.3,2.1,13.1,1.9,9z"/><path fill="#FFF" d="M7.9,22.5c-1.2,0-2.4,0-3.6,0.2c0.2,0,0.3,0,0.5,0c1-0.1,2.1-0.1,3.1,0c1.6,0.1,2,0.7,1.7,2.3 c-0.1,0.4-0.4,0.9-0.4,1.3c0.2-0.4,0.3-0.8,0.4-1.2C10.3,23.3,9.7,22.6,7.9,22.5z"/><path fill="#FFF" d="M34.5,7.7C34.5,7.6,34.5,7.6,34.5,7.7c-0.3-0.3-0.5-0.6-0.6-0.9c-0.1-0.8,0-1.6,0-2.3c0-0.2,0-0.4-0.1-0.6 c0,1.6-0.1,3.2,0.2,4.8c0.1-0.2,0.2-0.5,0.2-0.7C34.4,7.8,34.4,7.7,34.5,7.7z"/><path fill="#FFF" d="M14.5,2.5c0.1,0,0.1,0,0.2-0.1c-0.8,0.1-1.6,0.1-2.4,0.2C13.1,2.7,13.8,2.8,14.5,2.5z"/><path fill="#FFF" d="M8.9,27.1c0.2-0.3,0.3-0.5,0.5-0.8c-0.1-0.4,0.3-0.9,0.4-1.3c0.3-1.6-0.1-2.2-1.7-2.3c-1,0-2.1-0.1-3.1,0 c-0.2,0-0.4,0-0.5,0c-0.3,0-0.6,0.1-0.8,0.1c-0.8,0.1-1.1-0.2-1.1-1c0-0.1,0-0.3,0-0.4c-0.1-0.3-0.2-0.7-0.2-1.1 C2.2,16.2,2.3,12.1,1.4,8c0-0.1-0.1-0.2-0.1-0.3C1.3,7.8,1.2,8,1.1,8.1l0,0C1,8.9,1.6,9.5,1.6,10.2c-0.1,3.5,0.5,7,0.3,10.6 c0,0.3,0,0.7,0,1c0.1,0.9,0.5,1.4,1.5,1.5c0.9,0.1,1.8-0.3,2.7-0.3c3.6-0.1,4,0.4,2.5,3.7c-0.2,0.4-0.4,0.8,0,1.2 c0.4,0.4,0.8,0.4,1.2,0.1c-0.1-0.1-0.2-0.2-0.3-0.3C8.8,27.8,8.4,27.7,8.9,27.1z"/><path fill="#FFF" d="M33.9,6.7c0.1,0.4,0.3,0.6,0.6,0.9c-0.1-0.3-0.1-0.5-0.2-0.8l0,0l0,0c0-1.1,0-2.3,0-3.4 c0-1.5-0.3-1.9-1.9-1.8c-2.4,0-4.9,0.2-7.3,0.3c-0.6,0.4-1.2,0.2-1.8,0.3l0,0l0,0c-1.5,0-3,0-4.4,0c0,0-0.1,0-0.1,0 c0,0,0,0.1,0.1,0.1c1.3,0.5,2.7,0.1,4.1,0.3c0.8-0.1,1.6-0.3,2.4-0.3c2,0,4,0,6-0.2c0.4,0,0.7,0,1,0.1c0.1,0,0.3,0,0.4,0 c0.8-0.1,1.1,0.3,1.1,1c0,0.2,0,0.5,0,0.7c0,0.2,0.1,0.4,0.1,0.6C33.9,5.2,33.9,6,33.9,6.7z"/><path fill="#FFF" d="M18.7,2c0,0-0.1,0-0.1,0C18.7,2,18.7,2,18.7,2C18.7,2,18.7,2,18.7,2z"/><path fill="#FFF" d="M3.1,2.9c1.6-0.2,3.2-0.3,4.8-0.4C6.2,2.6,4.5,2.8,2.8,2.9C1.8,3,1.3,3.6,1.2,4.5c0,0.7-0.1,1.3,0,2 c0-0.6,0-1.2,0.1-1.8C1.4,3.5,1.8,3,3.1,2.9z"/><path fill="#FFF" d="M1.2,6.5c0-0.7,0-1.3,0-2c0.1-1,0.6-1.5,1.5-1.6c1.7-0.2,3.4-0.3,5.1-0.4c1.8-0.1,3.6-0.2,5.4-0.1 c1.4,0,2.7-0.6,4.1-0.5c0.4,0,0.8-0.1,1.2,0.1c0,0,0.1,0,0.1,0c0-0.1,0-0.3,0.1-0.4v0c-1.7-0.1-3.3,0.5-4.9,0.5 c-3.9,0-7.8,0.1-11.7,0.2c-0.7,0-1.1,0.2-1.4,0.9c-0.7,1.7-0.4,3.3,0.2,5v0C1.1,7.6,1.2,7.1,1.2,6.5z"/><path fill="#FFF" d="M18.9,2.1c0,0,0-0.1,0-0.1c0,0,0,0-0.1,0c0,0,0,0-0.1,0c0,0,0,0,0,0.1C18.8,2,18.8,2.1,18.9,2.1z"/><path fill="#FFF" d="M18.7,2C18.8,2,18.8,2,18.7,2c0.1,0,0.1,0,0.1,0c0-0.1,0-0.3,0-0.4C18.8,1.7,18.7,1.8,18.7,2z"/><path fill="#FFF" d="M1.8,5.4C1.8,4,2.4,3.5,3.7,3.3C6.6,3,9.5,2.8,12.3,2.6c0,0-0.1,0-0.1,0c-1.4-0.2-2.9-0.2-4.3-0.1 C6.3,2.6,4.7,2.7,3.1,2.9C1.8,3,1.4,3.5,1.2,4.7c-0.1,0.6,0,1.2-0.1,1.8c0,0.4,0.1,0.8,0.2,1.1C1.7,7,1.8,6.2,1.8,5.4z"/><path fill="#FFF" d="M14.7,2.5c1.4-0.1,2.7-0.2,4-0.4c0,0,0-0.1,0-0.1c0,0-0.1,0-0.1-0.1C17.3,1.9,16,2.1,14.7,2.5z"/><path fill="#FFF" d="M1.3,7.7C1.2,7.3,1.2,6.9,1.2,6.5c0,0.5,0,1-0.1,1.6v0l0,0C1.2,8,1.3,7.8,1.3,7.7z"/><path fill="#FFF" d="M12.2,2.6c0,0,0.1,0,0.1,0c0.8-0.1,1.6-0.1,2.4-0.2c1.3-0.4,2.6-0.6,3.9-0.5c-0.4-0.2-0.8-0.1-1.2-0.1 c-1.4,0-2.7,0.5-4.1,0.5c-1.8,0-3.6,0-5.4,0.1C9.3,2.4,10.8,2.4,12.2,2.6z"/><path fill="#FFF" d="M18.7,2C18.8,2,18.8,2.1,18.7,2c0.1,0.1,0.1,0.1,0.1,0.1C18.8,2.1,18.8,2,18.7,2z"/><path fill="#FFF" d="M12.9,24.8c0.1-0.1,0.3-0.2,0.4-0.2c0-0.1,0-0.3-0.1-0.4C13.1,24.4,13,24.6,12.9,24.8z"/><path fill="#FFF" d="M13.5,23.1c0.2-0.3,0.5-0.6,1-1c0.9-0.1,1.8,0,2.7-0.3c0.1,0,0.3-0.1,0.4-0.1c0.5,0,0.9-0.1,1.3-0.3 c-1.4,0.3-2.7,0.5-4.1,0.5C14.2,22,13.7,22.6,13.5,23.1z"/><path fill="#FFF" d="M12.9,24.8c-0.7,1.1-1.9,1.7-2.9,2.5c-0.1,0.1-0.2,0.2-0.3,0.2c0,0.2,0.1,0.3,0,0.5l0,0l0,0 c1.2-1.1,2.8-1.7,3.7-3.1l0,0c0-0.1-0.1-0.2-0.1-0.3C13.2,24.6,13,24.7,12.9,24.8z"/><path fill="#FFF" d="M14.7,22.5c0.9-0.4,1.9-0.2,2.9-0.3c0,0,0.1-0.1,0.2-0.1c0.5-0.2,1.1-0.1,1.7-0.2l0,0 c0.3-0.1,0.7-0.2,1-0.2l0,0l0,0c-0.1-0.1-0.1-0.3-0.1-0.4c-0.5,0.1-1,0.2-1.4,0.3c-0.4,0.2-0.9,0.3-1.3,0.3c-0.1,0-0.3,0-0.4,0.1 c-0.9,0.2-1.8,0.1-2.7,0.3c-0.5,0.3-0.8,0.7-1,1c0,0.1,0,0.1,0,0.2c-0.1,0.3-0.1,0.6-0.2,0.8c0,0.1,0,0.2,0.1,0.4c0,0,0,0,0,0 c0,0,0.1,0,0.1,0C13.7,23.7,14,23,14.7,22.5z"/><path fill="#FFF" d="M19.4,22c0,0-0.1,0-0.1,0.1C19.3,22,19.3,22,19.4,22z"/><path fill="#FFF" d="M13.3,24.5C13.3,24.5,13.3,24.5,13.3,24.5c0,0.1,0,0.2,0.1,0.3c0-0.1,0-0.3,0.1-0.4 C13.4,24.5,13.4,24.5,13.3,24.5z"/><path fill="#FFF" d="M9.7,27.5c-0.1,0.1-0.2,0.2-0.3,0.2c0.1,0.1,0.2,0.2,0.3,0.3l0,0C9.8,27.8,9.7,27.6,9.7,27.5z"/><path fill="#FFF" d="M35.5,8.2c0-0.2,0-0.4,0-0.6c0,0-0.1,0.1-0.1,0.1c0,0.1,0,0.2,0,0.3C35.4,8.1,35.4,8.1,35.5,8.2z"/><path fill="#FFF" d="M35.5,1.3c0.2-0.5-0.3-0.7-0.8-0.8c-1.7-0.3-3.4-0.1-5,0.2c-1.8,0.3-3.6-0.1-5.4,0.2c-0.3,0-0.5,0-0.7-0.2 c-0.1,0-0.2,0-0.3,0c0.1,0.1,0.3,0.3,0.6,0.4c0.3,0,0.7,0,1,0h0c0.5,0,1,0,1.6,0c1.1-0.4,2.3-0.1,3.4-0.3h0 c1.3,0.1,2.6-0.1,3.9-0.3c0.4,0,0.7,0,1.1,0.1c0.1,0,0.2,0.1,0.2,0.1C35.2,0.9,35.3,1,35.3,1c0,1,0,2.1,0,3.1 c0.4,0.6,0.2,1.2,0,1.8v0c0,0.2,0,0.3,0,0.5c0,0.4,0,0.8,0,1.1c0,0,0.1-0.1,0.1-0.1c0-0.5,0.1-1,0.2-1.5C35.8,4.4,35,2.9,35.5,1.3z"/><path fill="#FFF" d="M35.8,8.4c-0.1-2-0.1-4-0.1-6.1c0-0.6,0-1.1-0.1-1.4c0,1-0.3,2,0.1,3c0,0.1,0,0.2,0.1,0.4 c0,0.6,0,1.2,0,1.8c0,0.2,0,0.4,0,0.5c-0.2,0.3-0.1,0.7-0.3,1c0,0.2,0,0.4,0,0.6c0.1,0.2,0.2,0.4,0.4,0.6c0,0,0.1,0.1,0.1,0.1 C35.9,8.7,35.8,8.6,35.8,8.4z"/><path fill="#FFF" d="M33.5,0c-2.6,0.3-5.3,0.5-7.9,0.5c-0.2,0-0.4,0-0.6,0c-0.2,0-0.3,0-0.5,0.1c0.2,0.1,0.4,0.1,0.6,0.1 c0.4,0,0.9,0,1.3,0c1.2,0,2.3,0,3.5-0.2C31.1,0.5,32.3,0.2,33.5,0c0.6,0.1,1.1,0.3,1.7,0.4c0.2,0.1,0.3,0.2,0.4,0.4 C35.4,0.1,34.9-0.1,33.5,0z"/><path fill="#FFF" d="M35.7,4.3c0-0.1,0-0.2-0.1-0.4c-0.4-1,0-2-0.1-3c-0.1-0.2-0.2-0.3-0.4-0.4c-0.6-0.1-1.1-0.3-1.7-0.4 c-1.2,0-2.4,0.3-3.6,0.3c-1.1,0.2-2.3,0.3-3.5,0.2c-0.4,0-0.9,0-1.3,0c-0.2,0-0.4,0-0.6-0.1c-0.3,0-0.6,0.1-1,0.1 c0.2,0.2,0.4,0.3,0.7,0.2c1.8-0.3,3.6,0,5.4-0.2c1.6-0.2,3.3-0.4,5-0.2c0.5,0.1,1,0.2,0.8,0.8C35,2.9,35.8,4.4,35.6,6 c-0.1,0.5-0.2,1-0.2,1.5c0.2-0.3,0.1-0.7,0.3-1c0-0.2,0-0.4,0-0.5C35.7,5.5,35.7,4.9,35.7,4.3z"/><path fill="#FFF" d="M35.2 7.8L35.2 7.8 35.2 7.8z"/><path fill="#FFF" d="M35.2,7.8c0-0.4,0-0.8,0.2-1.3c-0.5,0.2-0.2,0.8-0.4,1.1C35,7.7,35.1,7.7,35.2,7.8 C35.2,7.8,35.2,7.8,35.2,7.8z"/><path fill="#FFF" d="M35,7.7c0,0.1-0.1,0.1-0.1,0.2c0.1,0,0.3,0,0.3,0C35.1,7.7,35,7.7,35,7.7z"/><path fill="#FFF" d="M35.2,7.8c0.1,0.1,0.1,0.1,0.2,0.2c0-0.1,0-0.2,0-0.3C35.3,7.7,35.2,7.8,35.2,7.8 C35.2,7.8,35.2,7.8,35.2,7.8z"/><path fill="#FFF" d="M35.4,7.7c0-0.4,0-0.8,0-1.1c-0.1,0.4-0.2,0.8-0.2,1.3C35.2,7.8,35.3,7.7,35.4,7.7z"/><path fill="#FFF" d="M17.5,22.2c-0.9,0.4-1.9-0.1-2.9,0.3C15.6,22.4,16.6,22.7,17.5,22.2L17.5,22.2L17.5,22.2z"/><path fill="#FFF" d="M17.5 22.2L17.5 22.2 17.5 22.2z"/><path fill="#FFF" d="M17.5,22.2L17.5,22.2c-1,0.1-1.9-0.2-2.9,0.3C15.6,22.1,16.6,22.6,17.5,22.2z"/><path fill="#FFF" d="M19.4 22L19.4 22 19.4 22z"/><path fill="#FFF" d="M17.7,22.2c-0.1,0-0.1,0-0.2,0.1l0,0l0,0l0,0l0,0c0,0,0,0,0,0c0.6,0,1.2,0.1,1.7-0.2 C18.8,22.3,18.2,22,17.7,22.2z"/><path fill="#FFF" d="M17.5 22.2L17.5 22.2 17.5 22.2z"/><path fill="#FFF" d="M19.3,22c0,0,0.1,0,0.1-0.1c0,0,0,0,0,0c-0.6,0.1-1.1,0-1.7,0.2C18.2,22,18.8,22.3,19.3,22z"/><path fill="#FFF" d="M17.5 22.2L17.5 22.2 17.5 22.2z"/><path fill="#FFF" d="M34.6,7.8c0.1,0,0.2,0,0.3,0c-0.1-0.1-0.2-0.1-0.2-0.2C34.6,7.7,34.6,7.8,34.6,7.8z"/><path fill="#FFF" d="M34.6,7.6c0.1,0,0.1,0,0.2,0c-0.1-0.3-0.2-0.6-0.5-0.8C34.4,7.1,34.6,7.3,34.6,7.6 C34.6,7.6,34.6,7.6,34.6,7.6z"/><path fill="#FFF" d="M34.6,7.6C34.6,7.6,34.6,7.6,34.6,7.6C34.6,7.6,34.6,7.7,34.6,7.6c0.1,0.1,0.2,0.1,0.2,0.2 c0-0.1,0-0.1-0.1-0.2C34.7,7.6,34.6,7.6,34.6,7.6z"/><path fill="#FFF" d="M34.5,7.7C34.5,7.7,34.6,7.7,34.5,7.7C34.5,7.6,34.5,7.6,34.5,7.7C34.5,7.6,34.5,7.6,34.5,7.7z"/><path fill="#FFF" d="M34.6,7.7C34.6,7.7,34.6,7.7,34.6,7.7C34.6,7.7,34.5,7.7,34.6,7.7c0,0.1,0,0.1,0,0.2 C34.6,7.8,34.6,7.7,34.6,7.7z"/><path fill="#FFF" d="M34.5,7.6C34.5,7.6,34.5,7.6,34.5,7.6C34.6,7.6,34.6,7.6,34.5,7.6c0.1-0.2-0.1-0.5-0.2-0.8l0,0 C34.4,7.1,34.4,7.3,34.5,7.6z"/><path fill="#FFF" d="M34.6 7.7L34.6 7.6 34.6 7.7z"/><path fill="#FFF" d="M29.8,0.8c-1.1,0.4-2.3,0-3.4,0.3C27.6,1.1,28.7,1.3,29.8,0.8L29.8,0.8L29.8,0.8z"/><path fill="#FFF" d="M29.8 0.8L29.8 0.8 29.8 0.8z"/><path fill="#FFF" d="M29.8,0.8c-1.1,0.1-2.3-0.2-3.4,0.3C27.6,0.7,28.7,1.1,29.8,0.8z"/><path fill="#FFF" d="M35.4,4.2c-0.3-1-0.1-2.1,0-3.1C34.9,2.1,34.8,3.1,35.4,4.2L35.4,4.2C35.3,4.2,35.4,4.2,35.4,4.2z"/><path fill="#FFF" d="M35.4,4.2L35.4,4.2c0-1,0-2.1,0-3.1C35.2,2.1,35,3.1,35.4,4.2z"/><path fill="#FFF" d="M23.3,2.1c0.6-0.3,1.2,0,1.8-0.3C24.5,1.8,23.9,1.6,23.3,2.1z"/><path fill="#FFF" d="M25.1,1.8c-0.6,0.2-1.2,0-1.8,0.3l0,0C23.9,2.1,24.6,2.2,25.1,1.8z"/><path fill="#FFF" d="M35.4 4.2L35.4 4.2 35.4 4.2z"/><path fill="#FFF" d="M35.4,4.2L35.4,4.2L35.4,4.2L35.4,4.2C35.4,4.2,35.3,4.2,35.4,4.2c0.1,0.6-0.3,1.2,0,1.8l0,0 C35.3,5.4,35.7,4.8,35.4,4.2z"/><path fill="#FFF" d="M35.4,4.2L35.4,4.2L35.4,4.2c0.3,0.6,0,1.2,0,1.8C35.6,5.4,35.7,4.8,35.4,4.2z"/><path fill="#FFF" d="M35.4 4.2L35.4 4.2 35.4 4.2z"/><path fill="#FFF" d="M35.3 4.2L35.4 4.2 35.4 4.2z"/><path fill="#FFF" d="M35.1,0.8c-0.1,0-0.1-0.1-0.2-0.1c-0.4-0.1-0.8,0.1-1.1-0.1C34.1,1.1,34.6,0.7,35.1,0.8L35.1,0.8L35.1,0.8z"/><path fill="#FFF" d="M34.9,0.7c-0.3-0.1-0.7-0.1-1.1-0.1C34.1,0.8,34.5,0.6,34.9,0.7z"/><path fill="#FFF" d="M23.8,1c0.4,0.6,0.7,0.2,1,0h0C24.5,1.2,24.2,1.2,23.8,1z"/><path fill="#FFF" d="M24.9,1c-0.3,0-0.7,0-1,0C24.2,1.2,24.5,1.2,24.9,1z"/><path fill="#FFF" d="M19.3,22.2c0.7-0.1,1.4-0.2,2.1-0.4c0.5-0.1,0.3-0.8-0.2-0.7c-0.7,0.1-1.4,0.3-2.1,0.4 C18.7,21.6,18.9,22.3,19.3,22.2L19.3,22.2z"/><path fill="#FFF" d="M33.9,6.5c0,0.6,0.1,1.3,0.1,1.9c0,0.8,1.3,0.8,1.2,0c0-0.6-0.1-1.3-0.1-1.9C35.2,5.7,33.9,5.7,33.9,6.5 L33.9,6.5z"/><path fill="#FFF" d="M34.5,6.5c0,0.6,0.1,1.3,0.1,1.9c0,0.8,1.3,0.8,1.2,0c0-0.6-0.1-1.3-0.1-1.9C35.7,5.7,34.5,5.7,34.5,6.5 L34.5,6.5z"/></svg>