<svg id="Слой_1" xmlns="http://www.w3.org/2000/svg" viewBox="0 0 39.6 39.2"><path fill="#FFF" d="M30.8,7.9c0,0-0.1-0.1-0.1-0.1C30.7,7.8,30.7,7.8,30.8,7.9z"/><path fill="#FFF" d="M36,32.2c1.3-1.3,0.6-2.9,0.8-4.4c0-0.2-0.3-0.5-0.5-0.6c-0.9-0.5-1.8-1-2.8-0.3c-0.8,0.7-2.1,0.7-2.9,1.6 c-1.5,1.9-1.6,2.4-0.6,4.2C32.3,34.8,34.2,33.5,36,32.2z M31.2,31.1c0-0.9,1.2-2.1,2.2-2c1,0,1.5,0.7,1.5,1.6 c0,0.9-1.1,1.9-2.3,1.9C31.8,32.4,31.2,32.1,31.2,31.1z"/><path fill="#FFF" d="M35.9,34.3c-1.1,0-2.2,1-2.2,1.9c0,1.2,1.3,2.9,2.2,2.9c1.2,0.1,2.4-1.5,2.4-2.9 C38.2,35.3,37.1,34.3,35.9,34.3z M36.2,37.1c-0.2,0-0.3-0.2-0.2-0.4c0-0.1,0.1-0.2,0.2-0.3c0.2-0.1,0.2,0.1,0.3,0.3 C36.4,37,36.4,37.1,36.2,37.1z"/><path fill="#FFF" d="M37.6,10.7c-0.2-0.1-0.4-0.2-0.5-0.3l0,0l0,0c0.7,1.9,1.5,3.8,2,5.9c0.6,3.1-1.6,7.5-5.2,8.2 c-1,0.2-2.1,0.5-3.1,0.5c-1.3-0.1-1.7,0.5-1.9,1.6c-0.1,0.7-0.3,1.5-1.2,1.6l0,0c-0.1,0.3-0.2,0.7-0.3,1c0.1,0,0.2,0,0.3,0 c1.1-0.7,1.7-1.7,1.8-3c0-0.6,0.3-0.8,0.9-0.8c1.4,0.1,2.7-0.3,4-0.6c2.7-0.6,4.2-2.7,4.9-5.1C40.2,16.7,39.1,13.6,37.6,10.7z"/><path fill="#FFF" d="M20.8,31.7c-2.3,3.8-5.8,5.1-10,5.2c-1.4,0-2.7,0-4.1-0.7c-1.1-0.5-1.7-0.7-2.2-0.5C4.7,35.8,5,36,5.3,36.1 c0.4,0.1,0.9,0.3,1.6,0.6c0.5,0.2,0.9,0.5,1.5,0.5c2.5,0.2,5.1,0.1,7.4-0.7c2.2-0.8,4-2.2,5-4.5C20.8,31.9,20.8,31.8,20.8,31.7z"/><path fill="#FFF" d="M30.6,7.7c-0.2-0.3-0.2-0.6-0.2-0.9v0l0,0c-0.4,0.7-0.4,1.6,0.5,1.6c2,0.1,3.8,0.6,5.5,1.5l0,0v0 c-0.2-0.3-0.4-0.6-0.5-0.8c-1.5-1.3-3.4-1.2-5.2-1.3C30.7,7.8,30.7,7.8,30.6,7.7z"/><path fill="#FFF" d="M27.2,29.4c-1.3,0.7-2.6,1.1-4.1,0.6c-1.4-0.5-1.7,0.9-2.3,1.7c0,0,0,0,0,0c0.1,0.1,0.1,0.3,0,0.4 c0.2-0.1,0.4-0.3,0.5-0.4c0.5-1.3,1.4-1.5,2.7-1.1c1.3,0.4,2.6,0,3.6-1.2C27.5,29.5,27.4,29.4,27.2,29.4z"/><path fill="#FFF" d="M27.3,29.3C27.3,29.3,27.3,29.3,27.3,29.3c0.1,0.1,0.2,0.1,0.3,0C27.5,29.3,27.4,29.3,27.3,29.3L27.3,29.3z"/><path fill="#FFF" d="M20.8,31.7C20.8,31.7,20.8,31.7,20.8,31.7C20.8,31.7,20.8,31.7,20.8,31.7L20.8,31.7c0,0.1,0,0.3,0,0.4 C20.9,31.9,20.9,31.8,20.8,31.7z"/><path fill="#FFF" d="M36,32.2c-0.5,0.6-1.1,1-1.7,1.4c-1.6,0.9-2.8,0.6-4.2-0.8c0.1,0.2,0.1,0.4,0.2,0.6 C31.3,35,35.2,34.1,36,32.2z"/><path fill="#FFF" d="M34.3,33.6c0.6-0.3,1.2-0.8,1.7-1.4c-1.9,1.3-3.7,2.6-5.9,0.5C31.5,34.2,32.7,34.5,34.3,33.6z"/><path fill="#FFF" d="M23.2,0c-0.2,0.1-0.4,0.3-0.6,0.3c-0.1,0-0.2,0-0.4,0.1c0,0-0.1,0-0.1,0c-0.1,0.1-0.2,0.1-0.4,0.1 C21.4,0.8,21,1,20.6,1.1c-0.1,0.1-0.1,0.3-0.2,0.4c0,0.1-0.1,0.2-0.2,0.2c0.4,0.1,0.8-0.2,1.1-0.4c1.2-0.6,2.4-0.8,3.6-0.7 c0-0.1,0-0.2,0-0.3c-0.3-0.3-0.7-0.2-1-0.3v0v0C23.7,0,23.5,0,23.2,0z"/><path fill="#FFF" d="M28.1,2.1L28.1,2.1c1.2,1,2.2,2,2.4,3.7c0.1,0.3,0.1,0.7,0,1c0.3,0.2,0,0.6,0.2,0.9c0,0,0.1,0.1,0.1,0.1 c0.5-2.7-0.3-4.6-2.3-5.8C28.3,2.1,28.2,2.1,28.1,2.1L28.1,2.1z"/><path fill="#FFF" d="M30.5,6.8c0,0.3,0,0.6,0.2,0.9C30.5,7.4,30.8,7,30.5,6.8C30.5,6.8,30.5,6.8,30.5,6.8L30.5,6.8z"/><path fill="#FFF" d="M25,0.6c1.1,0.3,2.3,0.5,3.1,1.5c0,0,0,0,0,0c0.1-0.1,0.2,0,0.3,0c-0.7-1.4-2.1-1.5-3.5-1.8 C25,0.4,25,0.5,25,0.6z"/><path fill="#FFF" d="M25,0.5C25,0.6,25,0.6,25,0.5C25,0.5,25,0.4,25,0.3C25,0.4,25,0.5,25,0.5L25,0.5z"/><path fill="#FFF" d="M28.1,2C28.1,2,28.1,2.1,28.1,2C28.1,2.1,28.1,2.1,28.1,2L28.1,2c0.1,0.1,0.2,0,0.3,0C28.3,2,28.2,2,28.1,2 z"/><path fill="#FFF" d="M33.6,26.9c-1,0.4-2.5,0.1-2.9,1.6C31.3,27.4,32.6,27.5,33.6,26.9z"/><path fill="#FFF" d="M33.6,26.9c-0.9,0.6-2.3,0.4-2.9,1.6C31.5,27.7,32.7,27.7,33.6,26.9z"/><path fill="#FFF" d="M36.5,10c0.1,0.2,0.3,0.3,0.4,0.5c0.3-0.1,0.4,0.1,0.6,0.3C37.3,10,36.8,9.4,36,9.1 C36.2,9.4,36.7,9.5,36.5,10z"/><path fill="#FFF" d="M37,10.4C37,10.5,37,10.5,37,10.4L37,10.4c0.2,0.1,0.4,0.2,0.6,0.3C37.4,10.6,37.2,10.3,37,10.4z"/><path fill="#FFF" d="M36.5,10C36.5,10,36.5,10,36.5,10c0.1-0.4-0.3-0.5-0.5-0.8C36.2,9.4,36.3,9.7,36.5,10L36.5,10z"/><path fill="#FFF" d="M34.8,30.7c0-0.9-0.5-1.6-1.5-1.6c-1,0-2.2,1.1-2.2,2c0,1,0.7,1.3,1.4,1.4C33.7,32.6,34.9,31.6,34.8,30.7z M31.6,31.2c-0.1-0.6,1.1-1.9,1.8-1.9c0.7,0.1,1.1,0.6,1.2,1.3c0.1,0.6-1.1,1.6-1.8,1.6C32.1,32.2,31.7,31.9,31.6,31.2z"/><path fill="#FFF" d="M27.6,27.9c0-0.1,0-0.3,0-0.4c-0.3,0.1-0.5,0.2-0.8,0.3h0l-1.3,0.8l0,0c-0.6,0.3-1.2,0.3-1.8,0 c-0.9-0.3-1.3-1.2-1.9-1.8l0,0c-0.7-0.2-1,0-0.9,0.7c0.1,0.4,0.1,0.9,0.1,1.3h0c-2.3,4.2-6,6.4-10.7,6.8c-3.3,0.3-5.9-1.3-7.8-3.9 c-0.3,0.4,0.3,0.9,0,1.3h0l0,0c0.3,0.6,0.7,1.2,0.5,1.8c0.3,0.2,0.5,0.3,0.8,0.5C4,35.2,4.3,35.1,4.6,35c0.7,0,1.3,0.1,1.9,0.5 c2.2,1.2,4.6,0.6,6.9,0.4c2.6-0.2,4.5-1.6,6.2-3.5c0.3-0.4,0.6-1,1.3-0.8c-0.2-1.3,0.5-2.4,1.8-2.3c1.4,0.1,2.8,0.2,4.2-0.2 c0.1,0,0.3,0,0.4,0.1c-0.2-0.4-0.1-0.7,0.1-1.1C27.4,28.1,27.5,28,27.6,27.9z"/><path fill="#FFF" d="M27.6,27.9c-0.1,0.1-0.2,0.2-0.3,0.2c-0.2,0.4-0.3,0.7-0.1,1.1c0.1,0,0.1,0.1,0.2,0.1l0,0 c0.1-0.3,0.2-0.7,0.3-1l0,0l0,0C27.6,28.2,27.6,28,27.6,27.9z"/><path fill="#FFF" d="M20.8,31.6c-0.7-0.3-0.9,0.4-1.3,0.8c-1.6,1.9-3.6,3.3-6.2,3.5c-2.3,0.2-4.6,0.8-6.9-0.4 C5.9,35.2,5.3,35,4.6,35c-0.3,0-0.6,0.1-0.8,0.3c0.2,0.1,0.5,0.3,0.7,0.4c0.5-0.2,1.2,0,2.2,0.5c1.3,0.6,2.6,0.7,4.1,0.7 C15,36.8,18.5,35.5,20.8,31.6L20.8,31.6C20.8,31.7,20.8,31.7,20.8,31.6z"/><path fill="#FFF" d="M27.1,29.2c-0.1-0.1-0.3-0.1-0.4-0.1c-1.4,0.4-2.8,0.3-4.2,0.2c-1.2-0.1-1.9,1-1.8,2.3c0,0,0,0,0,0 c0.6-0.8,0.9-2.2,2.3-1.7c1.5,0.5,2.8,0.1,4.1-0.6c0,0,0,0,0,0C27.2,29.3,27.2,29.3,27.1,29.2z"/><path fill="#FFF" d="M27.1,29.2c0,0.1,0.1,0.1,0.1,0.2c0,0,0,0,0,0c0,0,0.1,0,0.1,0l0,0l0,0C27.3,29.3,27.2,29.2,27.1,29.2z"/><path fill="#FFF" d="M20.8,31.7L20.8,31.7L20.8,31.7C20.8,31.7,20.8,31.7,20.8,31.7C20.8,31.6,20.8,31.6,20.8,31.7 C20.8,31.7,20.8,31.7,20.8,31.7z"/><path fill="#FFF" d="M30,23.3C30,23.3,30,23.3,30,23.3C30,23.3,30,23.3,30,23.3C30,23.3,30,23.3,30,23.3z"/><path fill="#FFF" d="M36.5,10.1c-0.3,0.3-0.6,0.4-0.9,0.1C34.2,9,32.6,9,30.9,9c-0.6,0-1.1-0.3-1.2-0.9 c-0.1-0.6-0.1-1.1,0.7-1.3c-0.3-0.3-0.5-0.6-0.6-1c0-0.5-0.1-0.9-0.3-1.3c-0.1,1.6-0.8,3-1.1,4.6c-0.2,1.1,0.9,1,1.5,0.8 c2.5-1,4.5-0.1,6.2,1.7c1,1.1,1.6,2.4,1.4,4c-0.2,1-0.1,2-0.1,3c-0.1,2.6-2,4.8-4.2,5.1l0,0c-1.1,0-2.3,0.2-3.4-0.1 c-0.1,0-0.2,0-0.3-0.1l0,0h0l0,0c-0.5-0.1-1.1-0.3-1.6,0.2l0,0l0,0c0.1,0.5,0.4,1,0.3,1.6c0,0.3,0,0.5,0,0.8c0,0.5-0.2,0.9-0.4,1.4 l0,0c0.1,0.1,0.2,0.2,0.2,0.3c0.3-0.4,0.5-0.9,0.6-1.4c0.2-1.2,0.7-1.7,2-1.7c1.4,0,2.8-0.1,4.1-0.7c2.4-1.1,4.3-4.8,3.7-7.5 c-0.4-1.7-0.8-3.2-1.5-4.8c-0.2-0.4-0.2-0.6,0.1-0.9c0,0,0,0,0,0C36.7,10.5,36.5,10.4,36.5,10.1z"/><path fill="#FFF" d="M36.9,10.5c-0.2,0.3-0.2,0.6-0.1,0.9c0.6,1.6,1.1,3.1,1.5,4.8c0.6,2.8-1.3,6.4-3.7,7.5 c-1.3,0.6-2.7,0.7-4.1,0.7c-1.3,0-1.8,0.6-2,1.7c-0.1,0.5-0.3,1-0.6,1.4c0.1,0.3-0.1,0.5-0.3,0.7c1-0.1,1.1-0.9,1.2-1.6 c0.2-1.1,0.6-1.7,1.9-1.6c1,0.1,2.1-0.3,3.1-0.5c3.6-0.7,5.8-5.2,5.2-8.2c-0.4-2.1-1.2-4-2-5.9l0,0C37,10.5,37,10.5,36.9,10.5 C36.9,10.5,36.9,10.5,36.9,10.5z"/><path fill="#FFF" d="M29.7,8c0.1,0.6,0.6,0.9,1.2,0.9c1.6,0.1,3.3,0,4.6,1.3c0.3,0.3,0.6,0.2,0.9-0.1c0-0.1,0-0.1,0-0.2l0,0 C34.8,9,33,8.5,31,8.4c-0.9,0-0.9-0.9-0.5-1.6l0,0c0,0,0,0-0.1-0.1C29.6,6.9,29.6,7.5,29.7,8z"/><path fill="#FFF" d="M29.5,4.3c0,0.1,0,0.1,0,0.2c0.2,0.4,0.4,0.8,0.3,1.3c0.1,0.4,0.3,0.7,0.6,1c0,0,0,0,0,0c0,0,0,0,0.1,0 c0.1-0.3,0.1-0.7,0-1C29.9,5.5,29.9,4.8,29.5,4.3z"/><path fill="#FFF" d="M30.4,6.8C30.4,6.8,30.4,6.8,30.4,6.8C30.5,6.8,30.5,6.8,30.4,6.8C30.5,6.8,30.4,6.8,30.4,6.8 C30.4,6.8,30.4,6.8,30.4,6.8z"/><path fill="#FFF" d="M36.5,10.1c0,0.3,0.2,0.3,0.5,0.3c0,0,0,0,0,0c-0.1-0.2-0.3-0.3-0.4-0.5C36.5,10,36.5,10.1,36.5,10.1 C36.5,10.1,36.5,10.1,36.5,10.1z"/><path fill="#FFF" d="M36.9,10.5C37,10.5,37,10.5,36.9,10.5C37,10.5,37,10.5,36.9,10.5C37,10.5,37,10.5,36.9,10.5z"/><path fill="#FFF" d="M36.5,10.1C36.5,10.1,36.5,10.1,36.5,10.1c0-0.1,0.1-0.1,0.1-0.2c0,0,0,0,0,0C36.5,10,36.5,10.1,36.5,10.1z"/><path fill="#FFF" d="M27.7,27.3L27.7,27.3c0,0.1-0.1,0.1-0.1,0.2h0c0,0.1,0,0.3,0,0.4c0.1-0.1,0.2-0.2,0.3-0.3 C27.9,27.5,27.8,27.4,27.7,27.3z"/><path fill="#FFF" d="M27.9,27.6c-0.1,0.1-0.2,0.2-0.3,0.3c0,0.1,0,0.2,0,0.4l0,0C27.8,28.1,28,27.8,27.9,27.6z"/><path fill="#FFF" d="M36.9,14.6c-0.3-3.4-3.9-5.6-6.8-4.4c-0.8,0.3-1.5,0.3-2.1-0.2c-0.6-0.5-0.2-1.1,0-1.7 c0.4-1.2,0.9-2.3,0.7-3.5c0-0.3,0.1-0.6,0.3-0.8c-0.2-0.2-0.4-0.4-0.5-0.6c-0.3-0.4-0.8-0.6-0.5-1.2c-1.2-0.2-2.4-0.2-3.1-1.5 c0,0,0,0,0,0.1c-1.4,0.7-2.9,0.9-4.3,1.4c-0.3,0.1-0.6,0-0.7-0.4c0,0-0.1,0-0.1,0c-0.1,0-0.1-0.1-0.2-0.1c-0.5,0.9-1.3,1.6-2.3,1.9 c0.1,0.2,0.1,0.4,0.2,0.6C17.6,5,18,5.6,18.8,5.7c0.8,0.1,1.1-0.5,1.5-1.1c0.7-1.2,1.6-2.1,3.1-2.2c1.8-0.1,3.3,0.5,4.6,1.8 c1.1,1.1,0.5,2.2,0.2,3.4C28.1,7.7,28,8,27.9,8.1c-0.4,0.7-0.7,1.5-0.2,2.1c0.5,0.5,1.4,0.3,2.1,0.2c4.3-0.9,6.9,1.2,6.8,5.7 c0,2.1,0,4.2-1.6,5.8c0,0.1,0,0.1-0.1,0.2c1-0.8,1.7-2.1,1.8-3.6C36.9,17.2,37,15.9,36.9,14.6z"/><path fill="#FFF" d="M20.6,2.1c1.4-0.6,3-0.8,4.3-1.4c0,0,0,0,0-0.1c0,0,0-0.1-0.1-0.1v0c-1.3-0.1-2.5,0.1-3.6,0.7 c-0.3,0.2-0.7,0.5-1.1,0.4c-0.1,0-0.1,0.1-0.2,0.1C20,2.1,20.4,2.2,20.6,2.1z"/><path fill="#FFF" d="M20,1.8c0.1,0,0.1-0.1,0.2-0.1c-0.1,0-0.1,0-0.2-0.1l0,0v0C20,1.7,20,1.7,20,1.8z"/><path fill="#FFF" d="M28.6,3.3c0.2,0.2,0.4,0.4,0.5,0.6c0.1,0,0.2-0.1,0.3-0.1c0.5-0.1,0.5,0.4,0.6,0.7c0.1,0.4,0.3,0.8,0.5,1.2 c-0.1-1.6-1.2-2.7-2.4-3.7l0,0c0,0,0,0-0.1,0C27.7,2.7,28.3,3,28.6,3.3z"/><path fill="#FFF" d="M28.1,2.1C28.1,2.1,28.1,2.1,28.1,2.1c-0.7-1-1.9-1.2-3-1.5c0,0,0,0,0,0.1C25.7,1.9,26.9,1.9,28.1,2.1z"/><path fill="#FFF" d="M25,0.6C25,0.6,25,0.6,25,0.6C25,0.6,25,0.6,25,0.6L25,0.6L25,0.6C25,0.6,25,0.6,25,0.6z"/><path fill="#FFF" d="M28.1,2.1C28.1,2.1,28.1,2.1,28.1,2.1C28.1,2.1,28.1,2.1,28.1,2.1C28.1,2.1,28.1,2.1,28.1,2.1z"/><path fill="#FFF" d="M28.8,4.7C28.9,6,28.4,7.1,28,8.3c-0.2,0.6-0.6,1.2,0,1.7c0.6,0.5,1.3,0.5,2.1,0.2c2.9-1.2,6.4,1,6.8,4.4 c0.1,1.3,0,2.6,0,3.9c-0.1,1.5-0.8,2.8-1.8,3.6c-0.4,0.8-1.4,0.9-2,1.5c2.2-0.3,4.1-2.5,4.2-5.1c0.1-1-0.1-2,0.1-3 c0.3-1.6-0.4-2.9-1.4-4c-1.7-1.8-3.7-2.7-6.2-1.7c-0.6,0.2-1.7,0.4-1.5-0.8c0.3-1.5,1-2.9,1.1-4.6c-0.1-0.2-0.2-0.3-0.3-0.5 C28.8,4.1,28.7,4.4,28.8,4.7z"/><path fill="#FFF" d="M29.4,3.9c-0.1,0-0.2,0-0.3,0.1c0.1,0.2,0.2,0.3,0.3,0.5c0-0.1,0-0.1,0-0.2c0.4,0.5,0.5,1.2,1,1.5 C30.3,5.4,30.1,5,30,4.6C29.9,4.3,29.9,3.8,29.4,3.9z"/><path fill="#FFF" d="M21.3 0L21.3 0 21.3 0z"/><path fill="#FFF" d="M2.2,33.3C2.2,33.3,2.2,33.3,2.2,33.3c0-0.1-0.1-0.2-0.1-0.3c0-0.1,0-0.3-0.1-0.5c0,0-0.1-0.1-0.1-0.1 c-0.4-0.3-0.8-0.6-1.3-0.9C1,32.3,1.5,32.8,2.2,33.3z"/><path fill="#FFF" d="M2.2,33.3c0-0.2,0-0.4,0-0.6c-0.1,0-0.1-0.1-0.2-0.1c0,0.2,0.1,0.3,0.1,0.5C2.1,33.2,2.1,33.2,2.2,33.3z"/><path fill="#FFF" d="M16,33.3C16,33.3,16,33.3,16,33.3C16,33.3,16,33.3,16,33.3z"/><path fill="#FFF" d="M15.8,33.4c-0.5,0.3-1,0.5-1.5,0.8C14.8,34,15.3,33.7,15.8,33.4z"/><path fill="#FFF" d="M17.6,32.1c0.6-0.4,1.1-0.9,1.6-1.4c0.3-0.3,0.4-0.6,0.5-0.9C19.1,30.6,18.5,31.4,17.6,32.1z"/><path fill="#FFF" d="M19.8,29.8c-0.1,0.3-0.2,0.6-0.5,0.9c-0.5,0.5-1.1,0.9-1.6,1.4c0,0-0.1,0.1-0.1,0.1c-0.5,0.4-1,0.7-1.5,1.1 c0,0,0,0,0,0c-0.1,0-0.1,0.1-0.2,0.1c-0.5,0.3-1,0.5-1.5,0.8c-2.7,1.2-5.7,1.4-8.7-0.2c-0.6-0.3-1.2-0.8-1.6-1.3 c-0.2-0.2-0.4-0.4-0.6-0.6c-0.2-0.3-0.4-0.6-0.8-0.6c0,0,0,0,0,0c0,0.1,0,0.1,0,0.2l0,0c2,2.6,4.5,4.1,7.8,3.9 C15,35.2,18.7,33,21,28.8c-0.1,0-0.2,0-0.3,0C20.4,29.1,20.1,29.5,19.8,29.8z"/><path fill="#FFF" d="M1.9,31.9c0.1,0.2,0.2,0.4,0.2,0.6c0,0.1,0.1,0.1,0.1,0.2c0,0.1,0,0.1,0,0.2c0,0,0.1,0.1,0.1,0.1l0,0 c0.3-0.4-0.3-0.9,0-1.3v0c0-0.1-0.1-0.1-0.1-0.2C2.1,31.6,2,31.7,1.9,31.9z"/><path fill="#FFF" d="M2,32.6c0.1,0,0.1,0.1,0.2,0.1c0.1,0,0.1,0.1,0.2,0.1c0-0.1,0-0.1,0-0.2c0-0.1-0.1-0.1-0.1-0.2 c-0.1-0.2-0.2-0.4-0.2-0.6C1.9,32.1,1.9,32.4,2,32.6z"/><path fill="#FFF" d="M2.4,31.5c0,0-0.1,0-0.1,0c0,0.1,0.1,0.1,0.1,0.2C2.4,31.6,2.4,31.5,2.4,31.5z"/><path fill="#FFF" d="M26.7,27.4C26.7,27.4,26.7,27.4,26.7,27.4c0.2,0,0.2-0.1,0.3-0.1c0,0,0-0.1,0.1-0.1 C26.9,27.2,26.8,27.3,26.7,27.4z"/><path fill="#FFF" d="M27,27.3c-0.1,0-0.2,0-0.2,0.1c0,0-0.1,0-0.1,0c-0.2,0.1-0.4,0.2-0.6,0.4c-1.4,0.9-2.5,0.7-3.4-0.7 c-0.1-0.2-0.3-0.3-0.5-0.4c-0.1,0-0.2,0-0.3,0.1l0,0l0,0c0.6,0.6,1,1.5,1.9,1.8c0.6,0,1.2,0,1.8,0l0,0l0,0c0.4-0.3,0.9-0.5,1.3-0.8 l0,0l0,0C26.8,27.6,26.9,27.5,27,27.3z"/><path fill="#FFF" d="M21.9,26.5c-0.3-0.3-0.7-0.4-1.1-0.2c-0.5,0.3-0.4,0.9-0.2,1.4c0.1,0.3,0.1,0.6,0.1,0.8 c0.1,0,0.2,0.1,0.3,0.2l0,0h0c0-0.4,0-0.9-0.1-1.3c-0.1-0.7,0.2-1,0.9-0.7C21.8,26.7,21.9,26.6,21.9,26.5z"/><path fill="#FFF" d="M20.7,28.6c0,0.1,0,0.1,0,0.2c0.1,0,0.2,0,0.3,0l0,0C20.9,28.7,20.8,28.6,20.7,28.6z"/><path fill="#FFF" d="M22.1,26.7c-0.1-0.1-0.1-0.1-0.2-0.2c-0.1,0.1-0.1,0.1-0.2,0.2l0,0C21.9,26.7,22,26.7,22.1,26.7z"/><path fill="#FFF" d="M2.3,33.8c0-0.1-0.1-0.3-0.2-0.4l0,0C2.2,33.5,2.3,33.7,2.3,33.8z"/><path fill="#FFF" d="M2.2,33.3C2.2,33.3,2.2,33.4,2.2,33.3L2.2,33.3C2.2,33.4,2.2,33.3,2.2,33.3C2.2,33.3,2.2,33.3,2.2,33.3z"/><path fill="#FFF" d="M2.2,33.3C2.2,33.3,2.2,33.4,2.2,33.3C2.2,33.4,2.2,33.3,2.2,33.3c0.1-0.1,0.2-0.3,0.2-0.4 c-0.1-0.1-0.1-0.1-0.1-0.2C2.2,32.9,2.2,33.1,2.2,33.3z"/><path fill="#FFF" d="M2.3,32.9c0,0,0.1,0.1,0.1,0.1C2.4,33,2.4,32.9,2.3,32.9C2.3,32.9,2.3,32.9,2.3,32.9z"/><path fill="#FFF" d="M2.3,32.9C2.3,32.9,2.3,32.9,2.3,32.9c0-0.1-0.1-0.2-0.1-0.2C2.2,32.8,2.3,32.9,2.3,32.9z"/><path fill="#FFF" d="M27.1,27.1c0,0,0,0.1,0,0.1c0.1,0,0.2,0,0.3,0c-0.1-0.2,0-0.5,0.1-0.7C27.4,26.7,27.2,26.9,27.1,27.1 C27.1,27.1,27.1,27.1,27.1,27.1z"/><path fill="#FFF" d="M27.5,27.2c-0.1,0-0.2,0-0.3,0c0.1,0.2-0.1,0.4-0.3,0.5c0.3-0.1,0.5-0.2,0.8-0.3l0,0 C27.5,27.4,27.5,27.3,27.5,27.2z"/><path fill="#FFF" d="M27.5,26.5c-0.1,0.2-0.1,0.5-0.1,0.7c0.1,0,0.1,0,0.2,0.1c0.2-0.4,0.4-0.9,0.4-1.4 C27.9,26.1,27.7,26.3,27.5,26.5C27.5,26.5,27.5,26.5,27.5,26.5z"/><path fill="#FFF" d="M27.6,27.5L27.6,27.5L27.6,27.5c0-0.1,0.1-0.1,0.1-0.2c-0.1,0-0.1-0.1-0.2-0.1 C27.5,27.3,27.5,27.4,27.6,27.5z"/><path fill="#FFF" d="M27.1,27.1C27,27.1,27,27.2,27.1,27.1L27.1,27.1c0,0.1-0.1,0.1-0.1,0.2c0.1,0,0.1,0,0.2,0 C27.1,27.2,27.1,27.2,27.1,27.1C27.1,27.1,27.1,27.1,27.1,27.1z"/><path fill="#FFF" d="M27.1,27.3c-0.1,0-0.1,0-0.2,0c-0.1,0.2-0.1,0.3-0.2,0.5l0,0C27,27.6,27.2,27.5,27.1,27.3z"/><path fill="#FFF" d="M23.7,28.6c0.6,0.3,1.2,0.3,1.8,0C24.9,28.8,24.3,28.7,23.7,28.6z"/><path fill="#FFF" d="M23.7,28.6c0.6,0.2,1.2,0.2,1.8,0l0,0C24.9,28.6,24.3,28.6,23.7,28.6z"/><path fill="#FFF" d="M27.4,24.5c0.3,0.5,0.3,0.9,0.2,1.4c0,0,0,0,0,0c0-0.2,0-0.4,0-0.7c0-0.6-0.4-1.2-0.1-1.9 c0.2-0.3,0.4-0.4,0.6-0.5C27.4,23,27,23.7,27.4,24.5z"/><path fill="#FFF" d="M29.7,23.4c-0.1,0-0.2-0.1-0.3-0.1C29.5,23.4,29.6,23.4,29.7,23.4z"/><path fill="#FFF" d="M30,23.3c-0.5-0.2-0.9-0.4-1.4-0.4c-0.1,0-0.2,0-0.3,0c-0.2,0.1-0.4,0.2-0.6,0.5c-0.3,0.6,0.1,1.3,0.1,1.9 c0,0.2,0,0.4,0,0.7c0.1,0,0.3,0,0.5,0.1c0-0.3,0-0.5,0-0.8c-0.3-0.5-0.6-1-0.3-1.6l0,0c0.5-0.5,1-0.3,1.6-0.2l0,0 C29.6,23.3,29.8,23.3,30,23.3C30,23.3,30,23.3,30,23.3z"/><path fill="#FFF" d="M27.6,26.2c0-0.1,0-0.2,0-0.3c0,0,0,0,0-0.1c0,0,0,0,0,0C27.6,26,27.6,26.1,27.6,26.2z"/><path fill="#FFF" d="M27.6,25.9C27.6,25.9,27.6,25.9,27.6,25.9c0,0.2,0,0.3,0,0.4c0,0.1,0,0.1,0,0.2c0.2-0.2,0.3-0.4,0.5-0.5 C27.9,25.8,27.8,25.8,27.6,25.9z"/><path fill="#FFF" d="M32.8,23.1c0.1,0,0.2,0,0.4-0.1c0,0,0,0,0-0.1C33.1,23,33,23.1,32.8,23.1z"/><path fill="#FFF" d="M29.4 23.3L29.4 23.3 29.4 23.3z"/><path fill="#FFF" d="M33.2,23c-0.1,0-0.2,0.1-0.4,0.1c-0.9,0.3-1.8,0.3-2.8,0.2c0,0,0,0,0,0c-0.1,0.1-0.2,0.2-0.3,0.1 c1.1,0.3,2.3,0.1,3.4,0.1l0,0l0,0C33.1,23.4,33.1,23.2,33.2,23z"/><path fill="#FFF" d="M33.2,23c0.7-0.2,1.3-0.5,1.9-0.9c0-0.1,0.1-0.1,0.1-0.2C34.5,22.4,33.9,22.7,33.2,23 C33.2,23,33.2,23,33.2,23z"/><path fill="#FFF" d="M35.1,22.1c-0.5,0.4-1.2,0.8-1.9,0.9c-0.1,0.2-0.1,0.3-0.1,0.5l0,0C33.7,23,34.6,22.9,35.1,22.1z"/><path fill="#FFF" d="M30,23.3c-0.2,0-0.4,0-0.6,0l0,0c0.1,0,0.2,0.1,0.3,0.1C29.8,23.4,29.9,23.4,30,23.3z"/><path fill="#FFF" d="M28.1,25.2c0.2-0.6-0.2-1.1-0.3-1.6l0,0C27.6,24.2,28.1,24.6,28.1,25.2z"/><path fill="#FFF" d="M28.1,25.2c0-0.5-0.5-1-0.3-1.6C27.4,24.2,27.8,24.7,28.1,25.2z"/><path fill="#FFF" d="M16,33.3c-0.1,0-0.1,0.1-0.2,0.1C15.8,33.4,15.9,33.4,16,33.3z"/><path fill="#FFF" d="M27.5,26.5C27.5,26.5,27.5,26.5,27.5,26.5C27.6,26.4,27.5,26.4,27.5,26.5C27.5,26.5,27.5,26.5,27.5,26.5z"/><path fill="#FFF" d="M0.2,31.9c0.9,1.7,2.5,3,4.1,4c1.4,0.8,2.6-1.3,1.3-2.2C4.3,33,3.1,32,2.3,30.7 C1.5,29.3-0.6,30.5,0.2,31.9L0.2,31.9z"/></svg>