<svg id="Слой_1" xmlns="http://www.w3.org/2000/svg" viewBox="0 0 33.2 15.4"><path fill="#FFF" d="M3.3,6.5c0.1,0,0.1,0.1,0.2,0.1C3.3,6.5,3.2,6.3,3,6.2C3.1,6.3,3.2,6.4,3.3,6.5z"/><path fill="#FFF" d="M32,2.8C32,2.8,32,2.7,32,2.8c-0.3,0.3-0.5,0.6-0.8,0.9c0,0,0.1,0.1,0.1,0.1c0.6-0.1,0.8-0.6,1.1-1.1 C32.3,2.8,32.2,2.8,32,2.8z"/><path fill="#FFF" d="M32,2.7C32,2.7,32,2.8,32,2.7c0.1,0.1,0.3,0.1,0.4,0C32.3,2.7,32.2,2.7,32,2.7C32.1,2.7,32,2.7,32,2.7z"/><path fill="#FFF" d="M31.2,3.7c0,0,0.1,0.1,0.1,0.1C31.3,3.7,31.3,3.7,31.2,3.7C31.3,3.6,31.2,3.7,31.2,3.7z"/><path fill="#FFF" d="M31.2,3.6C31.2,3.6,31.2,3.6,31.2,3.6C31.5,3.3,31.8,3,32,2.7c0,0,0,0,0-0.1C31.3,2.6,31.1,3,31.2,3.6z"/><path fill="#FFF" d="M32,2.7C32,2.7,32.1,2.7,32,2.7C32.1,2.7,32,2.7,32,2.7C32,2.7,32,2.7,32,2.7z"/><path fill="#FFF" d="M31.2,3.6C31.2,3.6,31.2,3.6,31.2,3.6L31.2,3.6C31.2,3.7,31.3,3.6,31.2,3.6C31.2,3.6,31.2,3.6,31.2,3.6z"/><path fill="#FFF" d="M31,1.1c0,0,0.1,0.1,0.1,0.1c0.2-0.2,0.5-0.4,0.7-0.6c-0.1,0-0.3-0.1-0.4-0.2C31.3,0.6,31.2,0.8,31,1.1z"/><path fill="#FFF" d="M31,1.1C31,1.1,31,1.1,31,1.1c0,0.1,0.1,0.1,0.1,0.1l0,0C31.1,1.1,31,1.1,31,1.1z"/><path fill="#FFF" d="M31.8,0c-0.1,0.1-0.2,0.3-0.3,0.4c0.1,0.1,0.2,0.2,0.4,0.2l0,0C31.8,0.4,31.8,0.2,31.8,0z"/><path fill="#FFF" d="M28.8,10.4c0.2,0.4,0.6,0.6,0.5,1.1l0,0c1,0.3,1.6,1.2,2.2,1.9c0.6,0.6,0.3,1.1-0.5,1.3 c-2.2,0.4-4.2,0.1-6.2-0.9c-1.5-1-3-2.1-4.1-3.6c-0.6-0.8-1.3-1-2.2-0.8c-2.2,0.5-4.4,0.5-6.6,0.4l0,0l0,0 c-1.2-0.1-2.5,0.2-3.7-0.3c-0.4,0-0.7,0-1.1,0l0,0l0,0c0,0.1,0,0.2,0,0.3c2.7,0.2,5.4,0.5,8.2,0.4c1,0,2-0.1,2.9-0.4 c1.1-0.4,1.6-0.1,2.3,0.7c2.7,3.3,6.2,5.1,10.6,4.5c0.5-0.1,0.8-0.2,1-0.7c0.1-0.4,0.2-0.8-0.2-1.2C31.4,13,31,12.5,30.5,12 c-1.3-1.4-2.4-3-2.3-5c0-0.3,0-0.6,0-0.9C27.6,7.7,28,9.1,28.8,10.4z"/><path fill="#FFF" d="M7.1,9.8C4.8,9.6,2.9,8.6,1.4,6.8C1,6.4,0.7,6.1,0.4,5.9C0.3,6,0.2,6,0,6.1c0.2,0.1,0.4,0.3,0.7,0.6 c1.6,2.1,3.8,3.3,6.5,3.4C7.1,10,7.1,9.9,7.1,9.8z"/><path fill="#FFF" d="M7.2,9.8C7.2,9.8,7.2,9.8,7.2,9.8c-0.1,0.1-0.1,0.2,0,0.3C7.2,10,7.2,9.9,7.2,9.8L7.2,9.8z"/><path fill="#FFF" d="M31.2,3.7c-1,0.8-2.1,1.6-3.1,2.4c0,0,0,0,0.1,0c0.1,0.3,0.1,0.6,0,0.9c0.2-0.6,0.5-1.1,1.1-1.4 c0.8-0.4,1.5-1,2-1.8C31.3,3.7,31.3,3.7,31.2,3.7L31.2,3.7z"/><path fill="#FFF" d="M28.2,6.1C28.2,6.1,28.2,6.1,28.2,6.1L28.2,6.1L28.2,6.1c0,0.3,0,0.6,0,0.9C28.3,6.7,28.3,6.4,28.2,6.1z"/><path fill="#FFF" d="M32.9,0.5c-0.3-0.2-0.5-0.3-0.8-0.5c0,0.2-0.1,0.4-0.3,0.5l0,0c-0.2,0.2-0.5,0.4-0.7,0.6l0,0 c-0.9,1.5-2.3,2.5-3.9,3.4c-0.6,0.3-1.1,0.6-1.2,1.3l0,0c-0.3,2.4,1,4.2,2.4,6v0c0.1,0,0.2,0,0.3,0c0.1,0,0.2-0.1,0.3-0.1 c0,0-0.1-0.1-0.1-0.1c-0.3-0.8-1-1.3-1.2-2.1c-0.3-0.9-0.4-1.8-0.3-2.7c0.1-0.5,0.2-0.9,0.8-0.8c-0.1-0.1-0.2-0.4-0.1-0.5 c0.8-1,1.6-2,3-2.1c0.1,0,0.1,0.1,0.2,0.1c-0.1-0.6,0.1-1,0.8-0.9C31.8,1.8,32.2,1,32.9,0.5z"/><path fill="#FFF" d="M28.2,6.1c-0.6-0.1-0.7,0.3-0.8,0.8c-0.1,0.9,0,1.8,0.3,2.7c0.3,0.8,1,1.3,1.2,2.1c0,0,0.1,0.1,0.1,0.1 c0.1,0,0.2-0.1,0.3-0.1l0,0l0,0c0.2-0.5-0.2-0.8-0.5-1.1C28,9.1,27.6,7.7,28.2,6.1L28.2,6.1L28.2,6.1z"/><path fill="#FFF" d="M31.2,3.6c0,0-0.1-0.1-0.2-0.1c-1.4,0.1-2.2,1.1-3,2.1c-0.1,0.1,0,0.3,0.1,0.5c0,0,0,0,0,0 C29.2,5.3,30.2,4.5,31.2,3.6L31.2,3.6L31.2,3.6C31.2,3.6,31.2,3.6,31.2,3.6z"/><path fill="#FFF" d="M28.2 6.1L28.2 6.1 28.2 6.1 28.2 6.1 28.2 6.1z"/><path fill="#FFF" d="M25,13.2c-1.5-1-2.8-2.2-3.8-3.7c-0.8-1.3-2-1.5-3.3-1.1c-1.4,0.3-2.7,0.4-4.1,0.4l0,0 c-0.7,0.3-1.4,0.6-2.1,0c-0.6,0-1.2,0-1.8,0l0,0c-0.7,0-1.4,0.1-2.1-0.3c-2.1,0.1-3.7-1.1-5.4-2C1.9,6.2,1.6,5.7,1.5,5.1 C1.4,5.3,1.2,5.4,1,5.6c0,0,0,0,0,0c1.1,1.8,2.9,2.6,4.7,3.3C6.2,9.1,6.9,9,7.2,9.7c0,0,0,0,0,0c0.3-0.4,0.7-0.4,1.1-0.4 c1.2,0,2.4-0.1,3.6,0.2c1.5,0.4,2.9-0.1,4.4-0.1c0.5,0,1-0.1,1.5-0.2c1.6-0.4,2.8,0,3.8,1.5c0.8,1.2,2,2.1,3.3,2.9 c0,0,0.1,0,0.1,0.1C25,13.4,25,13.3,25,13.2L25,13.2z"/><path fill="#FFF" d="M24.8,13.4c-1.3-0.8-2.5-1.7-3.3-2.9c-1-1.5-2.2-1.9-3.8-1.5c-0.5,0.1-1,0.2-1.5,0.2 c-1.5,0-2.9,0.5-4.4,0.1c-1.2-0.3-2.4-0.1-3.6-0.2c-0.4,0-0.8,0-1.1,0.4c0,0,0,0,0,0c0,0,0,0.1,0,0.1l0,0c0.4,0,0.7,0,1.1,0 c1.2,0.1,2.5-0.2,3.7,0.3l0,0c2.2,0.1,4.4,0,6.6-0.4c0.9-0.2,1.6,0,2.2,0.8c1.1,1.5,2.6,2.5,4.1,3.6c0.1-0.1,0.1-0.3,0.2-0.4 C24.9,13.5,24.8,13.4,24.8,13.4z"/><path fill="#FFF" d="M5.7,8.9C3.9,8.1,2.1,7.4,1,5.6c0,0,0,0,0,0C0.8,5.7,0.6,5.8,0.4,5.9C0.7,6.1,1,6.4,1.4,6.8 c1.5,1.7,3.4,2.8,5.8,2.9c0,0,0-0.1,0-0.1C6.9,9,6.2,9.1,5.7,8.9z"/><path fill="#FFF" d="M7.1,9.8C7.2,9.8,7.2,9.8,7.1,9.8c0.1,0,0.1-0.1,0-0.1C7.2,9.7,7.2,9.7,7.1,9.8z"/><path fill="#FFF" d="M28.8,12.1c0.2,0.4,0.5,0.9,0.1,1.4c-0.5,0.6-1.1,0.3-1.7,0.2c-0.7-0.2-1.3-0.3-2-0.5 c0,0.1,0,0.3-0.1,0.4c1.4,0.6,2.8,0.9,4.3,0.7c1-0.1,1.2-0.5,0.6-1.4c-0.3-0.4-0.6-0.7-1-1.1C29,12,28.9,12.1,28.8,12.1z"/><path fill="#FFF" d="M30.1,13c0.6,0.8,0.5,1.2-0.6,1.4c-1.5,0.2-3-0.1-4.3-0.7c-0.1,0.1-0.2,0.2-0.4,0.3c2,0.9,4,1.3,6.2,0.9 c0.8-0.2,1.1-0.6,0.5-1.3c-0.7-0.7-1.2-1.6-2.2-1.9c0,0.1-0.1,0.2-0.1,0.3C29.5,12.2,29.8,12.6,30.1,13z"/><path fill="#FFF" d="M28.8,12.1c0.1-0.1,0.2-0.1,0.3-0.2c-0.1-0.1-0.1-0.1-0.2-0.2c-0.1,0-0.2,0.1-0.3,0.1 C28.7,12,28.8,12,28.8,12.1z"/><path fill="#FFF" d="M29,11.7c0.1,0.1,0.1,0.1,0.2,0.2c0.1-0.1,0.1-0.2,0.1-0.3l0,0C29.1,11.6,29,11.7,29,11.7z"/><path fill="#FFF" d="M25.3,13.2c-0.1,0-0.2-0.1-0.3-0.1c0,0.1-0.1,0.2-0.1,0.3c0.1,0,0.2,0.1,0.3,0.1 C25.3,13.5,25.3,13.4,25.3,13.2z"/><path fill="#FFF" d="M25.2,13.6c-0.1,0-0.2-0.1-0.3-0.1c-0.1,0.1-0.1,0.3-0.2,0.4C25,13.8,25.1,13.7,25.2,13.6z"/><path fill="#FFF" d="M8.3,9.8c1.2,0.5,2.4,0.2,3.7,0.3l0,0C10.7,9.7,9.5,10.1,8.3,9.8z"/><path fill="#FFF" d="M8.3,9.8c1.2,0.4,2.5-0.1,3.7,0.3C10.7,9.5,9.5,9.9,8.3,9.8z"/><path fill="#FFF" d="M28.5,12.2C28.5,12.2,28.5,12.2,28.5,12.2c-0.1,0-0.1,0.1-0.1,0.1C28.5,12.3,28.5,12.2,28.5,12.2z"/><path fill="#FFF" d="M11.6,8.4c0.7,0.1,1.4,0.2,2.1,0C13,8.4,12.3,8.4,11.6,8.4z"/><path fill="#FFF" d="M18.4,7.8c1.2-0.1,2.3,0.2,3.1,1.2C20.4,7.6,20,7.4,18.4,7.8z"/><path fill="#FFF" d="M15.6,8.2c-0.5,0.1-0.9,0.1-1.4,0.1C14.7,8.4,15.2,8.3,15.6,8.2z"/><path fill="#FFF" d="M5.9,7.7c0.6,0.2,1.3,0.4,2,0.4c0.6,0.2,1.3,0.2,1.9,0.2c0.4,0,0.7,0,1.1,0C9.5,8.2,8.1,8.1,6.6,7.9 C6.4,7.8,6.1,7.8,5.9,7.7z"/><path fill="#FFF" d="M21.8,9.3c0,0.1,0.1,0.1,0.1,0.2c0.8,1.4,2.1,2.3,3.3,3.2c0,0.1,0.1,0.1,0.1,0.2c0.3-0.2,0.6,0,1,0.1 c0.1,0,0.1,0,0.2,0C24.5,12.4,23,11,21.8,9.3z"/><path fill="#FFF" d="M28.4,12.1C28.4,12.2,28.4,12.2,28.4,12.1c0,0,0.1,0,0.1,0c0.1-0.1,0.1-0.2,0.2-0.3c-0.1,0-0.2,0-0.3,0 l0,0l0,0C28.4,11.9,28.4,12,28.4,12.1z"/><path fill="#FFF" d="M25.2,12.8c-1.2-1-2.5-1.9-3.3-3.2c0-0.1-0.1-0.1-0.1-0.2c0-0.1-0.1-0.1-0.1-0.2 c-0.1-0.1-0.1-0.2-0.2-0.2c-0.8-0.9-1.9-1.2-3.1-1.2c-0.1,0-0.1,0-0.2,0.1c-0.8,0.2-1.7,0.3-2.5,0.4c-0.5,0.1-0.9,0.1-1.4,0.1 c-0.2,0-0.3,0-0.5,0c-0.7,0.1-1.4,0.1-2.1,0c-0.2,0-0.4,0-0.6,0c-0.4,0-0.7,0-1.1,0c-0.7,0-1.3-0.1-1.9-0.2c-0.7,0-1.4-0.2-2-0.4 C5.1,7.5,4.3,7,3.5,6.6c-0.1,0-0.1-0.1-0.2-0.1C3.2,6.4,3.1,6.3,3,6.2c0,0-0.1,0-0.1-0.1c-0.6-0.3-1-0.9-0.9-1.6 C1.8,4.8,1.7,4.9,1.5,5.1c0.1,0.6,0.3,1.1,0.8,1.4c1.7,0.9,3.3,2.1,5.4,2c0.7,0,1.4-0.1,2.1,0.3l0,0c0.6,0,1.2,0,1.8,0 c0.7,0,1.4,0,2.1,0l0,0l0,0c1.4,0,2.8-0.1,4.1-0.4c1.3-0.3,2.5-0.1,3.3,1.1c1,1.5,2.3,2.7,3.8,3.7l0,0c0.1-0.1,0.2-0.2,0.2-0.2 C25.3,12.9,25.2,12.8,25.2,12.8z"/><path fill="#FFF" d="M28.5,12.2c0,0,0,0.1-0.1,0.1c0.1,0.4,0.6,0.7,0.3,1c-0.3,0.3-0.9,0.1-1.4,0c-0.3-0.1-0.6-0.2-0.9-0.3 c-0.1,0-0.1,0-0.2,0c-0.3-0.1-0.7-0.2-1-0.1c0,0.1,0.1,0.2,0.1,0.3c0.7,0.2,1.3,0.3,2,0.5c0.6,0.1,1.2,0.4,1.7-0.2 c0.4-0.5,0.1-1-0.1-1.4c0,0-0.1,0-0.2,0.1C28.6,12.2,28.6,12.2,28.5,12.2z"/><path fill="#FFF" d="M28.7,12.2c0.1,0,0.1,0,0.2-0.1c0-0.1-0.1-0.2-0.1-0.3c-0.1,0.1-0.1,0.2-0.2,0.3 C28.6,12.2,28.6,12.2,28.7,12.2z"/><path fill="#FFF" d="M25,13.2L25,13.2c0.1,0,0.2,0.1,0.3,0.1c0-0.1,0-0.2-0.1-0.3C25.2,13,25.1,13.1,25,13.2z"/><path fill="#FFF" d="M25.6,6.7c0-0.2,0-0.5,0-0.7c0-0.6,0.2-1,0.5-1.3C25.6,5.1,25.5,5.9,25.6,6.7z"/><path fill="#FFF" d="M31,1.1c-1.4,1.2-2.6,2.7-4.5,3.4c-0.1,0-0.2,0.1-0.3,0.2C25.9,5,25.7,5.4,25.7,6c0,0.3,0,0.5,0,0.7 c0,0.2,0.1,0.3,0.1,0.5c0-0.4,0-0.8,0.2-1.2c0,0,0-0.1,0.1-0.1c0.1-0.7,0.6-1,1.2-1.3c1.5-0.9,2.9-1.9,3.9-3.4l0,0l0,0 C31.1,1.1,31,1.1,31,1.1z"/><path fill="#FFF" d="M25.9,8.7c-0.1-0.4-0.2-0.7-0.2-1.1C25.6,8,25.7,8.4,25.9,8.7z"/><path fill="#FFF" d="M25.8,7.2C25.8,7.2,25.8,7.2,25.8,7.2c-0.1,0.1-0.1,0.3-0.1,0.4c0,0.4,0.1,0.8,0.2,1.1 c0.2,0.3,0.4,0.6,0.6,0.9c0.5,0.8,0.9,1.8,1.8,2.3c0.1-0.1,0.1-0.1,0.2-0.2c-1.4-1.8-2.7-3.6-2.4-6C26,5.9,26,5.9,26,6 C25.8,6.4,26.1,6.8,25.8,7.2z"/><path fill="#FFF" d="M28.4,12.1c0-0.1,0-0.2,0-0.3l0,0c-0.1,0.1-0.1,0.1-0.2,0.2C28.3,12.1,28.4,12.1,28.4,12.1z"/><path fill="#FFF" d="M25.8,7.2C25.8,7.2,25.8,7.2,25.8,7.2C26.1,6.8,25.8,6.4,26,6C25.8,6.4,25.8,6.8,25.8,7.2 C25.8,7.2,25.8,7.2,25.8,7.2z"/><path fill="#FFF" d="M11.7,8.7c0.7,0.6,1.4,0.3,2.1,0C13.1,8.9,12.4,9,11.7,8.7z"/><path fill="#FFF" d="M11.7,8.7c0.7,0.3,1.4,0.2,2.1,0l0,0C13.1,8.7,12.4,8.7,11.7,8.7z"/><path fill="#FFF" d="M7.8,8.5c0.7,0.4,1.4,0.2,2.1,0.3l0,0C9.2,8.4,8.4,8.8,7.8,8.5z"/><path fill="#FFF" d="M7.8,8.5c0.7,0.3,1.4-0.1,2.1,0.3C9.2,8.4,8.5,8.5,7.8,8.5z"/><path fill="#FFF" d="M28.4,12.2C28.4,12.2,28.4,12.2,28.4,12.2C28.4,12.2,28.4,12.2,28.4,12.2C28.4,12.2,28.4,12.2,28.4,12.2z"/><path fill="#FFF" d="M31,4.1c0.7-0.5,1.2-1.2,1.8-1.9c0.5-0.5,0.5-1.3,0-1.8c-0.5-0.5-1.3-0.5-1.8,0 c-0.4,0.5-0.8,1.1-1.3,1.5c-0.5,0.4-0.8,1.1-0.4,1.7C29.6,4.1,30.5,4.5,31,4.1L31,4.1z"/></svg>