<svg id="Слой_1" xmlns="http://www.w3.org/2000/svg" viewBox="0 0 65.8 41.1"><path fill="#FFF" d="M33.8,12.5c0.8,0.2,1.6,0.3,2.4,0.5c-1-0.4-2-0.6-3.1-0.6C33.3,12.4,33.5,12.5,33.8,12.5z"/><path fill="#FFF" d="M63.9,36.6L63.9,36.6L63.9,36.6L63.9,36.6L63.9,36.6c0,0,0-0.1,0-0.1C63.9,36.5,63.8,36.5,63.9,36.6 C63.8,36.6,63.9,36.6,63.9,36.6z"/><path fill="#FFF" d="M2.4 17L2.4 17 2.4 17z"/><path fill="#FFF" d="M46.2,0.8C44.4,1,42.6,1.2,40.7,1c-0.2,0-0.4,0-0.6,0c0.1,0.2,0.2,0.3,0.5,0.4c2,0.2,4,0.5,5.9-0.6 C46.4,0.8,46.3,0.8,46.2,0.8z"/><path fill="#FFF" d="M2.3,29.8c-0.2-1.3-0.3-2.6-0.2-3.9c0-0.5,0-1,0.2-1.4c0-0.1,0-0.1,0.1-0.2c0-0.1,0-0.2,0-0.3 c0,0-0.1-0.1-0.1-0.1c-0.2-0.5-0.2-1-0.2-1.4c0-1.7,0-3.3,0-5C2,17.4,2,17.4,2,17.3c-0.1-0.3-0.3-0.6-0.4-0.8l0,0c0,0-0.1,0-0.1,0 c0,0.3,0,0.5,0.1,0.8c0.1,0.2,0.1,0.4,0.1,0.7c0,4.3,0.1,8.5,0.2,12.8c0,0.2,0,0.4-0.1,0.6c0,0.2,0,0.4,0,0.6 C2.3,31.4,2.4,30.6,2.3,29.8z"/><path fill="#FFF" d="M2.1,22.5c0,0,0,0.1,0.1,0.1C2.1,22.6,2.1,22.5,2.1,22.5z"/><path fill="#FFF" d="M21.5,2.9c0.1,0,0.2-0.1,0.2-0.1C21.6,2.8,21.5,2.8,21.5,2.9z"/><path fill="#FFF" d="M34.6,2.3c-0.1,0-0.1-0.1-0.2-0.1C34.4,2.3,34.5,2.3,34.6,2.3z"/><path fill="#FFF" d="M36.4,1.8c0.2,0,0.3-0.1,0.5-0.1C36.7,1.7,36.5,1.7,36.4,1.8z"/><path fill="#FFF" d="M52,1.4c-0.7,0.1-1.4,0.1-2.1,0.2c-0.7,0-1.1-0.2-1.3-0.7c-0.6,0-1.3,0-1.9,0c0.2,0.7-0.2,0.9-0.8,1.1 c-1.7,0.5-3.5,0.4-5.2,0.2c-0.7-0.1-1-0.5-1.1-1c-0.6,0-1.2,0.1-1.8,0.1c-0.1,0.1-0.2,0.2-0.3,0.3v0l0,0c-0.2,0.5-0.7,0.2-1,0.3 l-0.1,0l-0.1,0c-0.4,0.5-1.1,0.3-1.6,0.5c-0.4,0-0.8,0-1.1-0.2c-0.1,0-0.1,0-0.2-0.1c-1.7-0.1-3.3,0.4-5,0.3 c-0.9,0.5-1.9,0.2-2.9,0.3c-0.4,0.1-0.9,0.2-1.3,0.3c-0.1-0.1-0.1-0.1-0.2-0.1c0.1,0,0.2,0.1,0.2,0.1c-0.9,0-1.7,0-2.6,0l0,0 c0,0-0.1,0.1-0.1,0.1c-0.7,0.6-1.5,0-2.3,0.2c-0.8,0.1-1.6,0.2-2.4,0l0,0h0C16.1,3.2,15.5,3,15,2.6c-0.3,0-0.6,0.1-1,0.1 c-0.2,0.5-0.6,0.6-1.7,0.7c-0.8,0.5-1.7,0.4-2.6,0.3c-0.1,0-0.2,0-0.3,0C8.9,4,8.4,4,7.9,3.6C7,3.6,6.1,3.8,5.2,3.9 c-0.7,0.6-1.4,0.3-2.1,0c-0.1,0-0.2,0-0.3,0C2.7,4.2,2.5,4.5,2.1,4.4C0.5,4.6,0.5,4.8,1,6.3c0.9,2.6,1,5.3,0.8,8.1 c0,0.4-0.2,0.6-0.5,0.7c0,0.3,0,0.6,0.1,0.8c0.1,0,0.3,0.1,0.4,0.2c0.2,0.2,0.3,0.4,0.4,0.6c0.1,0,0.1,0,0.2,0.1 c0.4-0.2,0.7-0.4,0.6-1c-0.3-1.8-0.1-3.5,0-5.3C3.1,9.2,2.7,8,3,6.7c0.1-0.5,0.1-1.1,0.6-1.2c1.2-0.3,2.2-0.9,3.5-0.7 C7.9,5,8.8,5.4,9.5,4.4c0-0.1,0.3-0.1,0.3,0c1.1,0.8,2.4,0.3,3.5,0.3h0c0.1,0,0.2,0,0.3,0c0,0,0.1-0.1,0.1-0.1c0,0,0.1,0,0.1,0 c1.7-0.5,3.5-0.1,5.2-0.4c2.5-0.4,5-0.6,7.5-0.7c1.6-0.1,3.2,0,4.8,0c4.5,0,8.9,0.3,13.4-0.4c0.4-0.1,0.8,0,1.1,0.3 c0.1,0,0.2,0,0.3,0c0.6-0.6,1.3-0.2,2-0.2c1.1-0.1,2.2,0,3.3,0c0.1,0,0.2,0,0.3,0C51.8,3,52,2.9,52.3,2.9c0.6-0.1,0.5-0.4,0.4-0.8 C52.6,1.6,52.5,1.3,52,1.4z"/><path fill="#FFF" d="M2.3,17C2.3,17,2.4,17,2.3,17L2.3,17C2.4,17,2.4,17,2.3,17C2.4,17,2.4,17,2.3,17C2.3,17,2.3,17,2.3,17z"/><path fill="#FFF" d="M46.6,0.8c-1.9,1.1-3.9,0.9-5.9,0.6c-0.3,0-0.5-0.2-0.5-0.4c-0.2,0-0.4,0-0.6,0.1c0.1,0.5,0.5,0.9,1.1,1 c1.7,0.2,3.5,0.2,5.2-0.2C46.4,1.7,46.8,1.4,46.6,0.8C46.6,0.8,46.6,0.8,46.6,0.8z"/><path fill="#FFF" d="M1.4,12.3c-0.2-1.7-0.1-3.4-0.6-5c0,0.1,0,0.2,0,0.3c0.2,1.9,0.5,3.8,0.5,5.7C1.4,13,1.5,12.7,1.4,12.3z"/><path fill="#FFF" d="M1.7,4c0.4-0.1,0.8-0.3,1.2-0.4c0.1,0,0.2,0,0.4,0c0.7,0.2,1.4,0.1,2.2,0c0.7-0.3,1.5-0.3,2.3-0.3 c0.5,0,1.1,0.1,1.6,0c0.1,0,0.2,0,0.4,0c0.9,0,1.8,0,2.6-0.3c0.3,0,0.5-0.1,0.6-0.2c-0.1,0-0.1,0-0.2,0C10.9,3,9,3.1,7.2,3.1 c-0.9,0-1.8,0.3-2.7,0.3C3.2,3.2,2,3.8,0.8,3.7C0,4.5-0.4,5.4,0.5,6.4c0,0,0,0,0,0C0.5,6.3,0.4,6.1,0.3,5.9C-0.2,4.8,0.2,4.4,1.7,4 z"/><path fill="#FFF" d="M13.3,2.8c-0.1,0-0.2,0.1-0.4,0.1C12.8,2.9,12.6,3,12.3,3c-0.9,0.3-1.7,0.3-2.6,0.3c-0.1,0-0.2,0-0.4,0 c-0.6,0.1-1.1,0-1.6,0c-0.8,0-1.6,0-2.3,0.3c-0.7,0.1-1.4,0.3-2.2,0c-0.1,0-0.2,0-0.4,0C2.4,3.7,2.1,3.9,1.7,4 C0.2,4.4-0.2,4.8,0.3,5.9c0.1,0.2,0.2,0.4,0.2,0.6C0.8,6.7,0.8,7,0.9,7.4c0.4,1.6,0.4,3.3,0.6,5c0,0.4,0,0.7-0.1,1 c0,0.4,0,0.8-0.1,1.3c0,0.2,0,0.3,0,0.5c0.2-0.1,0.4-0.3,0.5-0.7C2,11.6,1.9,8.9,1,6.3C0.5,4.8,0.5,4.6,2.1,4.4 C2.3,4.1,2.5,4,2.9,3.9c0.1,0,0.2,0,0.3,0c0.7,0,1.4,0,2.1,0C6.1,3.8,7,3.6,7.9,3.6c0.5,0,1,0,1.6,0c0.1,0,0.2,0,0.3,0 c0.8-0.4,1.7-0.2,2.6-0.3c1.1-0.1,1.5-0.1,1.7-0.7C13.8,2.7,13.5,2.8,13.3,2.8z"/><path fill="#FFF" d="M18,2.9c0.4,0,0.7,0,1.1,0c0.1,0,0.2,0,0.3,0l0,0c0,0,0.1,0,0.1,0C19,2.8,18.5,2.9,18,2.9z"/><path fill="#FFF" d="M37.4 1.5L37.4 1.5 37.4 1.5z"/><path fill="#FFF" d="M26.4,2.3c0.1,0,0.2,0,0.3,0c-0.7,0.1-1.3,0.1-2,0.1c-0.4,0-0.9,0-1.3,0.1c0.1,0,0.1,0.1,0.2,0.1 c0.1,0,0.2,0.1,0.3,0.1c0.1,0,0.2,0,0.2,0.1c0.4-0.1,0.9-0.2,1.3-0.3l0,0h0C25.7,2.4,26.1,2.3,26.4,2.3z"/><path fill="#FFF" d="M21.9,2.6c-0.5,0-1,0.1-1.5,0.1c0.1,0,0.2,0.1,0.2,0.1l0,0c0.3,0,0.5,0,0.8,0c0,0-0.1,0.1-0.1,0.1 c0,0,0.1,0,0.1-0.1l0,0c0.1-0.1,0.2-0.1,0.2-0.1C21.8,2.7,21.9,2.7,21.9,2.6z"/><path fill="#FFF" d="M36.6,1.2c-0.3,0.1-0.5,0.1-0.8,0.2c-1,0.1-2,0.1-3,0.1C28.8,1.6,25,2,21.1,2.3c-1.5,0.1-3,0.1-4.5,0.2 c-0.2,0-0.3,0.1-0.5,0.1c0.2,0.1,0.5,0.1,0.7,0.1c0.7,0,1.4,0,2.2,0c0.2,0,0.4,0,0.6,0c0.2-0.1,0.4-0.1,0.6,0 c0.4,0,0.8-0.1,1.1-0.2c0.1,0,0.3,0,0.4,0c0.2,0,0.3,0,0.5,0c0.3-0.1,0.6-0.1,0.9,0c0.3,0,0.5,0,0.8-0.1c0.5,0,1-0.2,1.5-0.2 c1,0,1.9-0.1,2.8-0.2c1.5,0.1,3.1-0.4,4.6-0.3c0.5,0,0.9,0.1,1.4,0.1c0.6-0.1,1.2-0.1,1.7-0.3c0.1,0,0.2,0,0.3-0.1 c0.2,0,0.4-0.1,0.5-0.2C36.8,1.2,36.7,1.2,36.6,1.2z"/><path fill="#FFF" d="M19,2.7c-0.7,0-1.4,0-2.2,0c-0.3,0-0.5-0.1-0.7-0.1c-0.2,0-0.4,0-0.7,0c0.1,0.1,0.3,0.2,0.6,0.2 c0.6,0,1.2,0.1,1.7,0c0.1,0,0.1,0,0.2,0c0.5,0,1,0,1.4-0.1c0.1,0,0.1-0.1,0.2-0.1C19.4,2.7,19.2,2.7,19,2.7z"/><path fill="#FFF" d="M36.9,1.2c-0.2,0.1-0.3,0.1-0.5,0.2c-0.1,0-0.2,0-0.3,0.1c-0.6,0.2-1.1,0.2-1.7,0.3c-0.5,0-0.9-0.1-1.4-0.1 C31.4,1.6,29.9,2,28.3,2c-0.9,0.2-1.9,0.3-2.8,0.2c-0.5,0-1,0.1-1.5,0.2c-0.3,0-0.5,0-0.8,0.1c0.1,0,0.1,0,0.2,0.1 c0.4,0,0.9-0.1,1.3-0.1c0.7,0,1.3-0.1,2-0.1c2.2-0.3,4.5-0.4,6.7-0.5c0.8,0,1.7,0,2.5,0c0.5-0.1,0.9-0.3,1.4-0.6 C37.1,1.2,37,1.2,36.9,1.2z"/><path fill="#FFF" d="M22,2.6c0.1-0.1,0.2-0.1,0.3-0.1c-0.2,0-0.3,0-0.5,0c-0.1,0-0.3,0-0.4,0c-0.4,0.1-0.7,0.2-1.1,0.2 c0.1,0,0.1,0,0.2,0.1C20.9,2.7,21.4,2.7,22,2.6C21.9,2.6,22,2.6,22,2.6L22,2.6z"/><path fill="#FFF" d="M4.8,31.8c-0.7-0.2-1.1-0.7-1.2-1.5c-0.5-3.5-0.6-7-0.3-10.5c0.1-1,0-2,0-3C3.1,17,2.8,17.1,2.4,17 c0.8,0.5,0.3,1.5,0.5,2.2c0,0.2-0.1,0.4-0.3,0.4c0,0-0.1,0-0.1,0c0.1,0.9,0.1,1.8,0.1,2.7c0.1,0.6,0,1.1,0.1,1.7c0,0.1,0,0.3,0,0.4 c0,0.6,0,1.1-0.1,1.7c0,1.3,0.1,2.7,0.2,4c0.1,1.4-0.1,2.1-1.1,2.7c0,0.4,0,0.8,0,1.3c0.9-0.4,2-0.5,3.1-0.5 C4.9,32.9,4.8,32.4,4.8,31.8z"/><path fill="#FFF" d="M3.4,8.4c0,0.1,0,0.1,0,0.2c0-0.6,0-1.1,0.1-1.7c0,0,0,0,0,0C3.3,7.2,3.3,7.7,3.4,8.4z"/><path fill="#FFF" d="M2.4,17C2.3,17,2.3,17,2.4,17C2.3,17.1,2.3,17.1,2.4,17c0,0.1,0,0.2,0,0.2C2.4,17.2,2.4,17.1,2.4,17L2.4,17 z"/><path fill="#FFF" d="M2.9,30c-0.1-1.3-0.2-2.7-0.2-4c0.1-0.6,0-1.1,0.1-1.7c0-0.1,0-0.3,0-0.4c0-0.6,0.1-1.1-0.1-1.7 c0-0.9,0-1.8-0.1-2.7c-0.1-0.1-0.2-0.2-0.2-0.3c0-0.6,0-1.3,0-1.9c0-0.1,0-0.1-0.1-0.2c-0.1,0.1-0.1,0.3-0.2,0.4 c0-0.1-0.1-0.1-0.1-0.2c0,0.1,0,0.1,0.1,0.2c0,1.7,0,3.3,0,5c0,0,0,0.1,0.1,0.1c0.2,0.5,0.2,1,0.2,1.5c0,0,0-0.1-0.1-0.1 c0,0,0,0.1,0.1,0.1c0,0.1,0,0.2,0,0.3c0,0.5,0,1-0.2,1.5c0,0,0,0.1-0.1,0.1c0,1.3,0,2.6,0.2,3.9c0.1,0.9,0,1.6-0.5,2.2 c0,0.3,0,0.5,0,0.8C2.8,32.2,3,31.5,2.9,30z"/><path fill="#FFF" d="M2.3,24.5c0-0.1,0-0.1,0.1-0.2C2.3,24.4,2.3,24.4,2.3,24.5z"/><path fill="#FFF" d="M2.3,17C2.3,17,2.3,17,2.3,17C2.4,17,2.3,17,2.3,17C2.3,17,2.3,17,2.3,17z"/><path fill="#FFF" d="M3.4,8.5c0-0.1,0-0.1,0-0.2C3.3,7.7,3.3,7.2,3.4,6.8c0-0.9,0.6-1.2,1.5-1.3c2.3-0.4,4.5-0.2,6.8-0.3 c0.6,0,1.2,0.1,1.7-0.5c-1.2,0-2.4,0.5-3.5-0.3c-0.1-0.1-0.3,0-0.3,0C8.8,5.4,7.9,5,7.1,4.8C5.8,4.5,4.8,5.2,3.6,5.5 C3.1,5.6,3.1,6.2,3,6.7C2.7,8,3.1,9.2,3,10.5c-0.1,1.8-0.3,3.5,0,5.3c0.1,0.6-0.2,0.8-0.6,1c0,0.1,0,0.2,0,0.3l0,0v0c0,0,0,0,0.1,0 c0.4,0,0.7-0.1,0.9-0.3c0-0.5-0.1-1-0.1-1.6C3.2,13,3.3,10.8,3.4,8.5z"/><path fill="#FFF" d="M25.7,38.7L25.7,38.7c0-0.1,0-0.2,0-0.2h0l-1,0l0,0l0,0c-0.4,0-0.9,0-1.3,0c0,0-0.1,0-0.1,0 c0.2,0.7-0.3,1.1-0.8,1.5c0,0-0.1,0-0.1,0c0,0.1,0,0.1,0.1,0.2c0,0.1,0,0.2,0,0.2c0,0.2,0.1,0.5,0.1,0.7c0.9,0,1.9-0.1,2.8-0.1 c0.1-0.2,0.3-0.3,0.6-0.4c0.4-0.1,0.8-0.2,1.3-0.3h0c0-0.1,0-0.2,0-0.2c1.4-0.5,3-0.2,4.6-0.7C29.7,38.5,27.6,39.4,25.7,38.7z"/><path fill="#FFF" d="M2.2,17c-0.2-0.2-0.4-0.4-0.6-0.5C1.7,16.7,1.8,17,2,17.3C2,17.2,2,17.1,2.2,17z"/><path fill="#FFF" d="M2.3,17C2.3,17,2.3,17,2.3,17c0-0.1-0.1-0.1-0.1-0.2c0-0.1,0-0.1,0.1-0.1c-0.1,0-0.1,0-0.2-0.1 C2.2,16.8,2.2,16.9,2.3,17C2.3,17,2.3,17,2.3,17z"/><path fill="#FFF" d="M2.2,16.9C2.2,17,2.3,17,2.2,16.9c0-0.1,0-0.2-0.1-0.3c-0.2-0.1-0.4-0.1-0.6-0.2l0,0 C1.8,16.6,2,16.8,2.2,16.9C2.2,17,2.2,16.9,2.2,16.9z"/><path fill="#FFF" d="M2.3,17C2.3,17,2.3,17,2.3,17C2.3,17,2.3,17.1,2.3,17C2.3,17.1,2.3,17.1,2.3,17C2.3,17,2.3,17,2.3,17z"/><path fill="#FFF" d="M2.3,17.1C2.3,17.1,2.3,17,2.3,17.1C2.2,17,2.2,17,2.2,17C2,17.1,2,17.2,2,17.3c0,0.1,0.1,0.1,0.1,0.2 C2.2,17.4,2.2,17.2,2.3,17.1z"/><path fill="#FFF" d="M2.3,17C2.3,17,2.3,17,2.3,17C2.3,17,2.3,17,2.3,17C2.3,17,2.3,17,2.3,17C2.3,17,2.3,17,2.3,17 C2.3,17,2.3,17,2.3,17z"/><path fill="#FFF" d="M2.3,16.8c0,0.1,0,0.1,0.1,0.2c0,0,0,0,0,0l0,0C2.4,16.9,2.4,16.8,2.3,16.8C2.3,16.7,2.3,16.8,2.3,16.8z"/><path fill="#FFF" d="M2.2,16.9C2.2,16.9,2.2,17,2.2,16.9C2.2,17,2.2,17,2.2,16.9C2.3,17,2.3,17,2.2,16.9C2.3,17,2.2,17,2.2,16.9 z"/><path fill="#FFF" d="M2.2,22.6c0,0,0-0.1-0.1-0.1c0,0.5,0,1,0.2,1.4C2.1,23.5,2.3,23,2.2,22.6z"/><path fill="#FFF" d="M2.2,22.6c0.2,0.4,0,0.9,0.1,1.3c0,0,0,0.1,0.1,0.1C2.3,23.6,2.4,23.1,2.2,22.6z"/><path fill="#FFF" d="M2.3,24.5c-0.2,0.4-0.2,0.9-0.2,1.4c0,0,0-0.1,0.1-0.1C2.3,25.4,2.1,24.9,2.3,24.5z"/><path fill="#FFF" d="M2.4,24.3c0,0.1-0.1,0.1-0.1,0.2c-0.2,0.4,0.1,0.9-0.1,1.3C2.4,25.3,2.3,24.8,2.4,24.3z"/><path fill="#FFF" d="M64.3,13.1c0-0.4,0-0.7-0.1-1.1c0,0,0,0-0.1,0c-0.3-0.7-0.1-1.4,0-2c0-0.2,0.1-0.3,0.1-0.5 c0-0.6,0-1.1,0-1.7c-0.1,0-0.3,0-0.4,0c-0.1,1.3-1,2.6-0.4,4c0.3,0.6,0.2,1.2,0.1,1.8c0.2-0.2,0.4-0.3,0.5-0.5l0,0 C64.2,13.1,64.2,13.1,64.3,13.1z"/><path fill="#FFF" d="M62,7.3c0-0.1-0.1-0.1-0.1-0.2C62,7.2,62,7.3,62,7.3z"/><path fill="#FFF" d="M56,3.1L56,3.1c1.1,0,2.3,0,3.4,0l0,0c0.4-0.3,0.9-0.3,1.3,0C61,3.6,61.2,4,61.5,4.4l0,0 c0.1,0.4,0.2,0.9,0.3,1.3c0,0,0,0.1,0.1,0.1c0.2,0.5,0.2,1,0.2,1.5c0,0.5,0,1,0,1.6l0,0c0.4,1.3,0.4,2.6,0,3.9c0,0.1,0,0.2,0,0.3 l0,0l0,0c0,1.4,0,2.8,0,4.2c0,0.1,0,0.2,0,0.3l0,0c0.5,2.1,0.1,4.2,0.3,6.3c0,0.1,0,0.2,0,0.3l0,0l0,0c0,1.5,0,3,0,4.5 c-0.1,0.3-0.1,0.7,0,1l0,0c0.6,1.5,0.1,3,0.3,4.5c0.1,0.2,0.2,0.3,0.3,0.5l0,0v0c0.1-0.5,0.3-1,0.5-1.8c0.4,0.9,0.2,1.5,0.2,2.1 c0,0.5-0.3,0.4-0.6,0.2c-0.6,0.5-1,1.1-1.8,1.1l0,0c0,0.1,0,0.2,0,0.3h0l0,0c0.4,0,0.9,0.1,1.3-0.2c0.8-0.8,1.2-0.3,1.6,0.4 c0,0,0,0,0.1,0c0-3.5-0.3-7.1-0.5-10.6c0-3,0-6.1,0-9.1c0-0.5,0-1,0.3-1.4c0-0.5,0-1.1,0-1.6c-0.1,0-0.1,0-0.2-0.1 c-1.1-1.8-0.9-4.8,0.3-6.1c-0.1-0.2-0.1-0.4-0.2-0.6l0,0c-0.4-1.1-0.4-2.3,0-3.4c0.1-0.3,0.2-0.6,0.3-0.9c0.4-2.2,0.1-2.6-2.1-2.2 C59,1,56.1,0.5,53.3,1c-0.2,0-0.3,0.1-0.5,0.1c0.2,0.2,0.3,0.5,0.4,1.1c0.1,0.5,0,0.8-0.2,1C54,3.1,55,3.1,56,3.1L56,3.1z M55.7,2.6c-0.7-0.1-1.4,0-2-0.3c-0.3-0.1-0.4-0.3-0.4-0.6c0-0.3,0.3-0.3,0.5-0.3c1.3-0.2,2.6-0.3,3.9-0.1c0.4,0,0.7,0.2,0.7,0.6 c0,0.4-0.4,0.4-0.7,0.5C57,2.6,56.4,2.7,55.7,2.6z"/><path fill="#FFF" d="M62.3,23.8c-0.1-0.3-0.1-0.5-0.1-0.8C62.1,23.3,62.2,23.6,62.3,23.8z"/><path fill="#FFF" d="M60.6,4.6c0,0.1,0.1,0.2,0.1,0.2c0,0.1,0,0.2,0.1,0.2c0-0.1,0.1-0.3,0.2-0.4C60.8,4.6,60.7,4.6,60.6,4.6z"/><path fill="#FFF" d="M53.3,2.2c-0.1-0.6-0.2-0.9-0.4-1.1c-0.6,0.1-1.2,0.1-1.7,0.1c-0.8,0-1.6,0.3-2.2-0.5c-0.1,0-0.3,0-0.4,0 c0.2,0.5,0.7,0.8,1.3,0.7c0.7,0,1.4-0.1,2.1-0.2c0.6-0.1,0.7,0.2,0.7,0.7c0.1,0.4,0.2,0.8-0.4,0.8c-0.2,0-0.5,0.2-0.7,0.2h0 c0.5,0,1,0,1.5,0C53.3,3,53.4,2.7,53.3,2.2z"/><path fill="#FFF" d="M63.8,7.6c-1.2,1.3-1.4,4.3-0.3,6.1c0.1,0,0.1,0.1,0.2,0.1c0-0.1,0-0.1,0-0.2l0,0c0.1-0.6,0.1-1.2-0.1-1.8 c-0.6-1.4,0.3-2.7,0.4-4h0C63.8,7.8,63.8,7.7,63.8,7.6z"/><path fill="#FFF" d="M60.1,3.9c-0.3-0.2-0.6-0.4-1.1-0.4c-1.1,0.1-2.2,0.2-3.4,0.1c-0.9-0.1-1.9-0.1-2.8-0.1c-0.3,0-0.7,0-1-0.1 c-0.1,0-0.1,0-0.2,0.1c-0.1,0-0.3,0-0.4,0c-0.4,0-0.9,0-1.3,0c-1,0.2-2.1,0.1-3.2,0.1c-0.2,0-0.5,0.1-0.7,0.1c-0.1,0-0.3,0-0.4,0 c-0.3,0-0.5-0.1-0.8-0.1c-0.3,0-0.5,0-0.8,0.1c-0.7,0.1-1.3,0.2-2,0.2c-1.1,0-2.3,0-3.4,0c-2.6,0.1-5.3,0-7.9,0 c-2.9-0.1-5.8,0.2-8.6,0.4c-2.3,0.2-4.5,0.5-6.8,0.5c-0.5,0-1,0.1-1.5,0.2c-0.1,0-0.2,0-0.4,0.1c0,0-0.1,0-0.1,0 c-0.1,0.4-0.6,0.4-1,0.5c-1.4,0-2.7,0-4.1,0c-0.9,0-1.8,0-2.6,0.4c-1,0.4-1.8,1-1.8,2.3c0,2.7-0.4,5.4-0.2,8.1c0.2,2,0.1,4-0.1,6 c-0.3,2.2,0.1,4.3,0.3,6.5c0.1,0.7,0.4,1.3,0.8,1.8c0-0.4,0-0.9,0-1.3c-0.1-0.2-0.1-0.5-0.2-0.8C4,24.6,4.6,20.7,4.4,16.8 c-0.1-2.5,0.1-5,0-7.6C4.4,7.3,5,6.3,7,6.4c3.5,0.2,6.9-0.5,10.3-0.7C22.9,5.4,28.4,4.9,34,5.1c5.7,0.2,11.3-0.4,17-0.6 c3.2-0.1,6.4-0.5,9.6,0.1C60.5,4.3,60.4,4.1,60.1,3.9z"/><path fill="#FFF" d="M45.8,3.6c-0.3,0-0.5,0-0.8,0.1c0.3,0,0.5,0,0.8,0.1c0.1,0,0.3,0,0.4,0c0.2-0.1,0.5-0.1,0.7-0.1 C46.5,3.6,46.2,3.6,45.8,3.6z"/><path fill="#FFF" d="M13.8,5c0.5-0.1,1-0.2,1.5-0.2c2.3,0,4.5-0.2,6.8-0.5c-2.8,0.2-5.7,0.4-8.6,0.3c0.1,0,0.1,0,0.2-0.1 c0,0-0.1,0-0.1,0c0,0-0.1,0-0.1,0.1c-0.1,0-0.2,0-0.3,0l0,0h0c0,0.2,0,0.3,0,0.5c0,0,0.1,0,0.1,0C13.6,5.1,13.7,5.1,13.8,5z"/><path fill="#FFF" d="M42.1,4c0.7,0,1.3-0.1,2-0.2C42.4,3.9,40.5,4,38.7,4C39.9,4,41,4,42.1,4z"/><path fill="#FFF" d="M51.3,3.4c-0.3,0-0.5,0-0.8,0l0,0c-0.2,0.1-0.3,0.1-0.5,0.1c0.4,0,0.9,0,1.3,0c0.1,0,0.3,0,0.4,0 c0.1,0,0.1-0.1,0.2-0.1c0,0-0.1,0-0.1-0.1C51.6,3.3,51.5,3.4,51.3,3.4z"/><path fill="#FFF" d="M8.4,5.3c-0.9,0-1.8,0-2.7,0.2C4.4,5.8,3.7,6.1,3.4,6.8c0,0,0,0,0,0c0,0.6,0,1.1-0.1,1.7 c0.2,1.6-0.1,3.1-0.1,4.6c0,0.9,0,1.7,0.2,2.6c0.1,0.4,0,0.7-0.1,1c0.1,1,0.1,2,0,3c-0.3,3.5-0.2,7,0.3,10.5 c0.1,0.8,0.5,1.3,1.2,1.5c0-0.4,0-0.8-0.1-1.2c-0.5-0.5-0.8-1.1-0.8-1.8c-0.2-2.2-0.6-4.3-0.3-6.5c0.3-2,0.3-4,0.1-6 c-0.2-2.7,0.2-5.4,0.2-8.1C3.9,7,4.7,6.4,5.7,6c0.8-0.3,1.7-0.3,2.6-0.4c1.4,0,2.7,0,4.1,0c0.5,0,0.9,0,1-0.5 C11.7,5.5,10,5.3,8.4,5.3z"/><path fill="#FFF" d="M13.4,4.7L13.4,4.7c-0.4,0.6-1.1,0.5-1.7,0.5C9.4,5.3,7.2,5.1,4.9,5.5C4.1,5.6,3.5,6,3.4,6.8 c0.3-0.7,1-1,2.2-1.3c0.9-0.2,1.8-0.1,2.7-0.2c1.7-0.1,3.3,0.2,5-0.2C13.4,5,13.4,4.9,13.4,4.7z"/><path fill="#FFF" d="M3.4,15.8c-0.2-0.9-0.1-1.7-0.2-2.6c0-1.5,0.3-3.1,0.1-4.6c-0.1,2.2-0.2,4.4-0.1,6.6c0,0.5,0,1,0.1,1.6 C3.5,16.5,3.5,16.2,3.4,15.8z"/><path fill="#FFF" d="M61.2,4.5c0.1,0,0.2,0,0.3,0C61.2,4,61,3.6,60.7,3.1c-0.4,0-0.9,0-1.3,0l0,0l0,0c-1.1,0-2.3,0-3.4,0l0,0 c-1.3,0.4-2.6,0.2-3.9,0.2c-0.1,0-0.2,0-0.2,0.1c0.3,0.1,0.6,0.1,1,0.1c0.9,0,1.9,0,2.8,0.1c1.1,0.1,2.2,0,3.4-0.1 c0.4,0,0.7,0.2,1.1,0.4c0.3,0.2,0.4,0.4,0.5,0.7c0.1,0,0.3,0,0.4,0.1C61,4.6,61.1,4.5,61.2,4.5z"/><path fill="#FFF" d="M51.8,3.3C51.8,3.4,51.9,3.4,51.8,3.3c0.2,0,0.2,0,0.3,0C52,3.3,51.9,3.3,51.8,3.3z"/><path fill="#FFF" d="M42.1,3.7c1.2,0,2.4-0.5,3.6-0.2c0,0,0,0,0.1,0c0,0,0-0.1,0-0.1h0c-0.3-0.3-0.7-0.3-1.1-0.3 c-4.4,0.7-8.9,0.4-13.4,0.4c-1.6,0-3.2-0.1-4.8,0c-2.5,0.2-5.1,0.3-7.5,0.7c-1.7,0.3-3.5-0.1-5.2,0.4c2.9-0.1,5.8-0.3,8.7-0.6 C29,3.5,35.6,3.9,42.1,3.7z"/><path fill="#FFF" d="M45,3.7c-0.3,0-0.5,0-0.8,0.1C44.4,3.8,44.7,3.7,45,3.7z"/><path fill="#FFF" d="M30.9,3.9c-2.8-0.1-5.6,0.2-8.4,0.4c-0.1,0-0.2,0-0.3,0C25,4.2,27.9,3.9,30.8,4c2.6,0,5.3,0.1,7.9,0 C36.1,4,33.5,4,30.9,3.9z"/><path fill="#FFF" d="M22.2,4.4c0.1,0,0.2,0,0.3,0c2.8-0.2,5.6-0.5,8.4-0.4C33.5,4,36.1,4,38.7,4c1.8,0,3.6-0.1,5.4-0.2 c0.3,0,0.5-0.1,0.8-0.1c0.3,0,0.5,0,0.8-0.1c0-0.1,0-0.1,0-0.2c0,0,0,0-0.1,0c-1.2-0.3-2.4,0.1-3.6,0.2C35.6,3.9,29,3.5,22.5,4.1 c-2.9,0.3-5.8,0.5-8.7,0.6c-0.1,0-0.1,0-0.2,0.1C16.5,4.8,19.3,4.6,22.2,4.4z"/><path fill="#FFF" d="M37.4 1.5L37.4 1.5 37.4 1.5z"/><path fill="#FFF" d="M37.4 1.5L37.4 1.5 37.4 1.5z"/><path fill="#FFF" d="M34.2,2c-2.2-0.2-4.4,0.2-6.6,0.3c0.2,0,0.4,0,0.6,0l0,0l0,0c1.7,0.2,3.3-0.3,5-0.3c0.4,0,0.8,0,1.1,0.2 c0.1,0,0.1,0.1,0.2,0.1c0.5-0.3,1.2,0,1.6-0.5l0,0C35.5,2.1,34.8,2.1,34.2,2z"/><path fill="#FFF" d="M33.4,2.2c-0.1,0-0.1-0.1-0.2-0.1C33.3,2.1,33.3,2.1,33.4,2.2z"/><path fill="#FFF" d="M33.7,1.9c-2.3,0-4.6,0.2-7,0.4c-0.1,0-0.2,0-0.3,0c0.4,0,0.8,0,1.2,0C29.8,2.2,32,1.8,34.2,2 c0.6,0.1,1.3,0.1,1.9-0.2c-0.1,0-0.2,0-0.2,0C35.2,1.9,34.4,1.9,33.7,1.9z"/><path fill="#FFF" d="M26.7,2.3c2.3-0.2,4.6-0.4,7-0.4c0.7,0,1.5,0.1,2.2-0.1c-0.8,0-1.7,0-2.5,0C31.2,1.9,28.9,2,26.7,2.3z"/><path fill="#FFF" d="M48.3,3.4c0.4,0,0.7,0,1.1,0c0.4,0,0.7,0,1.1-0.1c0.3-0.1,0.6-0.1,0.9-0.1c0,0,0-0.1,0-0.1 c-1.1,0-2.2,0-3.3,0c-0.7,0-1.4-0.4-2,0.2c0.3,0,0.5,0,0.8,0C47.4,3.4,47.9,3.4,48.3,3.4z"/><path fill="#FFF" d="M50.5,3.4L50.5,3.4c0.3,0,0.5,0,0.8,0c0,0,0-0.1,0-0.1C51,3.2,50.7,3.2,50.5,3.4c-0.4,0-0.8,0-1.1,0 C49.8,3.4,50.1,3.4,50.5,3.4L50.5,3.4z"/><path fill="#FFF" d="M46.9,3.4c0.5,0,1,0,1.4,0C47.9,3.4,47.4,3.4,46.9,3.4z"/><path fill="#FFF" d="M45.9,3.5c0.1,0,0.3,0,0.4-0.1c-0.1,0-0.2,0-0.3,0c-0.1,0-0.2,0-0.3,0l0,0C45.9,3.4,45.9,3.4,45.9,3.5z"/><path fill="#FFF" d="M47.7,3.5c-0.3,0-0.6,0-0.8,0.1c1.1,0,2.1,0.1,3.2-0.1c-0.2,0-0.5,0-0.7,0C48.8,3.5,48.2,3.5,47.7,3.5z"/><path fill="#FFF" d="M49.3,3.5c0.2,0,0.5,0,0.7,0c0.2,0,0.3-0.1,0.5-0.1C50.1,3.4,49.7,3.5,49.3,3.5z"/><path fill="#FFF" d="M46.4,3.4c-0.1,0-0.3,0-0.4,0.1c0,0.1,0,0.1-0.1,0.2c0.3,0,0.7,0,1,0c0.3,0,0.6-0.1,0.8-0.1 C47.2,3.5,46.8,3.5,46.4,3.4z"/><path fill="#FFF" d="M45.8,3.5c0,0,0.1,0,0.1,0c0,0-0.1-0.1-0.1-0.1l0,0h0C45.8,3.4,45.8,3.5,45.8,3.5z"/><path fill="#FFF" d="M45.9,3.5c0,0-0.1,0-0.1,0c0,0.1,0,0.1,0,0.2C45.9,3.6,46,3.5,45.9,3.5z"/><path fill="#FFF" d="M49.4,3.4c-0.4,0-0.7,0-1.1,0C48.7,3.4,49,3.4,49.4,3.4z"/><path fill="#FFF" d="M46.9,3.4c-0.3,0-0.5,0-0.8,0c0.1,0,0.2,0,0.3,0C46.5,3.4,46.7,3.4,46.9,3.4z"/><path fill="#FFF" d="M47.7,3.5c0.5,0,1.1,0,1.6,0C48.8,3.5,48.2,3.5,47.7,3.5z"/><path fill="#FFF" d="M49.3,3.5c0.4,0,0.8-0.1,1.2-0.1l0,0c-0.4,0-0.8,0-1.1,0c-0.4,0-0.7,0-1.1,0c-0.5,0-1,0-1.4,0 c-0.2,0-0.4,0-0.5,0c0.4,0.1,0.9,0.1,1.3,0.1C48.2,3.5,48.8,3.5,49.3,3.5z"/><path fill="#FFF" d="M51.4,3.2c0.1,0,0.2,0,0.2,0c0,0-0.1-0.1-0.1-0.1h0c-0.1,0-0.2,0-0.3,0C51.4,3.2,51.4,3.2,51.4,3.2z"/><path fill="#FFF" d="M56,3.1L56,3.1c-1,0-2,0-3,0c-0.1,0.1-0.2,0.1-0.3,0.1C53.8,3.3,54.9,3.3,56,3.1z"/><path fill="#FFF" d="M52.8,3.2c0.1,0,0.2-0.1,0.3-0.1c-0.5,0-1,0-1.5,0c0,0,0.1,0.1,0.1,0.1C52,3.2,52.4,3.2,52.8,3.2z"/><path fill="#FFF" d="M51.3,3.4c0.2,0,0.3,0,0.5,0c0,0-0.1-0.1-0.1-0.1c-0.1,0-0.2,0-0.2,0C51.4,3.3,51.4,3.3,51.3,3.4z"/><path fill="#FFF" d="M56,3.1c-1.1,0.2-2.2,0.1-3.3,0.1c-0.2,0-0.4,0.1-0.6,0.1C53.4,3.3,54.7,3.5,56,3.1z"/><path fill="#FFF" d="M51.8,3.3c0.1,0,0.2,0,0.3,0c0.2,0,0.4,0,0.6-0.1c-0.4,0-0.7,0-1.1,0C51.7,3.3,51.8,3.3,51.8,3.3z"/><path fill="#FFF" d="M51.4,3.2C51.4,3.2,51.4,3.2,51.4,3.2c0.1,0,0-0.1-0.1-0.1C51.3,3.2,51.3,3.2,51.4,3.2 C51.3,3.2,51.4,3.2,51.4,3.2z"/><path fill="#FFF" d="M51.4,3.2C51.4,3.2,51.4,3.2,51.4,3.2c-0.1,0-0.1,0-0.1,0c0,0,0,0.1,0,0.1C51.4,3.3,51.4,3.3,51.4,3.2z"/><path fill="#FFF" d="M9.7,3.6c0.9,0.2,1.8,0.2,2.6-0.3l0,0C11.5,3.7,10.5,3.4,9.7,3.6z"/><path fill="#FFF" d="M9.7,3.6c0.9-0.2,1.8,0.1,2.6-0.3l0,0v0C11.4,3.4,10.5,3.2,9.7,3.6z"/><path fill="#FFF" d="M26.6,2.4c-0.4,0.1-0.9,0-1.2,0.2c1-0.1,2,0.2,2.9-0.3C27.7,2.5,27.2,2.5,26.6,2.4z"/><path fill="#FFF" d="M26.6,2.4c-0.1,0-0.1,0-0.2-0.1c-0.4,0-0.7,0-1,0.3h0C25.8,2.3,26.2,2.5,26.6,2.4z"/><path fill="#FFF" d="M27.7,2.3c-0.3,0-0.6,0-1,0c0,0,0,0-0.1,0c0.5,0.1,1.1,0.1,1.6-0.1l0,0C28.1,2.3,27.9,2.3,27.7,2.3z"/><path fill="#FFF" d="M26.7,2.4c0.3,0,0.6,0,1,0c-0.4,0-0.8,0-1.2,0C26.5,2.4,26.6,2.4,26.7,2.4C26.7,2.4,26.7,2.4,26.7,2.4z"/><path fill="#FFF" d="M20.8,3c-0.5-0.2-1-0.2-1.5,0c-0.1,0-0.1,0-0.2,0c0,0,0,0.1,0,0.1c0.7-0.2,1.6,0.4,2.3-0.2 C21.2,3.1,21,3,20.8,3z"/><path fill="#FFF" d="M20.7,2.9L20.7,2.9L20.7,2.9c-0.4,0-0.9,0-1.3,0l0,0l0,0c-0.1,0-0.2,0-0.3,0c0,0,0,0.1,0,0.1 c0.1,0,0.1,0,0.2,0c0.5-0.2,1-0.2,1.5,0c0.2,0.1,0.4,0.1,0.6,0c0,0,0.1,0,0.1-0.1C21.2,2.9,20.9,2.9,20.7,2.9z"/><path fill="#FFF" d="M19,3C18.9,3,18.9,3,19,3c-0.8,0.1-1.5-0.1-2.2,0.1l0,0c0.8,0.2,1.6,0.1,2.4,0C19,3.1,19,3,19,3z"/><path fill="#FFF" d="M18.9,3C18.9,3,18.9,3,18.9,3c0.1,0,0.1-0.1,0.2-0.1c-0.4,0-0.7,0-1.1,0c-0.1,0-0.1,0-0.2,0 c-0.4,0-0.7,0.1-1,0.2C17.5,2.9,18.2,3.1,18.9,3z"/><path fill="#FFF" d="M17.8,2.9c0.1,0,0.1,0,0.2,0C17.9,2.9,17.9,2.9,17.8,2.9z"/><path fill="#FFF" d="M19,3c0,0,0,0.1,0.1,0.1c0,0,0-0.1,0-0.1C19.1,3,19,3,19,3z"/><path fill="#FFF" d="M19,3c0,0,0.1,0,0.1,0c0,0,0-0.1,0-0.1C19,2.9,19,2.9,19,3z"/><path fill="#FFF" d="M22.8,2.6c0,0-0.1,0-0.1,0c-0.2,0-0.4,0-0.6,0.1c-0.1,0.1-0.3,0.1-0.4,0.1c-0.1,0-0.2,0.1-0.2,0.1 c0.9,0,1.7,0,2.6,0c-0.1,0-0.2-0.1-0.2-0.1c-0.1,0-0.3,0-0.4-0.1C23.2,2.6,23,2.6,22.8,2.6z"/><path fill="#FFF" d="M22.8,2.6c0.2,0,0.4,0,0.6,0.1c0.1,0.1,0.3,0,0.4,0.1c-0.1,0-0.2-0.1-0.3-0.1C23.3,2.6,23.1,2.6,22.8,2.6z"/><path fill="#FFF" d="M21.9,2.6c-0.1,0-0.2,0.1-0.2,0.1c0.1,0,0.3,0,0.4-0.1c0.2,0,0.4-0.1,0.6-0.1c-0.2,0-0.3,0-0.5,0 C22.1,2.6,22,2.6,21.9,2.6z"/><path fill="#FFF" d="M22,2.6L22,2.6L22,2.6C22,2.6,21.9,2.6,22,2.6c0.1,0,0.1,0,0.2,0C22.1,2.6,22.1,2.6,22,2.6z"/><path fill="#FFF" d="M3.1,3.9c0.7,0.3,1.4,0.6,2.1,0C4.5,4.2,3.8,4.1,3.1,3.9z"/><path fill="#FFF" d="M3.1,3.9c0.7,0.2,1.4,0.3,2.1,0v0C4.5,3.9,3.8,3.9,3.1,3.9z"/><path fill="#FFF" d="M7.9,3.6c0.5,0.3,1,0.3,1.6,0C8.9,3.8,8.4,3.8,7.9,3.6z"/><path fill="#FFF" d="M7.9,3.6c0.5,0.2,1,0.2,1.6,0l0,0C8.9,3.6,8.4,3.6,7.9,3.6z"/><path fill="#FFF" d="M36.9,1.7c-0.2,0-0.3,0.1-0.5,0.1c0.4,0,0.8,0.2,1-0.3l0,0C37.3,1.7,37.1,1.7,36.9,1.7z"/><path fill="#FFF" d="M37.4,1.5L37.4,1.5c-0.2,0-0.4,0.1-0.6,0.1C37.1,1.7,37.3,1.7,37.4,1.5z"/><path fill="#FFF" d="M37.4 1.5L37.4 1.5 37.4 1.5 37.4 1.5 37.4 1.5z"/><path fill="#FFF" d="M37.4 1.5L37.4 1.5 37.4 1.5z"/><path fill="#FFF" d="M37.4 1.5L37.4 1.5 37.4 1.5z"/><path fill="#FFF" d="M2.9,3.9C2.6,4.1,2.4,4.3,2.1,4.4C2.5,4.5,2.7,4.2,2.9,3.9z"/><path fill="#FFF" d="M2.1,4.4c0.3-0.1,0.5-0.4,0.8-0.5v0C2.5,4,2.3,4.1,2.1,4.4z"/><path fill="#FFF" d="M33.4,2.2c0.4,0.2,0.8,0.2,1.1,0.2c-0.1,0-0.1-0.1-0.2-0.1C34.1,2.1,33.7,2.3,33.4,2.2z"/><path fill="#FFF" d="M34.4,2.2c-0.4-0.2-0.8-0.2-1.1-0.2c0.1,0,0.1,0.1,0.2,0.1C33.7,2.3,34.1,2.1,34.4,2.2z"/><path fill="#FFF" d="M23.6,2.6c-0.1,0-0.1-0.1-0.2-0.1c0,0-0.1,0-0.1,0C23.4,2.5,23.5,2.6,23.6,2.6z"/><path fill="#FFF" d="M23,2.5c0.1,0,0.1,0,0.2,0c-0.3-0.1-0.6-0.1-0.9,0c0.1,0,0.1,0,0.2,0C22.7,2.4,22.8,2.4,23,2.5z"/><path fill="#FFF" d="M22.5,2.5c-0.1,0-0.1,0-0.2,0c-0.1,0-0.2,0.1-0.3,0.1C22.2,2.5,22.3,2.5,22.5,2.5z"/><path fill="#FFF" d="M23,2.5c0.1,0,0.2,0,0.3,0.1c0,0,0.1,0,0.1,0c-0.1,0-0.1,0-0.2-0.1C23.1,2.4,23.1,2.5,23,2.5z"/><path fill="#FFF" d="M22.7,2.6c0,0,0.1,0,0.1,0C22.8,2.6,22.8,2.6,22.7,2.6z"/><path fill="#FFF" d="M22.2,2.6c0.2,0,0.3,0,0.5,0c0,0,0.1,0,0.1,0c0.2,0,0.5,0,0.7,0c-0.1,0-0.2-0.1-0.3-0.1 C22.9,2.5,22.6,2.6,22.2,2.6z"/><path fill="#FFF" d="M22.5,2.5c0.2,0,0.3,0,0.5,0C22.8,2.4,22.7,2.4,22.5,2.5z"/><path fill="#FFF" d="M22,2.6L22,2.6c0.1,0,0.2,0,0.2,0c0.4,0,0.7-0.1,1.1-0.1c-0.1,0-0.2,0-0.3-0.1c-0.2,0-0.3,0-0.5,0 C22.3,2.5,22.2,2.5,22,2.6z"/><path fill="#FFF" d="M19.4,2.8C19.4,2.8,19.4,2.8,19.4,2.8C19.4,2.8,19.4,2.8,19.4,2.8C19.5,2.8,19.5,2.8,19.4,2.8z"/><path fill="#FFF" d="M20.7,2.9c-0.1,0-0.2-0.1-0.2-0.1c0,0,0,0-0.1,0C20.5,2.8,20.6,2.8,20.7,2.9z"/><path fill="#FFF" d="M20,2.7c0.1,0,0.2,0,0.2,0c-0.2,0-0.4,0-0.6,0c0.1,0,0.1,0,0.2,0C19.9,2.7,20,2.7,20,2.7z"/><path fill="#FFF" d="M19.8,2.7c-0.1,0-0.1,0-0.2,0c-0.1,0-0.1,0.1-0.2,0.1c0,0,0,0,0,0C19.6,2.8,19.7,2.7,19.8,2.7z"/><path fill="#FFF" d="M20,2.7c0.1,0,0.2,0,0.3,0c0,0,0,0,0.1,0c-0.1,0-0.1,0-0.2-0.1C20.2,2.7,20.1,2.7,20,2.7z"/><path fill="#FFF" d="M19.5,2.8c0,0-0.1,0-0.1,0l0,0c0.4,0,0.9,0,1.3,0l0,0c-0.1,0-0.2-0.1-0.3-0.1C20.1,2.8,19.8,2.8,19.5,2.8z"/><path fill="#FFF" d="M19.8,2.7c0.1,0,0.1,0,0.2,0C20,2.7,19.9,2.7,19.8,2.7z"/><path fill="#FFF" d="M19.5,2.8c0.3,0,0.6,0,0.9-0.1c-0.1,0-0.2,0-0.3,0c-0.1,0-0.1,0-0.2,0C19.7,2.7,19.6,2.8,19.5,2.8z"/><path fill="#FFF" d="M31.4,38.5c-0.2,0.1-0.4,0.1-0.6,0.1C31,38.6,31.2,38.6,31.4,38.5z"/><path fill="#FFF" d="M62.6,34.6c-0.3-0.1-0.4-0.3-0.4-0.6c-0.1-1.4,0.1-2.9-0.3-4.3c-0.2-0.5-0.2-1-0.1-1.5 c0.2-1.3,0.1-2.7,0.1-4.1v-0.5c-0.1-2,0.2-4-0.2-6c0-0.2,0-0.3,0-0.5c0-1.3,0-2.6,0-3.9c0-0.1,0-0.3,0-0.4c0.3-1.3,0.3-2.6,0-3.9 c0-0.5,0-1,0-1.5c0-0.5-0.1-1-0.3-1.5c-0.2-0.3-0.4-0.6-0.6-0.9c-0.1,0.4,0,0.8,0,1.2C61,8.2,61.2,10.1,61,12 c-0.3,2.6-0.1,5.2,0,7.8c0.1,4.3,0,8.6,0.3,12.9c0.1,2-0.4,2.3-2.3,2.5c-2.6,0.2-5.2,0.5-7.8,0.7c-3.6,0.2-7.2,0.6-10.8,0.9 c-3.2,0.2-6.3,0.4-9.5,0.7c-1.6,0.1-3.2,0.2-4.9,0c0,0-0.1,0-0.1,0c-1.3,0-2.7,0-4,0.1c0.4,0.2,0.8,0.4,1.2,0.7 c0.1-0.1,0.1-0.1,0.2-0.2c0.4-0.1,0.9-0.1,1.3-0.1c0.4,0,0.7,0,1.1,0c0.1,0,0.3,0.1,0.4,0.1c0.3,0.1,0.6,0.2,0.8,0.2 c1.5,0,3,0,4.4,0l0,0c0.5,0,1,0,1.6,0h0c1.3-0.5,2.6-0.1,3.9-0.2c0.2,0,0.3,0,0.5,0h0c0.6-0.3,1.2-0.2,1.8-0.2v0l0,0 c0.4,0,0.9,0,1.3,0l0,0c0.9-0.4,1.9-0.2,2.9-0.2c0.1,0,0.2,0,0.3,0c0,0,0,0,0,0c0.7-0.4,1.4-0.2,2.1-0.2c0.1,0,0.2,0,0.3,0 c1-0.4,2.1-0.2,3.1-0.2c0.1,0,0.2,0,0.3,0c0.7-0.4,1.4-0.2,2.1-0.2c0.2,0,0.3,0,0.5,0h0c1.2-0.5,2.5-0.1,3.7-0.2v0 c0.1,0,0.2,0,0.3,0l0,0c0.4-0.3,0.9-0.2,1.3-0.2l0,0l0,0c0.3,0,0.7,0,1,0c0.8-0.4,1.7-0.2,2.5-0.2c0,0,0,0,0,0 c0.5-0.6,1-1.1,1.8-1.3c0.1,0,0.1,0,0.2-0.1c0,0,0-0.1,0-0.1C62.7,34.6,62.7,34.6,62.6,34.6z"/><path fill="#FFF" d="M27,38.5c-0.3-0.1-0.6-0.1-0.8-0.2c-0.1-0.1-0.3-0.1-0.4-0.1c-0.4-0.1-0.7,0-1.1,0c-0.4,0-0.9,0-1.3,0.1 c-0.1,0-0.1,0.1-0.2,0.2c0,0,0,0,0.1,0c0,0,0,0.1,0,0.1c0,0,0.1,0,0.1,0c0.4-0.3,0.9-0.3,1.3,0l0,0c0.3,0,0.7,0,1,0l0,0v0 C26.1,38.5,26.5,38.5,27,38.5z"/><path fill="#FFF" d="M23.2,38.4C23.2,38.3,23.2,38.3,23.2,38.4c-0.1,0-0.1,0-0.2,0.1C23.1,38.5,23.2,38.5,23.2,38.4 C23.2,38.4,23.2,38.4,23.2,38.4z"/><path fill="#FFF" d="M61,36.1L61,36.1c0.9,0.1,1.3-0.6,1.8-1.1c0-0.1,0-0.2,0-0.3c-0.1,0-0.1,0-0.2,0.1 c-0.7,0.2-1.3,0.7-1.8,1.3c0,0,0,0,0,0C60.9,36.1,60.9,36.1,61,36.1L61,36.1z"/><path fill="#FFF" d="M62.8,34.5c-0.1-0.2-0.2-0.3-0.3-0.5c-0.5-1.5-0.1-3-0.3-4.5l0,0v0c-0.1-0.3-0.2-0.7,0-1 c-0.4-1.5-0.4-3,0-4.5l0,0c0-0.1,0-0.2,0-0.3c-0.1-0.2-0.1-0.5-0.1-0.8c-0.3-1.8,0-3.7-0.1-5.5l0,0l0,0c0-0.1,0-0.2,0-0.3 c-0.4-1.4-0.4-2.8,0-4.2l0,0c0-0.1,0-0.2,0-0.3c0-1.3,0-2.6,0-3.9l0,0l0,0c0-0.5,0-1,0-1.6c0-0.1-0.1-0.1-0.1-0.2 c-0.2-0.4-0.1-0.9-0.2-1.4c0,0,0,0.1,0.1,0.1c0,0,0-0.1-0.1-0.1c-0.1-0.4-0.2-0.9-0.3-1.3l0,0l0,0c-0.1,0.1-0.3,0.2-0.4,0.2 c0,0-0.1,0-0.1,0c-0.1,0.1-0.2,0.3-0.2,0.4c0.1,0.3,0.4,0.6,0.6,0.9c0.2,0.5,0.3,1,0.3,1.5c0,0.5,0,1,0,1.5c0.3,1.3,0.3,2.6,0,3.9 c0,0.1,0,0.3,0,0.4c0,1.3,0,2.6,0,3.9c0,0.2,0,0.3,0,0.5c0.4,2,0.2,4,0.2,6c0,0.2,0,0.3,0,0.5c0,1.4,0.1,2.7-0.1,4.1 c-0.1,0.5-0.1,1,0.1,1.5c0.4,1.4,0.2,2.9,0.3,4.3c0,0.3,0.1,0.5,0.4,0.6C62.7,34.6,62.7,34.6,62.8,34.5 C62.8,34.6,62.8,34.6,62.8,34.5L62.8,34.5z"/><path fill="#FFF" d="M61,4.6c0,0,0.1,0,0.1,0c0.1-0.1,0.3-0.1,0.4-0.2l0,0c-0.1,0-0.2,0-0.3,0C61.1,4.5,61,4.6,61,4.6z"/><path fill="#FFF" d="M4.9,33.5c-1.1,0-2.1,0.2-3.1,0.5c0,0.1,0,0.1,0,0.2c1-0.4,2-0.6,3.1-0.5C4.9,33.6,4.9,33.5,4.9,33.5z"/><path fill="#FFF" d="M4.9,33.6c-1.1,0-2.1,0.2-3.1,0.5c0,0,0,0.1,0,0.1c0.1-0.1,0.2-0.1,0.3-0.1c0.9-0.3,1.8-0.4,2.7-0.4 C4.9,33.8,4.9,33.7,4.9,33.6z"/><path fill="#FFF" d="M2.6,17.5c0,0.1,0,0.2,0,0.3C2.6,17.7,2.6,17.6,2.6,17.5z"/><path fill="#FFF" d="M2.4,17c0,0,0.1,0.1,0.1,0.1C2.4,17.1,2.4,17.1,2.4,17C2.4,17,2.4,17,2.4,17L2.4,17z"/><path fill="#FFF" d="M2.4,17C2.4,17,2.4,17,2.4,17C2.4,17,2.4,17,2.4,17C2.4,17,2.4,17,2.4,17C2.4,17,2.4,17,2.4,17z"/><path fill="#FFF" d="M2.5,17.2c0.1,0.1,0.1,0.2,0.1,0.3C2.6,17.4,2.5,17.3,2.5,17.2z"/><path fill="#FFF" d="M2.5,17.2c0.1,0.1,0.1,0.2,0.1,0.3c0,0.1,0,0.2,0,0.3c0-0.1,0-0.2,0-0.3C2.6,17.4,2.5,17.3,2.5,17.2 c0,0-0.1-0.1-0.1-0.1c0,0.1,0,0.2,0,0.2c0,0.1,0.1,0.2,0.1,0.3c0,0.7,0.1,1.3,0.1,1.9c0,0,0.1,0,0.1,0c0.2,0,0.3-0.2,0.3-0.4 c-0.2-0.7,0.3-1.6-0.5-2.2c0,0,0,0,0,0C2.4,17.1,2.4,17.1,2.5,17.2z"/><path fill="#FFF" d="M2.4,17.3c0,0.6,0,1.3,0,1.9c0,0.1,0,0.3,0.2,0.3c0-0.6-0.1-1.3-0.1-1.9C2.4,17.5,2.4,17.4,2.4,17.3z"/><path fill="#FFF" d="M2.4 17L2.4 17 2.4 17z"/><path fill="#FFF" d="M2.4,17C2.4,17,2.4,17,2.4,17C2.4,17,2.4,17,2.4,17C2.4,17,2.4,17,2.4,17C2.4,17,2.4,17,2.4,17 C2.4,17,2.4,17,2.4,17z"/><path fill="#FFF" d="M2.4 17L2.4 17 2.4 17z"/><path fill="#FFF" d="M47.8,39.2c1.1-0.1,2.3,0.3,3.4,0.2c-0.5-0.2-1-0.4-1.4-0.5l0,0l0,0c-0.8,0-1.6,0-2.4,0c-0.3,0-0.5,0-0.8,0 c0,0,0,0,0,0c-0.7,0.4-1.4,0.2-2.1,0.2c-0.3,0-0.5,0-0.8,0l0,0c-0.5,0.3-1,0.3-1.6,0c-0.4,0.1-0.9,0.2-1.3,0.3l0,0 c-0.9,0.4-1.7,0.4-2.6,0c-0.2,0-0.3,0-0.5,0l0,0c-1.3,0.5-2.6,0.2-3.9,0.2c-0.6,0-1.2,0-1.9,0c-0.1,0-0.2,0.1-0.4,0.1 c-0.7,0.1-1.4,0.2-2,0.3c-0.3,0.1-0.7,0.1-1,0.1c-0.2,0-0.4,0.1-0.6,0.2c-0.1,0-0.2,0.1-0.4,0.1c-0.1,0-0.2,0.1-0.2,0.1 c3.2-0.4,6.5-0.7,9.8-0.7C40.6,40,44.2,39.7,47.8,39.2z"/><path fill="#FFF" d="M26.1,40.9c0.2-0.1,0.4-0.1,0.7-0.1c0.2,0,0.3,0,0.5-0.1c0.1,0,0.1-0.1,0.2-0.1c0.1,0,0.2-0.1,0.4-0.1 c0.2-0.1,0.4-0.1,0.6-0.2c-0.4,0-0.8,0-1.2,0v0h0c-0.4,0.1-0.9,0.2-1.3,0.3c-0.3,0.1-0.5,0.2-0.6,0.4 C25.6,40.9,25.9,40.9,26.1,40.9z"/><path fill="#FFF" d="M31.9,39.8c-0.7,0.1-1.4,0.1-2.1,0.2l0,0c-0.1,0.1-0.2,0.1-0.3,0.1c0.7-0.1,1.4-0.2,2-0.3 C31.7,39.9,31.8,39.8,31.9,39.8z"/><path fill="#FFF" d="M64,15.4c-0.5,3.5-0.2,7-0.2,10.5c0.1,1,0.1,2,0.2,3.1c0-0.7,0-1.5,0-2.2c0.1-4.3,0-8.6,0.2-12.9 c-0.1,0-0.2,0-0.4,0C64.1,14.3,64,14.9,64,15.4z"/><path fill="#FFF" d="M56.8,38.5c0.2-0.1,0.4-0.1,0.6-0.2C57.2,38.3,57,38.3,56.8,38.5z"/><path fill="#FFF" d="M64.5,36.8c-0.1-1.4-0.2-2.7-0.3-4.1c0,1.2,0.1,2.3,0,3.5c-0.1,0.1-0.2,0.2-0.3,0.3c0,0,0,0.1,0,0.1l0,0 c0.3,1.3,0,1.8-1.3,1.8c-1.9,0.1-3.8,0-5.7,0c-0.3,0.1-0.6,0.2-0.9,0.2c-0.7,0-1.2,0.2-1.4,0.7c0.2,0,0.5,0,0.7-0.1 c0.2-0.1,0.4-0.1,0.6-0.2c2.3-0.3,4.7,0,7-0.3C64.4,38.6,64.6,38.3,64.5,36.8z"/><path fill="#FFF" d="M63.8,13.8c0.1,0,0.2,0,0.4,0c0-0.1,0-0.2,0-0.4c0-0.1,0-0.2,0-0.4c-0.2,0.2-0.4,0.3-0.5,0.5v0 C63.7,13.7,63.8,13.7,63.8,13.8z"/><path fill="#FFF" d="M63.6,24.2c0,0.6,0,1.1-0.3,1.6c0.2,3.5,0.5,7.1,0.5,10.6c0.1-0.1,0.2-0.2,0.3-0.3c0.1-1.2,0-2.3,0-3.5 C64.1,31.5,64,30.2,64,29c-0.1-1-0.2-2-0.2-3.1c0.1-3.5-0.3-7,0.2-10.5c0-0.5,0.1-1.1-0.2-1.6c-0.1,0-0.1,0-0.2,0 c0,0.5,0,1.1,0,1.6C63.6,18.4,63.6,21.3,63.6,24.2z"/><path fill="#FFF" d="M63.6,13.8c0.1,0,0.1,0,0.2,0c-0.1-0.1-0.1-0.2-0.2-0.2v0l0,0C63.6,13.7,63.6,13.7,63.6,13.8z"/><path fill="#FFF" d="M63.8,36.5C63,37,61.7,37,60.9,36.5c0,0,0,0,0-0.1c-0.7,0.3-1.4,0.3-2.1,0.2c-0.1,0-0.2,0.1-0.3,0.1 c-0.3,0.1-0.7,0.2-1.1,0.2c-0.5-0.1-1,0-1.4,0.1c-0.1,0-0.3,0-0.4,0c-0.1,0-0.2,0-0.3,0c-1.3,0.3-2.7,0-4,0.5 c-0.7,0.2-1.5,0.3-1.8,1.1c0,0,0.1,0,0.1,0c1.6-0.4,2.8-0.1,3.6,0.8c0.3,0,0.5,0,0.8,0c-0.1-0.6,0.3-1,1.1-1.2 c0.5-0.1,0.9-0.2,1.4-0.4c0.7-0.3,1.4-0.1,2.1,0c1.9,0.3,3.6,0.1,5.2-1C63.8,36.7,63.8,36.7,63.8,36.5L63.8,36.5L63.8,36.5 L63.8,36.5C63.9,36.6,63.8,36.6,63.8,36.5z"/><path fill="#FFF" d="M62.3,36.1c-0.3,0.3-0.8,0.2-1.3,0.2c0,0-0.1,0-0.1,0c0,0,0,0,0,0.1c0.8,0.5,2.1,0.5,2.9,0.1 C63.5,35.9,63.1,35.3,62.3,36.1z"/><path fill="#FFF" d="M57.3,36.6c-0.5,0.3-1,0.3-1.6,0.3v0c-0.1,0.1-0.3,0.1-0.4,0.1c0.1,0,0.2,0,0.3,0c0.1,0,0.3,0,0.4,0 c0.5-0.1,0.9-0.2,1.4-0.1c0.4,0.1,0.7-0.1,1.1-0.2c0.1,0,0.2-0.1,0.3-0.1C58.3,36.6,57.8,36.6,57.3,36.6z"/><path fill="#FFF" d="M52,39.3c0,0,0.1,0,0.1,0c0.4,0,0.7,0,1.1,0c-0.8-0.9-2-1.2-3.6-0.8c0,0-0.1,0-0.1,0c0,0,0,0.1-0.1,0.2 c0.1,0.1,0.2,0.2,0.3,0.3v0c0.4,0.1,0.9,0.3,1.4,0.5c0.2,0,0.4-0.1,0.6-0.1C51.9,39.3,51.9,39.3,52,39.3z"/><path fill="#FFF" d="M63.7,36.8c-1.6,1.1-3.3,1.3-5.2,1c-0.7-0.1-1.4-0.3-2.1,0c-0.4,0.2-0.9,0.2-1.4,0.4 c-0.8,0.2-1.2,0.6-1.1,1.2c0.2,0,0.4,0,0.6,0c0.2-0.4,0.6-0.7,1.4-0.7c0.3,0,0.6-0.2,0.9-0.2c0.2-0.1,0.4-0.1,0.6-0.2 c1.5-0.3,3,0,4.4-0.1c1-0.1,2.1-0.1,2.1-1.6C63.8,36.7,63.8,36.7,63.7,36.8z"/><path fill="#FFF" d="M37.5,39.2c0.2,0,0.4,0,0.6,0c0.9,0.2,1.7,0.3,2.6,0c0.2,0,0.3-0.1,0.5-0.1c-1.7,0.1-3.5,0-5.2,0 c0.2-0.1,0.4-0.2,0.6-0.4c-1.2-0.2-2.4,0.1-3.6,0.3c-0.4-0.1-0.8-0.1-1.2-0.1c0.2,0.1,0.5,0.2,0.4,0.5c0,0,0,0,0,0.1 c0.5-0.1,1-0.2,1.5-0.3C35,39.4,36.3,39.4,37.5,39.2z M34.4,38.9c0,0,0.2,0,0.2,0c0,0,0,0.1,0.1,0.2c-0.1,0-0.2,0.1-0.2,0.1 C34.4,39.1,34.3,39,34.4,38.9z"/><path fill="#FFF" d="M43.8,38.9c-0.2,0-0.5,0-0.7,0.1C43.3,38.9,43.5,38.9,43.8,38.9z"/><path fill="#FFF" d="M49.8,37.6c-0.1,0-0.2,0-0.2,0c-0.1,0-0.3,0-0.4,0c-1-0.1-1.9-0.1-2.9,0.2c-0.1,0-0.3,0-0.4,0 c-0.7,0-1.4,0.1-2.1,0.2c-0.1,0-0.3,0-0.4,0c-0.9,0-1.7,0-2.6,0.2c1.6,0,3.1-0.3,4.7-0.3c1.1,0,2.2-0.2,3.3-0.1 c-1.6,0.6-3.3,0.9-5,1c0.3,0,0.5,0,0.8,0c0.7,0,1.4-0.1,2-0.2c0.3,0,0.6,0,0.9,0c0.6,0,1.2,0,1.8,0C49,38,49.3,37.8,49.8,37.6z"/><path fill="#FFF" d="M28.9,40c0.1,0,0.2,0,0.3,0c0.2,0,0.5,0,0.7-0.1c0.8-0.1,1.5-0.3,2.3-0.4c0,0,0,0,0-0.1 c0-0.3-0.2-0.4-0.4-0.5c-0.2,0-0.3,0-0.5-0.1c-0.4-0.1-0.9-0.1-1.3-0.1c-0.7,0.1-1.4,0-2.1,0c-0.3,0-0.5,0-0.8,0c-0.3,0-0.7,0-1,0 c-0.2,0-0.4,0-0.5,0c1.9,0.7,4.1-0.2,6.2,0.6c-1.6,0.5-3.2,0.2-4.6,0.7c0.2,0,0.5,0,0.7,0C28.3,40,28.6,40,28.9,40z"/><path fill="#FFF" d="M36.6,38.7c0.1-0.1,0.2-0.1,0.3-0.2c-1.3,0-2.6,0-3.9,0l0,0l0,0c-0.5,0-1,0-1.6,0l0,0h0l0,0 c-0.2,0.1-0.4,0.1-0.6,0.1c0,0,0,0-0.1,0c0.3,0,0.6,0.1,0.9,0.2c0.1,0,0.1,0,0.2,0.1c0.4,0.1,0.8,0.1,1.2,0.1 C34.1,38.8,35.3,38.5,36.6,38.7z"/><path fill="#FFF" d="M40.8,38.3c0.8-0.2,1.7-0.2,2.6-0.2c0.1,0,0.3,0,0.4,0c0.7-0.1,1.4-0.2,2.1-0.2c0.1,0,0.3,0,0.4,0 c1-0.2,1.9-0.2,2.9-0.2c0.1,0,0.3,0,0.4,0c0.1,0,0.2,0,0.2,0c0,0,0.1,0,0.1,0c1.3-0.5,2.7-0.6,4.1-0.6c-0.6,0-1.3,0-1.9,0l0,0l0,0 c-0.2,0-0.3,0-0.5,0c-0.7,0.3-1.4,0.3-2.1,0.2c-0.1,0-0.2,0-0.3,0c-1,0.5-2.1,0.2-3.1,0.2c-0.1,0-0.2,0-0.3,0 c-0.7,0.4-1.4,0.2-2.1,0.2c0,0,0,0,0,0c0,0,0,0,0,0c-0.1,0-0.2,0-0.3,0c-0.9,0.5-1.9,0.2-2.9,0.2l0,0l0,0c-0.4,0-0.9,0-1.3,0l0,0 c0,0.1,0,0.2,0,0.2C39.8,38.3,40.3,38.3,40.8,38.3z"/><path fill="#FFF" d="M55.1,36.9c-0.3,0-0.7,0-1,0C54.4,36.9,54.8,36.9,55.1,36.9z"/><path fill="#FFF" d="M26.2,38.7c0.3,0.1,0.6,0,1,0c0.3,0,0.5,0,0.8,0C27.3,38.7,26.8,38.7,26.2,38.7z"/><path fill="#FFF" d="M30.8,38.6c-0.3,0-0.5,0.1-0.8,0.1c0.4,0,0.9,0,1.3,0.1c0.2,0,0.3,0.1,0.5,0.1c-0.1,0-0.1,0-0.2-0.1 C31.3,38.7,31.1,38.6,30.8,38.6z"/><path fill="#FFF" d="M31.9,39.8c0.6,0,1.2-0.1,1.9,0c1.3-0.5,2.6-0.1,3.9-0.2l0,0l0,0c0.2,0,0.3,0,0.5,0c0.9,0,1.7,0,2.6,0l0,0 l0,0c0.4-0.1,0.9-0.2,1.3-0.3c0.5,0,1,0,1.6,0l0,0l0,0c0.3,0,0.5,0,0.8,0c0.7-0.4,1.4-0.2,2.1-0.2c0,0,0,0,0,0s0,0,0,0 c0.3,0,0.5,0,0.8,0c0.6-0.3,1.3-0.2,2-0.2c0,0,0,0-0.1-0.1c0,0,0-0.1,0-0.1c-0.6,0-1.2,0-1.8,0c-0.3,0-0.6,0-0.9,0 c-0.7,0.1-1.3,0.2-2,0.2c-0.3,0-0.5,0-0.8,0c0,0,0,0,0,0c-0.2,0-0.5,0.1-0.7,0.1c-0.6,0-1.2,0.1-1.8,0.1c-0.2,0-0.3,0.1-0.5,0.1 c-0.9,0.3-1.7,0.2-2.6,0c-0.2,0-0.4,0-0.6,0c-1.3,0.3-2.5,0.3-3.8,0c-0.5,0.1-1,0.1-1.5,0.3C32.2,39.6,32.1,39.7,31.9,39.8z"/><path fill="#FFF" d="M28,40c0.3,0,0.6,0,0.9,0C28.6,40,28.3,40,28,40z"/><path fill="#FFF" d="M31.9,39.8c0.2-0.1,0.3-0.2,0.3-0.3c-0.8,0.2-1.5,0.4-2.3,0.4C29.7,40,29.5,40,29.2,40c0.2,0,0.4,0,0.6,0 l0,0l0,0C30.5,39.9,31.2,39.8,31.9,39.8z"/><path fill="#FFF" d="M51.6,37.3c-0.6,0-1.2,0.2-1.8,0.3c-0.5,0.2-0.7,0.5-0.5,1c0.1,0,0.2,0,0.3,0c0.3-0.8,1.1-0.8,1.8-1.1 c1.3-0.4,2.7-0.2,4-0.5c-1,0-2.1,0-3.1,0.2C52,37.3,51.8,37.3,51.6,37.3z"/><path fill="#FFF" d="M55.8,36.9c-0.2,0-0.4,0-0.7,0c-0.3,0-0.7,0-1,0c0,0-0.1,0-0.1,0c-1.4,0-2.8,0.1-4.1,0.6c0,0-0.1,0-0.1,0 c0.6-0.1,1.2-0.3,1.8-0.3c0.2,0,0.4,0,0.6,0c1-0.2,2.1-0.2,3.1-0.2C55.5,37,55.6,36.9,55.8,36.9L55.8,36.9z"/><path fill="#FFF" d="M49.3,38.7C49.3,38.7,49.3,38.7,49.3,38.7c0.1,0.1,0.2,0.1,0.2,0.1c0-0.1,0-0.1,0.1-0.2 C49.4,38.6,49.3,38.6,49.3,38.7C49.2,38.6,49.3,38.6,49.3,38.7z"/><path fill="#FFF" d="M26,38.7c-0.1,0-0.3-0.1-0.4-0.2c0,0.1,0,0.2,0,0.2h0l0,0C25.8,38.7,25.9,38.7,26,38.7z"/><path fill="#FFF" d="M30.8,38.6c0.2,0,0.4-0.1,0.6-0.1l0,0c-1.5,0-3,0-4.4,0c1,0.2,1.9,0.1,2.9,0.1c0,0,0,0,0,0 C30.2,38.6,30.5,38.6,30.8,38.6z"/><path fill="#FFF" d="M29.9,38.6c-1,0-2,0.1-2.9-0.1c-0.4,0-0.9,0-1.3,0v0c0.1,0.1,0.2,0.1,0.4,0.2 C27.3,38.5,28.6,38.7,29.9,38.6z"/><path fill="#FFF" d="M26,38.7c-0.1,0-0.2,0-0.4,0.1l0,0c0.2,0,0.4,0,0.5,0C26.1,38.7,26.1,38.7,26,38.7z"/><path fill="#FFF" d="M27.9,38.7c0.7,0,1.4,0,2.1,0C29.3,38.7,28.6,38.7,27.9,38.7z"/><path fill="#FFF" d="M30.8,38.6C30.8,38.6,30.8,38.6,30.8,38.6c-0.2,0-0.6,0-0.9,0c0,0,0,0,0,0c0,0,0.1,0,0.1,0 C30.2,38.6,30.5,38.6,30.8,38.6z"/><path fill="#FFF" d="M31.4 38.5L31.4 38.5 31.4 38.5z"/><path fill="#FFF" d="M30,38.6C29.9,38.6,29.9,38.6,30,38.6c-1.4,0.1-2.7-0.1-4,0.1c0.1,0,0.1,0,0.2,0c0.6,0,1.1,0,1.7,0 c0.7,0,1.4,0,2.1,0c0.3,0,0.5-0.1,0.8-0.1C30.5,38.6,30.2,38.6,30,38.6z"/><path fill="#FFF" d="M27.2,40c0,0.1,0,0.2,0,0.2c0.1-0.1,0.2-0.1,0.4-0.2C27.5,40.1,27.3,40.1,27.2,40z"/><path fill="#FFF" d="M29.5,40.2c-0.3,0-0.7,0.1-1,0.1l0,0C28.8,40.3,29.2,40.3,29.5,40.2z"/><path fill="#FFF" d="M28.5,40.3L28.5,40.3c0.3,0,0.7-0.1,1-0.1c0.1,0,0.2-0.1,0.3-0.1c-0.8,0.2-1.5,0.2-2.3,0.1 c-0.1,0-0.3,0.1-0.4,0.2v0C27.6,40.2,28,40.3,28.5,40.3z"/><path fill="#FFF" d="M28,40c-0.2,0-0.5,0-0.7,0c0.1,0,0.2,0.1,0.4,0.1C27.7,40.1,27.8,40,28,40z"/><path fill="#FFF" d="M29.2,40c-0.1,0-0.2,0-0.3,0C29,40,29.1,40,29.2,40z"/><path fill="#FFF" d="M29.2,40c-0.1,0-0.2,0-0.3,0c-0.3,0-0.6,0-0.9,0c-0.1,0-0.2,0-0.4,0.1c0.8,0.1,1.5,0.1,2.3-0.1l0,0 C29.6,40,29.4,40,29.2,40z"/><path fill="#FFF" d="M23.3,38.5c0.4,0,0.9,0,1.3,0l0,0C24.2,38.2,23.7,38.2,23.3,38.5z"/><path fill="#FFF" d="M23.3,38.5c0.4-0.2,0.9-0.2,1.3,0C24.2,38.2,23.7,38.2,23.3,38.5z"/><path fill="#FFF" d="M61.8,0.6c2.2-0.4,2.5,0,2.1,2.2c-0.1,0.3-0.2,0.6-0.3,0.9c0,1.1,0,2.3,0,3.4l0,0l0,0 c0.1,0.2,0.1,0.4,0.2,0.6c0,0,0.1-0.1,0.1-0.1c0,0,0,0,0.1,0c0-0.1,0-0.2,0-0.3c-0.2-0.2-0.2-0.6-0.3-1.4c-0.2-1.5,0.5-2.7,0.6-4.1 c0.2-1.1-0.1-1.6-1.1-1.5c-2.9,0.4-5.7,0-8.6,0.4c-1.4,0.2-2.8,0.2-4.1,0.3c-0.1,0-0.3,0-0.4,0c0.5,0.1,1,0,1.6-0.1 c0.7-0.1,1-0.1,1.2,0.1c0.2,0,0.3,0,0.5-0.1C56.1,0.5,59,1,61.8,0.6z"/><path fill="#FFF" d="M51.6,1C51.1,1,50.6,1.2,50.1,1c-0.3,0-0.5,0-0.8-0.2c-0.1,0.1-0.2,0-0.3,0c0,0,0,0,0,0 c0.6,0.7,1.4,0.5,2.2,0.5c0.6,0,1.2-0.1,1.7-0.1C52.6,0.9,52.3,0.9,51.6,1z"/><path fill="#FFF" d="M64,7.5C64,7.5,63.9,7.5,64,7.5c-0.1,0.1-0.2,0.1-0.2,0.1c0,0.1,0,0.1,0.1,0.2h0v0C63.9,7.7,64,7.6,64,7.5z"/><path fill="#FFF" d="M64.3,7.1c-0.2-0.2-0.2-0.5-0.3-0.9c-0.1-0.8-0.1-1.6,0.1-2.4c-0.4,1-0.4,2-0.2,3c0,0.1,0,0.2,0,0.3 c0.1,0.1,0.2,0.2,0.3,0.2C64.3,7.3,64.3,7.2,64.3,7.1z"/><path fill="#FFF" d="M53.5,0.5c1.6-0.2,3.3-0.2,4.9-0.2c1.5,0,3-0.3,4.5-0.3c1.5,0,1.9,0.5,1.6,1.9c0,0.2-0.1,0.4-0.1,0.7 c0.1-0.3,0.1-0.6,0.2-0.8c0.3-1.4,0-1.9-1.4-1.9c-1.3,0-2.7,0.3-4,0.2c-2.7-0.1-5.5,0.4-8.2,0.5C51.8,0.8,52.6,0.6,53.5,0.5z"/><path fill="#FFF" d="M49.5,0.7C49.7,0.9,49.9,1,50.1,1c0.1,0,0.3,0,0.4,0c1.4-0.1,2.8-0.2,4.1-0.3c2.9-0.4,5.7,0,8.6-0.4 c1.1-0.2,1.3,0.4,1.1,1.5c-0.2,1.4-0.8,2.6-0.6,4.1C63.8,6.6,63.8,7,64,7.2c0-0.1,0-0.2,0-0.3c-0.3-1-0.2-2,0.2-3 c0.1-0.4,0.2-0.7,0.2-1.1c0-0.2,0.1-0.4,0.1-0.7c0.3-1.4-0.1-1.9-1.6-1.9c-1.5-0.1-3,0.3-4.5,0.3c-1.6-0.1-3.3,0-4.9,0.2 c-0.8,0.1-1.7,0.3-2.5,0.2C50.5,0.7,50,0.7,49.5,0.7z"/><path fill="#FFF" d="M65.8,13.4c-0.1,0-0.2,0-0.2,0C65.7,13.5,65.8,13.4,65.8,13.4z"/><path fill="#FFF" d="M57.7,2.4c0.3-0.1,0.7-0.1,0.7-0.5c0-0.4-0.3-0.6-0.7-0.6c-1.3-0.1-2.6-0.1-3.9,0.1c-0.2,0-0.5,0.1-0.5,0.3 c0,0.3,0.1,0.5,0.4,0.6c0.7,0.3,1.4,0.2,2,0.3C56.4,2.7,57,2.6,57.7,2.4z"/><path fill="#FFF" d="M63.5,18.6c0-1.1-0.1-2.2,0.1-3.2c-0.3,0.4-0.3,0.9-0.3,1.4c0,3,0,6.1,0,9.1C63.6,23.5,63.4,21.1,63.5,18.6 z"/><path fill="#FFF" d="M63.6,24.2c0-2.9,0-5.9,0-8.8c-0.3,1.1-0.1,2.1-0.1,3.2c-0.1,2.4,0.2,4.8-0.1,7.3 C63.6,25.4,63.6,24.8,63.6,24.2z"/><path fill="#FFF" d="M62,17.5c0.3,1.6,0,3.2,0.1,4.8c0,0.3,0,0.5,0,0.8c0,0.3,0.1,0.5,0.1,0.8C62.2,21.7,62.6,19.6,62,17.5z"/><path fill="#FFF" d="M62.2,22.3c-0.1-1.6,0.1-3.2-0.1-4.8l0,0c0.1,1.8-0.2,3.7,0.1,5.5C62.2,22.8,62.2,22.5,62.2,22.3z"/><path fill="#FFF" d="M63,34.5c-0.1,0-0.1,0-0.2,0c0,0,0,0.1,0,0.1C63,34.6,63,34.6,63,34.5z"/><path fill="#FFF" d="M63.4,34.8c0-0.6,0.2-1.3-0.2-2.1c-0.2,0.8-0.3,1.3-0.5,1.8v0c0,0,0,0,0,0.1c0.1,0,0.1,0,0.2,0 c0,0.1-0.1,0.1-0.1,0.1c0,0.1,0,0.2-0.1,0.4C63.1,35.3,63.4,35.3,63.4,34.8z"/><path fill="#FFF" d="M62.9,34.6C62.8,34.6,62.8,34.6,62.9,34.6c0,0.1,0,0.1,0,0.1C62.8,34.7,62.9,34.7,62.9,34.6 C62.9,34.7,62.9,34.6,62.9,34.6z"/><path fill="#FFF" d="M62.8,34.5C62.8,34.6,62.8,34.6,62.8,34.5C62.8,34.6,62.8,34.6,62.8,34.5C62.8,34.6,62.8,34.6,62.8,34.5z"/><path fill="#FFF" d="M62.9,34.7C62.9,34.7,62.8,34.7,62.9,34.7c-0.1,0.2-0.1,0.3-0.1,0.4C62.9,34.9,62.9,34.8,62.9,34.7z"/><path fill="#FFF" d="M62.3,29.6c0.4,1.5-0.1,3,0.3,4.5C62.4,32.5,62.9,31,62.3,29.6z"/><path fill="#FFF" d="M62.3,29.6L62.3,29.6c0.1,1.5-0.2,3,0.3,4.5C62.2,32.5,62.7,31,62.3,29.6z"/><path fill="#FFF" d="M62.3,24.1c-0.2,1.5-0.2,3,0,4.5C62.3,27,62.3,25.5,62.3,24.1L62.3,24.1z"/><path fill="#FFF" d="M62.3,24.1c-0.4,1.5-0.4,3,0,4.5C62.1,27,62.1,25.5,62.3,24.1z"/><path fill="#FFF" d="M62,13.1c-0.2,1.4-0.2,2.8,0,4.2C62,15.9,62,14.5,62,13.1L62,13.1z"/><path fill="#FFF" d="M62,13.1c-0.4,1.4-0.4,2.8,0,4.2C61.8,15.9,61.8,14.5,62,13.1z"/><path fill="#FFF" d="M62,8.9c0.2,1.3,0.2,2.6,0,3.9C62.4,11.5,62.4,10.2,62,8.9z"/><path fill="#FFF" d="M62,8.9L62,8.9c0,1.3,0,2.6,0,3.9C62.2,11.5,62.2,10.2,62,8.9z"/><path fill="#FFF" d="M63.6,3.6c-0.4,1.1-0.4,2.3,0,3.4C63.4,5.9,63.4,4.8,63.6,3.6z"/><path fill="#FFF" d="M63.6,3.6c-0.2,1.1-0.2,2.3,0,3.4l0,0C63.6,5.9,63.6,4.8,63.6,3.6z"/><path fill="#FFF" d="M60.9,36.4c0,0,0-0.1,0-0.1c-0.1,0.1-0.2,0.1-0.2,0.1c0,0,0.1,0,0.1,0C60.8,36.4,60.8,36.4,60.9,36.4z"/><path fill="#FFF" d="M60.9,36.4c0,0,0.1,0,0.1,0c0-0.1,0-0.2,0-0.3c0,0-0.1,0.1-0.1,0.1C60.9,36.3,60.9,36.3,60.9,36.4z"/><path fill="#FFF" d="M60.6,36.4c0.1,0,0.2-0.1,0.2-0.1c0,0,0-0.1,0-0.1c-0.8,0-1.7-0.1-2.5,0.2c0.5,0,0.9,0,1.4,0 C60,36.3,60.3,36.3,60.6,36.4z"/><path fill="#FFF" d="M61,36.1L61,36.1c0,0-0.1,0-0.1,0c0,0,0,0.1,0,0.1C60.9,36.2,60.9,36.2,61,36.1z"/><path fill="#FFF" d="M60.7,36.4C60.7,36.4,60.7,36.4,60.7,36.4C60.6,36.4,60.6,36.4,60.7,36.4C60.7,36.4,60.7,36.4,60.7,36.4z"/><path fill="#FFF" d="M60.6,36.4c-0.3,0-0.6,0-0.9,0C60,36.4,60.3,36.4,60.6,36.4C60.6,36.4,60.6,36.4,60.6,36.4z"/><path fill="#FFF" d="M61.8,5.9c0.2,0.4,0,0.9,0.1,1.3C62,7.2,62,7.3,62,7.3C62,6.8,62.1,6.3,61.8,5.9z"/><path fill="#FFF" d="M61.8,5.9c0,0,0-0.1-0.1-0.1c0,0.5,0,1,0.2,1.4C61.8,6.7,62,6.3,61.8,5.9z"/><path fill="#FFF" d="M59.4,3.1c0.4-0.2,0.9-0.2,1.3,0C60.3,2.8,59.9,2.8,59.4,3.1z"/><path fill="#FFF" d="M59.4,3.1L59.4,3.1c0.4,0,0.9,0,1.3,0C60.3,2.9,59.9,2.9,59.4,3.1z"/><path fill="#FFF" d="M46.3,38.4c0.3,0,0.5-0.1,0.6-0.1C46.8,38.3,46.6,38.4,46.3,38.4z"/><path fill="#FFF" d="M39.4,38.7C39.4,38.7,39.4,38.6,39.4,38.7c-0.1,0-0.2,0-0.2,0C39.2,38.7,39.3,38.7,39.4,38.7z"/><path fill="#FFF" d="M39.2,38.7c0.1,0,0.1,0,0.2,0c-0.1-0.1-0.2-0.2-0.2-0.3c0,0,0-0.1,0-0.1c-0.6,0-1.2,0-1.7,0l0,0l0,0 c-0.2,0-0.3,0-0.5,0c0,0.1,0,0.1,0,0.2C37.7,38.6,38.4,38.7,39.2,38.7z"/><path fill="#FFF" d="M45.5,38c-1.6,0-3.1,0.3-4.7,0.3c-0.1,0-0.1,0-0.2,0c-0.4,0-0.8,0.1-1.2,0.3c0,0,0,0,0,0c0,0,0,0,0,0 c0.6,0,1.1-0.1,1.7-0.1c1.6-0.2,3.4-0.2,5-0.2c0.1,0,0.1,0,0.2,0c0.2,0,0.4,0,0.6-0.1c-0.1,0-0.3,0.1-0.6,0.1c-1,0.1-2.1,0-3.1,0.2 c-1,0.1-2-0.3-3,0.2c-0.3,0.1-0.6,0.1-0.8-0.1c-0.1,0-0.2,0-0.2,0c-0.6,0.1-1.2,0-1.7,0c-0.2,0-0.4,0-0.7,0c-0.1,0-0.1,0-0.2,0 c-0.2,0.1-0.4,0.2-0.6,0.4c1.7,0,3.5,0,5.2,0c0.3-0.1,0.5-0.2,0.8-0.1c0.3,0,0.7,0.1,1,0.1c0.2,0,0.5,0,0.7-0.1c0,0,0,0,0,0 c0,0,0,0,0,0c1.7-0.2,3.4-0.5,5-1C47.7,37.8,46.6,37.9,45.5,38z"/><path fill="#FFF" d="M40.2,38.8c1-0.5,2-0.1,3-0.2c1.1-0.2,2.2-0.1,3.1-0.2c-0.1,0-0.1,0-0.2,0c-1.7-0.1-3.4,0-5,0.2 c-0.6,0.1-1.1,0.1-1.7,0.1C39.6,38.9,39.9,38.9,40.2,38.8z"/><path fill="#FFF" d="M40.6,38.3c0.1,0,0.1,0,0.2,0c-0.5,0-1,0-1.5-0.1c0,0-0.1,0-0.1,0c0,0,0,0.1,0,0.1c0,0.1,0.1,0.3,0.2,0.3 c0,0,0,0,0,0C39.8,38.4,40.2,38.3,40.6,38.3z"/><path fill="#FFF" d="M37.4,38.7c0.6-0.1,1.2,0.1,1.7,0c-0.8,0-1.5-0.1-2.3-0.3c0,0,0,0,0,0c-0.1,0.1-0.2,0.1-0.3,0.2 c0.1,0,0.1,0,0.2,0C37,38.7,37.2,38.7,37.4,38.7z"/><path fill="#FFF" d="M42.1,38.9c-0.3,0-0.6,0.1-0.8,0.1c0.6,0,1.2,0,1.8-0.1C42.7,38.9,42.4,38.9,42.1,38.9z"/><path fill="#FFF" d="M43.8,38.9C43.8,38.9,43.8,38.9,43.8,38.9C43.8,38.9,43.8,38.9,43.8,38.9C43.8,38.9,43.8,38.9,43.8,38.9z"/><path fill="#FFF" d="M36.5,38.3c0.1,0,0.2,0.1,0.3,0.1c-0.1-0.1-0.1-0.1,0.1-0.2c-1.3,0.1-2.7-0.2-3.9,0.2 C34.2,38.2,35.3,38.4,36.5,38.3z"/><path fill="#FFF" d="M36.9,38.5C36.9,38.4,36.8,38.4,36.9,38.5c-0.2-0.1-0.3-0.1-0.4-0.1c-1.2,0.1-2.4-0.2-3.5,0.1l0,0 C34.3,38.5,35.6,38.5,36.9,38.5z"/><path fill="#FFF" d="M36.8,38.4C36.9,38.4,36.9,38.4,36.8,38.4c0.1,0,0.1-0.1,0.1-0.2C36.8,38.3,36.7,38.3,36.8,38.4z"/><path fill="#FFF" d="M36.8,38.4C36.8,38.4,36.9,38.4,36.8,38.4C36.9,38.4,36.9,38.4,36.8,38.4C36.9,38.4,36.9,38.4,36.8,38.4z"/><path fill="#FFF" d="M61 36.4L61 36.4 61 36.4z"/><path fill="#FFF" d="M61 36.4L61 36.4 61 36.4z"/><path fill="#FFF" d="M57.5,36.5c0.4,0,0.7-0.1,1.1-0.1c-0.1,0-0.2,0-0.3-0.1c-0.3,0-0.7,0-1,0l0,0c0,0.1,0,0.1,0,0.2 C57.4,36.5,57.4,36.5,57.5,36.5z"/><path fill="#FFF" d="M60.2,36.5c-0.5,0.1-1,0-1.4,0.1c0.7,0,1.4,0,2.1-0.2c0,0,0,0,0,0C60.7,36.4,60.5,36.5,60.2,36.5z"/><path fill="#FFF" d="M61,36.4c0,0-0.1,0-0.1,0c0,0,0,0,0,0C60.9,36.4,61,36.4,61,36.4L61,36.4z"/><path fill="#FFF" d="M58.6,36.4c-0.4,0-0.7,0.1-1.1,0.1c-0.1,0-0.1,0-0.2,0.1c0,0,0,0,0,0.1l0,0c0.5,0,1,0,1.5,0 c0.5-0.1,1,0,1.4-0.1C59.7,36.5,59.2,36.5,58.6,36.4z"/><path fill="#FFF" d="M60.9,36.4L60.9,36.4c-0.1,0-0.1,0-0.2,0C60.7,36.4,60.8,36.4,60.9,36.4C60.8,36.4,60.8,36.4,60.9,36.4z"/><path fill="#FFF" d="M60.9,36.4c0,0,0.1,0,0.1,0h0l0,0l0,0v0C61,36.4,60.9,36.4,60.9,36.4L60.9,36.4z"/><path fill="#FFF" d="M59.7,36.4c-0.5,0-0.9,0-1.4,0c0.1,0,0.2,0,0.3,0.1C59,36.4,59.4,36.4,59.7,36.4z"/><path fill="#FFF" d="M60.8,36.4C60.8,36.4,60.7,36.4,60.8,36.4c-0.1,0-0.1,0-0.2,0c-0.1,0.1-0.3,0.1-0.4,0.1 c0.2,0,0.4-0.1,0.6-0.1C60.9,36.4,60.9,36.4,60.8,36.4C60.8,36.4,60.8,36.4,60.8,36.4z"/><path fill="#FFF" d="M60.9,36.4C60.9,36.4,60.9,36.4,60.9,36.4c0,0,0.1,0,0.1,0h0C61,36.4,60.9,36.4,60.9,36.4z"/><path fill="#FFF" d="M60.2,36.5c0.1,0,0.3-0.1,0.4-0.1c-0.3,0-0.6,0-0.9,0c-0.4,0-0.7,0-1.1,0.1C59.2,36.5,59.7,36.5,60.2,36.5z"/><path fill="#FFF" d="M55.5,36.8C55.5,36.8,55.6,36.8,55.5,36.8c0.2,0,0.2,0,0.3-0.1c0,0,0-0.1,0-0.1c-1.2,0.1-2.5-0.2-3.7,0.2 C53.2,36.7,54.4,36.7,55.5,36.8z"/><path fill="#FFF" d="M55.8,36.8c-0.1,0-0.1,0-0.2,0c0,0-0.1,0-0.1,0c0.1,0,0.2,0,0.3,0C55.8,36.8,55.8,36.8,55.8,36.8z"/><path fill="#FFF" d="M54,36.9C54,36.9,54,36.9,54,36.9C54.1,36.9,54.1,36.9,54,36.9c0.4,0,0.8,0,1.1,0c0.1,0,0.3,0,0.4,0 c-1.1-0.2-2.3-0.2-3.4,0l0,0C52.7,36.9,53.4,36.9,54,36.9z"/><path fill="#FFF" d="M54,36.9C54,36.9,54,36.9,54,36.9C54,36.9,54.1,36.9,54,36.9C54.1,36.9,54.1,36.9,54,36.9z"/><path fill="#FFF" d="M55.8,36.9c-0.1,0-0.2,0-0.3,0c-0.1,0-0.3,0-0.4,0C55.3,36.9,55.5,36.9,55.8,36.9L55.8,36.9z"/><path fill="#FFF" d="M49.2,37.2c-1,0.1-2.1-0.2-3.1,0.2C47.1,37.1,48.2,37.5,49.2,37.2z"/><path fill="#FFF" d="M49.2,37.2c-1,0.3-2.1-0.1-3.1,0.2C47.1,37.3,48.2,37.6,49.2,37.2z"/><path fill="#FFF" d="M43.4,37.7c-1,0.1-1.9-0.2-2.9,0.2C41.5,37.6,42.5,38,43.4,37.7z"/><path fill="#FFF" d="M43.4,37.7c-0.9,0.3-1.9-0.1-2.9,0.2l0,0C41.5,37.9,42.5,38.1,43.4,37.7z"/><path fill="#FFF" d="M51.6,36.9c-0.7,0-1.4-0.1-2.1,0.2C50.1,36.8,50.9,37.2,51.6,36.9z"/><path fill="#FFF" d="M51.6,36.9c-0.7,0.3-1.4-0.1-2.1,0.2C50.2,37.2,50.9,37.2,51.6,36.9z"/><path fill="#FFF" d="M45.8,37.4c-0.7,0-1.4-0.1-2.1,0.2C44.4,37.3,45.1,37.7,45.8,37.4z"/><path fill="#FFF" d="M45.8,37.4c-0.7,0.3-1.4-0.1-2.1,0.2c0,0,0,0,0,0C44.4,37.6,45.1,37.8,45.8,37.4z"/><path fill="#FFF" d="M39.2,38.2c0-0.1,0-0.2,0.1-0.2v0c-0.6,0-1.3-0.1-1.8,0.2C38,38,38.6,38,39.2,38.2z"/><path fill="#FFF" d="M39.3,38.2c0-0.1,0-0.2,0-0.2c-0.1,0.1-0.1,0.1-0.1,0.2C39.2,38.2,39.2,38.2,39.3,38.2z"/><path fill="#FFF" d="M39.2,38.2C39.2,38.2,39.2,38.2,39.2,38.2c-0.6-0.2-1.1-0.2-1.7,0l0,0C38,38.2,38.6,38.2,39.2,38.2z"/><path fill="#FFF" d="M39.2,38.2C39.2,38.2,39.2,38.2,39.2,38.2c0,0,0.1,0,0.1,0C39.2,38.2,39.2,38.2,39.2,38.2z"/><path fill="#FFF" d="M55.9,36.8C55.9,36.8,55.9,36.7,55.9,36.8c0.3-0.1,0.6-0.1,0.8-0.1c-0.2,0-0.4,0-0.7,0l0,0l0,0 c-0.1,0-0.2,0-0.3,0v0h0C55.8,36.7,55.9,36.7,55.9,36.8z"/><path fill="#FFF" d="M55.8,36.9c0.5,0,1.1,0.1,1.6-0.3l0,0c-0.2,0-0.4,0-0.6,0c-0.2,0-0.5,0-0.7,0.1c0,0,0,0-0.1,0 C55.9,36.8,55.8,36.8,55.8,36.9z"/><path fill="#FFF" d="M55.8 36.9L55.8 36.9 55.8 36.9z"/><path fill="#FFF" d="M55.8 36.9L55.8 36.9 55.8 36.9z"/><path fill="#FFF" d="M57.3 36.6L57.3 36.6 57.3 36.6z"/><path fill="#FFF" d="M55.9,36.8c0,0,0-0.1-0.1-0.1h0c0,0,0,0.1,0,0.1C55.8,36.8,55.8,36.8,55.9,36.8z"/><path fill="#FFF" d="M55.8,36.9L55.8,36.9c0.1,0,0.1-0.1,0.1-0.1c0,0-0.1,0-0.1,0C55.8,36.8,55.8,36.8,55.8,36.9L55.8,36.9z"/><path fill="#FFF" d="M55.8 36.9L55.8 36.9 55.8 36.9z"/><path fill="#FFF" d="M57.2,36.6C57.2,36.6,57.3,36.6,57.2,36.6C57.3,36.5,57.2,36.5,57.2,36.6c0.1-0.1,0.1-0.2,0.1-0.2l0,0 c-0.5,0-0.9,0-1.3,0.2C56.4,36.4,56.8,36.4,57.2,36.6z"/><path fill="#FFF" d="M57.3,36.6C57.3,36.6,57.2,36.6,57.3,36.6C57.2,36.6,57.3,36.6,57.3,36.6C57.3,36.6,57.3,36.6,57.3,36.6z"/><path fill="#FFF" d="M57.3,36.6C57.3,36.6,57.3,36.6,57.3,36.6c0-0.1,0.1-0.1,0.1-0.2C57.3,36.4,57.3,36.5,57.3,36.6 C57.2,36.5,57.3,36.5,57.3,36.6z"/><path fill="#FFF" d="M57.3,36.6C57.3,36.6,57.3,36.6,57.3,36.6C57.3,36.6,57.3,36.6,57.3,36.6C57.3,36.6,57.3,36.6,57.3,36.6 L57.3,36.6z"/><path fill="#FFF" d="M56.7,36.6c0.2,0,0.4,0,0.5,0c-0.4-0.2-0.8-0.1-1.2,0l0,0C56.2,36.6,56.5,36.6,56.7,36.6z"/><path fill="#FFF" d="M57.3,36.6c0,0-0.1,0-0.1,0c-0.2,0-0.3,0-0.5,0C56.9,36.6,57.1,36.6,57.3,36.6L57.3,36.6z"/><path fill="#FFF" d="M57.3 36.6L57.3 36.6 57.3 36.6z"/><path fill="#FFF" d="M33.8,39.7c1.3-0.1,2.6,0.2,3.9-0.2C36.4,39.9,35.1,39.4,33.8,39.7z"/><path fill="#FFF" d="M33.8,39.7c1.3-0.3,2.6,0.1,3.9-0.2l0,0C36.4,39.6,35,39.3,33.8,39.7z"/><path fill="#FFF" d="M38.2,39.5c0.9,0.4,1.7,0.4,2.6,0C40,39.7,39.1,39.7,38.2,39.5z"/><path fill="#FFF" d="M38.2,39.5c0.9,0.2,1.7,0.2,2.6,0l0,0C40,39.5,39.1,39.5,38.2,39.5z"/><path fill="#FFF" d="M47.4,39c0.8,0,1.6,0,2.4,0l0,0c-0.1-0.1-0.2-0.1-0.4-0.2C48.7,39,48,38.7,47.4,39z"/><path fill="#FFF" d="M49.7,39c-0.1-0.1-0.2-0.2-0.3-0.3c0,0-0.1,0-0.1,0C49.5,38.8,49.6,38.9,49.7,39z"/><path fill="#FFF" d="M49.4,38.8C49.4,38.7,49.4,38.7,49.4,38.8c-0.7,0-1.4-0.1-2,0.2C48,38.7,48.7,39,49.4,38.8z"/><path fill="#FFF" d="M49.4,38.8C49.4,38.7,49.4,38.7,49.4,38.8C49.4,38.7,49.4,38.7,49.4,38.8C49.4,38.7,49.4,38.7,49.4,38.8z"/><path fill="#FFF" d="M44.5,39.2c0.7,0,1.4,0.1,2.1-0.2C45.9,39.3,45.2,38.9,44.5,39.2z"/><path fill="#FFF" d="M44.5,39.2c0.7-0.3,1.4,0.1,2.1-0.2c0,0,0,0,0,0C45.9,39,45.2,38.9,44.5,39.2z"/><path fill="#FFF" d="M42.1,39.2c0.5,0.3,1,0.3,1.6,0C43.2,39.4,42.7,39.4,42.1,39.2z"/><path fill="#FFF" d="M42.1,39.2c0.5,0.2,1,0.2,1.6,0l0,0C43.2,39.2,42.7,39.2,42.1,39.2z"/><path fill="#FFF" d="M63.9 36.6L63.9 36.6 63.9 36.6z"/><path fill="#FFF" d="M62.3,38.3c-1.4,0.1-2.8,0-4.3,0c-0.2,0-0.5,0-0.7,0c-0.2,0-0.4,0.1-0.6,0.2c1.9,0,3.8,0,5.7,0 c1.3,0,1.7-0.5,1.3-1.8l0,0C64,37.9,63.7,38.3,62.3,38.3z"/><path fill="#FFF" d="M58.1,38.3c1.4,0,2.9,0,4.3,0c1.4-0.1,1.7-0.4,1.5-1.7l0,0c0,1.4-1.1,1.5-2.1,1.6c-1.5,0.1-3-0.2-4.4,0.1 C57.6,38.3,57.8,38.3,58.1,38.3z"/><path fill="#FFF" d="M34.5,39.2c0.1,0,0.1,0,0.2-0.1c0-0.1,0-0.2-0.1-0.2c-0.1,0-0.2,0-0.2,0C34.3,39,34.4,39.1,34.5,39.2z"/><path fill="#FFF" d="M34.1,29.8c2.8-0.9,5.7-1.6,7-4.7l0,0c0.3-0.8,0.7-1.7,1-2.5c0.7-2.1,0.4-4.2-0.7-6.1 c-1.1-0.6-2.1-1.3-3-2.1c-0.7-0.6-1.5-1-2.3-1.4c-0.8-0.2-1.6-0.3-2.4-0.5c-0.2,0-0.5-0.1-0.7-0.1c-3.4-0.1-6.9,1.7-8.4,4.9 c-0.1,0.1-0.2,0.2-0.3,0.3l0,0v0c-1.9,3.2-1.9,6.4,0,9.7c0.1,0.2,0.1,0.4,0.2,0.6c0.5,0.6,1,1.3,1.8,1.6 C28.9,30.6,31.5,30.6,34.1,29.8z M26.4,27.2C26.4,27.2,26.4,27.2,26.4,27.2c-1.7-1.9-1.7-4.2-1.5-6.6l0,0l0,0 c0.4-1.8,0.6-3.8,2.6-4.8c0,0,0,0,0,0c1.7-2.5,6.6-2.3,8.5-0.9c0.3,0.2,0.5,0.4,0.7,0.8c0.5,0.5,0.9,1,1.4,1.5 c1.5,0.8,2.3,2.3,2.2,3.8c0,0.1,0,0.3-0.1,0.4c0,3.5-1.3,5.1-5.3,6.5l0,0c-1.7,0.8-3.5,0.9-5.4,0.8C28.2,28.7,27.2,28.2,26.4,27.2z"/><path fill="#FFF" d="M25.7,14.7c-0.2,0.1-0.4,0.3-0.5,0.4c-0.2,0.5-0.4,0.9-0.8,1.3c-0.1,0.1-0.1,0.2-0.2,0.3 c0,0.1,0,0.2,0.1,0.3C24.6,16.2,25,15.4,25.7,14.7z"/><path fill="#FFF" d="M33,12.4c1.1,0,2.1,0.2,3.1,0.6c0.4,0.1,0.7,0.2,1.1,0.4c1.6,0.8,2.8,1.9,4.2,3c0,0,0,0,0,0l0,0l0,0l0,0 c0,0,0,0,0,0c-0.1-0.5-0.5-0.7-0.8-1c-2-1.6-4.1-2.8-6.8-3.2c-2.8-0.4-5.2,0.1-7.5,1.6c-0.1,0.2-0.2,0.4-0.3,0.6 C28.1,12.7,30.4,12,33,12.4z"/><path fill="#FFF" d="M37.2,13.4c-0.4-0.2-0.7-0.3-1.1-0.4c0.8,0.3,1.6,0.8,2.3,1.4c0.9,0.8,1.9,1.5,3,2.1c0,0,0,0,0,0 C40.1,15.3,38.8,14.2,37.2,13.4z"/><path fill="#FFF" d="M26,14.4c-0.1,0.1-0.2,0.2-0.4,0.3c-0.7,0.7-1.1,1.5-1.4,2.3c0,0.1,0.1,0.3,0.1,0.4l0,0 c0.1-0.1,0.2-0.2,0.3-0.3c1.5-3.2,5-4.9,8.4-4.9C30.4,12,28.1,12.7,26,14.4z"/><path fill="#FFF" d="M41.4 16.4L41.4 16.4 41.4 16.4z"/><path fill="#FFF" d="M37.9,28.6c-2.7,1.3-5.6,2.1-8.6,1.9c-1.1-0.1-2-0.7-2.9-1.1c0.9,0.9,2,1.3,3.3,1.3c3.1,0.1,6-0.7,8.8-2.2 c1.4-0.8,2.4-1.7,2.9-3.3c0,0-0.1,0-0.1,0C40.7,26.8,39.4,27.8,37.9,28.6z"/><path fill="#FFF" d="M37.9,28.6c1.5-0.7,2.8-1.7,3.3-3.5c-0.1,0-0.1,0-0.2,0l0,0l0,0c-1.3,3.1-4.2,3.8-7,4.7 c-2.6,0.8-5.2,0.8-7.7-0.4c0.9,0.5,1.8,1.1,2.9,1.1C32.3,30.7,35.2,29.9,37.9,28.6z"/><path fill="#FFF" d="M41.4,16.4C41.4,16.4,41.4,16.4,41.4,16.4C41.4,16.4,41.4,16.4,41.4,16.4c1.8,2.2,1.4,4.7,0.5,7.1 c-0.2,0.5-0.4,1-0.7,1.5c0,0,0.1,0,0.1,0.1c0.9-1.4,1.3-2.9,1.5-4.5C43.1,19,42.7,17.5,41.4,16.4z"/><path fill="#FFF" d="M42,22.6c-0.3,0.9-0.6,1.7-1,2.5c0.1-0.1,0.1-0.1,0.2-0.1c0.2-0.5,0.5-1,0.7-1.5c0.9-2.4,1.3-4.9-0.5-7.1 c0,0,0,0,0,0C42.4,18.4,42.8,20.4,42,22.6z"/><path fill="#FFF" d="M41.4 16.4L41.4 16.4 41.4 16.4z"/><path fill="#FFF" d="M41.4,16.4C41.4,16.4,41.4,16.4,41.4,16.4C41.4,16.4,41.4,16.4,41.4,16.4L41.4,16.4z"/><path fill="#FFF" d="M41.4,16.4L41.4,16.4C41.4,16.4,41.4,16.4,41.4,16.4C41.4,16.4,41.4,16.4,41.4,16.4 C41.4,16.4,41.4,16.4,41.4,16.4z"/><path fill="#FFF" d="M41.4,16.4C41.4,16.4,41.4,16.4,41.4,16.4C41.4,16.4,41.4,16.4,41.4,16.4L41.4,16.4L41.4,16.4z"/><path fill="#FFF" d="M41.2,25.1C41.2,25.1,41.2,25.1,41.2,25.1c0,0,0.1,0,0.1,0C41.3,25.1,41.3,25.1,41.2,25.1 C41.3,25.1,41.3,25.1,41.2,25.1z"/><path fill="#FFF" d="M41.1,25.1L41.1,25.1c0.1,0,0.1,0,0.2,0c0,0,0,0,0,0c0,0,0,0,0-0.1C41.2,25,41.2,25,41.1,25.1z"/><path fill="#FFF" d="M24.1,17.4c0-0.1,0.1-0.1,0.1-0.2c0-0.2,0-0.4,0-0.5c-1.5,2.4-1.8,5.1-1.3,7.8c0.2,1.3,0.6,2.4,1.7,3.2 C22.2,24.4,22.3,21,24.1,17.4z"/><path fill="#FFF" d="M24.3,17.5L24.3,17.5c-0.1-0.1-0.2-0.2-0.2-0.2c0,0.1-0.1,0.1-0.1,0.2c-1.8,3.5-1.9,7,0.5,10.3 c-0.1-0.2-0.1-0.4-0.2-0.6C22.5,24,22.4,20.7,24.3,17.5z"/><path fill="#FFF" d="M24.2,17.3c0-0.1,0.1-0.1,0.1-0.2c0-0.1,0-0.2-0.1-0.3C24.2,16.9,24.1,17.1,24.2,17.3z"/><path fill="#FFF" d="M24.2,17.3c0,0.1,0.1,0.2,0.2,0.2c0-0.1-0.1-0.3-0.1-0.4C24.2,17.1,24.2,17.2,24.2,17.3z"/><path fill="#FFF" d="M25.1 15.2L25.1 15.2 25.1 15.2z"/><path fill="#FFF" d="M25.2 15.2L25.2 15.2 25.2 15.2z"/><path fill="#FFF" d="M25.1 15.2L25.2 15.2 25.2 15.2z"/><path fill="#FFF" d="M27.5,16.1c2.6-2.5,6.5-2.7,9.1-0.3c-0.1-0.3-0.4-0.6-0.7-0.8c-1.9-1.3-6.8-1.6-8.5,0.9c0,0,0,0,0,0 c0,0,0,0,0,0C27.5,16,27.5,16,27.5,16.1z"/><path fill="#FFF" d="M27.5,16.1c0,0,0,0.1,0,0.1c0.9-0.5,1.4-1.3,2.5-1.6c2.4-0.6,4.6-0.3,6.6,1.1C34,13.4,30.1,13.6,27.5,16.1z"/><path fill="#FFF" d="M39.8,23.6c-0.6,1.5-1.6,2.6-3.1,3.3c-0.6,0.3-1.2,0.7-1.9,0.9c0,0.1,0,0.1,0,0.2l0,0l0,0 c4-1.4,5.3-3,5.3-6.5c0-0.1,0-0.2,0-0.3C39.7,22,40.1,22.8,39.8,23.6z"/><path fill="#FFF" d="M40.2,21.1c0,0.1,0,0.3-0.1,0.4C40.2,21.3,40.2,21.2,40.2,21.1z"/><path fill="#FFF" d="M36.7,27c1.5-0.7,2.5-1.8,3.1-3.3c0.3-0.8-0.1-1.7,0.2-2.5c0-0.1,0-0.2,0-0.3v0c-0.1,0.3-0.2,0.7-0.2,1 c0.1,2.3-1.1,3.8-3,4.9c-0.6,0.3-1.3,0.7-2,1c0,0,0,0.1,0,0.1C35.5,27.7,36.1,27.3,36.7,27z"/><path fill="#FFF" d="M34.8,28c-0.1,0-0.1-0.1-0.1-0.1c-1.7,0.7-3.5,0.9-5.3,0.7c-1.2-0.1-2.1-0.7-2.9-1.6c0,0,0,0.1,0,0.1 c0,0,0,0,0,0c0,0,0,0,0,0c0.8,0.9,1.8,1.5,3,1.6C31.3,28.9,33.1,28.8,34.8,28z"/><path fill="#FFF" d="M34.7,27.8C34.8,27.8,34.8,27.7,34.7,27.8c-0.4,0-0.9,0.2-1.4,0.3c-2.5,0.7-4.9,0.8-6.9-1.2 c0,0.1,0,0.1,0,0.2c0.8,0.8,1.8,1.4,2.9,1.6C31.2,28.8,33,28.6,34.7,27.8C34.7,27.9,34.7,27.8,34.7,27.8z"/><path fill="#FFF" d="M34.8,27.8C34.8,27.8,34.8,27.9,34.8,27.8c-0.1,0-0.1,0-0.1,0c0,0,0,0.1,0.1,0.1l0,0 C34.8,27.9,34.8,27.9,34.8,27.8z"/><path fill="#FFF" d="M34.8,27.8c0,0,0-0.1,0-0.1C34.8,27.7,34.8,27.8,34.8,27.8c-0.1,0-0.1,0-0.1,0 C34.7,27.9,34.7,27.9,34.8,27.8C34.8,27.9,34.8,27.8,34.8,27.8z"/><path fill="#FFF" d="M26.4,27C26.4,27,26.4,27,26.4,27c-1.3-1.9-1.5-4-1.4-6.2c0-0.1,0-0.1,0-0.2c-0.1,0-0.1,0-0.2,0l0,0 c-0.1,2.3-0.1,4.6,1.5,6.6C26.3,27.1,26.3,27.1,26.4,27z"/><path fill="#FFF" d="M26.5,26.9c-1.1-1.9-1.5-4-1.2-6.2c-0.1,0-0.1,0-0.2,0c0,0.1,0,0.1,0,0.2C24.9,23,25.1,25.1,26.5,26.9 C26.4,27,26.4,27,26.4,27C26.4,27,26.4,26.9,26.5,26.9z"/><path fill="#FFF" d="M26.4,27.1C26.4,27,26.4,27,26.4,27.1c-0.1,0-0.1,0.1,0,0.1c0,0,0,0,0,0C26.4,27.2,26.4,27.1,26.4,27.1z"/><path fill="#FFF" d="M26.4,27C26.4,27,26.4,27,26.4,27c0.1,0,0.1,0,0.1-0.1C26.4,26.9,26.4,27,26.4,27z"/><path fill="#FFF" d="M25.1,20.6c0.1-0.5,0.3-0.9,0.4-1.4c0.2-1.3,0.8-2.4,2-3c0,0,0,0,0,0c0,0,0-0.1,0-0.1c0-0.1,0-0.1,0.1-0.1 c-1.9,1-2.2,2.9-2.6,4.8l0,0C24.9,20.6,25,20.6,25.1,20.6z"/><path fill="#FFF" d="M27.5,16.2C27.5,16.2,27.4,16.2,27.5,16.2C27.4,16.1,27.4,16.1,27.5,16.2c-1.3,0.6-1.8,1.7-2.1,3 c-0.1,0.5-0.2,0.9-0.4,1.4c0.1,0,0.1,0,0.2,0.1C25.7,19,25.9,17.3,27.5,16.2z"/><path fill="#FFF" d="M27.4,16c0,0,0,0.1,0,0.1C27.4,16.1,27.5,16.1,27.4,16c0.1,0,0.1,0,0.1-0.1c0,0,0,0,0,0 C27.4,15.9,27.4,15.9,27.4,16z"/><path fill="#FFF" d="M27.5,16.2c0,0,0-0.1,0-0.1C27.5,16.1,27.4,16.1,27.5,16.2C27.4,16.2,27.5,16.2,27.5,16.2z"/><path fill="#FFF" d="M25.1,20.6c-0.1,0-0.1,0-0.2,0.1C24.9,20.7,25,20.7,25.1,20.6C25.1,20.6,25.1,20.6,25.1,20.6z"/><path fill="#FFF" d="M25.1,20.6C25.1,20.6,25.1,20.6,25.1,20.6c0,0.1,0.1,0.1,0.2,0.1C25.2,20.6,25.1,20.6,25.1,20.6z"/><path fill="#FFF" d="M40.1,21C40.1,21,40.1,21,40.1,21c0.2-1.4-0.6-2.9-2.1-3.7C39.2,18.2,40,19.4,40.1,21z"/><path fill="#FFF" d="M40,20.8c0,0,0.1,0.1,0.1,0.1c-0.1-1.6-0.9-2.8-2.1-3.7C38.9,18.3,39.8,19.4,40,20.8L40,20.8z"/><path fill="#FFF" d="M40.1,21c0,0.1-0.1,0.1-0.1,0.2c0,0.1,0,0.2,0,0.3C40.1,21.3,40.1,21.2,40.1,21C40.1,21,40.1,21,40.1,21 C40.1,21,40.1,21,40.1,21z"/><path fill="#FFF" d="M40,21.2c0-0.1,0-0.1,0.1-0.2c0,0,0,0,0,0c0,0-0.1-0.1-0.1-0.1l0,0v0C40,20.9,40,21,40,21.2z"/><path fill="#FFF" d="M30.3,17.5c-0.4,1.4,0.2,2.7,0.1,4c-0.1,1.3-0.1,2.7,0,4c0,0.5,0.1,1.1,0.7,1.3c0.4,0.2,0.8,0,1.2-0.3 c1.3-1.1,2.6-2.2,3.9-3.2c0-0.1,0-0.2,0-0.3c-1.2,0.9-2.5,1.9-3.7,2.8c-0.3,0.2-0.6,0.6-1,0.4c-0.4-0.2-0.5-0.6-0.5-1 c-0.1-2.3,0.1-4.5-0.2-6.8c-0.1-0.5,0.1-1,0.5-1.3c0.5-0.3,0.9,0.1,1.2,0.4c0.7,0.6,1.4,1.1,2.1,1.7l0,0v0c0-0.1,0-0.2,0-0.3 c-0.9-0.8-1.6-1.7-2.6-2.3C31.4,16.3,30.6,16.5,30.3,17.5z"/><path fill="#FFF" d="M34.6,19.3C34.6,19.3,34.6,19.4,34.6,19.3c0.6,0.4,1.3,0.8,2,1.2c1.3,0.7,1.3,0.8,0.3,2c0.1,0,0.2,0,0.3,0 c0.5-0.1,0.9-0.4,0.9-0.9c0-0.5-0.3-1-0.8-1.2c-0.9-0.4-1.8-0.9-2.7-1.4c0.1,0.1,0.1,0.1,0.1,0.2C34.7,19.3,34.7,19.3,34.6,19.3z"/><path fill="#FFF" d="M34.6,19.3C34.6,19.3,34.6,19.4,34.6,19.3C34.6,19.4,34.6,19.3,34.6,19.3c0.1,0,0.1,0,0.1-0.1 c0-0.1,0-0.2-0.1-0.2C34.6,19.1,34.6,19.2,34.6,19.3L34.6,19.3z"/><path fill="#FFF" d="M36.9,22.6C36.9,22.5,36.9,22.5,36.9,22.6c-0.2,0.1-0.5,0.2-0.7,0.4c0,0,0,0,0,0c0,0.1,0,0.2,0,0.3 c0.5-0.1,0.8-0.4,1.1-0.8C37.1,22.6,37,22.6,36.9,22.6z"/><path fill="#FFF" d="M36.2,23C36.2,23,36.2,23,36.2,23C36.2,23,36.1,23,36.2,23c-0.1,0.1-0.1,0.2,0,0.3 C36.2,23.2,36.2,23.1,36.2,23z"/><path fill="#FFF" d="M36.9,22.5C36.9,22.5,36.9,22.5,36.9,22.5c0.2,0.1,0.3,0.1,0.4,0C37.1,22.5,37,22.5,36.9,22.5 C36.9,22.5,36.9,22.5,36.9,22.5z"/><path fill="#FFF" d="M36.8,22.5c-0.3-1.1-1.1-1.9-2-2.6c-0.2-0.1-0.3-0.3-0.3-0.5c-0.7,0.4-1.2-0.3-1.7-0.6 c-1.4-0.7-1.4-0.7-1.5,0.9c-0.1,1.5-0.1,3,0.1,4.5c0.1,0.9,0.5,1.1,1.2,0.6c0.7-0.5,1.4-0.9,2-1.5c0.4-0.4,0.9-0.7,1.4-0.3 C36.2,22.5,36.4,22.4,36.8,22.5z M34,22.8c-0.5,0.3-0.9,1.1-1.5,0.8c-0.7-0.3-0.7-1.2-0.7-1.8c-0.2-1.4,0.4-2.2,1.3-2.1 c0.6,0.3,1.6,0.4,1.9,1.2C35.3,21.8,34.7,22.4,34,22.8z"/><path fill="#FFF" d="M34.7,23.2c-0.6,0.6-1.3,1-2,1.5c-0.7,0.5-1.1,0.3-1.2-0.6c-0.2-1.5-0.2-3-0.1-4.5c0.1-1.5,0.1-1.6,1.5-0.9 c0.5,0.3,0.9,1,1.7,0.6c0,0,0,0,0,0l0,0c-0.7-0.6-1.4-1.1-2.1-1.7c-0.4-0.3-0.7-0.7-1.2-0.4c-0.5,0.3-0.6,0.8-0.5,1.3 c0.4,2.2,0.2,4.5,0.2,6.8c0,0.4,0,0.8,0.5,1c0.4,0.2,0.7-0.2,1-0.4c1.2-0.9,2.5-1.9,3.7-2.8c0,0,0-0.1,0-0.1 C35.6,22.5,35.1,22.8,34.7,23.2z"/><path fill="#FFF" d="M34.8,19.9c1,0.6,1.7,1.4,2,2.6c0,0,0,0,0,0c1-1.2,1-1.2-0.3-2c-0.7-0.4-1.3-0.8-2-1.1c0,0,0,0,0,0 C34.6,19.6,34.6,19.8,34.8,19.9z"/><path fill="#FFF" d="M34.6,19.4C34.6,19.4,34.6,19.3,34.6,19.4C34.6,19.4,34.6,19.4,34.6,19.4C34.6,19.4,34.6,19.4,34.6,19.4z"/><path fill="#FFF" d="M36.1,22.9C36.2,22.9,36.2,23,36.1,22.9c0.3-0.1,0.5-0.3,0.7-0.4c0,0,0,0,0,0 C36.4,22.4,36.2,22.5,36.1,22.9z"/><path fill="#FFF" d="M36.1,22.9C36.1,23,36.1,23,36.1,22.9C36.1,23,36.2,23,36.1,22.9C36.2,23,36.2,22.9,36.1,22.9z"/><path fill="#FFF" d="M36.9,22.5C36.9,22.5,36.9,22.5,36.9,22.5C36.9,22.5,36.9,22.5,36.9,22.5C36.8,22.5,36.8,22.5,36.9,22.5z"/><path fill="#FFF" d="M32.5,22.4c0-0.1-0.1-0.1-0.1-0.1c0,0,0,0,0,0C32.4,22.3,32.5,22.3,32.5,22.4z"/><path fill="#FFF" d="M33.1,19.6c-1-0.1-1.5,0.7-1.3,2.1c0.1,0.7,0,1.5,0.7,1.8c0.6,0.3,1.1-0.4,1.5-0.8c0.6-0.4,1.3-1,1-1.9 C34.7,20,33.7,19.9,33.1,19.6z M34.5,21.7c-0.2,0.4-0.5,0.8-1,0.8c-0.1,0.1-0.3,0.2-0.4,0.3h0c-0.1,0.2-0.3,0.5-0.4,0.4 c-0.4-0.2-0.2-0.7-0.3-1c0,0,0,0,0,0c-0.5-0.6-0.2-1.3-0.1-1.9c0-0.6,0.5-0.5,0.8-0.2C33.6,20.6,34.7,20.6,34.5,21.7z"/><path fill="#FFF" d="M32.4 22.3L32.4 22.2 32.4 22.3z"/><path fill="#FFF" d="M32.4 22.3L32.4 22.3 32.4 22.3 32.4 22.3z"/><path fill="#FFF" d="M32.4,22.3C32.4,22.3,32.4,22.3,32.4,22.3C32.4,22.3,32.4,22.3,32.4,22.3C32.4,22.3,32.4,22.3,32.4,22.3 C32.4,22.3,32.4,22.3,32.4,22.3z"/><path fill="#FFF" d="M32.4,22.3C32.4,22.3,32.4,22.3,32.4,22.3C32.4,22.3,32.4,22.3,32.4,22.3L32.4,22.3L32.4,22.3z"/><path fill="#FFF" d="M32.4,22.3C32.4,22.3,32.4,22.3,32.4,22.3C32.4,22.3,32.4,22.3,32.4,22.3C32.4,22.3,32.4,22.3,32.4,22.3z"/><path fill="#FFF" d="M22.9,40.1c1.9,0,3.7,0,5.6,0.1c1.6,0,1.6-2.5,0-2.5c-1.9,0-3.7,0-5.6-0.1C21.2,37.5,21.2,40,22.9,40.1 L22.9,40.1z"/><path fill="#FFF" d="M1.2,15.5c0.1,0.8,0.3,1.6,0.4,2.4c0.1,0.8,1.3,0.5,1.2-0.3c-0.1-0.8-0.3-1.6-0.4-2.4 C2.3,14.4,1.1,14.7,1.2,15.5L1.2,15.5z"/><path fill="#FFF" d="M14.6,3.9c1.1-0.1,2.2-0.2,3.2-0.2c0.8-0.1,0.8-1.3,0-1.2c-1.1,0.1-2.2,0.2-3.2,0.2 C13.8,2.7,13.8,3.9,14.6,3.9L14.6,3.9z"/><path fill="#FFF" d="M35.5,2.6c1.1-0.1,2.2-0.2,3.2-0.2c0.8-0.1,0.8-1.3,0-1.3c-1.1,0.1-2.2,0.2-3.2,0.2 C34.7,1.4,34.7,2.7,35.5,2.6L35.5,2.6z"/><path fill="#FFF" d="M48.5,2c0.6,0,1.1,0,1.7,0c0.8,0,0.8-1.2,0-1.2c-0.6,0-1.1,0-1.7,0C47.6,0.7,47.7,1.9,48.5,2L48.5,2z"/><path fill="#FFF" d="M62.9,7.1C63,7.5,63,8,63.1,8.5c0.1,0.8,1.3,0.5,1.2-0.3c-0.1-0.5-0.1-0.9-0.2-1.4 C64,6,62.8,6.3,62.9,7.1L62.9,7.1z"/></svg>