<svg id="Слой_1" xmlns="http://www.w3.org/2000/svg" viewBox="0 0 42.6 28.6"><g fill="#FFF"><path d="M38.9,21.4c0,0.1,0.1,0.1,0.1,0.2C39,21.6,39,21.5,38.9,21.4C39,21.5,39,21.4,38.9,21.4z"/><path d="M38.5,20.6C38.5,20.6,38.5,20.6,38.5,20.6C38.5,20.6,38.5,20.6,38.5,20.6c0,0.1,0,0.1,0.1,0.1 C38.6,20.7,38.6,20.6,38.5,20.6z"/><path d="M38.5,20.6c0-0.1,0-0.1,0-0.2l0,0c-0.1,0-0.2,0-0.3,0C38.3,20.5,38.4,20.5,38.5,20.6 C38.5,20.6,38.5,20.6,38.5,20.6z"/><path d="M38.6,20.7c0.1,0.1,0.1,0.1,0.2,0.2c-0.1-0.1-0.2-0.3-0.2-0.4c0,0,0,0,0,0c0,0,0,0,0,0 C38.6,20.6,38.6,20.7,38.6,20.7z"/><path d="M38.8,20.6c0.1,0.1,0.3,0.3,0.4,0.5C39.1,20.9,38.9,20.7,38.8,20.6z"/><path d="M38.6,20.5c0,0,0-0.1-0.1-0.1l0,0l0,0l0,0C38.5,20.4,38.5,20.5,38.6,20.5C38.6,20.5,38.6,20.5,38.6,20.5z"/><path d="M38.9,21.4c-0.1-0.2-0.2-0.5-0.3-0.7c0,0-0.1-0.1-0.1-0.1c-0.1,0-0.1,0.1-0.2,0.1 C38.4,21,38.7,21.2,38.9,21.4z"/><path d="M38.5,20.6c-0.1-0.1-0.2-0.1-0.3-0.2c0,0.1,0,0.2,0.1,0.3C38.4,20.7,38.4,20.6,38.5,20.6z"/><path d="M38.8,20.9c-0.1-0.1-0.1-0.1-0.2-0.2c0.1,0.2,0.2,0.5,0.3,0.7c0,0,0.1,0,0.1,0.1 C39,21.3,38.9,21.1,38.8,20.9z"/><path d="M38.8,20.6c0,0-0.1-0.1-0.1-0.1c0,0,0,0,0,0C38.7,20.5,38.7,20.6,38.8,20.6z"/><path d="M38.6,20.5c0,0-0.1-0.1-0.1-0.1C38.5,20.4,38.6,20.5,38.6,20.5C38.6,20.5,38.6,20.5,38.6,20.5z"/><path d="M37.2,28C37.2,28,37.2,27.9,37.2,28c-0.1,0-0.1,0-0.1,0.1C37.2,28.1,37.2,28,37.2,28z"/><path d="M37.1,28.1c0,0.1,0,0.2-0.1,0.3c0.1-0.1,0.1-0.2,0.2-0.3c0,0,0,0,0,0c0,0,0-0.1-0.1-0.1 C37.2,28,37.2,28.1,37.1,28.1z"/><path d="M39.1,21.3c0-0.1,0-0.2,0-0.2c-0.1-0.2-0.2-0.3-0.4-0.5c0,0-0.1-0.1-0.1-0.1c0,0,0,0,0,0c0,0,0,0,0,0 c0.1,0.1,0.2,0.3,0.2,0.4C38.9,21,39,21.1,39.1,21.3z"/><path d="M38.6,20.5c0,0-0.1-0.1-0.1-0.1l0,0C38.5,20.4,38.6,20.5,38.6,20.5C38.6,20.5,38.6,20.5,38.6,20.5 C38.6,20.5,38.6,20.5,38.6,20.5z"/><path d="M39.1,21.3c-0.1-0.1-0.2-0.3-0.3-0.4c0.1,0.2,0.2,0.4,0.2,0.6C39.1,21.4,39.1,21.3,39.1,21.3z"/><path d="M37.2,28.6c0.1,0,0.1,0,0.2,0c0.9-0.9,1.6-1.8,2.2-2.9c0.7-1.2,0.4-3.4-0.4-4.7c0,0.1,0,0.1,0,0.2 c0.1,0.1,0.1,0.2,0.1,0.3c0.8,2.6,0,4.8-2,6.5C37.4,28.3,37.3,28.5,37.2,28.6z"/><path d="M39.1,25.3c0.5-1.3,0.3-2.5-0.1-3.7c0,0.9,0.4,1.8,0.2,2.8c-0.3,1.4-1.1,2.5-2,3.5c0,0,0,0.1,0.1,0.1 C38,27.2,38.8,26.4,39.1,25.3z"/><path d="M39.1,25.3c-0.4,1.1-1.1,1.9-1.9,2.7c0,0,0.1,0.1,0.1,0.1c2-1.8,2.8-3.9,2-6.5c0-0.1-0.1-0.2-0.1-0.3 c0,0.1-0.1,0.1-0.1,0.2c0,0,0,0.1,0,0.1C39.5,22.8,39.6,24,39.1,25.3z"/><path d="M0,21.6c0.2,0,0.4,0,0.7,0c0.4-0.5,0.4-1.3,0.4-2.8c0-2,0.9-3.7,1.7-5.5C3,12.9,3.2,12.5,3.4,12 c-0.2,0.1-0.4,0.2-0.6,0.2c-1.4,2-2.3,4.2-2.3,6.7c0,0.7-0.1,1.3-0.1,2C0.4,21.3,0.3,21.5,0,21.6C0,21.7,0,21.6,0,21.6z"/><path d="M38.2,20.4c0.1,0,0.2,0,0.3,0l0,0l0,0c-0.2-0.7-0.7-1.2-1.3-1.6h0l0,0c-0.3-0.2-0.5-0.4-0.5-0.8 c-1.8,0-3.2-1.2-5-1.3l0,0c-0.2-0.1-0.6,0.1-0.7-0.3c0,0,0.3-0.1,0.4-0.2c3.3-0.7,7,1.2,8.6,4.3c1.3,2.4,1.7,4.7-0.1,7 c-0.2,0.3-0.4,0.7-0.3,1c0.2,0,0.3,0,0.5,0c0.4-1,1.1-1.8,1.4-2.8c0.6-2-0.2-3.7-1.1-5.4c-2-3.9-6.6-5.8-10.5-4.2 c-0.7,0.3-1.1,0.2-1.3-0.5c-0.4-2.1-1.8-3.6-3.2-5.1l-0.6-0.2c0,1,1.1,1.1,1.4,2c-0.5,0.3-0.8,0-1.1-0.3c-3.6-3.1-7.7-2.9-12-2.2 c-2.8,0.5-5,1.8-6.9,3.8v0c0.1,0,0.2,0,0.3,0.1c3.5-2.8,7.5-4.1,12-3.8c2.7,0.2,5,1.3,6.9,3.2c0.9,0.9,1.2,2.1,1.3,3.4 c0.2,2.2,1.2,2.7,3,1.4c1.1-0.8,2.3-0.7,3.5-0.3C35.1,18.2,36.9,18.9,38.2,20.4z"/><path d="M37.6,7.3c-0.9-3.1-2.6-4-5.6-2.9c-0.6,0.8-1.7,1.1-2.2,2.2c-1,2.1-0.8,3,1.1,5.3 c2.2,1.3,4.2,0.6,6.1-0.8C37.1,9.8,37.9,8.7,37.6,7.3z M35.6,9.9c-0.9,1.1-2.4,1.5-3.4,0.8c-1.6-1.1-2.1-2.3-1.3-3.5 c0.2-0.3,0.4-0.7,0.9-0.5c1-0.8,2.1-0.9,3.2-0.3C35.8,6.8,36.1,8.8,35.6,9.9z"/><path d="M39,5.2c2.3,0.1,3.6-0.9,3.6-2.6c0-1.5-1.2-2.6-3-2.6c-1.6,0-2.8,1.3-2.8,3C36.9,4.2,37.8,5.1,39,5.2z M40,1.6c0.6-0.1,0.4,0.6,0.7,0.9c0,0.5-0.3,0.8-0.8,0.9c-0.5,0-0.9-0.3-0.9-0.8C39,2.1,39.5,1.7,40,1.6z"/><path d="M31.9,4.4L31.9,4.4L31.9,4.4C31.9,4.4,31.9,4.4,31.9,4.4c2.5-1.8,4.2-0.3,5.4,1.7c1,1.7,0.5,3.3-0.3,4.9 c1.8-2.2,1-4.9-0.8-6.7C34.9,3.1,33.3,3.1,31.9,4.4L31.9,4.4L31.9,4.4z"/><path d="M31.9 4.4L31.9 4.4 31.9 4.4z"/><path d="M37.3,6.1c-1.1-2-2.9-3.6-5.4-1.7c0,0,0,0,0,0c3.1-1,4.8-0.1,5.6,2.9c0.4,1.3-0.4,2.5-0.6,3.7 C37.8,9.4,38.3,7.8,37.3,6.1z"/><path d="M17.8,7.1L17.8,7.1c0.7,0,1.5,0,2.2-0.1c-2.5-0.4-5-0.4-7.5,0C11,7.3,9.4,7.2,8.1,8.3 c0.1,0,0.1,0.1,0.2,0.1C11.3,7.2,14.5,6.9,17.8,7.1z"/><path d="M19.7,7.4C20.3,7.5,21,7.7,21.6,8c1.2,0.6,2.3,1.2,3.2,2.2c0.3-0.1,0.5,0.1,0.7,0.3 c-1.3-2-3.3-2.8-5.5-3.4C19.9,7.2,19.8,7.3,19.7,7.4z"/><path d="M24.8,10.2C24.8,10.2,24.9,10.2,24.8,10.2L24.8,10.2c0.3,0.1,0.5,0.2,0.7,0.3 C25.3,10.3,25.1,10,24.8,10.2z"/><path d="M19.7,7.4C19.8,7.3,19.9,7.2,20,7c-0.7,0-1.5,0-2.2,0.1C18.4,7.3,19.1,7.3,19.7,7.4z"/><path d="M30.9,11.8c-2.8-2-2.5-5.4,0.5-7.1c0.2-0.1,0.4-0.2,0.5-0.4c0,0,0,0,0,0l0,0l0,0l0,0c0,0,0,0,0,0 C31.5,4.6,31,4.7,30.7,5c-1.3,1-1.9,2.4-1.8,4C28.9,10.3,29.4,11.4,30.9,11.8z"/><path d="M31.9 4.4L31.9 4.4 31.9 4.4z"/><path d="M29.8,6.5c0.5-1,1.6-1.3,2.2-2.2l0,0c-0.1,0.2-0.3,0.3-0.5,0.4c-3.1,1.7-3.3,5-0.5,7.1 C28.9,9.6,28.8,8.6,29.8,6.5z"/><path d="M31.9 4.4L31.9 4.4 31.9 4.4 31.9 4.4z"/><path d="M31.9 4.4L31.9 4.4 31.9 4.4z"/><path d="M31.9 4.4L31.9 4.4 31.9 4.4 31.9 4.4 31.9 4.4z"/><path d="M3.5,12C4.2,10.3,6,9.8,7.4,8.9c-0.1,0-0.2,0-0.4,0l0,0l0,0c-1.8,0.7-3.3,1.6-4.2,3.4 C3,12.1,3.2,11.9,3.5,12z"/><path d="M3.4,12C3.4,12,3.4,12,3.4,12c-0.2-0.2-0.4,0.1-0.6,0.2C3,12.2,3.2,12.1,3.4,12L3.4,12z"/><path d="M7.4,8.8C7.4,8.8,7.4,8.9,7.4,8.8c0.3-0.1,0.5-0.2,0.8-0.4c0,0-0.1-0.1-0.1-0.2C7.6,8.3,7.3,8.5,7,8.8 C7.1,8.8,7.3,8.8,7.4,8.8z"/><path d="M8.2,8.4L8.2,8.4c-0.1,0-0.1-0.1-0.2-0.1C8.1,8.4,8.1,8.4,8.2,8.4C8.2,8.4,8.2,8.4,8.2,8.4z"/><path d="M7.4,8.9C7.4,8.9,7.4,8.9,7.4,8.9C7.4,8.9,7.4,8.8,7.4,8.9C7.3,8.8,7.1,8.8,7,8.8l0,0 C7.1,8.9,7.2,8.9,7.4,8.9z"/><path d="M37.7,18.4c0.4,0.7,1.5,1,0.9,2.1c0,0,0.1,0.1,0.1,0.1c0.2,0.1,0.4,0.3,0.4,0.5c0.8,1.2,1.1,3.4,0.4,4.7 c-0.6,1-1.3,2-2.2,2.9c0.3,0,0.6-0.1,0.9-0.1c0.3,0,0.5,0,0.8,0c-0.1-0.4,0.1-0.9,0.4-1.5c1.3-2,1.4-4.9,0-6.7 c-1.2-1.5-2.3-3.1-4.5-3.4c-0.1,0-0.1,0-0.2,0c0.7,0.2,1.4,0.4,2,0.7C37.1,17.9,37.4,18.1,37.7,18.4z"/><path d="M37.2,18.8L37.2,18.8c0.6,0.4,1.1,0.8,1.3,1.6l0,0l0,0l0,0c0,0,0.1,0.1,0.1,0.1c0.6-1.1-0.5-1.4-0.9-2.1 c-0.3-0.2-0.6-0.4-0.9-0.7c-0.7-0.3-1.3-0.5-2-0.7c-0.7-0.1-1.3-0.4-2-0.5c0,0,0,0,0,0c0.7,0.2,1.3,0.3,2,0.5c0.1,0,0.1,0,0.2,0 c2.2,0.2,3.3,1.8,4.5,3.4c1.4,1.8,1.3,4.7,0,6.7c-0.3,0.5-0.5,1-0.4,1.5c0.2,0,0.4,0,0.6,0c-0.1-0.3,0-0.7,0.3-1 c1.9-2.3,1.4-4.6,0.1-7c-1.6-3.1-5.3-4.9-8.6-4.3c0.1,0.2,0.2,0.3,0.3,0.5c1.8,0.1,3.2,1.3,5,1.3C37.3,18,37.3,18.4,37.2,18.8z"/><path d="M32.8,16.5c0.6,0.2,1.3,0.4,2,0.5C34.1,16.8,33.5,16.6,32.8,16.5C32.8,16.5,32.8,16.5,32.8,16.5z"/><path d="M23.8,10.1c-1.5-1.2-3.2-1.9-5.1-2.1c-0.1,0-0.2,0-0.3,0c-0.1,0-0.3,0-0.4,0c-2.7-0.5-5.4,0-8,0.6 C9.5,8.6,8.9,8.9,8.4,8.7c-0.1,0-0.1-0.1-0.2-0.1C8.1,8.9,7.8,9.1,7.4,8.9C7.6,9.3,7.3,9.6,7,9.8C6,10.5,4.9,11,4.1,12 c-0.1,0.1-0.3,0.1-0.5,0.1c0,0,0,0,0,0c0.3,0.4,0.1,0.8,0,1.2c-1.1,2.6-2,5.2-2,8.1c0,0.1,0,0.1,0,0.2c0.2,0,0.5-0.1,0.7-0.1 c-0.4-0.6,0-1.3,0.2-2l0,0l0,0c0-0.4,0.1-0.8,0.5-1.1c0.9-1.7,2-3.2,3.3-4.6c-0.4-0.7,0.1-1.1,0.5-1.5c2.5-2.2,5.5-3.4,8.8-3.4 c1.4,0,2.8-0.1,4.2,0c2,0.2,3.7,0.9,5,2.3c0-0.1,0-0.6,0.1-0.9C24.4,10.4,24.1,10.3,23.8,10.1z"/><path d="M1.5,21.5c0-0.1,0-0.1,0-0.2c0-2.9,0.9-5.5,2-8.1c0.2-0.4,0.4-0.8,0-1.2c0,0,0,0,0,0c0,0-0.1,0-0.1,0h0 c-0.2,0.4-0.5,0.8-0.7,1.3c-0.7,1.8-1.7,3.5-1.7,5.5c0,1.6,0,2.3-0.4,2.8C0.9,21.6,1.2,21.6,1.5,21.5z"/><path d="M24.8,10.3c0,0.2,0,0.8-0.1,0.9l0,0c0,0,0,0,0,0c-1.3-1.4-3.1-2.2-5-2.3c-1.4-0.1-2.8-0.1-4.2,0 c-3.3,0.1-6.3,1.3-8.8,3.4c-0.4,0.4-0.9,0.8-0.5,1.5c0,0,0.1-0.1,0.1-0.1h0l0,0c1.9-2,4.2-3.4,6.9-3.8c4.3-0.7,8.4-0.9,12,2.2 c0.3,0.3,0.6,0.6,1.1,0.3C26,11.4,24.9,11.2,24.8,10.3L24.8,10.3C24.9,10.2,24.8,10.2,24.8,10.3z"/><path d="M24.8,11.1L24.8,11.1C24.8,11.1,24.8,11.1,24.8,11.1z"/><path d="M8.2,8.5c0,0,0.1,0.1,0.2,0.1c0.6,0.2,1.1,0,1.7-0.2c2.6-0.6,5.3-1.1,8-0.6c0.1,0,0.3,0,0.4,0 c-0.4-0.1-0.7-0.2-0.7-0.8l0,0l0,0c-3.3-0.1-6.5,0.1-9.6,1.3l0,0C8.2,8.5,8.2,8.5,8.2,8.5z"/><path d="M18.7,7.9c1.9,0.2,3.6,1,5.1,2.1c0.3,0.2,0.6,0.4,1,0.2c0-0.1,0-0.1,0-0.1c0,0,0,0,0,0 c-0.9-1-2-1.6-3.2-2.2c-0.6-0.3-1.3-0.4-1.9-0.5c-0.3,0.3-0.8,0.4-1.2,0.4C18.6,7.9,18.6,7.9,18.7,7.9z"/><path d="M24.8,10.3C24.8,10.2,24.9,10.2,24.8,10.3L24.8,10.3L24.8,10.3c0.1-0.1,0-0.1,0-0.1c0,0,0,0,0,0 C24.8,10.2,24.8,10.2,24.8,10.3z"/><path d="M18.5,7.9c0.5,0,0.9-0.1,1.2-0.4c-0.6-0.1-1.3-0.2-1.9-0.4l0,0C17.8,7.6,18.1,7.8,18.5,7.9z"/><path d="M4.1,12C4.9,11,6,10.5,7,9.8c0.3-0.2,0.6-0.5,0.4-0.9c0,0,0,0,0,0C6,9.8,4.2,10.3,3.5,12 c0,0,0.1,0,0.1,0.1C3.7,12.1,3.9,12.1,4.1,12z"/><path d="M3.6,12.1C3.5,12,3.5,12,3.6,12.1c-0.1,0-0.1,0-0.1,0l0,0l0,0C3.5,12,3.5,12,3.6,12.1z"/><path d="M8.2,8.5C8.2,8.5,8.2,8.5,8.2,8.5C7.9,8.6,7.6,8.7,7.4,8.9c0,0,0,0,0,0C7.8,9.1,8.1,8.9,8.2,8.5z"/><path d="M8.2,8.4L8.2,8.4L8.2,8.4C8.2,8.4,8.2,8.4,8.2,8.4c-0.1,0.1-0.1,0.1,0,0.1C8.2,8.5,8.2,8.5,8.2,8.4z"/><path d="M7.4,8.9C7.4,8.9,7.4,8.9,7.4,8.9C7.4,8.9,7.4,8.9,7.4,8.9C7.4,8.9,7.4,8.9,7.4,8.9z"/><path d="M6.7,13.6c-0.1,0-0.2,0-0.3-0.1c0.1,0.1,0.1,0.2,0.1,0.3C6.5,13.8,6.6,13.7,6.7,13.6z"/><path d="M2.5,21.4c-0.1-0.2-0.2-0.6-0.1-0.9c0.2-1.7,1.3-3,2.1-4.4c0.5-0.8,1.2-1.5,1.9-2.2 c-0.1,0-0.1-0.1-0.1-0.1c0,0,0-0.1,0-0.1c-1.3,1.4-2.4,2.9-3.3,4.6c-0.1,0.4-0.2,0.8-0.5,1.1l0,0c-0.2,0.7-0.6,1.5-0.2,2 C2.3,21.4,2.4,21.4,2.5,21.4z"/><path d="M6.2,13.7C6.2,13.7,6.2,13.7,6.2,13.7c0.1,0.1,0.1,0.2,0.2,0.2c0,0,0,0,0,0c0-0.1-0.1-0.2-0.1-0.3h0 C6.3,13.6,6.2,13.7,6.2,13.7z"/><path d="M3.2,18.8C3,19,2.9,19.2,2.9,19.5c0,0,0,0.1,0,0.1c0.1-0.2,0.2-0.4,0.3-0.7C3.2,18.9,3.2,18.8,3.2,18.8z"/><path d="M6.5,13.9C6.4,13.9,6.4,13.9,6.5,13.9C6.4,13.9,6.4,13.9,6.5,13.9C6.4,13.9,6.4,13.9,6.5,13.9z"/><path d="M6.4,13.9C6.4,13.9,6.4,13.9,6.4,13.9c0.1-0.1,0.2-0.2,0.2-0.3C6.6,13.7,6.5,13.8,6.4,13.9 C6.4,13.9,6.4,13.9,6.4,13.9z"/><path d="M2.9,21.3c-0.5-0.2-0.5-0.7-0.1-1.7c0,0,0-0.1,0-0.1C2.9,19.2,3,19,3.2,18.8c0,0,0-0.1,0.1-0.1 c0.7-1.8,2-3.2,3.2-4.8c0,0,0,0,0,0c0,0,0,0,0,0c-0.7,0.7-1.4,1.4-1.9,2.2c-0.9,1.4-1.9,2.7-2.1,4.4c0,0.3,0,0.6,0.1,0.9 C2.6,21.3,2.8,21.3,2.9,21.3z"/><path d="M6.4,13.9C6.4,13.9,6.4,13.9,6.4,13.9C6.4,13.9,6.4,13.9,6.4,13.9C6.4,13.9,6.4,13.9,6.4,13.9z"/><path d="M36.7,18c0.1,0.3,0.2,0.6,0.5,0.8v0C37.1,18.5,37,18.2,36.7,18z"/><path d="M36.7,18c0.3,0.2,0.4,0.5,0.5,0.8C37.3,18.4,37.3,18,36.7,18z"/><path d="M31.4,16.2c-0.1,0.1-0.4,0.1-0.4,0.2c0.1,0.4,0.4,0.3,0.7,0.3v0C31.6,16.6,31.3,16.5,31.4,16.2z"/><path d="M31.7,16.7c-0.1-0.2-0.2-0.3-0.3-0.5C31.3,16.5,31.6,16.6,31.7,16.7z"/><path d="M30.9,9.2c-0.5-0.8-0.1-1.9,0.9-2.6c-0.5-0.2-0.7,0.2-0.9,0.5c-0.7,1.3-0.3,2.4,1.3,3.5 c1,0.7,2.5,0.4,3.4-0.8C34,11.3,31.9,11,30.9,9.2z"/><path d="M31.2,9.3c-0.8-1-0.2-1.9,0.6-2.7c-1,0.7-1.3,1.8-0.9,2.6c1,1.8,3.1,2.1,4.7,0.7 c-0.3,0.2-0.5,0.3-0.8,0.5C33.6,10.9,32.1,10.6,31.2,9.3z"/><path d="M2.4,19.4L2.4,19.4c0.2-0.3,0.2-0.8,0.5-1.1C2.5,18.6,2.4,18.9,2.4,19.4z"/><path d="M2.4,19.4c0.3-0.3,0.4-0.7,0.5-1.1C2.6,18.6,2.6,19,2.4,19.4z"/></g></svg>