<svg id="Слой_1" xmlns="http://www.w3.org/2000/svg" viewBox="0 0 73.7 77.5"><g fill="#FFF"><path d="M73.2,73.1c-1.4-2.3-2.9-4.5-4.2-6.9c-0.8-1.6-1.9-3.3-1.2-5.3c1.5-4.3,0.9-8.5-0.5-12.6 c-0.5-1.4-1.2-2.7-2.6-3.5c-0.9-0.5-1-1.3-0.9-2.1c0.3-1.8,0.5-3.5,0.9-5.3c0.7-3,0.9-6,0.3-9.1c-0.4-2.2-0.6-4.5-1.4-6.6 c-1.2-3.1-3.3-5.6-5.2-8.2c-0.6-0.8-0.8-1.7-1.7-2.3c-1.3-0.7-2.1-2-3.3-2.8c-0.8-0.5-1.7-1-2-2c-0.3-0.8-1-1.3-1.8-1.6 c-2.3-0.9-4.4-2.4-6.8-3.2c-5.3-1.9-10.6-2-16.1-0.9c-5.5,1.2-10.8,3-15.5,6.1C9.6,8.1,7.4,9,6.1,11c-0.1,0.5-0.2,0.9-0.8,1 c0.3,0.7-0.3,0.9-0.7,1.1c-0.4,0.3-0.6,0.6-0.8,1c-0.6,1.3-0.9,2.7-1.5,4c-2.7,6.1-2.5,12.6-1.8,19c0.5,4.9,2.8,9.2,5.7,13.1 c2.2,3.1,5.2,5.3,8,7.8c2.4,2.1,5.4,3,8.2,4.1c2.2,0.9,4.7,0.7,7.1,0.9c1.2,0.1,2.4,0.3,3.5,0.2c2.6-0.3,5.2-0.7,7.7-1.1 c1.1-0.2,1.6,0.1,2.2,1.1c2,3.5,4.6,6.2,9,6.7c2.1,0.2,4.1,0.4,6-0.5c0.7-0.3,1.3-0.4,2-0.3c1.2,0.2,2.1,0.8,2.8,1.9 c0.3,0.5,0.6,0.9,1.2,1.2c1.1,1.3,2.2,2.4,3.3,3.7c1.4,1.7,2.9,1.9,4.8,1.2C73.6,76.5,74.3,74.7,73.2,73.1z M13.5,9.3 c0.9-0.7,1.7-1.5,2.7-2c3.6-1.6,7.2-3.5,11.2-3.9c-2.2,2.8-5.5,4.8-7.2,8.1c-0.1,0.7-0.5,1.1-1.1,1.3c-0.4,0.2-0.5,0.6-0.7,0.9 c-0.7,1.4-2,1.6-2.9,0.4c-0.7-1.1-1.7-1.9-2.3-3.1C12.9,10.3,12.8,9.8,13.5,9.3z M5.8,13.8c0-0.3,0-0.6,0.3-0.7l0,0 c0.1-0.2,0.2-0.4,0.3-0.6l0,0h0c0.2-0.2,0.2-0.8,0.6-0.6c0.2,0.1,0,0.4-0.1,0.6C7,13,6.7,13.4,6.4,13.7l0,0c0,0.2-0.1,0.4-0.3,0.5 c-0.3,0.4-0.3,1-1,1.3C5.3,14.8,5.5,14.3,5.8,13.8z M4.9,16.7c0.1,0.1,0.1,0.1,0.1,0.2C5.1,17,5,17,4.9,17.1 C4.9,17,4.8,17,4.8,16.9C4.8,16.8,4.9,16.8,4.9,16.7z M2.7,29.3c0.6-4.6,2.1-9,4.3-13.1c0.6-1.1,1.3-2.1,2-3 c1.1-1.4,1.3-1.4,2.5-0.1c0.2,0.3,0.5,0.4,0.8,0.6c0.7,0.4,1.2,0.9,1.6,1.6c2,1.4,2.9,3,2,5.7c-0.9,2.7-1.3,5.6-1.2,8.5 c0,0.9-0.4,1.3-1.3,1.2c-3-0.1-6.1,0.1-9.1,0.2C2.6,31,2.5,30.8,2.7,29.3z M9.6,50.6C6.4,46.9,3.9,42.9,3,38.1 c-0.2-1.2,0-2.3-0.3-3.5c-0.1-0.6,0.2-0.8,0.7-0.8c2.3,0,4.5-0.5,6.3-0.3c1.6,0,2.7,0.1,3.8,0c0.8-0.1,1.2,0.3,1.3,1 c0.3,3.8,1.5,7.5,2.6,11.1c0.2,0.5,0.3,1-0.4,1.3c-2.3,1-4.3,2.3-6.4,3.7C10.2,51,9.9,50.9,9.6,50.6z M16.7,58.7 c-0.1,0-0.1-0.1-0.2-0.1c0-0.1,0.1-0.2,0.1-0.2c0.1,0,0.1,0.1,0.2,0.1C16.8,58.5,16.8,58.6,16.7,58.7z M21.9,59.7 c-3-1.4-5.8-3-8.4-5.2c-0.6-0.5-0.7-1-0.1-1.6c1.4-1.3,3-2.4,4.7-3.2c0.3-0.1,0.6-0.2,0.8,0.2c2.1,4.2,5.6,7.3,8.9,11 C25.5,61.3,23.6,60.5,21.9,59.7z M31.1,59c-0.4,0.2-0.8-0.1-1.1-0.4c-3.2-2.4-6.2-5.1-8.1-8.7c-0.8-1.5-0.8-1.6,0.8-2.1 c2.4-0.8,4.8-1.3,7.3-1.2c0.7,0,1,0.1,1,0.9c0,1.3,0.1,2.5,0.2,3.8c0,0-0.1,0-0.1,0c0.1,2.2,0.2,4.4,0.3,6.7 C31.5,58.4,31.6,58.8,31.1,59z M26.2,46c0-0.1,0.1-0.2,0.2-0.3c0.1,0.1,0.2,0.2,0.3,0.3c-0.1,0.1-0.2,0.1-0.3,0.2 C26.4,46.1,26.2,46,26.2,46z M31.2,43c-0.1,0.8-0.4,1-1.1,1.1c-3.2,0.4-6.4,0.9-9.5,1.7c-0.5,0.1-0.9,0.1-1.2-0.5 c-1.4-3.4-2.5-6.8-2.7-10.5c0-1,0.3-1.3,1.3-1.2c0.9,0.1,1.7,0,2.6,0c3.4-0.2,6.7,0.7,10,0.5c0.6,0,0.8,0.2,0.8,0.9 C31.5,37.6,31.5,40.3,31.2,43z M32,22.4c-0.1,2.3-0.2,4.7-0.3,7c0,0.7-0.4,0.7-1,0.7c-1.3,0-2.6,0-4.4,0c-2.4-0.2-5.3,0.3-8.2,0.2 c-1.7,0-1.6,0-1.5-1.7c0.2-2.4,0.9-4.8,1.6-7.1c0.2-0.6,0.5-1.1,0.8-1.7c0.2-0.5,0.5-0.6,1.1-0.4c3.5,1.6,7.3,2.2,11.2,2.1 C32,21.7,32,22,32,22.4z M30.1,18.7c-2.7,0.1-5.3-0.3-7.8-1.1c-1.6-0.5-1.8-0.7-0.9-2.1c2.5-4,4.5-8.3,8.6-11 c1.6-1.1,1.7-1.1,1.9,0.8c0.1,0.9,0,1.7,0,2.6c0.1,0,0.2,0,0.3,0c0,2.9,0,5.8,0,8.6C32.3,18.7,32.2,18.6,30.1,18.7z M62,39.6 c0,1.8-1.2,2.6-2.8,2.1c-2.3-0.7-4.6-1.1-6.9-0.4c-1.1,0.3-1.3-0.2-0.9-1c0.7-1.7,1.1-3.6,1.5-5.4c0.1-0.4,0.1-0.8,0.7-0.8 c2.7,0.2,5.2-0.7,7.9-0.5c0.8,0.1,0.8,0.1,0.5,0.8C62,36.1,62,37.9,62,39.6z M55.5,14.6c0.5-0.5,0.9-0.3,1.3,0.2 c3,4.1,4.5,8.8,5.3,13.8c0.2,1,0,1.7-1.3,1.6c-0.9-0.1-1.8,0-3,0c-1.1-0.1-2.6,0.2-4-0.2C53.2,29.8,53,29.6,53,29 c0.2-3-0.8-5.7-1.5-8.5c-0.9-3.6-1.4-2.8,1.9-4.5C54.2,15.6,54.9,15.1,55.5,14.6z M42.5,4.4c2.6,0.3,4.6,1.8,6.7,3 c1.1,0.6,2.2,1.1,3.1,2l0,0l0,0c0.5,0.3,1,0.5,0.8,1.3l0,0l0,0c-0.2,0.9-2.3,3-3.2,3.1c-0.6,0-0.7-0.4-1-0.7c-1-1.5-2.1-3-3.2-4.4 c-1-1.4-2.4-2.5-3.6-3.7l0,0c-0.3-0.1-0.5-0.4-0.7-0.7C42,4.1,42.3,4.1,42.5,4.4z M41.5,30.1c-2.2,0.1-4.1-0.1-5.9,0.2 c-0.7,0.1-1.3,0-1.3-1c0-2.4,0-4.7,0-7.1c0-0.6,0.3-0.7,0.8-0.8c4-0.5,7.9-1.4,11.8-2.7c0.6-0.2,0.9-0.2,1.2,0.5 c1.2,3.1,1.8,6.3,1.7,9.7c0,0.6-0.2,0.9-0.9,1C46.3,29.9,43.7,30.3,41.5,30.1z M48.2,31.5c-0.7,0.2-1.3,0.5-2,0.4 c-0.2,0-0.3,0-0.5,0c-0.3,0-0.5,0-0.8,0c-0.2,0-0.6,0.1-0.6-0.2c0.1-0.4,0.5-0.2,0.8-0.2c0.2,0,0.4,0,0.5,0c0.3,0,0.7,0,1,0 C47.2,31.5,47.7,31.5,48.2,31.5z M40.5,4.5c0.1,0,0.1,0.1,0.1,0.2c-0.1,0-0.1,0.1-0.2,0.1c-0.1,0-0.1-0.1-0.1-0.2 C40.4,4.5,40.5,4.4,40.5,4.5z M34.7,12.1c0.4-2.6,0.3-5.3,0.7-7.9c-0.1-0.3-0.1-0.7,0.1-0.9c0.3-0.2,0.5,0.1,0.7,0.3 c1.5,0.7,2.3,2.1,3.2,3.3c2.1,2.8,4.1,5.7,6.4,8.3c0.4,1,0.4,1-1,1.2c-3.1,1.5-6.4,1.8-9.7,2.3c-0.8,0.1-0.7-0.3-0.8-0.8 C34.2,16,34.4,14,34.7,12.1z M40.4,59.4c-0.2,0.1-0.3,0.2-0.5,0.3c-0.4,0.2-0.9,0.6-1-0.3h0h0c-0.1-0.5,0.4-0.7,0.5-1.1h0l0,0 c-0.2-0.1-0.4-0.2-0.2-0.5c0,0,0.1-0.1,0.1,0c0.3,0.1,0.2,0.3,0.1,0.5c0,0,0,0,0,0l0,0c0.7,0.1,0.8-1,1.6-0.7 c0.3,0.1,0.5,0.3,0.5,0.7c0,0.1,0,0.2,0,0.3l0,0l0,0C41.5,59.6,40.9,59.5,40.4,59.4z M41.8,49.3c-0.8,1.8-0.4,3.8-1.2,5.6 c-0.1,0.1-0.2,0.2-0.2,0.3c-0.1,0.2-0.1,0.2-0.2,0.3c-0.4,0.5-0.6,1.3-1.4,1.4c-0.2,1-0.8,1.6-1.8,1.8l0,0 c-0.8,0.5-1.7,1.1-2.5,1.6c-0.5,0.3-0.9,0.2-0.9-0.5c0.2-2.6,0-5.2,0.2-7.8c0.1-1.3,0.2-2.7,0.1-4c0-0.8,0.2-1.1,1-1.1 c2,0.1,4,0.2,5.9,0.6C42.2,47.6,42.3,47.8,41.8,49.3z M41.1,44.9c-1.8-0.6-3.6-0.9-5.5-1c-1.1,0-1.7-0.4-1.6-1.7 c0.1-2.3,0.1-4.7,0.1-7c0-0.8,0.3-1.2,1.2-1.2c2.2,0,4.4,0,6.7,0c0,0,0,0,0,0.1c2.2,0,4.4,0,6.5,0c0.8,0,1.1,0.3,1,1.1 c-0.2,2.3-0.9,4.4-1.5,6.5c-0.2,0.6-0.5,1.1-1.1,1.3c-0.4,0.2-0.8,0.5-1,0.8C44.6,45.9,43,45.6,41.1,44.9z M42.6,54.2 c0-0.1-0.1-0.1-0.1-0.2c0-0.1,0.1-0.1,0.2-0.1c0,0.1,0.1,0.1,0.1,0.2C42.7,54.2,42.6,54.2,42.6,54.2z M54.9,67 c-2.3,0.1-4.6-0.5-6.7-1.5c-1.1-0.5-1.7-1.6-2.4-2.6c-0.4-0.2-0.7-0.6-0.8-1.1c-0.7-1.7-1.4-3.4-1.6-5.3c-0.3-3.3,0.5-6.3,2.7-8.8 c1.2-1.3,2.9-2,4.5-2.9c2.7-1.4,5.6-1.3,8.3-0.4c3.5,1.1,5.5,3.9,6.5,7.4c0.8,2.6,1.3,5.2,0.1,7.9C63.6,64.3,60.1,66.8,54.9,67z M66.2,73.6c-0.1,0.1-0.2,0-0.2-0.1c0-0.1,0.1-0.1,0.1-0.2c0.1,0,0.1,0.1,0.2,0.1C66.3,73.5,66.3,73.6,66.2,73.6z M70.1,74 c-0.7,0.7-1.3,0.4-2-0.1c-1.1-0.5-1.8-1.3-2.4-2.3c-0.6-1.3-2-2-2.5-3.4c-0.2-0.5-0.3-0.7,0.2-1.1c2.8-2,2-1.8,3.8,0.5 c1.1,1.4,2,2.9,2.9,4.5C70.4,72.7,70.8,73.3,70.1,74z"/><path d="M46.6,31.5C46.6,31.5,46.6,31.5,46.6,31.5C46.6,31.5,46.6,31.5,46.6,31.5z"/><path d="M5.2 12L5.2 12 5.2 12z"/><path d="M56.9,11.3c-1.4-2-3.4-3.3-5.3-4.8C53.3,8.2,55.4,9.4,56.9,11.3z"/><path d="M53.7,8.5c1.2,0.8,2,2.1,3.3,2.8c-1.5-1.8-3.6-3.1-5.3-4.8C52,7.5,52.8,8,53.7,8.5z"/><path d="M5.2,12L5.2,12L5.2,12c-0.4,0.3-0.7,0.6-0.7,1.1C4.7,12.7,5.2,12.5,5.2,12z"/><path d="M5.2,12L5.2,12L5.2,12L5.2,12L5.2,12c0,0.5-0.5,0.7-0.7,1.1C4.9,12.9,5.6,12.8,5.2,12z"/><path d="M6.1,11c-0.4,0.3-0.7,0.6-0.8,1C5.6,11.8,5.8,11.4,6.1,11z"/><path d="M5.2,12c0.6-0.1,0.8-0.5,0.8-1C5.8,11.4,5.6,11.8,5.2,12L5.2,12L5.2,12z"/><path d="M5.2 12L5.2 12 5.2 12z"/><path d="M40.6,57.9c0,0,0.1,0,0.1,0c0.1-0.1,0.2-0.2,0.2-0.3c-0.8-0.3-0.9,0.8-1.6,0.7c-0.1,0.4-0.5,0.6-0.5,1.1h0 c0.1,0,0.2,0,0.3,0C39.2,58.5,40.1,58.4,40.6,57.9z"/><path d="M39.3 58.4L39.3 58.4 39.3 58.4z"/><path d="M40.6,57.9c-0.4,0.5-1.4,0.6-1.4,1.5c0,0,0,0,0,0c0.2-0.7,0.9-0.8,1.3-1.3c0,0,0.1-0.1,0.1-0.1 C40.6,57.9,40.6,57.9,40.6,57.9z"/><path d="M65.8,71.5c0.6,1,1.3,1.8,2.4,2.3C67.2,73.2,66.5,72.3,65.8,71.5z"/><path d="M65.8,71.5c0.8,0.8,1.5,1.6,2.4,2.3C67.4,73,66.7,72.1,65.8,71.5z"/><path d="M36.9,58.6c1-0.2,1.6-0.8,1.8-1.8c0,0,0,0,0,0C38.3,57.6,37.7,58.2,36.9,58.6z"/><path d="M38.8,56.8C38.8,56.8,38.8,56.8,38.8,56.8L38.8,56.8L38.8,56.8L38.8,56.8C38.8,56.8,38.8,56.8,38.8,56.8 c-0.6,0.6-1.2,1.2-1.8,1.8l0,0C37.7,58.2,38.3,57.6,38.8,56.8z"/><path d="M38.8 56.8L38.8 56.8 38.8 56.8z"/><path d="M39.8,55.4C39.8,55.4,39.8,55.4,39.8,55.4c-0.4,0.4-0.5,1.1-1.1,1.4l0,0c0.8-0.1,1-0.9,1.4-1.4 C40,55.4,39.9,55.4,39.8,55.4z"/><path d="M38.8,56.8c0.6-0.3,0.6-1,1.1-1.4c0,0,0,0,0,0c-0.1,0-0.1,0-0.2,0h0C39.3,55.8,39,56.3,38.8,56.8 C38.8,56.8,38.8,56.8,38.8,56.8C38.8,56.8,38.8,56.8,38.8,56.8z"/><path d="M40.4,55.1c-0.1,0-0.3,0.1-0.4,0.1c0,0-0.1,0.1-0.1,0.1c0.1,0,0.2,0,0.3,0C40.2,55.3,40.3,55.2,40.4,55.1z"/><path d="M39.9,55.2c-0.1,0-0.2,0.1-0.3,0.1c0.1,0,0.1,0,0.2,0C39.9,55.3,39.9,55.3,39.9,55.2z"/><path d="M38.8 56.8L38.8 56.8 38.8 56.8z"/><path d="M38.8 56.8L38.8 56.8 38.8 56.8 38.8 56.8z"/><path d="M38.8 56.8L38.8 56.8 38.8 56.8z"/><path d="M13.9,15.2c-0.4-0.7-0.9-1.2-1.6-1.6C12.8,14.2,13.3,14.8,13.9,15.2z"/><path d="M13.9,15.2c-0.6-0.5-1.1-1-1.6-1.6C12.6,14.4,13.1,15,13.9,15.2z"/><path d="M53.2,10.8L53.2,10.8c0.2-0.7-0.3-1-0.8-1.3l0,0C52.7,9.8,53.1,10.2,53.2,10.8z"/><path d="M52.4,9.5c0.3,0.4,0.6,0.9,0.8,1.3C53.1,10.2,52.7,9.8,52.4,9.5z"/><path d="M20.2,11.5c-0.2,0.5-0.7,0.9-1.1,1.3C19.7,12.5,20.1,12.1,20.2,11.5z"/><path d="M19.1,12.8c0.3-0.5,0.8-0.8,1.1-1.3C19.7,11.9,19.3,12.3,19.1,12.8z"/><path d="M39.2,59.4C39.2,59.4,39.2,59.4,39.2,59.4C39.2,59.4,39.2,59.4,39.2,59.4C39.2,59.4,39.2,59.4,39.2,59.4z"/><path d="M6.9,12.5C7,12.3,7.2,12,7,11.9c-0.5-0.1-0.5,0.4-0.6,0.6h0C6.5,12.4,6.7,12.4,6.9,12.5z"/><path d="M6.4,12.6c0.2,0,0.4,0,0.6,0C6.7,12.4,6.5,12.4,6.4,12.6z"/><path d="M66,73.5c0,0.2,0.1,0.2,0.2,0.1c0.1,0,0.1-0.1,0.1-0.2c-0.1,0-0.1-0.1-0.2-0.1C66,73.3,66,73.4,66,73.5z"/><path d="M45.9,62.8c-0.2-0.4-0.6-0.7-0.8-1.1C45.2,62.3,45.5,62.6,45.9,62.8z"/><path d="M45.1,61.8c0.2,0.4,0.5,0.7,0.8,1.1C45.9,62.3,45.4,62.1,45.1,61.8z"/><path d="M26.7,46c-0.1-0.1-0.1-0.2-0.3-0.3c-0.1,0.1-0.2,0.2-0.2,0.3c0,0,0.1,0.1,0.2,0.1 C26.5,46.1,26.6,46,26.7,46z"/><path d="M40.5,4.7c0.1,0,0.1-0.1,0.2-0.1c0-0.1-0.1-0.2-0.1-0.2c-0.1,0-0.1,0.1-0.2,0.1C40.4,4.6,40.4,4.7,40.5,4.7 z"/><path d="M16.5,58.6c0.1,0,0.1,0.1,0.2,0.1c0-0.1,0.1-0.1,0.1-0.2c-0.1,0-0.1-0.1-0.2-0.1 C16.6,58.4,16.6,58.5,16.5,58.6z"/><path d="M39.2,57.9c0,0-0.1,0-0.1,0c-0.2,0.3,0.1,0.4,0.2,0.5C39.4,58.2,39.5,58,39.2,57.9z"/><path d="M39.3 58.4L39.3 58.4 39.3 58.4z"/><path d="M4.9,17.1C5,17,5.1,17,5.1,16.9c0-0.1-0.1-0.1-0.1-0.2c-0.1,0.1-0.2,0.1-0.2,0.2C4.8,17,4.9,17,4.9,17.1z"/><path d="M42.5,54c0,0.1,0.1,0.1,0.1,0.2c0.1,0,0.1-0.1,0.2-0.1c0-0.1-0.1-0.1-0.1-0.2C42.6,54,42.5,54,42.5,54z"/><path d="M56.2,60.9c-1.4,0.7-2.9,0.5-4.3,0.2c-1.5-0.3-2.3-1.2-2.3-2.8c0-0.3,0-0.7-0.1-1c-0.3-0.7-0.8-1.2-1.6-1.2 c-0.8,0-0.9,0.7-1,1.3c-0.1,0.5-0.2,0.9-0.2,1.4c-0.1,1.6,1.1,2.5,2,3.5c1.7,2.1,5.7,2.6,7.9,1c0.5-0.3,0.7-0.7,0.9-1.2 c0.2-0.4,0-0.8-0.2-1.1C57,60.8,56.6,60.7,56.2,60.9z"/></g></svg>