<svg id="Слой_1" xmlns="http://www.w3.org/2000/svg" viewBox="0 0 15.9 7.4"><g fill="#FFF"><path d="M14.9,4.4c0.6,0.4,1.1-0.3,0.9-0.9c-0.4-1.2-1.1-2.2-2.2-2.8c-0.6-0.4-1.5,0.2-1.5,1.1c0,0.1,0,0.3,0.1,0.4 C13.2,2.9,14,3.8,14.9,4.4z"/><path d="M2.9,0c-1,0.4-2,0.7-2.7,1.6c-0.4,0.5-0.2,1,0.1,1.4c0.4,0.4,0.9,0.3,1.3,0c0.5-0.5,1.1-0.9,1.6-1.2 c0.3-0.2,0.5-0.5,0.5-0.9C3.7,0.4,3.4-0.2,2.9,0z"/><path d="M8.7,3.7c-0.2-0.2-0.5-0.3-0.8,0C7.2,4.3,7.5,5.1,7.6,5.9c0,0,0,0.1,0,0.1c0,0.9,0.4,1.5,1.3,1.5 c1-0.1,0.8-1,0.9-1.8C9.9,4.9,9.4,4.2,8.7,3.7z M8.7,6.8C7.9,6.7,8,5.7,7.9,5.1c-0.1-0.4,0-1,0.4-0.9c0.8,0.1,0.9,0.8,1,1.5 C9.2,6.1,9.5,6.9,8.7,6.8z"/><path d="M8.3,4.2c-0.5,0-0.5,0.6-0.4,0.9c0.1,0.6,0,1.6,0.8,1.7c0.7,0.1,0.5-0.7,0.6-1.2C9.2,5,9.1,4.2,8.3,4.2z"/></g></svg>