<svg id="Слой_1" xmlns="http://www.w3.org/2000/svg" viewBox="0 0 34.6 9.3"><g fill="#FFF"><path d="M7.1,3.6c2.9,0,5.9,0,8.8,0c3.8,0,7.6-0.1,11.4-0.2c2.1,0,4.3,0.1,6.4,0.1c0.5,0,0.7,0.3,0.8,0.7 c0.1,0.4,0,0.8-0.5,1c-0.5,0.1-1,0.3-1.4,0.3c-3.2-0.5-6.4-0.2-9.6,0c-1.8,0.1-3.5-0.2-5.3-0.2c-4.1,0-8.2,0.3-12.2,0.5 c-1.5,0.1-3,0.1-4.4-0.2C0.6,5.3,0,5.2,0,4.6c0-0.7,0.6-0.9,1.2-0.9C3.2,3.6,5.1,3.7,7.1,3.6C7.1,3.7,7.1,3.6,7.1,3.6z"/><path d="M10,7c2.1,0.6,4.2,0.2,6.4,0.4c2.5,0.2,5.1-0.1,7.7-0.2c1,0,1.9,0.1,2.9-0.2c0.6-0.2,0.9,0.2,1,0.8 c0,0.5-0.2,0.9-0.7,0.9c-1.9,0.2-3.8,0.3-5.8,0.4c-3.2,0.1-6.3-0.4-9.5,0.1C10.8,9.5,9.7,9,8.6,9.1c-0.4,0-0.7-0.3-0.8-0.7 C7.7,8,7.9,7.8,8.2,7.5C8.7,7.1,9.4,7,10,7z"/><path d="M15.7,2c-2.2,0-4.3,0-6.5,0C8.6,2,7.9,2.1,7.8,1.3c0-0.8,0.8-1.2,1.3-1.2c2.3,0.3,4.7,0,7,0.2 c2.8,0.3,5.5,0,8.3-0.3C25.1,0.1,25.7,0,26.3,0c0.5,0,1,0.2,1,0.8c0,0.7-0.5,0.9-1,0.9c-1.4,0-2.9,0.2-4.3,0.3 C19.9,2.1,17.8,2,15.7,2C15.7,2,15.7,2,15.7,2z"/></g></svg>