<svg id="Слой_1" xmlns="http://www.w3.org/2000/svg" viewBox="0 0 54.1 54.6"><path fill="#FFF" d="M53.2,29.3c-0.7-0.5-1.5-0.9-2.2-1.4c-0.3-0.2-0.8-0.5-0.3-1c0.9-0.9,1.2-2.2,2-3.2c0.9-1.2,0.6-2-0.7-2.7 c-0.8-0.4-1.6-0.9-2.4-1.2c-0.7-0.3-0.9-0.8-1-1.5c-0.1-1.5,0.1-2.9,0.4-4.3c0.2-1-0.3-1.9-1.2-1.9c-1.1,0-2.2-0.4-3.4-0.4 c-1.7,0-2.3-0.6-2.8-2.4c-0.3-1.3-0.5-2.7-1.4-3.7c-0.5-0.5-1-0.9-1.7-0.5c-1.3,0.8-2.9,1-4.3,1.5c-1,0.4-1.6,0.1-2.2-0.8 c-1-1.6-2.1-3.2-3.2-4.8c-0.8-1.2-1.7-1.3-2.5-0.1c-1,1.4-2.4,2.4-3.9,3.3c-0.7,0.4-1.3,0.5-2.1,0.4c-1.6-0.2-3.3-0.2-4.9-0.2 c-0.9,0-1.4,0.4-1.3,1.4c0,1.3-0.5,2.5-0.9,3.6C13,9.7,12.9,10,12.4,9.9C10.9,9.8,9.5,10,8.1,9.7C6.7,9.5,6,10.3,6.2,11.6 c0.4,3.3,0,4.1-3,5.7c-0.9,0.5-2.1,0.8-2.2,2c-0.1,1.3,1.3,1.5,2.1,2c1.3,0.7,1.4,0.9,0.3,1.9c-1.1,1-2.2,2-3.1,3.1 c-0.6,0.7-0.6,1.4,0.2,1.9c0.9,0.5,1.4,1.3,2.2,1.8c0.7,0.5,0.6,1,0.3,1.7c-0.6,1.2-1.2,2.3-1.7,3.5c-0.6,1.3-0.3,1.9,1.1,2.1 c3.7,0.4,4.6,1.7,3.2,5.2c-0.6,1.5-0.1,2.3,1.6,2.3c0.3,0,0.6-0.1,0.9,0c1.5,0.5,3.4,0.1,4.1,2.2c0.3,0.9,0.6,1.8,0.9,2.7 c0.4,1.2,1,1.4,2.1,0.8c1.2-0.6,2.3-1.3,3.5-1.7c0.8-0.3,1.3-0.1,1.7,0.6c0.9,1.3,1.8,2.5,2.7,3.8c1.1,1.5,1.3,1.5,2.7,0.3 c1.9-1.5,3.9-3.4,6.6-1.4c1.2,0.9,2.2,0,3-0.7c0.3-0.3,0.4-0.8,0.6-1.3c0.7-2.2,1.2-2.5,3.4-2.2c1,0.1,1.8,0.8,2.9,0.8 c1.5,0,2.3-0.7,2.5-2.2c0.1-0.6,0.1-1.2,0.3-1.8c0.2-1.2,0.7-2.2,2.1-2.5c1.1-0.2,2.3-0.6,3.4-0.8c0.9-0.2,1.3-0.6,1-1.5 c-0.5-1.5-0.8-3.1-1.6-4.5c-0.2-0.4-0.4-0.8,0.2-1.1c1.4-0.6,2.2-2,3.3-2.9C54.4,30.6,54.2,30,53.2,29.3z M7.6,39.5 c0-0.1,0.1-0.1,0.2-0.1c0,0,0.1,0.1,0.1,0.2c-0.1,0-0.1,0.1-0.2,0.1C7.6,39.8,7.5,39.7,7.6,39.5z M49.7,32.6 c-0.3,0.2-0.6,0.5-0.9,0.7c-0.7,0.5-1,1.2-0.7,2c0.3,0.7,0.4,1.4,0.7,2.1c1.1,2.3-0.3,2.9-2,3.1c-1,0.1-1.8,0.6-2.6,1.1 c-0.6,0.4-0.9,1.1-1,1.9c-0.1,0.4-0.1,0.9-0.2,1.3c-0.7,2.5-1,2.6-3.3,1.6c-1.6-0.7-3.1-0.3-4.1,1.1c-0.4,0.5-0.7,1.1-1.1,1.6 c-0.8,1.4-1.1,1.7-2.5,0.9c-2-1.1-3.7-0.6-5.2,0.9c-0.3,0.2-0.6,0.4-0.8,0.6c-0.7,0.7-1.2,0.5-1.6-0.3c-0.6-1.1-1.5-2-2.4-2.9 c-1.3-1.4-2.5-1.6-4.3-0.8c-0.2,0.1-0.3,0.1-0.5,0.2c-1.7,0.7-1.8,0.7-2.7-0.8c-1.2-2.1-2.8-3.6-5.4-3.8c-1.4-0.1-1.7-1.3-0.9-2.4 c1-1.4,0.3-3.4-1.4-3.9c-0.1,0-0.3,0-0.4-0.1c-0.9-0.4-2-0.6-2.5-1.3c-0.6-0.8,0.4-1.7,0.8-2.4c0.9-2,0.9-2.9-0.6-4.5 c-1.6-1.7-1.6-1.7,0.2-3.2c1-0.8,2.1-1.5,2.1-3.1c0-0.9-0.1-1.6-1.1-1.9c-0.5-0.2-1-0.5-1.1-1.1c0-0.5,0.6-0.7,1-1 c0.3-0.2,0.6-0.3,0.9-0.5c1.1-0.9,2.1-1.7,1.9-3.5c-0.3-2,0.2-2.5,2.2-2.5c0.9,0,1.8,0.1,2.7,0.5c1.4,0.5,1.4-0.9,1.9-1.6 c0.2-0.4,0.3-0.9,0.5-1.3c1.5-3.6,1.1-3.4,5.3-2.6c2,0.4,2.1,0.4,3.4-1.1c0.7-0.8,1.4-1.5,2.3-2.1C27,3,27.9,2.8,28.5,3.9 c0.5,0.9,1.2,1.7,1.7,2.6c1.3,2,2.2,2.5,4.5,2C35.8,8.2,36.9,8,38,7.8c0.7-0.1,1.2,0.1,1.4,0.9c0.4,1.3,0.6,2.7,1.9,3.7 c0.9,0.7,1.7,1,2.8,1.1c2.9,0.1,2.9,0.1,2.8,2.9c0,0.9-0.2,1.8-0.2,2.7c0,0.9,0.4,1.6,1.3,1.9c3.4,1.2,3.5,1.6,1,4.3 c-0.4,0.4-0.6,0.8-0.7,1.2c-0.2,0.9,0.1,1.7,1,2.1C52.3,30.2,52.3,30.7,49.7,32.6z"/></svg>