<svg id="Слой_1" xmlns="http://www.w3.org/2000/svg" viewBox="0 0 87.1 103.9"><g fill="#FFF"><path d="M47.8,99.9c0,0.2,0,0.4,0,0.6c-0.8,0.2-1.1-0.4-1.1-0.9c0-1.4-0.2-2.8-0.3-4.3c-0.1-1.2,0.5-1.5,1.5-1.7 c2.2-0.5,4.4-0.2,6.6-0.3c3.4-0.1,6.8,0,10.2-0.3c4.2-0.4,8.5-0.1,12.8-0.5c2-0.2,4,0.2,6.1,0c2.2-0.2,2.5-0.8,2.1-2.9 c-0.5-2.8-1-5.7-1.3-8.6c-0.3-2.4-0.6-4.7-0.9-7.1c0-0.1,0-0.3-0.1-0.4c0-0.6-0.1-1.2-0.2-1.8c0-0.1,0-0.3,0-0.4 c0-0.6-0.1-1.2-0.2-1.7c0-0.2,0-0.4,0-0.6c0-0.5-0.1-0.9-0.2-1.3c0-0.1,0-0.3-0.1-0.4c-0.2-1.8-0.5-3.6-0.2-5.4 c0.1-0.5,0.2-1-0.1-1.5c-0.1-1.3-0.2-2.6-0.3-3.9c0.1-0.1,0.2-0.1,0.3,0c0.3,2.7,0.6,5.3,0.9,8c0.4,3.1,0.8,6.3,1.2,9.4 c0.6,4.7,1.3,9.5,1.9,14.2c0.1,0.4,0.1,0.9,0.3,1.1c0.7,0.8,0.7,1.6,0.5,2.6c-0.2,1.5-0.8,2.1-2.2,2c-2.8-0.2-5.6-0.1-8.5,0 c-3.4,0.2-6.8,0-10.2,0.2c-4.3,0.3-8.6,0.2-12.8,0.5c-1.7,0.1-3.4,0.4-5.1,0.4c-0.8,0-1.1,0.3-1,1.1C47.4,97.1,47.6,98.5,47.8,99.9 z"/><path d="M82.3,68c-0.4-1.3-0.4-2.6-0.5-3.9c0.2-0.1,0.1-0.2,0-0.3c-0.4-0.7-0.2-1.4-0.3-2.1 c0.2,0.1,0.3,0.6,0.5,0.1c0.1-0.5,0-1.1,0-1.7c0.5,1.1,0.2,2.4,0.4,3.6c0.3,1.2,0.2,2.5,0.3,3.7C82.7,67.7,82.5,67.9,82.3,68z"/><path d="M80.2,40c0.4,0.9,0.2,1.9,0.2,2.9C80,42,80.3,41,80.2,40z"/><path d="M80,36.3c0.4,0.8,0.2,1.7,0.2,2.6C79.8,38.1,79.9,37.2,80,36.3z"/><path d="M79.4,31.4c0.4,0.9,0.2,1.9,0.3,2.9C79.2,33.3,79.5,32.3,79.4,31.4z"/><path d="M80.8,45.5c0.4,0.8,0.2,1.7,0.2,2.6C80.6,47.3,80.8,46.4,80.8,45.5z"/><path d="M81.5,53.6c0.4,0.8,0.2,1.7,0.3,2.6C81.4,55.4,81.6,54.5,81.5,53.6z"/><path d="M81,48.4c0.4,0.8,0.2,1.6,0.2,2.4C80.9,50,81.1,49.2,81,48.4z"/><path d="M81.3,51.3c0.4,0.7,0.2,1.4,0.2,2.1C81.2,52.7,81.3,52,81.3,51.3z"/><path d="M80.5,43.2c0.4,0.7,0.2,1.4,0.3,2.1C80.4,44.6,80.5,43.9,80.5,43.2z"/><path d="M69,13.3c-0.4,0.3-0.9,0.3-1.3,0.3C68,13.2,68.5,13.2,69,13.3z"/><path d="M79.7,34.5c0.3,0.5,0.2,1,0.2,1.6C79.7,35.6,79.7,35,79.7,34.5z"/><path d="M76.3,15.7c-0.1-0.2-0.1-0.3,0-0.5C76.7,15.3,76.5,15.5,76.3,15.7z"/><path d="M83.6,73.5c-0.1,0.6,0.2,1.4-0.5,1.8c0-0.1,0-0.2,0-0.3c-0.3-0.5,0.1-1.1-0.3-1.6c-0.3-0.6,0.1-1.3-0.3-1.8 c0-0.2,0-0.3,0-0.5c-0.4-0.8,0.1-1.8-0.3-2.6c0-0.2,0-0.3,0-0.5c0-0.2,0-0.3,0-0.5c0-0.2-0.1-0.5,0.2-0.5c0.1,0,0.2,0.3,0.3,0.5 c0.3,0.4-0.1,0.9,0.3,1.3c0,0.2,0,0.3,0,0.5c0.3,0.6-0.1,1.3,0.3,1.8c0,0.1,0,0.2,0,0.3c0.3,0.6-0.1,1.3,0.3,1.8 C83.6,73.3,83.6,73.4,83.6,73.5z"/><path d="M83.4,71.2c-0.3-0.6-0.3-1.2-0.3-1.8C83.5,69.9,83.3,70.5,83.4,71.2z"/><path d="M83.6,73.3c-0.4-0.6-0.2-1.2-0.3-1.8C83.7,72,83.6,72.6,83.6,73.3z"/><path d="M83.1,68.8c-0.3-0.4-0.3-0.9-0.3-1.3C83.1,67.9,83.1,68.3,83.1,68.8z"/><path d="M82.3,68.5c0.4,0.8,0.2,1.7,0.3,2.6C82.1,70.3,82.4,69.4,82.3,68.5z"/><path d="M82.6,71.7c0.4,0.6,0.2,1.2,0.3,1.8C82.5,72.9,82.6,72.3,82.6,71.7z"/><path d="M82.8,73.5c0.3,0.5,0.3,1,0.3,1.6C82.8,74.6,82.9,74.1,82.8,73.5z"/><path d="M83.9,91.3c0-0.4,0.2-0.8,0.6-1c-0.1,0.4-0.2,0.7-0.3,1.1l0,0C84.1,91.3,84,91.3,83.9,91.3z"/><path d="M81.8,63.8c0.3,0,0.5,0.1,0.4,0.4c-0.1,0.2-0.3,0-0.4-0.1C81.8,64,81.8,63.9,81.8,63.8z"/><path d="M2.8,97.9c0,0.1,0,0.2,0,0.3c-0.3,0.4-0.4,0.8-0.3,1.3c-0.1,0.4-0.2,0.9-0.3,1.3c0.2,0.2,0,0.6,0.3,0.8 c0.1,0.1,0.2,0.2,0.3,0.3c-0.3,0.2-0.4,0.9-1,0.6c-0.4-0.2-0.3-0.7-0.4-1.2c-0.3-1.8,0.4-3.5,0.1-5.3c-0.2-1.1,0.1-2.3,0.2-3.5 c0.3-4.3,0.6-8.6,1.5-12.8c0.2-0.9,0.7-0.3,1.1-0.4c0,0.2,0,0.3,0,0.5c-0.3,0.5,0,1.1-0.3,1.6c0,0.1,0,0.2,0,0.3 c-0.4,1.2,0.1,2.5-0.3,3.7c0,0.1,0,0.2,0,0.3c-0.4,1.1,0.1,2.3-0.3,3.4c0,0.1,0,0.2,0,0.3c-0.4,1.4,0.1,2.8-0.3,4.2 c0,0.2,0,0.4,0,0.5c-0.4,0.5,0,1.1-0.3,1.6c0.1,0.3-0.1,0.6-0.3,0.8C3,96.8,2.8,97.3,2.8,97.9z"/><path d="M5.6,63.8c-0.3,3.4-0.5,6.8-0.8,10.2c0,0.4-0.2,0.8-0.2,1.3c-0.4,0.8,0,1.8-0.3,2.6c0,0.1,0,0.2,0,0.3 c-0.3,0.1-0.8,0.3-0.7-0.1c0.1-0.9-0.4-1.7-0.2-2.6c0.9-3.1,0.6-6.3,1.1-9.5c0.1-0.9,0.2-1.7,0.6-2.5C5.3,63.7,5.5,63.7,5.6,63.8z"/><path d="M9,101.8c0.3,0,0.5,0,0.8,0c0.9-0.1,1.7-0.1,2.6,0c0.3,0.2,0.7,0.2,1,0c0.4,0.1,1-0.4,1.3,0.3 c-0.1,0.8-0.7,1-1.4,1c-2.7-0.3-5.5,0.2-8.2-0.2c-0.5-0.1-1.1,0-1.1-0.7c0.2,0,0.3,0,0.5,0c0.7-0.4,1.4,0.2,2.1-0.3 c0.4,0,0.9,0,1.3,0C8.3,101.9,8.7,102.1,9,101.8z"/><path d="M6.9,51.8c-0.3,2.5-0.5,5.1-0.8,7.6c-0.5,0.2-0.8,0-0.7-0.5c0.1-2,0.2-4,0.6-6C6.1,52.4,6.3,51.8,6.9,51.8z"/><path d="M7.7,48.4c-0.2,0.8-0.3,1.6-0.5,2.4c-0.8-0.6-1.1-1.9-0.6-2.5C7.1,47.7,7.5,47.6,7.7,48.4z"/><path d="M15.3,101.8c0.3,0,0.5,0,0.8,0c0.4,0.5,1.2,0.2,1.6,0.6C16.3,103.2,15.4,103,15.3,101.8z"/><path d="M45.4,90.3c-0.4-1.8-0.4-3.7-0.5-5.5C45.5,86.6,45.4,88.4,45.4,90.3z"/><path d="M44.9,84.5c-0.3-1.4-0.4-2.8-0.5-4.2c0.5,0.2,0.4,0.8,0.8,1C44.5,82.4,45.1,83.5,44.9,84.5z"/><path d="M18.7,102c0.1,0,0.2,0,0.3,0c0,0.2,0.1,0.5-0.2,0.7c-0.2,0.1-0.3,0-0.4-0.2C18.3,102.2,18.5,102.1,18.7,102 z"/><path d="M14.8,102c-0.4-0.1-0.9-0.2-1.3-0.3c0.5-0.3,1-0.3,1.6,0C15,101.9,14.9,102,14.8,102z"/><path d="M5.9,61.7c-0.3-0.3-0.7-0.5-0.6-1.2C5.9,60.8,5.9,61.3,5.9,61.7L5.9,61.7z"/><path d="M45.7,92.4c-0.3-0.7-0.2-1.4-0.3-2.1C45.8,90.9,45.6,91.7,45.7,92.4z"/><path d="M20.2,102.4c0.1,0.1,0.1,0.1,0.2,0.2c-0.1,0.1-0.1,0.1-0.2,0.2c0,0-0.1-0.1-0.2-0.1 C20.1,102.5,20.2,102.5,20.2,102.4z"/><path d="M5,62.3c0-0.1,0.1-0.2,0.1-0.2c0.2,0,0.3,0.2,0.4,0.4c0,0.1,0,0.2-0.1,0.2C5.2,62.6,5.1,62.5,5,62.3z"/><path d="M5.4,62.8c0.1,0.3-0.1,0.6-0.3,0.8C4.9,63.2,5,62.9,5.4,62.8z"/><path d="M22.9,102.5C22.8,102.6,22.8,102.6,22.9,102.5c-0.1,0.1-0.2,0.1-0.2,0C22.7,102.5,22.7,102.5,22.9,102.5 C22.8,102.4,22.8,102.5,22.9,102.5z"/><path d="M44.4,80.3c-0.3-1.5-0.4-3-0.5-4.5C44.4,77.3,44.5,78.8,44.4,80.3z"/><path d="M43.1,70.6c-0.4-0.9-0.2-1.9-0.3-2.9C43.2,68.7,43.1,69.7,43.1,70.6z"/><path d="M42.3,64.1c-0.4-0.8-0.2-1.6-0.3-2.4C42.4,62.5,42.2,63.3,42.3,64.1z"/><path d="M43.8,75.9c-0.3-0.6-0.2-1.2-0.3-1.8C43.9,74.6,44.1,75.2,43.8,75.9z"/><path d="M41.7,59.6c-0.3-0.7-0.2-1.4-0.3-2.1C41.9,58.2,41.7,58.9,41.7,59.6z"/><path d="M42.8,67.8c-0.3-0.7-0.2-1.4-0.3-2.1C42.9,66.3,42.8,67.1,42.8,67.8z"/><path d="M43.6,74c-0.3-0.6-0.2-1.2-0.3-1.8C43.7,72.8,43.6,73.4,43.6,74z"/><path d="M42,61.5c-0.3-0.6-0.2-1.2-0.3-1.8C42.1,60.2,42,60.9,42,61.5z"/><path d="M42.5,65.7c-0.3-0.5-0.2-1-0.3-1.6C42.7,64.6,42.7,65.1,42.5,65.7z"/><path d="M12.4,101.8c-0.9,0.4-1.7,0.2-2.6,0C10.7,101.4,11.6,101.4,12.4,101.8z"/><path d="M3.8,85.3c0.1-1.2-0.4-2.5,0.3-3.7C4,82.8,4.3,84.1,3.8,85.3z"/><path d="M3.3,93.4C3.4,92,3,90.6,3.5,89.2C3.4,90.6,3.8,92,3.3,93.4z"/><path d="M4.3,78c-0.2-0.9-0.3-1.8,0.3-2.6C4.5,76.2,4.8,77.1,4.3,78z"/><path d="M6.7,101.8c-0.6,1.1-1.4,0.1-2.1,0.3C5.3,101.7,6,101.7,6.7,101.8z"/><path d="M3.5,89c0.1-1.1-0.2-2.3,0.3-3.4C3.7,86.7,4,87.9,3.5,89z"/><path d="M2.5,99.4c-0.7-0.6-0.2-1,0.3-1.3C2.7,98.6,2.8,99,2.5,99.4z"/><path d="M2.8,97.9c-0.2-0.5-0.1-1,0-1.6C3.1,96.8,3.1,97.3,2.8,97.9z"/><path d="M4.1,81.4c0-0.5-0.3-1.1,0.3-1.6C4.3,80.3,4.4,80.9,4.1,81.4z"/><path d="M3,95.5c-0.1-0.6-0.3-1.1,0.3-1.6C3.3,94.5,3.3,95,3,95.5z"/><path d="M9,101.8c-0.3,1-0.7,0.2-1,0C8.3,101.8,8.7,101.8,9,101.8z"/><path d="M2.5,101.5c-0.4-0.2-0.4-0.4-0.3-0.8C2.3,101,2.4,101.3,2.5,101.5z"/><path d="M2.2,98.2c0-0.1,0.1-0.2,0.1-0.3c0,0,0-0.1,0-0.1c0,0.1-0.1,0.1-0.1,0.2c-0.4,0.5-0.4,1.1-0.3,1.6 c0,0,0-0.1,0.1-0.1C2.3,99,2.3,98.6,2.2,98.2z"/><path d="M5.5,63.9c-0.1,0-0.2-0.1-0.2-0.1c0-0.1-0.1-0.1-0.1-0.2c0,0.1,0.1,0.1,0.1,0.2c0,0.2,0,0.5-0.1,0.7 C5.2,64.3,5.3,64.1,5.5,63.9z"/><path d="M4,75.5C4,75.5,4,75.5,4,75.5c-0.3,0.7-0.1,1.3,0.2,1.8C4.2,76.7,3.9,76.1,4,75.5z"/><path d="M4.5,72.1c-0.1,0.9,0,1.8-0.2,2.7C4.6,73.9,4.4,73,4.5,72.1z"/><path d="M2.5,95.3c0.1-0.4,0.4-0.8,0.2-1.3c-0.1-0.3,0-0.6,0-0.9c0.1-1.3,0.1-2.5,0.1-3.8c0-0.1,0-0.3,0.1-0.4 C3,87.8,2.9,86.7,3,85.6c0-0.1,0-0.3,0.1-0.4c0.2-1.1,0.3-2.3,0.3-3.4c0-0.1,0.1-0.3,0.1-0.4c0.1-0.3,0.1-0.7,0.2-1 c-0.6,0.9-0.5,2.1-0.6,3c-0.3,3.7-0.6,7.4-0.9,11.1c-0.1,0.8-0.3,1.6,0.1,2.4c0,0.1,0.1,0.2,0.1,0.3c0-0.3-0.1-0.7-0.1-1 C2.3,95.9,2.4,95.6,2.5,95.3z"/><path d="M8,102.5c-0.4-0.1-0.8-0.2-1.2-0.2c-0.5-0.2-1-0.1-1.6,0c0.1,0,0.2,0,0.3,0c0.9-0.1,2,0.3,2.9,0.2 c0.2,0,0.5,0,0.7-0.1c0,0-0.1,0-0.1,0C8.7,102.4,8.3,102.5,8,102.5z"/><path d="M15.7,101.9c0.1,0.2,0.2,0.3,0.4,0.4c-0.1-0.2-0.1-0.4-0.1-0.5C15.9,101.9,15.8,102,15.7,101.9z"/><path d="M12.2,102.3c-0.8-0.4-1.6-0.2-2.3,0.2c1.3-0.1,2.6-0.1,3.9,0c0.4,0,0.6-0.3,0.7-0.6c-0.3,0.1-0.6,0.4-1,0.5 C13.1,102.4,12.7,102.5,12.2,102.3z"/><path d="M6.1,54.5c0,0.1,0,0.1,0,0.2c0.1-0.7,0.3-1.4,0.5-2.1C6.2,53.2,6.2,53.9,6.1,54.5z"/><path d="M5.1,63.4C5.1,63.4,5.1,63.4,5.1,63.4C5.1,63.4,5.1,63.4,5.1,63.4z"/><path d="M5.9,57.7c0,0.2,0,0.4,0,0.6c0-0.4,0-0.8,0-1.2C5.9,57.3,5.9,57.5,5.9,57.7z"/><path d="M4.6,70.2C4.8,69,4.9,67.8,5,66.6C4.9,67.8,4.8,69,4.6,70.2z"/><path d="M2.4,97.7C2.4,97.6,2.4,97.6,2.4,97.7C2.4,97.6,2.4,97.6,2.4,97.7z"/><path d="M27,46C27.1,46,27.1,46,27,46C27.1,46,27.1,46,27,46C27.1,46,27.1,46,27,46C27,46,27.1,46,27,46 C27.1,46,27.1,46,27,46z"/><path d="M7,49.1c-0.1,0.2-0.2,0.4-0.1,0.6C6.9,49.5,6.9,49.3,7,49.1z"/><path d="M44.5,81.1c0,0.1,0,0.2,0,0.3c0.1,0,0.1-0.1,0.2-0.1c0,0,0,0,0,0C44.7,81.2,44.6,81.2,44.5,81.1z"/><path d="M14.8,45.6c0,0-0.1-0.1-0.1-0.1C14.8,45.5,14.8,45.5,14.8,45.6C14.8,45.6,14.8,45.6,14.8,45.6z"/><path d="M44.8 2.5L44.8 2.5 44.8 2.5z"/><path d="M41.5,6.6c-0.1,0.3-0.2,0.7-0.3,1v0c-0.1,1.4-0.8,2.6-1.3,3.9l0,0c-0.3,0.9-0.9,1-1.7,1 c-2.5-0.1-5.1,0.2-7.6,0.2c-0.8,0-0.5,0.3-0.3,0.7l0,0l0,0c4.1,0.2,8.2,0.7,12.3,0.5c0.8,0,1.6-0.1,2.3-0.3l0,0 c0.6-0.1,1.1-0.3,1.6,0.3c2-0.4,4,0,6,0l0,0c0.5-0.3,1-0.3,1.6,0c0.5,0,1.1,0,1.6-0.3c1,0.1,2.1-0.2,3.1,0.2 c0.6-0.1,1.2-0.2,1.8-0.2c0.5,0,1,0,1.6,0c1.8,0,3.7,0,5.5,0c0.4-0.3,0.9,0,1.3-0.3c1.5,0,3,0.1,4.4,0c1.5-0.1,2.5,0.3,2.9,1.9 c0,0.2,0,0.3,0,0.5c1,4.5,1,9.1,1.3,13.7c0.4,4.6,1,9.2,1.4,13.9c0.5,5.8,1.8,11.5,2.3,17.3c0,0.4,0.2,0.8,0.2,1.2 c0.1,0.3,0.1,0.5,0.2,0.8c0.1,0,0.2,0,0.3,0c0.4-0.1,0.4-0.6,0.4-1c0-0.4,0-0.8-0.1-1.3c0-1.3-0.4-2.5-0.4-3.7 c0-0.1-0.1-0.2-0.1-0.3c0,0-0.1,0-0.1,0l0,0c-0.4-0.8,0.1-1.8-0.3-2.6c0-0.1,0-0.2,0-0.3c-0.3-0.7,0.1-1.4-0.2-2.1 c0-0.2,0-0.3,0-0.5c-0.3-0.8,0.1-1.6-0.2-2.4c0-0.1,0-0.2,0-0.3c-0.3-0.8,0.1-1.8-0.2-2.6c0-0.1,0-0.2,0-0.3 c-0.3-0.7,0.1-1.4-0.3-2.1c0-0.1,0-0.2,0-0.3c-0.3-0.9,0.1-1.9-0.2-2.9c0-0.3,0-0.7,0-1c-0.3-0.9,0.1-1.8-0.2-2.6 c0-0.1,0-0.2,0-0.3c-0.3-0.5,0.1-1.1-0.2-1.6c0-0.1,0-0.2,0-0.3c-0.3-0.9,0.1-1.9-0.3-2.9c-0.6-5.6-1.4-11.1-1.6-16.8 c-0.1-2.4-0.7-3-3.1-2.9c-3.4,0.1-6.8,0.4-10.2,0.3c-1.4,0-2.1-0.5-2.3-1.9c-0.2-1.2-0.6-2.5-0.9-3.7c0-0.4-0.2-0.7-0.5-1 c-2.2-3.2-5.3-4.6-9-5c-1.4-0.2-2.6-0.1-3.8,0.6C47,1.5,45.9,2,44.8,2.5l0,0C43.6,3.8,42.4,5.1,41.5,6.6L41.5,6.6z M42.3,9.2 L42.3,9.2L42.3,9.2c0.1-1.1,0.9-1.8,1.5-2.7l0,0c0.5-0.6,0.8-1.4,1.6-1.8c1.4-1.8,3.2-3,5.5-2.9c2.1,0.1,4.2,0.5,5.9,1.9 C58.1,4,58.5,5.2,59.3,6l0,0c0.1,0.4,0.2,0.7,0.3,1.1c0.3,0.9,0.7,1.8,1,2.7c0.4,1.3,0.1,1.9-1.3,2c-1.6,0.1-3.2,0.1-4.8,0.1 c-4.1,0-8.2-0.1-12.4-0.1C41.6,10.8,41.9,10,42.3,9.2C42.3,9.2,42.3,9.2,42.3,9.2L42.3,9.2z"/><path d="M0.4 102L0.4 102 0.4 102z"/><path d="M48,101.5c0.1,1.7,0,1.9-1.7,1.9c-4.2,0-8.4,0-12.6,0c-2.4,0-4.9-0.5-7.3-0.4c-3.3,0.1-6.6,0-9.9,0.2 c-3.9,0.3-7.7,0.3-11.6,0c-0.6-0.1-1.2-0.1-1.8-0.1c-1.7-0.1-2.6-0.8-2.3-2.5c0.3-2.7,0.4-5.5,0.5-8.2C1.6,86.6,2.6,81,3,75.3 c0.2-3.1,0.7-6.1,1.1-9.2c0.7-5.5,1.1-11,1.8-16.5c0.4-3.2,0.6-3.5,3.9-3.6c1.6,0,3.3,0.1,4.9-0.4c0,0,0-0.1-0.1-0.1 c-2.3,0.1-4.6,0.2-6.9,0.3c-1.7,0.1-2.5,1.1-2.2,2.8c0.1,0.6,0,1.2-0.1,1.8C5.3,51.9,5,53.4,4.9,55c-0.6,6.4-1.2,12.9-2.1,19.3 c-0.5,3.5-0.7,7.1-1.1,10.6c-0.5,4.1-0.9,8.3-1,12.5c0,1.1-0.3,2.1-0.5,3.2c-0.4,0.6-0.1,1.1,0.2,1.5v0l0,0c0,0,0,0,0,0 c0,0.5,0.3,0.8,0.7,1.1c0.8,0.8,1.8,0.1,2.7,0.3c1.5,0.2,3,0.4,4.5,0.4c4,0.2,8.1-0.3,12.1-0.3c2.2,0,4.5-0.4,6.7-0.1 c2.5,0.3,5,0.4,7.5,0.4c4.1,0,8.2,0,12.3,0c0.6,0,1.4-0.4,1.4-0.7c-0.1-1.1,0.5-2.4-0.7-3.2c-0.1,0-0.2,0.1-0.3,0.2 c0.1,0.1,0.1,0.3,0.2,0.4C47.9,100.8,48,101.1,48,101.5z"/><path d="M64.1,11.8c3.6,0.1,7.2-0.2,10.8-0.3c2.3-0.1,3.1,0.2,3.2,3.1c0.1,4.2,0.7,8.4,1.1,12.6 c0.1,1.4,0.2,2.8,0.5,4.1c0.1,0.9,0,1.9,0.1,2.8c0.1,0.1,0.1,0.3,0.1,0.4c0.1,0.5,0,1.1,0.2,1.6c0.1,0.1,0.1,0.2,0.1,0.4 c0.1,0.9-0.2,1.8,0.2,2.7c0.1,0.3,0.1,0.7,0.1,1c0,0.9-0.1,1.8,0.1,2.7c0.1,0.1,0.1,0.3,0.1,0.4c0.1,0.7-0.1,1.4,0.2,2 c0.1,0.1,0.1,0.3,0.1,0.4c0.1,0.8-0.1,1.6,0.1,2.5c0.1,0.1,0.1,0.3,0.1,0.4c0.1,0.7-0.1,1.5,0.1,2.2c0,0.2,0.1,0.4,0.1,0.6 c0.1,0.7-0.1,1.4,0.1,2c0.1,0.1,0.1,0.3,0.1,0.4c0.1,0.8-0.1,1.6,0.1,2.5c0,0,0,0.1,0,0.1c0.1,0,0.1,0,0.2,0c0-0.9-0.1-1.7-0.1-2.6 c-0.4-4.2-0.8-8.5-1.3-12.7c-0.4-3.8-0.7-7.7-1.1-11.5c-0.5-4.9-1.1-9.8-1.3-14.8c-0.1-2.8-0.8-3.4-3.3-3.3 c-3.2,0.1-6.4,0.3-9.6,0.3c-0.8,0-2,0.5-2.5-0.7c-0.4-1-0.5-2-0.7-3c-0.1-0.6-0.2-1.1-0.8-1.4c0.9,1.2,0.8,2.6,1.1,4 C62.8,11.3,63.1,11.7,64.1,11.8z"/><path d="M64.6,12c3.4,0,6.8-0.2,10.2-0.3c2.4-0.1,3,0.5,3.1,2.9c0.2,5.6,1,11.2,1.6,16.8c0.4,0.9-0.1,1.9,0.3,2.9 c0,0.1,0,0.2,0,0.3c0.3,0.5-0.1,1.1,0.2,1.6c0,0.1,0,0.2,0,0.3c0.3,0.8-0.1,1.8,0.2,2.6c0,0.3,0,0.7,0,1c0.3,0.9-0.1,1.9,0.2,2.9 c0,0.1,0,0.2,0,0.3c0.3,0.7-0.1,1.4,0.3,2.1c0,0.1,0,0.2,0,0.3c0.4,0.8-0.1,1.8,0.2,2.6c0,0.1,0,0.2,0,0.3c0.3,0.8-0.1,1.6,0.2,2.4 c0,0.2,0,0.3,0,0.5c0.3,0.7-0.1,1.4,0.2,2.1c0,0.1,0,0.2,0,0.3c0.4,0.8-0.1,1.8,0.3,2.6l0,0c0,0,0.1,0,0.1,0c0,0,0-0.1,0-0.1 c-0.2-0.8,0-1.6-0.1-2.5c0-0.1-0.1-0.3-0.1-0.4c-0.2-0.7-0.1-1.3-0.1-2c0-0.2-0.1-0.4-0.1-0.6c-0.2-0.7,0-1.5-0.1-2.2 c0-0.1-0.1-0.3-0.1-0.4c-0.3-0.8-0.1-1.6-0.1-2.5c0-0.1-0.1-0.3-0.1-0.4c-0.3-0.7-0.1-1.4-0.2-2c0-0.1-0.1-0.3-0.1-0.4 c-0.2-0.9-0.1-1.8-0.1-2.7c0-0.3,0-0.7-0.1-1c-0.4-0.9-0.1-1.8-0.2-2.7c0-0.1-0.1-0.3-0.1-0.4c-0.2-0.5,0-1.1-0.2-1.6 c0-0.1-0.1-0.3-0.1-0.4c-0.2-0.9,0-1.9-0.1-2.8c-0.3-1.4-0.4-2.8-0.5-4.1c-0.3-4.2-1-8.4-1.1-12.6c-0.1-2.9-0.9-3.1-3.2-3.1 c-3.6,0.1-7.2,0.4-10.8,0.3c-0.9,0-1.3-0.4-1.6-1.3c-0.4-1.3-0.2-2.8-1.1-4c0.3,1.2,0.7,2.4,0.9,3.7C62.5,11.5,63.2,12,64.6,12z"/><path d="M23.1,13.6L23.1,13.6c1-0.2,1.9-1.3,2.9,0c1.3-0.2,2.5,0,3.8-0.2c-0.2-0.2-0.3-0.4-0.2-0.7 c0.1-0.6,0.6-0.4,1.1-0.4c2.7,0.1,5.3-0.6,8-0.1c0.4,0.1,0.7-0.2,1-0.5c0,0,0-0.1,0-0.1c-0.1,0-0.2,0.1-0.3,0.1v0l0,0 c-0.6,0.4-1.2,0.1-1.8,0.1c-4.3,0.2-8.6,0.3-13,0.5c-0.6,0-1.1,0.1-1.5,0.7C23.1,13.2,23.1,13.4,23.1,13.6L23.1,13.6z"/><path d="M30.2,13.3c-0.2-0.4-0.5-0.7,0.3-0.7c2.5,0,5.1-0.3,7.6-0.2c0.8,0,1.5-0.1,1.7-1c-0.1,0-0.2,0.1-0.3,0.1 c0,0,0,0.1,0,0.1c-0.2,0.4-0.6,0.6-1,0.5c-2.7-0.5-5.3,0.2-8,0.1c-0.4,0-1-0.2-1.1,0.4c0,0.3,0.1,0.5,0.2,0.7 C30,13.4,30.1,13.3,30.2,13.3L30.2,13.3z"/><path d="M14.8,45.6c0.2-0.4,0.6-0.7,0.7-1.1c0.8-2.5,2.4-4.3,4.4-5.8c0.6-0.4,0.8-0.9,0.8-1.6 c0-1.3,0.4-2.6,0.7-3.8l0,0c0-0.3,0.1-0.6,0.1-0.9c0-0.1,0-0.2,0-0.3c0.2-2,0.5-4,0.7-6c0.4-3.3,0.2-6.6,0.5-9.9 c0.1-0.7,0.2-1.4,0.2-2.1c0-0.1,0-0.3,0-0.4c0,0-0.1-0.1-0.1-0.1c-0.1-0.2,0-0.4,0.1-0.6c-0.4,0.1-0.5,0.4-0.5,0.7 c-0.1,1.4-0.1,2.9-0.2,4.3c-0.1,2.3-0.1,4.5-0.2,6.8c-0.2,4.3-1.5,8.5-1.8,12.8c0,0.4-0.3,0.5-0.5,0.7c-0.9,0.8-1.8,1.4-2.6,2.3 c-1.3,1.4-1.8,3.2-2.6,4.9C14.8,45.5,14.8,45.5,14.8,45.6L14.8,45.6z"/><path d="M23,13.5c0,0.1,0.1,0.1,0.1,0.1c0,0,0-0.1,0-0.1l0,0c0-0.2,0-0.4,0-0.6C23,13.2,23,13.3,23,13.5z"/><path d="M53.1,0.4c2,0.4,4,1.1,5.7,2.4c0.9,0.7,1.6,1.7,2.2,2.7c0-0.4-0.1-0.7-0.4-1.1c-2-2.6-4.7-3.6-7.8-4.2 c-3.2-0.6-5.6,0.6-7.9,2.4c0.7-0.4,1.5-0.8,2.3-1.3C49,0,51-0.1,53.1,0.4z"/><path d="M44.8 2.5L44.8 2.5 44.8 2.5z"/><path d="M51.9,0.4c3.7,0.5,6.8,1.9,9,5c-0.6-1-1.2-2-2.2-2.7c-1.7-1.3-3.6-2-5.7-2.4C51-0.1,49,0,47.1,1.3 c-0.7,0.5-1.5,0.8-2.3,1.3l0,0l0,0C45.9,2,47,1.5,48.1,1C49.3,0.3,50.6,0.2,51.9,0.4z"/><path d="M44.9,2.5c-1.6,0.7-2.7,2-3.4,3.6c0,0.1,0,0.1,0,0.2C42.3,4.8,43.4,3.5,44.9,2.5z"/><path d="M41.5,6.3c0,0.1,0,0.1,0,0.2l0,0l0,0c0.9-1.5,2.1-2.8,3.3-4C43.4,3.5,42.3,4.8,41.5,6.3z"/><path d="M39.7,11.4C39.7,11.4,39.8,11.4,39.7,11.4c0.1-0.7,0.3-1.2,0.5-1.8c0.1-0.3,0.2-0.5,0.3-0.8 C40.7,8.4,40.9,8,41,7.5c0.1-0.4,0.3-0.7,0.4-1c0,0,0,0,0,0c-0.1-0.1,0-0.2,0-0.3c-1.1,1.7-1.7,3.6-2.1,5.6 C39.5,11.6,39.6,11.5,39.7,11.4z"/><path d="M39.9,11.5L39.9,11.5c0-0.6,0.1-1.2,0.3-1.8c-0.2,0.5-0.4,1.1-0.5,1.7c0,0,0,0.1,0,0.1 C39.8,11.4,39.8,11.4,39.9,11.5z"/><path d="M41.2,7.6L41.2,7.6c0.1-0.3,0.2-0.7,0.3-1c0,0-0.1-0.1-0.1-0.1c0,0,0,0,0,0c-0.1,0.4-0.3,0.7-0.4,1 c-0.1,0.5-0.3,0.9-0.4,1.3C40.7,8.4,41,8,41.2,7.6L41.2,7.6z"/><path d="M39.7,11.6c0-0.1,0-0.1,0.1-0.2c-0.2,0-0.2,0.2-0.4,0.3v0C39.5,11.7,39.6,11.6,39.7,11.6z"/><path d="M39.7,11.4c0,0.1,0,0.1-0.1,0.2c0.1,0,0.2-0.1,0.3-0.1C39.8,11.4,39.8,11.4,39.7,11.4z"/><path d="M41.4,6.5c0,0,0-0.1,0.1-0.1c0-0.1,0-0.1,0-0.2C41.4,6.3,41.4,6.4,41.4,6.5z"/><path d="M41.5,6.6c0-0.1,0-0.1,0-0.2c0,0,0,0.1-0.1,0.1C41.4,6.5,41.5,6.5,41.5,6.6L41.5,6.6z"/><path d="M42.3 9.2L42.3 9.2 42.3 9.2z"/><path d="M44.8,81.3C44.8,81.3,44.8,81.3,44.8,81.3C44.8,81.3,44.8,81.3,44.8,81.3C44.8,81.3,44.8,81.3,44.8,81.3z"/><path d="M81.2,61.9c-0.6-1.7-0.5-3.5-0.8-5.3c-1.1-5.8-1.8-11.7-2.3-17.6c-0.4-4.8-1-9.5-1.2-14.3 c-0.1-2.9-0.4-5.8-1-8.7c0-0.3,0-0.6-0.2-0.9c-0.9-1.1-2-1.6-3.4-1.5c-1.1,0.1-2.2,0-3.2,0c-0.6,0-1.2,0.2-1.8,0.2 c-1.7,0-3.4,0-5,0c-0.5,0-1.1,0-1.6,0.1c-0.6,0.1-1.3,0.2-2,0.2c-1-0.2-2-0.3-3-0.1c-0.5,0.1-1.1,0.1-1.6,0.1 c-0.6-0.1-1.2-0.1-1.8,0c-1.9,0-3.8-0.1-5.7,0c-0.7-0.1-1.4-0.3-2.2-0.1c-4,0-8.1,0.4-12.1-0.3c-0.6-0.1-1.3-0.1-1.9-0.1 c-0.2,0-0.3-0.1-0.5-0.2c-0.6,0.5-1.5,0.4-2.3,0.4c-0.5,0-1,0-1.5,0c-0.3-0.1-0.6-0.2-0.9-0.3c-0.5,0.2-0.7,0.6-0.8,1.2 c-0.3,1.5-0.6,3-0.6,4.5l0,0c0,0.4,0,0.9,0,1.3c-0.5,3.7-0.6,7.5-0.5,11.3l0,0l0,0c0,0.6,0.1,1.3-0.3,1.8c-0.2,0.6-0.1,1.2,0,1.8 c0.3,0.5,0.2,1,0.3,1.6c0.7,0.5,1.5,0.5,2.4,0.6c2.7,0.3,4.6,1.7,5.8,4.1l0,0c0.8,0.7,1.3,1.6,1.6,2.6c0.2,0.3,0.2,0.6,0.5,0.8 c2.1-0.1,4.2,0.1,6.3-0.2c1.2-0.2,1.7,0.4,2,1.7c1.3,6.4,1.3,12.9,1.9,19.3c0.4,4.1,0.9,8.1,1.3,12.2c0.1,1,0.3,2.1,0.1,3.1 c0.7,2.4,0.5,4.9,0.8,7.4c0.1,1,0.2,2.1,0.3,3.1c0.1,0.6,0.4,1,1,0.9c3.1-0.5,6.1,0.2,9.1,0.2c6.6-0.1,13.1-0.7,19.7-1 c1.1-0.1,2.2,0,3.3,0.1c1.6,0.2,3.3,0.4,4.8-0.7c-0.1-0.1-0.2-0.2-0.3-0.3c-1.1-0.6-2.3,0-3.5-0.2c-3.4-0.6-6.9,0-10.3,0.2 c-4,0.2-8.1,0.5-12.1,0.7c-2.8,0.1-5.5-0.3-8.2-0.3c-2,0-2.3-0.3-2.5-2.3c-0.5-5.7-1-11.4-1.6-17c-0.6-5.6-1.1-11.3-1.5-16.9 c-0.2-2.9-0.7-5.8-1.2-8.7c-0.4-2.1-1.3-2.8-3.5-2.6c-0.9,0.1-1.7,0.2-2.6,0.2c-1.8,0.1-2.9-0.5-3.8-2.1c-1.6-2.8-3.6-5.1-7.2-5.5 c-1.3-0.1-1.7-0.9-1.6-2.6c0.2-4.7,0.3-9.5,0.7-14.2c0.1-1.2,0.2-2.3,0.5-3.5c0.2-0.8,0.7-1.4,1.5-1.4c1.9,0,3.8-0.4,5.7-0.2 c2.5,0.4,5.1,0.5,7.7,0.5c2.7-0.1,5.3-0.3,8-0.2c4.1,0.2,8.3-0.1,12.4-0.1c3.9,0,7.8-0.2,11.8-0.3c1.7,0,2.1,0.4,2.6,2 c0.5,1.9,0.6,3.9,0.8,5.8c0.4,4.7,0.7,9.4,1.2,14.1c0.5,5.8,1.2,11.5,2,17.3c0.5,2.9,0.8,5.9,1.1,8.8c0.6,6,1.4,12,2,18.1 c0.3,3.2,1.2,6.4,1.2,9.7c0,0.5,0.3,0.8,0.6,1.1c1.3-1.3,0.6-2.8,0.4-4.2c-0.8-3.9-1.1-7.8-1.4-11.8c0.3-0.4,0.1-0.9,0.2-1.4 c0-0.1,0-0.2,0-0.3c0-0.1,0-0.3-0.1-0.4C83,72.7,83,72.2,83,71.6c0-0.2,0-0.4,0-0.6c-0.2-0.8-0.2-1.6-0.2-2.4c0-0.2,0-0.4-0.1-0.6 c-0.3-1.2-0.4-2.5-0.5-3.8c0-0.1,0-0.3,0-0.4c-0.1-0.4-0.3-0.8-0.4-1.2C81.5,62.5,81.4,62.1,81.2,61.9z"/><path d="M81.3,60.6c-0.5-5.8-1.8-11.5-2.3-17.3c-0.4-4.6-1-9.2-1.4-13.9c-0.3-4.6-0.4-9.2-1.3-13.7 c0-0.2,0-0.3,0-0.5c-0.4-1.6-1.4-2-2.9-1.9c-1.5,0.1-2.9,0-4.4,0c-0.4,0.3-0.9-0.1-1.3,0.3c-1.8,0-3.7,0-5.5,0 c-0.5,0.3-1,0.3-1.6,0c-0.6,0.1-1.2,0.2-1.8,0.2c-1-0.1-2.1,0.2-3.1-0.2c-0.5,0.2-1,0.3-1.6,0.3c-0.5,0-1,0-1.6,0l0,0l0,0 c-2,0-4-0.4-6,0c-0.5,0-1.1,0.1-1.6-0.3h0l0,0c-0.8,0.2-1.5,0.2-2.3,0.3c-4.1,0.2-8.2-0.3-12.3-0.5l0,0c-0.1,0.1-0.1,0.1-0.2,0.2 c0.1,0.1,0.3,0.1,0.5,0.2c0.6,0,1.3,0,1.9,0.1c4,0.7,8,0.4,12.1,0.3c0.7-0.2,1.4,0,2.2,0.1c1.9-0.1,3.8,0,5.7,0 c0.6-0.1,1.2-0.1,1.8,0c0.6,0,1.1,0,1.6-0.1c1-0.2,2-0.1,3,0.1c0.7,0.1,1.3-0.1,2-0.2c0.5-0.1,1-0.1,1.6-0.1c1.7,0,3.4,0,5,0 c0.6,0,1.2-0.3,1.8-0.2c1.1,0,2.2,0.1,3.2,0c1.4-0.1,2.5,0.4,3.4,1.5c0.1,0.3,0.2,0.6,0.2,0.9c0.6,2.9,0.9,5.8,1,8.7 c0.1,4.8,0.8,9.5,1.2,14.3c0.5,5.9,1.2,11.8,2.3,17.6c0.3,1.7,0.3,3.6,0.8,5.3c0.2,0.2,0.3,0.6,0.5,0.6c-0.1-0.3-0.1-0.5-0.2-0.8 C81.5,61.4,81.3,61,81.3,60.6z"/><path d="M25.4,13.7c0.3,0.1,0.6,0.2,0.9,0.3c0.5,0,1,0,1.5,0c0.8,0,1.6,0.1,2.3-0.4c-0.1,0-0.1-0.1-0.2-0.1 c-1.3,0.2-2.6-0.1-3.8,0.2l0,0C25.8,13.6,25.6,13.6,25.4,13.7z"/><path d="M30.2,13.3c-0.1,0-0.3,0.1-0.4,0.1c0.1,0,0.1,0.1,0.2,0.1C30.1,13.5,30.2,13.4,30.2,13.3z"/><path d="M51.8,2c1.8,0.3,3.5,0.8,5.1,1.7c0,0,0,0,0,0l0,0l0,0l0,0l0,0c-1.7-1.4-3.8-1.8-5.9-1.9 c-2.3-0.1-4.1,1.1-5.5,2.9c0,0,0,0,0,0C47.3,3,49.2,1.6,51.8,2z"/><path d="M45.5 4.7L45.5 4.7 45.5 4.7z"/><path d="M45.5,4.7L45.5,4.7L45.5,4.7C45.5,4.7,45.5,4.7,45.5,4.7c0.4-0.1,0.7-0.5,1-0.7c2-1.6,4.1-2.5,6.6-1.6 c1.3,0.4,2.5,0.9,3.8,1.3c0,0,0,0,0,0c-1.6-0.9-3.3-1.5-5.1-1.7C49.2,1.6,47.3,3,45.5,4.7C45.5,4.7,45.5,4.7,45.5,4.7L45.5,4.7z"/><path d="M56.9 3.7L56.9 3.7 56.9 3.7z"/><path d="M41.2,7.6c-0.5,1.3-1.1,2.6-1.3,3.9C40.4,10.2,41.1,9,41.2,7.6z"/><path d="M40.2,9.6c0.1-0.3,0.2-0.5,0.3-0.8C40.4,9.1,40.3,9.4,40.2,9.6z"/><path d="M41.2,7.6L41.2,7.6C41,8,40.7,8.4,40.5,8.8c-0.1,0.3-0.2,0.5-0.3,0.8c-0.2,0.6-0.3,1.2-0.3,1.8 C40.2,10.1,40.8,8.9,41.2,7.6z"/><path d="M59.1,5.9C59.1,5.9,59.1,6,59.1,5.9C59.2,6,59.2,6,59.3,6c-0.7-0.8-1.2-2-2.4-2.3c0,0,0,0,0,0 C57.9,4.2,58.3,5.3,59.1,5.9z"/><path d="M56.9,3.7C57.6,4.5,58.3,5.2,59,6l0,0c0,0,0.1,0,0.1,0c0,0,0-0.1,0-0.1C58.3,5.3,57.9,4.2,56.9,3.7 C56.9,3.7,56.9,3.7,56.9,3.7C56.9,3.7,56.9,3.7,56.9,3.7z"/><path d="M56.9 3.7L56.9 3.7 56.9 3.7z"/><path d="M56.9 3.7L56.9 3.7 56.9 3.7z"/><path d="M56.9,3.7C56.9,3.7,56.9,3.7,56.9,3.7L56.9,3.7L56.9,3.7C56.9,3.7,56.9,3.7,56.9,3.7z"/><path d="M43.8,6.5L43.8,6.5L43.8,6.5c-0.6,0.8-1.4,1.6-1.5,2.7l0,0c0.4-1,1.1-1.8,1.7-2.7 C43.9,6.5,43.9,6.5,43.8,6.5z"/><path d="M42.3,9.1L42.3,9.1C42.3,9.2,42.3,9.2,42.3,9.1C42.3,9.2,42.3,9.2,42.3,9.1z"/><path d="M42.3,9.2c0.6-0.9,1.2-1.8,1.8-2.6c-0.1,0-0.1,0-0.2,0C43.5,7.4,42.7,8.2,42.3,9.2L42.3,9.2L42.3,9.2 C42.3,9.1,42.3,9.2,42.3,9.2z"/><path d="M42.3,9.2C42.3,9.2,42.3,9.2,42.3,9.2c-0.5,0.8-0.7,1.7-0.2,2.6C41.9,10.8,42.1,10,42.3,9.2z"/><path d="M42.3,9.2c-0.2,0.8-0.4,1.7-0.2,2.6C42.2,10.9,42.3,10,42.3,9.2C42.3,9.2,42.3,9.2,42.3,9.2z"/><path d="M42.3,9.1C42.3,9.2,42.3,9.2,42.3,9.1C42.3,9.2,42.3,9.2,42.3,9.1C42.3,9.2,42.3,9.1,42.3,9.1z"/><path d="M42.3 9.2L42.3 9.1 42.3 9.2z"/><path d="M44.1,6.4c0.5-0.6,0.8-1.2,1.4-1.7c0,0,0,0,0,0l0,0l0,0l0,0c0,0,0,0,0,0c-0.8,0.3-1.1,1.1-1.6,1.8 C43.9,6.4,44,6.4,44.1,6.4z"/><path d="M45.4 4.7L45.4 4.7 45.4 4.7z"/><path d="M45.5,4.7c-0.6,0.5-0.9,1.2-1.4,1.7c0,0,0.1,0,0.1,0.1C44.7,6,45.2,5.5,45.5,4.7 C45.5,4.7,45.5,4.7,45.5,4.7z"/><path d="M45.5,4.7L45.5,4.7C45.4,4.7,45.5,4.7,45.5,4.7C45.5,4.7,45.5,4.7,45.5,4.7L45.5,4.7z"/><path d="M45.4,4.7C45.5,4.7,45.5,4.7,45.4,4.7C45.5,4.7,45.5,4.7,45.4,4.7C45.5,4.7,45.5,4.7,45.4,4.7L45.4,4.7z"/><path d="M45.5,4.7C45.5,4.7,45.5,4.7,45.5,4.7C45.5,4.7,45.5,4.7,45.5,4.7C45.5,4.7,45.5,4.7,45.5,4.7z"/><path d="M45.5,4.7C45.5,4.7,45.5,4.7,45.5,4.7C45.5,4.7,45.5,4.7,45.5,4.7L45.5,4.7L45.5,4.7L45.5,4.7z"/><path d="M44,6.5C44,6.5,44,6.5,44,6.5C44,6.5,44,6.4,44,6.5c0-0.1-0.1-0.1-0.2,0l0,0C43.9,6.5,43.9,6.5,44,6.5z"/><path d="M44.1,6.4C44,6.4,44,6.5,44.1,6.4C44,6.5,44,6.5,44.1,6.4c0,0.1,0.1,0.1,0.1,0.1 C44.1,6.5,44.1,6.5,44.1,6.4z"/><path d="M58.8,13.8c-1-0.5-2.1-0.2-3.1-0.2C56.6,13.9,57.7,13.5,58.8,13.8z"/><path d="M58.8,13.8c-1-0.3-2.1,0.1-3.1-0.2C56.6,14,57.7,13.7,58.8,13.8z"/><path d="M46.5,13.8c-0.4-0.5-1-0.3-1.6-0.3C45.4,13.8,46,13.5,46.5,13.8z"/><path d="M46.5,13.8c-0.5-0.3-1.1,0-1.6-0.3h0C45.4,13.9,45.9,13.8,46.5,13.8z"/><path d="M54.1,13.8c-0.5-0.3-1-0.3-1.6,0C53,13.6,53.5,13.6,54.1,13.8z"/><path d="M54.1,13.8c-0.5-0.2-1-0.2-1.6,0l0,0C53,13.8,53.5,13.8,54.1,13.8z"/><path d="M59.2,6.1c0.1,0.3,0.2,0.7,0.4,1c-0.1-0.4-0.2-0.7-0.3-1.1l0,0l0,0C59.2,6.1,59.2,6.1,59.2,6.1z"/><path d="M59,6L59,6c0.1,0.4,0.1,0.8,0.6,1c-0.2-0.3-0.3-0.6-0.4-1C59.1,6.1,59,6.1,59,6z"/><path d="M59.2,6.1c0,0,0.1,0,0.1-0.1l0,0c-0.1,0-0.1,0-0.2,0C59.1,6,59.1,6.1,59.2,6.1z"/><path d="M59.2,6.1c0,0,0-0.1,0-0.1c0,0-0.1,0-0.1,0C59,6.1,59.1,6.1,59.2,6.1z"/><path d="M62.2,13.6c-0.5,0-1,0-1.6,0C61.1,13.8,61.6,13.8,62.2,13.6z"/><path d="M62.2,13.6c-0.5,0.2-1,0.2-1.6,0C61.1,13.9,61.6,13.9,62.2,13.6z"/><path d="M5.1,63.4c0,0,0,0.1,0.1,0.1C5.1,63.5,5.1,63.5,5.1,63.4C5.1,63.5,5.1,63.4,5.1,63.4z"/><path d="M22.2,33c0,0-0.1,0-0.1,0c-0.2,1.1-0.5,2.2-0.7,3.3c0.1-0.2,0.2-0.3,0.3-0.5C22.3,35,22,34,22.2,33z"/><path d="M21.4,37c0-0.1-0.1-0.1-0.1-0.2c0,0.2,0,0.5-0.1,0.7c0,0.5-0.2,0.9-0.5,1.3C21.5,38.5,22.1,38.1,21.4,37z"/><path d="M86.2,89.5c-0.3-0.4-0.4-0.8-0.5-1.3c-0.3-2.1-0.5-4.2-0.8-6.3c-0.4-2.8-0.9-5.6-1.3-8.4 c-0.2,0.1-0.3,0.3-0.4,0.5c0.1,0.4,0.2,0.8,0.2,1.2c0,0.1,0,0.3,0,0.4c0.5,3.5,0.8,7,1.4,10.4c0.2,1.1,0.2,2.3,0.5,3.4 c0.2,0.8,0.1,1.8-1.2,1.9c0,0-0.1-0.1-0.1-0.1c0,0,0,0,0,0l0,0c0,0,0,0,0,0c0,0,0,0.1,0.1,0.1c0,0.8-0.6,0.9-1.2,1 c-0.7,0.1-1.4,0.1-2.2,0.1c-6.2,0-12.4,0.3-18.6,0.6c-3,0.2-6,0.2-8.9,0.2c-2,0-4,0-5.9,0.1c-1.1,0.1-1.5-0.6-1.6-1.5 c-0.1-2.4-0.7-4.7-0.6-7.2c0.1-1-0.3-2-0.4-3c0-0.2,0-0.3,0-0.5c-0.1,0-0.2,0.1-0.2,0.1c0.1,1,0.2,2.1,0.3,3.1c0,0.1,0,0.2,0,0.3 c0.4,1.8,0.3,3.7,0.5,5.5c0.4,0.7-0.1,1.4,0.3,2.1c0,0.3,0,0.5,0,0.8h0c0.1,1.8,0.6,3.5,0.5,5.3c0,3-0.4,2.9-3.2,3 c-4.5,0.2-9,0.3-13.5,0.6c-3.5,0.2-7,0.1-10.6,0.1c-0.1,0.1-0.2,0.1-0.3,0c-0.8-0.4-1.7-0.2-2.6-0.3c0,0-0.1,0.1-0.1,0.1 c0,0.2,0.1,0.3,0.1,0.5c-0.2-0.1-0.3-0.3-0.4-0.4c-0.1,0-0.2-0.1-0.4-0.2c-0.1,0-0.2,0-0.3,0c-0.2,0-0.4,0-0.5,0.1 c-0.2,0.3-0.3,0.7-0.7,0.6c-1.3-0.1-2.6-0.1-3.9,0c0,0,0,0,0,0c-0.2,0-0.5,0-0.7,0c-0.2,0-0.5,0-0.7,0.1c-0.9,0.1-1.9-0.3-2.9-0.2 c-0.1,0-0.2,0-0.3,0c-0.2,0-0.5,0.1-0.7,0.1c-0.2-0.1-0.3-0.2-0.5-0.3c-0.4-0.1-0.9-0.2-1.3-0.3c-0.2,0.1-0.4,0-0.5-0.2 C2.1,101.3,2,101,2,100.7c0.2-0.4-0.2-0.8,0-1.2c-0.1-0.5-0.1-1.1,0.3-1.6c0-0.1,0.1-0.1,0.1-0.2c0,0,0,0,0,0c0,0,0,0,0,0 c0-0.1,0-0.2,0-0.3c0-0.1,0-0.2-0.1-0.3c-0.4-0.8-0.2-1.6-0.1-2.4c0.3-3.7,0.6-7.4,0.9-11.1c0.1-1,0.1-2.1,0.6-3 C3.8,80.2,3.9,80,4,79.8c0.1-0.2,0.2-0.3,0.4-0.5c0-0.3,0-0.7,0-1c-0.1-0.1-0.2-0.2-0.2-0.4c0-0.2,0-0.3,0-0.5 c-0.3-0.6-0.5-1.2-0.2-1.8c0,0,0,0,0,0c0-0.1,0-0.2,0-0.3c0.1-0.1,0.1-0.3,0.2-0.4c0.2-0.9,0.1-1.8,0.2-2.7c0-0.2,0-0.4,0-0.6 c0.1-0.4,0.1-0.8,0.2-1.3C4.8,69,4.9,67.8,5,66.6C5,66.2,5,65.7,5,65.3c0-0.2,0-0.5,0.1-0.8c0-0.2,0-0.5,0.1-0.7 c0-0.1-0.1-0.1-0.1-0.2c0,0,0-0.1-0.1-0.1c0,0,0,0,0,0c0,0,0,0,0,0c0,0,0,0,0,0c0,0,0,0.1,0,0.1c0,0.1,0.1,0.1,0.1,0.2 c0.1,0.1,0.1,0.1,0.2,0.1c0,0,0.1-0.1,0.1-0.1c0.4-0.7,0.2-1.4,0.3-2.1v0c0.4-0.7,0.2-1.6,0.3-2.4c-0.1-0.1-0.3-0.2-0.3-0.3 c0-0.3,0-0.6,0-0.9c0-0.2-0.1-0.4,0-0.6c0-0.2,0-0.4,0.1-0.6c0-0.8,0.1-1.6,0.2-2.4c0-0.1,0-0.1,0-0.2c0-0.6,0.1-1.3,0.5-1.9 c0.1-0.3,0.2-0.5,0.3-0.8c0.2-0.3,0.3-0.7,0.3-1c-0.1-0.3-0.2-0.7-0.3-1c-0.1-0.3-0.1-0.5,0.1-0.6c0.1-0.3,0.3-0.5,0.7-0.7 c0.4-1,1.2-1.4,2.3-1.3c0.6,0,1.1,0.1,1.6-0.3c-0.4-0.1-0.8-0.1-1.6-0.2c0.1-0.1,0.2-0.1,0.3-0.1c-1,0.1-1.9,0.2-2.9,0.5 c-0.9,0.3-1.3,0.8-1.1,1.7c0.2,0.9,0,1.9-0.3,2.8C6.1,51.7,6,51.9,6,52.1c0,4.4-1.1,8.7-1.1,13.1c0,2.6-0.7,5.1-1,7.7 c-0.5,3.3-0.7,6.7-1.1,10C2,88.1,1.7,93.4,1.4,98.6c0,0.3,0,0.6-0.1,0.9c-0.6,1.8,0.9,3,2.3,3c2.9,0.1,5.8,0.5,8.7,0.4 c4.5-0.2,9-0.3,13.5-0.5c1.8-0.1,3.5,0.2,5.3,0.2c4.6,0,9.2,0,13.9,0c2.2,0,2.3-0.2,2.6-2.3c0-0.1,0.1-0.2,0.2-0.3 c-0.8-1.5-0.6-3.3-0.8-4.9c-0.1-0.8,0.7-0.9,1.3-1c2.4-0.5,4.8-0.3,7.2-0.5c0.7-0.1,1.5-0.2,2.2-0.2c5.1,0.3,10.1-0.5,15.2-0.3 c3.8,0.1,7.6-0.5,11.5-0.2c0.8,0,1.8,0.2,2.1-0.7C86.6,91.4,87,90.4,86.2,89.5z"/><path d="M18.7,40.5c-0.4,0.4-0.8,0.9-1.1,1.3c0.1-0.1,0.2-0.1,0.4-0.2C18.4,41.5,18.5,41,18.7,40.5z"/><path d="M12.2,46.6L12.2,46.6c1.4,0.4,2.8,0.4,4.2,0c-0.7,0-1.4,0-2.1,0c1.3-0.4,1.9-1.1,2-2.5 c-0.1,0.2-0.2,0.4-0.3,0.5c-0.3,0.5-0.4,1.1-1.2,0.9l0,0c0,0,0,0,0,0c0,0,0,0,0,0.1c-0.3,0.9-1,0.7-1.7,0.8c-0.4,0-0.9,0-1.3,0 C12,46.5,12.1,46.5,12.2,46.6L12.2,46.6z"/><path d="M44.8,102.7c-4.6,0-9.2,0-13.9,0c-1.8,0-3.5-0.3-5.3-0.2c-4.5,0.2-9,0.3-13.5,0.5c-2.9,0.1-5.8-0.3-8.7-0.4 c-1.4,0-2.8-1.2-2.3-3c0.1-0.3,0.1-0.6,0.1-0.9C1.7,93.4,2,88.1,2.7,82.9c0.5-3.3,0.6-6.7,1.1-10c0.4-2.6,1-5.1,1-7.7 c0-4.4,1.1-8.7,1.1-13.1c0-0.2,0.1-0.4,0.1-0.6c0.3-0.9,0.5-1.9,0.3-2.8c-0.2-1,0.2-1.4,1.1-1.7c0.9-0.3,1.9-0.4,2.9-0.5 c0.6-0.2,1-0.2,1.4-0.1c0.4,0,0.9,0,1.3,0c0.7,0,1.4,0.2,1.7-0.8c0,0,0,0,0-0.1c-1.6,0.6-3.2,0.4-4.9,0.4c-3.4,0.1-3.5,0.3-3.9,3.6 c-0.8,5.5-1.2,11-1.8,16.5c-0.4,3.1-0.9,6.1-1.1,9.2c-0.4,5.7-1.4,11.3-1.8,17c-0.2,2.7-0.2,5.5-0.5,8.2c-0.2,1.7,0.6,2.4,2.3,2.5 c0.6,0,1.2,0.1,1.8,0.1c3.9,0.3,7.7,0.3,11.6,0c3.3-0.2,6.6-0.2,9.9-0.2c2.4,0,4.8,0.5,7.3,0.4c4.2-0.1,8.4,0,12.6,0 c1.7,0,1.9-0.2,1.7-1.9c0-0.3-0.2-0.7-0.2-1c-0.1-0.1-0.2-0.3-0.2-0.4c-0.1,0.1-0.1,0.2-0.2,0.3C47.2,102.5,47,102.7,44.8,102.7z"/><path d="M16,44.6c0.1-0.2,0.2-0.4,0.3-0.5c0,0,0-0.1,0-0.1c0.1-0.8,0.5-1.6,1.3-2.1c0.3-0.5,0.7-0.9,1.1-1.3 c0.1-0.3,0.3-0.6,0.7-0.8c0.4-0.2,0.7-0.6,1.2-0.8c0.1,0,0.1-0.1,0.2-0.1c0.3-0.3,0.5-0.7,0.5-1.3c0-0.2,0-0.5,0.1-0.7 c-0.1-0.2,0-0.4,0.1-0.6c0.2-1.1,0.5-2.2,0.7-3.3c-0.1,0-0.1,0-0.2-0.1c-0.1,0.1-0.2,0.2-0.3,0.3l0,0l0,0c-0.3,1.3-0.7,2.5-0.7,3.8 c0,0.7-0.3,1.2-0.8,1.6c-2,1.5-3.6,3.3-4.4,5.8c-0.1,0.4-0.5,0.7-0.7,1.1l0,0l0,0C15.6,45.7,15.7,45.1,16,44.6z"/><path d="M83.1,75.3c0.3,3.9,0.7,7.9,1.4,11.8c0.3,1.3,0.9,2.9-0.4,4.2c0,0,0.1,0.1,0.1,0.1c1.2-0.1,1.3-1.1,1.2-1.9 c-0.2-1.1-0.3-2.3-0.5-3.4c-0.7-3.4-0.9-6.9-1.4-10.4c0-0.1,0-0.3,0-0.4c0-0.4-0.2-0.8-0.2-1.2C83.2,74.4,83.4,75,83.1,75.3z"/><path d="M79.4,92c-1.1-0.1-2.2-0.2-3.3-0.1c-6.6,0.3-13.1,0.9-19.7,1c-3,0-6.1-0.6-9.1-0.2c-0.6,0.1-1-0.3-1-0.9 c-0.1-1-0.2-2.1-0.3-3.1c-0.3-2.5-0.1-5-0.8-7.4c-0.1,0-0.2-0.1-0.3-0.1c0,0,0,0-0.1,0c0,0.2,0,0.3,0,0.5c0.1,1,0.5,1.9,0.4,3 c-0.1,2.4,0.4,4.8,0.6,7.2c0.1,0.9,0.5,1.6,1.6,1.5c2-0.1,3.9-0.1,5.9-0.1c3,0,6,0,8.9-0.2c6.2-0.4,12.4-0.7,18.6-0.6 c0.7,0,1.4,0,2.2-0.1c0.6-0.1,1.2-0.2,1.2-1c0,0,0-0.1-0.1-0.1C82.7,92.4,81,92.2,79.4,92z"/><path d="M24.5,13.6c-0.2,0-0.3,0.1-0.5,0.2c-0.1,0.1-0.4,0.1-0.6,0c0.2,0.2,0.3,0.4,0.4,0.6c0,0.4,0,0.8,0,1.1 c0-0.3,0.1-0.6,0.2-0.9C24.1,14.2,24.3,13.8,24.5,13.6z"/><path d="M26.8,40c0.1,0.1,0.2,0.1,0.2,0.1C27,40.1,26.9,40.1,26.8,40C26.8,40,26.8,40,26.8,40z"/><path d="M22.6,33.1c0,0.2,0,0.4,0,0.5c0-0.1,0-0.1,0-0.2c0.2-0.6-0.1-1.2,0.1-1.7c0.4-1.4,0.1-2.9,0.2-4.4 c0.1-1.9,0.4-3.9,0.5-5.8c0-0.3,0-0.6-0.1-0.9c0-0.4,0.1-0.9,0.1-1.3c0.1-0.8,0.1-1.6,0.1-2.5c-0.2,1.2-0.5,2.5-0.5,3.7 c-0.1,2.6,0,5.1-0.3,7.7c-0.2,1.5-0.3,2.9-0.7,4.4C22.5,32.5,22.7,32.8,22.6,33.1z"/><path d="M22.2,37c0.4,1.1-0.2,1.8-1.1,2.4c-1,0.6-2,1.1-2.3,2.4c-0.1,0.3-0.4,0.5-0.6,0.6c-0.8,0.5-1.3,1.2-1.3,2.1 c0,1-0.5,1.5-1.5,1.8c0.5-0.1,0.9-0.1,0.9,0.3c0.1,0,0.2,0,0.2,0c0.7-0.5,1.8,0,2.4-0.8l0,0h0c-0.1-0.1-0.2-0.2-0.3-0.3 c-0.6-1.7,0.6-2.6,1.7-3.6c0.4-0.4,0.9-0.6,1.4-0.9l0,0c0.6-0.7,1.4-0.7,2.2-1l0,0c1-0.4,1.9-0.4,2.9,0l0,0l0,0l0,0 c0.4,0,0.8,0,1.1,0.2c0.1,0,0.1,0.1,0.2,0.1c0.9,0.6,1.7,1.2,2.6,1.8c0.1,0,0.2-0.1,0.3-0.1c0,0,0,0,0,0c-1.4-2.2-3.4-3.5-6-3.7 c-0.8-0.1-1.7-0.2-2.2-1c-0.2-0.5-0.3-1-0.4-1.6c0-0.1,0-0.2,0-0.3c0,0.2-0.1,0.4-0.3,0.6C22.2,36.3,22.1,36.7,22.2,37z"/><path d="M23.4,13.9c0.2,0.1,0.5,0,0.6,0c0.2-0.1,0.3-0.2,0.5-0.2c0.3-0.3,0.8-0.3,1.5,0h0c-1-1.3-1.9-0.2-2.9,0v0 C23.2,13.7,23.3,13.8,23.4,13.9z"/><path d="M21.7,32.3c0-0.1,0-0.2,0-0.3C21.7,32.2,21.7,32.3,21.7,32.3z"/><path d="M23.1,17.8c-0.2,3.5-0.2,6.9-0.6,10.4c-0.2,1.5-0.5,3-0.7,4.5c0.1-0.1,0.2-0.1,0.3-0.1 c0.3-1.4,0.5-2.9,0.7-4.4c0.3-2.5,0.2-5.1,0.3-7.7c0-1.3,0.3-2.5,0.5-3.7c0-0.4,0.1-0.8,0.1-1.2c0-0.4,0-0.8,0-1.1 c0-0.3-0.2-0.5-0.4-0.6c-0.1,0-0.2-0.1-0.3-0.2c0,0.1,0,0.3,0,0.4C23.4,15.3,23.2,16.6,23.1,17.8z"/><path d="M23.1,13.6c0,0,0,0.1,0,0.1c0.1,0.1,0.2,0.1,0.3,0.2C23.3,13.8,23.2,13.7,23.1,13.6z"/><path d="M24.5,13.6c-0.2,0.2-0.4,0.6-0.6,1.1c-0.1,0.3-0.1,0.6-0.2,0.9c0,0.4-0.1,0.8-0.1,1.2 c-0.1,0.8-0.1,1.6-0.1,2.5c0,0.4-0.1,0.9-0.1,1.3c0,0.3,0.1,0.6,0.1,0.9c-0.1,1.9-0.4,3.9-0.5,5.8c-0.1,1.5,0.2,2.9-0.2,4.4 c-0.3,0.6,0.1,1.2-0.1,1.7c0,0.1,0,0.1,0,0.2c0,0.6,0.1,1.2,0,1.8c0,0.1,0,0.2,0,0.3c0,0.5,0.1,1.1,0.4,1.6c0.5,0.8,1.4,0.9,2.2,1 c2.6,0.2,4.6,1.5,6,3.7c0,0,0,0,0,0c0.2-0.1,0.3-0.1,0.5-0.2c-1.2-2.4-3.1-3.8-5.8-4.1c-0.8-0.1-1.7-0.1-2.4-0.6 c-0.4-0.5-0.4-1-0.3-1.6c-0.1-0.6-0.2-1.2,0-1.8c-0.1-0.6-0.3-1.3,0.3-1.8l0,0c0-3.8,0.1-7.5,0.5-11.3c-0.3-0.4-0.3-0.9,0-1.3v0 l0,0c0-1.5,0.3-3,0.6-4.5c0.1-0.6,0.4-1,0.8-1.2C25.1,13.6,24.8,13.6,24.5,13.6z"/><path d="M24.5,13.6c0.3-0.1,0.6,0,0.8,0.1c0.2-0.1,0.4-0.1,0.7-0.1l0,0h0C25.3,13.3,24.9,13.3,24.5,13.6z"/><path d="M23.6,16.8c0.1-0.4,0.1-0.8,0.1-1.2C23.7,16,23.7,16.4,23.6,16.8z"/><path d="M15.5,46.3c1-0.2,1.4-0.8,1.5-1.8c0-0.9,0.4-1.7,1.3-2.1c0.3-0.1,0.6-0.3,0.6-0.6c0.3-1.2,1.3-1.8,2.3-2.4 c0.9-0.5,1.5-1.2,1.1-2.4c-0.1-0.4-0.1-0.7,0.1-1c0.1-0.2,0.2-0.4,0.3-0.6c0-0.6-0.1-1.2,0-1.8c0-0.2,0-0.4,0-0.5 c0.1-0.4-0.2-0.6-0.5-0.5c0,0.1-0.1,0.2-0.1,0.3c0,0,0,0,0,0c0.1,0,0.1,0,0.1,0C22,34,22.3,35,21.7,35.8c-0.1,0.1-0.2,0.3-0.3,0.5 c0,0.2-0.1,0.4-0.1,0.6c0,0.1,0,0.1,0.1,0.2c0.7,1.1,0.1,1.5-0.7,1.9c-0.3,0.3-0.6,0.6-0.9,0.8c-0.4,0.3-0.8,0.6-1.1,0.9 c-0.2,0.5-0.3,0.9-0.7,1.1c-0.1,0.1-0.3,0.1-0.4,0.2c-0.5,0.7-0.9,1.5-1.3,2.2c-0.1,1.3-0.7,2.1-2,2.5c0.7,0,1.4,0,2.1,0 c0,0,0,0,0,0C16.3,46.1,15.9,46.2,15.5,46.3z"/><path d="M22.1,32.6c-0.1,0-0.2,0.1-0.3,0.1c0,0.1,0,0.1,0,0.2c0.1,0,0.1,0,0.2,0.1c0,0,0,0,0,0 C22.1,32.9,22.1,32.7,22.1,32.6z"/><path d="M21.3,36.8c0-0.2,0-0.4,0.1-0.6C21.3,36.4,21.2,36.7,21.3,36.8z"/><path d="M16.3,44c0,0,0,0.1,0,0.1c0.4-0.8,0.8-1.5,1.3-2.2C16.8,42.4,16.4,43.1,16.3,44z"/><path d="M19.8,39.6c0.3-0.2,0.6-0.4,0.9-0.8c-0.1,0-0.1,0.1-0.2,0.1c-0.4,0.2-0.8,0.6-1.2,0.8 c-0.3,0.2-0.5,0.5-0.7,0.8C19,40.2,19.4,39.9,19.8,39.6z"/><path d="M22.6,35.4c0.1-0.6,0-1.2,0-1.8C22.5,34.3,22.6,34.9,22.6,35.4z"/><path d="M21.7,32.3c0,0.3-0.1,0.6-0.1,0.9c0.1-0.1,0.1-0.2,0.2-0.4C21.7,32.7,21.7,32.5,21.7,32.3z"/><path d="M22.8,20.5c0.1-2.1,0.1-4.3,0.3-6.4c-0.1,0.7-0.2,1.4-0.2,2.1c-0.3,3.3-0.1,6.6-0.5,9.9c-0.2,2-0.5,4-0.7,6 c0,0,0-0.1,0-0.1C22.6,28.2,22.7,24.3,22.8,20.5z"/><path d="M21.9,32.9C21.8,32.9,21.8,32.9,21.9,32.9c-0.1,0-0.2,0.2-0.3,0.3l0,0C21.7,33.1,21.8,33,21.9,32.9z"/><path d="M21.8,32.8c0,0,0-0.1,0.1-0.1c0,0,0,0,0,0c0.2-1.5,0.5-3,0.7-4.5c0.4-3.5,0.4-6.9,0.6-10.4 c0.1-1.2,0.3-2.5,0-3.7c-0.2,2.1-0.3,4.3-0.3,6.4c-0.1,3.9-0.2,7.7-1.1,11.5c0,0,0,0.1,0,0.1c0,0.1,0,0.2,0,0.3 C21.7,32.5,21.7,32.7,21.8,32.8z"/><path d="M21.9,32.7c0,0,0,0.1-0.1,0.1c0,0,0,0.1,0.1,0.1C21.9,32.9,21.9,32.8,21.9,32.7 C21.9,32.7,21.9,32.7,21.9,32.7z"/><path d="M42.4,55.3c-0.2-2.8-0.7-5.6-1.2-8.4c-0.2-0.7-0.6-1.2-1.4-1.1c-1.8,0.3-3.6-0.1-5.4-0.1 c0.4,0,0.9,0,1.2,0.5c-1.4,0.2-2.6,0.1-4,0.1c0.2-0.6,1.7-0.3,0.7-1.3c-0.2,0-0.4,0-0.5,0c-0.1,0.1-0.2,0.2-0.2,0.3l0,0l0,0 c-1.8,0.6-3.7,0.1-5.5,0.3c-0.6,0-1.2,0-1.8,0l0,0h0c0,0.1,0,0.2,0,0.3c0.9,0.2,1.9-0.3,2.8,0.2c0,0,0.1,0,0.1,0 c1.3-0.5,2.4,0,3.5,0c-1.2,0.4-2.4,0.2-3.7,0.1c0.1,0,0.1,0,0.2-0.1c0,0,0,0,0,0c-1.1,0.2-2.1,0.7-3.1-0.3c-1.5,0-3.1,0-4.6,0 c0,0.1,0,0.2-0.1,0.3c-0.2,0.2-0.3,0.4-0.5,0.5c6.4,0,12.8,0,19.2,0c2.3,0,2.7,0.3,3,2.6c0.1,0.8,0.1,1.6,0.1,2.3l0,0l0,0l0,0l0,0 c0.4,0.8,0.2,1.7,0.3,2.6c0,0.2,0,0.3,0,0.5l0,0c0.5,0.9,0.2,1.9,0.3,2.9l0,0c0.4,0.7-0.1,1.4,0.3,2.1l0,0c0.4,0.6-0.1,1.3,0.3,1.8 c0,0.1,0,0.2,0,0.2c0.4,0.8-0.1,1.6,0.3,2.4c0.3,0.5,0,1.1,0.3,1.6l0,0c0.4,0.7-0.1,1.4,0.3,2.1l0,0c0.3,0.9,0,1.9,0.3,2.9 c0,0.5,0,1.1,0.3,1.6c0.4,0.6-0.1,1.3,0.3,1.8l0,0l0,0c0,0,0,0,0,0c0.3,0.6,0.2,1.2,0.3,1.8l0,0c0.4,1.5,0.3,3,0.5,4.5l0,0 c0.1,0.3,0.1,0.5,0.2,0.8c0.1,0.1,0.2,0.1,0.3,0.1c-0.2-2.6-0.3-5.2-0.7-7.8C43.2,67.4,42.8,61.4,42.4,55.3z M23,46.3 c-0.1,0-0.2,0-0.4-0.1c0.1-0.1,0.1-0.1,0.2-0.1c0.1,0,0.3-0.1,0.4,0.1C23.2,46.2,23,46.3,23,46.3z"/><path d="M26,45.5c0.2-0.1,0.4-0.1,0.7-0.1C26.5,45.4,26.3,45.4,26,45.5z"/><path d="M34.4,45.7c1.8,0,3.6,0.4,5.4,0.1c0.8-0.1,1.2,0.4,1.4,1.1c0.6,2.8,1.1,5.6,1.2,8.4 c0.4,6.1,0.8,12.1,1.7,18.1c0.4,2.6,0.5,5.2,0.7,7.8c0,0,0,0,0.1,0c0,0,0.1,0,0.1,0c0.1,0,0.1,0.1,0.2,0.1c0.2-1,0-2.1-0.1-3.1 c-0.4-4.1-0.9-8.1-1.3-12.2c-0.6-6.4-0.6-12.9-1.9-19.3c-0.3-1.3-0.8-1.9-2-1.7c-2.1,0.3-4.2,0.1-6.3,0.2 C33.8,45.6,34.1,45.6,34.4,45.7z"/><path d="M44.9,81.3c0.1,0,0.2,0.1,0.3,0.1C45.1,81.3,45,81.3,44.9,81.3C44.9,81.3,44.9,81.3,44.9,81.3z"/><path d="M19,45.8c-0.6,0.8-1.7,0.3-2.4,0.8c0.7,0,1.4,0,2.1,0c0.2-0.1,0.4-0.2,0.5-0.5c0-0.1,0.1-0.2,0.1-0.3 C19.2,45.8,19.1,45.8,19,45.8L19,45.8z"/><path d="M34,46c-0.1-0.1-0.3-0.2-0.4-0.4c-0.2,0-0.4-0.1-0.5-0.3C33.2,45.8,33.6,45.9,34,46z"/><path d="M32.3,44.6c0.2,0,0.3,0.1,0.4,0.1c0-0.1,0-0.1,0-0.2c0,0,0-0.1,0-0.1c-0.1,0-0.2,0-0.3,0 C32.3,44.5,32.3,44.6,32.3,44.6z"/><path d="M32.7,44.6c0,0.1,0,0.1,0,0.2c0.2,0.1,0.3,0.3,0.3,0.5c0,0,0,0.1,0,0.1c0.1,0.1,0.3,0.2,0.5,0.3 c-0.1-0.1-0.1-0.2,0-0.4c-0.3-0.2-0.4-0.5-0.5-0.8c-0.1,0-0.3,0-0.4,0C32.7,44.5,32.7,44.5,32.7,44.6z"/><path d="M32.3,45c0.9,1-0.6,0.7-0.7,1.3c1.4,0,2.6,0.1,4-0.1c-0.3-0.5-0.8-0.5-1.2-0.5c-0.2,0-0.5,0-0.7,0 c0,0,0,0-0.1,0c0.1,0.1,0.2,0.2,0.4,0.4c-0.4-0.1-0.8-0.2-0.9-0.6c-0.2-0.2-0.3-0.4-0.3-0.6c-0.1-0.1-0.3-0.1-0.4-0.1 C32.3,44.7,32.3,44.9,32.3,45z"/><path d="M33.1,45.3c0-0.2-0.1-0.4-0.3-0.5C32.8,45,32.9,45.2,33.1,45.3C33.1,45.3,33.1,45.3,33.1,45.3z"/><path d="M33.6,45.6C33.6,45.6,33.7,45.7,33.6,45.6c0.3,0,0.5,0,0.8,0c-0.3,0-0.6-0.1-0.7-0.4 C33.6,45.4,33.6,45.5,33.6,45.6z"/><path d="M31.3,42.9C31.3,42.9,31.3,42.9,31.3,42.9C31.3,42.9,31.3,42.9,31.3,42.9c0.3,0.3,0.5,0.6,0.5,1 c0.1,0.1,0.3,0.3,0.4,0.4c0,0,0,0,0.1-0.1c0.1-0.1,0.2-0.1,0.4-0.1c-0.3-0.7-0.7-1.3-1.2-1.9c-0.1,0.1-0.4,0.1-0.6,0.1 C30.9,42.6,31.1,42.7,31.3,42.9z"/><path d="M31.4,42.3c0.5,0.6,1,1.2,1.2,1.9c0.2,0,0.4,0.1,0.5,0.2c-0.3-1-0.8-1.9-1.6-2.6l0,0h0 C31.6,42.1,31.5,42.3,31.4,42.3z"/><path d="M30.7,42.4L30.7,42.4C30.8,42.4,30.8,42.4,30.7,42.4c0.3,0,0.5,0.1,0.6,0c-0.1-0.1-0.2-0.2-0.3-0.3 c-0.1,0-0.2,0.1-0.3,0.1C30.7,42.2,30.7,42.3,30.7,42.4z"/><path d="M31.4,42.3c0.1-0.1,0.2-0.2,0.2-0.5l0,0c-0.2,0.1-0.3,0.1-0.5,0.2C31.2,42.1,31.3,42.2,31.4,42.3z"/><path d="M32.2,44.3C32.2,44.3,32.2,44.3,32.2,44.3c0,0.1,0,0.1,0.1,0.2c0.1,0,0.2,0,0.3,0c0-0.1-0.1-0.2-0.1-0.2 C32.5,44.2,32.4,44.2,32.2,44.3z"/><path d="M32.7,44.5c0.1,0,0.3,0,0.4,0c-0.2-0.1-0.3-0.2-0.5-0.2C32.6,44.3,32.7,44.4,32.7,44.5z"/><path d="M23.2,33.7c0.3-0.6,0.2-1.2,0.3-1.8l0,0C23,32.5,23.4,33.1,23.2,33.7z"/><path d="M23.2,33.7c0.3-0.6-0.1-1.3,0.3-1.8C22.9,32.4,23.1,33.1,23.2,33.7z"/><path d="M23.4,37.1c0-0.5,0.1-1.1-0.3-1.6C23.4,36.1,23.1,36.7,23.4,37.1z"/><path d="M23.4,37.1c-0.3-0.5,0-1.1-0.3-1.6C23,36.1,23,36.7,23.4,37.1z"/><path d="M23.9,20.6c0-0.4,0-0.9,0-1.3C23.7,19.8,23.7,20.2,23.9,20.6z"/><path d="M23.9,20.6c-0.2-0.4-0.2-0.9,0-1.3v0C23.7,19.8,23.7,20.2,23.9,20.6z"/><path d="M16.3,101.5c0.8-0.1,1.6-0.1,2.3,0c0.3,0.1,0.5,0.2,0.8,0.2c6.9,0.3,13.8-0.5,20.7-0.6 c0.9,0,1.9-0.2,2.8-0.1c1.4,0.2,2.9-1.5,2.8-2.9c-0.1-1.6-0.5-3.2-0.5-4.8c0-0.1,0-0.2,0-0.3c0,0-0.1,0-0.1,0 c-0.7,0.3-0.6,0.9-0.5,1.5c0.1,1.3,0.4,2.5,0.4,3.8c-0.1,1-0.5,1.7-1.6,1.7c-1.5,0-2.9,0.4-4.4,0.3c-2.7-0.1-5.3,0.1-8,0.3 c-6.2,0.6-12.3-0.2-18.4-0.3c-2.2,0-4.4-0.1-6.5,0.1c-1.8,0.1-2.3-0.4-2.1-2.2c0.6-3.5,0.7-7,0.9-10.5c0.2-4,0.6-7.9,0.9-11.9 c0.4-5.1,0.8-10.2,1.5-15.2c0.5-3.5,0.5-7,1.3-10.4c0.4-1.6,0.8-1.9,2.4-2.2c2.5-0.4,5-0.4,7.6-0.5c6.1-0.1,12.3,0,18.4,0 c0.7,0,1.4,0,2,0.4c0.5,0.3,0.6,0.9,0.7,1.5c0.2,0.7,0.2,1.5,0.9,2c0,0,0,0,0,0c0-0.1,0-0.2,0-0.2c-0.2-1-0.3-1.9-0.5-2.9 c-0.5-1-1.3-1.4-2.8-1.5c-2.7,0-5.4,0-8.1,0c-3.7,0-7.3,0-11,0c-0.5,0-1,0.1-1.4-0.2c0,0,0,0-0.1,0c-0.1,0-0.2-0.1-0.3-0.2 c0,0.1,0,0.2,0,0.3c-1.3,0.6-2.6,0.3-3.9,0.2c-0.2-0.1-0.5-0.3-0.7,0.1c-0.3,0.3-0.7,0.3-1.1,0.3c-1.1,0-1.9,0.3-2.6,1.2 c-0.5,0.1-0.8,0.3-1,0.5c-0.1,0.2-0.1,0.4-0.1,0.6C7,50,7.2,50.4,7.6,50.8c0,0.4,0.1,0.8-0.2,1.1c-0.3,0.2-0.6,0.4-0.8,0.7 c-0.2,0.7-0.4,1.4-0.5,2.1c0,0.8-0.1,1.6-0.2,2.4c0,0.4,0,0.8,0,1.2c0.1,0.5,0.4,0.9,0.6,1.3c0,0.7,0.2,1.5-0.2,2.1 c-0.5-0.1-0.3,0.2-0.1,0.4c0.1,0.6,0.3,1.3-0.2,1.9c-0.2,0.1-0.3,0.1-0.5,0c-0.2,0.2-0.3,0.3-0.3,0.5C5.1,65.2,5,65.9,5,66.6 c-0.1,1.2-0.2,2.4-0.3,3.6c-0.1,0.6-0.1,1.2-0.2,1.8c0,0,0,0,0,0c0,0.9,0.1,1.8-0.2,2.7C4.2,75,4.1,75.2,4,75.5 c0,0.6,0.2,1.2,0.2,1.8c0.2,0.3,0.3,0.6,0.5,0.9c0,0.4,0.3,0.9-0.1,1.3c-0.4,0.2-0.7,0.5-0.9,0.9c-0.1,0.3-0.1,0.6-0.2,1 c-0.1,0.1-0.1,0.3-0.1,0.4c0,1.1-0.1,2.3-0.3,3.4c0,0.1-0.1,0.3-0.1,0.4c-0.1,1.1,0,2.2-0.2,3.2c0,0.1-0.1,0.3-0.1,0.4 c0,1.3,0,2.5-0.1,3.8c0,0.3-0.1,0.6,0,0.9c0.2,0.5-0.1,0.9-0.2,1.3c-0.1,0.3-0.2,0.7-0.2,1c0,0.3,0.1,0.7,0.1,1c0,0.1,0,0.2,0,0.3 c0,0,0,0,0,0c0,0,0,0,0,0c0,0,0,0.1,0,0.1c0,0.1-0.1,0.2-0.1,0.3C2.3,98.6,2.3,99,2,99.4c0,0,0,0.1-0.1,0.1 c0.1,0.5,0.3,1.1,0.3,1.6c0,0.3,0.4,0.3,0.6,0.3c0.4,0.2,0.9,0.2,1.3,0.3c0.3,0.3,0.6,0.5,1.1,0.6c0.5-0.1,1-0.2,1.6,0 c0.4,0,0.8,0.1,1.2,0.2c0.3,0,0.7-0.1,1,0c0,0,0.1,0,0.1,0c0.2,0,0.5,0,0.7,0c0.8-0.4,1.5-0.6,2.3-0.2c0.4,0.2,0.9,0.1,1.3,0.1 c0.3-0.1,0.6-0.4,1-0.5c0,0,0,0,0,0c0.1-0.2,0.3-0.3,0.5-0.3c0.1,0,0.3,0,0.4,0c0.2,0.1,0.2,0.2,0.3,0.3c0.1,0,0.2,0,0.3-0.1 C16,101.7,16.1,101.6,16.3,101.5z"/><path d="M4.6,70.2c0,0.4-0.1,0.8-0.2,1.3c0,0.2,0,0.4,0,0.6c0,0,0,0,0,0C4.5,71.5,4.6,70.9,4.6,70.2z"/><path d="M6,63.9c0.5-0.6,0.3-1.2,0.2-1.9c-0.1-0.2-0.4-0.4,0.1-0.4c0.4-0.7,0.2-1.4,0.2-2.1 c-0.2-0.4-0.5-0.8-0.6-1.3c0,0.3,0,0.6,0,0.9c0,0.1,0.2,0.2,0.3,0.3c-0.1,0.8,0.2,1.6-0.3,2.4v0c0,0.7,0.1,1.4-0.3,2.1 c-0.1,0-0.1,0.1-0.1,0.1C5.6,64,5.8,64,6,63.9z"/><path d="M5,65.3c0,0.5,0,0.9-0.1,1.4c0.1-0.7,0.1-1.4,0.2-2.1C5.1,64.7,5,65,5,65.3z"/><path d="M45.3,93.1c0,0.1,0,0.2,0,0.3c0,1.6,0.4,3.2,0.5,4.8c0.1,1.3-1.4,3-2.8,2.9c-1-0.1-1.9,0.1-2.8,0.1 c-6.9,0.1-13.8,0.8-20.7,0.6c-0.3,0-0.6-0.1-0.8-0.2c-0.8-0.1-1.5-0.1-2.3,0c-0.2,0.1-0.3,0.2-0.3,0.4c0,0,0.1,0,0.1-0.1 c0.9,0.1,1.8-0.2,2.6,0.3c0.1,0.1,0.2,0.1,0.3,0c3.5,0,7.1,0.1,10.6-0.1c4.5-0.3,9-0.4,13.5-0.6c2.7-0.1,3.2,0.1,3.2-3 c0-1.8-0.5-3.5-0.5-5.3C45.6,93.1,45.5,93.1,45.3,93.1C45.3,93.1,45.3,93.1,45.3,93.1z"/><path d="M2.4,97.3c0,0.1,0,0.2,0,0.3C2.4,97.5,2.4,97.4,2.4,97.3z"/><path d="M15.4,101.6c-0.1,0-0.2-0.1-0.4,0c-0.2,0.1-0.3,0.2-0.5,0.3c0,0,0,0,0,0c0.2-0.1,0.3-0.1,0.5-0.1 c0.1,0,0.2,0,0.3,0c0.1,0.1,0.2,0.1,0.4,0.2C15.6,101.8,15.5,101.7,15.4,101.6z"/><path d="M2.8,101.4c-0.3,0-0.6,0-0.6-0.3c0-0.5-0.2-1.1-0.3-1.6c-0.2,0.4,0.2,0.8,0,1.2c0,0.3,0.1,0.6,0.3,0.9 c0.1,0.2,0.3,0.3,0.5,0.2c0.4,0.1,0.9,0.2,1.3,0.3c0.1,0.1,0.3,0.3,0.5,0.3c0.2,0,0.5,0,0.7-0.1c-0.5,0-0.8-0.3-1.1-0.6 C3.7,101.6,3.3,101.6,2.8,101.4z"/><path d="M4.6,79.5c0.4-0.4,0.1-0.9,0.1-1.3c-0.2-0.3-0.3-0.6-0.5-0.9c0,0.2,0,0.3,0,0.5c0,0.1,0.1,0.3,0.2,0.4 c0,0.3,0,0.7,0,1c-0.1,0.1-0.3,0.3-0.4,0.5c-0.1,0.2-0.2,0.4-0.2,0.6C3.9,80.1,4.2,79.8,4.6,79.5z"/><path d="M7.4,51.9c0.2-0.3,0.2-0.7,0.2-1.1C7.2,50.4,7,50,6.9,49.8c0,0.3,0.1,0.6,0.3,1c0,0.4,0,0.7-0.3,1 c-0.1,0.3-0.2,0.5-0.3,0.8C6.8,52.3,7.1,52.1,7.4,51.9z"/><path d="M5.9,57.1c0.1-0.8,0.2-1.6,0.2-2.4C6,55.5,6,56.3,5.9,57.1z"/><path d="M4,75.2c0,0.1,0,0.2,0,0.3c0.1-0.2,0.2-0.5,0.2-0.7C4.2,74.9,4.1,75.1,4,75.2z"/><path d="M2.4,97.7C2.4,97.7,2.4,97.7,2.4,97.7C2.4,97.7,2.4,97.7,2.4,97.7z"/><path d="M8,48.6c0.7-0.8,1.6-1.2,2.6-1.2c0.4,0,0.8,0,1.1-0.3c0.2-0.4,0.5-0.2,0.7-0.1c1.3,0,2.7,0.4,3.9-0.2 c0-0.1,0-0.2,0-0.3c0,0,0,0,0,0c-1.4,0.4-2.8,0.4-4.2,0h0c-0.2,0.1-0.3,0.2-0.5,0.3c-0.5,0.3-1.1,0.3-1.6,0.3 C9,47,8.2,47.4,7.7,48.4c-0.4,0.2-0.6,0.5-0.7,0.7C7.2,48.9,7.5,48.8,8,48.6z"/><path d="M9.8,102.5C9.9,102.5,9.9,102.5,9.8,102.5c-0.2,0-0.4,0-0.7,0C9.4,102.5,9.6,102.5,9.8,102.5z"/><path d="M16.6,46.6c-0.1,0-0.2,0-0.2,0c0,0,0,0,0,0c0.1,0.1,0.2,0.2,0.3,0.2c0,0,0,0,0.1,0 C16.7,46.7,16.7,46.6,16.6,46.6z"/><path d="M16.4,46.6C16.4,46.6,16.4,46.6,16.4,46.6C16.4,46.6,16.4,46.6,16.4,46.6C16.4,46.6,16.4,46.6,16.4,46.6z"/><path d="M40.6,51.3c0,0.1,0,0.2,0,0.2c0,0,0,0,0,0C40.6,51.5,40.6,51.4,40.6,51.3z"/><path d="M40.8,51.5L40.8,51.5c0.1,0,0.1,0,0.2,0.1c0-0.8,0-1.6-0.1-2.3c-0.3-2.4-0.6-2.6-3-2.6 c-6.4,0-12.8,0-19.2,0c-0.6,0.3-1.3,0.1-1.9,0.2c0.4,0.3,0.9,0.2,1.4,0.2c3.7,0,7.3,0,11,0c2.7,0,5.4,0,8.1,0 c1.5,0,2.3,0.5,2.8,1.5c-0.1-0.4-0.1-0.7-0.2-1.1C40.8,48.6,40.6,50.1,40.8,51.5z"/><path d="M18.7,46.6c-0.7,0-1.4,0-2.1,0c0.1,0.1,0.1,0.1,0.2,0.2C17.4,46.6,18.1,46.8,18.7,46.6z"/><path d="M44.1,80.5c0-0.1-0.1-0.2-0.1-0.4c0-1.4-0.2-2.7-0.5-4c0-0.1,0-0.2-0.1-0.4c0-0.5-0.1-1.1-0.2-1.6 c0-0.1,0-0.2,0-0.4c0-0.6-0.1-1.1-0.4-1.6c-0.2-0.5-0.1-1-0.2-1.5c0-0.9,0-1.8-0.2-2.7c0-0.1,0-0.2-0.1-0.4c0-0.6,0-1.2-0.2-1.7 c0-0.1,0-0.2-0.1-0.3c0-0.5-0.1-0.9-0.2-1.4c0-0.1,0-0.2,0-0.4c0-0.7-0.1-1.3-0.2-2c0-0.1,0-0.2,0-0.4c0-0.5-0.1-1.1-0.2-1.6 c0-0.1,0-0.2,0-0.4c0-0.6-0.1-1.2-0.2-1.8c0-0.1,0-0.3,0-0.4c0-0.9,0-1.7-0.2-2.6c0-0.2,0-0.4,0-0.6c0-0.8,0-1.7-0.2-2.5 c0,0,0,0,0,0c0,0,0,0,0,0c0,0,0,0,0,0c-0.1,0-0.1,0.1-0.2,0.2c-0.5,0.8-0.4,1.7-0.3,2.6c0.6,6.2,1.4,12.3,2.2,18.4 c0.5,3.8,1,7.7,1.4,11.5c0.3,2.5,0.4,5,0.8,7.5c0.1,0.5,0.2,1,0.7,1.3c0,0,0,0,0,0c0,0,0,0,0,0c0-0.2,0-0.4,0-0.5 c0-0.7-0.1-1.4-0.2-2.1c0-0.1,0-0.3,0-0.4c0.1-1.7-0.2-3.4-0.5-5.1c0-0.1,0-0.3,0-0.4c0-0.8,0-1.5-0.1-2.3c0-0.3,0-0.6,0.2-0.8 c0-0.1,0-0.2,0-0.3C44.3,81,44.2,80.8,44.1,80.5z"/><path d="M45.4 90.3L45.4 90.3 45.4 90.3z"/><path d="M44.4,82.2c0.1,0.8,0.1,1.5,0.1,2.3c0,0.1,0,0.3,0,0.4c0.3,1.7,0.6,3.4,0.5,5.1c0,0.1,0,0.3,0,0.4 c0.2,0.7,0.2,1.4,0.2,2.1c0,0.2,0,0.4,0,0.5c0.1,0,0.3,0,0.4,0.1v0h0c0-0.3,0-0.5,0-0.8c-0.4-0.7,0.1-1.4-0.3-2.1l0,0l0,0 c0,0,0,0,0,0c-0.2-1.8-0.1-3.7-0.5-5.5c0-0.1,0-0.2,0-0.3c-0.2-1-0.2-2.1-0.3-3.1C44.3,81.5,44.4,81.8,44.4,82.2z"/><path d="M42.3 64.1L42.3 64.1 42.3 64.1z"/><path d="M43.6 74L43.6 74 43.6 74z"/><path d="M44.4,80.3c-0.2-1.5-0.2-3-0.5-4.5l0,0c-0.1-0.6,0-1.2-0.3-1.8c-0.3-0.6,0.1-1.3-0.3-1.8 c-0.2-0.5-0.3-1-0.3-1.6c-0.3-0.9,0.1-1.9-0.3-2.9l0,0c-0.4-0.7,0.1-1.4-0.3-2.1l0,0c-0.3-0.5,0.1-1.1-0.3-1.6l0,0l0,0c0,0,0,0,0,0 c-0.3-0.8,0.1-1.6-0.3-2.4c0-0.1,0-0.2,0-0.2c-0.3-0.6,0.1-1.3-0.3-1.8l0,0c-0.3-0.7,0.1-1.4-0.3-2.1l0,0c-0.4-0.9-0.2-1.9-0.3-2.9 l0,0l0,0c0-0.2,0-0.3,0-0.5c-0.4-0.8-0.2-1.8-0.3-2.6l0,0l0,0l0,0v0c-0.1,0-0.1,0.1-0.2,0.1c0,0.1,0,0.2-0.1,0.3c0-0.1,0-0.2,0-0.3 c0,0,0,0,0,0c0,0,0,0,0,0c0.2,0.8,0.2,1.7,0.2,2.5c0,0.2,0,0.4,0,0.6c0.2,0.8,0.2,1.7,0.2,2.6c0,0.1,0,0.3,0,0.4 c0.2,0.6,0.2,1.2,0.2,1.8c0,0.1,0,0.2,0,0.4c0.1,0.5,0.2,1.1,0.2,1.6c0,0.1,0,0.2,0,0.4c0.2,0.7,0.2,1.3,0.2,2c0,0.1,0,0.2,0,0.4 c0.1,0.4,0.2,0.9,0.2,1.4c0,0.1,0,0.2,0.1,0.3c0.2,0.6,0.2,1.2,0.2,1.7c0,0.1,0,0.2,0.1,0.4c0.2,0.9,0.2,1.8,0.2,2.7 c0,0.5-0.1,1,0.2,1.5c0.2,0.5,0.3,1.1,0.4,1.6c0,0.1,0,0.2,0,0.4c0.2,0.5,0.2,1,0.2,1.6c0,0.1,0,0.2,0.1,0.4c0.3,1.3,0.5,2.6,0.5,4 c0,0.1,0,0.2,0.1,0.4c0.1,0.3,0.2,0.5,0.5,0.6C44.5,80.9,44.4,80.6,44.4,80.3L44.4,80.3z"/><path d="M45.3,93C45.3,93,45.3,93,45.3,93C45.2,93,45.2,93,45.3,93C45.2,93.1,45.3,93.1,45.3,93 C45.3,93.1,45.3,93,45.3,93z"/><path d="M40.6 51.6L40.6 51.6 40.6 51.6 40.6 51.5z"/><path d="M45.3,93C45.3,93,45.3,93.1,45.3,93c0,0.1,0.1,0.1,0.1,0.1c0.1,0,0.2,0,0.3,0v0C45.6,93.1,45.4,93,45.3,93z"/><path d="M40.6,51.5C40.6,51.5,40.6,51.5,40.6,51.5C40.6,51.6,40.6,51.6,40.6,51.5C40.6,51.6,40.6,51.6,40.6,51.5 C40.6,51.6,40.6,51.5,40.6,51.5z"/><path d="M40.8,51.5L40.8,51.5c0,0,0,0.1,0,0.1c0.1,0,0.2,0,0.2-0.1v0C40.9,51.5,40.8,51.5,40.8,51.5L40.8,51.5z"/><path d="M12.2,46.6L12.2,46.6c-0.1-0.1-0.2-0.1-0.3-0.1c-0.5,0-0.9,0-1.4,0.1c-0.1,0-0.2,0.1-0.3,0.1 c0.7,0.1,1.1,0.1,1.6,0.2C11.8,46.6,12,46.6,12.2,46.6z"/><path d="M10.4,46.5c0.5,0,0.9,0,1.4-0.1C11.4,46.3,11,46.3,10.4,46.5z"/><path d="M11.7,46.8c0.2-0.1,0.3-0.2,0.5-0.3C12,46.6,11.8,46.6,11.7,46.8z"/><path d="M19.2,45.1c0,0.1,0,0.2,0,0.4l0,0c0,0,0,0,0,0c0.4-0.3,1-0.1,1.5-0.1c1,0,2-0.1,2.9,0.1c0,0,0,0,0.1,0.1 c0.1,0,0.3,0,0.4,0c0-0.1,0.1-0.1,0.1-0.2c0.6-0.3,1.2-0.1,1.7-0.2c1.3-0.1,2.7,0.1,4-0.1c-3.4,0.1-6.7,0.1-10.1,0.2 C19.6,45.3,19.4,45.2,19.2,45.1z"/><path d="M31.7,44.3c-0.1,0-0.1-0.1-0.2-0.1c0,0.1,0,0.1,0,0.2c0,0.1,0,0.3-0.1,0.4c0.1,0,0.2,0,0.3,0 c0,0,0.1,0,0.1,0c0-0.1,0-0.2,0-0.3C31.8,44.3,31.7,44.3,31.7,44.3z"/><path d="M19.3,45.5c0-0.1,0-0.3,0-0.4c-0.3-0.2-0.3-0.5,0-1.1c0.5-1.4,1.8-2,2.7-2.9c0,0-0.1-0.1-0.1-0.1l0,0l0,0 c-0.5,0.3-1,0.5-1.4,0.9c-1,1-2.3,1.9-1.7,3.6C18.9,45.5,19.1,45.5,19.3,45.5L19.3,45.5z"/><path d="M31.7,44.6c-0.1,0-0.2,0-0.3,0C31.3,45,30.9,45,30.5,45c-0.2,0-0.3,0-0.5,0c-1.3,0.2-2.7,0-4,0.1 c-0.6,0-1.2-0.1-1.7,0.2c-0.1,0.1-0.1,0.1-0.1,0.2c0,0,0,0,0.1,0l0,0c0.6,0,1.2,0,1.8,0c0.2-0.1,0.4-0.1,0.7-0.1 c1.6-0.3,3.2,0,4.8-0.1l0,0c0.1-0.1,0.2-0.2,0.2-0.3c0-0.1,0-0.2,0-0.4C31.8,44.6,31.7,44.6,31.7,44.6z"/><path d="M23.7,45.5c-1-0.2-2-0.1-2.9-0.1c-0.5,0-1-0.1-1.5,0.1C20.8,45.5,22.3,45.5,23.7,45.5 C23.7,45.5,23.7,45.5,23.7,45.5z"/><path d="M31.6,43.9c0,0.1,0,0.1,0,0.2c0.1,0.1,0.1,0.1,0.2,0.1c0,0,0.1,0,0.1,0c0-0.1,0-0.2,0-0.3 C31.7,43.9,31.6,43.9,31.6,43.9z"/><path d="M30.4,42.4C30.4,42.4,30.4,42.4,30.4,42.4C30.4,42.4,30.4,42.4,30.4,42.4C30.4,42.4,30.4,42.4,30.4,42.4z"/><path d="M27.4,40.6c-0.2-0.1-0.3-0.2-0.5-0.2c-0.1,0-0.2,0-0.3-0.1c-0.8-0.2-1.6-0.2-2.4,0.1 c-0.2,0.1-0.5,0.2-0.7,0.2c0.7-0.2,1.5-0.3,2.3-0.3C26.3,40.3,26.9,40.4,27.4,40.6z"/><path d="M22,41.1c0.5-0.2,1-0.3,1.5-0.5c0.2-0.1,0.5-0.2,0.7-0.2c0.8-0.3,1.6-0.3,2.4-0.1c0.1,0,0.2,0.1,0.3,0.1 c0.2,0,0.4,0.1,0.5,0.2c1.1,0.3,2.1,1,3,1.8c0,0,0,0,0,0c0,0,0.1,0,0.1,0c0-0.1,0.1-0.2,0.2-0.3c-0.9-0.6-1.7-1.2-2.6-1.8 c-0.4,0-0.7,0-1.1-0.2c-0.1,0-0.2-0.1-0.2-0.1c-1,0-1.9,0-2.9,0l0,0h0c-0.8,0.3-1.6,0.3-2.2,1C21.8,41,21.9,41.1,22,41.1 C22,41.1,22,41.1,22,41.1z"/><path d="M28,40.2c0.1,0,0.1,0.1,0.2,0.1C28.1,40.2,28,40.2,28,40.2z"/><path d="M30.7,42.4c0-0.1,0-0.2,0-0.3c-0.1,0.1-0.2,0.2-0.2,0.3C30.6,42.4,30.7,42.4,30.7,42.4z"/><path d="M21.9,41.1C21.9,41.1,21.9,41.1,21.9,41.1C22,41.1,22,41.1,21.9,41.1c0-0.1-0.1-0.1-0.1-0.1l0,0 C21.8,41,21.9,41.1,21.9,41.1z"/><path d="M24.1,45.8c0,0,0.1,0,0.1,0C24.2,45.7,24.1,45.7,24.1,45.8c0-0.1,0.1-0.2,0.1-0.3c-0.1,0-0.2,0-0.3,0 C23.9,45.6,24,45.7,24.1,45.8z"/><path d="M19.2,45.6c-0.2,0-0.3,0-0.5-0.1c0.1,0.1,0.2,0.2,0.3,0.3h0C19.1,45.7,19.1,45.6,19.2,45.6z"/><path d="M24.1,45.7C24.1,45.7,24.2,45.7,24.1,45.7c0.1,0.1,0.1,0.1,0.1,0.1c0-0.1,0-0.2,0-0.3h0c0,0,0,0-0.1,0 C24.1,45.6,24.1,45.6,24.1,45.7z"/><path d="M23.8,45.5c-1.5,0.2-3,0.2-4.5,0c0,0.1,0,0.1,0,0.2c1.5,0,3.1,0,4.6,0c0,0,0.1,0,0.1,0 C24,45.7,23.9,45.6,23.8,45.5z"/><path d="M19.2,45.6c-0.1,0.1-0.2,0.1-0.2,0.2c0.1,0,0.2,0,0.3,0C19.3,45.7,19.3,45.6,19.2,45.6 C19.3,45.6,19.2,45.6,19.2,45.6z"/><path d="M19.3 45.5L19.3 45.5 19.3 45.5z"/><path d="M23.8,45.5c0.1,0,0.2,0,0.3,0c0,0,0,0,0,0C24,45.5,23.9,45.5,23.8,45.5C23.8,45.5,23.8,45.5,23.8,45.5z"/><path d="M19.3,45.5C19.3,45.5,19.3,45.5,19.3,45.5c-0.2,0-0.4,0-0.6,0C18.9,45.5,19,45.5,19.3,45.5 C19.2,45.5,19.3,45.5,19.3,45.5z"/><path d="M24.1,45.5C24.2,45.5,24.2,45.5,24.1,45.5C24.2,45.5,24.2,45.5,24.1,45.5C24.1,45.5,24.1,45.5,24.1,45.5z"/><path d="M19.3,45.5C19.3,45.5,19.3,45.5,19.3,45.5C19.3,45.5,19.3,45.5,19.3,45.5c1.5,0.2,3,0.2,4.5,0c0,0,0,0,0,0 C22.3,45.5,20.8,45.5,19.3,45.5z"/><path d="M19.2,45.6C19.2,45.6,19.3,45.6,19.2,45.6C19.3,45.5,19.3,45.5,19.2,45.6C19.3,45.5,19.2,45.5,19.2,45.6z"/><path d="M26.8,40L26.8,40c-1-0.4-1.9-0.4-2.9,0C24.9,39.8,25.9,39.8,26.8,40z"/><path d="M26.8,40L26.8,40c-1-0.2-1.9-0.2-2.9,0l0,0C24.9,40,25.9,40,26.8,40z"/><path d="M26.8,40c0.1,0,0.2,0.1,0.2,0.1c0.3,0.1,0.6-0.1,0.9,0.1C27.6,40,27.2,40,26.8,40L26.8,40L26.8,40L26.8,40z"/><path d="M26.8 40L26.8 40 26.8 40z"/><path d="M27.1,40.1c0.3,0.1,0.7,0.1,1.1,0.2c-0.1,0-0.1-0.1-0.2-0.1C27.7,40.1,27.4,40.2,27.1,40.1z"/><path d="M26.8 40L26.8 40 26.8 40z"/><path d="M26.8 40L26.8 40 26.8 40z"/><path d="M27.4,46.1c-0.1,0-0.2,0-0.3,0c0,0,0,0-0.1,0C27.2,46.1,27.3,46.1,27.4,46.1z"/><path d="M28.7,46.1c-0.4-0.2-0.9-0.1-1.3,0C27.8,46,28.3,45.9,28.7,46.1z"/><path d="M28.7,46.1c-0.4-0.2-0.9,0-1.3,0c-0.1,0-0.2,0-0.3,0c-0.1,0-0.1,0-0.2,0.1c1.4,0.1,2.5,0.3,3.7-0.1 c-1.1,0-2.2-0.5-3.5,0c0.1,0,0.2,0,0.3,0C27.8,46,28.3,45.9,28.7,46.1z"/><path d="M24.6,46c-0.1-0.1-0.3-0.1-0.4-0.2c0,0,0,0-0.1,0C24.3,45.9,24.5,46,24.6,46z"/><path d="M26.1,46c0.3,0,0.5,0,0.8,0c0.1,0,0.1,0,0.2,0.1c0,0,0,0,0.1,0c0,0-0.1,0-0.1,0c0,0,0,0,0,0 C26.7,45.9,26.4,46,26.1,46z"/><path d="M24.6,46c0.5,0.1,0.9,0.1,1.4,0c0.3,0,0.6-0.1,0.9,0c0,0,0,0,0,0c-0.9-0.5-1.9,0-2.8-0.2l0,0 C24.3,45.9,24.5,46,24.6,46z"/><path d="M26.1,46c-0.5,0-1,0.1-1.4,0C25.1,46.2,25.6,46.1,26.1,46z"/><path d="M26.1,46c-0.5,0.1-1,0.2-1.4,0c-0.2,0-0.3-0.1-0.5-0.2c-0.1,0-0.1,0-0.2,0c1,0.9,2,0.5,3.1,0.3 c-0.1,0-0.1,0-0.2-0.1C26.6,46,26.3,46,26.1,46z"/><path d="M24.2,45.8C24.2,45.8,24.2,45.8,24.2,45.8L24.2,45.8C24.2,45.8,24.1,45.8,24.2,45.8 C24.1,45.8,24.1,45.8,24.2,45.8z"/><path d="M24.2 45.8L24.2 45.8 24.2 45.8z"/><path d="M24.2,45.8C24.1,45.8,24.1,45.8,24.2,45.8c-0.1,0-0.2,0-0.2,0C24,45.8,24.1,45.9,24.2,45.8z"/><path d="M27.6,45.4c-0.3,0-0.6,0-0.9,0c-0.2,0-0.4,0.1-0.7,0.1c1.8-0.1,3.7,0.3,5.5-0.3l0,0 C30.2,45.5,28.9,45.3,27.6,45.4z"/><path d="M26.7,45.4c0.3,0,0.6,0,0.9,0c1.3-0.1,2.7,0.2,4-0.1C29.9,45.4,28.3,45.1,26.7,45.4z"/><path d="M41.5,57.5c-0.1-1,0.2-2-0.3-2.9C41.6,55.6,41.1,56.6,41.5,57.5z"/><path d="M41.5,57.5c-0.4-0.9,0.1-1.9-0.3-2.9l0,0C41.3,55.6,41.1,56.6,41.5,57.5z"/><path d="M41.2,54.2c-0.1-0.9,0.2-1.8-0.3-2.6v0C41.3,52.4,40.9,53.3,41.2,54.2z"/><path d="M41.2,54.2c-0.4-0.8,0.1-1.8-0.3-2.6C41.1,52.4,40.8,53.3,41.2,54.2z"/><path d="M32.1,44.4c-0.1,0-0.1,0-0.2,0c0,0.1,0,0.2,0,0.3c0,0,0,0,0.1,0C32,44.5,32,44.5,32.1,44.4z"/><path d="M32,44.6C32,44.6,32,44.6,32,44.6c-0.1,0.1-0.1,0.3-0.2,0.4c0.2,0,0.4,0,0.5,0C32.1,44.9,32,44.7,32,44.6z"/><path d="M32,44.6c0.1,0,0.2,0,0.2,0c0,0,0,0,0.1,0c0,0,0-0.1,0-0.1c-0.1,0-0.1-0.1-0.2-0.1C32,44.5,32,44.5,32,44.6 z"/><path d="M32.3,44.6c-0.1,0-0.2,0-0.2,0c0,0.1,0.1,0.3,0.3,0.4C32.3,44.9,32.3,44.7,32.3,44.6 C32.3,44.6,32.3,44.6,32.3,44.6z"/><path d="M32,44.3c0.1,0,0.1,0,0.2,0c0,0,0,0,0.1-0.1c-0.1-0.1-0.3-0.3-0.4-0.4c0,0,0,0,0,0 C31.9,44.1,31.9,44.2,32,44.3z"/><path d="M31.8 43.9L31.8 43.9 31.8 43.9z"/><path d="M32.1,44.4c0.1,0,0.1,0,0.2,0.1C32.3,44.4,32.2,44.4,32.1,44.4C32.2,44.3,32.1,44.4,32.1,44.4z"/><path d="M32,44.3c-0.1,0-0.1,0-0.2,0c0,0.1,0,0.2,0,0.3c0.1,0,0.1,0,0.2,0C32,44.5,32,44.4,32,44.3z"/><path d="M31.8,44.6c0,0.1,0,0.2,0,0.4c0.1-0.1,0.1-0.3,0.2-0.4C31.9,44.6,31.8,44.6,31.8,44.6z"/><path d="M31.8,43.9L31.8,43.9L31.8,43.9L31.8,43.9c0,0.1,0,0.2,0,0.3c0.1,0,0.1,0,0.2,0 C31.9,44.2,31.9,44.1,31.8,43.9C31.8,43.9,31.8,43.9,31.8,43.9L31.8,43.9z"/><path d="M22.8,46.1c-0.1,0-0.1,0.1-0.2,0.1c0.1,0,0.3,0.1,0.4,0.1c0.1,0,0.2-0.1,0.2-0.1 C23.1,46,22.9,46.1,22.8,46.1z"/><path d="M31.4,43.9c-0.1-0.2-0.2-0.4-0.4-0.5C31.1,43.5,31.2,43.7,31.4,43.9C31.3,43.9,31.3,43.9,31.4,43.9z"/><path d="M30.7,42.5c0,0-0.1,0.1-0.1,0.1c0.1,0.3,0.3,0.5,0.4,0.8c0.1,0.2,0.3,0.3,0.4,0.5c0,0,0.1,0,0.1,0 c0,0,0,0,0.1,0c-0.1-0.3-0.2-0.6-0.3-0.9c0,0,0,0,0,0c-0.2-0.2-0.3-0.3-0.5-0.5C30.8,42.4,30.7,42.4,30.7,42.5L30.7,42.5z"/><path d="M30.7,42.5L30.7,42.5c0,0,0.1,0,0.1,0C30.8,42.4,30.8,42.4,30.7,42.5L30.7,42.5L30.7,42.5 C30.7,42.4,30.7,42.4,30.7,42.5z"/><path d="M31.5,44.3c0-0.1,0-0.1,0-0.2c0,0-0.1-0.1-0.1-0.1c0,0-0.1-0.1-0.1-0.1c0,0,0,0-0.1,0 C31.4,44,31.4,44.2,31.5,44.3z"/><path d="M31.5,44.1c0-0.1,0-0.1,0-0.2c0,0,0-0.1,0-0.1c0,0,0,0-0.1,0c0,0-0.1,0-0.1,0C31.4,43.9,31.4,44,31.5,44.1 C31.5,44,31.5,44.1,31.5,44.1z"/><path d="M30.5,42.6c0,0,0-0.1,0-0.1c0,0-0.1,0-0.1,0c0,0,0,0,0,0C30.5,42.5,30.5,42.5,30.5,42.6z"/><path d="M30.5,42.4C30.5,42.4,30.5,42.4,30.5,42.4C30.5,42.4,30.5,42.4,30.5,42.4C30.5,42.4,30.5,42.4,30.5,42.4 C30.5,42.4,30.5,42.4,30.5,42.4z"/><path d="M30.5,42.6L30.5,42.6c0,0,0.1-0.1,0.1-0.1c0,0-0.1,0-0.1,0C30.5,42.5,30.5,42.5,30.5,42.6z"/><path d="M30.5,42.4C30.5,42.4,30.5,42.4,30.5,42.4c0,0,0.1,0,0.1,0c0,0,0.1,0,0.1-0.1v0 C30.7,42.4,30.6,42.4,30.5,42.4C30.5,42.4,30.5,42.4,30.5,42.4z"/><path d="M31.6,43.8c0.1,0,0.2,0,0.2,0.1c0,0,0,0,0,0l0,0l0,0v0l0,0c-0.1-0.4-0.2-0.8-0.5-1c0,0,0,0,0,0 C31.4,43.2,31.6,43.5,31.6,43.8z"/><path d="M31.8,43.9C31.8,43.9,31.8,43.9,31.8,43.9c-0.1-0.1-0.2-0.1-0.2-0.1c0,0,0,0.1,0,0.1 C31.6,43.9,31.7,43.9,31.8,43.9z"/><path d="M31.8 43.9L31.8 43.9 31.8 43.9z"/><path d="M31.8 43.9L31.8 43.9 31.8 43.9 31.8 43.9 31.8 43.9z"/><path d="M31.8 43.9L31.8 43.9 31.8 43.9z"/><path d="M31.6,43.8c0-0.3-0.1-0.6-0.3-0.9C31.3,43.2,31.4,43.5,31.6,43.8C31.5,43.8,31.5,43.8,31.6,43.8z"/><path d="M31.6,43.8C31.5,43.8,31.5,43.8,31.6,43.8C31.5,43.9,31.5,43.9,31.6,43.8C31.6,43.9,31.6,43.9,31.6,43.8z"/><path d="M40.4,49.7c-0.1-0.5-0.2-0.9-0.4-1.3c0.2,1,0.3,1.9,0.5,2.9c0-0.1,0-0.1,0-0.2 C40.6,50.7,40.5,50.2,40.4,49.7z"/><path d="M40.8,51.5c-0.2-1.4,0.1-2.9-0.9-4.1c0.1,0.4,0.1,0.7,0.2,1.1c0.2,0.4,0.3,0.8,0.4,1.3 c0.1,0.5,0.1,1,0.1,1.4c0,0.1,0,0.1,0,0.2c0,0.1,0,0.2,0,0.2C40.7,51.5,40.7,51.5,40.8,51.5z"/><path d="M40.7,51.8c0-0.1,0-0.2,0.1-0.3c0,0-0.1,0-0.1,0C40.6,51.7,40.7,51.8,40.7,51.8z"/><path d="M40.8,51.5c-0.1,0-0.1,0-0.1,0.1c0,0,0,0,0,0c0,0,0.1,0,0.1,0C40.8,51.6,40.8,51.5,40.8,51.5L40.8,51.5z"/><path d="M30.5 42.6L30.5 42.6 30.5 42.6z"/></g></svg>