<svg id="Слой_1" xmlns="http://www.w3.org/2000/svg" viewBox="0 0 70.6 95.8"><path fill="#FFF" d="M70,88.9c-0.2-0.3-0.2-0.7-0.3-1.1c-0.7-4.7-1.3-9.4-1.9-14.2c-0.4-3.1-0.8-6.3-1.2-9.4 c-0.3-2.7-0.6-5.3-0.9-8c-0.1-0.1-0.2-0.1-0.3,0c0.1,1.3,0.2,2.6,0.3,3.9c0.3,0.5,0.2,1,0.1,1.5c-0.3,1.8,0,3.6,0.2,5.4 c0,0.1,0,0.3,0.1,0.4c0.1,0.4,0.2,0.9,0.2,1.3c0,0.2,0,0.4,0,0.6c0.1,0.6,0.2,1.1,0.2,1.7c0,0.1,0,0.3,0,0.4 c0.1,0.6,0.2,1.2,0.2,1.8c0,0.1,0,0.3,0.1,0.4c0.3,2.4,0.6,4.7,0.9,7.1c0.3,2.9,0.8,5.7,1.3,8.6c0.4,2.2,0.2,2.7-2.1,2.9 c-2,0.2-4.1-0.2-6.1,0c-4.2,0.4-8.5,0.1-12.8,0.5c-3.4,0.3-6.8,0.2-10.2,0.3c-2.2,0.1-4.4-0.2-6.6,0.3c-0.8,0.2-1.3,0.4-1.4,1.2 c0.4,0,0.8,0,1.2,0.1c0.2-0.1,0.4-0.1,0.7-0.1c1.7,0,3.4-0.3,5.1-0.4c4.3-0.3,8.6-0.2,12.8-0.5c3.4-0.2,6.8,0,10.2-0.2 c2.8-0.2,5.6-0.3,8.5,0c1.5,0.1,2-0.5,2.2-2C70.7,90.5,70.7,89.7,70,88.9z"/><path fill="#FFF" d="M65.8,68c-0.4-1.3-0.4-2.6-0.5-3.9c0.2-0.1,0.1-0.2,0-0.3c-0.4-0.7-0.2-1.4-0.3-2.1 c0.2,0.1,0.3,0.6,0.5,0.1c0.1-0.5,0-1.1,0-1.7c0.5,1.1,0.2,2.4,0.4,3.6c0.3,1.2,0.2,2.5,0.3,3.7C66.2,67.7,66,67.9,65.8,68z"/><path fill="#FFF" d="M63.7,40c0.4,0.9,0.2,1.9,0.2,2.9C63.5,42,63.8,41,63.7,40z"/><path fill="#FFF" d="M63.5,36.3c0.4,0.8,0.2,1.7,0.2,2.6C63.3,38.1,63.4,37.2,63.5,36.3z"/><path fill="#FFF" d="M62.9,31.4c0.4,0.9,0.2,1.9,0.3,2.9C62.7,33.3,63,32.3,62.9,31.4z"/><path fill="#FFF" d="M64.3,45.5c0.4,0.8,0.2,1.7,0.2,2.6C64.1,47.3,64.3,46.4,64.3,45.5z"/><path fill="#FFF" d="M65,53.6c0.4,0.8,0.2,1.7,0.3,2.6C64.9,55.4,65.1,54.5,65,53.6z"/><path fill="#FFF" d="M64.5,48.4c0.4,0.8,0.2,1.6,0.2,2.4C64.4,50,64.6,49.2,64.5,48.4z"/><path fill="#FFF" d="M64.8,51.3c0.4,0.7,0.2,1.4,0.2,2.1C64.6,52.7,64.8,52,64.8,51.3z"/><path fill="#FFF" d="M64,43.2c0.4,0.7,0.2,1.4,0.3,2.1C63.9,44.6,64,43.9,64,43.2z"/><path fill="#FFF" d="M52.5,13.3c-0.4,0.3-0.9,0.3-1.3,0.3C51.5,13.2,52,13.2,52.5,13.3z"/><path fill="#FFF" d="M63.2,34.5c0.3,0.5,0.2,1,0.2,1.6C63.2,35.6,63.2,35,63.2,34.5z"/><path fill="#FFF" d="M59.8,15.7c-0.1-0.2-0.1-0.3,0-0.5C60.2,15.3,60,15.5,59.8,15.7z"/><path fill="#FFF" d="M67.1,73.5c-0.1,0.6,0.2,1.4-0.5,1.8c0-0.1,0-0.2,0-0.3c-0.3-0.5,0.1-1.1-0.3-1.6c-0.3-0.6,0.1-1.3-0.3-1.8 c0-0.2,0-0.3,0-0.5c-0.4-0.8,0.1-1.8-0.3-2.6c0-0.2,0-0.3,0-0.5c0-0.2,0-0.3,0-0.5c0-0.2-0.1-0.5,0.2-0.5c0.1,0,0.2,0.3,0.3,0.5 c0.3,0.4-0.1,0.9,0.3,1.3c0,0.2,0,0.3,0,0.5c0.3,0.6-0.1,1.3,0.3,1.8c0,0.1,0,0.2,0,0.3c0.3,0.6-0.1,1.3,0.3,1.8 C67.1,73.3,67.1,73.4,67.1,73.5z"/><path fill="#FFF" d="M66.9,71.2c-0.3-0.6-0.3-1.2-0.3-1.8C67,69.9,66.8,70.5,66.9,71.2z"/><path fill="#FFF" d="M67.1,73.3c-0.4-0.6-0.2-1.2-0.3-1.8C67.2,72,67.1,72.6,67.1,73.3z"/><path fill="#FFF" d="M66.6,68.8c-0.3-0.4-0.3-0.9-0.3-1.3C66.6,67.9,66.6,68.3,66.6,68.8z"/><path fill="#FFF" d="M65.8,68.5c0.4,0.8,0.2,1.7,0.3,2.6C65.6,70.3,65.9,69.4,65.8,68.5z"/><path fill="#FFF" d="M66.1,71.7c0.4,0.6,0.2,1.2,0.3,1.8C66,72.9,66.1,72.3,66.1,71.7z"/><path fill="#FFF" d="M66.3,73.5c0.3,0.5,0.3,1,0.3,1.6C66.3,74.6,66.4,74.1,66.3,73.5z"/><path fill="#FFF" d="M67.4,91.3c0-0.4,0.2-0.8,0.6-1c-0.1,0.4-0.2,0.7-0.3,1.1l0,0C67.6,91.3,67.5,91.3,67.4,91.3z"/><path fill="#FFF" d="M65.3,63.8c0.3,0,0.5,0.1,0.4,0.4c-0.1,0.2-0.3,0-0.4-0.1C65.3,64,65.3,63.9,65.3,63.8z"/><path fill="#FFF" d="M28.3 2.5L28.3 2.5 28.3 2.5z"/><path fill="#FFF" d="M25,6.6c-0.1,0.3-0.2,0.7-0.3,1v0c-0.1,1.4-0.8,2.6-1.3,3.9l0,0c-0.3,0.9-0.9,1-1.7,1 c-2.5-0.1-5.1,0.2-7.6,0.2c-0.8,0-0.5,0.3-0.3,0.7l0,0l0,0c4.1,0.2,8.2,0.7,12.3,0.5c0.8,0,1.6-0.1,2.3-0.3l0,0 c0.6-0.1,1.1-0.3,1.6,0.3c2-0.4,4,0,6,0l0,0c0.5-0.3,1-0.3,1.6,0c0.5,0,1.1,0,1.6-0.3c1,0.1,2.1-0.2,3.1,0.2 c0.6-0.1,1.2-0.2,1.8-0.2c0.5,0,1,0,1.6,0c1.8,0,3.7,0,5.5,0c0.4-0.3,0.9,0,1.3-0.3c1.5,0,3,0.1,4.4,0c1.5-0.1,2.5,0.3,2.9,1.9 c0,0.2,0,0.3,0,0.5c1,4.5,1,9.1,1.3,13.7c0.4,4.6,1,9.2,1.4,13.9c0.5,5.8,1.8,11.5,2.3,17.3c0,0.4,0.2,0.8,0.2,1.2 c0.1,0.3,0.1,0.5,0.2,0.8c0.1,0,0.2,0,0.3,0c0.4-0.1,0.4-0.6,0.4-1c0-0.4,0-0.8-0.1-1.3c0-1.3-0.4-2.5-0.4-3.7 c0-0.1-0.1-0.2-0.1-0.3c0,0-0.1,0-0.1,0l0,0c-0.4-0.8,0.1-1.8-0.3-2.6c0-0.1,0-0.2,0-0.3c-0.3-0.7,0.1-1.4-0.2-2.1 c0-0.2,0-0.3,0-0.5c-0.3-0.8,0.1-1.6-0.2-2.4c0-0.1,0-0.2,0-0.3c-0.3-0.8,0.1-1.8-0.2-2.6c0-0.1,0-0.2,0-0.3 c-0.3-0.7,0.1-1.4-0.3-2.1c0-0.1,0-0.2,0-0.3c-0.3-0.9,0.1-1.9-0.2-2.9c0-0.3,0-0.7,0-1c-0.3-0.9,0.1-1.8-0.2-2.6 c0-0.1,0-0.2,0-0.3c-0.3-0.5,0.1-1.1-0.2-1.6c0-0.1,0-0.2,0-0.3c-0.3-0.9,0.1-1.9-0.3-2.9c-0.6-5.6-1.4-11.1-1.6-16.8 c-0.1-2.4-0.7-3-3.1-2.9c-3.4,0.1-6.8,0.4-10.2,0.3c-1.4,0-2.1-0.5-2.3-1.9c-0.2-1.2-0.6-2.5-0.9-3.7c0-0.4-0.2-0.7-0.5-1 c-2.2-3.2-5.3-4.6-9-5C34,0.2,32.8,0.3,31.6,1c-1.1,0.6-2.2,1.1-3.3,1.6l0,0C27.1,3.8,25.9,5.1,25,6.6L25,6.6z M25.8,9.2L25.8,9.2 L25.8,9.2c0.1-1.1,0.9-1.8,1.5-2.7l0,0c0.5-0.6,0.8-1.4,1.6-1.8c1.4-1.8,3.2-3,5.5-2.9c2.1,0.1,4.2,0.5,5.9,1.9 C41.6,4,42,5.2,42.8,6l0,0c0.1,0.4,0.2,0.7,0.3,1.1c0.3,0.9,0.7,1.8,1,2.7c0.4,1.3,0.1,1.9-1.3,2c-1.6,0.1-3.2,0.1-4.8,0.1 c-4.1,0-8.2-0.1-12.4-0.1C25.1,10.8,25.4,10,25.8,9.2C25.8,9.2,25.8,9.2,25.8,9.2L25.8,9.2z"/><path fill="#FFF" d="M47.6,11.8c3.6,0.1,7.2-0.2,10.8-0.3c2.3-0.1,3.1,0.2,3.2,3.1c0.1,4.2,0.7,8.4,1.1,12.6 c0.1,1.4,0.2,2.8,0.5,4.1c0.1,0.9,0,1.9,0.1,2.8c0.1,0.1,0.1,0.3,0.1,0.4c0.1,0.5,0,1.1,0.2,1.6c0.1,0.1,0.1,0.2,0.1,0.4 c0.1,0.9-0.2,1.8,0.2,2.7c0.1,0.3,0.1,0.7,0.1,1c0,0.9-0.1,1.8,0.1,2.7c0.1,0.1,0.1,0.3,0.1,0.4c0.1,0.7-0.1,1.4,0.2,2 c0.1,0.1,0.1,0.3,0.1,0.4c0.1,0.8-0.1,1.6,0.1,2.5c0.1,0.1,0.1,0.3,0.1,0.4c0.1,0.7-0.1,1.5,0.1,2.2c0,0.2,0.1,0.4,0.1,0.6 c0.1,0.7-0.1,1.4,0.1,2c0.1,0.1,0.1,0.3,0.1,0.4c0.1,0.8-0.1,1.6,0.1,2.5c0,0,0,0.1,0,0.1c0.1,0,0.1,0,0.2,0c0-0.9-0.1-1.7-0.1-2.6 c-0.4-4.2-0.8-8.5-1.3-12.7c-0.4-3.8-0.7-7.7-1.1-11.5c-0.5-4.9-1.1-9.8-1.3-14.8c-0.1-2.8-0.8-3.4-3.3-3.3 c-3.2,0.1-6.4,0.3-9.6,0.3c-0.8,0-2,0.5-2.5-0.7c-0.4-1-0.5-2-0.7-3c-0.1-0.6-0.2-1.1-0.8-1.4c0.9,1.2,0.8,2.6,1.1,4 C46.3,11.3,46.6,11.7,47.6,11.8z"/><path fill="#FFF" d="M48.1,12c3.4,0,6.8-0.2,10.2-0.3c2.4-0.1,3,0.5,3.1,2.9c0.2,5.6,1,11.2,1.6,16.8c0.4,0.9-0.1,1.9,0.3,2.9 c0,0.1,0,0.2,0,0.3c0.3,0.5-0.1,1.1,0.2,1.6c0,0.1,0,0.2,0,0.3c0.3,0.8-0.1,1.8,0.2,2.6c0,0.3,0,0.7,0,1c0.3,0.9-0.1,1.9,0.2,2.9 c0,0.1,0,0.2,0,0.3c0.3,0.7-0.1,1.4,0.3,2.1c0,0.1,0,0.2,0,0.3c0.4,0.8-0.1,1.8,0.2,2.6c0,0.1,0,0.2,0,0.3c0.3,0.8-0.1,1.6,0.2,2.4 c0,0.2,0,0.3,0,0.5c0.3,0.7-0.1,1.4,0.2,2.1c0,0.1,0,0.2,0,0.3c0.4,0.8-0.1,1.8,0.3,2.6l0,0c0,0,0.1,0,0.1,0c0,0,0-0.1,0-0.1 c-0.2-0.8,0-1.6-0.1-2.5c0-0.1-0.1-0.3-0.1-0.4c-0.2-0.7-0.1-1.3-0.1-2c0-0.2-0.1-0.4-0.1-0.6c-0.2-0.7,0-1.5-0.1-2.2 c0-0.1-0.1-0.3-0.1-0.4c-0.3-0.8-0.1-1.6-0.1-2.5c0-0.1-0.1-0.3-0.1-0.4c-0.3-0.7-0.1-1.4-0.2-2c0-0.1-0.1-0.3-0.1-0.4 C63.9,41.9,64,41,64,40.1c0-0.3,0-0.7-0.1-1c-0.4-0.9-0.1-1.8-0.2-2.7c0-0.1-0.1-0.3-0.1-0.4c-0.2-0.5,0-1.1-0.2-1.6 c0-0.1-0.1-0.3-0.1-0.4c-0.2-0.9,0-1.9-0.1-2.8c-0.3-1.4-0.4-2.8-0.5-4.1c-0.3-4.2-1-8.4-1.1-12.6c-0.1-2.9-0.9-3.1-3.2-3.1 c-3.6,0.1-7.2,0.4-10.8,0.3c-0.9,0-1.3-0.4-1.6-1.3c-0.4-1.3-0.2-2.8-1.1-4c0.3,1.2,0.7,2.4,0.9,3.7C46,11.5,46.7,12,48.1,12z"/><path fill="#FFF" d="M6.6,13.6L6.6,13.6c1-0.2,1.9-1.3,2.9,0c1.3-0.2,2.5,0,3.8-0.2c-0.2-0.2-0.3-0.4-0.2-0.7 c0.1-0.6,0.6-0.4,1.1-0.4c2.7,0.1,5.3-0.6,8-0.1c0.4,0.1,0.7-0.2,1-0.5c0,0,0-0.1,0-0.1c-0.1,0-0.2,0.1-0.3,0.1v0l0,0 c-0.6,0.4-1.2,0.1-1.8,0.1c-4.3,0.2-8.6,0.3-13,0.5c-0.6,0-1.1,0.1-1.5,0.7C6.6,13.2,6.6,13.4,6.6,13.6L6.6,13.6z"/><path fill="#FFF" d="M13.7,13.3c-0.2-0.4-0.5-0.7,0.3-0.7c2.5,0,5.1-0.3,7.6-0.2c0.8,0,1.5-0.1,1.7-1c-0.1,0-0.2,0.1-0.3,0.1 c0,0,0,0.1,0,0.1c-0.2,0.4-0.6,0.6-1,0.5c-2.7-0.5-5.3,0.2-8,0.1c-0.4,0-1-0.2-1.1,0.4c0,0.3,0.1,0.5,0.2,0.7 C13.5,13.4,13.6,13.3,13.7,13.3L13.7,13.3z"/><path fill="#FFF" d="M6.6,13.7c0,0-0.1-0.1-0.1-0.1c-0.1-0.2,0-0.4,0.1-0.6c-0.4,0.1-0.5,0.4-0.5,0.7C6.1,15.1,6,16.5,6,18 c-0.1,2.3-0.1,4.5-0.2,6.8C5.6,28.9,4.4,32.9,4.1,37c0,0.4,0,0.8-0.1,1.1c0.2-0.3,0.3-0.7,0.4-1.1c0-1.3,0.4-2.6,0.7-3.8l0,0 c0-0.3,0.1-0.6,0.1-0.9c0-0.1,0-0.2,0-0.3c0.2-2,0.5-4,0.7-6c0.4-3.3,0.2-6.6,0.5-9.9c0.1-0.7,0.2-1.4,0.2-2.1 C6.7,14,6.7,13.8,6.6,13.7z"/><path fill="#FFF" d="M6.5,13.5c0,0.1,0.1,0.1,0.1,0.1c0,0,0-0.1,0-0.1l0,0c0-0.2,0-0.4,0-0.6C6.5,13.2,6.5,13.3,6.5,13.5z"/><path fill="#FFF" d="M36.6,0.4c2,0.4,4,1.1,5.7,2.4c0.9,0.7,1.6,1.7,2.2,2.7c0-0.4-0.1-0.7-0.4-1.1c-2-2.6-4.7-3.6-7.8-4.2 c-3.2-0.6-5.6,0.6-7.9,2.4c0.7-0.4,1.5-0.8,2.3-1.3C32.5,0,34.4-0.1,36.6,0.4z"/><path fill="#FFF" d="M28.3 2.5L28.3 2.5 28.3 2.5z"/><path fill="#FFF" d="M35.4,0.4c3.7,0.5,6.8,1.9,9,5c-0.6-1-1.2-2-2.2-2.7c-1.7-1.3-3.6-2-5.7-2.4c-2.1-0.4-4.1-0.3-6,0.9 c-0.7,0.5-1.5,0.8-2.3,1.3l0,0l0,0c1.1-0.5,2.2-1,3.3-1.6C32.8,0.3,34,0.2,35.4,0.4z"/><path fill="#FFF" d="M28.4,2.5c-1.6,0.7-2.7,2-3.4,3.6c0,0.1,0,0.1,0,0.2C25.8,4.8,26.9,3.5,28.4,2.5z"/><path fill="#FFF" d="M25,6.3c0,0.1,0,0.1,0,0.2l0,0l0,0c0.9-1.5,2.1-2.8,3.3-4C26.9,3.5,25.8,4.8,25,6.3z"/><path fill="#FFF" d="M23.2,11.4C23.2,11.4,23.2,11.4,23.2,11.4c0.1-0.7,0.3-1.2,0.5-1.8c0.1-0.3,0.2-0.5,0.3-0.8 c0.2-0.4,0.3-0.9,0.4-1.3c0.1-0.4,0.3-0.7,0.4-1c0,0,0,0,0,0c-0.1-0.1,0-0.2,0-0.3c-1.1,1.7-1.7,3.6-2.1,5.6 C23,11.6,23.1,11.5,23.2,11.4z"/><path fill="#FFF" d="M23.4,11.5L23.4,11.5c0-0.6,0.1-1.2,0.3-1.8c-0.2,0.5-0.4,1.1-0.5,1.7c0,0,0,0.1,0,0.1 C23.3,11.4,23.3,11.4,23.4,11.5z"/><path fill="#FFF" d="M24.7,7.6L24.7,7.6c0.1-0.3,0.2-0.7,0.3-1c0,0-0.1-0.1-0.1-0.1c0,0,0,0,0,0c-0.1,0.4-0.3,0.7-0.4,1 C24.4,8,24.2,8.4,24,8.8C24.2,8.4,24.5,8,24.7,7.6L24.7,7.6z"/><path fill="#FFF" d="M23.2,11.6c0-0.1,0-0.1,0.1-0.2c-0.2,0-0.2,0.2-0.4,0.3v0C22.9,11.7,23.1,11.6,23.2,11.6z"/><path fill="#FFF" d="M23.2,11.4c0,0.1,0,0.1-0.1,0.2c0.1,0,0.2-0.1,0.3-0.1C23.3,11.4,23.3,11.4,23.2,11.4z"/><path fill="#FFF" d="M24.9,6.5c0,0,0-0.1,0.1-0.1c0-0.1,0-0.1,0-0.2C24.9,6.3,24.9,6.4,24.9,6.5z"/><path fill="#FFF" d="M25,6.6c0-0.1,0-0.1,0-0.2c0,0,0,0.1-0.1,0.1C24.9,6.5,25,6.5,25,6.6L25,6.6z"/><path fill="#FFF" d="M25.8 9.2L25.8 9.2 25.8 9.2z"/><path fill="#FFF" d="M68,87.1c-0.8-3.9-1.1-7.8-1.4-11.8c0.3-0.4,0.1-0.9,0.2-1.4c0-0.1,0-0.2,0-0.3c0-0.1,0-0.3-0.1-0.4 c-0.1-0.6-0.2-1.1-0.2-1.7c0-0.2,0-0.4,0-0.6c-0.2-0.8-0.2-1.6-0.2-2.4c0-0.2,0-0.4-0.1-0.6c-0.3-1.2-0.4-2.5-0.5-3.8 c0-0.1,0-0.3,0-0.4c-0.1-0.4-0.3-0.8-0.4-1.2c-0.3-0.1-0.4-0.4-0.5-0.6c-0.6-1.7-0.5-3.5-0.8-5.3c-1.1-5.8-1.8-11.7-2.3-17.6 c-0.4-4.8-1-9.5-1.2-14.3c-0.1-2.9-0.4-5.8-1-8.7c0-0.3,0-0.6-0.2-0.9c-0.9-1.1-2-1.6-3.4-1.5c-1.1,0.1-2.2,0-3.2,0 c-0.6,0-1.2,0.2-1.8,0.2c-1.7,0-3.4,0-5,0c-0.5,0-1.1,0-1.6,0.1c-0.6,0.1-1.3,0.2-2,0.2c-1-0.2-2-0.3-3-0.1 c-0.5,0.1-1.1,0.1-1.6,0.1c-0.6-0.1-1.2-0.1-1.8,0c-1.9,0-3.8-0.1-5.7,0c-0.7-0.1-1.4-0.3-2.2-0.1c-4,0-8.1,0.4-12.1-0.3 c-0.6-0.1-1.3-0.1-1.9-0.1c-0.2,0-0.3-0.1-0.5-0.2c-0.6,0.5-1.5,0.4-2.3,0.4c-0.5,0-1,0-1.5,0c-0.3-0.1-0.6-0.2-0.9-0.3 c-0.5,0.2-0.7,0.6-0.8,1.2c-0.3,1.5-0.6,3-0.6,4.5c0,0.4,0,0.9,0,1.3C7,24.4,6.9,28.1,6.9,31.9c0,0.6,0.1,1.3-0.3,1.8 c-0.2,0.6-0.1,1.2,0,1.8c0.3,0.5,0.2,1,0.3,1.6c0.3,0.3,0.7,0.4,1.1,0.5c0-0.7,0-1.4,0-2.2c-0.1-0.4-0.2-0.9-0.2-1.5 c0.2-4.7,0.3-9.5,0.7-14.2c0.1-1.2,0.2-2.3,0.5-3.5c0.2-0.8,0.7-1.4,1.5-1.4c1.9,0,3.8-0.4,5.7-0.2c2.5,0.4,5.1,0.5,7.7,0.5 c2.7-0.1,5.3-0.3,8-0.2c4.1,0.2,8.3-0.1,12.4-0.1c3.9,0,7.8-0.2,11.8-0.3c1.7,0,2.1,0.4,2.6,2c0.5,1.9,0.6,3.9,0.8,5.8 c0.4,4.7,0.7,9.4,1.2,14.1c0.5,5.8,1.2,11.5,2,17.3c0.5,2.9,0.8,5.9,1.1,8.8c0.6,6,1.4,12,2,18.1c0.3,3.2,1.2,6.4,1.2,9.7 c0,0.5,0.3,0.8,0.6,1.1C69,90,68.3,88.5,68,87.1z"/><path fill="#FFF" d="M63.9,90.9c-3.4-0.6-6.9,0-10.3,0.2c-4,0.2-8.1,0.5-12.1,0.7c-2.8,0.1-5.5-0.3-8.2-0.3c-0.6,0-1,0-1.4-0.1 c0,0,0,0,0,0c-0.7,0-1.4,0.1-2.1,0.1c0,0.1,0,0.3,0,0.4c0.1,0.6,0.4,1,1,0.9c3.1-0.5,6.1,0.2,9.1,0.2c6.6-0.1,13.1-0.7,19.7-1 c1.1-0.1,2.2,0,3.3,0.1c1.6,0.2,3.3,0.4,4.8-0.7c-0.1-0.1-0.2-0.2-0.3-0.3C66.3,90.4,65.1,91.1,63.9,90.9z"/><path fill="#FFF" d="M64.8,60.6c-0.5-5.8-1.8-11.5-2.3-17.3c-0.4-4.6-1-9.2-1.4-13.9c-0.3-4.6-0.4-9.2-1.3-13.7 c0-0.2,0-0.3,0-0.5c-0.4-1.6-1.4-2-2.9-1.9c-1.5,0.1-2.9,0-4.4,0c-0.4,0.3-0.9-0.1-1.3,0.3c-1.8,0-3.7,0-5.5,0 c-0.5,0.3-1,0.3-1.6,0c-0.6,0.1-1.2,0.2-1.8,0.2c-1-0.1-2.1,0.2-3.1-0.2c-0.5,0.2-1,0.3-1.6,0.3c-0.5,0-1,0-1.6,0l0,0l0,0 c-2,0-4-0.4-6,0c-0.5,0-1.1,0.1-1.6-0.3h0l0,0c-0.8,0.2-1.5,0.2-2.3,0.3c-4.1,0.2-8.2-0.3-12.3-0.5l0,0c-0.1,0.1-0.1,0.1-0.2,0.2 c0.1,0.1,0.3,0.1,0.5,0.2c0.6,0,1.3,0,1.9,0.1c4,0.7,8,0.4,12.1,0.3c0.7-0.2,1.4,0,2.2,0.1c1.9-0.1,3.8,0,5.7,0 c0.6-0.1,1.2-0.1,1.8,0c0.6,0,1.1,0,1.6-0.1c1-0.2,2-0.1,3,0.1c0.7,0.1,1.3-0.1,2-0.2c0.5-0.1,1-0.1,1.6-0.1c1.7,0,3.4,0,5,0 c0.6,0,1.2-0.3,1.8-0.2c1.1,0,2.2,0.1,3.2,0c1.4-0.1,2.5,0.4,3.4,1.5c0.1,0.3,0.2,0.6,0.2,0.9c0.6,2.9,0.9,5.8,1,8.7 c0.1,4.8,0.8,9.5,1.2,14.3c0.5,5.9,1.2,11.8,2.3,17.6c0.3,1.7,0.3,3.6,0.8,5.3c0.2,0.2,0.3,0.6,0.5,0.6c-0.1-0.3-0.1-0.5-0.2-0.8 C65,61.4,64.8,61,64.8,60.6z"/><path fill="#FFF" d="M8.9,13.7c0.3,0.1,0.6,0.2,0.9,0.3c0.5,0,1,0,1.5,0c0.8,0,1.6,0.1,2.3-0.4c-0.1,0-0.1-0.1-0.2-0.1 c-1.3,0.2-2.6-0.1-3.8,0.2l0,0C9.3,13.6,9.1,13.6,8.9,13.7z"/><path fill="#FFF" d="M13.7,13.3c-0.1,0-0.3,0.1-0.4,0.1c0.1,0,0.1,0.1,0.2,0.1C13.6,13.5,13.7,13.4,13.7,13.3z"/><path fill="#FFF" d="M35.3,2c1.8,0.3,3.5,0.8,5.1,1.7c0,0,0,0,0,0l0,0l0,0l0,0l0,0c-1.7-1.4-3.8-1.8-5.9-1.9 c-2.3-0.1-4.1,1.1-5.5,2.9c0,0,0,0,0,0C30.8,3,32.7,1.6,35.3,2z"/><path fill="#FFF" d="M29 4.7L29 4.7 29 4.7z"/><path fill="#FFF" d="M29,4.7L29,4.7L29,4.7C29,4.7,29,4.7,29,4.7c0.4-0.1,0.7-0.5,1-0.7c2-1.6,4.1-2.5,6.6-1.6 c1.3,0.4,2.5,0.9,3.8,1.3c0,0,0,0,0,0c-1.6-0.9-3.3-1.5-5.1-1.7C32.7,1.6,30.8,3,29,4.7C29,4.7,29,4.7,29,4.7L29,4.7z"/><path fill="#FFF" d="M40.4 3.7L40.4 3.7 40.4 3.7z"/><path fill="#FFF" d="M24.7,7.6c-0.5,1.3-1.1,2.6-1.3,3.9C23.9,10.2,24.6,9,24.7,7.6z"/><path fill="#FFF" d="M23.7,9.6c0.1-0.3,0.2-0.5,0.3-0.8C23.9,9.1,23.8,9.4,23.7,9.6z"/><path fill="#FFF" d="M24.7,7.6L24.7,7.6C24.5,8,24.2,8.4,24,8.8c-0.1,0.3-0.2,0.5-0.3,0.8c-0.2,0.6-0.3,1.2-0.3,1.8 C23.7,10.1,24.3,8.9,24.7,7.6z"/><path fill="#FFF" d="M42.6,5.9C42.6,5.9,42.6,6,42.6,5.9C42.7,6,42.7,6,42.8,6c-0.7-0.8-1.2-2-2.4-2.3c0,0,0,0,0,0 C41.3,4.2,41.8,5.3,42.6,5.9z"/><path fill="#FFF" d="M40.4,3.7c0.7,0.8,1.4,1.5,2.1,2.3l0,0c0,0,0.1,0,0.1,0c0,0,0-0.1,0-0.1C41.8,5.3,41.3,4.2,40.4,3.7 C40.4,3.7,40.4,3.7,40.4,3.7C40.4,3.7,40.4,3.7,40.4,3.7z"/><path fill="#FFF" d="M40.4 3.7L40.4 3.7 40.4 3.7z"/><path fill="#FFF" d="M40.4 3.7L40.4 3.7 40.4 3.7z"/><path fill="#FFF" d="M40.4,3.7C40.4,3.7,40.4,3.7,40.4,3.7L40.4,3.7L40.4,3.7C40.4,3.7,40.4,3.7,40.4,3.7z"/><path fill="#FFF" d="M27.3,6.5L27.3,6.5L27.3,6.5c-0.6,0.8-1.4,1.6-1.5,2.7l0,0c0.4-1,1.1-1.8,1.7-2.7 C27.4,6.5,27.4,6.5,27.3,6.5z"/><path fill="#FFF" d="M25.8,9.1L25.8,9.1C25.8,9.2,25.8,9.2,25.8,9.1C25.8,9.2,25.8,9.2,25.8,9.1z"/><path fill="#FFF" d="M25.8,9.2c0.6-0.9,1.2-1.8,1.8-2.6c-0.1,0-0.1,0-0.2,0C27,7.4,26.2,8.2,25.8,9.2L25.8,9.2L25.8,9.2 C25.8,9.1,25.8,9.2,25.8,9.2z"/><path fill="#FFF" d="M25.8,9.2C25.8,9.2,25.8,9.2,25.8,9.2c-0.5,0.8-0.7,1.7-0.2,2.6C25.4,10.8,25.6,10,25.8,9.2z"/><path fill="#FFF" d="M25.8,9.2c-0.2,0.8-0.4,1.7-0.2,2.6C25.7,10.9,25.8,10,25.8,9.2C25.8,9.2,25.8,9.2,25.8,9.2z"/><path fill="#FFF" d="M25.8,9.1C25.8,9.2,25.8,9.2,25.8,9.1C25.8,9.2,25.8,9.2,25.8,9.1C25.8,9.2,25.8,9.1,25.8,9.1z"/><path fill="#FFF" d="M25.8 9.2L25.8 9.1 25.8 9.2z"/><path fill="#FFF" d="M27.5,6.4c0.5-0.6,0.8-1.2,1.4-1.7c0,0,0,0,0,0l0,0l0,0l0,0c0,0,0,0,0,0c-0.8,0.3-1.1,1.1-1.6,1.8 C27.4,6.4,27.5,6.4,27.5,6.4z"/><path fill="#FFF" d="M28.9 4.7L28.9 4.7 28.9 4.7z"/><path fill="#FFF" d="M28.9,4.7c-0.6,0.5-0.9,1.2-1.4,1.7c0,0,0.1,0,0.1,0.1C28.2,6,28.7,5.5,28.9,4.7C29,4.7,29,4.7,28.9,4.7z"/><path fill="#FFF" d="M29,4.7L29,4.7C28.9,4.7,28.9,4.7,29,4.7C29,4.7,29,4.7,29,4.7L29,4.7z"/><path fill="#FFF" d="M28.9,4.7C29,4.7,29,4.7,28.9,4.7C29,4.7,29,4.7,28.9,4.7C29,4.7,28.9,4.7,28.9,4.7L28.9,4.7z"/><path fill="#FFF" d="M29,4.7C29,4.7,29,4.7,29,4.7C29,4.7,29,4.7,29,4.7C29,4.7,29,4.7,29,4.7z"/><path fill="#FFF" d="M29,4.7C29,4.7,29,4.7,29,4.7C29,4.7,29,4.7,29,4.7L29,4.7L29,4.7L29,4.7z"/><path fill="#FFF" d="M27.5,6.5C27.5,6.5,27.5,6.5,27.5,6.5C27.5,6.5,27.5,6.4,27.5,6.5c0-0.1-0.1-0.1-0.2,0l0,0 C27.4,6.5,27.4,6.5,27.5,6.5z"/><path fill="#FFF" d="M27.5,6.4C27.5,6.4,27.5,6.5,27.5,6.4C27.5,6.5,27.5,6.5,27.5,6.4c0,0.1,0.1,0.1,0.1,0.1 C27.6,6.5,27.6,6.5,27.5,6.4z"/><path fill="#FFF" d="M42.3,13.8c-1-0.5-2.1-0.2-3.1-0.2C40.1,13.9,41.2,13.5,42.3,13.8z"/><path fill="#FFF" d="M42.3,13.8c-1-0.3-2.1,0.1-3.1-0.2C40.1,14,41.2,13.7,42.3,13.8z"/><path fill="#FFF" d="M30,13.8c-0.4-0.5-1-0.3-1.6-0.3C28.9,13.8,29.5,13.5,30,13.8z"/><path fill="#FFF" d="M30,13.8c-0.5-0.3-1.1,0-1.6-0.3h0C28.9,13.9,29.4,13.8,30,13.8z"/><path fill="#FFF" d="M37.5,13.8c-0.5-0.3-1-0.3-1.6,0C36.5,13.6,37,13.6,37.5,13.8z"/><path fill="#FFF" d="M37.5,13.8c-0.5-0.2-1-0.2-1.6,0l0,0C36.5,13.8,37,13.8,37.5,13.8z"/><path fill="#FFF" d="M42.7,6.1c0.1,0.3,0.2,0.7,0.4,1c-0.1-0.4-0.2-0.7-0.3-1.1l0,0l0,0C42.7,6.1,42.7,6.1,42.7,6.1z"/><path fill="#FFF" d="M42.5,6L42.5,6c0.1,0.4,0.1,0.8,0.6,1c-0.2-0.3-0.3-0.6-0.4-1C42.6,6.1,42.5,6.1,42.5,6z"/><path fill="#FFF" d="M42.7,6.1c0,0,0.1,0,0.1-0.1l0,0c-0.1,0-0.1,0-0.2,0C42.6,6,42.6,6.1,42.7,6.1z"/><path fill="#FFF" d="M42.7,6.1c0,0,0-0.1,0-0.1c0,0-0.1,0-0.1,0C42.5,6.1,42.6,6.1,42.7,6.1z"/><path fill="#FFF" d="M45.7,13.6c-0.5,0-1,0-1.6,0C44.6,13.8,45.1,13.8,45.7,13.6z"/><path fill="#FFF" d="M45.7,13.6c-0.5,0.2-1,0.2-1.6,0C44.6,13.9,45.1,13.9,45.7,13.6z"/><path fill="#FFF" d="M5.7,33c0,0-0.1,0-0.1,0c-0.2,1.1-0.5,2.2-0.7,3.3c0.1-0.2,0.2-0.3,0.3-0.5C5.8,35,5.5,34,5.7,33z"/><path fill="#FFF" d="M4.8,37c0-0.1-0.1-0.1-0.1-0.2c0,0.2,0,0.5-0.1,0.7c0,0.5-0.2,0.9-0.5,1.3C5,38.5,5.6,38.1,4.8,37z"/><path fill="#FFF" d="M69.7,89.5c-0.3-0.4-0.4-0.8-0.5-1.3c-0.3-2.1-0.5-4.2-0.8-6.3c-0.4-2.8-0.9-5.6-1.3-8.4 c-0.2,0.1-0.3,0.3-0.4,0.5c0.1,0.4,0.2,0.8,0.2,1.2c0,0.1,0,0.3,0,0.4c0.5,3.5,0.8,7,1.4,10.4c0.2,1.1,0.2,2.3,0.5,3.4 c0.2,0.8,0.1,1.8-1.2,1.9c0,0-0.1-0.1-0.1-0.1c0,0,0,0,0,0l0,0c0,0,0,0,0,0c0,0,0,0.1,0.1,0.1c0,0.8-0.6,0.9-1.2,1 c-0.7,0.1-1.4,0.1-2.2,0.1c-6.2,0-12.4,0.3-18.6,0.6c-3,0.2-6,0.2-8.9,0.2c-2,0-3.9,0-5.9,0.1c-1.1,0.1-1.5-0.6-1.6-1.5 c0-0.1,0-0.3,0-0.4c-0.1,0-0.2,0-0.3,0c0,0.3,0,0.6,0.1,0.9c0,0.3,0,0.5,0,0.8c0,0.5,0.1,1.1,0.2,1.6c0.3,0,0.7,0,1,0 c0.2-0.4,0.7-0.5,1.2-0.6c2.4-0.5,4.8-0.3,7.2-0.5c0.7-0.1,1.5-0.2,2.2-0.2c5.1,0.3,10.1-0.5,15.2-0.3c3.8,0.1,7.6-0.5,11.5-0.2 c0.8,0,1.8,0.2,2.1-0.7C70.1,91.4,70.5,90.4,69.7,89.5z"/><path fill="#FFF" d="M5.5,33c-0.1,0-0.1,0-0.2-0.1c-0.1,0.1-0.2,0.2-0.3,0.3v0l0,0c-0.3,1.3-0.7,2.5-0.7,3.8 c0,0.5-0.1,0.8-0.4,1.1c0,0.3-0.1,0.6-0.1,0.9C3.9,39,4,39,4,38.9c0.1,0,0.1-0.1,0.2-0.1c0.3-0.3,0.5-0.7,0.5-1.3 c0-0.2,0-0.5,0.1-0.7c-0.1-0.2,0-0.4,0.1-0.6C5,35.2,5.3,34.1,5.5,33z"/><path fill="#FFF" d="M66.6,75.3c0.3,3.9,0.7,7.9,1.4,11.8c0.3,1.3,0.9,2.9-0.4,4.2c0,0,0.1,0.1,0.1,0.1c1.2-0.1,1.3-1.1,1.2-1.9 c-0.2-1.1-0.3-2.3-0.5-3.4c-0.7-3.4-0.9-6.9-1.4-10.4c0-0.1,0-0.3,0-0.4c0-0.4-0.2-0.8-0.2-1.2C66.7,74.4,66.9,75,66.6,75.3z"/><path fill="#FFF" d="M67.6,91.3c-1.5,1-3.1,0.8-4.8,0.7c-1.1-0.1-2.2-0.2-3.3-0.1c-6.6,0.3-13.1,0.9-19.7,1 c-3,0-6.1-0.6-9.1-0.2c-0.6,0.1-1-0.3-1-0.9c0-0.1,0-0.3,0-0.4c-0.1,0-0.3,0-0.4,0c0,0.1,0,0.3,0,0.4c0.1,0.9,0.5,1.6,1.6,1.5 c2-0.1,3.9-0.1,5.9-0.1c3,0,6,0,8.9-0.2c6.2-0.4,12.4-0.7,18.6-0.6c0.7,0,1.4,0,2.2-0.1C67.2,92.3,67.7,92.2,67.6,91.3 C67.7,91.4,67.7,91.4,67.6,91.3z"/><path fill="#FFF" d="M8,13.6c-0.2,0-0.3,0.1-0.5,0.2c-0.1,0.1-0.4,0.1-0.6,0c0.2,0.2,0.3,0.4,0.4,0.6c0,0.4,0,0.8,0,1.1 c0-0.3,0.1-0.6,0.2-0.9C7.6,14.2,7.8,13.8,8,13.6z"/><path fill="#FFF" d="M6.1,33.1c0,0.2,0,0.4,0,0.5c0-0.1,0-0.1,0-0.2c0.2-0.6-0.1-1.2,0.1-1.7c0.4-1.4,0.1-2.9,0.2-4.4 c0.1-1.9,0.4-3.9,0.5-5.8c0-0.3,0-0.6-0.1-0.9c0-0.4,0.1-0.9,0.1-1.3c0.1-0.8,0.1-1.6,0.1-2.5c-0.2,1.2-0.5,2.5-0.5,3.7 c-0.1,2.6,0,5.1-0.3,7.7c-0.2,1.5-0.3,2.9-0.7,4.4C6,32.5,6.2,32.8,6.1,33.1z"/><path fill="#FFF" d="M6.4,37.3c-0.2-0.5-0.3-1-0.4-1.6c0-0.1,0-0.2,0-0.3c0,0.2-0.1,0.4-0.3,0.6c-0.2,0.3-0.2,0.7-0.1,1 c0.4,1.1-0.2,1.8-1.1,2.4C4.3,39.6,4,39.8,3.7,40c0,0.2-0.1,0.4-0.1,0.6c0,0.5,0,1.1,0,1.6c0.1-0.1,0.2-0.2,0.3-0.2 c0.4-0.4,0.9-0.6,1.4-0.9l0,0c0.6-0.7,1.4-0.7,2.2-1l0,0c0.2-0.1,0.4-0.1,0.5-0.2c0-0.5,0-1.1,0-1.6C7.4,38.2,6.8,38,6.4,37.3z"/><path fill="#FFF" d="M6.9,13.9c0.2,0.1,0.5,0,0.6,0c0.2-0.1,0.3-0.2,0.5-0.2c0.3-0.3,0.8-0.3,1.5,0h0c-1-1.3-1.9-0.2-2.9,0v0 C6.7,13.7,6.8,13.8,6.9,13.9z"/><path fill="#FFF" d="M5.2,32.3c0-0.1,0-0.2,0-0.3C5.2,32.2,5.2,32.3,5.2,32.3z"/><path fill="#FFF" d="M6.6,17.8C6.4,21.3,6.5,24.8,6,28.2c-0.2,1.5-0.5,3-0.7,4.5c0.1-0.1,0.2-0.1,0.3-0.1 c0.3-1.4,0.5-2.9,0.7-4.4c0.3-2.5,0.2-5.1,0.3-7.7c0-1.3,0.3-2.5,0.5-3.7c0-0.4,0.1-0.8,0.1-1.2c0-0.4,0-0.8,0-1.1 c0-0.3-0.2-0.5-0.4-0.6c-0.1,0-0.2-0.1-0.3-0.2c0,0.1,0,0.3,0,0.4C6.9,15.3,6.7,16.6,6.6,17.8z"/><path fill="#FFF" d="M6.6,13.6c0,0,0,0.1,0,0.1c0.1,0.1,0.2,0.1,0.3,0.2C6.8,13.8,6.7,13.7,6.6,13.6z"/><path fill="#FFF" d="M8,37.6c-0.4-0.1-0.8-0.2-1.1-0.5c-0.4-0.5-0.4-1-0.3-1.6c-0.1-0.6-0.2-1.2,0-1.8c-0.1-0.6-0.3-1.3,0.3-1.8 h0c0-3.8,0.1-7.5,0.5-11.3c-0.3-0.4-0.3-0.9,0-1.3l0,0c0-1.5,0.3-3,0.6-4.5c0.1-0.6,0.4-1,0.8-1.2c-0.3-0.1-0.5-0.1-0.8-0.1 c-0.2,0.2-0.4,0.6-0.6,1.1c-0.1,0.3-0.1,0.6-0.2,0.9c0,0.4-0.1,0.8-0.1,1.2c-0.1,0.8-0.1,1.6-0.1,2.5c0,0.4-0.1,0.9-0.1,1.3 c0,0.3,0.1,0.6,0.1,0.9c-0.1,1.9-0.4,3.9-0.5,5.8c-0.1,1.5,0.2,2.9-0.2,4.4c-0.3,0.6,0.1,1.2-0.1,1.7c0,0.1,0,0.1,0,0.2 c0,0.6,0.1,1.2,0,1.8c0,0.1,0,0.2,0,0.3c0,0.5,0.1,1.1,0.4,1.6c0.4,0.6,1,0.8,1.6,0.9C8,38,8,37.8,8,37.6z"/><path fill="#FFF" d="M8,13.6c0.3-0.1,0.6,0,0.8,0.1c0.2-0.1,0.4-0.1,0.7-0.1l0,0h0C8.8,13.3,8.4,13.3,8,13.6z"/><path fill="#FFF" d="M7.1,16.8c0.1-0.4,0.1-0.8,0.1-1.2C7.2,16,7.2,16.4,7.1,16.8z"/><path fill="#FFF" d="M6.1,33.1c0.1-0.4-0.2-0.6-0.5-0.5c0,0.1-0.1,0.2-0.1,0.3c0,0,0,0,0,0c0.1,0,0.1,0,0.1,0 C5.5,34,5.8,35,5.2,35.8c-0.1,0.1-0.2,0.3-0.3,0.5c0,0.2-0.1,0.4-0.1,0.6c0,0.1,0,0.1,0.1,0.2c0.7,1.1,0.1,1.5-0.7,1.9 C4.1,39,4,39.1,3.8,39.2c0,0.3-0.1,0.5-0.1,0.8c0.3-0.2,0.6-0.4,0.9-0.6c0.9-0.5,1.5-1.2,1.1-2.4c-0.1-0.4-0.1-0.7,0.1-1 c0.1-0.2,0.2-0.4,0.3-0.6c0-0.6-0.1-1.2,0-1.8C6.1,33.5,6.1,33.3,6.1,33.1z"/><path fill="#FFF" d="M5.6,32.6c-0.1,0-0.2,0.1-0.3,0.1c0,0.1,0,0.1,0,0.2c0.1,0,0.1,0,0.2,0.1c0,0,0,0,0,0 C5.6,32.9,5.6,32.7,5.6,32.6z"/><path fill="#FFF" d="M4.8,36.8c0-0.2,0-0.4,0.1-0.6C4.8,36.4,4.7,36.7,4.8,36.8z"/><path fill="#FFF" d="M6.1,35.4c0.1-0.6,0-1.2,0-1.8C6,34.3,6.1,34.9,6.1,35.4z"/><path fill="#FFF" d="M5.2,32.3c0,0.3-0.1,0.6-0.1,0.9c0.1-0.1,0.1-0.2,0.2-0.4C5.2,32.7,5.2,32.5,5.2,32.3z"/><path fill="#FFF" d="M6.3,20.5c0.1-2.1,0.1-4.3,0.3-6.4c-0.1,0.7-0.2,1.4-0.2,2.1c-0.3,3.3-0.1,6.6-0.5,9.9c-0.2,2-0.5,4-0.7,6 c0,0,0-0.1,0-0.1C6.1,28.2,6.2,24.3,6.3,20.5z"/><path fill="#FFF" d="M5.4,32.9C5.3,32.9,5.3,32.9,5.4,32.9c-0.1,0-0.2,0.2-0.3,0.3l0,0C5.2,33.1,5.3,33,5.4,32.9z"/><path fill="#FFF" d="M5.3,32.8c0,0,0-0.1,0.1-0.1c0,0,0,0,0,0c0.2-1.5,0.5-3,0.7-4.5c0.4-3.5,0.4-6.9,0.6-10.4 c0.1-1.2,0.3-2.5,0-3.7c-0.2,2.1-0.3,4.3-0.3,6.4c-0.1,3.9-0.2,7.7-1.1,11.5c0,0,0,0.1,0,0.1c0,0.1,0,0.2,0,0.3 C5.2,32.5,5.2,32.7,5.3,32.8z"/><path fill="#FFF" d="M5.4,32.7c0,0,0,0.1-0.1,0.1c0,0,0,0.1,0.1,0.1C5.4,32.9,5.4,32.8,5.4,32.7C5.4,32.7,5.4,32.7,5.4,32.7z"/><path fill="#FFF" d="M6.7,33.7c0.3-0.6,0.2-1.2,0.3-1.8l0,0C6.5,32.5,6.9,33.1,6.7,33.7z"/><path fill="#FFF" d="M6.7,33.7c0.3-0.6-0.1-1.3,0.3-1.8C6.4,32.4,6.6,33.1,6.7,33.7z"/><path fill="#FFF" d="M6.9,37.1c0-0.5,0.1-1.1-0.3-1.6C6.9,36.1,6.6,36.7,6.9,37.1z"/><path fill="#FFF" d="M6.9,37.1c-0.3-0.5,0-1.1-0.3-1.6C6.5,36.1,6.5,36.7,6.9,37.1z"/><path fill="#FFF" d="M7.4,20.6c0-0.4,0-0.9,0-1.3C7.2,19.8,7.2,20.2,7.4,20.6z"/><path fill="#FFF" d="M7.4,20.6c-0.2-0.4-0.2-0.9,0-1.3v0C7.2,19.8,7.2,20.2,7.4,20.6z"/><path fill="#FFF" d="M28.8,93C28.8,93,28.8,93,28.8,93C28.7,93,28.7,93,28.8,93C28.7,93.1,28.7,93.1,28.8,93 C28.8,93.1,28.8,93,28.8,93z"/><path fill="#FFF" d="M28.8,93C28.8,93,28.8,93.1,28.8,93c0,0.1,0.1,0.1,0.1,0.1c0.1,0,0.2,0,0.3,0v0C29.1,93.1,28.9,93,28.8,93z"/><path fill="#FFF" d="M5.4,41.1C5.4,41.1,5.4,41.1,5.4,41.1C5.5,41.1,5.5,41.1,5.4,41.1c0-0.1-0.1-0.1-0.1-0.1l0,0 C5.3,41,5.4,41.1,5.4,41.1z"/><path fill="#FFF" d="M3.8,36C3.7,55.3,0.2,74.4,0.1,93.7c0,1.6,2.5,1.6,2.5,0C2.7,74.4,6.2,55.3,6.3,36 C6.3,34.4,3.8,34.4,3.8,36L3.8,36z"/><path fill="#FFF" d="M1.2,95.8c10-0.1,20-1.3,30-1.3c1.6,0,1.6-2.5,0-2.5c-10,0.1-20,1.3-30,1.3C-0.4,93.3-0.4,95.8,1.2,95.8 L1.2,95.8z"/><path fill="#FFF" d="M5.5,39.6C5.3,49,4,59,2.5,68.3c-1.3,8.6-2.2,16.6-2.2,25.3c0,1.6,2.5,1.6,2.5,0c0-4.2-0.1-8.3,0.2-12.5 c0.3-4.8,1.6-9.5,2.2-14.3c1.2-9,2.6-18.2,2.7-27.2C8,38,5.5,38,5.5,39.6L5.5,39.6z"/><path fill="#FFF" d="M2,94c10.1,0,20.1,0.4,30.1,0.6c1.6,0,1.6-2.5,0-2.5C22.1,91.8,12.1,91.5,2,91.5C0.4,91.5,0.4,94,2,94 L2,94z"/><path fill="#FFF" d="M31.4,91.5c-4.1,0-8.2,0.5-12.4,0.5c-1.6,0-1.6,2.5,0,2.5c4.1,0,8.2-0.5,12.4-0.5 C33,94,33,91.5,31.4,91.5L31.4,91.5z"/><path fill="#FFF" d="M23.3,95.5c3.3,0,6.7-0.1,10-0.7c1.6-0.3,0.9-2.7-0.7-2.4C29.5,93,26.4,93,23.3,93 C21.6,93,21.6,95.5,23.3,95.5L23.3,95.5z"/><path fill="#FFF" d="M23.5,93.1c-3.1,0-6.3-0.1-9.3-1.1c-1.5-0.5-2.2,1.9-0.7,2.4c3.2,1,6.6,1.2,10,1.2 C25.1,95.6,25.1,93.1,23.5,93.1L23.5,93.1z"/><path fill="#FFF" d="M6.3,39.2c0-2.4,0.1-4.6,1.5-6.7c0.9-1.3-1.3-2.6-2.2-1.3c-1.6,2.4-1.8,5.1-1.8,8 C3.8,40.8,6.3,40.8,6.3,39.2L6.3,39.2z"/></svg>