<svg id="Слой_1" xmlns="http://www.w3.org/2000/svg" viewBox="0 0 66.6 94.8"><path fill="#FFF" d="M66,88.9c-0.2-0.3-0.2-0.7-0.3-1.1c-0.7-4.7-1.3-9.4-1.9-14.2c-0.4-3.1-0.8-6.3-1.2-9.4 c-0.3-2.7-0.6-5.3-0.9-8c-0.1-0.1-0.2-0.1-0.3,0c0.1,1.3,0.2,2.6,0.3,3.9c0.3,0.5,0.2,1,0.1,1.5c-0.3,1.8,0,3.6,0.2,5.4 c0,0.1,0,0.3,0.1,0.4c0.1,0.4,0.2,0.9,0.2,1.3c0,0.2,0,0.4,0,0.6c0.1,0.6,0.2,1.1,0.2,1.7c0,0.1,0,0.3,0,0.4 c0.1,0.6,0.2,1.2,0.2,1.8c0,0.1,0,0.3,0.1,0.4c0.3,2.4,0.6,4.7,0.9,7.1c0.3,2.9,0.8,5.7,1.3,8.6c0.4,2.2,0.2,2.7-2.1,2.9 c-2,0.2-4.1-0.2-6.1,0c-4.2,0.4-8.5,0.1-12.8,0.5c-3.4,0.3-6.8,0.2-10.2,0.3c-2.2,0.1-4.4-0.2-6.6,0.3c-0.1,0-0.1,0-0.2,0.1 c0,0.4,0,0.8,0,1.1c0.2-0.1,0.3-0.1,0.6-0.1c1.7,0,3.4-0.3,5.1-0.4c4.3-0.3,8.6-0.2,12.8-0.5c3.4-0.2,6.8,0,10.2-0.2 c2.8-0.2,5.6-0.3,8.5,0c1.5,0.1,2-0.5,2.2-2C66.7,90.5,66.7,89.7,66,88.9z"/><path fill="#FFF" d="M61.9,68c-0.4-1.3-0.4-2.6-0.5-3.9c0.2-0.1,0.1-0.2,0-0.3c-0.4-0.7-0.2-1.4-0.3-2.1 c0.2,0.1,0.3,0.6,0.5,0.1c0.1-0.5,0-1.1,0-1.7c0.5,1.1,0.2,2.4,0.4,3.6c0.3,1.2,0.2,2.5,0.3,3.7C62.2,67.7,62.1,67.9,61.9,68z"/><path fill="#FFF" d="M59.8,40c0.4,0.9,0.2,1.9,0.2,2.9C59.6,42,59.8,41,59.8,40z"/><path fill="#FFF" d="M59.5,36.3c0.4,0.8,0.2,1.7,0.2,2.6C59.4,38.1,59.5,37.2,59.5,36.3z"/><path fill="#FFF" d="M59,31.4c0.4,0.9,0.2,1.9,0.3,2.9C58.8,33.3,59.1,32.3,59,31.4z"/><path fill="#FFF" d="M60.3,45.5c0.4,0.8,0.2,1.7,0.2,2.6C60.1,47.3,60.3,46.4,60.3,45.5z"/><path fill="#FFF" d="M61.1,53.6c0.4,0.8,0.2,1.7,0.3,2.6C60.9,55.4,61.1,54.5,61.1,53.6z"/><path fill="#FFF" d="M60.6,48.4c0.4,0.8,0.2,1.6,0.2,2.4C60.4,50,60.6,49.2,60.6,48.4z"/><path fill="#FFF" d="M60.8,51.3c0.4,0.7,0.2,1.4,0.2,2.1C60.7,52.7,60.8,52,60.8,51.3z"/><path fill="#FFF" d="M60,43.2c0.4,0.7,0.2,1.4,0.3,2.1C59.9,44.6,60.1,43.9,60,43.2z"/><path fill="#FFF" d="M48.5,13.3c-0.4,0.3-0.9,0.3-1.3,0.3C47.6,13.2,48,13.2,48.5,13.3z"/><path fill="#FFF" d="M59.2,34.5c0.3,0.5,0.2,1,0.2,1.6C59.2,35.6,59.2,35,59.2,34.5z"/><path fill="#FFF" d="M55.8,15.7c-0.1-0.2-0.1-0.3,0-0.5C56.2,15.3,56.1,15.5,55.8,15.7z"/><path fill="#FFF" d="M63.2,73.5c-0.1,0.6,0.2,1.4-0.5,1.8c0-0.1,0-0.2,0-0.3c-0.3-0.5,0.1-1.1-0.3-1.6c-0.3-0.6,0.1-1.3-0.3-1.8 c0-0.2,0-0.3,0-0.5c-0.4-0.8,0.1-1.8-0.3-2.6c0-0.2,0-0.3,0-0.5c0-0.2,0-0.3,0-0.5c0-0.2-0.1-0.5,0.2-0.5c0.1,0,0.2,0.3,0.3,0.5 c0.3,0.4-0.1,0.9,0.3,1.3c0,0.2,0,0.3,0,0.5c0.3,0.6-0.1,1.3,0.3,1.8c0,0.1,0,0.2,0,0.3c0.3,0.6-0.1,1.3,0.3,1.8 C63.2,73.3,63.2,73.4,63.2,73.5z"/><path fill="#FFF" d="M62.9,71.2c-0.3-0.6-0.3-1.2-0.3-1.8C63,69.9,62.9,70.5,62.9,71.2z"/><path fill="#FFF" d="M63.2,73.3c-0.4-0.6-0.2-1.2-0.3-1.8C63.3,72,63.1,72.6,63.2,73.3z"/><path fill="#FFF" d="M62.6,68.8c-0.3-0.4-0.3-0.9-0.3-1.3C62.6,67.9,62.6,68.3,62.6,68.8z"/><path fill="#FFF" d="M61.9,68.5c0.4,0.8,0.2,1.7,0.3,2.6C61.7,70.3,61.9,69.4,61.9,68.5z"/><path fill="#FFF" d="M62.1,71.7c0.4,0.6,0.2,1.2,0.3,1.8C62,72.9,62.1,72.3,62.1,71.7z"/><path fill="#FFF" d="M62.4,73.5c0.3,0.5,0.3,1,0.3,1.6C62.3,74.6,62.4,74.1,62.4,73.5z"/><path fill="#FFF" d="M63.4,91.3c0-0.4,0.2-0.8,0.6-1c-0.1,0.4-0.2,0.7-0.3,1.1l0,0C63.6,91.3,63.5,91.3,63.4,91.3z"/><path fill="#FFF" d="M61.3,63.8c0.3,0,0.5,0.1,0.4,0.4c-0.1,0.2-0.3,0-0.4-0.1C61.3,64,61.3,63.9,61.3,63.8z"/><path fill="#FFF" d="M24.4 2.5L24.4 2.5 24.4 2.5z"/><path fill="#FFF" d="M21.1,6.6c-0.1,0.3-0.2,0.7-0.3,1v0c-0.1,1.4-0.8,2.6-1.3,3.9l0,0c-0.3,0.9-0.9,1-1.7,1 c-2.5-0.1-5.1,0.2-7.6,0.2c-0.8,0-0.5,0.3-0.3,0.7l0,0l0,0c4.1,0.2,8.2,0.7,12.3,0.5c0.8,0,1.6-0.1,2.3-0.3l0,0 c0.6-0.1,1.1-0.3,1.6,0.3c2-0.4,4,0,6,0l0,0c0.5-0.3,1-0.3,1.6,0c0.5,0,1.1,0,1.6-0.3c1,0.1,2.1-0.2,3.1,0.2 c0.6-0.1,1.2-0.2,1.8-0.2c0.5,0,1,0,1.6,0c1.8,0,3.7,0,5.5,0c0.4-0.3,0.9,0,1.3-0.3c1.5,0,3,0.1,4.4,0c1.5-0.1,2.5,0.3,2.9,1.9 c0,0.2,0,0.3,0,0.5c1,4.5,1,9.1,1.3,13.7c0.4,4.6,1,9.2,1.4,13.9c0.5,5.8,1.8,11.5,2.3,17.3c0,0.4,0.2,0.8,0.2,1.2 c0.1,0.3,0.1,0.5,0.2,0.8c0.1,0,0.2,0,0.3,0c0.4-0.1,0.4-0.6,0.4-1c0-0.4,0-0.8-0.1-1.3c0-1.3-0.4-2.5-0.4-3.7 c0-0.1-0.1-0.2-0.1-0.3c0,0-0.1,0-0.1,0l0,0c-0.4-0.8,0.1-1.8-0.3-2.6c0-0.1,0-0.2,0-0.3c-0.3-0.7,0.1-1.4-0.2-2.1 c0-0.2,0-0.3,0-0.5c-0.3-0.8,0.1-1.6-0.2-2.4c0-0.1,0-0.2,0-0.3c-0.3-0.8,0.1-1.8-0.2-2.6c0-0.1,0-0.2,0-0.3 c-0.3-0.7,0.1-1.4-0.3-2.1c0-0.1,0-0.2,0-0.3c-0.3-0.9,0.1-1.9-0.2-2.9c0-0.3,0-0.7,0-1c-0.3-0.9,0.1-1.8-0.2-2.6 c0-0.1,0-0.2,0-0.3c-0.3-0.5,0.1-1.1-0.2-1.6c0-0.1,0-0.2,0-0.3c-0.3-0.9,0.1-1.9-0.3-2.9c-0.6-5.6-1.4-11.1-1.6-16.8 c-0.1-2.4-0.7-3-3.1-2.9c-3.4,0.1-6.8,0.4-10.2,0.3c-1.4,0-2.1-0.5-2.3-1.9c-0.2-1.2-0.6-2.5-0.9-3.7c0-0.4-0.2-0.7-0.5-1 c-2.2-3.2-5.3-4.6-9-5c-1.4-0.2-2.6-0.1-3.8,0.6c-1.1,0.6-2.2,1.1-3.3,1.6l0,0C23.1,3.8,22,5.1,21.1,6.6L21.1,6.6z M21.9,9.2 L21.9,9.2L21.9,9.2c0.1-1.1,0.9-1.8,1.5-2.7l0,0c0.5-0.6,0.8-1.4,1.6-1.8c1.4-1.8,3.2-3,5.5-2.9c2.1,0.1,4.2,0.5,5.9,1.9 C37.6,4,38.1,5.2,38.8,6l0,0c0.1,0.4,0.2,0.7,0.3,1.1c0.3,0.9,0.7,1.8,1,2.7c0.4,1.3,0.1,1.9-1.3,2c-1.6,0.1-3.2,0.1-4.8,0.1 c-4.1,0-8.2-0.1-12.4-0.1C21.1,10.8,21.4,10,21.9,9.2C21.9,9.2,21.9,9.2,21.9,9.2L21.9,9.2z"/><path fill="#FFF" d="M43.6,11.8c3.6,0.1,7.2-0.2,10.8-0.3c2.3-0.1,3.1,0.2,3.2,3.1c0.1,4.2,0.7,8.4,1.1,12.6 c0.1,1.4,0.2,2.8,0.5,4.1c0.1,0.9,0,1.9,0.1,2.8c0.1,0.1,0.1,0.3,0.1,0.4c0.1,0.5,0,1.1,0.2,1.6c0.1,0.1,0.1,0.2,0.1,0.4 c0.1,0.9-0.2,1.8,0.2,2.7c0.1,0.3,0.1,0.7,0.1,1c0,0.9-0.1,1.8,0.1,2.7c0.1,0.1,0.1,0.3,0.1,0.4c0.1,0.7-0.1,1.4,0.2,2 c0.1,0.1,0.1,0.3,0.1,0.4c0.1,0.8-0.1,1.6,0.1,2.5c0.1,0.1,0.1,0.3,0.1,0.4c0.1,0.7-0.1,1.5,0.1,2.2c0,0.2,0.1,0.4,0.1,0.6 c0.1,0.7-0.1,1.4,0.1,2c0.1,0.1,0.1,0.3,0.1,0.4c0.1,0.8-0.1,1.6,0.1,2.5c0,0,0,0.1,0,0.1c0.1,0,0.1,0,0.2,0c0-0.9-0.1-1.7-0.1-2.6 c-0.4-4.2-0.8-8.5-1.3-12.7c-0.4-3.8-0.7-7.7-1.1-11.5c-0.5-4.9-1.1-9.8-1.3-14.8c-0.1-2.8-0.8-3.4-3.3-3.3 c-3.2,0.1-6.4,0.3-9.6,0.3c-0.8,0-2,0.5-2.5-0.7c-0.4-1-0.5-2-0.7-3c-0.1-0.6-0.2-1.1-0.8-1.4c0.9,1.2,0.8,2.6,1.1,4 C42.3,11.3,42.7,11.7,43.6,11.8z"/><path fill="#FFF" d="M44.1,12c3.4,0,6.8-0.2,10.2-0.3c2.4-0.1,3,0.5,3.1,2.9c0.2,5.6,1,11.2,1.6,16.8c0.4,0.9-0.1,1.9,0.3,2.9 c0,0.1,0,0.2,0,0.3c0.3,0.5-0.1,1.1,0.2,1.6c0,0.1,0,0.2,0,0.3c0.3,0.8-0.1,1.8,0.2,2.6c0,0.3,0,0.7,0,1c0.3,0.9-0.1,1.9,0.2,2.9 c0,0.1,0,0.2,0,0.3c0.3,0.7-0.1,1.4,0.3,2.1c0,0.1,0,0.2,0,0.3c0.4,0.8-0.1,1.8,0.2,2.6c0,0.1,0,0.2,0,0.3c0.3,0.8-0.1,1.6,0.2,2.4 c0,0.2,0,0.3,0,0.5c0.3,0.7-0.1,1.4,0.2,2.1c0,0.1,0,0.2,0,0.3c0.4,0.8-0.1,1.8,0.3,2.6l0,0c0,0,0.1,0,0.1,0c0,0,0-0.1,0-0.1 c-0.2-0.8,0-1.6-0.1-2.5c0-0.1-0.1-0.3-0.1-0.4c-0.2-0.7-0.1-1.3-0.1-2c0-0.2-0.1-0.4-0.1-0.6c-0.2-0.7,0-1.5-0.1-2.2 c0-0.1-0.1-0.3-0.1-0.4c-0.3-0.8-0.1-1.6-0.1-2.5c0-0.1-0.1-0.3-0.1-0.4c-0.3-0.7-0.1-1.4-0.2-2c0-0.1-0.1-0.3-0.1-0.4 c-0.2-0.9-0.1-1.8-0.1-2.7c0-0.3,0-0.7-0.1-1c-0.4-0.9-0.1-1.8-0.2-2.7c0-0.1-0.1-0.3-0.1-0.4c-0.2-0.5,0-1.1-0.2-1.6 c0-0.1-0.1-0.3-0.1-0.4c-0.2-0.9,0-1.9-0.1-2.8c-0.3-1.4-0.4-2.8-0.5-4.1c-0.3-4.2-1-8.4-1.1-12.6c-0.1-2.9-0.9-3.1-3.2-3.1 c-3.6,0.1-7.2,0.4-10.8,0.3c-0.9,0-1.3-0.4-1.6-1.3c-0.4-1.3-0.2-2.8-1.1-4c0.3,1.2,0.7,2.4,0.9,3.7C42,11.5,42.8,12,44.1,12z"/><path fill="#FFF" d="M2.7,13.6L2.7,13.6c1-0.2,1.9-1.3,2.9,0c1.3-0.2,2.5,0,3.8-0.2c-0.2-0.2-0.3-0.4-0.2-0.7 c0.1-0.6,0.6-0.4,1.1-0.4c2.7,0.1,5.3-0.6,8-0.1c0.4,0.1,0.7-0.2,1-0.5c0,0,0-0.1,0-0.1c-0.1,0-0.2,0.1-0.3,0.1v0l0,0 c-0.6,0.4-1.2,0.1-1.8,0.1c-4.3,0.2-8.6,0.3-13,0.5c-0.6,0-1.1,0.1-1.5,0.7C2.7,13.2,2.7,13.4,2.7,13.6L2.7,13.6z"/><path fill="#FFF" d="M9.8,13.3c-0.2-0.4-0.5-0.7,0.3-0.7c2.5,0,5.1-0.3,7.6-0.2c0.8,0,1.5-0.1,1.7-1c-0.1,0-0.2,0.1-0.3,0.1 c0,0,0,0.1,0,0.1c-0.2,0.4-0.6,0.6-1,0.5c-2.7-0.5-5.3,0.2-8,0.1c-0.4,0-1-0.2-1.1,0.4c0,0.3,0.1,0.5,0.2,0.7 C9.5,13.4,9.6,13.3,9.8,13.3L9.8,13.3z"/><path fill="#FFF" d="M0.3,37.5c0-0.2,0.1-0.3,0.1-0.5c0-1.3,0.4-2.6,0.7-3.8v0c0-0.3,0.1-0.6,0.1-0.9c0-0.1,0-0.2,0-0.3 c0.2-2,0.5-4,0.7-6c0.4-3.3,0.2-6.6,0.5-9.9c0.1-0.7,0.2-1.4,0.2-2.1c0-0.1,0-0.3,0-0.4c0,0-0.1-0.1-0.1-0.1 c-0.1-0.2,0-0.4,0.1-0.6c-0.4,0.1-0.5,0.4-0.5,0.7C2.1,15.1,2.1,16.5,2,18c-0.1,2.3-0.1,4.5-0.2,6.8c-0.2,4.3-1.5,8.5-1.8,12.8 c0,0.1,0,0.1-0.1,0.2C0.1,37.7,0.2,37.6,0.3,37.5z"/><path fill="#FFF" d="M2.6,13.5c0,0.1,0.1,0.1,0.1,0.1c0,0,0-0.1,0-0.1l0,0c0-0.2,0-0.4,0-0.6C2.6,13.2,2.5,13.3,2.6,13.5z"/><path fill="#FFF" d="M32.6,0.4c2,0.4,4,1.1,5.7,2.4c0.9,0.7,1.6,1.7,2.2,2.7c0-0.4-0.1-0.7-0.4-1.1c-2-2.6-4.7-3.6-7.8-4.2 c-3.2-0.6-5.6,0.6-7.9,2.4c0.7-0.4,1.5-0.8,2.3-1.3C28.5,0,30.5-0.1,32.6,0.4z"/><path fill="#FFF" d="M24.4 2.5L24.4 2.5 24.4 2.5z"/><path fill="#FFF" d="M31.4,0.4c3.7,0.5,6.8,1.9,9,5c-0.6-1-1.2-2-2.2-2.7c-1.7-1.3-3.6-2-5.7-2.4c-2.1-0.4-4.1-0.3-6,0.9 c-0.7,0.5-1.5,0.8-2.3,1.3l0,0l0,0c1.1-0.5,2.2-1,3.3-1.6C28.9,0.3,30.1,0.2,31.4,0.4z"/><path fill="#FFF" d="M24.4,2.5c-1.6,0.7-2.7,2-3.4,3.6c0,0.1,0,0.1,0,0.2C21.8,4.8,22.9,3.5,24.4,2.5z"/><path fill="#FFF" d="M21,6.3c0,0.1,0,0.1,0,0.2l0,0l0,0c0.9-1.5,2.1-2.8,3.3-4C22.9,3.5,21.8,4.8,21,6.3z"/><path fill="#FFF" d="M19.3,11.4C19.3,11.4,19.3,11.4,19.3,11.4c0.1-0.7,0.3-1.2,0.5-1.8c0.1-0.3,0.2-0.5,0.3-0.8 c0.2-0.4,0.3-0.9,0.4-1.3c0.1-0.4,0.3-0.7,0.4-1c0,0,0,0,0,0c-0.1-0.1,0-0.2,0-0.3c-1.1,1.7-1.7,3.6-2.1,5.6 C19,11.6,19.1,11.5,19.3,11.4z"/><path fill="#FFF" d="M19.5,11.5L19.5,11.5c0-0.6,0.1-1.2,0.3-1.8c-0.2,0.5-0.4,1.1-0.5,1.7c0,0,0,0.1,0,0.1 C19.3,11.4,19.4,11.4,19.5,11.5z"/><path fill="#FFF" d="M20.8,7.6L20.8,7.6c0.1-0.3,0.2-0.7,0.3-1c0,0-0.1-0.1-0.1-0.1c0,0,0,0,0,0c-0.1,0.4-0.3,0.7-0.4,1 c-0.1,0.5-0.3,0.9-0.4,1.3C20.3,8.4,20.5,8,20.8,7.6L20.8,7.6z"/><path fill="#FFF" d="M19.2,11.6c0-0.1,0-0.1,0.1-0.2c-0.2,0-0.2,0.2-0.4,0.3v0C19,11.7,19.1,11.6,19.2,11.6z"/><path fill="#FFF" d="M19.3,11.4c0,0.1,0,0.1-0.1,0.2c0.1,0,0.2-0.1,0.3-0.1C19.4,11.4,19.3,11.4,19.3,11.4z"/><path fill="#FFF" d="M21,6.5c0,0,0-0.1,0.1-0.1c0-0.1,0-0.1,0-0.2C20.9,6.3,20.9,6.4,21,6.5z"/><path fill="#FFF" d="M21.1,6.6c0-0.1,0-0.1,0-0.2c0,0,0,0.1-0.1,0.1C21,6.5,21,6.5,21.1,6.6L21.1,6.6z"/><path fill="#FFF" d="M21.9 9.2L21.9 9.2 21.9 9.2z"/><path fill="#FFF" d="M60,90.9c-3.4-0.6-6.9,0-10.3,0.2c-4,0.2-8.1,0.5-12.1,0.7c-2.8,0.1-5.5-0.3-8.2-0.3c-1.4,0-2-0.2-2.2-1 c0,0,0,0,0,0c0,0,0,0,0,0c0.1,0.8,0.1,1.5,0.2,2.3c3-0.4,5.9,0.2,8.9,0.2c6.6-0.1,13.1-0.7,19.7-1c1.1-0.1,2.2,0,3.3,0.1 c1.6,0.2,3.3,0.4,4.8-0.7c-0.1-0.1-0.2-0.2-0.3-0.3C62.3,90.4,61.1,91.1,60,90.9z"/><path fill="#FFF" d="M64.1,87.1c-0.8-3.9-1.1-7.8-1.4-11.8c0.3-0.4,0.1-0.9,0.2-1.4c0-0.1,0-0.2,0-0.3c0-0.1,0-0.3-0.1-0.4 c-0.1-0.6-0.2-1.1-0.2-1.7c0-0.2,0-0.4,0-0.6c-0.2-0.8-0.2-1.6-0.2-2.4c0-0.2,0-0.4-0.1-0.6c-0.3-1.2-0.4-2.5-0.5-3.8 c0-0.1,0-0.3,0-0.4c-0.1-0.4-0.3-0.8-0.4-1.2c-0.3-0.1-0.4-0.4-0.5-0.6c-0.6-1.7-0.5-3.5-0.8-5.3c-1.1-5.8-1.8-11.7-2.3-17.6 c-0.4-4.8-1-9.5-1.2-14.3c-0.1-2.9-0.4-5.8-1-8.7c0-0.3,0-0.6-0.2-0.9c-0.9-1.1-2-1.6-3.4-1.5c-1.1,0.1-2.2,0-3.2,0 c-0.6,0-1.2,0.2-1.8,0.2c-1.7,0-3.4,0-5,0c-0.5,0-1.1,0-1.6,0.1c-0.6,0.1-1.3,0.2-2,0.2c-1-0.2-2-0.3-3-0.1 c-0.5,0.1-1.1,0.1-1.6,0.1c-0.6-0.1-1.2-0.1-1.8,0c-1.9,0-3.8-0.1-5.7,0c-0.7-0.1-1.4-0.3-2.2-0.1c-4,0-8.1,0.4-12.1-0.3 c-0.6-0.1-1.3-0.1-1.9-0.1c-0.2,0-0.3-0.1-0.5-0.2C8.9,14.1,8.1,14,7.3,14c-0.5,0-1,0-1.5,0c-0.3-0.1-0.6-0.2-0.9-0.3 c-0.5,0.2-0.7,0.6-0.8,1.2c-0.3,1.5-0.6,3-0.6,4.5c0,0.4,0,0.9,0,1.3C3,24.4,2.9,28.1,3,31.9c0,0.6,0.1,1.3-0.3,1.8 c-0.2,0.6-0.1,1.2,0,1.8c0.2,0.3,0.2,0.6,0.2,0.9c0.6-0.1,1.2-0.2,1.8-0.3c-0.6-0.4-0.8-1.1-0.8-2.3c0.2-4.7,0.3-9.5,0.7-14.2 c0.1-1.2,0.2-2.3,0.5-3.5c0.2-0.8,0.7-1.4,1.5-1.4c1.9,0,3.8-0.4,5.7-0.2c2.5,0.4,5.1,0.5,7.7,0.5c2.7-0.1,5.3-0.3,8-0.2 c4.1,0.2,8.3-0.1,12.4-0.1c3.9,0,7.8-0.2,11.8-0.3c1.7,0,2.1,0.4,2.6,2c0.5,1.9,0.6,3.9,0.8,5.8c0.4,4.7,0.7,9.4,1.2,14.1 c0.5,5.8,1.2,11.5,2,17.3c0.5,2.9,0.8,5.9,1.1,8.8c0.6,6,1.4,12,2,18.1c0.3,3.2,1.2,6.4,1.2,9.7c0,0.5,0.3,0.8,0.6,1.1 C65,90,64.3,88.5,64.1,87.1z"/><path fill="#FFF" d="M60.8,60.6c-0.5-5.8-1.8-11.5-2.3-17.3c-0.4-4.6-1-9.2-1.4-13.9c-0.3-4.6-0.4-9.2-1.3-13.7 c0-0.2,0-0.3,0-0.5c-0.4-1.6-1.4-2-2.9-1.9c-1.5,0.1-2.9,0-4.4,0c-0.4,0.3-0.9-0.1-1.3,0.3c-1.8,0-3.7,0-5.5,0 c-0.5,0.3-1,0.3-1.6,0c-0.6,0.1-1.2,0.2-1.8,0.2c-1-0.1-2.1,0.2-3.1-0.2c-0.5,0.2-1,0.3-1.6,0.3c-0.5,0-1,0-1.6,0l0,0l0,0 c-2,0-4-0.4-6,0c-0.5,0-1.1,0.1-1.6-0.3h0l0,0c-0.8,0.2-1.5,0.2-2.3,0.3c-4.1,0.2-8.2-0.3-12.3-0.5l0,0c-0.1,0.1-0.1,0.1-0.2,0.2 c0.1,0.1,0.3,0.1,0.5,0.2c0.6,0,1.3,0,1.9,0.1c4,0.7,8,0.4,12.1,0.3c0.7-0.2,1.4,0,2.2,0.1c1.9-0.1,3.8,0,5.7,0 c0.6-0.1,1.2-0.1,1.8,0c0.6,0,1.1,0,1.6-0.1c1-0.2,2-0.1,3,0.1c0.7,0.1,1.3-0.1,2-0.2c0.5-0.1,1-0.1,1.6-0.1c1.7,0,3.4,0,5,0 c0.6,0,1.2-0.3,1.8-0.2c1.1,0,2.2,0.1,3.2,0c1.4-0.1,2.5,0.4,3.4,1.5c0.1,0.3,0.2,0.6,0.2,0.9c0.6,2.9,0.9,5.8,1,8.7 c0.1,4.8,0.8,9.5,1.2,14.3c0.5,5.9,1.2,11.8,2.3,17.6c0.3,1.7,0.3,3.6,0.8,5.3c0.2,0.2,0.3,0.6,0.5,0.6c-0.1-0.3-0.1-0.5-0.2-0.8 C61,61.4,60.9,61,60.8,60.6z"/><path fill="#FFF" d="M4.9,13.7c0.3,0.1,0.6,0.2,0.9,0.3c0.5,0,1,0,1.5,0c0.8,0,1.6,0.1,2.3-0.4c-0.1,0-0.1-0.1-0.2-0.1 c-1.3,0.2-2.6-0.1-3.8,0.2l0,0C5.3,13.6,5.1,13.6,4.9,13.7z"/><path fill="#FFF" d="M9.8,13.3c-0.1,0-0.3,0.1-0.4,0.1c0.1,0,0.1,0.1,0.2,0.1C9.6,13.5,9.7,13.4,9.8,13.3z"/><path fill="#FFF" d="M31.4,2c1.8,0.3,3.5,0.8,5.1,1.7c0,0,0,0,0,0l0,0l0,0l0,0l0,0c-1.7-1.4-3.8-1.8-5.9-1.9 c-2.3-0.1-4.1,1.1-5.5,2.9c0,0,0,0,0,0C26.8,3,28.7,1.6,31.4,2z"/><path fill="#FFF" d="M25 4.7L25 4.7 25 4.7z"/><path fill="#FFF" d="M25,4.7L25,4.7L25,4.7C25,4.7,25,4.7,25,4.7c0.4-0.1,0.7-0.5,1-0.7c2-1.6,4.1-2.5,6.6-1.6 c1.3,0.4,2.5,0.9,3.8,1.3c0,0,0,0,0,0c-1.6-0.9-3.3-1.5-5.1-1.7C28.7,1.6,26.8,3,25,4.7C25,4.7,25,4.7,25,4.7L25,4.7z"/><path fill="#FFF" d="M36.4 3.7L36.4 3.7 36.4 3.7z"/><path fill="#FFF" d="M20.8,7.6c-0.5,1.3-1.1,2.6-1.3,3.9C20,10.2,20.6,9,20.8,7.6z"/><path fill="#FFF" d="M19.8,9.6c0.1-0.3,0.2-0.5,0.3-0.8C20,9.1,19.9,9.4,19.8,9.6z"/><path fill="#FFF" d="M20.8,7.6L20.8,7.6c-0.3,0.4-0.5,0.8-0.7,1.3c-0.1,0.3-0.2,0.5-0.3,0.8c-0.2,0.6-0.3,1.2-0.3,1.8 C19.7,10.1,20.3,8.9,20.8,7.6z"/><path fill="#FFF" d="M38.6,5.9C38.6,5.9,38.6,6,38.6,5.9C38.7,6,38.8,6,38.8,6c-0.7-0.8-1.2-2-2.4-2.3l0,0 C37.4,4.2,37.8,5.3,38.6,5.9z"/><path fill="#FFF" d="M36.4,3.7c0.7,0.8,1.4,1.5,2.1,2.3l0,0c0,0,0.1,0,0.1,0c0,0,0-0.1,0-0.1C37.8,5.3,37.4,4.2,36.4,3.7 C36.4,3.7,36.4,3.7,36.4,3.7C36.4,3.7,36.4,3.7,36.4,3.7z"/><path fill="#FFF" d="M36.4 3.7L36.4 3.7 36.4 3.7z"/><path fill="#FFF" d="M36.4 3.7L36.4 3.7 36.4 3.7z"/><path fill="#FFF" d="M36.4,3.7C36.4,3.7,36.4,3.7,36.4,3.7L36.4,3.7L36.4,3.7C36.4,3.7,36.4,3.7,36.4,3.7z"/><path fill="#FFF" d="M23.4,6.5L23.4,6.5L23.4,6.5c-0.6,0.8-1.4,1.6-1.5,2.7l0,0c0.4-1,1.1-1.8,1.7-2.7 C23.5,6.5,23.4,6.5,23.4,6.5z"/><path fill="#FFF" d="M21.9,9.1L21.9,9.1C21.9,9.2,21.9,9.2,21.9,9.1C21.9,9.2,21.9,9.2,21.9,9.1z"/><path fill="#FFF" d="M21.9,9.2c0.6-0.9,1.2-1.8,1.8-2.6c-0.1,0-0.1,0-0.2,0C23,7.4,22.2,8.2,21.9,9.2L21.9,9.2L21.9,9.2 C21.9,9.1,21.9,9.2,21.9,9.2z"/><path fill="#FFF" d="M21.9,9.2C21.9,9.2,21.9,9.2,21.9,9.2c-0.5,0.8-0.7,1.7-0.2,2.6C21.4,10.8,21.7,10,21.9,9.2z"/><path fill="#FFF" d="M21.9,9.2c-0.2,0.8-0.4,1.7-0.2,2.6C21.7,10.9,21.8,10,21.9,9.2C21.9,9.2,21.9,9.2,21.9,9.2z"/><path fill="#FFF" d="M21.9,9.1C21.9,9.2,21.9,9.2,21.9,9.1C21.9,9.2,21.9,9.2,21.9,9.1C21.9,9.2,21.9,9.1,21.9,9.1z"/><path fill="#FFF" d="M21.9 9.2L21.9 9.1 21.9 9.2z"/><path fill="#FFF" d="M23.6,6.4c0.5-0.6,0.8-1.2,1.4-1.7c0,0,0,0,0,0l0,0l0,0l0,0c0,0,0,0,0,0c-0.8,0.3-1.1,1.1-1.6,1.8 C23.4,6.4,23.5,6.4,23.6,6.4z"/><path fill="#FFF" d="M25 4.7L25 4.7 25 4.7z"/><path fill="#FFF" d="M25,4.7c-0.6,0.5-0.9,1.2-1.4,1.7c0,0,0.1,0,0.1,0.1C24.2,6,24.8,5.5,25,4.7C25,4.7,25,4.7,25,4.7z"/><path fill="#FFF" d="M25,4.7L25,4.7C25,4.7,25,4.7,25,4.7C25,4.7,25,4.7,25,4.7L25,4.7z"/><path fill="#FFF" d="M25,4.7C25,4.7,25,4.7,25,4.7C25,4.7,25,4.7,25,4.7C25,4.7,25,4.7,25,4.7L25,4.7z"/><path fill="#FFF" d="M25,4.7C25,4.7,25,4.7,25,4.7C25,4.7,25,4.7,25,4.7C25,4.7,25,4.7,25,4.7z"/><path fill="#FFF" d="M25,4.7C25,4.7,25,4.7,25,4.7C25,4.7,25,4.7,25,4.7L25,4.7L25,4.7L25,4.7z"/><path fill="#FFF" d="M23.5,6.5C23.5,6.5,23.5,6.5,23.5,6.5C23.6,6.5,23.6,6.4,23.5,6.5c0-0.1-0.1-0.1-0.2,0l0,0 C23.4,6.5,23.5,6.5,23.5,6.5z"/><path fill="#FFF" d="M23.6,6.4C23.6,6.4,23.6,6.5,23.6,6.4C23.5,6.5,23.5,6.5,23.6,6.4c0,0.1,0.1,0.1,0.1,0.1 C23.7,6.5,23.6,6.5,23.6,6.4z"/><path fill="#FFF" d="M38.3,13.8c-1-0.5-2.1-0.2-3.1-0.2C36.2,13.9,37.3,13.5,38.3,13.8z"/><path fill="#FFF" d="M38.3,13.8c-1-0.3-2.1,0.1-3.1-0.2C36.2,14,37.2,13.7,38.3,13.8z"/><path fill="#FFF" d="M26,13.8c-0.4-0.5-1-0.3-1.6-0.3C24.9,13.8,25.5,13.5,26,13.8z"/><path fill="#FFF" d="M26,13.8c-0.5-0.3-1.1,0-1.6-0.3h0C24.9,13.9,25.5,13.8,26,13.8z"/><path fill="#FFF" d="M33.6,13.8c-0.5-0.3-1-0.3-1.6,0C32.5,13.6,33.1,13.6,33.6,13.8z"/><path fill="#FFF" d="M33.6,13.8c-0.5-0.2-1-0.2-1.6,0l0,0C32.5,13.8,33.1,13.8,33.6,13.8z"/><path fill="#FFF" d="M38.7,6.1c0.1,0.3,0.2,0.7,0.4,1C39,6.7,38.9,6.3,38.8,6l0,0l0,0C38.8,6.1,38.7,6.1,38.7,6.1z"/><path fill="#FFF" d="M38.5,6L38.5,6c0.1,0.4,0.1,0.8,0.6,1c-0.2-0.3-0.3-0.6-0.4-1C38.6,6.1,38.6,6.1,38.5,6z"/><path fill="#FFF" d="M38.7,6.1c0,0,0.1,0,0.1-0.1l0,0c-0.1,0-0.1,0-0.2,0C38.7,6,38.7,6.1,38.7,6.1z"/><path fill="#FFF" d="M38.7,6.1c0,0,0-0.1,0-0.1c0,0-0.1,0-0.1,0C38.6,6.1,38.6,6.1,38.7,6.1z"/><path fill="#FFF" d="M41.7,13.6c-0.5,0-1,0-1.6,0C40.7,13.8,41.2,13.8,41.7,13.6z"/><path fill="#FFF" d="M41.7,13.6c-0.5,0.2-1,0.2-1.6,0C40.7,13.9,41.2,13.9,41.7,13.6z"/><path fill="#FFF" d="M1.7,33c0,0-0.1,0-0.1,0c-0.2,1.1-0.5,2.2-0.7,3.3c0.1-0.2,0.2-0.3,0.3-0.5C1.9,35,1.6,34,1.7,33z"/><path fill="#FFF" d="M65.8,89.5c-0.3-0.4-0.4-0.8-0.5-1.3c-0.3-2.1-0.5-4.2-0.8-6.3c-0.4-2.8-0.9-5.6-1.3-8.4 c-0.2,0.1-0.3,0.3-0.4,0.5c0.1,0.4,0.2,0.8,0.2,1.2c0,0.1,0,0.3,0,0.4c0.5,3.5,0.8,7,1.4,10.4c0.2,1.1,0.2,2.3,0.5,3.4 c0.2,0.8,0.1,1.8-1.2,1.9c0,0-0.1-0.1-0.1-0.1c0,0,0,0,0,0l0,0c0,0,0,0,0,0c0,0,0,0.1,0.1,0.1c0,0.8-0.6,0.9-1.2,1 c-0.7,0.1-1.4,0.1-2.2,0.1c-6.2,0-12.4,0.3-18.6,0.6c-3,0.2-6,0.2-8.9,0.2c-1.9,0-3.8,0-5.7,0.1c0,0.3,0,0.6,0,0.9 c0.2,0,0.3-0.1,0.5-0.1c2.4-0.5,4.8-0.3,7.2-0.5c0.7-0.1,1.5-0.2,2.2-0.2c5.1,0.3,10.1-0.5,15.2-0.3c3.8,0.1,7.6-0.5,11.5-0.2 c0.8,0,1.8,0.2,2.1-0.7C66.2,91.4,66.5,90.4,65.8,89.5z"/><path fill="#FFF" d="M0.8,37.3c0-0.1,0-0.3,0-0.4c-0.1-0.2,0-0.4,0.1-0.6c0.2-1.1,0.5-2.2,0.7-3.3c-0.1,0-0.1,0-0.2-0.1 c-0.1,0.1-0.2,0.2-0.3,0.3v0v0c-0.3,1.3-0.7,2.5-0.7,3.8c0,0.2,0,0.4-0.1,0.5C0.5,37.4,0.6,37.4,0.8,37.3z"/><path fill="#FFF" d="M62.6,75.3c0.3,3.9,0.7,7.9,1.4,11.8c0.3,1.3,0.9,2.9-0.4,4.2c0,0,0.1,0.1,0.1,0.1c1.2-0.1,1.3-1.1,1.2-1.9 c-0.2-1.1-0.3-2.3-0.5-3.4c-0.7-3.4-0.9-6.9-1.4-10.4c0-0.1,0-0.3,0-0.4c0-0.4-0.2-0.8-0.2-1.2C62.7,74.4,63,75,62.6,75.3z"/><path fill="#FFF" d="M63.7,91.3c-1.5,1-3.1,0.8-4.8,0.7c-1.1-0.1-2.2-0.2-3.3-0.1c-6.6,0.3-13.1,0.9-19.7,1 c-3,0-5.9-0.6-8.9-0.2c0,0.2,0,0.4,0,0.7c1.9-0.1,3.8-0.1,5.7-0.1c3,0,6,0,8.9-0.2c6.2-0.4,12.4-0.7,18.6-0.6c0.7,0,1.4,0,2.2-0.1 C63.2,92.3,63.8,92.2,63.7,91.3C63.7,91.4,63.7,91.4,63.7,91.3z"/><path fill="#FFF" d="M4.1,13.6c-0.2,0-0.3,0.1-0.5,0.2c-0.1,0.1-0.4,0.1-0.6,0c0.2,0.2,0.3,0.4,0.4,0.6c0,0.4,0,0.8,0,1.1 c0-0.3,0.1-0.6,0.2-0.9C3.6,14.2,3.8,13.8,4.1,13.6z"/><path fill="#FFF" d="M2.2,33.1c0,0.2,0,0.4,0,0.5c0-0.1,0-0.1,0-0.2c0.2-0.6-0.1-1.2,0.1-1.7c0.4-1.4,0.1-2.9,0.2-4.4 c0.1-1.9,0.4-3.9,0.5-5.8c0-0.3,0-0.6-0.1-0.9C3,20.2,3,19.8,3,19.3c0.1-0.8,0.1-1.6,0.1-2.5c-0.2,1.2-0.5,2.5-0.5,3.7 c-0.1,2.6,0,5.1-0.3,7.7c-0.2,1.5-0.3,2.9-0.7,4.4C2,32.5,2.3,32.8,2.2,33.1z"/><path fill="#FFF" d="M3,13.9c0.2,0.1,0.5,0,0.6,0c0.2-0.1,0.3-0.2,0.5-0.2c0.3-0.3,0.8-0.3,1.5,0h0c-1-1.3-1.9-0.2-2.9,0v0 C2.8,13.7,2.9,13.8,3,13.9z"/><path fill="#FFF" d="M1.2,32.3c0-0.1,0-0.2,0-0.3C1.2,32.2,1.2,32.3,1.2,32.3z"/><path fill="#FFF" d="M2.7,17.8c-0.2,3.5-0.2,6.9-0.6,10.4c-0.2,1.5-0.5,3-0.7,4.5c0.1-0.1,0.2-0.1,0.3-0.1 c0.3-1.4,0.5-2.9,0.7-4.4c0.3-2.5,0.2-5.1,0.3-7.7c0-1.3,0.3-2.5,0.5-3.7c0-0.4,0.1-0.8,0.1-1.2c0-0.4,0-0.8,0-1.1 c0-0.3-0.2-0.5-0.4-0.6c-0.1,0-0.2-0.1-0.3-0.2c0,0.1,0,0.3,0,0.4C3,15.3,2.7,16.6,2.7,17.8z"/><path fill="#FFF" d="M2.7,13.6c0,0,0,0.1,0,0.1c0.1,0.1,0.2,0.1,0.3,0.2C2.9,13.8,2.8,13.7,2.7,13.6z"/><path fill="#FFF" d="M2.7,36.5c-0.1-0.3,0-0.6,0-1c-0.1-0.6-0.2-1.2,0-1.8c-0.1-0.6-0.3-1.3,0.3-1.8v0c0-3.8,0.1-7.5,0.5-11.3 c-0.3-0.4-0.3-0.9,0-1.3c0-1.5,0.3-3,0.6-4.5c0.1-0.6,0.4-1,0.8-1.2c-0.3-0.1-0.5-0.1-0.8-0.1c-0.2,0.2-0.4,0.6-0.6,1.1 c-0.1,0.3-0.1,0.6-0.2,0.9c0,0.4-0.1,0.8-0.1,1.2c-0.1,0.8-0.1,1.6-0.1,2.5c0,0.4-0.1,0.9-0.1,1.3C3,20.9,3,21.2,3,21.5 c-0.1,1.9-0.4,3.9-0.5,5.8c-0.1,1.5,0.2,2.9-0.2,4.4c-0.3,0.6,0.1,1.2-0.1,1.7c0,0.1,0,0.1,0,0.2c0,0.6,0.1,1.2,0,1.8 c0,0.1,0,0.2,0,0.3c0,0.3,0.1,0.6,0.1,0.9C2.4,36.6,2.5,36.6,2.7,36.5z"/><path fill="#FFF" d="M4.1,13.6c0.3-0.1,0.6,0,0.8,0.1c0.2-0.1,0.4-0.1,0.7-0.1l0,0h0C4.9,13.3,4.4,13.3,4.1,13.6z"/><path fill="#FFF" d="M3.2,16.8c0.1-0.4,0.1-0.8,0.1-1.2C3.3,16,3.2,16.4,3.2,16.8z"/><path fill="#FFF" d="M1,37.2c0.2-0.1,0.5-0.2,0.7-0.3c0-0.3,0-0.6,0.2-0.8c0.1-0.2,0.2-0.4,0.3-0.6c0-0.6-0.1-1.2,0-1.8 c0-0.2,0-0.4,0-0.5c0.1-0.4-0.2-0.6-0.5-0.5c0,0.1-0.1,0.2-0.1,0.3c0,0,0,0,0,0c0.1,0,0.1,0,0.1,0C1.6,34,1.9,35,1.2,35.8 c-0.1,0.1-0.2,0.3-0.3,0.5c0,0.2-0.1,0.4-0.1,0.6c0,0.1,0,0.1,0.1,0.2C0.9,37.1,0.9,37.1,1,37.2z"/><path fill="#FFF" d="M1.7,32.6c-0.1,0-0.2,0.1-0.3,0.1c0,0.1,0,0.1,0,0.2c0.1,0,0.1,0,0.2,0.1c0,0,0,0,0,0 C1.6,32.9,1.6,32.7,1.7,32.6z"/><path fill="#FFF" d="M0.8,36.8c0-0.2,0-0.4,0.1-0.6C0.8,36.4,0.7,36.7,0.8,36.8z"/><path fill="#FFF" d="M2.1,35.4c0.1-0.6,0-1.2,0-1.8C2,34.3,2.2,34.9,2.1,35.4z"/><path fill="#FFF" d="M1.2,32.3c0,0.3-0.1,0.6-0.1,0.9c0.1-0.1,0.1-0.2,0.2-0.4C1.2,32.7,1.2,32.5,1.2,32.3z"/><path fill="#FFF" d="M2.4,20.5c0.1-2.1,0.1-4.3,0.3-6.4c-0.1,0.7-0.2,1.4-0.2,2.1c-0.3,3.3-0.1,6.6-0.5,9.9c-0.2,2-0.5,4-0.7,6 c0,0,0-0.1,0-0.1C2.2,28.2,2.3,24.3,2.4,20.5z"/><path fill="#FFF" d="M1.4,32.9C1.4,32.9,1.3,32.9,1.4,32.9c-0.1,0-0.2,0.2-0.3,0.3l0,0C1.2,33.1,1.3,33,1.4,32.9z"/><path fill="#FFF" d="M1.3,32.8c0,0,0-0.1,0.1-0.1c0,0,0,0,0,0c0.2-1.5,0.5-3,0.7-4.5c0.4-3.5,0.4-6.9,0.6-10.4 c0.1-1.2,0.3-2.5,0-3.7c-0.2,2.1-0.3,4.3-0.3,6.4c-0.1,3.9-0.2,7.7-1.1,11.5c0,0,0,0.1,0,0.1c0,0.1,0,0.2,0,0.3 C1.2,32.5,1.2,32.7,1.3,32.8z"/><path fill="#FFF" d="M1.4,32.7c0,0,0,0.1-0.1,0.1c0,0,0,0.1,0.1,0.1C1.4,32.9,1.4,32.8,1.4,32.7C1.4,32.7,1.4,32.7,1.4,32.7z"/><path fill="#FFF" d="M2.7,33.7c0.3-0.6,0.2-1.2,0.3-1.8l0,0C2.6,32.5,3,33.1,2.7,33.7z"/><path fill="#FFF" d="M2.7,33.7C3,33.1,2.6,32.5,3,31.9C2.4,32.4,2.6,33.1,2.7,33.7z"/><path fill="#FFF" d="M3.5,20.6c0-0.4,0-0.9,0-1.3C3.3,19.8,3.3,20.2,3.5,20.6z"/><path fill="#FFF" d="M3.5,20.6c-0.2-0.4-0.2-0.9,0-1.3v0C3.2,19.8,3.2,20.2,3.5,20.6z"/><path fill="#FFF" d="M1.6,31c-0.2,1.5-0.5,3-0.7,4.4c-0.1,0.7,0.2,1.3,0.9,1.5c0.6,0.2,1.4-0.2,1.5-0.9c0.2-1.5,0.5-3,0.7-4.4 c0.1-0.7-0.2-1.3-0.9-1.5C2.5,29.9,1.7,30.3,1.6,31L1.6,31z"/><path fill="#FFF" d="M1.1,32.1c-0.2,1.5-0.5,3-0.7,4.4c-0.1,0.8,1.1,1.1,1.2,0.3c0.2-1.5,0.5-3,0.7-4.4 C2.4,31.6,1.2,31.3,1.1,32.1L1.1,32.1z"/></svg>