<svg id="Слой_1" xmlns="http://www.w3.org/2000/svg" viewBox="0 0 19.3 34.4"><g fill="#FFF"><path d="M17.7,18.4c-1.4-5.3-3.1-10.4-6.9-14.5C9.4,2.5,7.5,1.8,6.1,0.3C5.7-0.3,4.9,0,4.5,0.8 c-0.3,0.6-0.7,1.1-1,1.7l0,0l0,0C3.6,3.3,4.2,3.7,5,3.8c3.4,0.6,5,3,6.5,5.9c2.7,4.8,4.4,9.9,5,15.3c0.2,1.8,0.1,3.6,0.2,5.4 c0,0.6-0.1,0.9-0.8,0.9c-0.7,0-0.7-0.4-0.7-1c-0.1-6.4-1.5-12.5-5.4-17.8c-0.6-0.8-0.6-1.9-1.6-2.3c-0.6,0.2-1.7-1.8-2,0.4 C7.2,12.3,8,14.1,9,15.8c2.1,3.5,3.5,7.2,3.6,11.4c0.1,1.8,0,3.5-0.2,5.2c-0.1,1.1,0.2,2.2,1.5,1.8c1-0.3,1.9,0,2.8,0.2 c1.6,0.3,2.1-0.2,2.3-1.8C19.7,27.7,18.9,23,17.7,18.4z"/><path d="M7,9c0.1,0,0.2,0,0.3,0C6.5,8.1,5.6,7.3,4.5,6.7C3.1,5.9,3,5.3,4.2,4.5c-0.8-0.5-1.3-1-0.7-2 c-1,0.9-2,1.7-2.9,2.6C-0.2,5.9-0.3,7,1,7.4c2,0.6,3.5,2,5.2,3.2C5.5,9.6,5.8,9.1,7,9z"/><path d="M4.2,4.5c0.1-0.1,0.2-0.1,0.2-0.2C4.6,4.2,4.8,4,5,3.8C4.2,3.7,3.6,3.3,3.5,2.5l0,0C2.9,3.4,3.4,4,4.2,4.5z"/><path d="M8.1,10.2C7.8,9.8,7.6,9.4,7.3,9C7.2,9,7.1,9,7,9c-1.1,0-1.5,0.6-0.8,1.6C6.4,8.5,7.5,10.5,8.1,10.2z"/></g></svg>