<svg id="Слой_1" xmlns="http://www.w3.org/2000/svg" viewBox="0 0 35.4 16.1"><g fill="#FFF"><path d="M32.1,0c-1.5,0-3.1,0.6-3,2.8c0,0.4,0.1,0.8-0.4,1c-2.4,1-4.8,2-7.1,3.1c-1.9,0.8-3.8,1.4-5.8,2.3 c-1.2,0.8-2.4,1.4-3.7,2c-0.2,0.1-0.4,0.2-0.6,0.3c-0.1,0.1-0.3,0.2-0.5,0.2c-1.4,0.7-2.8,1.4-4.4,1.7c-1.9,0.7-3.6,1.7-5.6,2.1 c-0.4,0.1-0.7,0.3-1,0.6c0,0,0,0-0.1,0c2.1,0.1,4-0.1,6.2-0.3c0,0,0.1,0,0.1,0c1.4-0.7,2.8-1.4,4.2-2c0.2-0.2,0.5-0.3,0.8-0.3 c0.1,0,0.1-0.1,0.2-0.1c0.1,0,0.2,0,0.3-0.1c0.8-0.3,1.6-0.6,2.4-1c0.3-0.1,0.5-0.2,0.8-0.3c0.1-0.1,0.3-0.2,0.5-0.2 c4.6-1.6,8.8-4.2,13.1-6.2c0-0.3-0.2-0.7,0.1-0.8c0.4,0,0.1,0.4,0.2,0.7c0.2,0.1,0.4,0.1,0.6,0.2c1.8,1.4,3.4,0.4,5-0.5 c0.5-0.3,0.8-0.9,0.9-1.5C35.6,1.8,34.2,0.1,32.1,0z M9.2,13.3c-0.1,0-0.2-0.1-0.1-0.3C9.2,13,9.3,13,9.3,13c0.1,0,0.2,0.1,0.2,0.3 C9.4,13.3,9.3,13.3,9.2,13.3z M32.2,4.3c-0.8-0.1-1.4-0.7-1.4-1.6c0-0.7,0.3-0.9,1-0.9c0.9,0,1.2,0.7,1.4,1.4 C33,3.8,32.7,4.3,32.2,4.3z"/><path d="M28.6,5.4c0.1,0,0.2,0,0.3-0.1C28.8,5.2,28.7,5.4,28.6,5.4z"/><path d="M28.7,4.7c-0.3,0-0.1,0.5-0.1,0.8c0.1-0.1,0.1-0.3,0.3-0.1C28.9,5.1,29.2,4.7,28.7,4.7z"/><path d="M9.1,13c-0.1,0.1,0,0.2,0.1,0.3c0.1,0,0.2,0,0.3-0.1c0-0.2,0-0.3-0.2-0.3C9.3,13,9.2,13,9.1,13z"/></g></svg>