<svg id="Слой_1" xmlns="http://www.w3.org/2000/svg" viewBox="0 0 137.8 90.7"><g fill="#FFF"><path d="M53.8,26.1c-0.7-0.1-1.1-0.5-1.4-1c-0.5-0.1-0.8-0.4-1-0.7c-0.7-0.5-1.4-1.1-2-1.6c-1.3-1-2.2-0.7-2.7,0.9 c-0.3,0.8-0.2,1.7-0.2,2.6c0,4.4-0.2,8.8-0.5,13.1c-0.1,1.5-0.1,3,0,4.6c0.1,1.5,1.1,2.3,2.1,1.6c2.4-1.5,4.8-3.2,7.2-4.6 c2.5-1.4,4.6-3.5,7.1-4.8c1.1-0.6,1.4-2,0.5-2.9C60.2,30.4,57.3,27.9,53.8,26.1z M58.2,35.3c-2.8,2.3-5.6,4.5-8.9,6 C48,42,48,42,48,40.6c0-0.2,0-0.4,0-0.7c0.6-4.6,0.3-9.2,0.8-13.8c0.1-0.9,0.5-0.8,1-0.5c2.7,1.8,5.6,3.2,7.7,5.8 c0.2,0.3,0.5,0.6,0.8,0.9C59.9,33.8,60,33.9,58.2,35.3z"/><path d="M53.8,26.1c-0.4-0.4-0.8-0.9-1.4-1l0,0C52.9,25.3,53.2,25.9,53.8,26.1z"/><path d="M52.4,25.1L52.4,25.1c0.3,0.5,0.7,0.9,1.4,1C53.2,25.9,52.9,25.3,52.4,25.1L52.4,25.1z"/><path d="M52.4,25.1L52.4,25.1c-0.3-0.3-0.5-0.7-1-0.7C51.8,24.5,52.1,24.8,52.4,25.1L52.4,25.1z"/><path d="M52.4,25.1L52.4,25.1c-0.4-0.2-0.6-0.6-1-0.7C51.6,24.7,52,25,52.4,25.1z"/><path d="M52.4 25.1L52.4 25.1 52.4 25.1z"/><path d="M52.4 25.1L52.4 25.1 52.4 25.1z"/><path d="M52.4 25.1L52.4 25.1 52.4 25.1z"/><path d="M52.4 25.1L52.4 25.1 52.4 25.1z"/><g><path d="M135.5,53L135.5,53L135.5,53c-1-0.5-2-1-2.9-1.6c-1.9-0.5-4-0.2-5.9-0.5c-2.5-0.3-5-0.4-7.5-0.5 c-2.7-0.1-5.4-0.1-8.1-0.1c-2,0-4,0-5.9-0.2c-0.3,0-0.6,0-0.7-0.4c-0.6-1.4,0.1-2.9,1.5-3.4c4.6-1.6,8.8-4.2,13.1-6.2 c0-0.3-0.2-0.7,0.1-0.8c0.4,0,0.1,0.4,0.2,0.7c0.2,0.1,0.4,0.1,0.6,0.2c1.8,1.4,3.4,0.4,5-0.5c0.5-0.3,0.8-0.9,0.9-1.5 c0.2-1.8-1.3-3.5-3.3-3.6c-1.5,0-3.1,0.6-3,2.8c0,0.4,0.1,0.8-0.4,1c-2.4,1-4.8,2-7.1,3.1c-2.4,1-4.9,1.7-7.4,3.1 c0-2.1,0.2-4,0-5.9c-0.8-6.5-0.4-12.9-0.3-19.4c0-5.6,0-11.2,0.6-16.8c0.2-1.4-0.5-1.9-2-1.8c-2.1,0.1-4.1,0.3-6.2,0.2 C92.5,0.9,88.4,1,84.3,0.8c-3.2-0.2-6.5-0.1-9.7-0.2C70,0.4,65.4,0.5,60.9,0.2C55.5,0,50.2,0.4,44.8,0.4c-7.2,0-14.4,0-21.6,0 c-5.8,0-11.6-0.1-17.5-0.2c-1,0-1.9,0-2.9-0.1C1.6-0.2,0.7,0.8,0.8,2.1c0,1.7,0.2,3.3,0,5c-0.4,4.2-0.5,8.4-0.7,12.6 c-0.3,7.1,0.3,14.1,0.6,21.1c0.1,3.3-0.3,6.6-0.1,9.9c0.1,1,0.1,1.9,0,2.9C0.1,57.1,0.1,60.5,0.1,64c0,1.8,0.7,2.4,2.5,2.4 c3,0.1,6.1-0.2,9.1,0.2c1.7,0.2,3.4,0.3,5.1,0.2c3-0.3,6-0.2,9-0.2c4.1,0,8.2,0.3,12.3,0.3c3.6,0,7.3-0.2,10.9-0.2 c1.2,0,2.4,0.1,3.7-0.1c4.5-0.4,9-0.4,13.5-0.3c3.1,0,6.3,0.1,9.4,0.1c3.1,0,3,0,3,3.1c0,4.3-0.2,8.5,0.2,12.8 c0.2,2,0.8,3.8,2.2,5.3c2.7,3,6.3,3,9.9,3c2.9,0,5.7-0.6,8.6-0.6c3.3-0.1,6.5-0.3,9.8-0.1c4.5,0.3,9-0.1,13.4,0.2 c3.6,0.3,7.1,0,10.6-0.9c2-0.5,3-1.5,3.2-3.5c0.1-1.7,0.2-3.5,0.3-5.2c0.3-4.6,0.6-9.2,1-13.8c0.3-3.8-0.5-7.6-0.6-11.4 C137.1,54.3,136.6,53.4,135.5,53z M122,36.6c0.9,0,1.2,0.7,1.4,1.4c0,0.7-0.4,1.2-0.9,1.1c-0.8-0.1-1.4-0.7-1.4-1.6 C121,36.8,121.3,36.6,122,36.6z M77.6,64.3c-2.3,0-4.5-0.2-6.8-0.1c-2.9,0.1-5.8,0-8.7,0.2c-1.5,0.1-3,0-4.5,0 c-4.3,0-8.5,0.2-12.8,0.4c-4.4,0.1-8.7,0.2-13.1,0c-6.7-0.3-13.4-0.4-20.1-0.6C9,64.1,6.4,64.1,3.8,64c-0.8,0-1-0.3-1.2-1 c-0.2-0.9,0.1-1.7,0-2.6c-0.3-4.6,0.6-9.1,0.6-13.6C3.3,40.9,3,34.9,2.8,29c-0.1-5-0.6-10-0.2-15c0.2-3.2,0.1-6.5,0-9.8 c0-1,0.4-1.3,1.3-1.4c3.5-0.3,7-0.9,10.5-0.8c5.6,0.2,11.2,0.3,16.8,0.6c4.9,0.3,9.8,0.2,14.7,0c3.9-0.2,7.8,0.1,11.7-0.1 c5.7-0.3,11.4-0.2,17.1-0.2c5.6,0,11.1,0.3,16.7,0.4c3.2,0.1,6.5,0.6,9.7,0.1c0.8-0.1,1.2,0.2,1.2,1.1c-0.1,2.6,0,5.2-0.2,7.8 c-0.2,3.6,0.1,7.1,0.1,10.7c-0.1,7.6-0.3,15.2-0.2,22.8c0,1.1-0.7,1.2-1.4,1.4c-0.7,0.2-0.4-0.5-0.4-0.8 c-0.1-4.7-0.2-9.5-0.3-14.2c0-6.4,0-12.8,0-19.2c0-1.5-0.1-3,0-4.6c0.1-0.8-0.3-1.4-1.1-1.6c-1.1-0.3-2.1-0.6-3.2-0.6 c-3.1-0.1-6.2-0.2-9.2-0.4c-3.1-0.2-6.2,0-9.4,0c-3.6,0-7.1,0-10.7-0.1c-7.9-0.1-15.8,0.4-23.8,0.3c-4.9-0.1-9.8,0-14.8,0 c-3.6-0.1-7.2-0.5-10.8-0.2c-2.8,0.2-5.5,0.4-8.3,0.3C7.4,5.4,6.8,6,6.9,7.3C7,10.3,7,13.3,7,16.2c0.1,3.5-0.1,7.1-0.5,10.6 c-0.7,5.5-1,11.1-1,16.7c0,4.7,0.9,9.3,0.5,14c-0.1,1.1,0.3,2.3,0.2,3.4c-0.1,0.8,0.5,1.6,1.5,1.4c1.8-0.2,3.7,0,4.6-0.1 c6.7-0.1,12.5-0.5,18.2-0.3c3.8,0.1,7.6-0.1,11.5,0.3c2.3,0.2,4.7,0.6,7,0.7c3.5,0.1,7,0.1,10.4,0c1.8-0.1,3.6,0.1,5.3,0 c3.1-0.2,6.3,0.1,9.4-0.3c1.2-0.1,2.3-0.2,3.5,0.1c0.7,0.2,0.8,0.6,0.8,1.1C78.5,64.4,78,64.3,77.6,64.3z M102.2,49.3 c0.1,0.9-0.2,1.3-0.9,1.4c-0.9,0.1-0.8-0.6-0.9-1.1c-0.1-0.9,0.6-1.3,1.2-1.4C102.7,48.1,101.8,49.1,102.2,49.3z M99.8,48.1 c-0.1,0-0.2,0.1-0.3,0.1c-0.1,0-0.2-0.1-0.1-0.3c0-0.1,0.1-0.1,0.2-0.1C99.7,47.8,99.8,47.9,99.8,48.1z M8.2,20.2 c0,0.1-0.1,0.1-0.1,0.2c-0.1,0-0.2-0.1-0.2-0.1c0-0.1,0.1-0.2,0.1-0.2C8.1,20.1,8.1,20.1,8.2,20.2z M79.4,54.8 c-0.6,1.5-1.1,3.2-1.3,4.9c-0.1,0.9-0.4,0.9-1,0.9c-2,0-4.1,0-6.1-0.3c-3.7-0.5-7.4,0.3-11.2,0.3c-4.5-0.1-9-0.4-13.5-0.1 c-6.1,0.3-12.2-0.3-18.3-0.2c-2,0-4-0.1-6-0.4c-4-0.6-8-0.2-12-0.3c-1.8-0.1-1.9-0.1-1.9-2c0-4.1-0.1-8.3,0.1-12.4 c0.2-3.1,0-6.2,0-9.2c0.1-5.4,0.3-10.8,0.6-16.1c0.3-3.7,0.3-7.5,0.6-11.2C9.5,8,9.7,7.8,10.4,7.7c2.7-0.4,5.5,0,8.2,0 c6,0,12.1-0.6,18.1-0.5c3.2,0.1,6.5,0.3,9.7,0.2c3-0.1,6.1-0.3,9.1-0.3c4.1,0,8.3,0.3,12.4,0.2c5.2-0.1,10.3,0.3,15.5,0.2 c4.2-0.1,8.4,0.3,12.6,0.3c0.9,0,1.3,0.4,1.4,1.3c0.9,5.9,0.3,11.8,0.5,17.7c0,0.3,0,0.7,0,1c0,4.5-0.1,9.1,0,13.6 c0,1.9-0.1,3.7,0,5.6c0,0.5-0.1,0.9-0.6,1c-2.1,0.7-3.9,1.8-6.1,2.3c-0.4,0.1-0.7,0.3-1,0.6c-0.4,0.5-1,0.5-1.6,0.3 C85.6,49.6,80.7,51.9,79.4,54.8z M134.9,82.5c-0.2,1.1-0.5,2.2-0.9,3.3c-0.7,2.1-2.6,2.5-4.4,2.6c-3.7,0.1-7.4,0.5-11.2-0.1 c-2.3-0.3-4.7,0.1-7,0.1c-3.4,0-6.8-0.2-10.2,0c-3.6,0.2-7.3,0.5-10.9,0.7c-2.4,0.2-4.7-0.3-6.8-1.3c-1.5-0.7-2.3-2.1-2.2-4 c0-3.2,0-6.5-0.3-9.7c-0.3-3.1-0.1-6.2,0-9.3c0-1.7,0-3.5-0.2-5.2c-0.3-2.7,2.4-5.3,4.5-5.8c2-0.6,4.1-0.6,6.2-0.8 c2.6-0.2,5.2-0.2,7.8,0.2c1.2,0.2,2.5,0.1,3.8-0.2c1.4-0.3,2.8,0.1,4.1,0.1c3.1,0.1,6.1-0.2,9.1,0.1c4.9,0.5,9.8,0.3,14.7,0.8 c0.2,0,0.4,0.1,0.6,0.1c1.9-0.2,1.9-0.2,2.7,1.6c1,2.5,1.2,5.2,1.4,7.9c0.1,1.9,0,3.7,0,5.9C135.8,73.6,135.6,78.1,134.9,82.5z"/><path d="M93.8,60.7c-1,0.2-1.8,0.8-2.8,1.1c-2.2,0.9-3.6,2.4-4.4,4.7c-0.5,1.3-0.6,2.7-0.8,4.1 c-0.3,3,0.5,5.7,2.7,7.7c2,1.7,4.6,2.5,7.9,2.5c1.8,0.3,3.7-0.9,5.6-2.2c1-0.7,2.2-1.7,2.7-2.8c1-2.3,1.3-4.7,1.1-7.2 C105.7,62.8,97.9,59.9,93.8,60.7z M93.4,78.7c-5.1-1.1-6-4.1-5.1-9.6c0.4-2.6,1.9-4.2,4.3-5c2.3-0.7,4.6-1.7,6.9-0.5 c2.9,1.5,4.5,3.7,4.3,6.9C104.3,76.9,98.5,79.8,93.4,78.7z"/><path d="M125.1,75.6c-1.8,0-3.4,1.5-3.3,3.1c0.1,1.5,1.5,2.6,3.2,2.6c1.9,0,3.6-1.5,3.6-3.1 C128.5,76.8,126.9,75.6,125.1,75.6z M125.1,79.5c-0.5,0-1,0-0.9-0.7c0.1-0.9,0.5-1.4,1.5-1.4c0.7,0,1.1,0.3,1.1,1 C126.7,79.3,125.8,79.4,125.1,79.5z"/><path d="M128.4,72c-0.1-0.9-0.9-1-1.6-0.8c-1,0.3-2,0.2-3,0.2c-3.2,0.4-6.3,0.2-9.5,0.5c-0.6,0.1-1.5,0-1.4,0.9 c0.1,0.8,0.9,0.9,1.6,0.8c1.1-0.2,2.2-0.4,3.2-0.4c3.1,0,6.2,0,9.3-0.3C127.7,72.9,128.5,73,128.4,72z"/><path d="M115.5,74.9c-1.8,0-3.5,1.7-3.5,3.6c0,1.5,1.5,2.9,3.1,2.9c1.5,0,3.2-1.6,3.1-2.8 C118.2,76.9,116.7,74.9,115.5,74.9z M115,79.7c-0.5,0-1.1-0.2-0.9-0.9c0.2-0.8,0-1.9,1.3-1.9c0.9,0,1.2,0.7,1.3,1.3 C116.5,79.5,115.8,79.7,115,79.7z"/><path d="M112.8,69.4c-0.2,0.4,0,0.8,0.3,1c0.4,0.4,1,0.6,1.4,0.3c0.7-0.5,1.4-0.4,2.1-0.4c1.2,0,2.4,0,3.9,0 c1.8,0,4,0.1,6.2-0.3c0.6-0.1,1.2-0.2,1.1-0.9c-0.1-0.7-0.6-0.8-1.3-0.8c-2.6,0.3-5.2,0.4-7.8,0.4c-1.6,0-3.1,0-4.7,0 C113.6,68.8,113.1,68.9,112.8,69.4z"/><path d="M113,63.5c0.4,0.1,0.8,0.3,1.1,0.2c3.3-0.1,6.6,0.7,10.2,0.5c0.7,0,1.6,0,2.6,0c0.6,0,1.1-0.2,1.1-0.9 c0-0.6-0.5-0.9-1.1-0.9c-0.4,0-0.8,0-1.2,0c-1.9,0.1-3.8,0.4-5.7,0.1c-2.2-0.3-4.5-0.3-6.7-0.5c-0.4,0-0.8,0.1-0.9,0.6 C112.3,63.1,112.5,63.4,113,63.5z"/><path d="M121,67.4c2.2-0.1,3.8-0.2,5.4-0.2c0.6,0,1.1-0.3,1-0.9c-0.1-0.8-0.7-0.9-1.3-0.7 c-0.6,0.2-1.2,0.1-1.8,0.2c-3.3,0.3-6.7,0.1-10-0.3c-0.5,0-0.9,0.1-1,0.6c-0.1,0.5,0.2,1,0.8,0.9C116.7,66.8,119.1,67.2,121,67.4z"/></g></g></svg>