<svg id="Слой_1" xmlns="http://www.w3.org/2000/svg" viewBox="0 0 15.2 24.1"><g fill="#FFF"><path d="M13.4,12.5c-1.3-3.7-2.8-7.3-5.8-10C6.5,1.6,5.1,1.2,4,0.2C3.7-0.2,3.1,0.1,2.9,0.6C2.7,1,2.5,1.5,2.3,1.9 l0,0l0,0c0.1,0.6,0.5,0.9,1.1,0.9c2.5,0.3,3.7,1.9,5,3.8c2.2,3.3,3.7,6.8,4.5,10.7c0.2,1.3,0.3,2.6,0.4,3.9c0,0.4,0,0.7-0.5,0.7 c-0.5,0-0.5-0.3-0.6-0.6c-0.5-4.6-1.8-8.9-4.9-12.5C6.9,8.3,6.8,7.4,6,7.2C5.6,7.4,4.7,6,4.7,7.6C5.5,8.7,6.2,10,7,11.1 c1.7,2.4,2.9,5,3.3,7.9c0.1,1.3,0.2,2.5,0.2,3.7c0,0.8,0.3,1.6,1.2,1.2c0.7-0.3,1.4-0.1,2,0c1.2,0.1,1.5-0.3,1.6-1.4 C15.4,19.1,14.6,15.8,13.4,12.5z"/><path d="M5.1,6.4c0.1,0,0.1,0,0.2,0C4.8,5.8,4.1,5.3,3.3,4.9c-1.1-0.5-1.2-1-0.4-1.6C2.3,3,1.9,2.6,2.3,1.9 C1.6,2.6,0.9,3.2,0.3,4c-0.5,0.6-0.6,1.4,0.4,1.6c1.5,0.3,2.7,1.2,3.9,2C4.1,6.9,4.3,6.5,5.1,6.4z"/><path d="M2.9,3.3c0.1,0,0.1-0.1,0.2-0.1c0.1-0.1,0.2-0.2,0.4-0.4c-0.6,0-1-0.3-1.1-0.9l0,0C1.9,2.6,2.3,3,2.9,3.3z"/><path d="M6,7.2C5.8,6.9,5.6,6.6,5.4,6.4c-0.1,0-0.1,0-0.2,0c-0.8,0.1-1,0.5-0.5,1.2C4.7,6,5.6,7.4,6,7.2z"/></g></svg>