<svg id="Слой_1" xmlns="http://www.w3.org/2000/svg" viewBox="0 0 101.5 65.2"><path fill="#FFF" d="M6.6,19.1c0,0.1,0.1,0.1,0.2,0.1c0-0.1,0.1-0.1,0.1-0.2c-0.1,0-0.1-0.1-0.2-0.1C6.7,19,6.6,19.1,6.6,19.1z"/><path fill="#FFF" d="M35.4,46.3c0.7,0,1.4-0.7,1.4-1.4c0.1-1.2-0.8-1.7-1.5-1.7c-0.8,0-1.5,0.7-1.5,1.6 C33.9,45.5,34.7,46.3,35.4,46.3z M35.2,44.5c0.3,0.1,0.9-0.3,1,0.4c-0.1,0.4-0.4,0.5-0.8,0.6c-0.3,0-0.6-0.2-0.6-0.5 C34.8,44.7,34.9,44.4,35.2,44.5z"/><path fill="#FFF" d="M36.9,36.2c0.7,0,1.4-0.7,1.4-1.4c0.1-1.2-0.8-1.7-1.5-1.7c-0.8,0-1.5,0.7-1.5,1.6 C35.4,35.4,36.2,36.2,36.9,36.2z M36.6,34.3c0.3,0.1,0.9-0.3,1,0.4c-0.1,0.4-0.4,0.5-0.8,0.6c-0.3,0-0.6-0.2-0.6-0.5 C36.2,34.6,36.3,34.3,36.6,34.3z"/><path fill="#FFF" d="M70.9,45.7c0.7,0,1.4-0.7,1.4-1.4c0.1-1.2-0.8-1.7-1.5-1.7c-0.8,0-1.5,0.7-1.5,1.6 C69.4,45,70.2,45.8,70.9,45.7z M70.7,43.9c0.3,0.1,0.9-0.3,1,0.4c-0.1,0.4-0.4,0.5-0.8,0.6c-0.3,0-0.6-0.2-0.6-0.5 C70.3,44.2,70.4,43.8,70.7,43.9z"/><path fill="#FFF" d="M69.5,39.3c0.7,0,1.4-0.7,1.4-1.4c0.1-1.2-0.8-1.7-1.5-1.7c-0.8,0-1.5,0.7-1.5,1.6 C68,38.5,68.8,39.3,69.5,39.3z M69.2,37.4c0.3,0.1,0.9-0.3,1,0.4c-0.1,0.4-0.4,0.5-0.8,0.6c-0.3,0-0.6-0.2-0.6-0.5 C68.8,37.7,68.9,37.3,69.2,37.4z"/><path fill="#FFF" d="M78.7,34c0.7,0,1.4-0.7,1.4-1.4c0.1-1.2-0.8-1.7-1.5-1.7c-0.8,0-1.5,0.7-1.5,1.6C77.2,33.2,78,34,78.7,34z M78.5,32.2c0.3,0.1,0.9-0.3,1,0.4c-0.1,0.4-0.4,0.5-0.8,0.6c-0.3,0-0.6-0.2-0.6-0.5C78.1,32.4,78.2,32.1,78.5,32.2z"/><path fill="#FFF" d="M67.7,28c0.7,0,1.4-0.7,1.4-1.4c0.1-1.2-0.8-1.7-1.5-1.7c-0.8,0-1.5,0.7-1.5,1.6C66.2,27.3,66.9,28,67.7,28z M67.4,26.2c0.3,0.1,0.9-0.3,1,0.4c-0.1,0.4-0.4,0.5-0.8,0.6c-0.3,0-0.6-0.2-0.6-0.5C67,26.4,67.1,26.1,67.4,26.2z"/><path fill="#FFF" d="M75.8,19.3c0.7,0,1.4-0.7,1.4-1.4c0.1-1.2-0.8-1.7-1.5-1.7c-0.8,0-1.5,0.7-1.5,1.6 C74.3,18.5,75.1,19.3,75.8,19.3z M75.5,17.4c0.3,0.1,0.9-0.3,1,0.4c-0.1,0.4-0.4,0.5-0.8,0.6c-0.3,0-0.6-0.2-0.6-0.5 C75.2,17.7,75.2,17.3,75.5,17.4z"/><path fill="#FFF" d="M58.9,22.6c0.7,0,1.4-0.7,1.4-1.4c0.1-1.2-0.8-1.7-1.5-1.7c-0.8,0-1.5,0.7-1.5,1.6 C57.4,21.8,58.2,22.6,58.9,22.6z M58.6,20.7c0.3,0.1,0.9-0.3,1,0.4c-0.1,0.4-0.4,0.5-0.8,0.6c-0.3,0-0.6-0.2-0.6-0.5 C58.3,21,58.3,20.6,58.6,20.7z"/><path fill="#FFF" d="M63.6,14.8c0.7,0,1.4-0.7,1.4-1.4c0.1-1.2-0.8-1.7-1.5-1.7c-0.8,0-1.5,0.7-1.5,1.6 C62.1,14,62.9,14.8,63.6,14.8z M63.3,13c0.3,0.1,0.9-0.3,1,0.4c-0.1,0.4-0.4,0.5-0.8,0.6c-0.3,0-0.6-0.2-0.6-0.5 C63,13.2,63,12.9,63.3,13z"/><path fill="#FFF" d="M86.1,11.7c0.7,0,1.4-0.7,1.4-1.4c0.1-1.2-0.8-1.7-1.5-1.7c-0.8,0-1.5,0.7-1.5,1.6 C84.6,11,85.4,11.7,86.1,11.7z M85.8,9.9c0.3,0.1,0.9-0.3,1,0.4c-0.1,0.4-0.4,0.5-0.8,0.6c-0.3,0-0.6-0.2-0.6-0.5 C85.4,10.1,85.5,9.8,85.8,9.9z"/><path fill="#FFF" d="M91.5,22.6c0.7,0,1.4-0.7,1.4-1.4c0.1-1.2-0.8-1.7-1.5-1.7c-0.8,0-1.5,0.7-1.5,1.6 C90,21.8,90.8,22.6,91.5,22.6z M91.3,20.7c0.3,0.1,0.9-0.3,1,0.4c-0.1,0.4-0.4,0.5-0.8,0.6c-0.3,0-0.6-0.2-0.6-0.5 C90.9,21,91,20.6,91.3,20.7z"/><path fill="#FFF" d="M89,36.2c0.7,0,1.4-0.7,1.4-1.4c0.1-1.2-0.8-1.7-1.5-1.7c-0.8,0-1.5,0.7-1.5,1.6 C87.5,35.4,88.3,36.2,89,36.2z M88.7,34.3c0.3,0.1,0.9-0.3,1,0.4c-0.1,0.4-0.4,0.5-0.8,0.6c-0.3,0-0.6-0.2-0.6-0.5 C88.4,34.6,88.4,34.3,88.7,34.3z"/><path fill="#FFF" d="M91.5,46.3c0.7,0,1.4-0.7,1.4-1.4c0.1-1.2-0.8-1.7-1.5-1.7c-0.8,0-1.5,0.7-1.5,1.6 C90,45.5,90.8,46.3,91.5,46.3z M91.3,44.5c0.3,0.1,0.9-0.3,1,0.4c-0.1,0.4-0.4,0.5-0.8,0.6c-0.3,0-0.6-0.2-0.6-0.5 C90.9,44.7,91,44.4,91.3,44.5z"/><path fill="#FFF" d="M68,57c0.7,0,1.4-0.7,1.4-1.4c0.1-1.2-0.8-1.7-1.5-1.7c-0.8,0-1.5,0.7-1.5,1.6C66.5,56.2,67.3,57,68,57z M67.7,55.1c0.3,0.1,0.9-0.3,1,0.4c-0.1,0.4-0.4,0.5-0.8,0.6c-0.3,0-0.6-0.2-0.6-0.5C67.4,55.4,67.4,55,67.7,55.1z"/><path fill="#FFF" d="M51.9,55.4c0.7,0,1.4-0.7,1.4-1.4c0.1-1.2-0.8-1.7-1.5-1.7c-0.8,0-1.5,0.7-1.5,1.6 C50.4,54.7,51.1,55.4,51.9,55.4z M51.6,53.6c0.3,0.1,0.9-0.3,1,0.4c-0.1,0.4-0.4,0.5-0.8,0.6c-0.3,0-0.6-0.2-0.6-0.5 C51.2,53.8,51.3,53.5,51.6,53.6z"/><path fill="#FFF" d="M32.5,57c0.7,0,1.4-0.7,1.4-1.4c0.1-1.2-0.8-1.7-1.5-1.7c-0.8,0-1.5,0.7-1.5,1.6C31,56.2,31.8,57,32.5,57z M32.2,55.1c0.3,0.1,0.9-0.3,1,0.4c-0.1,0.4-0.4,0.5-0.8,0.6c-0.3,0-0.6-0.2-0.6-0.5C31.9,55.4,31.9,55,32.2,55.1z"/><path fill="#FFF" d="M18.8,53.9c0.7,0,1.4-0.7,1.4-1.4c0.1-1.2-0.8-1.7-1.5-1.7c-0.8,0-1.5,0.7-1.5,1.6 C17.4,53.1,18.1,53.9,18.8,53.9z M18.6,52c0.3,0.1,0.9-0.3,1,0.4c-0.1,0.4-0.4,0.5-0.8,0.6c-0.3,0-0.6-0.2-0.6-0.5 C18.2,52.3,18.3,52,18.6,52z"/><path fill="#FFF" d="M11.6,44.7c0.7,0,1.4-0.7,1.4-1.4c0.1-1.2-0.8-1.7-1.5-1.7c-0.8,0-1.5,0.7-1.5,1.6 C10.1,44,10.9,44.8,11.6,44.7z M11.3,42.9c0.3,0.1,0.9-0.3,1,0.4c-0.1,0.4-0.4,0.5-0.8,0.6c-0.3,0-0.6-0.2-0.6-0.5 C11,43.2,11,42.8,11.3,42.9z"/><path fill="#FFF" d="M21.8,37.7c0.7,0,1.4-0.7,1.4-1.4c0.1-1.2-0.8-1.7-1.5-1.7c-0.8,0-1.5,0.7-1.5,1.6 C20.3,37,21.1,37.7,21.8,37.7z M21.5,35.9c0.3,0.1,0.9-0.3,1,0.4c-0.1,0.4-0.4,0.5-0.8,0.6c-0.3,0-0.6-0.2-0.6-0.5 C21.1,36.1,21.2,35.8,21.5,35.9z"/><path fill="#FFF" d="M13.1,32.8c0.7,0,1.4-0.7,1.4-1.4c0.1-1.2-0.8-1.7-1.5-1.7c-0.8,0-1.5,0.7-1.5,1.6 C11.6,32.1,12.3,32.8,13.1,32.8z M12.8,31c0.3,0.1,0.9-0.3,1,0.4c-0.1,0.4-0.4,0.5-0.8,0.6c-0.3,0-0.6-0.2-0.6-0.5 C12.4,31.2,12.5,30.9,12.8,31z"/><path fill="#FFF" d="M18.8,23c0.7,0,1.4-0.7,1.4-1.4c0.1-1.2-0.8-1.7-1.5-1.7c-0.8,0-1.5,0.7-1.5,1.6 C17.4,22.3,18.1,23.1,18.8,23z M18.6,21.2c0.3,0.1,0.9-0.3,1,0.4c-0.1,0.4-0.4,0.5-0.8,0.6c-0.3,0-0.6-0.2-0.6-0.5 C18.2,21.5,18.3,21.1,18.6,21.2z"/><path fill="#FFF" d="M13.1,16.3c0.7,0,1.4-0.7,1.4-1.4c0.1-1.2-0.8-1.7-1.5-1.7c-0.8,0-1.5,0.7-1.5,1.6 C11.6,15.6,12.3,16.3,13.1,16.3z M12.8,14.5c0.3,0.1,0.9-0.3,1,0.4c-0.1,0.4-0.4,0.5-0.8,0.6c-0.3,0-0.6-0.2-0.6-0.5 C12.4,14.7,12.5,14.4,12.8,14.5z"/><path fill="#FFF" d="M23.2,11.7c0.7,0,1.4-0.7,1.4-1.4c0.1-1.2-0.8-1.7-1.5-1.7c-0.8,0-1.5,0.7-1.5,1.6 C21.7,11,22.5,11.7,23.2,11.7z M23,9.9c0.3,0.1,0.9-0.3,1,0.4c-0.1,0.4-0.4,0.5-0.8,0.6c-0.3,0-0.6-0.2-0.6-0.5 C22.6,10.1,22.7,9.8,23,9.9z"/><path fill="#FFF" d="M31,14.8c0.7,0,1.4-0.7,1.4-1.4c0.1-1.2-0.8-1.7-1.5-1.7c-0.8,0-1.5,0.7-1.5,1.6C29.6,14,30.3,14.8,31,14.8z M30.8,13c0.3,0.1,0.9-0.3,1,0.4c-0.1,0.4-0.4,0.5-0.8,0.6c-0.3,0-0.6-0.2-0.6-0.5C30.4,13.2,30.5,12.9,30.8,13z"/><path fill="#FFF" d="M28.2,42.3c0.7,0,1.4-0.7,1.4-1.4c0.1-1.2-0.8-1.7-1.5-1.7c-0.8,0-1.5,0.7-1.5,1.6 C26.7,41.6,27.5,42.3,28.2,42.3z M28,40.5c0.3,0.1,0.9-0.3,1,0.4c-0.1,0.4-0.4,0.5-0.8,0.6c-0.3,0-0.6-0.2-0.6-0.5 C27.6,40.7,27.7,40.4,28,40.5z"/><path fill="#FFF" d="M34,27.5c0.7,0,1.4-0.7,1.4-1.4c0.1-1.2-0.8-1.7-1.5-1.7c-0.8,0-1.5,0.7-1.5,1.6 C32.5,26.8,33.3,27.5,34,27.5z M33.7,25.7c0.3,0.1,0.9-0.3,1,0.4c-0.1,0.4-0.4,0.5-0.8,0.6c-0.3,0-0.6-0.2-0.6-0.5 C33.3,25.9,33.4,25.6,33.7,25.7z"/><path fill="#FFF" d="M28.2,22.6c0.7,0,1.4-0.7,1.4-1.4c0.1-1.2-0.8-1.7-1.5-1.7c-0.8,0-1.5,0.7-1.5,1.6 C26.7,21.8,27.5,22.6,28.2,22.6z M28,20.7c0.3,0.1,0.9-0.3,1,0.4c-0.1,0.4-0.4,0.5-0.8,0.6c-0.3,0-0.6-0.2-0.6-0.5 C27.6,21,27.7,20.6,28,20.7z"/><path fill="#FFF" d="M38.4,18.6c0.7,0,1.4-0.7,1.4-1.4c0.1-1.2-0.8-1.7-1.5-1.7c-0.8,0-1.5,0.7-1.5,1.6 C36.9,17.8,37.6,18.6,38.4,18.6z M38.1,16.7c0.3,0.1,0.9-0.3,1,0.4c-0.1,0.4-0.4,0.5-0.8,0.6c-0.3,0-0.6-0.2-0.6-0.5 C37.7,17,37.8,16.6,38.1,16.7z"/><path fill="#FFF" d="M50.1,13.2c0.7,0,1.4-0.7,1.4-1.4c0.1-1.2-0.8-1.7-1.5-1.7c-0.8,0-1.5,0.7-1.5,1.6 C48.6,12.5,49.4,13.3,50.1,13.2z M49.9,11.4c0.3,0.1,0.9-0.3,1,0.4c-0.1,0.4-0.4,0.5-0.8,0.6c-0.3,0-0.6-0.2-0.6-0.5 C49.5,11.7,49.6,11.3,49.9,11.4z"/></svg>