<svg id="Слой_1" xmlns="http://www.w3.org/2000/svg" viewBox="0 0 75.4 69.8"><g fill="#FFF"><path d="M74.7,50.6c0.5-1.2,0.1-2.4,0.3-3.6c0.2-1.9,0.3-3.7,0.5-5.6c0.1-0.9,0-1.8-1-2.3c-0.7,0-1.4-0.1-2-0.3 c-0.7-0.2-1.1-0.6-0.8-1.3c0.5-1,0.1-1.7-0.6-2.4c-1.8-0.9-3.8-0.6-5.7-1.1c-1.6,0.2-3.1-0.2-4.6-0.4c-0.9-0.1-1.8-0.4-2.6,0.3l0,0 l0,0c2.4,0,4.7,0.5,7,0.9c-1.8-0.2-3.5,0.3-5.3,0.3c-1.4,0-3,1.7-2.6,2.8c0.7,1.9,0.2,3.8,0.1,5.7c-0.1,2.8,0,5.6,0.2,8.3 c0.1,1.1,0.3,2.2,1,3.1c-0.3,0.2-0.5,0.3-0.8,0.5c2.2,0.3,2.8,1.6,3,3.8c0.2,2.6,0.3,5.2,0.4,7.8c0,1,0.2,1.9,1.5,2.2 c1.2,0.2,1.7-0.6,2.3-1.4c0.2-0.3,0.3-0.7,0.4-1.1c0.7-2.7,0.8-5.5,1-8.3c0.1-1.3,0.7-1.9,2-2c0.4,0,0.8,0,1.2,0 c0.9-0.5,1.4-1.3,1.5-2.4c0-0.5,0.2-1.2,0.8-1.2C73.4,52.9,74.3,52.1,74.7,50.6z M62.1,59.4L62.1,59.4L62.1,59.4c0-0.5,0-1-0.1-1.6 c-0.1-0.8,0.2-1,1-1c2.1,0,2.1,0,1.7,2c0,0.1,0,0.3,0,0.4c-0.4,2.3-0.7,4.5-1.1,6.8c-1.1,0.5-1.1-0.5-1.2-1.1 C62,63.1,61.9,61.3,62.1,59.4z M58.7,55c0.1,0,0.2,0.1,0.1,0.2c-0.1,0.1-0.1,0.2-0.2,0.2c-0.1-0.1-0.1-0.2-0.2-0.2 C58.4,54.9,58.6,55,58.7,55z M69.7,40.4c-0.1,2-0.1,4-0.2,6c-0.1,2.5,0,5.1-0.5,7.6c-0.2,0.8-0.5,1.1-1.2,1c-0.9,0-1.7-0.2-2.6-0.1 c-2,0.3-3.8-0.2-5.7-0.5c-0.7-0.1-1-0.6-1.2-1.4c-1.1-5.3-0.1-10.6-0.2-15.9c0-0.8,0.5-1.3,1.3-1.3c2.7,0,5.3-0.4,8,0.4 c1.2,0.4,1.9,0.7,2.1,2C70.2,39,69.8,39.7,69.7,40.4z M73.6,41.8c0,2.5-0.4,5-0.7,7.5c-0.1,0.7-0.2,1.8-1.2,1.7 c-0.8-0.1-0.7-1.2-0.6-1.8c0.2-2.6,0.1-5.1,0.3-7.7C72.1,40.9,72.9,41.1,73.6,41.8z"/><path d="M59.9,56.9c-0.2-0.2-0.4-0.4-0.7-0.5C59.5,56.4,59.7,56.6,59.9,56.9z"/><path d="M21.1,61.5c0-0.1,0-0.3,0-0.4c0.1,0.3,0.1,0.6,0.2,0.9C21.2,61.9,21.1,61.7,21.1,61.5z"/><path d="M22.1,33.4c0,0,0-0.1-0.1-0.1C22.1,33.3,22.1,33.4,22.1,33.4z"/><path d="M33.3,4.5c-0.3-0.5-0.7-0.9-1-1.4c-2.3-1.5-4.9-2-7.6-2c-3,0-5.9-0.5-8.9-1C13-0.2,10.3,0.1,7.5,0.7 C6.5,0.9,5.4,1.2,4.4,1.4C2.6,1.5,1.5,2.5,1.1,4.2C1.1,5,0.9,5.8,0.8,6.6c-0.6,3.9-0.7,7.8,0.1,11.6c0.5,2.5,1.8,4.6,4.7,5.1 c0.2,0,0.3,0,0.5,0l0,0l0,0c0.3-0.5,0.7-0.3,1.1-0.2c2.3,0.3,4.6,0.9,7,0.8c1.9-0.1,3.7,0.3,4.1,2.6c0.1,0.7,1.3,0.8,0.9,1.8h0 c0.5,0.7,1.4,1,1.8,1.8l0,0c-0.1,1.1,0.5,2.3-0.3,3.4c-0.7,0.4-1.4,0.9-2.1,1.3v0c-1.4,0.9-1.8,2.2-1.7,3.8 c0.1,1.5,0.6,3.1-0.4,4.6c-0.2,2.1,0.3,3.9,2,5.4c0.8,0.7,1.7,1.2,2.4,2l0,0l0,0l0,0c0.5,1,0.2,2.1,0.3,3.1l0,0c0,0.1,0,0.2,0,0.3 l0,0c0,0.7,0,1.5,0,2.2c0.1,2-0.2,4,0.2,5.9c0.4-0.1,0.6,0.2,0.8,0.4c0.3,0.5,0.8,0.7,1.2,0.4c0.5-0.3-0.1-0.7-0.2-1.1l0,0 c-1-0.1-1.3-0.8-1.3-1.7c0-1.7,0-3.5,0-5.2c-0.1-3.1,0.1-6.2,0-9.4c-0.1-3.6,0.2-7.1,0.3-10.7c0,0,0-0.1-0.1-0.1 c-0.2-0.5-0.2-1-0.2-1.5l0,0l0,0v0l0,0c0-0.8,0-1.6-0.3-2.4c-0.2-0.5-0.3-1,0-1.6c-0.5,0.1-0.8,0-1.2-0.5c0.6-0.1,0.9,0.3,1.2,0.5 c0.6-0.2,1,0.1,1.3,0.5c0.6-0.1,1.3,0.5,1.7-0.2c0.4-0.8-0.2-1.2-0.7-1.7c-0.6-0.5-0.6-1.3-0.7-2.1c-0.1-1.4,0.6-1.9,1.9-1.6 c0.3,0.1,0.7,0.3,0.9,0.2c1.3-0.7,2.7-0.5,4-0.8c0.7-0.2,1.2-0.4,1.5-1.1c-0.9,0.5-1.9,0.7-3,0.9c-1.6,0.3-3.2,0.2-4.8,0.3 c0-0.1-0.1-0.1-0.1-0.2c0,0,0,0,0,0c0,0.1,0.1,0.1,0.1,0.2c-0.9,0.6-1,1.6-1.1,2.6c0,0,0,0.1,0.1,0.1c0.2,0.4,0.2,0.8,0.2,1.3l0,0 l0,0c0.1,0.2,0.2,0.5,0.3,0.7c0.2,0.3,0.7,0.5,0.8,1.1c-0.4-0.2-0.7-0.2-0.9-0.5c-0.6-0.2-1.3-0.3-1.9-0.8c-0.4,0-0.8-0.2-1.1-0.6 c-0.9-0.5-1.5-1.2-1.9-2.1l0,0c-0.4-0.2-0.3-0.7-0.5-1c-0.3-0.6-0.8-1.1-1.5-1.1c-3.4,0.2-6.6-0.6-9.9-1.1 c-1.3-0.1-2.5-0.4-2.9-1.9c-0.2-1.1-0.3-2.2-0.5-3.3C2.6,13.5,2.2,10,2.8,6.4c0.2-1.1,0.7-2,1.4-2.9c0.5-0.6,1.2-0.7,2-0.9 c4-0.9,8.1-1.2,12.1-0.5v0c0.4,0,0.7,0,1.1,0l0,0c0.3-0.6,0.7-0.5,1.2-0.4c1.5,0.2,2.9,0.2,4.4,0.2c1.9,0,3.7,0.4,5.5,1.2 c1.1,0.5,1.9,1.4,2.9,1.9C33.5,4.9,33.4,4.7,33.3,4.5z M20.9,37.2c0,0.2,0,0.4,0,0.6c0.3,3-0.4,6.1-0.1,9.2 c-0.6-0.2-0.7-0.5-0.9-0.7c-1.7-3-0.5-6.1-0.7-9.2c0-0.6,0.7-1.4,1.4-1.3C21.3,36,20.9,36.8,20.9,37.2z M2.7,19.9 c0.4,0.8,1.1,1.3,1.3,2.3C2.5,21.5,2.1,20.8,2.7,19.9z M7.6,1.7C7.3,2.2,6.9,2,6.5,2.1C3.5,2.8,2.2,4,2,6.4 c-0.3,3.2-0.4,6.3,0.3,9.4c0.2,1,0.4,2,0.5,3.1c0,0.4,0.1,0.9-0.3,1c-0.4,0.1-0.8-0.2-1-0.7c-0.1-0.2-0.1-0.3-0.1-0.5 C0.4,15.4,0.8,12,0.9,8.6c0-1.4,0.4-2.7,0.7-4.1C2.1,2.4,5.4,1.5,7.6,1.7z M14.5,1.1c-2,0.1-3.9,0.6-5.9,0.3 C10.6,1.3,12.5,0.3,14.5,1.1z M18.5,1.4c-1,0.2-2,0.2-2.8-0.5C16.6,1.1,17.6,1.3,18.5,1.4z"/><path d="M53.5,54.2L53.5,54.2L53.5,54.2c1-0.1,1.9-0.2,2.9-0.3l0,0c0.1,0,0.2,0,0.3,0l0,0c0.3,0.4,0.6,0.9,0.9,1.3 c0,0.2,0,0.4,0.1,0.6c0.7,0.2,1.2,0.3,1.5,0.5c-0.1,0-0.2,0-0.3,0c-1.1,0-1.9-0.4-2.4-1.4c-0.2-0.4-0.4-0.7-1-0.6 c-0.8,0.2-1.7,0.4-2.5,0.5c-2.2,0.5-4.5,1-6.7,1.5c-0.1,0-0.2,0-0.4-0.1C48.3,55.3,50.9,54.9,53.5,54.2z"/><path d="M60.9,67.2C61,68.1,61,69,62,69.4c1.4,0.5,3-0.5,3.3-2.1c0.6-2.6,0.9-5.3,1.1-8c0.1-2.3,0.2-2.3,2.4-2.4 c0.1,0,0.3,0,0.4-0.1c0.1,0,0.1,0,0.2-0.1c0,0,0,0.1,0,0.1c-0.3,0.2-0.6,0.3-1,0.3c-1.2-0.2-1.7,0.4-1.8,1.6 c-0.1,1.7-0.1,3.4-0.4,5.1c-0.4,1.9-0.1,4.1-2,5.5c-1.3,0.9-3,0.5-3.3-1.1c-0.3-1.4-0.4-2.7-0.4-4.1c0.1-2.2-0.4-4.4-0.6-6.6 c0-0.2-0.1-0.4-0.1-0.6c0.3,0.4,0.4,1.1,0.6,2.4C60.8,61.9,60.7,64.6,60.9,67.2z"/><path d="M57.5,55.3c0.1,0.1,0.1,0.2,0.2,0.3l0,0c2.2,0.3,2.8,1.6,3,3.8c0.2,2.6,0.3,5.2,0.4,7.8 c0,1,0.2,1.9,1.5,2.2c1.2,0.2,1.7-0.6,2.3-1.4c0.2-0.3,0.3-0.7,0.4-1.1c0.7-2.7,0.8-5.5,1-8.3c0.1-1.3,0.7-1.9,2-2 c0.4,0,0.8,0,1.2,0c0,0,0,0.1,0,0.1c-0.1,0-0.1,0-0.2,0.1c-0.1,0-0.3,0.1-0.4,0.1c-2.2,0.2-2.3,0.2-2.4,2.4c-0.1,2.7-0.5,5.4-1.1,8 c-0.4,1.6-1.9,2.7-3.3,2.1c-1-0.4-1-1.3-1.1-2.2c-0.3-2.6-0.1-5.3-0.5-7.9c-0.2-1.3-0.3-2-0.6-2.4c-0.1-0.3-0.3-0.5-0.7-0.5 c-0.4-0.2-0.8-0.3-1.5-0.5C57.5,55.7,57.5,55.5,57.5,55.3z"/><path d="M57.1,34.3L57.1,34.3c-0.6,2-1,2.1-2.8,1.3c-5.2-2.4-10.2-4.9-15.3-7.5c0-0.1,0-0.2,0-0.3 c2,1,4.1,1.9,6.1,3c3.3,1.7,6.7,3.2,10.1,4.7c0.5,0.4,0.9,0.4,1.2-0.3c0.1-0.3,0.3-0.6,0.4-0.8C56.9,34.3,57,34.3,57.1,34.3 L57.1,34.3z"/><path d="M0.2,8.6c0.1-1.5,0.1-3,0.9-4.4c-0.8,3.2-0.9,6.4-0.9,9.7c0,2.2,0.3,4.3,1.2,6.3c0.8,1.9,2.1,2.9,4,3.3 c0.1,0,0.1,0,0.2,0c0,0,0,0.1,0,0.1c-2.4-0.2-4.2-1.9-5-4.9C-0.3,15.3,0,11.9,0.2,8.6z"/><path d="M0.8,6.6c-0.6,3.9-0.7,7.8,0.1,11.6c0.5,2.5,1.8,4.6,4.7,5.1c0,0,0,0.1,0,0.1c-0.1,0-0.1,0-0.2,0 c-1.9-0.4-3.2-1.4-4-3.3c-0.9-2.1-1.1-4.1-1.2-6.3c-0.1-3.3,0.1-6.5,0.9-9.7C1.1,5,0.9,5.8,0.8,6.6z"/><path d="M43.9,56.5c0,0-0.1,0.1-0.1,0.1C43.8,56.6,43.9,56.5,43.9,56.5z"/><path d="M27.3,60.3c0.7,0,1.4-0.2,2.1-0.5l0,0c0.4,0,0.8,0,1.2-0.2c0,0,0.1,0,0.1-0.1l0,0l0,0l0,0 c0.8-0.2,1.6-0.3,2.4-0.5h0c0.3-0.1,0.5-0.2,0.8-0.2c0,0,0,0,0,0c0.9-0.1,1.8-0.1,2.6-0.6c0.9,0,1.8-0.1,2.6-0.5l0,0l0,0l0,0l0,0 c0.2-0.1,0.4-0.1,0.6-0.2c0.2,0,0.3,0,0.4-0.1c0.1,0,0.2,0,0.3,0l0,0c0.8,0,1.6-0.1,2.4-0.5c0.4,0,0.7,0,1-0.2l0,0 c0.5,0,0.9,0,1.3-0.2c0.1,0,0.2-0.1,0.2-0.1c0.2,0,0.3,0,0.5,0c0,0,0,0,0,0c0.1,0.1,0.3,0.1,0.4,0c-1.1,0.7-2.5,0.7-3.7,1 c-5.3,1.3-10.8,2-16,3.7c0-0.1,0-0.2,0-0.3C26.8,60.6,27,60.4,27.3,60.3z"/><path d="M45.8,56.3C45.8,56.3,45.8,56.3,45.8,56.3C45.8,56.3,45.8,56.3,45.8,56.3L45.8,56.3c0.2,0,0.3,0,0.4,0 C46.1,56.5,45.9,56.5,45.8,56.3z"/><path d="M33.8,25.5c-1.7-0.7-1.7-0.8-0.8-2.3c0.6-1.1,1.3-2.2,1.4-3.5c0.1-0.3,0.1-0.6,0.1-0.9 c0.4-2.4,0.6-4.8,0.1-7.3c0-0.1,0-0.2,0-0.3l0,0l0,0c-0.1-0.8,0.1-1.6-0.3-2.4c0-0.1,0-0.2,0-0.3l0,0c0-0.5,0-0.9,0-1.4v0 c0.8,3.1,0.9,6.4,0.7,9.6c-0.2,2.1-0.2,4.4-1.6,6.2c-0.8,1-0.7,1.7,0.5,2.3C33.9,25.4,33.8,25.5,33.8,25.5L33.8,25.5z"/><path d="M21,50.8c0.1,1,0,1.9,0.1,2.9c0,0.1,0,0.3,0,0.4c0,0.9,0,1.8,0,2.8c-0.1,1.1-0.1,2.1,0,3.2 c0,0.2,0,0.4,0,0.6c0,0.5-0.1,1,0.2,1.4c0.1,0.1,0.2,0.2,0.3,0.3c0,0.1,0,0.1,0.1,0.2c0.3,0.2,0.6,0.4,0.9,0.5 c0.4,0.2,0.9,0.3,1.3,0.2c0.8-0.1,1.5-0.5,2-1.3l0,0c0.1,0,0.2,0,0.3,0c-0.1,0.2,0,0.6-0.2,0.7c-1.1,0.8-2.3,1.3-3.6,0.8 c-1.3-0.5-1.4-1.6-1.4-2.7c0-3.4,0-6.9,0-10.3c0,0,0.1,0,0.1,0C20.9,50.7,20.9,50.7,21,50.8z"/><path d="M21,50.6L21,50.6c0.1,1-0.2,2.1,0.3,3.1l0,0l0,0c0,0.1,0,0.2,0,0.3l0,0l0,0c-0.1,1-0.2,1.9-0.3,2.9 c0-0.9,0-1.8,0-2.8c0-0.1,0-0.3,0-0.4c0-1,0.1-1.9-0.1-2.9c0-0.1-0.1-0.2-0.1-0.2C20.9,50.6,20.9,50.6,21,50.6L21,50.6z"/><path d="M21.1,61.5c0,0.2,0.1,0.4,0.2,0.5c0,0.1,0,0.2,0.1,0.2c0,0,0,0.1,0,0.1c-0.1-0.1-0.2-0.2-0.3-0.3 c-0.2-0.5-0.2-0.9-0.2-1.4c0-0.2,0-0.4,0-0.6c0,0.3,0.1,0.7,0.1,1C21.2,61.3,21.2,61.4,21.1,61.5z"/><path d="M23.7,63.3c-0.3,0.1-0.8,0-1.3-0.2C22.9,63.3,23.3,63.4,23.7,63.3z"/><path d="M5.7,23.5c0.1,0,0.2,0,0.3,0.1c0.2,0,0.3,0,0.5,0c1.5,0.7,3.2,0.8,4.8,1c0.6,0.1,1.3,0.1,1.9,0.1 c2,0,3.8,0.5,4.6,2.6c-0.1,0-0.2,0-0.3,0c-0.7-1.1-1.4-2.2-3-2.1c-1.2,0-2.5,0-3.7-0.3C9,24.6,7.2,24.6,5.7,23.5 C5.6,23.6,5.7,23.5,5.7,23.5z"/><path d="M5.7,23.4C5.6,23.4,5.6,23.3,5.7,23.4c0.1-0.1,0.2-0.1,0.4-0.1l0,0c0.1,0.1,0.3,0.2,0.4,0.2 c-0.2,0-0.3,0-0.5,0C5.9,23.5,5.8,23.5,5.7,23.4C5.7,23.5,5.7,23.5,5.7,23.4z"/><path d="M5.7,23.5C5.7,23.5,5.6,23.6,5.7,23.5C5.6,23.6,5.6,23.5,5.7,23.5C5.6,23.5,5.6,23.5,5.7,23.5z"/><path d="M5.7,23.4C5.7,23.5,5.7,23.5,5.7,23.4C5.6,23.5,5.6,23.5,5.7,23.4C5.6,23.4,5.6,23.4,5.7,23.4 C5.6,23.3,5.6,23.4,5.7,23.4z"/><path d="M18.4,34.8c-1.4,1-1.8,2.3-1.6,3.9c0.1,1,0,2,0.2,3c0.1,0.6-0.2,1-0.6,1.4c-0.1,0.6-0.1,1.2-0.1,1.8 c0,0.3,0,0.5,0,0.8c-0.3-1.1-0.5-2.1,0.3-3c0.3-0.3,0.3-0.7,0.2-1c-0.3-1.2-0.1-2.4-0.2-3.6c-0.1-1.6,0.6-2.7,2.1-3.4 c0,0,0,0,0,0.1C18.5,34.7,18.5,34.8,18.4,34.8z"/><path d="M17,38.7c0.1,1.5,0.6,3.1-0.4,4.6c-0.3,0.5-0.3,1.1-0.3,1.6c0-0.6,0-1.1,0.1-1.8c0.3-0.4,0.7-0.8,0.6-1.4 c-0.2-1,0-2-0.2-3c-0.3-1.7,0.2-3,1.6-3.9c0.1-0.1,0.2-0.1,0.3-0.2c0,0.1,0,0.2,0,0.2C17.2,35.8,16.9,37,17,38.7z"/><path d="M18.1,48.4c0.9,0.7,1.5,1.7,2.6,2.1c0,0,0,0,0,0c0,0-0.1,0-0.1,0.1c-1.6-0.3-2.2-1.9-3.4-2.8 c-0.7-0.5-1-1.3-1-2.1c0-0.1,0.1-0.1,0.1-0.2C16.6,46.5,17.1,47.5,18.1,48.4z"/><path d="M16.6,43.2c-0.2,2.1,0.3,3.9,2,5.4c0.8,0.7,1.7,1.2,2.4,2l0,0c-0.1-0.1-0.1-0.1-0.2-0.1c0,0,0,0,0,0 c-1.1-0.4-1.8-1.4-2.6-2.1c-1-0.9-1.6-1.9-1.8-3C16.6,44.7,16.2,43.9,16.6,43.2z"/><path d="M20.8,50.6c0,0-0.1,0-0.1,0C20.7,50.6,20.8,50.5,20.8,50.6C20.8,50.5,20.8,50.6,20.8,50.6z"/><path d="M21,50.6c-0.1,0-0.1,0-0.2,0c0,0,0,0,0-0.1C20.9,50.5,20.9,50.5,21,50.6z"/><path d="M16.3,44.8c0,0.2,0,0.4,0.1,0.6c0,0.1,0,0.1-0.1,0.2C16.3,45.4,16.3,45.1,16.3,44.8z"/><path d="M16.6,43.2c-0.3,0.7,0,1.5-0.2,2.2c0-0.2-0.1-0.4-0.1-0.6C16.3,44.3,16.3,43.8,16.6,43.2z"/><path d="M69.5,56.7C69.5,56.7,69.5,56.7,69.5,56.7c1.1-0.4,1.5-1.4,1.6-2.5c0-0.6,0.1-1,0.8-1.1 c2.3-0.4,2.3-0.4,2.7-2.5c-0.1,1.8-0.5,2.5-2.1,2.6c-1.1,0.1-1.3,0.6-1.4,1.4c-0.1,1.1-0.6,1.9-1.7,2.3 C69.5,56.8,69.6,56.7,69.5,56.7z"/><path d="M71.9,53c-0.7,0.1-0.8,0.5-0.8,1.1c-0.1,1.2-0.5,2.1-1.6,2.5c0,0-0.1-0.1-0.1-0.1c0.9-0.5,1.4-1.3,1.5-2.4 c0-0.5,0.2-1.2,0.8-1.2c1.6,0,2.5-0.9,2.9-2.4C74.2,52.7,74.2,52.7,71.9,53z"/><path d="M69.5,56.7C69.5,56.7,69.5,56.7,69.5,56.7c0,0.1,0,0.1-0.1,0.2C69.4,56.8,69.4,56.7,69.5,56.7 C69.5,56.7,69.5,56.7,69.5,56.7z"/><path d="M69.5,56.7C69.5,56.7,69.5,56.7,69.5,56.7C69.4,56.7,69.4,56.6,69.5,56.7C69.5,56.6,69.5,56.6,69.5,56.7z"/><path d="M58,33.7c0,0.1,0,0.2,0,0.2c-0.4-0.1-0.6,0-0.9,0.3c-0.1,0-0.2,0-0.4,0c0.3-0.9,1.1-0.9,1.8-1 c2.3-0.2,4.5,0.4,6.7,0.7c-2.1,0-4-0.7-6.1-0.6C58.8,33.4,58.3,33.2,58,33.7z"/><path d="M60.7,33.7c-0.9-0.1-1.8-0.4-2.6,0.3l0,0c0,0,0,0-0.1,0c0-0.1,0-0.1,0-0.2c0.3-0.5,0.8-0.3,1.2-0.3 c2.1,0,4,0.6,6.1,0.6C63.7,34.3,62.2,33.9,60.7,33.7z"/><path d="M57.2,34.3C57.1,34.3,57.1,34.3,57.2,34.3L57.2,34.3c-0.2,0.1-0.3,0-0.4,0C56.9,34.2,57,34.2,57.2,34.3z"/><path d="M34.1,7.5c-0.1-0.8-0.2-1.6-0.5-2.4c0,0,0,0,0,0c0.2-0.3,0-0.5-0.2-0.7c0.1,0,0.1,0,0.2,0 c0.9,0.8,1,1.8,0.7,2.9l0,0C34.3,7.4,34.2,7.4,34.1,7.5z"/><path d="M33.6,5c-0.1-0.2-0.2-0.3-0.3-0.5c0.1,0,0.1,0,0.2,0c0.1,0.2,0.3,0.4,0.2,0.7c0,0,0,0,0,0 C33.6,5.1,33.6,5.1,33.6,5L33.6,5z"/><path d="M34.3,8.7c-0.1-0.4-0.2-0.8-0.3-1.2c0.1-0.1,0.2-0.1,0.3-0.2l0,0v0C34.4,7.8,34.4,8.2,34.3,8.7z"/><path d="M37,27c-1-0.5-2.1-1-3.1-1.5c0-0.1,0.1-0.1,0.1-0.2c1.3,0.3,2.3,1,3.4,1.6C37.2,27,37.1,27,37,27L37,27z"/><path d="M33.8,25.5c0-0.1,0.1-0.1,0.1-0.2C33.9,25.4,33.9,25.5,33.8,25.5C33.8,25.5,33.8,25.5,33.8,25.5z"/><path d="M20.9,30.3c-0.2,1,0.4,2.1-0.2,3.2c-0.1,0-0.1,0.1-0.2,0.1c-0.1,0-0.1,0-0.2,0c0.9-1,0.1-2.2,0.4-3.4 c0,0,0,0,0.1,0C20.8,30.2,20.9,30.2,20.9,30.3z"/><path d="M21,30.1L21,30.1c-0.1,1.1,0.5,2.3-0.3,3.4c-0.1,0-0.1,0-0.2,0c0.1,0,0.1-0.1,0.2-0.1c0.6-1,0-2.1,0.2-3.2 c0,0,0-0.1-0.1-0.1C20.9,30.1,20.9,30.1,21,30.1L21,30.1z"/><path d="M18.9,28.3L18.9,28.3C18.9,28.3,18.9,28.3,18.9,28.3C18.9,28.4,19,28.4,18.9,28.3c0.5,0.9,1.5,1,1.9,1.8 c0,0,0,0,0,0c-0.6-0.5-1.4-0.9-1.9-1.5l0,0C18.9,28.5,18.9,28.4,18.9,28.3L18.9,28.3z"/><path d="M19.2,28.3L19.2,28.3c0.5,0.7,1.4,1,1.8,1.8c-0.1-0.1-0.1-0.1-0.2,0c-0.4-0.8-1.4-0.9-1.8-1.7 c0,0,0-0.1-0.1-0.1C19,28.3,19.1,28.3,19.2,28.3L19.2,28.3z"/><path d="M20.8,30.2C20.8,30.2,20.8,30.2,20.8,30.2C20.8,30.1,20.8,30.1,20.8,30.2C20.8,30.1,20.8,30.1,20.8,30.2z"/><path d="M21,30.1L21,30.1c-0.1,0-0.1,0-0.2,0c0,0,0,0,0,0C20.9,30,20.9,30,21,30.1z"/><path d="M18.7,34.6C18.7,34.6,18.7,34.6,18.7,34.6c0.4-0.6,1-0.9,1.7-1.1c0,0,0,0.1,0.1,0.1 C19.8,33.9,19.2,34.2,18.7,34.6z"/><path d="M20.8,33.6c-0.7,0.4-1.4,0.9-2.1,1.3v0l0,0c0.1-0.1,0.1-0.2,0-0.3c0.6-0.4,1.2-0.7,1.8-1 C20.5,33.7,20.6,33.7,20.8,33.6z"/><path d="M18.6,34.6C18.6,34.6,18.6,34.6,18.6,34.6C18.7,34.6,18.7,34.6,18.6,34.6C18.7,34.6,18.7,34.6,18.6,34.6z"/><path d="M18.7,34.9L18.7,34.9c0-0.1,0-0.2,0-0.2c0,0,0,0,0,0C18.8,34.7,18.8,34.8,18.7,34.9z"/><path d="M20.4,33.6C20.4,33.6,20.4,33.5,20.4,33.6C20.4,33.5,20.5,33.5,20.4,33.6C20.5,33.5,20.5,33.6,20.4,33.6z"/><path d="M20.4,33.6C20.5,33.6,20.5,33.5,20.4,33.6c0.2,0,0.2,0,0.3,0C20.6,33.7,20.5,33.7,20.4,33.6z"/><path d="M37.2,27.2c0-0.1,0.1-0.1,0.1-0.2c0.7,0.1,1.2,0.4,1.8,0.8c-0.1,0.1-0.1,0.2-0.2,0.3 C38.3,27.7,37.8,27.4,37.2,27.2z"/><path d="M38.9,28c0-0.1,0.1-0.2,0.2-0.3c0,0.1,0,0.2,0,0.3C39,28,39,28,38.9,28z"/><path d="M37,27c0.1,0,0.2,0,0.4-0.1c0,0.1-0.1,0.1-0.1,0.2C37.1,27.1,37,27.1,37,27z"/><path d="M33.4,4.4c-0.2-0.6-0.8-0.8-1.1-1.3c0.7,0.2,1.1,0.7,1.4,1.3C33.6,4.4,33.5,4.4,33.4,4.4z"/><path d="M33.4,4.4c0,0-0.1,0.1-0.1,0.1c-0.3-0.5-0.7-0.9-1-1.4C32.6,3.6,33.2,3.8,33.4,4.4z"/><path d="M33.5,4.5C33.5,4.4,33.4,4.4,33.5,4.5c0-0.1,0.1-0.1,0.2,0C33.6,4.5,33.5,4.5,33.5,4.5 C33.5,4.5,33.5,4.5,33.5,4.5z"/><path d="M33.4,4.4C33.4,4.4,33.5,4.4,33.4,4.4C33.5,4.5,33.5,4.5,33.4,4.4c0,0.1-0.1,0.1-0.1,0.1 C33.3,4.4,33.4,4.4,33.4,4.4z"/><path d="M17.9,27.3c0.3,0.3,0.7,0.7,1,1c0,0,0,0,0,0c-0.1,0.1-0.1,0.2,0,0.3v0c-0.7-0.2-1.1-0.7-1.3-1.3 C17.7,27.4,17.8,27.4,17.9,27.3z"/><path d="M17.9,27.3c-0.1,0.1-0.2,0.1-0.3,0C17.7,27.3,17.8,27.3,17.9,27.3C17.9,27.3,17.9,27.3,17.9,27.3z"/><path d="M18.9,28.3C18.9,28.3,18.9,28.3,18.9,28.3C18.9,28.3,18.9,28.3,18.9,28.3L18.9,28.3c0,0.1,0,0.2,0,0.3 C18.8,28.5,18.8,28.4,18.9,28.3z"/><path d="M26.2,60.8L26.2,60.8c0,0,0.1,0,0.1,0c0,0.1,0,0.2,0.1,0.3c-0.2,0.3-0.4,0.7-0.5,1C25.9,62,25.8,62,25.8,62 C25.9,61.6,26.1,61.2,26.2,60.8z"/><path d="M26.5,60.8L26.5,60.8c0,0.1,0,0.2,0,0.3c-0.1-0.1-0.1-0.2-0.1-0.3C26.4,60.8,26.5,60.8,26.5,60.8z"/><path d="M25.8,62c0.1,0,0.1,0.1,0.2,0.1c-0.1,0-0.2,0-0.3,0C25.7,62,25.7,62,25.8,62z"/><path d="M62.4,34.7c-0.5,0-1,0-1.5-0.1C61.4,34.7,61.9,34.8,62.4,34.7z"/><path d="M31.2,58.7L31.2,58.7c1-0.5,2.2-0.4,3.1-1h0c0.5-0.1,1-0.2,1.6-0.3l0,0c0.4-0.2,0.7-0.3,1.1-0.5l0,0 c0.4,0,0.8,0,1.1-0.2c0.1,0,0.1,0,0.1-0.1c0.5-0.2,1.1-0.3,1.6-0.5l0,0c0.4,0.1,0.8,0.3,1-0.3c5-1.4,9.9-3.1,14.9-4.2v0l0,0 c1-1,0.6-2.3,0.5-3.5c-0.2-2.9-0.5-5.7-0.2-8.6c0.2-1.8-0.1-1.9-1.9-2.4c-2.1-0.6-3.8-1.8-5.7-2.8c-1.9-0.9-3.8-1.9-5.7-2.9l0,0 c-1.7-0.9-3.5-1.7-5.2-2.6l0,0c-0.7-0.3-1.5-0.5-2.1-1.1l0,0l0,0c-0.4-0.6-1-0.6-1.6-0.8c-1.5-0.6-3-1.2-4.5-1.8h0 c-0.2-0.5-0.6-0.5-1-0.3c-0.4,0-0.8,0-1.2,0.1c-2.2,0.3-2.8,1.7-1.7,3.6c0,0.1-0.1,0.2-0.1,0.4c-0.1-0.4-0.3-0.7-0.6-1 c-0.5-0.5-0.5-1.2-0.6-1.8c0-0.6,0.2-1.1,0.9-1.1c1.9-0.1,3.6-0.9,5.6-0.9c1.2,0,1.5-0.6,1.2-1.6l0,0c0-0.1,0-0.2,0-0.2 c1.2-1.4,1.2-3.3,1.8-5l0,0c0.1-0.2,0.2-0.3,0.3-0.5v0l0,0c0.1-0.1,0.3-0.1,0.4-0.2c-0.1,0.9-0.3,1.9-0.5,2.8 c-0.2,1.5-0.9,2.7-1.6,3.9c-0.4,0.6-0.5,1.2-0.1,1.8c0.4,0.6,0.9,0.7,1.6,0.5c0.1,0,0.1-0.1,0.2-0.1c0.4,1,1.8,1.8,3.2,1.8 c0.3,0.9,0.8,1.1,1.9,0.8c0,0.6,0.6,0.8,1,1.1c4.8,2.6,9.8,4.9,14.7,7.2c0.8,0.4,1.6,0.6,2.3-0.2c0.4-0.5,0.9-1.1,0.4-1.9 c0.3,0,0.6,0,0.8-0.3c0.1,0.4,0.4,0.7,0.8,0.6c0.2,0,0.4-0.1,0.5-0.1c-1.8,0.3-3.2,2-2.7,4.1c0.4,1.7,0,3.4-0.1,5.1 c-0.1,2.8,0.3,5.5,0.2,8.3c0,0.9,0.7,1.7,0.7,2.6c-0.1-0.3-0.4-0.6-0.7-0.9c0-0.1,0-0.1-0.1-0.2c-0.2-0.2-0.3-0.1-0.5,0 c0,0,0,0,0,0c-0.9-0.1-1.9-0.3-2.8-0.2c-2,0.8-4.2,1.1-6.3,1.8c-0.6,0.2-1.3,0.3-1.3,1.1c-0.1-0.2-0.2-0.3-0.4-0.4 c-0.6-0.1-1.1-0.1-1.7,0c-0.4,0.1-0.7,0.3-1.1,0.4c-0.8,0-1.4,0.5-2.2,0.5c-0.1,0-0.2,0.1-0.4,0.1c-0.4,0-0.7,0-1.1,0.1 c-0.1,0-0.2,0.1-0.3,0.2c-0.7,0.2-1.5,0.3-2.2,0.5c-0.1,0-0.2,0.1-0.3,0.2c-0.8,0.2-1.6,0.4-2.3,0.6c-0.3,0.1-0.5,0.3-0.9,0.3 c-0.5,0.1-0.9,0.2-1.4,0.3C31.5,58.8,31.3,58.8,31.2,58.7L31.2,58.7z"/><path d="M25.8,28.8c0.1,0,0.1,0,0.2,0.1C25.9,28.8,25.9,28.8,25.8,28.8z"/><path d="M62.5,34.7C62.6,34.7,62.6,34.7,62.5,34.7C62.6,34.7,62.6,34.7,62.5,34.7z"/><path d="M25.5,29.4c0.3,0.1,0.3-0.3,0.4-0.5c0.6,0.4,1.2,0.9,1.8,1.3v0c0.1,0.4,0.4,0.7,0.8,0.8 c-0.8,0.8-1.7,0.4-2.6,0.3c-0.7,0.2-1.3-1-2.1-0.3c-0.3-0.2-0.7-0.4-1-0.5l0,0c0-0.1,0.1-0.1,0.1-0.2c0.1,0,0.1,0.1,0.2,0.1 c0.7,0.1,1.5,0.6,2-0.2c0.1-0.3,0.2-0.5,0.2-0.8C25.4,29.3,25.5,29.3,25.5,29.4z"/><path d="M37,29.5c0.1,0,0.2-0.1,0.3-0.2c0,0.1,0.1,0.2,0.2,0.3c-0.1,0-0.2,0-0.3,0C37.2,29.6,37.1,29.5,37,29.5z"/><path d="M37.2,56.7c-0.1,0-0.2,0.1-0.2,0.1C37.1,56.8,37.1,56.8,37.2,56.7z"/><path d="M55.4,50.3c0,0.2,0.1,0.5,0.1,0.7c-0.2-0.2-0.5-0.1-0.8-0.1c0.1-0.1,0.2-0.1,0.3-0.2 C55.2,50.6,55.3,50.5,55.4,50.3z"/><path d="M62.4,34.7c0.1,0,0.1,0,0.2,0C62.5,34.7,62.4,34.7,62.4,34.7z"/><path d="M57.5,54.7c0-0.9-0.7-1.7-0.7-2.6c0-2.8-0.3-5.5-0.2-8.3c0-1.7,0.4-3.4,0.1-5.1c-0.5-2.1,0.9-3.8,2.7-4.1 c0.5,0,1,0,1.5,0.1c0.5,0.1,1,0.1,1.5,0.1c0.1,0,0.1,0,0.2,0c0,0,0.1,0,0.1,0c0.1,0,0.2,0,0.3-0.1c-0.1,0-0.2,0-0.3,0.1 c0,0-0.1,0-0.1,0c-0.1,0-0.1,0-0.2,0c-0.5,0-1,0-1.5-0.1c-0.2,0-0.4-0.1-0.6-0.1c-0.3,0-0.6,0-0.9,0c-0.2,0-0.4,0-0.5,0.1 c-0.4,0.1-0.7-0.2-0.8-0.6c0,0,0,0,0.1-0.1l0,0c2.4,0,4.7,0.5,7,0.9c-1.8-0.2-3.5,0.3-5.3,0.3c-1.4,0-3,1.7-2.6,2.8 c0.7,1.9,0.2,3.8,0.1,5.7c-0.1,2.8,0,5.6,0.2,8.3c0.1,1.1,0.3,2.2,1,3.1c-0.3,0.2-0.5,0.3-0.8,0.5h0C57.7,55.2,57.6,54.9,57.5,54.7 z"/><path d="M60.3,34.6c0.2,0,0.4,0.1,0.6,0.1c-0.5,0-1-0.1-1.5-0.1C59.7,34.6,60,34.6,60.3,34.6z"/><path d="M62.6,34.7c0.1,0,0.2,0,0.3-0.1C62.8,34.7,62.7,34.7,62.6,34.7z"/><path d="M30.5,24.1c-1.9,0-3.7,0.7-5.6,0.9c-0.6,0-0.9,0.5-0.9,1.1c0,0.6,0.1,1.3,0.6,1.8c0.3,0.3,0.5,0.7,0.6,1 c0,0.1,0,0.2,0,0.3c0,0.3-0.1,0.5-0.2,0.8c-0.5,0.9-1.3,0.4-2,0.2c-0.1,0-0.1,0-0.2-0.1c0-0.1,0.1-0.2,0.1-0.3 c0.6-0.1,1.3,0.5,1.7-0.2c0.4-0.8-0.2-1.2-0.7-1.7c-0.6-0.5-0.6-1.3-0.7-2.1c-0.1-1.4,0.6-1.9,1.9-1.6c0.3,0.1,0.7,0.3,0.9,0.2 c1.3-0.7,2.7-0.5,4-0.8c0.7-0.2,1.2-0.4,1.5-1.1l0,0C32.1,23.6,31.7,24.2,30.5,24.1z"/><path d="M56.8,53.8c0.3,0.2,0.6,0.5,0.7,0.9c0,0,0,0.1,0,0.1c0,0.1,0,0.1,0,0.2c0,0.1,0,0.2-0.1,0.3 c-0.3-0.4-0.6-0.9-0.9-1.3l0,0h0C56.7,53.9,56.8,53.9,56.8,53.8z"/><path d="M45.8,56.2c0-0.8,0.7-0.9,1.3-1.1c2.1-0.6,4.3-0.9,6.3-1.8c1-0.1,1.9,0,2.8,0.2c0,0,0,0,0,0 c-0.1,0-0.1,0.1-0.2,0.1c-0.9-0.1-1.8,0.1-2.6,0.5l0,0C50.9,54.9,48.3,55.3,45.8,56.2L45.8,56.2C45.8,56.3,45.8,56.3,45.8,56.2z"/><path d="M57.5,54.8c0,0,0-0.1,0-0.1c0.1,0.3,0.2,0.6,0.1,0.9h0l0,0c-0.1-0.1-0.1-0.2-0.2-0.3c0-0.1,0-0.2,0.1-0.3 C57.5,54.9,57.5,54.8,57.5,54.8z"/><path d="M56.9,36.2c-0.6,0.8-1.5,0.5-2.3,0.2c-5-2.3-9.9-4.6-14.7-7.2c-0.4-0.2-1-0.4-1-1.1c0.1,0,0.1,0,0.2-0.1 c5.1,2.6,10.1,5.2,15.3,7.5c1.8,0.8,2.1,0.7,2.8-1.3l0,0c0,0,0.1,0,0.1,0C57.8,35.1,57.3,35.7,56.9,36.2z"/><path d="M39.1 57.6L39.1 57.6 39.1 57.6z"/><path d="M45.1,56.4c0.1,0,0.2-0.1,0.2-0.1C45.3,56.4,45.2,56.4,45.1,56.4z"/><path d="M39.7,57.5c0.1,0,0.3-0.1,0.4-0.1C40,57.5,39.9,57.5,39.7,57.5z"/><path d="M31.6,58.9c0.5-0.1,0.9-0.2,1.4-0.3c0.3,0,0.6-0.2,0.9-0.3c0.8-0.2,1.5-0.4,2.3-0.6 c0.1-0.1,0.2-0.1,0.3-0.2c0.7-0.2,1.5-0.3,2.2-0.5c0.1-0.1,0.2-0.1,0.3-0.2c0.3-0.1,0.7-0.1,1.1-0.1c0.1,0,0.2-0.1,0.4-0.1 c0.7,0,1.4-0.5,2.2-0.5c0.4,0,0.7-0.2,1.1-0.4c0.6-0.1,1.1-0.1,1.7,0c0.2,0.1,0.3,0.2,0.4,0.4c0,0,0,0,0,0.1c-0.2,0-0.3,0-0.5,0 c-0.5,0-1-0.1-1.4,0.2c-0.1,0-0.1,0.1-0.1,0.1c0,0,0,0,0,0l0,0l0,0c-0.3,0.2-0.7,0.2-1,0.2c-0.8,0-1.6,0.1-2.4,0.5 c-0.1,0-0.2,0-0.3,0c-0.4-0.1-0.8-0.2-1.1,0.3c-0.9,0-1.8,0.1-2.6,0.5c-0.9,0.1-1.8,0-2.6,0.6c0,0,0,0,0,0c0,0,0,0,0,0 c-0.3,0.1-0.5,0.2-0.8,0.2h0l0,0C32.6,58.8,32.1,59,31.6,58.9z"/><path d="M45.9,56.3L45.9,56.3L45.9,56.3C45.8,56.3,45.8,56.3,45.9,56.3C45.8,56.3,45.8,56.3,45.9,56.3 C45.8,56.3,45.8,56.3,45.9,56.3z"/><path d="M33.8,25.6c0,0.1-0.1,0.1-0.2,0.1c-0.7,0.2-1.2,0-1.6-0.5c-0.4-0.6-0.3-1.2,0.1-1.8 c0.7-1.2,1.5-2.5,1.6-3.9c0.2-0.9,0.4-1.9,0.5-2.8c0,0,0.1,0,0.1-0.1c0,1,0,2.1,0,3.1c0-0.3,0.1-0.6,0.1-0.9c0,0.3-0.1,0.6-0.1,0.9 c-0.1,1.3-0.8,2.4-1.4,3.5C32.1,24.7,32.1,24.8,33.8,25.6L33.8,25.6L33.8,25.6C33.8,25.5,33.8,25.5,33.8,25.6z"/><path d="M57.3,34.4C57.2,34.3,57.2,34.3,57.3,34.4C57.2,34.3,57.2,34.3,57.3,34.4c0.1-0.4,0.4-0.5,0.8-0.4 c0,0,0,0.1,0,0.1C57.8,34.3,57.6,34.4,57.3,34.4z"/><path d="M58,34C58,34,58.1,34,58,34c0.1,0.1,0,0.1,0,0.1C58,34,58,34,58,34z"/><path d="M57.3,34.4c0,0-0.1,0-0.1,0C57.1,34.3,57.1,34.3,57.3,34.4C57.2,34.3,57.2,34.3,57.3,34.4 C57.2,34.3,57.2,34.3,57.3,34.4z"/><path d="M37,27.3c-1.4,0.1-2.9-0.7-3.2-1.8c0,0,0,0,0,0c1,0.5,2.1,1,3.1,1.5l0,0l0,0C37,27.1,37,27.2,37,27.3z"/><path d="M33.8,25.5L33.8,25.5C33.8,25.5,33.8,25.5,33.8,25.5C33.8,25.5,33.8,25.5,33.8,25.5 C33.8,25.5,33.8,25.5,33.8,25.5z"/><path d="M38.9,28.1c-1,0.3-1.6,0.1-1.9-0.8c0,0,0,0,0,0c0.1,0,0.1-0.1,0.2-0.2c0.6,0.3,1.1,0.6,1.7,0.8 C38.9,28,38.9,28.1,38.9,28.1C38.9,28.1,38.9,28.1,38.9,28.1z"/><path d="M38.9,28.1c0,0,0-0.1,0-0.1c0,0,0.1,0,0.1,0.1C39,28.1,39,28.1,38.9,28.1C38.9,28.1,38.9,28.1,38.9,28.1z"/><path d="M37,27.3C37,27.3,37,27.3,37,27.3c0-0.1-0.1-0.2-0.1-0.3l0,0c0.1,0,0.2,0.1,0.2,0.1 C37.2,27.2,37.1,27.3,37,27.3z"/><path d="M62.1,59.4c0.2,1.7-0.1,3.4,0.4,5.1c0.2,0.6-0.1,1.7,1.2,1.5c-1.1,0.5-1.1-0.5-1.2-1.1 C62,63.1,61.9,61.3,62.1,59.4L62.1,59.4z"/><path d="M62.5,64.5c-0.5-1.7-0.1-3.4-0.4-5.1c0.2,0.2,0.2,0.6,0.2,0.9c-0.1,1.4,0,2.7,0.3,4.1c0.1,0.7,0,1.5,1,1.7 C62.4,66.2,62.7,65.1,62.5,64.5z"/><path d="M71.3,41.5c0.8-0.6,1.6-0.4,2.3,0.3C72.8,41.4,72.1,41,71.3,41.5z"/><path d="M71.3,41.5c0.8-0.5,1.6,0,2.3,0.3C72.8,41.8,72.1,41.3,71.3,41.5z"/><path d="M69.7,38.3c0.5,0.7,0.1,1.4,0,2.1C69.4,39.7,70.2,39,69.7,38.3z"/><path d="M69.7,40.4c-0.4-0.7,0.2-1.4,0-2.1C70.2,39,69.4,39.7,69.7,40.4z"/><path d="M58.7,55c0.1,0,0.2,0.1,0.1,0.2c-0.1,0.1-0.1,0.2-0.2,0.2c-0.1-0.1-0.1-0.2-0.2-0.2 C58.4,54.9,58.6,55,58.7,55z"/><path d="M22.6,58.7c0,0.4,0,0.8-0.1,1.2c-0.1-0.3-0.1-0.5-0.1-0.8c0-0.5,0-0.9,0-1.4C22.5,58,22.5,58.3,22.6,58.7 L22.6,58.7z"/><path d="M22.7,30.5c0.2,0.5,0.6,0.6,1.1,0.8c0.1,0,0.2,0,0.4,0c0.3,0.6,0.3,1.3,0.2,2c-0.2,1.2,0,2.4,0.1,3.6 c0,0.7-0.1,1.4,0.3,2.1c0,0.1,0,0.2,0,0.3c-0.3,0.4-0.2,0.7,0,1l0,0l0,0c0,0.3,0,0.7,0,1l0,0l0,0c-0.5,0.9-0.3,1.9-0.3,2.9l0,0 c0.1,0.3,0.2,0.5,0.3,0.8c0,0.2,0,0.3,0,0.5c-0.3,0.3-0.2,0.7,0,1c-0.7,1.7-0.4,3.4-0.5,5.2c0,1.8-0.4,3.5-0.3,5.3l0,0l0,0 c0,0.4,0,0.9,0,1.3l0,0l0,0c-0.1,1,0.5,2.2-0.3,3.1c-0.1-0.1-0.2-0.1-0.2-0.2c-0.1-0.1-0.2-0.2-0.3-0.3c0.3,0,0.6,0.1,0.5-0.4 c-0.3-2.6,0-5.2,0.1-7.8c0-0.2,0-0.3,0-0.5c-0.1-1.2,0.5-2.3,0-3.5v0c0.5-2.8,0.2-5.7,0.2-8.6c0-0.7,0-1.4,0-2.1 c0.1-1.1,0-2.1-0.2-3.2c0-0.5,0-1,0-1.5c-0.1-0.1-0.1-0.1-0.1-0.2c0,0.1,0.1,0.1,0.1,0.2c-0.1-0.7,0.3-1.5-0.3-2.1 c-0.1-0.2-0.4-0.5-0.6-0.3c-0.5,0.4-0.2,0.9-0.2,1.4c0.2,0.9-0.4,1.9,0.5,2.7c-0.2,1,0.2,2.1-0.3,3.1c-0.5,1.4-0.1,2.9-0.2,4.4 c-0.1,1,0,2,0,3c0,0,0,0,0,0c0,1.9,0,3.8,0,5.8c0,0.1,0,0.2,0,0.3l0,0l0,0c0,0.5,0,1,0,1.6l0,0c0,0.4,0.3,0.7,0,1.1 c0.1,0.1,0.1,0.1,0.1,0.2c0-0.1-0.1-0.1-0.1-0.2c0,0.8-0.1,1.6-0.1,2.4c0-5.7,0-11.4,0-17c0-1.5,0.3-3.1,0.2-4.6 c-0.1-0.6-0.2-1.1-0.2-1.7c-0.1-0.7,0-1.5-0.2-2.2c0-0.1-0.1-0.2-0.1-0.4C22.4,30.6,22.5,30.6,22.7,30.5 C22.7,30.5,22.7,30.5,22.7,30.5z"/><path d="M22.1 33.3L22.1 33.3 22.1 33.3z"/><path d="M22.2,34.7c0,0,0,0.1,0.1,0.1C22.3,34.8,22.3,34.8,22.2,34.7z"/><path d="M22.3,31.1c0.2,0.7,0.1,1.5,0.2,2.2c0,0.6,0.2,1.1,0.2,1.7c0.1,1.6-0.2,3.1-0.2,4.6c-0.1,5.7-0.1,11.4,0,17 c0,0.3,0,0.7,0,1c0,0.5,0,0.9,0,1.4c0,0.3,0,0.6,0.1,0.8c0,0.4,0,0.8,0.3,1.2c0.1,0,0.2,0,0.2,0c0.1,0.1,0.2,0.2,0.3,0.3 c0.1,0.1,0.2,0.1,0.2,0.2c-0.1,0.1-0.2,0.2-0.3,0.3v0l0,0c-1-0.1-1.3-0.8-1.3-1.7c0-1.7,0-3.5,0-5.2c-0.1-3.1,0.1-6.2,0-9.4 c-0.1-3.6,0.2-7.1,0.3-10.7c0-0.5,0-1-0.2-1.5c0,0,0-0.1-0.1-0.1l0,0c0-0.8,0-1.6-0.3-2.4c0.1-0.1,0.3-0.2,0.4-0.2 C22.3,30.8,22.3,30.9,22.3,31.1z"/><path d="M23.8,31.3c-0.4-0.2-0.9-0.3-1.1-0.8c0,0,0,0,0,0c0.1,0,0.1-0.1,0.2-0.1l0,0l0,0c0.3,0.2,0.7,0.4,1,0.5 c0.1,0.1,0.2,0.3,0.2,0.4C24,31.3,23.9,31.3,23.8,31.3z"/><path d="M23.9,61.9c0.5-0.1,0.7-0.6,0.7-1.2c0-0.8,0-1.6,0.1-2.3c0-0.4,0-0.8,0-1.2c-0.2-2.2,0.1-4.4,0.2-6.5 c0-1.1-0.3-2.2-0.1-3.2c0.1,0.2,0.2,0.4,0.4,0.5v0l0,0c0.4,1.1,0.2,2.2,0.3,3.4c0,2.2,0,4.4,0.1,6.6c0,1.3,0.7,1.8,2,1.4 c1-0.3,1.9-0.4,2.9-0.4c0,0.1,0.1,0.1,0.1,0.2c0,0,0,0,0,0c-0.4,0.1-0.8,0.2-1.3,0.2c-0.7,0.2-1.3,0.4-2,0.5 c-0.2,0.1-0.4,0.2-0.6,0.3c-0.2,0-0.3,0.2-0.4,0.5c-0.1,0-0.1,0-0.2,0c-0.6,0.3-0.8,0.7-0.5,1.2c-0.4,0-0.8,0.3-1.1,0.6 c-0.1,0.1-0.2,0.2-0.3,0.2C24.3,62.4,24.2,62.1,23.9,61.9z"/><path d="M23.9,61.9c0.2,0.2,0.4,0.5,0.3,0.8c-1,0.8-1.3,0.7-2.4-0.3c-0.1-0.1-0.2-0.1-0.3-0.2c0,0,0-0.1,0-0.1 c0.4-0.1,0.6,0.2,0.8,0.4c0.3,0.5,0.8,0.7,1.2,0.4c0.5-0.3-0.1-0.7-0.2-1.1C23.6,61.9,23.8,61.9,23.9,61.9z"/><path d="M30.6,59.5c0,0,0.1,0,0.1-0.1C30.6,59.5,30.6,59.5,30.6,59.5z"/><path d="M26.7,60.2c0.2-0.1,0.3-0.3,0.6-0.3c0.7-0.1,1.3-0.3,2-0.5c0.4-0.1,0.9-0.1,1.3-0.2c0,0,0,0,0,0 c0.1,0.1,0.1,0.2,0.2,0.4l0,0l0,0c-0.5-0.1-0.9-0.2-1.3,0.3l0,0l0,0c-0.7,0.3-1.4,0.5-2.1,0.5C27.1,60.2,26.9,60.2,26.7,60.2z"/><path d="M24.1,63.1c0.1-0.1,0.1-0.3,0.2-0.4c0.1-0.1,0.2-0.1,0.3-0.2c0.3-0.3,0.7-0.5,1.1-0.6 c0,0.1,0.1,0.1,0.1,0.2h0l0,0c-0.5,0.8-1.2,1.2-2,1.3C23.9,63.3,24,63.2,24.1,63.1z"/><path d="M21.5,62.6c-0.1-0.1-0.1-0.1-0.1-0.2c0,0,0,0,0.1,0.1C21.5,62.5,21.5,62.5,21.5,62.6z"/><path d="M22,62.9c0.1,0.1,0.3,0.2,0.4,0.3c-0.3-0.1-0.6-0.3-0.9-0.5c0,0,0-0.1,0-0.1C21.7,62.6,21.9,62.7,22,62.9z"/><path d="M21.5,62.5c0-0.1,0-0.2,0-0.2c0.1,0.1,0.2,0.1,0.3,0.2c1.1,1,1.4,1.1,2.4,0.3c0,0.1-0.1,0.2-0.2,0.4 c-0.1,0.1-0.2,0.2-0.4,0.3c-0.4,0-0.8,0-1.3-0.2c-0.1-0.1-0.3-0.2-0.4-0.3C21.9,62.7,21.7,62.6,21.5,62.5z"/><path d="M21.4,62.3c0,0.1,0,0.1,0.1,0.2c0,0,0,0-0.1-0.1C21.4,62.3,21.4,62.3,21.4,62.3z"/><path d="M25.6,61.9c-0.3-0.6-0.1-0.9,0.5-1.2c0.1,0,0.1,0,0.2,0c0,0,0,0.1,0,0.1h0l0,0c-0.2,0.4-0.3,0.8-0.5,1.2 C25.7,61.9,25.7,61.9,25.6,61.9C25.6,61.9,25.6,61.9,25.6,61.9z"/><path d="M25.6,61.9C25.6,61.9,25.6,61.9,25.6,61.9c0.1,0,0.1,0,0.2,0c0,0,0,0.1-0.1,0.1h0 C25.7,62,25.6,62,25.6,61.9z"/><path d="M23.9,58.4L23.9,58.4c0.3-0.4,0.3-0.9,0-1.3l0,0c-0.1-1.8,0.3-3.5,0.3-5.3c0-1.7-0.2-3.5,0.5-5.2l0,0 c0,0.3,0.1,0.5,0.2,0.8c-0.2,1.1,0.1,2.2,0.1,3.2c-0.1,2.2-0.4,4.4-0.2,6.5c0,0.4,0,0.8,0,1.2c-0.1,0.8,0,1.6-0.1,2.3 c0,0.6-0.2,1.1-0.7,1.2c-0.1-0.1-0.2-0.2-0.3-0.3C24.4,60.6,23.8,59.5,23.9,58.4z"/><path d="M23.6,61.6c0.1,0.1,0.2,0.2,0.3,0.3c-0.2,0-0.3,0-0.6,0v0C23.5,61.7,23.5,61.7,23.6,61.6z"/><path d="M33.8,16.5c0-0.4,0-0.8,0-1.2c0,0,0,0.1,0,0.1c0,0,0,0,0,0c0,0,0-0.1,0-0.1c0-0.1,0-0.2,0-0.2 c0-0.1,0-0.2,0-0.3c0.1,0,0.2,0,0.2,0c0,0.3,0,0.7,0,1c0.3-0.5,0.3-1,0-1.5c0-0.3,0-0.6-0.2-0.9c0-1.6-0.2-3.2-0.6-4.7 c0-0.2-0.1-0.3-0.1-0.5c0,0,0-0.1,0-0.1c-0.2-0.6-0.4-1.2-0.7-1.8c-0.9-1.8-2.9-2.4-4.8-2.6c-2.1-0.3-4.3-0.6-6.4-0.9 c-0.4-0.1-0.8-0.2-1.2-0.3c0.1-0.1,0.3-0.2,0.5-0.2c2.5,0.6,5.2,0.2,7.7,0.8c1.6,0.4,2.9,1,4.2,2.1c0.4,0.3,0.7,0.6,1.2,0.3 c-0.3,0.9-0.1,2,0.3,2.7c0,0.1-0.1,0.3,0,0.5c0,0.2,0,0.3,0.1,0.4c0.2,0.8,0.2,1.6,0.4,2.4c0,0.1,0,0.3,0,0.4 c0.3,1.6,0.3,3.1,0,4.7C34.1,16.4,34,16.4,33.8,16.5z"/><path d="M33.5,5.3c-0.4,0.3-0.8,0-1.2-0.3c-1.2-1-2.6-1.7-4.2-2.1c-2.5-0.7-5.2-0.3-7.7-0.8 c-0.2-0.1-0.4,0.1-0.5,0.2c-0.2,0-0.3-0.1-0.5-0.2c0.3-0.6,0.7-0.5,1.2-0.4c1.5,0.2,2.9,0.2,4.4,0.2c1.9,0,3.7,0.4,5.5,1.2 c1.1,0.5,1.9,1.4,2.9,1.9l0,0C33.5,5.1,33.5,5.2,33.5,5.3z"/><path d="M34.4,16.5C34.3,16.5,34.3,16.5,34.4,16.5c0.1-1.6,0.2-3.2-0.1-4.7c0-0.1,0-0.3,0-0.4 C34,10.5,34,9.7,33.8,8.9c0-0.1-0.1-0.3-0.1-0.4c0-0.2,0-0.3,0-0.5c0.2,0.3,0.3,0.5,0.6,0.7v0l0,0c0,0.1,0,0.2,0,0.3 c0,0.8-0.2,1.6,0.3,2.4l0,0c0,0.1,0,0.2,0,0.3C34.5,13.2,34.9,14.9,34.4,16.5z"/><path d="M33.8,8c-0.4-0.7-0.5-1.9-0.3-2.7c0.1,0,0.1-0.1,0.2-0.1c0.3,0.8,0.4,1.6,0.5,2.4C33.9,7.7,33.8,7.8,33.8,8 z"/><path d="M33.6,5L33.6,5L33.6,5c0,0,0,0.1,0.1,0.1c-0.1,0.1-0.1,0.1-0.2,0.1C33.5,5.2,33.5,5.1,33.6,5z"/><path d="M33.8,8c0.1-0.2,0.2-0.4,0.3-0.5c0.1,0.4,0.1,0.8,0.3,1.2v0C34.1,8.5,33.9,8.3,33.8,8z"/><path d="M33.8,16.8c0-0.1,0-0.2,0-0.3c0.2,0,0.3-0.1,0.4,0c0,0.1,0,0.1,0,0.2C34.1,16.7,34,16.7,33.8,16.8 L33.8,16.8z"/><path d="M34.4,16.5C34.4,16.5,34.4,16.5,34.4,16.5c0,0.1-0.1,0.1-0.1,0.1C34.3,16.5,34.3,16.5,34.4,16.5 C34.3,16.5,34.3,16.5,34.4,16.5z"/><path d="M33.8,15.3C33.8,15.3,33.8,15.3,33.8,15.3C33.8,15.3,33.8,15.3,33.8,15.3C33.8,15.3,33.8,15.3,33.8,15.3z"/><path d="M26.4,3.4c-1.8-0.2-3.6-0.4-5.3-0.8c2.1,0.3,4.3,0.7,6.4,0.9c2,0.3,4,0.8,4.8,2.6c0.3,0.6,0.5,1.2,0.7,1.8 c0,0,0-0.1-0.1-0.1C32.1,4.5,29.5,3.8,26.4,3.4z"/><path d="M33.8,13.1c0-0.2,0-0.3,0-0.5c0,0,0-0.1-0.1-0.1c0,0,0,0.1,0.1,0.1c0-0.7,0.1-1.4-0.3-2.1 c-0.1-0.4-0.2-0.9-0.3-1.3c0,0-0.1-0.1-0.1-0.2c0,0.1,0.1,0.1,0.1,0.2c0-0.2,0-0.4,0-0.6c0.4,1.5,0.7,3.1,0.6,4.7 C33.9,13.2,33.9,13.2,33.8,13.1L33.8,13.1z"/><path d="M33.8,14.7C33.9,14.7,33.9,14.7,33.8,14.7c0,0.1,0,0.2,0,0.3C33.8,14.9,33.8,14.8,33.8,14.7L33.8,14.7z"/><path d="M6.5,2.1C3.5,2.8,2.2,4,2,6.4c-0.3,3.2-0.4,6.3,0.3,9.4c0.2,1,0.4,2,0.5,3.1c0,0.4,0.1,0.9-0.3,1 c-0.4,0.1-0.8-0.2-1-0.7c-0.1-0.2-0.1-0.3-0.1-0.5C0.4,15.4,0.8,12,0.9,8.6c0-1.4,0.4-2.7,0.7-4.1c0.5-2.1,3.8-3,6-2.9 C7.3,2.2,6.9,2,6.5,2.1z"/><path d="M33.6,16.6C33.6,16.6,33.6,16.6,33.6,16.6C33.6,16.6,33.6,16.6,33.6,16.6C33.6,16.6,33.6,16.6,33.6,16.6z"/><path d="M19.6,2.4c-0.4-0.1-0.8-0.1-1.2-0.1c0,0,0-0.1,0-0.1c0.4,0,0.7,0,1.1,0l0,0l0,0C19.5,2.3,19.5,2.4,19.6,2.4 z"/><path d="M31.9,21.7c0.7-1.6,1.3-3.3,1.7-5.1c0,0,0,0,0,0c0,0.2,0,0.5,0,0.7l0,0l0,0c-0.6,1.7-0.6,3.5-1.8,5 c0-0.1,0-0.2,0-0.3C31.8,21.9,31.8,21.8,31.9,21.7z"/><path d="M32.4,19.9c0,0.2-0.1,0.4-0.2,0.6C32.2,20.3,32.3,20.1,32.4,19.9z"/><path d="M19.7,2.5c0.3,0.3,0.7,0.2,1.1,0.3c2.4,0.4,4.7,0.8,7.1,1.1c2.5,0.3,4.4,1.4,5,4.1c0.4,0.3,0.2,0.8,0.3,1.2 c0.3,0.5,0.1,1.1,0.5,1.5c0.2,0.6,0,1.2,0.1,1.9c0,0.2,0,0.4,0.1,0.6c0.2,0.3,0.1,0.6,0.2,0.9c0,0.2,0,0.5,0,0.7 c0,0-0.1,0.1-0.1,0.1c-0.1,0.2-0.1,0.4-0.1,0.6c0,0.3,0,0.7,0,1c0,0.1,0,0.2,0,0.3c0,0,0,0,0,0c-0.1,0.1-0.2,0.3-0.3,0.4 c-0.1,0.1-0.1,0.2-0.2,0.3c0.4-1.8,0.5-3.6,0.3-5.5c-0.2-1.8-0.5-3.5-1.2-5.1c-0.9-2.1-3-2.5-5.1-2.8c-2.6-0.4-5.2-0.7-7.8-1.3 C19.4,2.7,19.5,2.6,19.7,2.5C19.7,2.5,19.7,2.5,19.7,2.5z"/><path d="M19.7,2.5c-0.1,0.1-0.3,0.1-0.4,0.2c-0.3-0.1-0.6-0.1-0.9-0.2c0-0.1,0-0.1,0-0.2 C18.8,2.3,19.2,2.4,19.7,2.5C19.6,2.5,19.6,2.5,19.7,2.5C19.7,2.5,19.7,2.5,19.7,2.5z"/><path d="M31.7,22c0-0.1,0-0.2,0-0.3c0.2-0.4,0.3-0.8,0.5-1.2c0.1-0.2,0.2-0.4,0.2-0.6c0.3-0.8,0.5-1.7,0.7-2.5 c0.1-0.1,0.1-0.2,0.2-0.3c0.1-0.1,0.2-0.3,0.3-0.4c-0.4,1.7-1,3.4-1.7,5.1C31.8,21.8,31.8,21.9,31.7,22z"/><path d="M33.8,15c0,0.1,0,0.2,0,0.2c0,0,0,0.1,0,0.1C33.8,15.2,33.8,15.1,33.8,15C33.8,15,33.8,15,33.8,15z"/><path d="M19.7,2.5c0.1,0,0.1-0.1,0.2-0.2c0.4,0.1,0.8,0.2,1.2,0.3C20.6,2.6,20.2,2.5,19.7,2.5z"/><path d="M33.1,8C33.1,8,33.1,8,33.1,8C33.1,8.1,33.1,8,33.1,8C33.1,8,33.1,8,33.1,8z"/><path d="M19.7,2.5c0,0-0.1,0-0.1,0c-0.1-0.1-0.1-0.2-0.2-0.3l0,0c0.2,0.1,0.3,0.1,0.5,0.2 C19.8,2.4,19.8,2.4,19.7,2.5z"/><path d="M33.6,16.3c-0.1-0.3,0-0.7,0-1c0-0.2,0-0.4,0.1-0.6c0,0,0.1-0.1,0.1-0.1c0,0,0,0,0,0h0l0,0 c0,0.1,0,0.2,0,0.3c0,0,0,0,0,0c0,0.1,0,0.2,0,0.3c0,0,0,0,0,0.1C33.6,15.7,33.6,16,33.6,16.3z"/><path d="M26.4,3.4c3,0.4,5.7,1.1,6.6,4.5c0,0.4,0,0.8,0.2,1.2c0,0.1,0,0.1,0.1,0.2c0.1,0.4,0.2,0.9,0.3,1.3 c0,0.7-0.1,1.3,0.2,2c0,0,0,0.1,0.1,0.1c0,0.2,0,0.3,0,0.5l0,0l0,0c0,0.3,0,0.6,0,0.8c0-0.3,0-0.6-0.2-0.9 c-0.1-0.2-0.1-0.4-0.1-0.6c0-0.6,0.1-1.2-0.1-1.9c-0.4-0.5-0.1-1.1-0.5-1.5c-0.1-0.4,0.1-0.9-0.3-1.2c-0.6-2.6-2.5-3.7-5-4.1 c-2.4-0.3-4.7-0.7-7.1-1.1c-0.4-0.1-0.8,0-1.1-0.3c0,0,0,0,0.1-0.1c0.5,0.1,0.9,0.1,1.4,0.2C22.9,3.1,24.7,3.2,26.4,3.4z"/><path d="M33,7.9C33.1,7.9,33.1,8,33,7.9C33.1,8,33.1,8,33.1,8C33.1,8,33.1,7.9,33,7.9z"/><path d="M19.6,2.4c0,0,0.1,0,0.1,0C19.7,2.5,19.7,2.5,19.6,2.4C19.6,2.5,19.6,2.5,19.6,2.4z"/><path d="M15.2,24.4c-0.2,0-0.4,0-0.7,0c-0.3,0-0.5,0-0.8,0C14.2,24.3,14.7,24.4,15.2,24.4z"/><path d="M17.9,27.3C17.9,27.3,17.9,27.2,17.9,27.3c0-0.3,0-0.5-0.1-0.6c0.1,0.3,0.3,0.5,0.5,0.7 C18.1,27.4,18,27.3,17.9,27.3z"/><path d="M18.9,28.3c-0.1-0.4-0.3-0.7-0.7-0.9c-0.2-0.2-0.3-0.5-0.5-0.7c-0.4-1.5-1-2.1-2.6-2.3 c-0.5-0.1-1-0.1-1.5-0.1c-2.6-0.1-5.1-0.6-7.6-1l0,0c0.3-0.5,0.7-0.3,1.1-0.2c2.3,0.3,4.6,0.9,7,0.8c1.9-0.1,3.7,0.3,4.1,2.6 c0.1,0.7,1.3,0.8,0.9,1.8C19.1,28.3,19,28.3,18.9,28.3z"/><path d="M13.7,24.3c0.3,0,0.5,0,0.8,0c0.2,0,0.5,0,0.7,0c0.1,0,0.3,0,0.4,0.1c0.9,0.2,1.5,0.5,1.8,1.4 c0.1,0.3,0.2,0.6,0.4,0.8c0,0.2,0.1,0.4,0.1,0.6c0,0,0,0.1-0.1,0.1c0,0,0,0,0,0c-0.8-2.1-2.5-2.6-4.6-2.6c-0.6,0-1.3,0.1-1.9-0.1 c-1.6-0.3-3.3-0.3-4.8-1c2,0,4,0.7,6.1,0.8C12.9,24.4,13.3,24.4,13.7,24.3z"/><path d="M13.7,24.3c-0.4,0-0.7,0-1.1,0c-2-0.1-4-0.7-6.1-0.8c-0.1-0.1-0.3-0.1-0.4-0.2 C8.6,23.7,11.1,24.2,13.7,24.3z"/><path d="M17.8,26.7c-0.1-0.3-0.3-0.5-0.4-0.8c-0.3-0.8-0.9-1.2-1.8-1.4c-0.1,0-0.3-0.1-0.4-0.1 C16.8,24.6,17.4,25.2,17.8,26.7z"/><path d="M18.9,28.3C18.9,28.3,18.9,28.3,18.9,28.3L18.9,28.3C18.9,28.3,18.9,28.3,18.9,28.3 C18.9,28.3,18.9,28.3,18.9,28.3z"/><path d="M18.9,28.3c0.1,0,0.2,0,0.3,0l0,0C19.1,28.3,19,28.3,18.9,28.3C18.9,28.3,18.9,28.3,18.9,28.3 C18.9,28.3,18.9,28.3,18.9,28.3z"/><path d="M18.2,27.4c0.2,0.3,0.4,0.6,0.7,0.9c0,0,0,0,0,0c-0.3-0.3-0.7-0.7-1-1c0,0,0,0,0,0 C18,27.3,18.1,27.4,18.2,27.4z"/><path d="M18.9,28.3C18.9,28.3,18.9,28.3,18.9,28.3c-0.2-0.3-0.5-0.6-0.7-0.9C18.6,27.6,18.8,27.9,18.9,28.3z"/><path d="M17.9 27.3L17.9 27.3 17.9 27.3z"/><path d="M18.9,28.3C18.9,28.3,18.9,28.3,18.9,28.3C18.9,28.3,18.9,28.3,18.9,28.3C18.9,28.3,18.9,28.3,18.9,28.3 C18.9,28.3,18.9,28.3,18.9,28.3z"/><path d="M18.9 28.3L18.9 28.3 18.9 28.3z"/><path d="M18.2,2.3c-1.5,0-3-0.5-4.6-0.4C11.8,2,9.9,2,8.1,2.4C6.8,2.7,5.4,2.6,4.3,3.5c0.5-0.6,1.2-0.7,2-0.9 c4-0.9,8.1-1.2,12.1-0.5v0h0C18.3,2.2,18.2,2.2,18.2,2.3z"/><path d="M13.7,1.9c1.6-0.1,3,0.4,4.6,0.4c0,0,0,0.1,0.1,0.2C13.6,1.7,8.9,2.1,4.3,3.5c1.1-0.9,2.5-0.8,3.8-1.1 C9.9,2,11.8,2,13.7,1.9z"/><path d="M18.4,2.3c0,0-0.1,0-0.1,0c0-0.1,0-0.1,0.1-0.1h0C18.4,2.2,18.4,2.3,18.4,2.3C18.4,2.3,18.4,2.3,18.4,2.3z"/><path d="M18.2,2.3c0,0,0.1,0,0.1,0c0,0,0,0,0,0c0,0.1,0,0.1,0,0.2C18.3,2.4,18.2,2.3,18.2,2.3z"/><path d="M8.6,1.4c2-0.1,3.9-1.1,5.9-0.3C12.6,1.2,10.6,1.7,8.6,1.4z"/><path d="M31.6,22.2C31.6,22.2,31.6,22.2,31.6,22.2c0,0.1,0,0.1,0.1,0.2c-0.1,0-0.1,0-0.2,0 C31.5,22.3,31.5,22.2,31.6,22.2z"/><path d="M30.1,22.8c0.2,0,0.4,0,0.5-0.1c0.3-0.1,0.5-0.3,0.8-0.5c0.1,0,0.1,0,0.2,0c0,0.1,0.1,0.1,0.1,0.2l0,0 c-0.9,0.5-1.9,0.7-3,0.9c-1.6,0.3-3.2,0.2-4.8,0.3c0-0.1-0.1-0.1-0.1-0.2c1.6-0.4,3.2,0,4.8-0.4C29.1,23,29.6,23,30.1,22.8z"/><path d="M31.6,22.2C31.6,22.1,31.6,22.1,31.6,22.2c0.1,0,0.1,0.1,0.2,0.1c0,0.1,0,0.2,0,0.2l0,0 c0-0.1,0-0.1-0.1-0.2c0,0,0,0-0.1,0C31.6,22.3,31.6,22.3,31.6,22.2C31.6,22.2,31.6,22.2,31.6,22.2z"/><path d="M31.6,22.4C31.6,22.4,31.7,22.4,31.6,22.4c0.1,0.1,0.1,0.1,0.1,0.2l0,0l0,0C31.7,22.5,31.6,22.4,31.6,22.4z"/><path d="M31,22.3c0.2-0.2,0.4-0.4,0.6-0.6c0,0.1,0,0.2-0.1,0.4c-0.1,0.1-0.1,0.1-0.2,0.2 C31.3,22.3,31.1,22.3,31,22.3z"/><path d="M31,22.3c0.1,0,0.3,0,0.4,0c-0.2,0.2-0.5,0.3-0.8,0.5c-0.2,0-0.4,0-0.5,0.1c0.2-0.1,0.4-0.1,0.6-0.3 C30.8,22.5,30.9,22.4,31,22.3z"/><path d="M31.6,22.1C31.6,22.1,31.6,22.1,31.6,22.1c-0.1-0.1,0-0.2,0-0.3c0,0,0.1,0,0.1-0.1 C31.6,21.8,31.6,22,31.6,22.1z"/><path d="M31.7,22c0,0.1,0,0.2,0,0.3c-0.1-0.1-0.1-0.1-0.1-0.2C31.7,22.1,31.7,22,31.7,22z"/><path d="M31.7,21.7c0,0.1,0,0.2,0,0.3c0,0-0.1,0.1-0.1,0.1C31.6,22,31.6,21.8,31.7,21.7z"/><path d="M21.4,62c-0.1-0.3-0.2-0.6-0.2-0.9c0-2.4-0.2-4.8,0.1-7.1c0,0.7,0,1.5,0,2.2c0.1,2-0.2,4,0.2,5.9 c0,0,0,0.1-0.1,0.1C21.4,62.1,21.4,62.1,21.4,62z"/><path d="M21,56.9c0,1.1,0,2.1,0,3.2C20.9,59,20.9,58,21,56.9z"/><path d="M21.3,54c-0.3,2.4-0.1,4.8-0.1,7.1c-0.1-0.3-0.1-0.7-0.1-1c0-1.1,0-2.1,0-3.2C21.1,55.9,21.2,55,21.3,54 L21.3,54z"/><path d="M21.4,62.3c0-0.1,0-0.2-0.1-0.2C21.4,62.1,21.4,62.1,21.4,62.3C21.5,62.2,21.4,62.2,21.4,62.3z"/><path d="M21.5,62.2C21.5,62.2,21.5,62.2,21.5,62.2c0-0.1,0-0.1,0-0.1C21.5,62.1,21.5,62.2,21.5,62.2 C21.5,62.2,21.5,62.2,21.5,62.2z"/><path d="M21.5,62.5c0,0,0,0.1,0,0.1C21.5,62.5,21.5,62.5,21.5,62.5C21.5,62.4,21.5,62.5,21.5,62.5z"/><path d="M21.5,62.2C21.5,62.2,21.5,62.2,21.5,62.2c0,0.1,0,0.2,0,0.3c0,0,0,0-0.1,0C21.5,62.4,21.4,62.3,21.5,62.2 C21.4,62.2,21.5,62.2,21.5,62.2C21.5,62.2,21.5,62.2,21.5,62.2z"/><path d="M22.8,26.2C22.9,26.3,22.9,26.3,22.8,26.2C22.9,26.3,22.9,26.3,22.8,26.2L22.8,26.2z"/><path d="M4,22.1c-1.5-0.6-1.9-1.3-1.3-2.3C3.1,20.6,3.8,21.2,4,22.1z"/><path d="M22.2,30.4c0-0.2,0-0.4,0-0.6c0,0,0,0,0,0c0.2,0.1,0.4,0.2,0.5,0.3c0,0.1-0.1,0.1-0.1,0.2 C22.5,30.3,22.3,30.3,22.2,30.4z"/><path d="M22.8,30.1c-0.2-0.1-0.3-0.2-0.5-0.3c0,0,0,0,0,0c0,0.2,0,0.4,0,0.6c-0.2,0.1-0.3,0.4-0.4,0.5 c-0.2-0.5-0.3-1,0-1.6c0,0,0,0,0,0l0,0c0.6-0.2,1,0.1,1.3,0.5C23,29.9,22.9,30,22.8,30.1z"/><path d="M22.7,30.3c0-0.1,0-0.2,0.1-0.2c0.1,0,0.1,0.1,0.2,0.1c0,0.1-0.1,0.1-0.1,0.2 C22.8,30.4,22.7,30.4,22.7,30.3z"/><path d="M22.8,30.1c0.1-0.1,0.2-0.2,0.3-0.2c0,0.1-0.1,0.2-0.1,0.3C22.9,30.2,22.8,30.1,22.8,30.1z"/><path d="M22.7,30.3c0,0,0,0.1,0,0.1c-0.2,0.1-0.3,0.2-0.5,0.2c0-0.1,0-0.2,0-0.3C22.3,30.3,22.5,30.3,22.7,30.3z"/><path d="M22.2,30.4c0,0.1,0,0.2,0,0.3c-0.1,0.1-0.3,0.2-0.4,0.2C21.9,30.8,22.1,30.6,22.2,30.4z"/><path d="M22.7,30.5c0,0,0-0.1,0-0.1c0,0,0.1,0,0.1,0.1l0,0C22.8,30.4,22.7,30.5,22.7,30.5z"/><path d="M15.7,0.9c0.9,0.2,1.9,0.3,2.8,0.5C17.5,1.6,16.5,1.6,15.7,0.9z"/><path d="M6.7,22.3c-1.3-0.1-2.5-0.4-2.9-1.9C4.4,21.6,5.5,22,6.7,22.3z"/><path d="M6.7,22.3c-1.2-0.3-2.3-0.7-2.9-1.9C4.5,21.3,5.6,21.7,6.7,22.3z"/><path d="M22.8,26.2c-0.3-0.4,0-0.9-0.2-1.3c0.2-0.6,0.4-1.3,1.2-1.4c0,0.1,0.1,0.1,0.1,0.2 C23,24.3,22.9,25.3,22.8,26.2C22.8,26.2,22.8,26.2,22.8,26.2C22.8,26.2,22.8,26.2,22.8,26.2z"/><path d="M22.8 26.2L22.8 26.2 22.8 26.2z"/><path d="M22.8,26.2L22.8,26.2c-0.3-0.4-0.2-0.8-0.2-1.3c0,0,0,0,0,0C22.8,25.4,22.6,25.8,22.8,26.2z"/><path d="M21,50.6c0.5,1,0.2,2.1,0.3,3.1C20.9,52.7,21.4,51.6,21,50.6z"/><path d="M21,50.6c0.4,1-0.1,2.1,0.3,3.1l0,0C20.8,52.7,21.1,51.6,21,50.6z"/><path d="M21.8,29.4c-0.5,0.1-0.8,0-1.2-0.5C21.3,28.8,21.5,29.2,21.8,29.4C21.8,29.4,21.8,29.4,21.8,29.4 C21.8,29.4,21.8,29.4,21.8,29.4z"/><path d="M22.1,33.4c0.2,0.4-0.1,0.9,0.1,1.3c-0.2-0.5-0.2-1-0.2-1.5l0,0C22.1,33.3,22.1,33.4,22.1,33.4z"/><path d="M22.1 33.3L22.1 33.3 22.1 33.3z"/><path d="M22.1,33.4c0.2,0.5,0.2,1,0.2,1.5c0,0,0-0.1-0.1-0.1C22.1,34.3,22.3,33.8,22.1,33.4z"/><path d="M21.5 28.1L21.5 28.1 21.5 28.1z"/><path d="M21.5,28.1C21.5,28.1,21.5,28.1,21.5,28.1C21.5,28.1,21.5,28.1,21.5,28.1C21.5,28.1,21.5,28.1,21.5,28.1z"/><path d="M21.5,28.1L21.5,28.1C21.5,28.1,21.5,28.1,21.5,28.1L21.5,28.1z"/><path d="M21.5,28.1L21.5,28.1C21.5,28.1,21.5,28.1,21.5,28.1C21.5,28.1,21.5,28.1,21.5,28.1 C21.5,28.1,21.5,28.1,21.5,28.1z"/><path d="M22.8 26.2L22.8 26.2 22.8 26.2z"/><path d="M22.9,26.3c0.2,0.4,0.2,0.8,0.2,1.3l0,0C22.8,27.2,23.1,26.7,22.9,26.3z"/><path d="M22.8,26.2C22.8,26.2,22.8,26.2,22.8,26.2L22.8,26.2L22.8,26.2L22.8,26.2C22.8,26.2,22.8,26.2,22.8,26.2 C22.9,26.3,22.9,26.3,22.8,26.2c0.3,0.5,0,1,0.2,1.4C22.7,27.2,22.8,26.7,22.8,26.2z"/><path d="M22.8 26.2L22.8 26.2 22.8 26.2z"/><path d="M56.2,53.8c0.1,0.1,0.1,0.1,0.2,0.2c-1,0.1-1.9,0.2-2.9,0.3l0,0c0.9-0.1,1.7-0.4,2.5-0.4 C56.1,53.8,56.1,53.8,56.2,53.8z"/><path d="M56.1,53.7C56.1,53.7,56.1,53.8,56.1,53.7c0,0.1,0,0.1-0.1,0.1c-0.9,0-1.7,0.3-2.5,0.4 C54.3,53.8,55.2,53.7,56.1,53.7z"/><path d="M56.4,53.8c0.1,0,0.2,0.1,0.2,0.2c-0.1,0-0.2,0-0.3,0l0,0h0C56.4,53.9,56.4,53.8,56.4,53.8z"/><path d="M56.8,53.6c0.1,0.1,0.1,0.1,0.1,0.2c-0.1,0-0.1-0.1-0.2-0.1c-0.1,0-0.2-0.1-0.4-0.1 C56.4,53.5,56.6,53.5,56.8,53.6z"/><path d="M56.4,53.8c0-0.1-0.1-0.2-0.3-0.1c0.1,0,0.1-0.1,0.2-0.1c0.1,0,0.3,0,0.4,0.1c0.1,0,0.1,0.1,0.2,0.1 c0,0.1-0.1,0.1-0.2,0.2h0C56.5,53.9,56.5,53.8,56.4,53.8z"/><path d="M56.4,53.8c0,0,0,0.1,0,0.2h0c-0.1-0.1-0.1-0.1-0.2-0.2C56.2,53.8,56.3,53.8,56.4,53.8z"/><path d="M56.4,53.8c-0.1,0-0.1,0-0.2,0c0,0-0.1-0.1-0.1-0.1C56.3,53.6,56.4,53.7,56.4,53.8z"/><path d="M31.2,58.7c0.1,0.1,0.1,0.2,0.2,0.2c-0.2,0-0.3,0.1-0.5,0.1c0,0-0.1,0-0.1,0c0-0.1-0.1-0.1-0.1-0.2 C30.8,58.8,31,58.8,31.2,58.7z"/><path d="M30.7,59.1c0,0,0.1,0,0.1,0c0.2-0.1,0.3-0.1,0.5-0.1c0.5,0.5,1.1,0,1.7,0c-0.8,0.2-1.6,0.3-2.4,0.5l0,0 C30.8,59.3,30.8,59.2,30.7,59.1z"/><path d="M31.2,58.7C31.2,58.7,31.2,58.7,31.2,58.7L31.2,58.7c0.2,0.1,0.3,0.1,0.4,0.1c-0.1,0-0.2,0-0.3,0.1 C31.3,58.9,31.2,58.8,31.2,58.7z"/><path d="M31.3,58.9c0.1,0,0.2,0,0.3-0.1c0.5,0.1,1-0.1,1.5,0.1l0,0C32.5,58.9,31.8,59.4,31.3,58.9z"/><path d="M30.6,58.9c0,0.1,0.1,0.1,0.1,0.2c-0.1,0-0.2,0-0.2,0c0-0.1-0.1-0.1-0.1-0.2C30.5,58.9,30.6,58.9,30.6,58.9 z"/><path d="M30.7,59.1c0,0.1,0,0.2-0.1,0.4c-0.1-0.1-0.1-0.2-0.2-0.4C30.6,59.1,30.7,59.1,30.7,59.1z"/><path d="M36.5,58.2L36.5,58.2L36.5,58.2L36.5,58.2C36.5,58.2,36.5,58.2,36.5,58.2c-0.8,0.4-1.7,0.5-2.6,0.6 C34.7,58.4,35.6,58.4,36.5,58.2L36.5,58.2z"/><path d="M36.5,58.2L36.5,58.2c-0.9,0.3-1.8,0.3-2.6,0.6c0,0,0,0,0,0C34.6,58.1,35.6,58.3,36.5,58.2z"/><path d="M36.5 58.2L36.5 58.2 36.5 58.2z"/><path d="M39.1,57.6L39.1,57.6c-0.8,0.4-1.7,0.5-2.6,0.5l0,0C37.3,58,38.2,57.9,39.1,57.6z"/><path d="M36.5,58.2C36.5,58.2,36.5,58.2,36.5,58.2L36.5,58.2c0.8-0.4,1.7-0.5,2.6-0.5l0,0 C38.2,57.9,37.3,58,36.5,58.2z"/><path d="M36.5 58.2L36.5 58.2 36.5 58.2z"/><path d="M36.5 58.2L36.5 58.2 36.5 58.2z"/><path d="M42.7,56.9c-0.7,0.4-1.5,0.5-2.4,0.5l0,0l0,0C41.2,57.1,42,57.1,42.7,56.9z"/><path d="M40.4,57.4L40.4,57.4c0.7-0.4,1.5-0.5,2.4-0.5C42,57.1,41.2,57.1,40.4,57.4z"/><path d="M26.4,60.6c0,0,0,0.1-0.1,0.1c0,0,0,0,0,0c0,0,0,0-0.1,0C26.4,60.6,26.4,60.6,26.4,60.6z"/><path d="M26.4,60.7C26.4,60.7,26.4,60.7,26.4,60.7c0-0.1,0-0.1,0.1-0.1c0.3-0.2,0.6-0.2,0.9-0.3 c-0.3,0.2-0.5,0.3-0.8,0.5v0C26.5,60.7,26.4,60.7,26.4,60.7z"/><path d="M26.4,60.7C26.4,60.7,26.4,60.8,26.4,60.7c0,0.1-0.1,0.1-0.1,0.1C26.3,60.7,26.3,60.7,26.4,60.7 C26.3,60.7,26.4,60.7,26.4,60.7z"/><path d="M26.5,60.8L26.5,60.8L26.5,60.8c0,0-0.1,0-0.1,0c0,0,0,0,0-0.1C26.4,60.7,26.5,60.7,26.5,60.8z"/><path d="M26.7,60.2c-0.1,0.1-0.2,0.2-0.2,0.3c0,0-0.1,0.1-0.1,0.1c0,0,0,0,0,0C26.3,60.4,26.5,60.3,26.7,60.2z"/><path d="M26.7,60.2c0.2,0,0.4,0,0.6,0c-0.3,0.1-0.6,0.1-0.9,0.3C26.5,60.4,26.6,60.3,26.7,60.2z"/><path d="M26.3,60.7C26.3,60.7,26.3,60.7,26.3,60.7c0,0,0,0.1,0,0.1h0C26.3,60.7,26.3,60.7,26.3,60.7z"/><path d="M43.9,56.5c0.4-0.2,0.8,0,1.2-0.1c-0.4,0.2-0.9,0.1-1.3,0.2c0,0,0,0,0,0C43.8,56.6,43.9,56.5,43.9,56.5z"/><path d="M43.8 56.6L43.8 56.6 43.8 56.6z"/><path d="M43.9,56.5c0.4-0.2,0.9-0.2,1.4-0.2c-0.1,0-0.1,0.1-0.2,0.1C44.7,56.5,44.3,56.3,43.9,56.5z"/><path d="M30.6,59.5c-0.4,0.2-0.8,0.2-1.2,0.2C29.7,59.4,30.2,59.7,30.6,59.5z"/><path d="M30.7,59.5c0,0-0.1,0-0.1,0.1c-0.4,0.1-0.8-0.1-1.2,0.2l0,0C29.7,59.3,30.2,59.4,30.7,59.5z"/><path d="M39.1,57.6c0.2-0.2,0.4-0.2,0.6-0.2C39.5,57.5,39.3,57.6,39.1,57.6L39.1,57.6L39.1,57.6z"/><path d="M39.1,57.6L39.1,57.6c0.3-0.4,0.7-0.3,1.1-0.3c-0.1,0-0.3,0.1-0.4,0.1C39.5,57.5,39.2,57.4,39.1,57.6z"/><path d="M39.1 57.6L39.1 57.6 39.1 57.6z"/><path d="M39.1 57.6L39.1 57.6 39.1 57.6z"/><path d="M34.5,16.7c0-0.1-0.1-0.1-0.1-0.2c0.2,0,0.3-0.1,0.3-0.4c0-1.5,0.2-3.1-0.1-4.6c0.5,2.4,0.2,4.9-0.1,7.3 C34.5,18.1,34.4,17.4,34.5,16.7z"/><path d="M34.4,16.5C34.4,16.5,34.4,16.5,34.4,16.5c0.1,0,0.1,0.1,0.1,0.2c-0.1,0.7,0,1.4,0,2.1 c0,0.3-0.1,0.6-0.1,0.9C34.4,18.6,34.4,17.6,34.4,16.5z"/><path d="M34.7,16.2c0,0.2-0.1,0.4-0.3,0.4c0,0,0,0,0,0c0.5-1.6,0.1-3.3,0.3-4.9C34.9,13.1,34.7,14.6,34.7,16.2z"/><path d="M34.4,16.5C34.4,16.5,34.4,16.5,34.4,16.5C34.4,16.5,34.4,16.5,34.4,16.5C34.4,16.5,34.4,16.5,34.4,16.5z"/><path d="M34.4,8.9c0.4,0.8,0.2,1.6,0.3,2.4l0,0C34.3,10.5,34.7,9.7,34.4,8.9z"/><path d="M34.4,8.9c0.3,0.8-0.1,1.6,0.3,2.4C34.2,10.6,34.4,9.7,34.4,8.9z"/><path d="M25.2,38.6c0-0.6,0.1-1.1-0.3-1.6c0.3-1.3,0.3-2.6,0.3-4c0-0.5,0.1-1,0.4-1.4c0.2,0,0.4,0,0.6,0 c0.7,0.3,1.4,0.1,2,0.2c0.5,0,0.7-0.3,0.7-0.7c-0.1-0.5-0.5-0.8-0.8-1.1c-0.6-0.5-1.1-1.1-1.9-1.4c-0.2-0.1-0.3-0.2-0.4-0.3 c-0.5-1.1-0.2-2,0.9-2.5c0.5-0.2,1-0.3,1.5-0.3c0.4,0,0.8,0.1,1.2,0.2c1.3,0.7,2.6,1.2,4,1.7c-0.1,0-0.1,0-0.2,0 c-1.2-0.2-2.2-0.9-3.3-1.2c0.7,0.7,1.6,1.2,2.6,1.5c-1-0.1-1.9-0.5-2.9-0.8c-0.6-0.4-1.2-0.6-1.8-0.6c-0.4,0-0.9,0.1-1.1,0.5 c-0.2,0.5,0.1,0.8,0.4,1.1c0.7,0.7,1.5,1.2,2.2,1.9c0.5,0.6,0.8,1.2,0.4,2c-0.4,0.7-0.9,0.9-1.7,0.8c-1-0.1-1.6,0.4-1.6,1.4 c0,0.9-0.1,1.7-0.1,2.6c0,5.5,0.3,11,0.3,16.4c0,1.2,0.1,2.3,0.2,3.5c0.1,1,0.6,1.3,1.6,1.2c1.8-0.1,3.4-0.9,5.1-1 c0,0,0.1,0,0.1,0.1c-0.1,0.2-0.3,0.4-0.4,0.6c0,0,0,0,0,0c-0.4,0.1-0.8,0.2-1.2,0.3c-0.4,0.1-0.9,0.2-1,0.7 c-0.3-0.1-0.5-0.2-0.6,0.1c-0.7-0.3-1.5-0.2-2.2-0.1c-1.5,0.2-2-0.3-2.2-1.8c-0.4-2.4-0.2-4.8-0.2-7.1c0-0.6,0-1.2-0.3-1.8 c-0.1-0.3-0.2-0.5-0.4-0.8v0C25.2,44.3,25.2,41.5,25.2,38.6z"/><path d="M33.4,27.3c-1.4-0.5-2.7-1-4-1.7c-0.4-0.1-0.8-0.2-1.2-0.2c-0.5,0-1,0.1-1.5,0.3c-1.1,0.5-1.4,1.4-0.9,2.5 c0.1,0.1,0.3,0.2,0.4,0.3c0.8,0.3,1.3,0.9,1.9,1.4c0.3,0.4,0.7,0.6,0.8,1.1c0,0.5-0.3,0.8-0.7,0.7c-0.7,0-1.4,0.2-2-0.2 c-0.2,0-0.4,0-0.6,0c0.1-0.2,0.3-0.3,0.4-0.4c0.9,0.1,1.8,0.5,2.6-0.3c-0.3-0.3-0.5-0.5-0.8-0.8v0v0c-0.6-0.4-1.2-0.9-1.8-1.3 c0,0-0.1-0.1-0.2-0.1c-0.1-0.1-0.2-0.1-0.4-0.2c-1.1-1.9-0.4-3.2,1.7-3.6c0.4-0.1,0.8-0.1,1.2-0.1c0.3,0.2,0.7,0.3,1,0.3l0,0h0 c1.5,0.6,3,1.2,4.5,1.8c0,0.1,0,0.2,0,0.3C33.7,27.3,33.6,27.3,33.4,27.3z"/><path d="M32.1,57.9c0.4-0.1,0.8-0.2,1.2-0.3c0.4,0,0.7,0,1.1,0c-1,0.6-2.1,0.6-3.1,1h0c0,0-0.1,0-0.1-0.1 C31.3,58.1,31.7,58.1,32.1,57.9z"/><path d="M25.6,47.9c0.3,0.6,0.3,1.2,0.3,1.8c0,2.4-0.1,4.8,0.2,7.1c0.2,1.5,0.8,1.9,2.2,1.8 c0.7-0.1,1.5-0.2,2.2,0.1c0,0.1,0,0.1-0.1,0.2c-1,0-2,0.1-2.9,0.4c-1.3,0.4-2-0.2-2-1.4c0-2.2,0-4.4-0.1-6.6c0-1.1,0.1-2.3-0.3-3.4 l0,0c0-0.3,0-0.5,0-0.8C25.3,47.4,25.4,47.7,25.6,47.9z"/><path d="M30.5,58.7L30.5,58.7c0.1-0.3,0.4-0.2,0.6-0.1c0,0,0,0,0,0c0,0,0,0,0,0.1c-0.2,0.1-0.3,0.1-0.5,0.2 C30.6,58.8,30.6,58.8,30.5,58.7z"/><path d="M31.1,58.6c0,0,0.1,0,0.1,0.1C31.2,58.7,31.2,58.7,31.1,58.6C31.1,58.7,31.1,58.7,31.1,58.6 C31.1,58.6,31.1,58.6,31.1,58.6z"/><path d="M30.5,58.7c0.1,0.1,0.1,0.1,0.2,0.2c-0.1,0-0.1,0-0.2,0.1C30.4,58.8,30.5,58.8,30.5,58.7 C30.5,58.7,30.5,58.7,30.5,58.7z"/><path d="M54.9,40.9c0.1-1.8-0.1-2.2-1.7-2.9c-3.4-1.5-6.6-3.4-9.8-5.1c-0.4-0.2-0.8-0.4-0.8-0.9c0,0,0,0,0.1-0.1 c0,0,0,0,0.1,0c1.7,1,3.5,1.9,5.2,2.8c1.9,1,3.7,2,5.7,2.8c1.6,0.6,2.1,1.5,1.9,3.2c-0.4,2.4,0.1,4.7,0.3,7c0.1,1,0.1,1.9-0.4,2.6 C54.9,47.2,54.7,44.1,54.9,40.9z"/><path d="M55.5,51c0-0.2-0.1-0.5-0.1-0.7c0.6-0.7,0.5-1.6,0.4-2.6c-0.2-2.3-0.7-4.6-0.3-7c0.3-1.7-0.2-2.6-1.9-3.2 c-2-0.8-3.9-1.8-5.7-2.8c-1.7-0.9-3.5-1.9-5.2-2.8c0,0,0,0-0.1,0c0,0,0.1-0.1,0.1-0.1c0-0.1,0-0.2,0-0.3l0,0l0,0 c1.9,1,3.8,2,5.7,2.9c1.9,0.9,3.7,2.2,5.7,2.8c1.8,0.5,2.1,0.6,1.9,2.4c-0.3,2.9,0,5.7,0.2,8.6c0.1,1.1,0.5,2.4-0.5,3.5l0,0 c0-0.1,0-0.2,0-0.3C55.7,51.2,55.6,51.1,55.5,51z"/><path d="M35.7,56.7c0.2-0.7,0.9-0.8,1.5-1c4.1-1.2,8.3-2.1,12.3-3.5c1.6-0.6,3.3-0.9,4.9-1.2c0.1,0,0.3,0,0.4-0.1 c-0.8,0.5-1.7,0.8-2.6,0.8c-1.4,0.1-2.6,0.8-3.9,1.1c-1.8,0.5-3.5,1.1-5.4,1.5c-0.7,0.1-1.4,0.5-2,0.9c-0.4,0.2-0.8,0.4-1.2,0.4 c-0.5,0.2-1,0.3-1.5,0.5c-0.4,0.1-0.8,0.2-1.2,0.3c-0.3,0.1-0.7,0.2-1,0.3v0C35.8,56.8,35.8,56.7,35.7,56.7z"/><path d="M38.1,56.7c0.1,0,0.1-0.1,0.1-0.1C38.2,56.6,38.2,56.7,38.1,56.7z"/><path d="M35.9,56.8c0.3-0.1,0.7-0.2,1-0.3c0.4-0.1,0.8-0.2,1.2-0.3c0.5-0.2,1-0.3,1.5-0.5c0.4-0.1,0.8-0.2,1.2-0.4 c0.6-0.5,1.3-0.8,2-0.9c1.8-0.3,3.6-1,5.4-1.5c1.3-0.4,2.5-1.1,3.9-1.1c1-0.1,1.8-0.4,2.6-0.8c0.3,0,0.5,0,0.8,0.1 c0,0.1,0,0.2,0,0.3c0.1,0.1,0.2,0.2,0.2,0.3v0c-5.1,1.1-9.9,2.8-14.9,4.2c-0.4,0-0.7,0-1,0.3l0,0l0,0c-0.5,0.2-1.1,0.3-1.6,0.5 c-0.4,0-0.7,0-1.1,0.1c-0.1,0-0.2,0.1-0.2,0.1l0,0l0,0l0,0c-0.4,0.2-0.7,0.3-1.1,0.5l0,0h0C35.9,57.2,35.9,57,35.9,56.8z"/><path d="M55.5,51c0.1,0.1,0.2,0.1,0.3,0.3c0,0.1,0,0.2,0,0.3c-0.1-0.1-0.2-0.2-0.2-0.3C55.5,51.2,55.5,51.1,55.5,51 z"/><path d="M24.8,32.9c0,1,0,2.1,0,3.1c0-1.2,0-2.4,0-3.7c0-0.4,0-0.7-0.2-0.9c0.2,0,0.4,0.1,0.6,0.1 C24.9,31.9,24.8,32.3,24.8,32.9z"/><path d="M24.6,31.4c-0.1-0.2-0.4-0.4-0.7-0.5c0.8-0.7,1.4,0.5,2.1,0.3c-0.3,0.1-0.6,0.2-0.8,0.4 C25,31.5,24.8,31.5,24.6,31.4z"/><path d="M24.8,32.3c0,1.2-0.1,2.4,0,3.7c0,0.3,0,0.5-0.1,0.8c0,0,0,0.1,0,0.1c-0.1,0-0.2,0-0.3,0 c-0.1-1.2-0.3-2.4-0.1-3.6c0.1-0.7,0.1-1.4-0.2-2c0.2,0,0.3,0.1,0.5,0.1C24.8,31.7,24.8,32,24.8,32.3z"/><path d="M24.6,31.4c-0.2,0-0.3-0.1-0.5-0.1c-0.1-0.1-0.1-0.3-0.2-0.4C24.3,31,24.5,31.2,24.6,31.4z"/><path d="M24.9,37c0,0-0.1,0-0.1,0c0-0.3,0-0.6-0.1-1c0.1-1,0-2.1,0-3.1c0-0.6,0.1-1,0.4-1.3c0.1,0,0.2,0,0.3,0.1 c-0.3,0.4-0.4,0.8-0.4,1.4C25.2,34.3,25.2,35.6,24.9,37z"/><path d="M25.5,31.6c-0.1,0-0.2,0-0.3-0.1c0.2-0.2,0.4-0.3,0.8-0.4C25.8,31.3,25.7,31.5,25.5,31.6z"/><path d="M24.7,37c0,0,0-0.1,0-0.1c0-0.3,0.1-0.5,0.1-0.8c0,0.3,0,0.6,0.1,1C24.8,37,24.7,37,24.7,37z"/><path d="M42.3,32.1c-0.8,0.2-3.8-1.5-4.8-2.5c1.5,0.2,2.6,1.4,4.1,1.8c0.3,0.1,0.6,0.3,0.9,0.4c0,0,0,0.1,0,0.1 C42.5,32,42.4,32.1,42.3,32.1z"/><path d="M42.5,31.9c-0.3-0.2-0.6-0.3-0.9-0.4c-1.4-0.4-2.5-1.6-4.1-1.8c-0.1-0.1-0.2-0.2-0.2-0.3 c0,0,0.1-0.1,0.1-0.1c0-0.1,0-0.2,0-0.3c1.7,0.9,3.5,1.7,5.2,2.6C42.6,31.6,42.6,31.7,42.5,31.9C42.5,31.8,42.5,31.8,42.5,31.9z"/><path d="M42.5,32c0,0,0-0.1,0-0.1C42.6,31.9,42.6,31.9,42.5,32C42.6,31.9,42.6,32,42.5,32z"/><path d="M42.7,31.8c0,0-0.1,0.1-0.1,0.1c0,0-0.1,0-0.1,0c0,0,0,0,0,0c0-0.1,0.1-0.3,0.2-0.4l0,0 C42.7,31.6,42.7,31.7,42.7,31.8z"/><path d="M36.2,29.4c-0.7-0.2-1.3-0.6-2-0.8c-0.4-0.2-0.7-0.4-0.8-0.8c0.3,0.1,0.7,0.1,1,0.2 c-0.3-0.2-0.5-0.3-0.8-0.5c0.1,0,0.1-0.1,0.2-0.1c0.5,0.2,1,0.4,1.4,0.8c0.6,0.4,1.2,0.9,1.9,1.3C36.8,29.6,36.5,29.5,36.2,29.4z"/><path d="M37.3,29.2C37.3,29.3,37.3,29.3,37.3,29.2c-0.1,0.2-0.2,0.2-0.3,0.3c-0.7-0.3-1.2-0.9-1.9-1.3 c-0.4-0.4-0.9-0.6-1.4-0.8c0,0,0,0,0.1,0c0,0,0-0.1,0.1-0.1c0.5,0.2,1,0.4,1.5,0.5l0,0c0.6,0.5,1.4,0.8,2.1,1.1l0,0l0,0 C37.4,29,37.3,29.1,37.3,29.2z"/><path d="M33.2,27.3c0.1,0,0.1,0,0.2,0c0.1,0,0.1,0,0.2,0.1c0.1,0,0.1,0,0.2,0.1c-0.1,0-0.1,0.1-0.2,0.1 C33.5,27.5,33.4,27.4,33.2,27.3z"/><path d="M33.4,27.3c0.1,0,0.3,0,0.4,0c0,0,0,0,0.1,0c0,0,0,0.1-0.1,0.1c0,0,0,0-0.1,0c-0.1,0-0.1,0-0.2-0.1 C33.5,27.3,33.5,27.3,33.4,27.3z"/><path d="M37.3,29.3C37.3,29.3,37.3,29.3,37.3,29.3c0-0.2,0.1-0.4,0.2-0.5h0c0,0.1,0,0.2,0,0.3 C37.4,29.3,37.4,29.3,37.3,29.3z"/><path d="M35.7,56.7C35.7,56.7,35.7,56.7,35.7,56.7c0,0.1,0,0.2,0,0.2c-0.5,0.2-1,0.3-1.5,0.4c0,0,0,0-0.1,0 c-0.1-0.1-0.3-0.3-0.5-0.3C34.2,56.4,34.9,56.3,35.7,56.7z"/><path d="M34.1,57.3C34.2,57.3,34.2,57.3,34.1,57.3c0.6-0.1,1.1-0.2,1.6-0.4c0,0.2,0.1,0.3,0.2,0.4 c-0.5,0.1-1,0.2-1.6,0.3h0l0,0C34.3,57.5,34.2,57.4,34.1,57.3z"/><path d="M33.6,57c0.2,0.1,0.4,0.2,0.5,0.3c-0.3,0.1-0.6,0.2-0.9,0.3c0,0,0,0,0,0C33.4,57.4,33.5,57.1,33.6,57z"/><path d="M34.1,57.3c0.1,0.1,0.2,0.2,0.2,0.3l0,0c-0.4,0-0.7,0-1.1,0C33.6,57.5,33.8,57.4,34.1,57.3z"/><path d="M35.7,56.7c0.1,0,0.2,0.1,0.2,0.1v0c-0.1,0-0.1,0.1-0.2,0.1c0,0,0,0,0,0C35.7,56.9,35.7,56.8,35.7,56.7 C35.7,56.7,35.7,56.7,35.7,56.7z"/><path d="M35.7,56.9c0.1,0,0.1-0.1,0.2-0.1c0,0.2,0,0.4,0,0.5h0C35.8,57.2,35.7,57.1,35.7,56.9 C35.7,56.9,35.7,56.9,35.7,56.9z"/><path d="M33.8,27c0.6,0.2,1.2,0.2,1.6,0.8l0,0c-0.4-0.4-1-0.5-1.5-0.5C33.9,27.2,33.9,27.1,33.8,27z"/><path d="M33.9,27.3C33.9,27.3,33.9,27.3,33.9,27.3c-0.1-0.1-0.1-0.2-0.1-0.3C33.9,27.1,33.9,27.2,33.9,27.3z"/><path d="M33.9,27.3c0.6,0,1.1,0.2,1.5,0.5C34.9,27.6,34.4,27.5,33.9,27.3C33.9,27.3,33.9,27.3,33.9,27.3z"/><path d="M33.9,27.3C33.9,27.3,33.9,27.3,33.9,27.3C33.9,27.3,33.9,27.3,33.9,27.3C33.9,27.3,33.9,27.3,33.9,27.3z"/><path d="M33.7,16.7c0,0,0.1,0.1,0.1,0.1v0c-0.1,0.2-0.2,0.3-0.3,0.5C33.7,17.1,33.7,16.9,33.7,16.7z"/><path d="M33.7,16.5c0-0.2,0-0.3,0-0.5c0-0.2,0.1-0.5,0.1-0.7c0,0,0-0.1,0-0.1c0,0.4,0,0.8,0,1.2 C33.8,16.5,33.8,16.5,33.7,16.5C33.8,16.5,33.7,16.5,33.7,16.5z"/><path d="M33.7,16.5C33.7,16.5,33.8,16.5,33.7,16.5c0.1-0.1,0.1-0.1,0.1-0.1c0,0.1,0,0.2,0,0.3c0,0-0.1-0.1-0.1-0.1 C33.7,16.6,33.7,16.6,33.7,16.5z"/><path d="M33.8,15.4C33.8,15.3,33.8,15.3,33.8,15.4c0,0.2,0,0.4-0.1,0.7C33.7,15.8,33.7,15.6,33.8,15.4z"/><path d="M33.7,16.6C33.6,16.6,33.6,16.6,33.7,16.6C33.6,16.6,33.6,16.6,33.7,16.6c-0.1,0-0.1-0.1,0-0.1 C33.6,16.5,33.6,16.5,33.7,16.6z"/><path d="M33.6,16.6C33.6,16.6,33.6,16.6,33.6,16.6c0.1,0,0.1,0,0.1,0c0,0.2,0,0.5-0.1,0.7l0,0 C33.6,17.1,33.6,16.9,33.6,16.6z"/><path d="M33.6,16.6c0-0.1,0-0.2,0-0.3c0,0,0,0.1,0,0.1C33.6,16.5,33.6,16.6,33.6,16.6z"/><path d="M33.7,16c0,0.2,0,0.3,0,0.5c0,0,0,0,0,0c0,0,0-0.1,0-0.1C33.6,16.3,33.7,16.2,33.7,16z"/><path d="M33.7,16.7C33.7,16.6,33.7,16.6,33.7,16.7c0-0.1,0-0.1,0-0.1C33.7,16.6,33.7,16.6,33.7,16.7z"/><path d="M33.7,16c0,0.1,0,0.3-0.1,0.4c0,0,0-0.1,0-0.1c0-0.3,0-0.7,0.2-1C33.7,15.6,33.7,15.8,33.7,16z"/><path d="M25.8,28.8c0.1,0,0.1,0.1,0.2,0.1c-0.2,0.2-0.1,0.6-0.4,0.5c-0.1,0-0.1-0.1-0.2-0.1c0-0.1,0-0.2,0-0.3 c0-0.1,0.1-0.2,0.1-0.4C25.5,28.7,25.7,28.7,25.8,28.8z"/><path d="M25.3,28.9c0,0.1,0,0.2,0,0.3C25.3,29.2,25.3,29.1,25.3,28.9z"/><path d="M25.5,28.6c0.1,0.1,0.2,0.1,0.4,0.2C25.7,28.7,25.5,28.7,25.5,28.6z"/><path d="M29.4,25.2c-0.3-0.2-0.7-0.2-1-0.3C28.8,24.7,29.1,24.7,29.4,25.2z"/><path d="M28.3,24.9c0.4,0,0.7,0,1,0.3l0,0C29,25.2,28.7,25.1,28.3,24.9z"/><path d="M39.9,56.1c0.3-0.1,0.7,0,1-0.3C40.7,56.4,40.3,56.2,39.9,56.1z"/><path d="M40.9,55.8c-0.3,0.3-0.7,0.1-1,0.3l0,0C40.2,55.9,40.5,55.8,40.9,55.8z"/><path d="M28.6,30.9c-0.4-0.1-0.7-0.4-0.8-0.8C28,30.5,28.3,30.7,28.6,30.9z"/><path d="M28.6,30.9c-0.3-0.2-0.6-0.5-0.8-0.8v0C28.1,30.4,28.3,30.7,28.6,30.9z"/><path d="M37.2,56.7c0.3-0.1,0.6,0.1,0.9-0.1c-0.4,0.2-0.7,0.2-1.1,0.2l0,0C37.1,56.8,37.1,56.8,37.2,56.7z"/><path d="M37 56.9L37 56.9 37 56.9z"/><path d="M37.2,56.7c0.3-0.1,0.7-0.1,1.1-0.1c0,0-0.1,0.1-0.1,0.1C37.8,56.8,37.5,56.7,37.2,56.7z"/><path d="M25.3,14.4c-3.3,0.1-6.7,0.1-10-0.3c-1.8-0.2-3.5-0.5-5.3-0.5c-0.6,0-1.4,0.2-1.3-0.8 c0-0.9,0.7-0.9,1.4-0.9c1.6,0,3.2-0.1,4.8,0c2.9,0.2,5.9,0.5,8.5,0.8c0.8,0,1.3,0,1.9,0c0.6,0,1.1,0.2,1.1,0.9 C26.4,14.2,25.9,14.4,25.3,14.4z"/><path d="M20,17.5c-0.9-0.8-1.9-0.4-2.9-0.5c-1.2-0.1-2.3,0.2-3.7,0c0.8-0.5,1.5-0.4,2.2-0.4c1.6,0,3.3-0.4,4.9,0.1 c0.3,0.1,0.7,0,0.6,0.5c-0.2,0.2-0.5,0.5-0.6,0.7c-0.1,0-0.2,0-0.3,0C20.1,17.7,20.1,17.6,20,17.5z"/><path d="M21.1,17.1c0-0.5-0.4-0.4-0.6-0.5c-1.6-0.4-3.3-0.1-4.9-0.1c-0.7,0-1.4-0.1-2.2,0.4c1.4,0.2,2.6-0.2,3.7,0 c1,0.1,2-0.3,2.9,0.5c0.1,0.1,0.1,0.2,0.2,0.4c-0.2,0-0.3,0-0.5,0c-0.3-0.2-0.6-0.2-1-0.2c-1.9-0.2-3.7,0.2-5.6,0.1 c-0.6,0-1.1-0.2-1.1-0.8c0-0.5,0.5-0.9,1.1-0.9c2.8-0.2,5.7-0.4,8.5,0c1,0.2,1.3,0.8,0.7,1.7c-0.6,0-1.2,0-1.8,0.1 C20.7,17.6,20.9,17.3,21.1,17.1z"/><path d="M21.1,10.1c-2.7,0.1-5.2-0.4-7.7-0.7c-0.5-0.1-1.3,0-1.2-0.8c0.1-0.8,0.9-0.9,1.6-0.8 c0.9,0.1,1.9,0.4,2.8,0.4C18.3,8,20,9,21.8,8.1c0.4-0.2,0.8,0.1,1.1,0.3C23.1,8.7,23,9,22.9,9.4C22.6,10.7,21.5,9.8,21.1,10.1z"/><path d="M22.7,24.9C22.7,24.9,22.7,24.9,22.7,24.9C22.7,24.9,22.7,24.9,22.7,24.9C22.7,24.9,22.7,24.9,22.7,24.9 C22.7,24.9,22.7,24.9,22.7,24.9z"/><path d="M22.5 45.6L22.5 45.6 22.5 45.6z"/><path d="M24.9,46.2c-0.1-0.2-0.1-0.4-0.2-0.6c0-0.2,0-0.3,0-0.5c0-0.1,0.1-0.1,0.1-0.2 C24.8,45.3,24.8,45.8,24.9,46.2z"/><path d="M24.7,37.2c0,0.4,0,0.8,0.1,1.1c0,0.2-0.1,0.4-0.1,0.7c-0.4-0.7-0.2-1.4-0.3-2.1 C24.5,37.1,24.6,37.2,24.7,37.2z"/><path d="M24.8,39.5c0,0.3,0,0.7,0,1c0-0.1-0.1-0.1-0.1-0.2l0,0c-0.3-0.3-0.3-0.7,0-1C24.7,39.4,24.7,39.4,24.8,39.5 C24.7,39.5,24.8,39.5,24.8,39.5z"/><path d="M24.7,42.1c-0.1,0.8,0,1.6,0,2.4c-0.1-0.1-0.2-0.2-0.3-0.2c0-1-0.2-2,0.3-2.9l0,0c0-0.1,0.1-0.1,0.1-0.2 C24.8,41.5,24.7,41.8,24.7,42.1z"/><path d="M25.1,45.6c0-0.2,0-0.5,0-0.7c0-0.3-0.1-0.6-0.2-0.8c0-0.3-0.1-0.6-0.1-0.8c0,0,0,0,0,0 c0-0.1,0.1-0.2,0.1-0.2c0,0,0-0.1-0.1-0.1c0-0.5,0.1-1,0.2-1.4c0-0.4,0-0.8,0-1.2c0-0.4,0-0.7,0-1.1c0-0.1,0-0.2,0-0.4 c0-0.1-0.1-0.3-0.1-0.4c0,0,0-0.1,0-0.1c0,0,0,0,0,0c-0.1-0.4-0.1-0.7-0.1-1.1c0,0,0,0,0.1,0c0.1,0,0.1-0.2,0.1-0.3 c0.3,0.5,0.3,1.1,0.3,1.6c0,2.9,0,5.7,0,8.6c-0.1-0.2-0.1-0.3-0.2-0.5C25.1,46.3,25,46,25.1,45.6z"/><path d="M24.8,37.2c0,0.4,0,0.7,0.1,1.1c0,0-0.1,0-0.1,0c0,0,0,0,0,0.1c0-0.4,0-0.8-0.1-1.1 C24.7,37.3,24.8,37.3,24.8,37.2z"/><path d="M24.9,38.5c0,0.1,0.1,0.3,0.1,0.4c0,0.1,0,0.2,0,0.4c0,0.4,0,0.7,0,1.1c0,0.4,0,0.8,0,1.2 c-0.1,0.5-0.2,1-0.2,1.4c0,0,0,0,0,0c0,0.1-0.1,0.2-0.1,0.2c0,0,0.1,0.1,0.1,0.1c0,0.3,0,0.6,0.1,0.8c0,0.3,0.1,0.6,0.2,0.8 c0,0.2,0,0.5,0,0.7c0,0.3,0,0.7,0,1c-0.1-0.2-0.1-0.3-0.2-0.5c0-0.4-0.1-0.8-0.1-1.3c0.1-0.2,0.1-0.3,0-0.4c-0.1-0.8-0.1-1.6,0-2.4 c0-0.3,0-0.5,0-0.8c0.1-0.2,0.1-0.4,0-0.7c0-0.3,0-0.7,0-1c0,0,0,0,0.1,0C24.9,39.2,24.9,38.8,24.9,38.5z"/><path d="M24.7,37.2c-0.1,0-0.2-0.2-0.3-0.3c0.1,0,0.2,0,0.3,0C24.7,37.1,24.7,37.2,24.7,37.2z"/><path d="M24.9,37.2C24.8,37.2,24.8,37.2,24.9,37.2c-0.1-0.1-0.1-0.2-0.1-0.3c0,0,0,0,0,0c0,0,0.1,0,0.1,0 C25,37.1,25,37.2,24.9,37.2z"/><path d="M24.8,37c0,0.1,0,0.2,0,0.3c0,0-0.1,0-0.1,0c0-0.1,0-0.2,0-0.3C24.7,37,24.8,37,24.8,37 C24.8,37,24.8,37,24.8,37z"/><path d="M22.5 45.6L22.5 45.6 22.5 45.6 22.5 45.6z"/><path d="M22.5 45.6L22.5 45.6 22.5 45.6z"/><path d="M24.7,46.7C24.7,46.7,24.7,46.7,24.7,46.7L24.7,46.7c-0.2-0.4-0.3-0.7-0.1-1.1 C24.8,45.9,24.6,46.4,24.7,46.7z"/><path d="M24.9,47.1c0.1,0.3,0.1,0.6,0.2,0.9v0c-0.2-0.2-0.3-0.3-0.4-0.5C24.9,47.3,24.9,47.2,24.9,47.1 C24.9,47,24.9,47.1,24.9,47.1z"/><path d="M24.7,46.6L24.7,46.6C24.7,46.7,24.7,46.7,24.7,46.6c0.1,0.2,0.2,0.3,0.3,0.4c0,0,0,0,0,0 c0,0.1-0.1,0.3-0.1,0.4C24.7,47.2,24.7,46.9,24.7,46.6L24.7,46.6z"/><path d="M25.2 47.2L25.2 47.2 25.2 47.2z"/><path d="M24.9,47C24.9,47,24.9,47,24.9,47c0.1,0,0.1,0.1,0.2,0.1l0,0c0,0.3,0,0.5,0,0.8C25,47.7,25,47.4,24.9,47 C24.9,47.1,24.9,47,24.9,47z"/><path d="M24.9,47C24.9,47,24.9,47,24.9,47C24.9,47,24.9,47,24.9,47C24.9,47,24.9,47,24.9,47z"/><path d="M24.9,46.8c-0.1,0-0.1-0.1-0.2-0.1c-0.1-0.3,0-0.7-0.1-1.1c0.1,0.2,0.1,0.4,0.2,0.6 C24.9,46.4,24.9,46.6,24.9,46.8z"/><path d="M24.9,47c-0.1-0.1-0.2-0.2-0.2-0.3c0.1,0,0.1,0.1,0.2,0.1C24.9,46.9,24.9,46.9,24.9,47z"/><path d="M25,46.9C25,46.9,25,46.9,25,46.9c0-0.1,0-0.1,0-0.2c0.1,0.2,0.1,0.3,0.2,0.5l0,0 C25.1,47.1,25.1,47,25,46.9z"/><path d="M25,46.9C25,46.9,25,46.9,25,46.9C25,46.9,24.9,46.8,25,46.9c-0.1-0.3-0.1-0.5-0.1-0.7 c0.1,0.2,0.1,0.3,0.2,0.5C25,46.7,25,46.8,25,46.9z"/><path d="M25.2,47.2c-0.1,0-0.2-0.1-0.2-0.2c0,0,0-0.1,0-0.1C25.1,47,25.1,47.1,25.2,47.2z"/><path d="M25,46.9c0,0,0,0.1,0,0.1c0,0,0,0,0,0C24.9,46.9,24.9,46.9,25,46.9C24.9,46.8,25,46.9,25,46.9z"/><path d="M24.8,39.2C24.8,39.2,24.8,39.2,24.8,39.2c0,0.1-0.1,0.1-0.1,0.1c0-0.1,0-0.2,0-0.3 C24.7,39.1,24.8,39.1,24.8,39.2C24.8,39.1,24.8,39.2,24.8,39.2z"/><path d="M24.8,39.2C24.8,39.2,24.8,39.1,24.8,39.2C24.8,39.1,24.8,39.2,24.8,39.2z"/><path d="M24.8,39.1c0,0-0.1,0-0.1-0.1c0-0.2,0.1-0.4,0.1-0.7C24.8,38.6,24.8,38.9,24.8,39.1z"/><path d="M24.8,39.2C24.8,39.2,24.8,39.2,24.8,39.2c0,0.1,0,0.2,0,0.3c0,0-0.1-0.1-0.1-0.1 C24.7,39.4,24.7,39.4,24.8,39.2C24.7,39.3,24.7,39.3,24.8,39.2z"/><path d="M24.9,38.5c0,0,0-0.1,0-0.1c0,0,0,0,0,0C24.9,38.4,24.9,38.4,24.9,38.5z"/><path d="M24.9,38.3c0,0,0,0.1,0,0.1c0,0.4-0.1,0.7-0.1,1.1c0,0,0,0-0.1,0c0-0.1,0-0.2,0-0.3c0,0,0-0.1,0-0.1 c0-0.2,0-0.5,0-0.7c0,0,0,0,0-0.1C24.8,38.3,24.9,38.3,24.9,38.3z"/><path d="M24.8,41.2c0,0.1,0,0.2-0.1,0.2l0,0c0-0.3,0-0.7,0-1l0,0c0,0.2,0.1,0.4,0.1,0.5 C24.8,41,24.8,41.1,24.8,41.2z"/><path d="M24.8,41.2c0-0.1,0-0.2,0-0.3C24.8,41,24.8,41.1,24.8,41.2z"/><path d="M24.8,41.2c0,0.1-0.1,0.1-0.1,0.2C24.7,41.3,24.8,41.3,24.8,41.2C24.8,41.2,24.8,41.2,24.8,41.2z"/><path d="M24.8,40.9c0-0.2-0.1-0.4-0.1-0.5c0,0.1,0.1,0.1,0.1,0.2C24.8,40.7,24.8,40.8,24.8,40.9z"/><path d="M24.8,41.2C24.8,41.2,24.8,41.2,24.8,41.2c0-0.2,0-0.2,0-0.3c0-0.1,0-0.2,0-0.3 C24.9,40.8,24.9,41,24.8,41.2z"/><path d="M24.7,45.1c-0.1-0.3-0.2-0.5-0.3-0.8l0,0v0C24.6,44.5,24.8,44.7,24.7,45.1z"/><path d="M24.7,44.5c0,0.1,0,0.3,0,0.4c0,0.1,0,0.1-0.1,0.2c0.1-0.3-0.1-0.6-0.3-0.8v0 C24.6,44.3,24.7,44.4,24.7,44.5z"/><path d="M24.8,44.9c0-0.1,0-0.3,0-0.4C24.8,44.6,24.8,44.8,24.8,44.9z"/><path d="M23.9,58.4L23.9,58.4c0-0.4,0-0.9,0-1.3l0,0C24.1,57.5,24.1,58,23.9,58.4z"/><path d="M23.9,58.4c0.2-0.4,0.2-0.9,0-1.3C24.2,57.5,24.2,58,23.9,58.4z"/><path d="M34.2,15.4c0-0.2,0.1-0.5-0.1-0.7c0,0,0-0.1,0-0.1C34.2,14.8,34.3,15.1,34.2,15.4z"/><path d="M34.2,15.4c0.1-0.3,0-0.5-0.1-0.8c0-0.1,0-0.3,0-0.4c0.3,0.5,0.3,1,0,1.5c0-0.3,0-0.7,0-1c0,0,0,0,0,0 C34.3,14.9,34.2,15.2,34.2,15.4z"/><path d="M33.8,12.6c0,0,0-0.1-0.1-0.1c-0.2-0.6,0.1-1.3-0.2-2C34,11.2,33.8,11.9,33.8,12.6z"/><path d="M33.8,12.5c-0.3-0.6-0.2-1.3-0.2-2C33.9,11.1,33.5,11.9,33.8,12.5z"/><path d="M34,14.4c0,0.1,0,0.2,0,0.3c-0.1,0-0.1,0-0.2,0C33.9,14.6,33.9,14.4,34,14.4C34,14.4,34,14.4,34,14.4z"/><path d="M34,14.3c0.1-0.3,0-0.6,0-0.9c0-0.1,0-0.1,0-0.2c0.1,0.3,0.2,0.6,0.2,0.9C34,14.3,34,14.3,34,14.3 C34,14.4,34,14.4,34,14.3z"/><path d="M33.9,14.7c0,0,0.1,0,0.2,0c0,0,0,0.1,0.1,0.1C34,14.7,33.9,14.7,33.9,14.7C33.9,14.7,33.9,14.7,33.9,14.7 C33.9,14.7,33.9,14.7,33.9,14.7z"/><path d="M33.9,14.7C33.9,14.7,33.9,14.7,33.9,14.7C33.9,14.7,33.9,14.7,33.9,14.7C33.9,14.7,33.9,14.7,33.9,14.7z"/><path d="M33.9,13.5c0-0.1-0.1-0.2-0.1-0.3c0,0.1,0.1,0.1,0.1,0.2C33.9,13.4,33.9,13.4,33.9,13.5z"/><path d="M33.9,14.2c0,0,0,0.1,0.1,0.1c0,0.1-0.1,0.2-0.1,0.3c0,0,0,0,0,0C33.9,14.5,33.9,14.4,33.9,14.2z"/><path d="M33.9,14.2c0,0.1,0,0.3,0,0.4c0,0,0,0,0,0c0-0.2,0-0.5,0-0.7C33.9,14.1,33.9,14.1,33.9,14.2 C33.9,14.2,33.9,14.2,33.9,14.2z"/><path d="M33.9 14.7L33.9 14.7 33.9 14.7z"/><path d="M33.9,13.5c0.1,0.3,0.1,0.6,0,0.9c0,0,0-0.1-0.1-0.1C33.9,14,33.9,13.7,33.9,13.5z"/><path d="M33.9,14.2C33.9,14.2,33.9,14.2,33.9,14.2c0-0.1,0-0.2-0.1-0.3c0-0.3,0-0.6,0-0.8l0,0 c0,0.1,0.1,0.2,0.1,0.3C33.9,13.7,33.9,14,33.9,14.2z"/><path d="M33.9,14.7C33.9,14.7,33.9,14.7,33.9,14.7L33.9,14.7C33.8,14.7,33.8,14.7,33.9,14.7 C33.9,14.7,33.9,14.7,33.9,14.7C33.9,14.7,33.9,14.7,33.9,14.7z"/><path d="M34,14.4c0,0.1,0.1,0.1,0.1,0.2c0,0,0,0.1,0,0.1c0,0,0,0,0,0c0,0,0,0,0,0C34,14.5,34,14.5,34,14.4z"/><path d="M34,14.4c0-0.1,0.1-0.1,0.1-0.2c0,0.1,0,0.3,0,0.4C34.1,14.5,34,14.4,34,14.4z"/><path d="M34.1,14.6C34.1,14.6,34.1,14.7,34.1,14.6C34.1,14.7,34.1,14.7,34.1,14.6C34.1,14.7,34.1,14.7,34.1,14.6 C34,14.6,34.1,14.6,34.1,14.6z"/><path d="M33.1,8.1c0.1,0.2,0.1,0.3,0.1,0.5c0-0.1-0.1-0.2-0.1-0.3C33.2,8.2,33.2,8.1,33.1,8.1z"/><path d="M33.3,9.2c0-0.1-0.1-0.1-0.1-0.2c-0.1-0.3,0-0.6,0-0.8c0,0.1,0.1,0.2,0.1,0.3C33.3,8.8,33.3,9,33.3,9.2z"/><path d="M33.1,8C33.1,8,33.1,8.1,33.1,8c0.1,0.1,0.1,0.2,0.1,0.2C33.2,8.2,33.1,8.1,33.1,8z"/><path d="M33.2,8.2c0,0.3-0.1,0.6,0,0.8C33,8.7,33.1,8.3,33,7.9c0,0,0,0.1,0.1,0.1C33.1,8.1,33.2,8.2,33.2,8.2z"/><path d="M24.9,43.1c0,0.1,0,0.1-0.1,0.2c0,0,0,0,0,0c0-0.1,0-0.2,0-0.3C24.9,43,24.9,43,24.9,43.1z"/><path d="M24.8,43.3c0,0-0.1-0.1-0.1-0.1c0-0.1,0-0.1,0.1-0.2c0,0,0,0,0,0C24.8,43.1,24.8,43.2,24.8,43.3z"/></g></svg>