<svg id="Слой_1" xmlns="http://www.w3.org/2000/svg" viewBox="0 0 17.7 16.7"><g fill="#FFF"><path d="M16.6,9.4c-3.3,0.1-6.7,0.1-10-0.3C4.9,8.9,3.1,8.6,1.3,8.6C0.8,8.6,0,8.7,0,7.8c0-0.9,0.7-0.9,1.4-0.9 c1.6,0,3.2-0.1,4.8,0c2.9,0.2,5.9,0.5,8.5,0.8c0.8,0,1.3,0,1.9,0c0.6,0,1.1,0.2,1.1,0.9C17.7,9.1,17.2,9.4,16.6,9.4z"/><path d="M14.9,15c-2.6,0.9-5.1,1.1-7.6,1.6C6.9,16.6,6.1,17,6,16.1c-0.1-0.8,0.6-1.1,1.2-1.2 c0.9-0.2,1.9-0.2,2.8-0.5c1.7-0.6,3.6-0.2,5-1.5c0.3-0.3,0.7-0.2,1.1,0c0.4,0.2,0.3,0.5,0.4,0.9C16.6,15.1,15.3,14.5,14.9,15z"/><path d="M14.2,3.4c-0.6-1-1.7-0.9-2.6-1.3C10.5,1.6,9.3,1.6,8,1C9,0.7,9.6,1,10.2,1.2c1.6,0.5,3.3,0.6,4.7,1.5 c0.2,0.1,0.6,0.2,0.5,0.6c-0.3,0.2-0.6,0.3-0.8,0.5c-0.1,0-0.2-0.1-0.3-0.1C14.2,3.6,14.2,3.5,14.2,3.4z"/><path d="M15.4,3.4c0.2-0.4-0.2-0.5-0.5-0.6c-1.4-0.9-3.1-1-4.7-1.5C9.6,1,9,0.7,8,1c1.3,0.6,2.5,0.6,3.6,1 c0.9,0.4,2,0.3,2.6,1.3c0,0.1,0,0.3,0,0.4c-0.1,0-0.3-0.1-0.4-0.1c-0.2-0.3-0.6-0.3-0.9-0.5c-1.7-0.7-3.6-0.9-5.4-1.5 C7,1.5,6.5,1.2,6.7,0.6C6.9,0.1,7.4-0.1,8,0c2.8,0.6,5.6,1.2,8.2,2.5c0.9,0.4,1,1.2,0.2,1.8c-0.6-0.2-1.2-0.3-1.7-0.5 C14.8,3.7,15.1,3.5,15.4,3.4z"/></g></svg>