<?xml version="1.0" encoding="utf-8"?>
<!-- Generator: Adobe Illustrator 18.0.0, SVG Export Plug-In . SVG Version: 6.00 Build 0)  -->
<!DOCTYPE svg PUBLIC "-//W3C//DTD SVG 1.1//EN" "http://www.w3.org/Graphics/SVG/1.1/DTD/svg11.dtd">
<svg version="1.1" id="Слой_1" xmlns="http://www.w3.org/2000/svg" xmlns:xlink="http://www.w3.org/1999/xlink" x="0px" y="0px"
	 viewBox="0 0 6.6 7.3" enable-background="new 0 0 6.6 7.3" xml:space="preserve">
<path fill="#FFFFFF" d="M5.7,2.6C4.2,3,3.8,2.1,3.6,0.8C3.6,0.4,3.3,0.1,2.9,0C2.3-0.1,2.3,0.4,2.2,0.8C1.9,1.7,1.5,2.5,0.6,3.1
	C0,3.5-0.3,4.1,0.4,4.7c0.5,0.4,0.5,1,0.4,1.5c0,0.4-0.1,0.8,0.4,1c0.4,0.2,0.8-0.1,1-0.4C3.1,5.9,3.9,5.5,5,6.4
	C5.4,6.8,6.2,6.7,6.2,6c0.1-0.9-0.3-1.8,0.4-2.5C6.5,2.9,6.2,2.5,5.7,2.6z"/>
</svg>
