<?xml version="1.0" encoding="utf-8"?>
<!-- Generator: Adobe Illustrator 18.0.0, SVG Export Plug-In . SVG Version: 6.00 Build 0)  -->
<!DOCTYPE svg PUBLIC "-//W3C//DTD SVG 1.1//EN" "http://www.w3.org/Graphics/SVG/1.1/DTD/svg11.dtd">
<svg version="1.1" id="Слой_1" xmlns="http://www.w3.org/2000/svg" xmlns:xlink="http://www.w3.org/1999/xlink" x="0px" y="0px"
	 viewBox="0 0 25.8 38.5" enable-background="new 0 0 25.8 38.5" xml:space="preserve">
<path fill="#FFFFFF" d="M23.8,2.4c-0.8-2.2-1.6-2.6-4.1-2.3c-3.8,0.5-7.7,0.7-11.4,0.8c-1.3,0-2.5,0.1-3.6,0
	C3.5,0.7,2.8,1.2,2.3,2.3c-0.9,2.1-1.6,4.3-2,6.6c-0.5,2.5-0.5,5.1,0.6,7.4c1.9,4.2,5,6.7,9.8,6.8c0.6,0,1.1,0.2,1.1,1
	c0,2.5,0,5,0.1,7.4c0,0.8-0.3,1.3-0.8,1.8c-1.8,1.5-3.6,3-6.1,3.4c-0.6,0.1-1,0.5-0.9,1.1c0.1,0.6,0.5,0.7,1.1,0.8
	c0.3,0,0.7,0,1-0.1c4.5-1,9-1.2,13.6-0.6c0.6,0.1,1.3,0.2,1.5-0.6c0.2-0.8-0.5-1.2-1.1-1.3c-1-0.1-1.9-0.4-2.8-0.6
	c-2.4-0.5-3.4-1.8-3.4-4.2c0-2.4,0-4.7-0.1-7.1c0-1,0.4-1.3,1.3-1.3c7.6-0.3,11.1-7,10.7-13.4C25.6,6.9,24.6,4.7,23.8,2.4z M14,35.8
	c-1.1,0.1-1.9,0.5-2.9,0.3C11.8,34.9,12.7,34.8,14,35.8z M22.5,10.3c-0.2,2.2-0.8,4.3-1.7,6.2c-0.8,1.9-2.4,3.1-4.4,3.7
	c-2.4,0.8-4.8,1.2-7.4,0.9c-3.4-0.5-6.4-4.1-7-6.6C2,14,1.8,13.5,1.8,13.1c-0.2-2.7,0-2.9,2.7-3c0.2,0,0.4,0,0.7,0l0,0h0
	c0.4-0.4,0.9-0.3,1.4-0.2c3.2-0.1,6.3-0.1,9.5-0.2c1.8-0.1,3.6-0.2,5.5-0.4C22.4,9.2,22.6,9.4,22.5,10.3z M20,7.1
	c-0.9,0-1.8,0.2-2.7,0.2c-0.9,0-1.7,0-2.6,0c0,0.1,0,0.2,0,0.3c-2.7,0-5.3,0-8,0c-1,0-2-0.2-3-0.3C2.8,7.3,2.6,6.8,2.9,6
	c0.3-0.7,0.5-1.4,0.8-2.1C3.8,3.2,4.3,2.9,5,2.9c3,0,6.1-0.3,9.1-0.3c2.2,0,4.4-0.2,6.6-0.2c0.8,0,1.3,0.2,1.5,1
	c0.1,0.3,0.2,0.5,0.2,0.8C22.8,7.1,23.4,7.1,20,7.1z"/>
<path fill="#FFFFFF" d="M6.6,9.8c-0.5-0.1-1-0.2-1.4,0.2h0C5.6,9.7,6.2,10,6.6,9.8z"/>
<path fill="#FFFFFF" d="M6.6,9.8C6.2,10,5.6,9.7,5.2,10C5.7,10,6.2,10,6.6,9.8z"/>
</svg>
