<?xml version="1.0" encoding="utf-8"?>
<!-- Generator: Adobe Illustrator 18.0.0, SVG Export Plug-In . SVG Version: 6.00 Build 0)  -->
<!DOCTYPE svg PUBLIC "-//W3C//DTD SVG 1.1//EN" "http://www.w3.org/Graphics/SVG/1.1/DTD/svg11.dtd">
<svg version="1.1" id="Слой_1" xmlns="http://www.w3.org/2000/svg" xmlns:xlink="http://www.w3.org/1999/xlink" x="0px" y="0px"
	 viewBox="0 0 59.9 54" enable-background="new 0 0 59.9 54" xml:space="preserve">
<g>
	<path fill="#FFFFFF" d="M44.3,24.6c-4.6,0.4-9.3,0.8-13.9,0.7c-2.5-0.1-5-0.2-7.4-0.1c-0.8,0-1.9,0.3-1.9-0.8c0-1,0.9-1.2,1.9-1.3
		c2.2-0.1,4.5-0.4,6.7-0.4c4.1-0.1,8.2,0,11.9,0.1c1.1-0.1,1.9-0.2,2.6-0.2c0.8,0,1.6,0.1,1.6,0.9C45.8,24.2,45.1,24.5,44.3,24.6z"
		/>
	<polygon fill="#FFFFFF" points="33.8,16.3 33.8,16.3 33.8,16.3 	"/>
	<path fill="#FFFFFF" d="M58.8,11.7c-1.5-0.2-3-0.5-4.4-0.2c-3,0.5-6,0.6-9.1,0.9c-1.1,0.1-2.2,0-3.4,0c1.2-2,3.3-3.1,5.1-2.9
		c2,0.2,4-1.3,4-3.5c0-1.3,0.4-2.2,1.4-3c0.1-0.7,0.4-1.4-0.8-1.1c-0.9,0.2-1.6,0.9-2.7,0.5c-2.4-0.7-4.9,1.3-4.8,3.8
		c0.1,1.4-0.5,2.3-1.5,3.1c-0.9,0.8-1.8,1.6-2.8,2.3c-1,0.7-2,1.1-3.3,1c-3,0-6,0.1-9,0c-2.4-0.1-4.8,0.1-7.2,0.2
		c-1.1,0.1-1.7-0.4-2-1.4c-0.3-1-0.7-2.1-1.6-2.8c-2-1.6-4.2-2.7-6.9-2.4c-3.4,0.4-6.3,1.5-8.4,4.4c-1.6,2.2-2,5.9-0.4,8
		c2.2,3,4.6,5.9,9.1,5.3c1.9-0.3,3.6-0.6,5-1.8c0.8-0.7,1.4-0.6,2.1-0.1c2.4,1.8,4.7,3.7,7.1,5.5c0.5,0,0.8,0.4,1.1,0.8
		c2,1.5,4,3.1,5.9,4.7c0.7,0.6,0.9,1.1,0.9,1.9c0,2.7,0.1,5.5-0.1,8.2c-0.1,1.9,0,3.8-0.5,5.7c-0.1,0.5-0.3,0.8-0.8,0.8
		c-0.9,0.5-1.9,0.9-2.8,1.4c-0.7,0.4-1.5,0.4-2.3,0.5c-0.7,0.2-1.1,0.6-1.1,1.3c0,0.4,0.2,0.7,0.7,0.7c2-0.1,4,0.3,6,0.2
		c2.1-0.2,4.2-0.5,6.4-0.3c0.9,0.1,1.6,0,2.4-0.3c0.6-0.2,1.2-0.5,1.1-1.2c0-0.6-0.5-0.9-1.1-1.1c-1.3-0.4-2.7-0.8-4-1.3
		c-1.8-0.6-2.5-1.7-2.4-3.5c0.3-3.4,0.2-6.8,0.3-10.2c0-1.5,0.5-2.7,1.8-3.7c1.8-1.3,3.7-2.4,5.2-4c0-1.5,1.3-1.4,2.1-1.8
		c0.2-1.1,1.3-1.2,2.1-1.6c0.7-0.2,1.1-0.8,1.5-1.3c0.4-0.8,1-1.4,1.9-1.6c0.6-0.2,0.8-0.8,1.2-1.1c0.5-0.6,0.9-1.3,1.9-1.3
		c1-0.6,1.8-1.5,2.8-2.2c1.4-1.1,2.5-2.7,4.3-3.3c0.5-0.2,1-0.4,0.9-1C59.8,12.3,59.5,11.8,58.8,11.7z M48,4.1
		c1.2-0.2,1.5,0.6,1.5,1.6c0,1.2-0.8,2.1-1.8,2.1c-1.2,0-1.9-0.6-1.9-1.7C45.8,4.9,46.7,4.1,48,4.1z M13.1,20.5
		c-1.8,1.1-3.7,2.3-5.8,1.2c-2.2-1.1-5.5-5.3-4.4-8.7c0.6-1.8,1.7-3,3.5-3.4c2-0.5,3.9-0.7,5.9-0.6c1.7,0.1,2.8,1.1,3.6,2.5
		c0.3,0.6,0.5,1.3-0.8,1.5c-2.1,0.2-4.1,0.2-6.2,0.2c-0.5,0-1,0.1-1.1,0.7c-0.2,0.7,0.4,0.9,1,1.1c0.6,0.1,1,0.5,1.3,1.1
		c0.8,1.2,2.2,1.8,3.2,2.8C13.9,19.7,13.8,20.1,13.1,20.5z M15.7,17.7c-1,0.4-1.4-0.6-2-1c-0.5-0.4-1.5-0.6-1.2-1.3
		c0.2-0.6,1.2-0.2,1.8-0.3c0.3,0,0.5,0,0.8,0c1-0.1,1.5,0.3,1.2,1.3C16.1,16.8,17,17.7,15.7,17.7z M36.5,14.2c0.1,0,0.2,0,0.2,0.3
		c-0.1,0-0.2,0.1-0.3,0.1c-0.1,0-0.1-0.2-0.2-0.3C36.3,14.3,36.4,14.2,36.5,14.2z M34.7,50.6c0.2,0.1,0.3,0.4,0.2,0.6
		c-0.3,0.5-0.8,0.2-1.2,0.3c-0.5,0.1-1,0.2-1.5,0.2c-0.4,0-0.9,0.4-1-0.4c0.3-0.5,0.7-0.7,1.3-0.8c0.2-0.1,0.4-0.3,0.7-0.4
		C33.8,49.7,34.2,50.3,34.7,50.6z M49.8,18.5c-0.1,0.1-0.1,0.1-0.2,0.2c-0.8,0.8-1.7,1.6-2.7,2.2c-0.1,0.1-0.3,0.2-0.4,0.3
		c0,0.3-0.4,0.4-0.6,0.6c-0.8,0.7-1.6,1.3-2.4,2v0c-0.6,1.4-1.9,2.1-3.2,2.7c-1.9,1.4-3.9,2.8-5.8,4.1c-1.7,1.1-2,1.1-3.5-0.1
		c-0.6-0.2-1-0.6-1.3-1.1c-1.3-1.2-2.7-2.2-4.2-3.1c-0.5-0.1-0.8-0.3-1.1-0.8c-1.2-1-2.3-2-3.5-3.1c-0.2-0.1-0.3-0.2-0.4-0.3
		c-0.7-0.4-1.4-0.9-1.9-1.5c-0.1-0.1-0.2-0.2-0.2-0.3c-0.1-0.1-0.2-0.3-0.3-0.4c-0.1,0-0.2-0.1-0.2-0.2c-0.3-0.3-0.1-0.6,0-1
		c0.5-0.9,0.9-1.8,0.8-2.8c0-0.8,0.5-1,1.1-0.9c3.8,0.5,7.6-0.1,11.4,0c0.9,0,1.8-0.2,2.7-0.2c0.4,0,1-0.2,1,0.5
		c0.1,0.8-0.6,0.9-1.1,1c-1,1.2-2.1,2.2-3.4,3c-0.5,0.8-1.3,1.1-2.1,1.7c-0.6,0.4-1.2,1.1-1.9,1.5c-0.1,0.2-0.4,0.4-0.6,0.6
		c-0.4,0.4-0.8,0.9-0.3,1.5c0.6,0.6,1,0.1,1.5-0.3c0.2-0.1,0.4-0.2,0.5-0.4c0.5-0.8,1.1-1.4,1.7-1.8c0.9-0.9,2-1.7,3-2.7
		c0.1-0.1,0.2-0.2,0.3-0.3c0,0,0,0,0,0c0.2-1,1-1.5,1.9-1.8c0.2-0.2,0.3-0.4,0.5-0.5c0.6-0.5,1-1.3,1.9-1.3c1.2-0.9,2.5-1.1,3.9-1.1
		c3,0,6.1-0.3,9.1-0.4c1.6-0.1,3.2,0,4.8,0.2C53,15.7,51.6,17.5,49.8,18.5z"/>
	<path fill="#FFFFFF" d="M52.7,1.8c0.5,0.5,0,0.9-0.3,1.3c0.9-0.5,1.8-1,2.7-1.6c0.5-0.3,0.5-0.7,0.2-1.1C55,0,54.6-0.1,54.1,0.2
		c-0.8,0.6-1.7,1.2-2.5,1.8C51.9,1.8,52.3,1.3,52.7,1.8z"/>
	<path fill="#FFFFFF" d="M52.4,3.1c0.3-0.4,0.8-0.8,0.3-1.3c-0.4-0.4-0.8,0-1.1,0.2C52.8,1.6,52.5,2.4,52.4,3.1z"/>
	<path fill="#FFFFFF" d="M41.1,28.2c0.9-0.4,1.4-1.2,2.1-1.8c0,0,0,0,0,0C42.4,26.9,41.7,27.5,41.1,28.2z"/>
	<path fill="#FFFFFF" d="M43.3,26.4C43.3,26.4,43.3,26.4,43.3,26.4c-0.8,0.5-2.2,0.3-2.1,1.8C41.7,27.5,42.4,26.9,43.3,26.4z"/>
	<path fill="#FFFFFF" d="M43.3,26.4C43.3,26.4,43.3,26.4,43.3,26.4L43.3,26.4L43.3,26.4L43.3,26.4c0.7-0.5,1.5-0.9,2.1-1.6
		C44.6,25.2,43.8,25.7,43.3,26.4z"/>
	<polygon fill="#FFFFFF" points="43.3,26.4 43.3,26.4 43.3,26.4 	"/>
	<polygon fill="#FFFFFF" points="43.3,26.4 43.3,26.4 43.3,26.4 43.3,26.4 	"/>
	<path fill="#FFFFFF" d="M43.3,26.4C43.3,26.4,43.3,26.4,43.3,26.4c0.6-0.7,1.4-1.1,2.1-1.6C44.6,25.2,43.5,25.2,43.3,26.4z"/>
	<polygon fill="#FFFFFF" points="43.3,26.4 43.3,26.4 43.3,26.4 43.3,26.4 	"/>
	<rect x="43.3" y="26.4" fill="#FFFFFF" width="0" height="0"/>
	<rect x="43.3" y="26.4" fill="#FFFFFF" width="0" height="0"/>
	<polygon fill="#FFFFFF" points="43.3,26.4 43.3,26.4 43.3,26.4 	"/>
	<path fill="#FFFFFF" d="M51.9,19.5c-0.7,0.3-1.2,0.9-1.9,1.3C50.8,20.6,51.4,20.1,51.9,19.5z"/>
	<path fill="#FFFFFF" d="M50,20.8c0.6-0.4,1.1-1,1.9-1.3C51,19.5,50.5,20.2,50,20.8z"/>
	<path fill="#FFFFFF" d="M48.8,21.9c-0.8,0.4-1.2,1.1-1.9,1.6C47.7,23.2,48.2,22.5,48.8,21.9z"/>
	<path fill="#FFFFFF" d="M46.9,23.5c0.6-0.5,1.1-1.2,1.9-1.6C47.9,22.1,47.3,22.7,46.9,23.5z"/>
	<path fill="#FFFFFF" d="M25.4,28.5c-0.3-0.3-0.7-0.6-1.1-0.8C24.6,28,24.9,28.4,25.4,28.5z"/>
	<path fill="#FFFFFF" d="M24.3,27.6c0.4,0.2,0.7,0.5,1.1,0.8C25.2,28,24.9,27.7,24.3,27.6z"/>
	<path fill="#FFFFFF" d="M31.7,49c-0.3,0.3-0.5,0.6-0.8,0.8C31.3,49.7,31.5,49.4,31.7,49z"/>
	<path fill="#FFFFFF" d="M31.7,49c-0.1,0.4-0.4,0.7-0.8,0.8C31.4,49.8,31.6,49.5,31.7,49z"/>
	<path fill="#FFFFFF" d="M33.8,16.3L33.8,16.3c-1.3,0.8-2.2,2-3.4,3c0,0,0,0.1-0.1,0.1C31.6,18.5,32.8,17.6,33.8,16.3
		C33.8,16.3,33.8,16.3,33.8,16.3L33.8,16.3z"/>
	<path fill="#FFFFFF" d="M30.4,19.3c1.2-0.9,2.1-2.2,3.4-3c-1.3,0.7-2.3,1.7-3.3,2.8C30.5,19.2,30.4,19.2,30.4,19.3z"/>
	<path fill="#FFFFFF" d="M33.8,16.3L33.8,16.3L33.8,16.3L33.8,16.3C33.8,16.3,33.8,16.3,33.8,16.3z"/>
	<path fill="#FFFFFF" d="M40.2,26.5c1.3-0.6,2.6-1.2,3.2-2.7C42.5,24.9,41.4,25.8,40.2,26.5z"/>
	<path fill="#FFFFFF" d="M40.2,26.5c1.2-0.7,2.3-1.6,3.2-2.7l0,0C42.3,24.7,41.2,25.5,40.2,26.5z"/>
	<path fill="#FFFFFF" d="M34.4,17.4c-0.9,0.3-1.6,0.8-1.9,1.8C33,18.5,33.6,17.9,34.4,17.4z"/>
	<path fill="#FFFFFF" d="M32.5,19.2c0.6-0.6,1.3-1.2,1.9-1.8C33.6,17.9,33,18.5,32.5,19.2z"/>
	<path fill="#FFFFFF" d="M34.8,16.9c0.7-0.3,1.2-0.9,1.9-1.3C35.8,15.6,35.4,16.4,34.8,16.9z"/>
	<path fill="#FFFFFF" d="M36.7,15.6c-0.7,0.4-1.2,1-1.9,1.3C35.7,16.8,36.2,16.2,36.7,15.6z"/>
	<path fill="#FFFFFF" d="M33.8,16.3C33.8,16.3,33.8,16.3,33.8,16.3c0.5-0.1,1.1-0.2,1.1-1C34.6,15.8,34.2,16.1,33.8,16.3z"/>
	<path fill="#FFFFFF" d="M33.8,16.3c0.5-0.2,0.8-0.6,1.1-1C34.5,15.7,34.1,16,33.8,16.3C33.8,16.3,33.8,16.3,33.8,16.3z"/>
	<polygon fill="#FFFFFF" points="33.7,16.3 33.8,16.3 33.8,16.3 	"/>
	<path fill="#FFFFFF" d="M33.8,16.3C33.8,16.3,33.8,16.3,33.8,16.3C33.8,16.3,33.8,16.3,33.8,16.3C33.8,16.3,33.8,16.3,33.8,16.3z"
		/>
	<path fill="#FFFFFF" d="M30.9,30.5c-0.5-0.3-0.8-0.7-1.3-1.1C29.9,30,30.3,30.4,30.9,30.5z"/>
	<path fill="#FFFFFF" d="M29.6,29.4c0.5,0.3,0.8,0.7,1.3,1.1C30.6,30,30.2,29.6,29.6,29.4z"/>
	<path fill="#FFFFFF" d="M31.2,51.2c0.4-0.4,0.9-0.5,1.3-0.8C31.9,50.5,31.5,50.7,31.2,51.2z"/>
	<path fill="#FFFFFF" d="M25.4,26.3c-0.4-0.2-0.7-0.5-1.1-0.8C24.6,26,24.9,26.2,25.4,26.3z"/>
	<path fill="#FFFFFF" d="M24.4,25.5c0.3,0.3,0.7,0.6,1.1,0.8C25.2,25.9,24.8,25.6,24.4,25.5z"/>
	<path fill="#FFFFFF" d="M36.4,14.6c0.1,0,0.2-0.1,0.3-0.1c0-0.2-0.1-0.3-0.2-0.3c-0.1,0-0.1,0.1-0.2,0.1
		C36.3,14.4,36.3,14.6,36.4,14.6z"/>
</g>
</svg>
