<?xml version="1.0" encoding="utf-8"?>
<!-- Generator: Adobe Illustrator 18.0.0, SVG Export Plug-In . SVG Version: 6.00 Build 0)  -->
<!DOCTYPE svg PUBLIC "-//W3C//DTD SVG 1.1//EN" "http://www.w3.org/Graphics/SVG/1.1/DTD/svg11.dtd">
<svg version="1.1" id="Слой_1" xmlns="http://www.w3.org/2000/svg" xmlns:xlink="http://www.w3.org/1999/xlink" x="0px" y="0px"
	 viewBox="0 0 7.2 7" enable-background="new 0 0 7.2 7" xml:space="preserve">
<path fill="#FFFFFF" d="M1,6c0.2,1.2,0.8,1.2,1.6,0.6C3.5,6,4.3,5.5,5.1,5.7c0.4,0,0.6,0,0.7,0c0.8,0.1,1.5-0.3,1.2-1
	C6.7,3.8,7.7,2.2,5.9,2c-1-0.1-1.5-0.3-1.8-1.3C4.1,0.4,3.9,0,3.4,0C2.9,0,2.7,0.4,2.6,0.7C2.3,1.6,1.7,2.2,0.9,2.7
	c-1,0.6-1.3,1.2-0.4,2.1C0.8,5.1,0.9,5.6,1,6z M2.4,3.7c0-0.5,0.4-0.7,0.8-0.6c0.5,0,0.8,0.4,0.9,0.8C3.9,4.3,3.4,4.5,2.9,4.5
	C2.4,4.6,2.4,4.1,2.4,3.7z"/>
</svg>
