<?xml version="1.0" encoding="utf-8"?>
<!-- Generator: Adobe Illustrator 18.0.0, SVG Export Plug-In . SVG Version: 6.00 Build 0)  -->
<!DOCTYPE svg PUBLIC "-//W3C//DTD SVG 1.1//EN" "http://www.w3.org/Graphics/SVG/1.1/DTD/svg11.dtd">
<svg version="1.1" id="Слой_1" xmlns="http://www.w3.org/2000/svg" xmlns:xlink="http://www.w3.org/1999/xlink" x="0px" y="0px"
	 viewBox="0 0 15.3 13.4" enable-background="new 0 0 15.3 13.4" xml:space="preserve">
<path fill="#FFFFFF" d="M6,1.4C5.5,2.7,4.7,3.7,3.2,4C2.3,4.1,1.6,4.7,0.9,5.1c-1.1,0.6-1.1,1.1-0.3,2.1c1,1.2,1.8,2.5,1.7,4.2
	c-0.1,0.7-0.3,1.4,0.4,1.8c0.8,0.4,1.1-0.3,1.6-0.7c1.7-1.4,3-2,5.1-0.8c0.6,0.4,1.3,0.6,2,0.9c0.6,0.3,1.1,0.2,1.5-0.2
	c0.4-0.4,0.2-0.8,0-1.3c-1.1-2.5-0.7-4.2,1.5-5.9c0.1-0.1,0.2-0.2,0.3-0.3c0.7-0.7,0.6-1.2-0.3-1.7c-1-0.4-2-0.4-3-0.2
	C9.9,3.3,8.9,2.8,8.2,1.3C8,0.8,7.9,0,7.1,0C6.3,0,6.2,0.8,6,1.4z M7.5,3.7c1.3,0.8,2.7,1.5,4.8,1c-1.3,1.5-2,2.9-1.4,4.6
	c0.2,0.5-0.2,0.8-0.8,0.6C9.7,9.8,9.3,9.7,8.9,9.6C7.5,9,6.2,9.1,5,10c-0.6,0.5-1,0.5-1.2-0.5C3.6,8.8,3.3,8,2.9,7.4
	c-0.6-1-0.3-1.5,0.7-1.7c1.3-0.2,2.5-0.6,3.2-1.9C6.9,3.4,7.2,3.5,7.5,3.7z"/>
</svg>
