<?xml version="1.0" encoding="utf-8"?>
<!-- Generator: Adobe Illustrator 18.0.0, SVG Export Plug-In . SVG Version: 6.00 Build 0)  -->
<!DOCTYPE svg PUBLIC "-//W3C//DTD SVG 1.1//EN" "http://www.w3.org/Graphics/SVG/1.1/DTD/svg11.dtd">
<svg version="1.1" id="Слой_1" xmlns="http://www.w3.org/2000/svg" xmlns:xlink="http://www.w3.org/1999/xlink" x="0px" y="0px"
	 viewBox="0 0 18 12.8" enable-background="new 0 0 18 12.8" xml:space="preserve">
<g>
	<path fill="#FFFFFF" d="M2,6.8C1.7,6.5,1.2,6.1,0.8,6.5C0.3,7,0.7,7.4,1.1,7.7c1.4,1.4,2.8,2.8,4.2,4.1c0.7,0.7,1.4,0.5,2,0
		c0.7-0.6,1.3-1.3,1.9-2c2.5-2.8,5-5.6,7.8-8.1l0,0c0.1-0.4,0.6-0.8,0.1-1.1c-0.4-0.3-0.8,0.1-1,0.5c-0.4,0.7-1.1,1.2-1.7,1.7
		C12.9,4.4,11.5,6,9.8,7.3C9.6,7.4,9.5,7.6,9.3,7.8C8.9,9,7.9,9.7,7,10.4c-0.5,0.4-1.1,0.4-1.5-0.3C5,9.6,4.6,8.9,3.9,8.6
		C3.1,8.2,2.7,7.4,2,6.8z"/>
	<path fill="#FFFFFF" d="M8.9,10.8c1.2-1.3,2.1-2.9,3.5-4c1.8-1.5,3.1-3.4,4.9-5c-0.1,0-0.1,0-0.2,0c0,0,0,0,0,0
		c-1.2,1.1-2.2,2.4-3.3,3.4c-2.3,2-4,4.4-6.1,6.5c-1.2,1.1-1.9,1.1-2.9-0.1c-1.2-1.4-2.6-2.5-3.9-3.8C0.5,7.4,0,7,0.5,6.4
		C1,5.7,1.5,6.2,2,6.5c0.8,0.6,1.2,1.4,2,2.1C3.4,7.7,2.8,6.9,2,6.3C1.4,5.9,0.9,5.5,0.3,6.2c-0.6,0.7-0.1,1.2,0.3,1.7
		c1.2,1.2,2.4,2.3,3.5,3.6c1.6,1.8,2.1,1.8,3.9,0.2C8.4,11.4,8.6,11.1,8.9,10.8z"/>
	<path fill="#FFFFFF" d="M2,6.5C1.5,6.2,1,5.7,0.5,6.4C0,7,0.5,7.4,0.8,7.8c1.2,1.3,2.7,2.5,3.9,3.8c1.1,1.2,1.7,1.3,2.9,0.1
		c2.1-2.1,3.9-4.5,6.1-6.5c1.2-1,2.1-2.4,3.3-3.4c0,0,0,0,0,0c0,0-0.1,0-0.1,0l0,0l0,0c-2.9,2.5-5.4,5.3-7.8,8.1
		c-0.6,0.7-1.2,1.4-1.9,2c-0.6,0.6-1.3,0.7-2,0c-1.4-1.4-2.8-2.8-4.2-4.1C0.7,7.4,0.3,7,0.8,6.5c0.5-0.5,0.9,0,1.2,0.3
		c0.7,0.6,1.1,1.4,1.9,1.8C3.2,8,2.7,7.1,2,6.5z"/>
	<path fill="#FFFFFF" d="M14.4,2.7c0.4-0.6,1.2-1,1.5-1.7c0.3-0.5,0.9-1,1.5-0.5c0.7,0.5,0,0.9-0.3,1.3c0.1,0,0.1,0,0.1,0.1
		c0.4-0.4,1-0.9,0.4-1.5c-0.6-0.6-1.3-0.4-1.8,0.2c-0.6,0.6-1.1,1.3-1.6,2C14.3,2.6,14.3,2.6,14.4,2.7C14.3,2.7,14.3,2.7,14.4,2.7z"
		/>
	<path fill="#FFFFFF" d="M17.1,1.7c0.3-0.4,0.9-0.8,0.3-1.3c-0.6-0.5-1.2,0-1.5,0.5c-0.4,0.7-1.1,1.1-1.5,1.7c0,0,0,0,0,0
		c0,0.1,0,0.1,0,0.2c0.6-0.5,1.3-1,1.7-1.7c0.2-0.4,0.6-0.8,1-0.5c0.5,0.3,0,0.7-0.1,1.1C17,1.7,17.1,1.7,17.1,1.7z"/>
	<path fill="#FFFFFF" d="M17.1,1.7C17.1,1.7,17.1,1.8,17.1,1.7c0,0.1,0.1,0.1,0.1,0.1C17.2,1.8,17.2,1.7,17.1,1.7z"/>
	<path fill="#FFFFFF" d="M17,1.8L17,1.8c0,0,0.1,0,0.1,0c0,0,0-0.1,0-0.1C17.1,1.7,17,1.7,17,1.8z"/>
	<path fill="#FFFFFF" d="M14.2,2.8c-0.1-0.1,0-0.2,0.1-0.3C12.8,4.1,11,5.4,9.8,7.3C11.3,5.8,12.7,4.2,14.2,2.8z"/>
	<path fill="#FFFFFF" d="M14.3,2.8C14.3,2.8,14.3,2.8,14.3,2.8c-1.6,1.4-3.1,2.9-4.5,4.4C11.5,6,12.9,4.4,14.3,2.8z"/>
	<path fill="#FFFFFF" d="M14.2,2.8C14.3,2.7,14.3,2.7,14.2,2.8c0.1-0.1,0.1-0.2,0.1-0.3C14.2,2.6,14.2,2.7,14.2,2.8z"/>
	<path fill="#FFFFFF" d="M14.2,2.8C14.3,2.8,14.3,2.8,14.2,2.8C14.3,2.8,14.3,2.7,14.2,2.8C14.3,2.7,14.3,2.7,14.2,2.8z"/>
	<path fill="#FFFFFF" d="M7.1,10.1c0.8-0.7,1.6-1.4,2.2-2.3C8.7,8.4,8.1,8.9,7.5,9.6c-0.6,0.7-1.2,0.9-2,0.5
		C6,10.8,6.6,10.6,7.1,10.1z"/>
	<path fill="#FFFFFF" d="M7,10.4C7.9,9.7,8.9,9,9.3,7.8c-0.6,0.9-1.4,1.6-2.2,2.3c-0.5,0.5-1.1,0.7-1.7,0C5.9,10.8,6.5,10.8,7,10.4z
		"/>
</g>
</svg>
