<?xml version="1.0" encoding="utf-8"?>
<!-- Generator: Adobe Illustrator 18.0.0, SVG Export Plug-In . SVG Version: 6.00 Build 0)  -->
<!DOCTYPE svg PUBLIC "-//W3C//DTD SVG 1.1//EN" "http://www.w3.org/Graphics/SVG/1.1/DTD/svg11.dtd">
<svg version="1.1" id="Слой_1" xmlns="http://www.w3.org/2000/svg" xmlns:xlink="http://www.w3.org/1999/xlink" x="0px" y="0px"
	 viewBox="0 0 2.7 27.7" enable-background="new 0 0 2.7 27.7" xml:space="preserve">
<g>
	<path fill="#FFFFFF" d="M1.9,27.7c0.2-0.1,0.4-0.3,0.6-0.6C2,27,1.5,26.9,1.1,26.7c-0.5-0.1-0.6-0.9-0.5-1.2c0.4-0.9,0.1-1.8,0-2.7
		c-0.1-1,0-2.1,0-3.1c0.1-2.8,0.2-5.6,0.3-8.5c0-0.9,0-1.8-0.1-2.7c-0.2-2,0.5-3.9,0.2-6C0.7,1.2,1.1,0.8,2.4,0.8
		C2.3,0.5,2.1,0.3,1.9,0.1c-0.1,0-0.1,0-0.2,0c-0.7-0.2-1.1,0.1-1.3,1C0.1,2.7,0.4,4.4,0.3,6C0.1,11,0.1,16,0,21
		c0,1.3,0.1,2.5,0,3.8c-0.2,2.1,0.1,2.8,1.7,2.9C1.8,27.7,1.9,27.7,1.9,27.7z"/>
	<path fill="#FFFFFF" d="M2.7,25.2c-0.1-0.2-0.2-0.4-0.2-0.7c-0.3-2.9,0-5.8-0.2-8.7C2.2,13,2.4,10.1,2.1,7.2C2,5.9,2.2,4.5,2.3,3.2
		c0-0.2,0-0.3,0.1-0.4C2.4,2.5,2.5,2.3,2.5,2C1.9,2.3,1.6,2.8,1.6,3.8c0,2.8,0,5.6,0.1,8.5c0,2.6,0,5.2,0.1,7.8
		c0.1,1.4-0.2,2.9,0.1,4.3c0.2,1.1,0.3,1.5,0.9,1.8c0-0.3,0-0.5,0-0.8C2.7,25.3,2.7,25.3,2.7,25.2z"/>
	<path fill="#FFFFFF" d="M1.8,24.4c-0.3-1.4,0-2.9-0.1-4.3c-0.1-2.6-0.1-5.2-0.1-7.8c0-2.8-0.1-5.6-0.1-8.5c0-1,0.3-1.6,0.9-1.8
		c0-0.4,0-0.9-0.1-1.2c-1.2,0-1.7,0.4-1.5,1.8c0.3,2-0.4,4-0.2,6c0.1,0.9,0.1,1.8,0.1,2.7c-0.1,2.8-0.2,5.6-0.3,8.5
		c0,1-0.1,2.1,0,3.1c0.1,0.9,0.4,1.7,0,2.7c-0.1,0.4,0,1.1,0.5,1.2C1.5,26.9,2,27,2.5,27.1c0,0,0-0.1,0.1-0.1
		c0.1-0.3,0.1-0.5,0.1-0.8C2.1,25.9,2,25.5,1.8,24.4z"/>
</g>
</svg>
