<?xml version="1.0" encoding="utf-8"?>
<!-- Generator: Adobe Illustrator 18.0.0, SVG Export Plug-In . SVG Version: 6.00 Build 0)  -->
<!DOCTYPE svg PUBLIC "-//W3C//DTD SVG 1.1//EN" "http://www.w3.org/Graphics/SVG/1.1/DTD/svg11.dtd">
<svg version="1.1" id="Слой_1" xmlns="http://www.w3.org/2000/svg" xmlns:xlink="http://www.w3.org/1999/xlink" x="0px" y="0px"
	 viewBox="0 0 65.7 41.2" enable-background="new 0 0 65.7 41.2" xml:space="preserve">
<g>
	<path fill="#FFFFFF" d="M34.8,12.5c0.8,0.2,1.6,0.3,2.4,0.5c-1-0.4-2-0.6-3.1-0.6C34.3,12.4,34.6,12.5,34.8,12.5z"/>
	<path fill="#FFFFFF" d="M64.9,36.6L64.9,36.6L64.9,36.6L64.9,36.6L64.9,36.6c0,0,0-0.1,0-0.1C64.9,36.5,64.9,36.5,64.9,36.6
		C64.9,36.6,64.9,36.6,64.9,36.6z"/>
	<polygon fill="#FFFFFF" points="3.4,17 3.4,17 3.4,17 	"/>
	<path fill="#FFFFFF" d="M46.7,0.8C45.4,1,44.1,1.1,42.7,1c0,0,0,0-0.1,0h-1.4c0.1,0.2,0.2,0.3,0.5,0.3c2,0.2,4,0.5,5.8-0.6H46.7z"
		/>
	<path fill="#FFFFFF" d="M2.7,17.9c0,4.3,0.1,8.5,0.2,12.8c0,0.2,0,0.4-0.1,0.5C2.9,31.4,3,31.6,3,31.7c0.4-0.5,0.5-1.2,0.4-2
		c-0.2-1.3-0.3-2.6-0.2-3.9c0,0,0-0.1,0.1-0.1c0,0,0,0.1-0.1,0.1c0-0.5,0-1,0.2-1.4c0-0.1,0-0.1,0.1-0.2c0-0.1,0-0.2,0-0.3
		c0,0-0.1-0.1-0.1-0.1c-0.2-0.5-0.2-1-0.2-1.4c0-1.7,0-3.3,0-5c-0.1-0.1-0.1-0.1-0.1-0.2c-0.1-0.3-0.3-0.6-0.4-0.8h0
		c-0.1,0-0.1,0-0.2,0c0,0.2,0,0.5,0,0.7C2.6,17.4,2.7,17.6,2.7,17.9z"/>
	<path fill="#FFFFFF" d="M3.2,22.5c0,0,0,0.1,0.1,0.1C3.2,22.6,3.2,22.5,3.2,22.5z"/>
	<path fill="#FFFFFF" d="M22.5,2.9c0.1,0,0.2-0.1,0.2-0.1C22.7,2.8,22.6,2.8,22.5,2.9z"/>
	<path fill="#FFFFFF" d="M35.6,2.3c-0.1,0-0.1-0.1-0.2-0.1C35.5,2.3,35.6,2.3,35.6,2.3z"/>
	<path fill="#FFFFFF" d="M37.4,1.8c0.2,0,0.3-0.1,0.5-0.1C37.8,1.7,37.6,1.7,37.4,1.8z"/>
	<path fill="#FFFFFF" d="M53.8,2c-0.1-0.4-0.2-0.7-0.7-0.7c-0.7,0.1-1.4,0.1-2.1,0.2c-0.7,0-1.1-0.2-1.3-0.7h-1.9
		c0.1,0.6-0.2,0.9-0.8,1c-1.7,0.5-3.5,0.4-5.2,0.2c-0.7-0.1-1.1-0.5-1.1-1H39c-0.2,0.2-0.3,0.3-0.5,0.5v0h0l0,0
		c-0.2,0.5-0.7,0.2-1,0.3l-0.1,0l-0.1,0c-0.4,0.5-1.1,0.3-1.6,0.5c-0.4,0-0.8,0-1.1-0.2c-0.1,0-0.1,0-0.2-0.1
		c-1.7-0.1-3.3,0.4-5,0.3c-0.9,0.5-1.9,0.2-2.9,0.3c-0.4,0.1-0.9,0.2-1.3,0.3c-0.9,0-1.7,0-2.6,0l0,0c0,0-0.1,0.1-0.1,0.1
		c-0.7,0.6-1.5,0-2.3,0.2c-0.8,0.1-1.6,0.2-2.4,0C17.1,3.2,16.5,3,16,2.6l0,0v0l0,0c-0.3,0-0.6,0.1-0.9,0.1
		c-0.2,0.6-0.6,0.7-1.7,0.7c-0.8,0.5-1.7,0.4-2.6,0.3c-0.1,0-0.2,0-0.3,0C10,4,9.4,4,8.9,3.6C8,3.6,7.2,3.8,6.3,3.9
		c-0.7,0.6-1.4,0.3-2.1,0c-0.1,0-0.2,0-0.3,0v0C3.7,4.2,3.6,4.5,3.2,4.4C1.5,4.6,1.6,4.8,2.1,6.3c0.9,2.6,1,5.3,0.8,8.1
		c0,0.4-0.2,0.6-0.4,0.7c0,0.3,0,0.6,0,0.9c0.1,0,0.2,0.1,0.4,0.2c0.2,0.2,0.3,0.4,0.4,0.6l0.2,0.1c0.4-0.2,0.7-0.4,0.6-1
		c-0.3-1.8-0.1-3.5,0-5.3c0.1-1.3-0.3-2.5,0-3.8c0.1-0.5,0.1-1.1,0.6-1.2c1.2-0.3,2.2-0.9,3.5-0.7C8.9,5,9.9,5.4,10.6,4.4
		c0-0.1,0.3-0.1,0.3,0c1.1,0.8,2.4,0.3,3.5,0.3v0c0.1,0,0.2,0,0.3,0c0,0,0.1-0.1,0.1-0.1c0,0,0.1,0,0.1,0c1.7-0.5,3.5-0.1,5.2-0.4
		c2.5-0.4,5-0.6,7.5-0.7c1.6-0.1,3.2,0,4.8,0c4.5,0,8.9,0.3,13.4-0.4c0.4-0.1,0.8,0,1.1,0.3c0.1,0,0.2,0,0.3,0
		c0.6-0.6,1.3-0.2,2-0.2c1.1-0.1,2.2,0,3.3,0c0.1,0,0.2,0,0.3,0c0.2-0.1,0.5-0.2,0.7-0.2C54,2.8,53.9,2.4,53.8,2z"/>
	<path fill="#FFFFFF" d="M3.4,17C3.4,17,3.4,17,3.4,17L3.4,17C3.4,17,3.4,17,3.4,17C3.4,17,3.4,17,3.4,17C3.4,17,3.4,17,3.4,17z"/>
	<path fill="#FFFFFF" d="M47.5,0.8c-1.8,1-3.8,0.8-5.8,0.6c-0.3,0-0.4-0.2-0.5-0.3h-0.6c0.1,0.5,0.5,0.9,1.1,1
		c1.7,0.2,3.5,0.2,5.2-0.2c0.5-0.1,0.9-0.4,0.8-1H47.5z"/>
	<path fill="#FFFFFF" d="M2.5,12.3c-0.2-1.7-0.1-3.4-0.6-5c0,0.1,0,0.2,0,0.3c0.2,1.9,0.5,3.8,0.5,5.7C2.5,13,2.5,12.7,2.5,12.3z"/>
	<path fill="#FFFFFF" d="M2.7,4c0.4-0.1,0.8-0.3,1.2-0.4c0.1,0,0.2,0,0.4,0c0.7,0.2,1.4,0.1,2.2,0C7.2,3.2,8,3.2,8.7,3.3
		c0.5,0,1.1,0.1,1.6,0c0.1,0,0.2,0,0.4,0c0.9,0,1.8,0,2.6-0.3c0.3,0,0.5-0.1,0.6-0.2c-0.1,0-0.1,0-0.2,0C11.9,3,10.1,3.1,8.2,3.1
		c-0.9,0-1.8,0.3-2.7,0.3C4.3,3.2,3.1,3.8,1.9,3.7C1.1,4.5,0.7,5.4,1.6,6.4c0,0,0,0,0,0C1.5,6.3,1.5,6.1,1.4,5.9
		C0.9,4.8,1.3,4.4,2.7,4z"/>
	<path fill="#FFFFFF" d="M14.6,2.7c-0.1,0.1-0.4,0.2-0.6,0.2C13.8,2.9,13.6,3,13.4,3c-0.9,0.3-1.7,0.3-2.6,0.3c-0.1,0-0.2,0-0.4,0
		c-0.6,0.1-1.1,0-1.6,0c-0.8,0-1.6,0-2.3,0.3C5.7,3.7,5,3.8,4.3,3.5c-0.1,0-0.2,0-0.4,0C3.5,3.7,3.1,3.9,2.7,4
		C1.3,4.4,0.9,4.8,1.4,5.9c0.1,0.2,0.2,0.4,0.2,0.6C1.8,6.7,1.9,7,1.9,7.4c0.4,1.6,0.4,3.3,0.6,5c0,0.4,0,0.7-0.1,1c0,0.3,0,0.7,0,1
		c0,0.1,0,0.1,0,0.2c0,0.2,0,0.4,0,0.5c0.2-0.1,0.4-0.3,0.4-0.7c0.3-2.7,0.1-5.4-0.8-8.1C1.6,4.8,1.5,4.6,3.2,4.4
		C3.3,4.1,3.6,4,3.9,3.9c0.1,0,0.2,0,0.3,0c0.7,0,1.4,0,2.1,0C7.2,3.8,8,3.6,8.9,3.6c0.5,0,1,0,1.6,0c0.1,0,0.2,0,0.3,0
		c0.8-0.4,1.7-0.2,2.6-0.3c1.1-0.1,1.6-0.1,1.7-0.7C14.9,2.7,14.8,2.7,14.6,2.7z"/>
	<path fill="#FFFFFF" d="M19.1,2.9c0.4,0,0.7,0,1.1,0c0.1,0,0.2,0,0.3,0l0,0c0,0,0.1,0,0.1,0C20,2.8,19.6,2.9,19.1,2.9z"/>
	<polygon fill="#FFFFFF" points="38.5,1.5 38.5,1.5 38.5,1.5 	"/>
	<path fill="#FFFFFF" d="M27.5,2.3c0.1,0,0.2,0,0.3,0c-0.7,0.1-1.3,0.1-2,0.1c-0.4,0-0.9,0-1.3,0.1c0.1,0,0.1,0.1,0.2,0.1
		c0.1,0,0.2,0.1,0.3,0.1c0.1,0,0.2,0,0.2,0.1c0.4-0.1,0.9-0.2,1.3-0.3l0,0h0C26.8,2.4,27.1,2.3,27.5,2.3z"/>
	<path fill="#FFFFFF" d="M23,2.6c-0.5,0-1,0.1-1.5,0.1c0.1,0,0.2,0.1,0.2,0.1l0,0c0.3,0,0.5,0,0.8,0c0,0-0.1,0.1-0.1,0.1
		c0,0,0.1,0,0.1-0.1l0,0c0.1-0.1,0.2-0.1,0.2-0.1C22.8,2.7,22.9,2.7,23,2.6z"/>
	<path fill="#FFFFFF" d="M38.1,1.1c-0.4,0.2-0.8,0.3-1.3,0.3c-1,0.1-2,0.1-3,0.1C29.9,1.6,26,2,22.2,2.3c-1.6,0.1-3.3,0.2-4.9,0.2
		c-0.1,0-0.2,0-0.3,0c0.3,0.2,0.6,0.2,1,0.2c0.7,0,1.4,0,2.2,0c0.2,0,0.4,0,0.6,0c0.2-0.1,0.4-0.1,0.6,0c0.4,0,0.8-0.1,1.1-0.2
		c0.1,0,0.3,0,0.4,0c0.2,0,0.3,0,0.5,0c0.3-0.1,0.6-0.1,0.9,0c0.3,0,0.5,0,0.8-0.1c0.5,0,1-0.2,1.5-0.2c1,0,1.9-0.1,2.8-0.2
		C30.9,2,32.4,1.6,34,1.7c0.5,0,0.9,0.1,1.4,0.1c0.6-0.1,1.2-0.1,1.7-0.3c0.1,0,0.2,0,0.3-0.1C37.7,1.4,37.9,1.3,38.1,1.1
		c0.1,0,0.1,0,0.1,0H38.1z"/>
	<path fill="#FFFFFF" d="M20.1,2.7c-0.7,0-1.4,0-2.2,0c-0.4,0-0.7-0.1-1-0.2c0,0,0,0,0,0c-0.1,0-0.1,0-0.2,0c0,0,0,0-0.1,0
		c0,0,0,0-0.1,0c-0.1,0-0.1,0-0.2,0c0.2,0.2,0.4,0.3,0.7,0.3c0.6,0,1.2,0.1,1.7,0c0.1,0,0.1,0,0.2,0c0.5,0,1,0,1.4-0.1
		c0.1,0,0.1-0.1,0.2-0.1C20.5,2.7,20.3,2.7,20.1,2.7z"/>
	<path fill="#FFFFFF" d="M38.2,1.1C38.2,1.1,38.1,1.1,38.2,1.1c-0.3,0.2-0.5,0.3-0.8,0.3c-0.1,0-0.2,0-0.3,0.1
		c-0.6,0.2-1.1,0.2-1.7,0.3c-0.5,0-0.9-0.1-1.4-0.1C32.4,1.6,30.9,2,29.4,2c-0.9,0.2-1.9,0.3-2.8,0.2c-0.5,0-1,0.1-1.5,0.2
		c-0.3,0-0.5,0-0.8,0.1c0.1,0,0.1,0,0.2,0.1c0.4,0,0.9-0.1,1.3-0.1c0.7,0,1.3-0.1,2-0.1C30,2,32.2,1.9,34.5,1.8c0.8,0,1.7,0,2.5,0
		c0.5-0.1,1.1-0.3,1.5-0.7H38.2z"/>
	<path fill="#FFFFFF" d="M23,2.6c0.1-0.1,0.2-0.1,0.3-0.1c-0.2,0-0.3,0-0.5,0c-0.1,0-0.3,0-0.4,0c-0.4,0.1-0.7,0.2-1.1,0.2
		c0.1,0,0.1,0,0.2,0.1C22,2.7,22.5,2.7,23,2.6C23,2.6,23,2.6,23,2.6L23,2.6z"/>
	<path fill="#FFFFFF" d="M22,37.7c-2.6,0.1-5.2,0.3-7.7,0.2c0.2,0.5,0.2,1-0.4,1.3c0.5,1.2,0.8,1.3,1.8,0.5c0.6-0.5,1.1-1.1,1.9-1.2
		l0,0c1-0.5,2.1-0.2,3.1-0.2c1.1,0.2,1.9,0.8,2.6,1.6c0-0.6,0.5-0.9,0.8-1.3l0,0h0C23.4,38.2,22.7,37.9,22,37.7z"/>
	<path fill="#FFFFFF" d="M3.1,32.6c0,0.4,0,0.9,0,1.3c0.9-0.3,1.9-0.5,2.9-0.4c0-0.5,0-1.1,0-1.6c-0.8-0.2-1.3-0.7-1.4-1.6
		c-0.5-3.5-0.6-7-0.3-10.5c0.1-1,0-2,0-3C4.2,17,3.9,17.1,3.5,17c0.8,0.5,0.3,1.5,0.5,2.2c0,0.2-0.1,0.4-0.3,0.4c0,0-0.1,0-0.1,0
		c0.1,0.9,0.1,1.8,0.1,2.7c0.1,0.6,0,1.1,0.1,1.7c0,0.1,0,0.3,0,0.4c0,0.6,0,1.1-0.1,1.7c0,1.3,0.1,2.7,0.2,4
		C4.1,31.3,3.9,32,3.1,32.6z"/>
	<path fill="#FFFFFF" d="M4.4,8.4c0,0.1,0,0.1,0,0.2c0-0.6,0-1.1,0.1-1.7c0,0,0,0,0,0C4.4,7.2,4.3,7.7,4.4,8.4z"/>
	<polygon fill="#FFFFFF" points="13.9,39.2 13.9,39.2 13.9,39.2 	"/>
	<path fill="#FFFFFF" d="M3.4,17C3.4,17,3.4,17,3.4,17C3.4,17.1,3.4,17.1,3.4,17c0,0.1,0,0.2,0,0.2C3.4,17.2,3.4,17.1,3.4,17L3.4,17
		z"/>
	<path fill="#FFFFFF" d="M4,30c-0.1-1.3-0.2-2.7-0.2-4c0.1-0.6,0-1.1,0.1-1.7c0-0.1,0-0.3,0-0.4c0-0.6,0.1-1.1-0.1-1.7
		c0-0.9,0-1.8-0.1-2.7c-0.1-0.1-0.2-0.2-0.2-0.3c0-0.6,0-1.3,0-1.9c0-0.1,0-0.1-0.1-0.2c-0.1,0.1-0.1,0.3-0.2,0.4c0,1.7,0,3.3,0,5
		c0,0,0,0.1,0.1,0.1c0.2,0.5,0.2,1,0.2,1.5c0,0.1,0,0.2,0,0.3c0,0.5,0,1-0.2,1.5c0,0,0,0.1-0.1,0.1c0,1.3,0,2.6,0.2,3.9
		c0.1,0.8,0,1.5-0.4,2c0.1,0.3,0.1,0.5,0.1,0.8C3.9,32,4.1,31.3,4,30z"/>
	<path fill="#FFFFFF" d="M3.3,24.5c0-0.1,0-0.1,0.1-0.2C3.4,24.4,3.4,24.4,3.3,24.5z"/>
	<path fill="#FFFFFF" d="M3.4,17C3.4,17,3.4,17,3.4,17C3.4,17,3.4,17,3.4,17C3.4,17,3.4,17,3.4,17z"/>
	<path fill="#FFFFFF" d="M4.4,8.5c0-0.1,0-0.1,0-0.2C4.3,7.7,4.4,7.2,4.5,6.8C4.6,6,5.1,5.6,6,5.5c2.3-0.4,4.5-0.2,6.8-0.3
		c0.6,0,1.2,0.1,1.7-0.5c-1.2,0-2.4,0.5-3.5-0.3c-0.1-0.1-0.3,0-0.3,0C9.9,5.4,8.9,5,8.2,4.8C6.9,4.5,5.8,5.2,4.7,5.5
		C4.2,5.6,4.2,6.2,4.1,6.7C3.7,8,4.1,9.2,4,10.5c-0.1,1.8-0.3,3.5,0,5.3c0.1,0.6-0.2,0.8-0.6,1c0,0.1,0,0.2,0,0.3l0,0v0
		c0,0,0,0,0.1,0c0.4,0,0.7-0.1,0.9-0.3c0-0.5-0.1-1-0.1-1.6C4.2,13,4.3,10.8,4.4,8.5z"/>
	<rect x="3.4" y="17" fill="#FFFFFF" width="0" height="0"/>
	<path fill="#FFFFFF" d="M26.4,41c0.1-0.2,0.3-0.3,0.6-0.4c0.4-0.1,0.8-0.2,1.3-0.3h0c0-0.1,0-0.2,0-0.2c1.4-0.5,3-0.2,4.6-0.7
		c-2.1-0.8-4.2,0.1-6.2-0.6h0c0-0.1,0-0.2,0-0.2l0,0c-0.3,0-0.7,0-1,0l0,0l0,0c-0.4,0-0.9,0-1.3,0c0,0-0.1,0-0.1,0
		c0.2,0.7-0.3,1.1-0.8,1.5c-0.1,0-0.1,0-0.2,0c0.1,0.4,0.1,0.7,0.2,1.1C24.5,41,25.4,41,26.4,41z"/>
	<path fill="#FFFFFF" d="M23.3,39.9c0.1,0,0.1,0,0.2,0c0.5-0.4,1-0.8,0.8-1.5c-0.1,0-0.1,0-0.2,0l0,0c-0.3,0.4-0.8,0.7-0.8,1.3l0,0
		C23.3,39.8,23.3,39.9,23.3,39.9z"/>
	<path fill="#FFFFFF" d="M3.3,17c-0.2-0.2-0.4-0.4-0.6-0.5C2.8,16.7,2.9,17,3,17.3C3,17.2,3.1,17.1,3.3,17z"/>
	<path fill="#FFFFFF" d="M3.4,17C3.4,17,3.4,17,3.4,17c0-0.1-0.1-0.1-0.1-0.2c0-0.1,0-0.1,0.1-0.1c-0.1,0-0.1,0-0.2-0.1
		C3.3,16.8,3.3,16.9,3.4,17C3.4,17,3.4,17,3.4,17z"/>
	<path fill="#FFFFFF" d="M3.3,16.9C3.3,17,3.3,17,3.3,16.9c0-0.1,0-0.2-0.1-0.3c-0.2-0.1-0.4-0.1-0.6-0.2l0,0
		C2.9,16.6,3,16.8,3.3,16.9C3.3,17,3.3,16.9,3.3,16.9z"/>
	<path fill="#FFFFFF" d="M3.4,17C3.4,17,3.4,17,3.4,17C3.4,17,3.4,17.1,3.4,17C3.4,17.1,3.4,17.1,3.4,17C3.4,17,3.4,17,3.4,17z"/>
	<path fill="#FFFFFF" d="M3.4,17.1C3.4,17.1,3.4,17,3.4,17.1C3.3,17,3.3,17,3.3,17C3.1,17.1,3,17.2,3,17.3c0,0.1,0.1,0.1,0.1,0.2
		C3.2,17.4,3.3,17.2,3.4,17.1z"/>
	<path fill="#FFFFFF" d="M3.4,17C3.4,17,3.4,17,3.4,17C3.4,17,3.4,17,3.4,17C3.3,17,3.3,17,3.4,17C3.4,17,3.4,17,3.4,17
		C3.4,17,3.4,17,3.4,17z"/>
	<path fill="#FFFFFF" d="M3.4,16.8c0,0.1,0,0.1,0.1,0.2c0,0,0,0,0,0l0,0C3.4,16.9,3.4,16.8,3.4,16.8C3.4,16.7,3.4,16.8,3.4,16.8z"/>
	<path fill="#FFFFFF" d="M3.3,16.9C3.3,16.9,3.3,17,3.3,16.9C3.3,17,3.3,17,3.3,16.9C3.3,17,3.3,17,3.3,16.9C3.3,17,3.3,17,3.3,16.9
		z"/>
	<path fill="#FFFFFF" d="M3.2,22.6c0,0,0-0.1-0.1-0.1c0,0.5,0,1,0.2,1.4C3.2,23.5,3.4,23,3.2,22.6z"/>
	<path fill="#FFFFFF" d="M3.2,22.6c0.2,0.4,0,0.9,0.1,1.3c0,0,0,0.1,0.1,0.1C3.4,23.6,3.5,23.1,3.2,22.6z"/>
	<path fill="#FFFFFF" d="M3.3,24.5c-0.2,0.4-0.2,0.9-0.2,1.4c0,0,0-0.1,0.1-0.1C3.4,25.4,3.2,24.9,3.3,24.5z"/>
	<path fill="#FFFFFF" d="M3.4,24.3c0,0.1-0.1,0.1-0.1,0.2c-0.2,0.4,0.1,0.9-0.1,1.3C3.5,25.3,3.4,24.8,3.4,24.3z"/>
	<path fill="#FFFFFF" d="M65.1,13.1c0-0.4,0-0.9,0-1.3c-0.2-0.6-0.1-1.3,0-1.9c0-0.1,0-0.2,0.1-0.3c0-0.6,0-1.2,0-1.8
		c-0.1,0-0.2,0-0.3,0c-0.1,1.3-1,2.6-0.4,4c0.3,0.6,0.2,1.2,0.1,1.8L65.1,13.1z"/>
	<path fill="#FFFFFF" d="M63.1,7.3c0-0.1-0.1-0.1-0.1-0.2C63,7.2,63.1,7.3,63.1,7.3z"/>
	<path fill="#FFFFFF" d="M57.1,3.1L57.1,3.1c1.1,0,2.3,0,3.4,0l0,0c0.4-0.3,0.9-0.3,1.3,0C62,3.6,62.3,4,62.6,4.4l0,0
		c0.1,0.4,0.2,0.9,0.3,1.3c0,0,0,0.1,0.1,0.1c0.2,0.5,0.2,1,0.2,1.5c0,0.5,0,1,0,1.6l0,0c0.4,1.3,0.4,2.6,0,3.9c0,0.1,0,0.2,0,0.3
		l0,0l0,0c0,1.4,0,2.8,0,4.2c0,0.1,0,0.2,0,0.3l0,0c0.5,2.1,0.1,4.2,0.3,6.3c0,0.1,0,0.2,0,0.3l0,0l0,0c0,1.5,0,3,0,4.5
		c-0.1,0.3-0.1,0.7,0,1l0,0c0.6,1.5,0.1,3,0.3,4.5c0.1,0.2,0.2,0.3,0.3,0.5l0,0v0c0.1-0.5,0.3-1,0.5-1.8c0.4,0.9,0.2,1.5,0.2,2.1
		c0,0.5-0.3,0.4-0.6,0.2c-0.6,0.5-1,1.1-1.8,1.1l0,0c0,0.1,0,0.2,0,0.3h0l0,0c0.4,0,0.9,0.1,1.3-0.2c0.8-0.8,1.2-0.3,1.6,0.4
		c0,0,0,0,0.1,0c0-3.5-0.3-7.1-0.5-10.6c0-3,0-6.1,0-9.1c0-0.5,0-1,0.3-1.4c0-0.5,0-1.1,0-1.6c-0.1,0-0.1,0-0.2-0.1
		c-1.1-1.8-0.9-4.8,0.3-6.1c-0.1-0.2-0.1-0.4-0.2-0.6l0,0c-0.4-1.1-0.4-2.3,0-3.4c0.1-0.3,0.2-0.6,0.3-0.9c0.4-2.2,0.1-2.6-2.1-2.2
		C60,1,57.2,0.5,54.4,1c-0.2,0-0.3,0.1-0.5,0.1c0.2,0.2,0.3,0.5,0.4,1.1c0.1,0.5,0,0.8-0.2,1C55.1,3.1,56.1,3.1,57.1,3.1L57.1,3.1z
		 M56.8,2.6c-0.7-0.1-1.4,0-2-0.3c-0.3-0.1-0.4-0.3-0.4-0.6c0-0.3,0.3-0.3,0.5-0.3c1.3-0.2,2.6-0.3,3.9-0.1c0.4,0,0.7,0.2,0.7,0.6
		c0,0.4-0.4,0.4-0.7,0.5C58.1,2.6,57.5,2.7,56.8,2.6z"/>
	<path fill="#FFFFFF" d="M63.4,23.8c-0.1-0.3-0.1-0.5-0.1-0.8C63.2,23.3,63.2,23.6,63.4,23.8z"/>
	<path fill="#FFFFFF" d="M61.6,4.6c0,0.1,0.1,0.2,0.1,0.2c0,0.1,0,0.2,0.1,0.2c0-0.1,0.1-0.3,0.2-0.4C61.9,4.6,61.8,4.6,61.6,4.6z"
		/>
	<path fill="#FFFFFF" d="M54.3,2.2c-0.1-0.6-0.2-0.9-0.4-1.1c-0.6,0.1-1.2,0.1-1.7,0.1c-0.7,0-1.5,0.2-2.1-0.4h-0.4
		c0.2,0.5,0.7,0.7,1.3,0.7c0.7,0,1.4-0.1,2.1-0.2c0.6-0.1,0.7,0.2,0.7,0.7c0.1,0.4,0.2,0.8-0.4,0.8c-0.2,0-0.5,0.2-0.7,0.2
		c0.5,0,1,0,1.5,0C54.3,3,54.4,2.7,54.3,2.2z"/>
	<path fill="#FFFFFF" d="M64.9,7.6c-1.2,1.3-1.4,4.3-0.3,6.1c0.1,0,0.1,0.1,0.2,0.1c0-0.1,0-0.1,0-0.2l0,0c0.1-0.6,0.1-1.2-0.1-1.8
		c-0.6-1.4,0.3-2.7,0.4-4h0C64.9,7.8,64.9,7.7,64.9,7.6z"/>
	<path fill="#FFFFFF" d="M61.2,3.9c-0.3-0.2-0.6-0.4-1.1-0.4c-1.1,0.1-2.2,0.2-3.4,0.1c-0.9-0.1-1.9-0.1-2.8-0.1c-0.3,0-0.7,0-1-0.1
		c-0.1,0-0.1,0-0.2,0.1c-0.1,0-0.3,0-0.4,0c-0.4,0-0.9,0-1.3,0c-1,0.2-2.1,0.1-3.2,0.1c-0.2,0-0.5,0.1-0.7,0.1c-0.1,0-0.3,0-0.4,0
		c-0.3,0-0.5-0.1-0.8-0.1c-0.3,0-0.5,0-0.8,0.1c-0.7,0.1-1.3,0.2-2,0.2c-1.1,0-2.3,0-3.4,0c-2.6,0.1-5.3,0-7.9,0
		c-2.9-0.1-5.8,0.2-8.6,0.4c-2.3,0.2-4.5,0.5-6.8,0.5c-0.5,0-1,0.1-1.5,0.2c-0.1,0-0.2,0-0.4,0.1c0,0-0.1,0-0.1,0
		c-0.1,0.4-0.6,0.4-1,0.5c-1.4,0-2.7,0-4.1,0c-0.9,0-1.8,0-2.6,0.4C5.7,6.4,5,7,5,8.2c0,2.7-0.4,5.4-0.2,8.1c0.2,2,0.1,4-0.1,6
		c-0.3,2.2,0.1,4.3,0.3,6.5c0.1,0.8,0.5,1.5,1,2c-0.1-0.4-0.1-0.8-0.2-1.3c-0.1-0.3-0.2-0.6-0.2-1.1c-0.6-3.9,0.1-7.8-0.1-11.7
		c-0.1-2.5,0.1-5,0-7.6c0-1.9,0.6-2.9,2.6-2.8c3.5,0.2,6.9-0.5,10.3-0.7c5.6-0.3,11.1-0.9,16.7-0.7c5.7,0.2,11.3-0.4,17-0.6
		c3.2-0.1,6.4-0.5,9.6,0.1C61.6,4.3,61.4,4.1,61.2,3.9z"/>
	<path fill="#FFFFFF" d="M46.9,3.6c-0.3,0-0.5,0-0.8,0.1c0.3,0,0.5,0,0.8,0.1c0.1,0,0.3,0,0.4,0c0.2-0.1,0.5-0.1,0.7-0.1
		C47.6,3.6,47.2,3.6,46.9,3.6z"/>
	<path fill="#FFFFFF" d="M14.9,5c0.5-0.1,1-0.2,1.5-0.2c2.3,0,4.5-0.2,6.8-0.5c-2.8,0.2-5.7,0.4-8.6,0.3c0.1,0,0.1,0,0.2-0.1
		c0,0-0.1,0-0.1,0c0,0-0.1,0-0.1,0.1c-0.1,0-0.2,0-0.3,0l0,0h0c0,0.2,0,0.3,0,0.5c0,0,0.1,0,0.1,0C14.6,5.1,14.7,5.1,14.9,5z"/>
	<path fill="#FFFFFF" d="M43.2,4c0.7,0,1.3-0.1,2-0.2C43.4,3.9,41.6,4,39.8,4C40.9,4,42.1,4,43.2,4z"/>
	<path fill="#FFFFFF" d="M52.4,3.4c-0.3,0-0.5,0-0.8,0l0,0c-0.2,0.1-0.3,0.1-0.5,0.1c0.4,0,0.9,0,1.3,0c0.1,0,0.3,0,0.4,0
		c0.1,0,0.1-0.1,0.2-0.1c0,0-0.1,0-0.1-0.1C52.7,3.3,52.5,3.4,52.4,3.4z"/>
	<path fill="#FFFFFF" d="M9.4,5.3c-0.9,0-1.8,0-2.7,0.2C5.5,5.8,4.8,6.1,4.5,6.8c0,0,0,0,0,0c0,0.6,0,1.1-0.1,1.7
		c0.2,1.6-0.1,3.1-0.1,4.6c0,0.9,0,1.7,0.2,2.6c0.1,0.4,0,0.7-0.1,1c0.1,1,0.1,2,0,3c-0.3,3.5-0.2,7,0.3,10.5
		c0.1,0.9,0.6,1.4,1.4,1.6c0-0.1,0-0.2,0-0.2c0-0.3,0-0.5-0.1-0.8c-0.6-0.5-1-1.2-1-2c-0.2-2.2-0.6-4.3-0.3-6.5c0.3-2,0.3-4,0.1-6
		C4.6,13.6,5,10.9,5,8.2C5,7,5.7,6.4,6.7,6c0.8-0.3,1.7-0.3,2.6-0.4c1.4,0,2.7,0,4.1,0c0.5,0,0.9,0,1-0.5C12.8,5.5,11.1,5.3,9.4,5.3
		z"/>
	<path fill="#FFFFFF" d="M14.4,4.7L14.4,4.7c-0.4,0.6-1.1,0.5-1.7,0.5C10.5,5.3,8.2,5.1,6,5.5C5.1,5.6,4.6,6,4.5,6.8
		c0.3-0.7,1-1,2.2-1.3c0.9-0.2,1.8-0.1,2.7-0.2c1.7-0.1,3.3,0.2,5-0.2C14.4,5,14.4,4.9,14.4,4.7z"/>
	<path fill="#FFFFFF" d="M4.5,15.8c-0.2-0.9-0.1-1.7-0.2-2.6c0-1.5,0.3-3.1,0.1-4.6c-0.1,2.2-0.2,4.4-0.1,6.6c0,0.5,0,1,0.1,1.6
		C4.5,16.5,4.6,16.2,4.5,15.8z"/>
	<path fill="#FFFFFF" d="M62.2,4.5c0.1,0,0.2,0,0.3,0C62.3,4,62,3.6,61.8,3.1c-0.4,0-0.9,0-1.3,0l0,0l0,0c-1.1,0-2.3,0-3.4,0l0,0
		c-1.3,0.4-2.6,0.2-3.9,0.2c-0.1,0-0.2,0-0.2,0.1c0.3,0.1,0.6,0.1,1,0.1c0.9,0,1.9,0,2.8,0.1c1.1,0.1,2.2,0,3.4-0.1
		c0.4,0,0.7,0.2,1.1,0.4c0.3,0.2,0.4,0.4,0.5,0.7c0.1,0,0.3,0,0.4,0.1C62.1,4.6,62.2,4.5,62.2,4.5z"/>
	<path fill="#FFFFFF" d="M52.9,3.3C52.9,3.4,52.9,3.4,52.9,3.3c0.2,0,0.2,0,0.3,0C53.1,3.3,53,3.3,52.9,3.3z"/>
	<path fill="#FFFFFF" d="M43.2,3.7c1.2,0,2.4-0.5,3.6-0.2c0,0,0,0,0.1,0c0,0,0-0.1,0-0.1h0c-0.3-0.3-0.7-0.3-1.1-0.3
		c-4.4,0.7-8.9,0.4-13.4,0.4c-1.6,0-3.2-0.1-4.8,0c-2.5,0.2-5.1,0.3-7.5,0.7c-1.7,0.3-3.5-0.1-5.2,0.4c2.9-0.1,5.8-0.3,8.7-0.6
		C30.1,3.5,36.6,3.9,43.2,3.7z"/>
	<path fill="#FFFFFF" d="M46,3.7c-0.3,0-0.5,0-0.8,0.1C45.5,3.8,45.8,3.7,46,3.7z"/>
	<path fill="#FFFFFF" d="M32,3.9c-2.8-0.1-5.6,0.2-8.4,0.4c-0.1,0-0.2,0-0.3,0C26.1,4.2,29,3.9,31.9,4c2.6,0,5.3,0.1,7.9,0
		C37.2,4,34.6,4,32,3.9z"/>
	<path fill="#FFFFFF" d="M23.2,4.4c0.1,0,0.2,0,0.3,0c2.8-0.2,5.6-0.5,8.4-0.4C34.6,4,37.2,4,39.8,4c1.8,0,3.6-0.1,5.4-0.2
		c0.3,0,0.5-0.1,0.8-0.1c0.3,0,0.5,0,0.8-0.1c0-0.1,0-0.1,0-0.2c0,0,0,0-0.1,0c-1.2-0.3-2.4,0.1-3.6,0.2c-6.5,0.2-13.1-0.2-19.6,0.4
		c-2.9,0.3-5.8,0.5-8.7,0.6c-0.1,0-0.1,0-0.2,0.1C17.5,4.8,20.4,4.6,23.2,4.4z"/>
	<polygon fill="#FFFFFF" points="38.5,1.5 38.5,1.5 38.5,1.5 	"/>
	<polygon fill="#FFFFFF" points="38.5,1.5 38.5,1.5 38.5,1.5 	"/>
	<path fill="#FFFFFF" d="M35.3,2c-2.2-0.2-4.4,0.2-6.6,0.3c0.2,0,0.4,0,0.6,0l0,0l0,0c1.7,0.2,3.3-0.3,5-0.3c0.4,0,0.8,0,1.1,0.2
		c0.1,0,0.1,0.1,0.2,0.1c0.5-0.3,1.2,0,1.6-0.5l0,0C36.6,2.1,35.9,2.1,35.3,2z"/>
	<path fill="#FFFFFF" d="M34.5,2.2c-0.1,0-0.1-0.1-0.2-0.1C34.4,2.1,34.4,2.1,34.5,2.2z"/>
	<path fill="#FFFFFF" d="M34.7,1.9c-2.3,0-4.6,0.2-7,0.4c-0.1,0-0.2,0-0.3,0c0.4,0,0.8,0,1.2,0c2.2-0.1,4.4-0.5,6.6-0.3
		c0.6,0.1,1.3,0.1,1.9-0.2c-0.1,0-0.2,0-0.2,0C36.2,1.9,35.4,1.9,34.7,1.9z"/>
	<path fill="#FFFFFF" d="M27.8,2.3c2.3-0.2,4.6-0.4,7-0.4c0.7,0,1.5,0.1,2.2-0.1c-0.8,0-1.7,0-2.5,0C32.2,1.9,30,2,27.8,2.3z"/>
	<path fill="#FFFFFF" d="M49.4,3.4c0.4,0,0.7,0,1.1,0c0.4,0,0.7,0,1.1-0.1c0.3-0.1,0.6-0.1,0.9-0.1c0,0,0-0.1,0-0.1
		c-1.1,0-2.2,0-3.3,0c-0.7,0-1.4-0.4-2,0.2c0.3,0,0.5,0,0.8,0C48.4,3.4,48.9,3.4,49.4,3.4z"/>
	<path fill="#FFFFFF" d="M51.6,3.4L51.6,3.4c0.3,0,0.5,0,0.8,0c0,0,0-0.1,0-0.1C52.1,3.2,51.8,3.2,51.6,3.4c-0.4,0-0.8,0-1.1,0
		C50.8,3.4,51.2,3.4,51.6,3.4L51.6,3.4z"/>
	<path fill="#FFFFFF" d="M48,3.4c0.5,0,1,0,1.4,0C48.9,3.4,48.4,3.4,48,3.4z"/>
	<path fill="#FFFFFF" d="M47,3.5c0.1,0,0.3,0,0.4-0.1c-0.1,0-0.2,0-0.3,0c-0.1,0-0.2,0-0.3,0l0,0C46.9,3.4,47,3.4,47,3.5z"/>
	<path fill="#FFFFFF" d="M48.7,3.5c-0.3,0-0.6,0-0.8,0.1c1.1,0,2.1,0.1,3.2-0.1c-0.2,0-0.5,0-0.7,0C49.8,3.5,49.3,3.5,48.7,3.5z"/>
	<path fill="#FFFFFF" d="M50.4,3.5c0.2,0,0.5,0,0.7,0c0.2,0,0.3-0.1,0.5-0.1C51.2,3.4,50.8,3.5,50.4,3.5z"/>
	<path fill="#FFFFFF" d="M47.4,3.4c-0.1,0-0.3,0-0.4,0.1c0,0.1,0,0.1-0.1,0.2c0.3,0,0.7,0,1,0c0.3,0,0.6-0.1,0.8-0.1
		C48.3,3.5,47.9,3.5,47.4,3.4z"/>
	<path fill="#FFFFFF" d="M46.9,3.5c0,0,0.1,0,0.1,0c0,0-0.1-0.1-0.1-0.1l0,0h0C46.9,3.4,46.9,3.5,46.9,3.5z"/>
	<path fill="#FFFFFF" d="M47,3.5c0,0-0.1,0-0.1,0c0,0.1,0,0.1,0,0.2C47,3.6,47,3.5,47,3.5z"/>
	<path fill="#FFFFFF" d="M50.5,3.4c-0.4,0-0.7,0-1.1,0C49.8,3.4,50.1,3.4,50.5,3.4z"/>
	<path fill="#FFFFFF" d="M48,3.4c-0.3,0-0.5,0-0.8,0c0.1,0,0.2,0,0.3,0C47.6,3.4,47.8,3.4,48,3.4z"/>
	<path fill="#FFFFFF" d="M48.7,3.5c0.5,0,1.1,0,1.6,0C49.8,3.5,49.3,3.5,48.7,3.5z"/>
	<path fill="#FFFFFF" d="M50.4,3.5c0.4,0,0.8-0.1,1.2-0.1l0,0c-0.4,0-0.8,0-1.1,0c-0.4,0-0.7,0-1.1,0c-0.5,0-1,0-1.4,0
		c-0.2,0-0.4,0-0.5,0c0.4,0.1,0.9,0.1,1.3,0.1C49.3,3.5,49.8,3.5,50.4,3.5z"/>
	<path fill="#FFFFFF" d="M52.5,3.2c0.1,0,0.2,0,0.2,0c0,0-0.1-0.1-0.1-0.1h0c-0.1,0-0.2,0-0.3,0C52.5,3.2,52.5,3.2,52.5,3.2z"/>
	<path fill="#FFFFFF" d="M57.1,3.1L57.1,3.1c-1,0-2,0-3,0c-0.1,0.1-0.2,0.1-0.3,0.1C54.9,3.3,56,3.3,57.1,3.1z"/>
	<path fill="#FFFFFF" d="M53.8,3.2c0.1,0,0.2-0.1,0.3-0.1c-0.5,0-1,0-1.5,0c0,0,0.1,0.1,0.1,0.1C53.1,3.2,53.5,3.2,53.8,3.2z"/>
	<path fill="#FFFFFF" d="M52.4,3.4c0.2,0,0.3,0,0.5,0c0,0-0.1-0.1-0.1-0.1c-0.1,0-0.2,0-0.2,0C52.5,3.3,52.5,3.3,52.4,3.4z"/>
	<path fill="#FFFFFF" d="M57.1,3.1c-1.1,0.2-2.2,0.1-3.3,0.1c-0.2,0-0.4,0.1-0.6,0.1C54.5,3.3,55.8,3.5,57.1,3.1z"/>
	<path fill="#FFFFFF" d="M52.9,3.3c0.1,0,0.2,0,0.3,0c0.2,0,0.4,0,0.6-0.1c-0.4,0-0.7,0-1.1,0C52.8,3.3,52.8,3.3,52.9,3.3z"/>
	<path fill="#FFFFFF" d="M52.4,3.2C52.5,3.2,52.5,3.2,52.4,3.2c0.1,0,0-0.1-0.1-0.1C52.4,3.2,52.4,3.2,52.4,3.2
		C52.4,3.2,52.4,3.2,52.4,3.2z"/>
	<path fill="#FFFFFF" d="M52.5,3.2C52.5,3.2,52.5,3.2,52.5,3.2c-0.1,0-0.1,0-0.1,0c0,0,0,0.1,0,0.1C52.5,3.3,52.5,3.3,52.5,3.2z"/>
	<path fill="#FFFFFF" d="M10.7,3.6c0.9,0.2,1.8,0.2,2.6-0.3l0,0C12.5,3.7,11.6,3.4,10.7,3.6z"/>
	<path fill="#FFFFFF" d="M10.7,3.6c0.9-0.2,1.8,0.1,2.6-0.3l0,0v0C12.5,3.4,11.6,3.2,10.7,3.6z"/>
	<path fill="#FFFFFF" d="M27.7,2.4c-0.4,0.1-0.9,0-1.2,0.2c1-0.1,2,0.2,2.9-0.3C28.8,2.5,28.2,2.5,27.7,2.4z"/>
	<path fill="#FFFFFF" d="M27.7,2.4c-0.1,0-0.1,0-0.2-0.1c-0.4,0-0.7,0-1,0.3h0C26.8,2.3,27.3,2.5,27.7,2.4z"/>
	<path fill="#FFFFFF" d="M28.7,2.3c-0.3,0-0.6,0-1,0c0,0,0,0-0.1,0c0.5,0.1,1.1,0.1,1.6-0.1l0,0C29.1,2.3,28.9,2.3,28.7,2.3z"/>
	<path fill="#FFFFFF" d="M27.8,2.4c0.3,0,0.6,0,1,0c-0.4,0-0.8,0-1.2,0C27.6,2.4,27.6,2.4,27.8,2.4C27.7,2.4,27.7,2.4,27.8,2.4z"/>
	<path fill="#FFFFFF" d="M21.8,3c-0.5-0.2-1-0.2-1.5,0c-0.1,0-0.1,0-0.2,0c0,0,0,0.1,0,0.1c0.7-0.2,1.6,0.4,2.3-0.2
		C22.3,3.1,22.1,3,21.8,3z"/>
	<path fill="#FFFFFF" d="M21.7,2.9L21.7,2.9L21.7,2.9c-0.4,0-0.9,0-1.3,0l0,0l0,0c-0.1,0-0.2,0-0.3,0c0,0,0,0.1,0,0.1
		c0.1,0,0.1,0,0.2,0c0.5-0.2,1-0.2,1.5,0c0.2,0.1,0.4,0.1,0.6,0c0,0,0.1,0,0.1-0.1C22.3,2.9,22,2.9,21.7,2.9z"/>
	<path fill="#FFFFFF" d="M20,3C20,3,20,3,20,3c-0.8,0.1-1.5-0.1-2.2,0.1l0,0c0.8,0.2,1.6,0.1,2.4,0C20.1,3.1,20,3,20,3z"/>
	<path fill="#FFFFFF" d="M20,3C20,3,20,3,20,3c0.1,0,0.1-0.1,0.2-0.1c-0.4,0-0.7,0-1.1,0c-0.1,0-0.1,0-0.2,0c-0.4,0-0.7,0.1-1,0.2
		C18.5,2.9,19.2,3.1,20,3z"/>
	<path fill="#FFFFFF" d="M18.9,2.9c0.1,0,0.1,0,0.2,0C19,2.9,18.9,2.9,18.9,2.9z"/>
	<path fill="#FFFFFF" d="M20,3c0,0,0,0.1,0.1,0.1c0,0,0-0.1,0-0.1C20.1,3,20.1,3,20,3z"/>
	<path fill="#FFFFFF" d="M20,3c0,0,0.1,0,0.1,0c0,0,0-0.1,0-0.1C20.1,2.9,20,2.9,20,3z"/>
	<path fill="#FFFFFF" d="M23.9,2.6c0,0-0.1,0-0.1,0c-0.2,0-0.4,0-0.6,0.1c-0.1,0.1-0.3,0.1-0.4,0.1c-0.1,0-0.2,0.1-0.2,0.1
		c0.9,0,1.7,0,2.6,0c-0.1,0-0.2-0.1-0.2-0.1c-0.1,0-0.3,0-0.4-0.1C24.3,2.6,24.1,2.6,23.9,2.6z"/>
	<path fill="#FFFFFF" d="M23.9,2.6c0.2,0,0.4,0,0.6,0.1c0.1,0.1,0.3,0,0.4,0.1c-0.1,0-0.2-0.1-0.3-0.1C24.4,2.6,24.1,2.6,23.9,2.6z"
		/>
	<path fill="#FFFFFF" d="M23,2.6c-0.1,0-0.2,0.1-0.2,0.1c0.1,0,0.3,0,0.4-0.1c0.2,0,0.4-0.1,0.6-0.1c-0.2,0-0.3,0-0.5,0
		C23.2,2.6,23.1,2.6,23,2.6z"/>
	<path fill="#FFFFFF" d="M23,2.6L23,2.6L23,2.6C23,2.6,23,2.6,23,2.6c0.1,0,0.1,0,0.2,0C23.2,2.6,23.1,2.6,23,2.6z"/>
	<path fill="#FFFFFF" d="M4.2,3.9c0.7,0.3,1.4,0.6,2.1,0C5.6,4.2,4.9,4.1,4.2,3.9z"/>
	<path fill="#FFFFFF" d="M4.2,3.9c0.7,0.2,1.4,0.3,2.1,0v0C5.6,3.9,4.9,3.9,4.2,3.9z"/>
	<polygon fill="#FFFFFF" points="0,15.4 0,15.4 0,15.4 	"/>
	<path fill="#FFFFFF" d="M8.9,3.6c0.5,0.3,1,0.3,1.6,0C10,3.8,9.4,3.8,8.9,3.6z"/>
	<path fill="#FFFFFF" d="M8.9,3.6c0.5,0.2,1,0.2,1.6,0l0,0C10,3.6,9.4,3.6,8.9,3.6z"/>
	<path fill="#FFFFFF" d="M37.9,1.7c-0.2,0-0.3,0.1-0.5,0.1c0.4,0,0.8,0.2,1-0.3c0,0,0,0,0,0C38.3,1.7,38.1,1.7,37.9,1.7z"/>
	<path fill="#FFFFFF" d="M38.5,1.5L38.5,1.5c-0.2,0-0.4,0.1-0.6,0.1C38.1,1.7,38.3,1.7,38.5,1.5z"/>
	<polygon fill="#FFFFFF" points="38.5,1.5 38.5,1.5 38.5,1.5 38.5,1.5 38.5,1.5 	"/>
	<polygon fill="#FFFFFF" points="38.5,1.5 38.5,1.5 38.5,1.5 	"/>
	<polygon fill="#FFFFFF" points="38.5,1.5 38.5,1.5 38.5,1.5 	"/>
	<path fill="#FFFFFF" d="M3.9,3.9C3.7,4.1,3.5,4.3,3.2,4.4C3.6,4.5,3.7,4.2,3.9,3.9z"/>
	<path fill="#FFFFFF" d="M3.2,4.4c0.3-0.1,0.5-0.4,0.8-0.5v0C3.6,4,3.3,4.1,3.2,4.4z"/>
	<path fill="#FFFFFF" d="M34.5,2.2c0.4,0.2,0.8,0.2,1.1,0.2c-0.1,0-0.1-0.1-0.2-0.1C35.1,2.1,34.8,2.3,34.5,2.2z"/>
	<path fill="#FFFFFF" d="M35.5,2.2c-0.4-0.2-0.8-0.2-1.1-0.2c0.1,0,0.1,0.1,0.2,0.1C34.8,2.3,35.1,2.1,35.5,2.2z"/>
	<path fill="#FFFFFF" d="M24.6,2.6c-0.1,0-0.1-0.1-0.2-0.1c0,0-0.1,0-0.1,0C24.4,2.5,24.5,2.6,24.6,2.6z"/>
	<path fill="#FFFFFF" d="M24,2.5c0.1,0,0.1,0,0.2,0c-0.3-0.1-0.6-0.1-0.9,0c0.1,0,0.1,0,0.2,0C23.7,2.4,23.9,2.4,24,2.5z"/>
	<path fill="#FFFFFF" d="M23.6,2.5c-0.1,0-0.1,0-0.2,0c-0.1,0-0.2,0.1-0.3,0.1C23.2,2.5,23.4,2.5,23.6,2.5z"/>
	<path fill="#FFFFFF" d="M24,2.5c0.1,0,0.2,0,0.3,0.1c0,0,0.1,0,0.1,0c-0.1,0-0.1,0-0.2-0.1C24.2,2.4,24.1,2.5,24,2.5z"/>
	<path fill="#FFFFFF" d="M23.8,2.6c0,0,0.1,0,0.1,0C23.9,2.6,23.8,2.6,23.8,2.6z"/>
	<path fill="#FFFFFF" d="M23.3,2.6c0.2,0,0.3,0,0.5,0c0,0,0.1,0,0.1,0c0.2,0,0.5,0,0.7,0c-0.1,0-0.2-0.1-0.3-0.1
		C24,2.5,23.6,2.6,23.3,2.6z"/>
	<path fill="#FFFFFF" d="M23.6,2.5c0.2,0,0.3,0,0.5,0C23.9,2.4,23.7,2.4,23.6,2.5z"/>
	<path fill="#FFFFFF" d="M23,2.6L23,2.6c0.1,0,0.2,0,0.2,0c0.4,0,0.7-0.1,1.1-0.1c-0.1,0-0.2,0-0.3-0.1c-0.2,0-0.3,0-0.5,0
		C23.4,2.5,23.2,2.5,23,2.6z"/>
	<path fill="#FFFFFF" d="M20.5,2.8C20.5,2.8,20.5,2.8,20.5,2.8C20.5,2.8,20.5,2.8,20.5,2.8C20.5,2.8,20.5,2.8,20.5,2.8z"/>
	<path fill="#FFFFFF" d="M21.7,2.9c-0.1,0-0.2-0.1-0.2-0.1c0,0,0,0-0.1,0C21.5,2.8,21.6,2.8,21.7,2.9z"/>
	<path fill="#FFFFFF" d="M21.1,2.7c0.1,0,0.2,0,0.2,0c-0.2,0-0.4,0-0.6,0c0.1,0,0.1,0,0.2,0C21,2.7,21,2.7,21.1,2.7z"/>
	<path fill="#FFFFFF" d="M20.9,2.7c-0.1,0-0.1,0-0.2,0c-0.1,0-0.1,0.1-0.2,0.1c0,0,0,0,0,0C20.7,2.8,20.8,2.7,20.9,2.7z"/>
	<path fill="#FFFFFF" d="M21.1,2.7c0.1,0,0.2,0,0.3,0c0,0,0,0,0.1,0c-0.1,0-0.1,0-0.2-0.1C21.3,2.7,21.2,2.7,21.1,2.7z"/>
	<path fill="#FFFFFF" d="M20.5,2.8c0,0-0.1,0-0.1,0l0,0c0.4,0,0.9,0,1.3,0l0,0c-0.1,0-0.2-0.1-0.3-0.1C21.1,2.8,20.8,2.8,20.5,2.8z"
		/>
	<path fill="#FFFFFF" d="M20.9,2.7c0.1,0,0.1,0,0.2,0C21,2.7,21,2.7,20.9,2.7z"/>
	<path fill="#FFFFFF" d="M20.5,2.8c0.3,0,0.6,0,0.9-0.1c-0.1,0-0.2,0-0.3,0c-0.1,0-0.1,0-0.2,0C20.8,2.7,20.7,2.8,20.5,2.8z"/>
	<path fill="#FFFFFF" d="M32.5,38.5c-0.2,0.1-0.4,0.1-0.6,0.1C32.1,38.6,32.3,38.6,32.5,38.5z"/>
	<path fill="#FFFFFF" d="M63.7,34.6c-0.3-0.1-0.4-0.3-0.4-0.6c-0.1-1.4,0.1-2.9-0.3-4.3c-0.2-0.5-0.2-1-0.1-1.5
		c0.2-1.3,0.1-2.7,0.1-4.1v-0.5c-0.1-2,0.2-4-0.2-6c0-0.2,0-0.3,0-0.5c0-1.3,0-2.6,0-3.9c0-0.1,0-0.3,0-0.4c0.3-1.3,0.3-2.6,0-3.9
		c0-0.5,0-1,0-1.5c0-0.5-0.1-1-0.3-1.5c-0.2-0.3-0.4-0.6-0.6-0.9c-0.1,0.4,0,0.8,0,1.2c0.2,1.9,0.5,3.8,0.3,5.7
		c-0.3,2.6-0.1,5.2,0,7.8c0.1,4.3,0,8.6,0.3,12.9c0.1,2-0.4,2.3-2.3,2.5c-2.6,0.2-5.2,0.5-7.8,0.7c-3.6,0.2-7.2,0.6-10.8,0.9
		c-3.2,0.2-6.3,0.4-9.5,0.7c-1.7,0.1-3.4,0.2-5.2,0c-0.1,0-0.2,0.1-0.3,0.1c-1.1,0-2.3,0-3.4,0.1c0.4,0.2,0.8,0.4,1.1,0.7
		c0.1-0.1,0.1-0.1,0.2-0.2c0.4-0.1,0.9-0.1,1.3-0.1c0.4,0,0.7,0,1.1,0c0.1,0,0.3,0.1,0.4,0.1c0.3,0.1,0.6,0.2,0.8,0.2
		c1.5,0,3,0,4.4,0l0,0c0.5,0,1,0,1.6,0h0c1.3-0.5,2.6-0.1,3.9-0.2c0.2,0,0.3,0,0.5,0l0,0c0.6-0.3,1.2-0.2,1.8-0.2v0l0,0
		c0.4,0,0.9,0,1.3,0l0,0c0.9-0.4,1.9-0.2,2.9-0.2c0.1,0,0.2,0,0.3,0c0,0,0,0,0,0c0.7-0.4,1.4-0.2,2.1-0.2c0.1,0,0.2,0,0.3,0
		c1-0.4,2.1-0.2,3.1-0.2c0.1,0,0.2,0,0.3,0c0.7-0.4,1.4-0.2,2.1-0.2c0.2,0,0.3,0,0.5,0h0c1.2-0.5,2.5-0.1,3.7-0.2l0,0
		c0.1,0,0.2,0,0.3,0l0,0c0.4-0.3,0.9-0.2,1.3-0.2v0l0,0c0.3,0,0.7,0,1,0c0.8-0.4,1.7-0.2,2.5-0.2c0,0,0,0,0,0c0.5-0.6,1-1.1,1.8-1.3
		c0.1,0,0.1,0,0.2-0.1c0,0,0-0.1,0-0.1C63.8,34.6,63.7,34.6,63.7,34.6z"/>
	<path fill="#FFFFFF" d="M28,38.5c-0.3-0.1-0.6-0.1-0.8-0.2c-0.1-0.1-0.3-0.1-0.4-0.1c-0.4-0.1-0.7,0-1.1,0c-0.4,0-0.9,0-1.3,0.1
		c-0.1,0-0.1,0.1-0.2,0.2c0,0,0,0,0.1,0c0,0,0,0.1,0,0.1c0,0,0.1,0,0.1,0c0.4-0.3,0.9-0.3,1.3,0l0,0c0.3,0,0.7,0,1,0l0,0v0
		C27.1,38.5,27.6,38.5,28,38.5z"/>
	<path fill="#FFFFFF" d="M24.2,38.4C24.2,38.3,24.2,38.3,24.2,38.4c-0.1,0-0.1,0-0.2,0.1C24.2,38.5,24.2,38.5,24.2,38.4
		C24.3,38.4,24.3,38.4,24.2,38.4z"/>
	<path fill="#FFFFFF" d="M62.1,36.1L62.1,36.1c0.9,0.1,1.3-0.6,1.8-1.1c0-0.1,0-0.2,0-0.3c-0.1,0-0.1,0-0.2,0.1
		c-0.7,0.2-1.3,0.7-1.8,1.3c0,0,0,0,0,0C62,36.1,62,36.1,62.1,36.1L62.1,36.1z"/>
	<path fill="#FFFFFF" d="M63.9,34.5c-0.1-0.2-0.2-0.3-0.3-0.5c-0.5-1.5-0.1-3-0.3-4.5l0,0v0c-0.1-0.3-0.2-0.7,0-1
		c-0.4-1.5-0.4-3,0-4.5l0,0c0-0.1,0-0.2,0-0.3c-0.1-0.2-0.1-0.5-0.1-0.8c-0.3-1.8,0-3.7-0.1-5.5l0,0l0,0c0-0.1,0-0.2,0-0.3
		c-0.4-1.4-0.4-2.8,0-4.2l0,0c0-0.1,0-0.2,0-0.3c0-1.3,0-2.6,0-3.9l0,0l0,0c0-0.5,0-1,0-1.6c0-0.1-0.1-0.1-0.1-0.2
		c-0.2-0.4-0.1-0.9-0.2-1.4c0,0,0,0.1,0.1,0.1c0,0,0-0.1-0.1-0.1c-0.1-0.4-0.2-0.9-0.3-1.3l0,0l0,0c-0.1,0.1-0.3,0.2-0.4,0.2
		c0,0-0.1,0-0.1,0c-0.1,0.1-0.2,0.3-0.2,0.4c0.1,0.3,0.4,0.6,0.6,0.9c0.2,0.5,0.3,1,0.3,1.5c0,0.5,0,1,0,1.5c0.3,1.3,0.3,2.6,0,3.9
		c0,0.1,0,0.3,0,0.4c0,1.3,0,2.6,0,3.9c0,0.2,0,0.3,0,0.5c0.4,2,0.2,4,0.2,6c0,0.2,0,0.3,0,0.5c0,1.4,0.1,2.7-0.1,4.1
		c-0.1,0.5-0.1,1,0.1,1.5c0.4,1.4,0.2,2.9,0.3,4.3c0,0.3,0.1,0.5,0.4,0.6C63.7,34.6,63.8,34.6,63.9,34.5
		C63.9,34.6,63.9,34.6,63.9,34.5L63.9,34.5z"/>
	<path fill="#FFFFFF" d="M62,4.6c0,0,0.1,0,0.1,0c0.1-0.1,0.3-0.1,0.4-0.2l0,0c-0.1,0-0.2,0-0.3,0C62.2,4.5,62.1,4.6,62,4.6z"/>
	<path fill="#FFFFFF" d="M23.1,40.1c0-0.1,0.1-0.1,0.1-0.2c-0.1,0-0.1,0-0.2,0C23,40,23,40,23.1,40.1C23.1,40.1,23.1,40.1,23.1,40.1
		z"/>
	<path fill="#FFFFFF" d="M13.9,39.2L13.9,39.2c-0.2,0.5-0.1,0.9,0.4,1.2c0.5,0.3,0.9,0.1,1.3-0.3c0.9-1.1,2.1-1.5,3.3-1.6
		c-0.4,0-0.8,0-1.2,0l0,0l0,0c-0.8,0.2-1.3,0.7-1.9,1.2C14.7,40.5,14.3,40.4,13.9,39.2C13.9,39.2,13.9,39.2,13.9,39.2L13.9,39.2z"/>
	<path fill="#FFFFFF" d="M21,38.5c1,0.1,1.7,0.7,2,1.4c0.1,0,0.1,0,0.2,0c0-0.1,0.1-0.1,0.1-0.2l0,0c-0.7-0.8-1.6-1.4-2.6-1.6
		c-0.3,0.1-0.7,0.2-1,0.2C20.1,38.4,20.6,38.5,21,38.5z"/>
	<path fill="#FFFFFF" d="M23.2,39.9c0.1,0,0.1,0,0.2,0c0-0.1,0-0.1,0-0.2l0,0l0,0C23.3,39.8,23.2,39.9,23.2,39.9z"/>
	<path fill="#FFFFFF" d="M22.8,40c0,0.1,0.1,0.2,0.1,0.3c0-0.1,0.1-0.2,0.1-0.3c0,0,0,0,0,0C23,40,23,40,23,39.9
		c-0.1,0-0.2,0-0.2-0.1C22.8,39.9,22.8,40,22.8,40z"/>
	<path fill="#FFFFFF" d="M14.2,40.6c0.5,0.3,0.9,0.1,1.3-0.2c-0.8,0.5-1.3,0.3-1.8-0.4C13.7,40.3,13.9,40.5,14.2,40.6z"/>
	<path fill="#FFFFFF" d="M19.1,38.6c-0.3,0-0.6,0.1-0.9,0.1C18.5,38.7,18.8,38.6,19.1,38.6z"/>
	<path fill="#FFFFFF" d="M15.5,40.4c0,0,0.1-0.1,0.1-0.1c0.2-0.2,0.3-0.4,0.5-0.6c0.6-0.5,1.3-0.8,2.1-1c0.3-0.1,0.6-0.1,0.9-0.1
		c1.6-0.1,3.1,0.3,3.6,1.2c0.1,0,0.2,0,0.2,0.1c-0.3-0.7-1-1.3-2-1.4c-0.4,0-0.9-0.1-1.3-0.1c-0.3,0-0.6,0-0.9,0
		c-1.2,0.1-2.3,0.5-3.3,1.6c-0.3,0.4-0.8,0.6-1.3,0.3c-0.5-0.3-0.6-0.7-0.4-1.2c-0.2,0.3-0.3,0.6-0.2,0.8
		C14.2,40.8,14.7,40.9,15.5,40.4z"/>
	<polygon fill="#FFFFFF" points="13.9,39.2 13.9,39.2 13.9,39.2 13.9,39.2 	"/>
	<polygon fill="#FFFFFF" points="13.9,39.2 13.9,39.2 13.9,39.2 	"/>
	<polygon fill="#FFFFFF" points="13.9,39.2 13.9,39.2 13.9,39.2 	"/>
	<path fill="#FFFFFF" d="M3.6,17.5c0,0.1,0,0.2,0,0.3C3.7,17.7,3.7,17.6,3.6,17.5z"/>
	<path fill="#FFFFFF" d="M3.4,17c0,0,0.1,0.1,0.1,0.1C3.5,17.1,3.5,17.1,3.4,17C3.4,17,3.4,17,3.4,17L3.4,17z"/>
	<path fill="#FFFFFF" d="M3.4,17C3.4,17,3.4,17,3.4,17C3.4,17,3.4,17,3.4,17C3.4,17,3.4,17,3.4,17C3.4,17,3.4,17,3.4,17z"/>
	<path fill="#FFFFFF" d="M3.5,17.2c0.1,0.1,0.1,0.2,0.1,0.3C3.6,17.4,3.6,17.3,3.5,17.2z"/>
	<path fill="#FFFFFF" d="M3.5,17.2c0.1,0.1,0.1,0.2,0.1,0.3c0,0.1,0,0.2,0,0.3c0-0.1,0-0.2,0-0.3C3.6,17.4,3.6,17.3,3.5,17.2
		c0,0-0.1-0.1-0.1-0.1c0,0.1,0,0.2,0,0.2c0,0.1,0.1,0.2,0.1,0.3c0,0.7,0.1,1.3,0.1,1.9c0,0,0.1,0,0.1,0c0.2,0,0.3-0.2,0.3-0.4
		c-0.2-0.7,0.3-1.6-0.5-2.2c0,0,0,0,0,0C3.5,17.1,3.5,17.1,3.5,17.2z"/>
	<path fill="#FFFFFF" d="M3.4,17.3c0,0.6,0,1.3,0,1.9c0,0.1,0,0.3,0.2,0.3c0-0.6-0.1-1.3-0.1-1.9C3.5,17.5,3.5,17.4,3.4,17.3z"/>
	<polygon fill="#FFFFFF" points="3.4,17 3.4,17 3.4,17 	"/>
	<path fill="#FFFFFF" d="M3.4,17C3.4,17,3.4,17,3.4,17C3.4,17,3.4,17,3.4,17C3.5,17,3.5,17,3.4,17C3.5,17,3.4,17,3.4,17
		C3.4,17,3.4,17,3.4,17z"/>
	<polygon fill="#FFFFFF" points="3.4,17 3.4,17 3.4,17 	"/>
	<path fill="#FFFFFF" d="M20.7,38.2c-1,0.1-2.1-0.2-3.1,0.2C18.6,38.1,19.7,38.5,20.7,38.2z"/>
	<path fill="#FFFFFF" d="M18.8,38.4c0.3,0,0.6,0,0.9,0c0.3,0,0.7-0.1,1-0.2c-1,0.3-2.1-0.1-3.1,0.2l0,0C18,38.4,18.4,38.4,18.8,38.4
		z"/>
	<path fill="#FFFFFF" d="M19.7,38.4c-0.3,0-0.6,0-0.9,0C19.1,38.5,19.4,38.5,19.7,38.4z"/>
	<path fill="#FFFFFF" d="M48.8,39.2c1.1-0.1,2.3,0.3,3.4,0.2c-0.5-0.2-1-0.4-1.4-0.5l0,0l0,0c-0.8,0-1.6,0-2.4,0c-0.3,0-0.5,0-0.8,0
		l0,0c-0.7,0.4-1.4,0.2-2.1,0.2c-0.3,0-0.5,0-0.8,0l0,0c-0.5,0.3-1,0.3-1.6,0c-0.4,0.1-0.9,0.2-1.3,0.3l0,0c-0.9,0.4-1.7,0.4-2.6,0
		c-0.2,0-0.3,0-0.5,0l0,0c-1.3,0.5-2.6,0.2-3.9,0.2c-0.6,0-1.2,0-1.9,0c-0.1,0-0.2,0.1-0.4,0.1c-0.7,0.1-1.4,0.2-2,0.3
		c-0.3,0.1-0.7,0.1-1,0.1c-0.2,0-0.4,0.1-0.6,0.2c-0.1,0-0.2,0.1-0.4,0.1c-0.1,0-0.2,0.1-0.2,0.1c3.2-0.4,6.5-0.7,9.8-0.7
		C41.7,40,45.3,39.7,48.8,39.2z"/>
	<path fill="#FFFFFF" d="M28.3,40.3L28.3,40.3L28.3,40.3c-0.4,0.1-0.9,0.2-1.3,0.3c-0.3,0.1-0.5,0.2-0.6,0.4c0.2,0,0.4,0,0.6,0
		c0.1,0,0.1,0,0.2-0.1c0.2-0.1,0.4-0.1,0.7-0.2c0.2,0,0.3,0,0.5-0.1c0.1,0,0.1-0.1,0.2-0.1c0.1,0,0.2-0.1,0.4-0.1
		c0.2-0.1,0.4-0.1,0.6-0.2C29.1,40.3,28.7,40.2,28.3,40.3z"/>
	<path fill="#FFFFFF" d="M33,39.8c-0.7,0.1-1.4,0.1-2.1,0.2l0,0c-0.1,0.1-0.2,0.1-0.3,0.1c0.7-0.1,1.4-0.2,2-0.3
		C32.7,39.9,32.9,39.8,33,39.8z"/>
	<path fill="#FFFFFF" d="M65.2,14.9c-0.1-0.1-0.1-0.2-0.1-0.3c0-0.3,0-0.5,0-0.8c-0.1,0-0.2,0-0.3,0c0.3,0.5,0.1,1.1,0.2,1.6
		c-0.5,3.5-0.2,7-0.2,10.5c0.1,1,0.1,2,0.2,3.1c0-0.7,0-1.5,0-2.2C65.1,22.8,65.1,18.8,65.2,14.9z"/>
	<path fill="#FFFFFF" d="M57.9,38.5c0.2-0.1,0.4-0.1,0.6-0.2C58.2,38.3,58,38.3,57.9,38.5z"/>
	<path fill="#FFFFFF" d="M65.6,36.8c-0.1-1.4-0.2-2.7-0.3-4.1c0,1.2,0.1,2.3,0,3.5c-0.1,0.1-0.2,0.2-0.3,0.3c0,0,0,0.1,0,0.1l0,0
		c0.3,1.3,0,1.8-1.3,1.8c-1.9,0.1-3.8,0-5.7,0c-0.3,0.1-0.6,0.2-0.9,0.2c-0.5,0-0.8,0.1-1.1,0.3c0.8-0.1,1.6-0.1,2.4,0
		c1.9-0.1,3.8,0,5.6-0.2C65.5,38.6,65.7,38.3,65.6,36.8z"/>
	<path fill="#FFFFFF" d="M64.7,24.2c0,0.6,0,1.1-0.3,1.6c0.2,3.5,0.5,7.1,0.5,10.6c0.1-0.1,0.2-0.2,0.3-0.3c0.1-1.2,0-2.3,0-3.5
		c-0.1-1.3-0.2-2.5-0.2-3.8c-0.1-1-0.2-2-0.2-3.1c0.1-3.5-0.3-7,0.2-10.5c0-0.5,0.1-1.1-0.2-1.6c-0.1,0-0.1,0-0.2,0
		c0,0.5,0,1.1,0,1.6C64.7,18.4,64.7,21.3,64.7,24.2z"/>
	<path fill="#FFFFFF" d="M64.7,13.8c0.1,0,0.1,0,0.2,0c-0.1-0.1-0.1-0.2-0.2-0.2v0l0,0C64.7,13.7,64.7,13.7,64.7,13.8z"/>
	<path fill="#FFFFFF" d="M64.9,36.5C64.1,37,62.8,37,62,36.5c0,0,0,0,0-0.1c-0.7,0.3-1.4,0.3-2.1,0.2c-0.1,0-0.2,0.1-0.3,0.1
		c-0.3,0.1-0.7,0.2-1.1,0.2c-0.5-0.1-1,0-1.4,0.1c-0.1,0-0.3,0-0.4,0c-0.1,0-0.2,0-0.3,0c-1.3,0.3-2.7,0-4,0.5
		c-0.7,0.2-1.5,0.3-1.8,1.1c0,0,0.1,0,0.1,0c1.5-0.4,2.6-0.2,3.4,0.6c0.3,0,0.6-0.1,1-0.1c0.1-0.4,0.4-0.7,1.1-0.9
		c0.5-0.1,0.9-0.2,1.4-0.4c0.7-0.3,1.4-0.1,2.1,0c1.9,0.3,3.6,0.1,5.2-1C64.8,36.7,64.9,36.7,64.9,36.5
		C64.9,36.6,64.9,36.6,64.9,36.5L64.9,36.5L64.9,36.5C64.9,36.6,64.9,36.6,64.9,36.5z"/>
	<path fill="#FFFFFF" d="M63.3,36.1c-0.3,0.3-0.8,0.2-1.3,0.2c0,0-0.1,0-0.1,0c0,0,0,0,0,0.1c0.8,0.5,2.1,0.5,2.9,0.1
		C64.5,35.9,64.1,35.3,63.3,36.1z"/>
	<path fill="#FFFFFF" d="M58.4,36.6c-0.5,0.3-1,0.3-1.6,0.3v0c-0.1,0.1-0.3,0.1-0.4,0.1c0.1,0,0.2,0,0.3,0c0.1,0,0.3,0,0.4,0
		c0.5-0.1,0.9-0.2,1.4-0.1c0.4,0.1,0.7-0.1,1.1-0.2c0.1,0,0.2-0.1,0.3-0.1C59.4,36.6,58.9,36.6,58.4,36.6z"/>
	<path fill="#FFFFFF" d="M53.1,39.3c0.3,0,0.7-0.1,1-0.1c-0.8-0.8-1.9-1-3.4-0.6c0,0-0.1,0-0.1,0c0,0,0,0.1-0.1,0.2
		c0.1,0.1,0.2,0.2,0.3,0.3l0,0c0.4,0.1,0.9,0.3,1.4,0.5c0.2,0,0.4-0.1,0.6-0.1C52.9,39.3,53,39.3,53.1,39.3z"/>
	<path fill="#FFFFFF" d="M64.8,36.8c-1.6,1.1-3.3,1.3-5.2,1c-0.7-0.1-1.4-0.3-2.1,0c-0.4,0.2-0.9,0.2-1.4,0.4
		c-0.7,0.2-1.1,0.5-1.1,0.9c0.3,0,0.6-0.1,0.8-0.1c0.2-0.2,0.6-0.3,1.1-0.3c0.3,0,0.6-0.2,0.9-0.2c0.2-0.1,0.4-0.1,0.6-0.2
		c1.5-0.3,3,0,4.4-0.1c1-0.1,2.1-0.1,2.1-1.6C64.9,36.7,64.8,36.7,64.8,36.8z"/>
	<path fill="#FFFFFF" d="M38.6,39.2c0.2,0,0.4,0,0.6,0c0.9,0.2,1.7,0.3,2.6,0c0.2,0,0.3-0.1,0.5-0.1c-1.7,0.1-3.5,0-5.2,0
		c0.2-0.1,0.4-0.2,0.6-0.4c-1.2-0.2-2.4,0.1-3.6,0.3c-0.4-0.1-0.8-0.1-1.2-0.1c0.2,0.1,0.5,0.2,0.4,0.5c0,0,0,0,0,0.1
		c0.5-0.1,1-0.2,1.5-0.3C36.1,39.4,37.3,39.4,38.6,39.2z M35.5,38.9c0,0,0.2,0,0.2,0c0,0,0,0.1,0.1,0.2c-0.1,0-0.2,0.1-0.2,0.1
		C35.4,39.1,35.4,39,35.5,38.9z"/>
	<path fill="#FFFFFF" d="M44.8,38.9c-0.2,0-0.5,0-0.7,0.1C44.4,38.9,44.6,38.9,44.8,38.9z"/>
	<path fill="#FFFFFF" d="M50.8,37.6c-0.1,0-0.2,0-0.2,0c-0.1,0-0.3,0-0.4,0c-1-0.1-1.9-0.1-2.9,0.2c-0.1,0-0.3,0-0.4,0
		c-0.7,0-1.4,0.1-2.1,0.2c-0.1,0-0.3,0-0.4,0c-0.9,0-1.7,0-2.6,0.2c1.6,0,3.1-0.3,4.7-0.3c1.1,0,2.2-0.2,3.3-0.1
		c-1.6,0.6-3.3,0.9-5,1c0.3,0,0.5,0,0.8,0c0.7,0,1.4-0.1,2-0.2c0.3,0,0.6,0,0.9,0c0.6,0,1.2,0,1.8,0C50.1,38,50.3,37.8,50.8,37.6z"
		/>
	<path fill="#FFFFFF" d="M29.9,40c0.1,0,0.2,0,0.3,0c0.2,0,0.5,0,0.7-0.1c0.8-0.1,1.5-0.3,2.3-0.4c0,0,0,0,0-0.1
		c0-0.3-0.2-0.4-0.4-0.5c-0.2,0-0.3,0-0.5-0.1c-0.4-0.1-0.9-0.1-1.3-0.1c-0.7,0.1-1.4,0-2.1,0c-0.3,0-0.5,0-0.8,0c-0.3,0-0.7,0-1,0
		c-0.2,0-0.4,0-0.5,0c1.9,0.7,4.1-0.2,6.2,0.6c-1.6,0.5-3.2,0.2-4.6,0.7c0.2,0,0.5,0,0.7,0C29.3,40,29.6,40,29.9,40z"/>
	<path fill="#FFFFFF" d="M37.6,38.7c0.1-0.1,0.2-0.1,0.3-0.2c-1.3,0-2.6,0-3.9,0l0,0l0,0c-0.5,0-1,0-1.6,0l0,0h0l0,0
		c-0.2,0.1-0.4,0.1-0.6,0.1c0,0,0,0-0.1,0c0.3,0,0.6,0.1,0.9,0.2c0.1,0,0.1,0,0.2,0.1c0.4,0.1,0.8,0.1,1.2,0.1
		C35.2,38.8,36.4,38.5,37.6,38.7z"/>
	<path fill="#FFFFFF" d="M41.8,38.3c0.8-0.2,1.7-0.2,2.6-0.2c0.1,0,0.3,0,0.4,0c0.7-0.1,1.4-0.2,2.1-0.2c0.1,0,0.3,0,0.4,0
		c1-0.2,1.9-0.2,2.9-0.2c0.1,0,0.3,0,0.4,0c0.1,0,0.2,0,0.2,0c0,0,0.1,0,0.1,0c1.3-0.5,2.7-0.6,4.1-0.6c-0.6,0-1.3,0-1.9,0l0,0l0,0
		c-0.2,0-0.3,0-0.5,0c-0.7,0.3-1.4,0.3-2.1,0.2c-0.1,0-0.2,0-0.3,0c-1,0.5-2.1,0.2-3.1,0.2c-0.1,0-0.2,0-0.3,0
		c-0.7,0.4-1.4,0.2-2.1,0.2c0,0,0,0,0,0c0,0,0,0,0,0c-0.1,0-0.2,0-0.3,0c-0.9,0.5-1.9,0.2-2.9,0.2l0,0l0,0c-0.4,0-0.9,0-1.3,0l0,0
		c0,0.1,0,0.2,0,0.2C40.8,38.3,41.3,38.3,41.8,38.3z"/>
	<path fill="#FFFFFF" d="M56.2,36.9c-0.3,0-0.7,0-1,0C55.5,36.9,55.8,36.9,56.2,36.9z"/>
	<path fill="#FFFFFF" d="M27.2,38.7c0.3,0.1,0.6,0,1,0c0.3,0,0.5,0,0.8,0C28.4,38.7,27.8,38.7,27.2,38.7z"/>
	<path fill="#FFFFFF" d="M31.8,38.6c-0.3,0-0.5,0.1-0.8,0.1c0.4,0,0.9,0,1.3,0.1c0.2,0,0.3,0.1,0.5,0.1c-0.1,0-0.1,0-0.2-0.1
		C32.4,38.7,32.1,38.6,31.8,38.6z"/>
	<path fill="#FFFFFF" d="M33,39.8c0.6,0,1.2-0.1,1.9,0c1.3-0.5,2.6-0.1,3.9-0.2l0,0l0,0c0.2,0,0.3,0,0.5,0c0.9,0,1.7,0,2.6,0l0,0
		l0,0c0.4-0.1,0.9-0.2,1.3-0.3c0.5,0,1,0,1.6,0l0,0l0,0c0.3,0,0.5,0,0.8,0c0.7-0.4,1.4-0.2,2.1-0.2l0,0l0,0c0.3,0,0.5,0,0.8,0
		c0.6-0.3,1.3-0.2,2-0.2c0,0,0,0-0.1-0.1c0,0,0-0.1,0-0.1c-0.6,0-1.2,0-1.8,0c-0.3,0-0.6,0-0.9,0c-0.7,0.1-1.3,0.2-2,0.2
		c-0.3,0-0.5,0-0.8,0c0,0,0,0,0,0c-0.2,0-0.5,0.1-0.7,0.1c-0.6,0-1.2,0.1-1.8,0.1c-0.2,0-0.3,0.1-0.5,0.1c-0.9,0.3-1.7,0.2-2.6,0
		c-0.2,0-0.4,0-0.6,0c-1.3,0.3-2.5,0.3-3.8,0c-0.5,0.1-1,0.1-1.5,0.3C33.2,39.6,33.1,39.7,33,39.8z"/>
	<path fill="#FFFFFF" d="M29,40c0.3,0,0.6,0,0.9,0C29.6,40,29.3,40,29,40z"/>
	<path fill="#FFFFFF" d="M33,39.8c0.2-0.1,0.3-0.2,0.3-0.3c-0.8,0.2-1.5,0.4-2.3,0.4C30.7,40,30.5,40,30.3,40c0.2,0,0.4,0,0.6,0l0,0
		l0,0C31.6,39.9,32.3,39.8,33,39.8z"/>
	<path fill="#FFFFFF" d="M52.6,37.3c-0.6,0-1.2,0.2-1.8,0.3c-0.5,0.2-0.7,0.5-0.5,1c0.1,0,0.2,0,0.3,0c0.3-0.8,1.1-0.8,1.8-1.1
		c1.3-0.4,2.7-0.2,4-0.5c-1,0-2.1,0-3.1,0.2C53.1,37.3,52.9,37.3,52.6,37.3z"/>
	<path fill="#FFFFFF" d="M56.8,36.9c-0.2,0-0.4,0-0.7,0c-0.3,0-0.7,0-1,0c0,0-0.1,0-0.1,0c-1.4,0-2.8,0.1-4.1,0.6c0,0-0.1,0-0.1,0
		c0.6-0.1,1.2-0.3,1.8-0.3c0.2,0,0.4,0,0.6,0c1-0.2,2.1-0.2,3.1-0.2C56.5,37,56.7,36.9,56.8,36.9L56.8,36.9z"/>
	<path fill="#FFFFFF" d="M50.3,38.7C50.4,38.7,50.4,38.7,50.3,38.7c0.1,0.1,0.2,0.1,0.2,0.1c0-0.1,0-0.1,0.1-0.2
		C50.5,38.6,50.4,38.6,50.3,38.7C50.3,38.6,50.3,38.6,50.3,38.7z"/>
	<path fill="#FFFFFF" d="M27.1,38.7c-0.1,0-0.3-0.1-0.4-0.2c0,0.1,0,0.2,0,0.2h0l0,0C26.8,38.7,27,38.7,27.1,38.7z"/>
	<path fill="#FFFFFF" d="M31.9,38.6c0.2,0,0.4-0.1,0.6-0.1l0,0c-1.5,0-3,0-4.4,0c1,0.2,1.9,0.1,2.9,0.1c0,0,0,0,0,0
		C31.3,38.6,31.6,38.6,31.9,38.6z"/>
	<path fill="#FFFFFF" d="M30.9,38.6c-1,0-2,0.1-2.9-0.1c-0.4,0-0.9,0-1.3,0v0c0.1,0.1,0.2,0.1,0.4,0.2
		C28.4,38.5,29.7,38.7,30.9,38.6z"/>
	<path fill="#FFFFFF" d="M27.1,38.7c-0.1,0-0.2,0-0.4,0.1l0,0c0.2,0,0.4,0,0.5,0C27.2,38.7,27.1,38.7,27.1,38.7z"/>
	<path fill="#FFFFFF" d="M29,38.7c0.7,0,1.4,0,2.1,0C30.4,38.7,29.7,38.7,29,38.7z"/>
	<path fill="#FFFFFF" d="M31.8,38.6C31.8,38.6,31.9,38.6,31.8,38.6c-0.2,0-0.6,0-0.9,0c0,0,0,0,0,0c0,0,0.1,0,0.1,0
		C31.3,38.6,31.6,38.6,31.8,38.6z"/>
	<polygon fill="#FFFFFF" points="32.5,38.5 32.5,38.5 32.5,38.5 	"/>
	<path fill="#FFFFFF" d="M31,38.6C31,38.6,31,38.6,31,38.6c-1.4,0.1-2.7-0.1-4,0.1c0.1,0,0.1,0,0.2,0c0.6,0,1.1,0,1.7,0
		c0.7,0,1.4,0,2.1,0c0.3,0,0.5-0.1,0.8-0.1C31.6,38.6,31.3,38.6,31,38.6z"/>
	<path fill="#FFFFFF" d="M28.3,40c0,0.1,0,0.2,0,0.2c0.1-0.1,0.2-0.1,0.4-0.2C28.5,40.1,28.4,40.1,28.3,40z"/>
	<path fill="#FFFFFF" d="M30.6,40.2c-0.3,0-0.7,0.1-1,0.1l0,0C29.9,40.3,30.2,40.3,30.6,40.2z"/>
	<path fill="#FFFFFF" d="M29.5,40.3L29.5,40.3c0.3,0,0.7-0.1,1-0.1c0.1,0,0.2-0.1,0.3-0.1c-0.8,0.2-1.5,0.2-2.3,0.1
		c-0.1,0-0.3,0.1-0.4,0.2v0C28.7,40.2,29.1,40.3,29.5,40.3z"/>
	<path fill="#FFFFFF" d="M29,40c-0.2,0-0.5,0-0.7,0c0.1,0,0.2,0.1,0.4,0.1C28.8,40.1,28.9,40,29,40z"/>
	<path fill="#FFFFFF" d="M30.3,40c-0.1,0-0.2,0-0.3,0C30.1,40,30.2,40,30.3,40z"/>
	<path fill="#FFFFFF" d="M30.3,40c-0.1,0-0.2,0-0.3,0c-0.3,0-0.6,0-0.9,0c-0.1,0-0.2,0-0.4,0.1c0.8,0.1,1.5,0.1,2.3-0.1l0,0
		C30.7,40,30.5,40,30.3,40z"/>
	<path fill="#FFFFFF" d="M24.4,38.5c0.4,0,0.9,0,1.3,0l0,0C25.2,38.2,24.8,38.2,24.4,38.5z"/>
	<path fill="#FFFFFF" d="M24.4,38.5c0.4-0.2,0.9-0.2,1.3,0C25.2,38.2,24.8,38.2,24.4,38.5z"/>
	<path fill="#FFFFFF" d="M62.8,0.6c2.2-0.4,2.5,0,2.1,2.2c-0.1,0.3-0.2,0.6-0.3,0.9c0,1.1,0,2.3,0,3.4l0,0l0,0
		c0.1,0.2,0.1,0.4,0.2,0.6c0,0,0.1-0.1,0.1-0.1c0,0,0,0,0.1,0c0-0.1,0-0.2,0-0.3c-0.2-0.2-0.2-0.6-0.3-1.4c-0.2-1.5,0.5-2.7,0.6-4.1
		c0.2-1.1-0.1-1.6-1.1-1.5c-2.9,0.4-5.7,0-8.6,0.4c-1.4,0.2-2.8,0.2-4.1,0.3c-0.1,0-0.3,0-0.4,0c0.5,0.1,1,0,1.6-0.1
		c0.7-0.1,1-0.1,1.2,0.1c0.2,0,0.3,0,0.5-0.1C57.2,0.5,60,1,62.8,0.6z"/>
	<path fill="#FFFFFF" d="M52.7,1C52.2,1,51.6,1.2,51.1,1c-0.3,0-0.5,0-0.8-0.2h-0.1c-0.1,0-0.1,0-0.2,0h-0.1
		c0.6,0.7,1.4,0.5,2.1,0.4c0.6,0,1.2-0.1,1.7-0.1C53.7,0.9,53.4,0.9,52.7,1z"/>
	<path fill="#FFFFFF" d="M65.1,7.5C65,7.5,65,7.5,65.1,7.5c-0.1,0.1-0.2,0.1-0.2,0.1c0,0.1,0,0.1,0.1,0.2h0v0
		C65,7.7,65,7.6,65.1,7.5z"/>
	<path fill="#FFFFFF" d="M65.3,7c-0.1-0.2-0.1-0.5-0.2-0.8C65,5.4,65,4.6,65.2,3.8c-0.4,1-0.4,2-0.2,3c0,0.1,0,0.2,0,0.3
		c0.1,0.1,0.1,0.1,0.2,0.2C65.3,7.2,65.3,7.1,65.3,7z"/>
	<path fill="#FFFFFF" d="M54.5,0.5c1.6-0.2,3.3-0.2,4.9-0.2c1.5,0,3-0.3,4.5-0.3c1.5,0,1.9,0.5,1.6,1.9c0,0.2-0.1,0.4-0.1,0.7
		c0.1-0.3,0.1-0.6,0.2-0.8c0.3-1.4,0-1.9-1.4-1.9c-1.3,0-2.7,0.3-4,0.2c-2.7-0.1-5.5,0.4-8.2,0.5C52.8,0.8,53.7,0.6,54.5,0.5z"/>
	<path fill="#FFFFFF" d="M64,0.1c-1.5-0.1-3,0.3-4.5,0.3c-1.6-0.1-3.3,0-4.9,0.2c-0.8,0.1-1.7,0.3-2.5,0.2c-0.3,0-0.7,0-1,0
		c-0.1,0-0.2,0.1-0.3,0.1h0C50.8,0.9,51,1,51.1,1c0.1,0,0.3,0,0.4,0c1.4-0.1,2.8-0.2,4.1-0.3c2.9-0.4,5.7,0,8.6-0.4
		c1.1-0.2,1.3,0.4,1.1,1.5c-0.2,1.4-0.8,2.6-0.6,4.1c0.1,0.8,0.1,1.2,0.3,1.4c0-0.1,0-0.2,0-0.3c-0.3-1-0.2-2,0.2-3
		c0.1-0.4,0.2-0.7,0.2-1.1c0-0.2,0.1-0.4,0.1-0.7C65.8,0.7,65.4,0.2,64,0.1z"/>
	<path fill="#FFFFFF" d="M58.7,2.4c0.3-0.1,0.7-0.1,0.7-0.5c0-0.4-0.3-0.6-0.7-0.6c-1.3-0.1-2.6-0.1-3.9,0.1c-0.2,0-0.5,0.1-0.5,0.3
		c0,0.3,0.1,0.5,0.4,0.6c0.7,0.3,1.4,0.2,2,0.3C57.5,2.7,58.1,2.6,58.7,2.4z"/>
	<path fill="#FFFFFF" d="M64.5,18.6c0-1.1-0.1-2.2,0.1-3.2c-0.3,0.4-0.3,0.9-0.3,1.4c0,3,0,6.1,0,9.1C64.7,23.5,64.5,21.1,64.5,18.6
		z"/>
	<path fill="#FFFFFF" d="M64.7,24.2c0-2.9,0-5.9,0-8.8c-0.3,1.1-0.1,2.1-0.1,3.2c-0.1,2.4,0.2,4.8-0.1,7.3
		C64.7,25.4,64.7,24.8,64.7,24.2z"/>
	<path fill="#FFFFFF" d="M63.1,17.5c0.3,1.6,0,3.2,0.1,4.8c0,0.3,0,0.5,0,0.8c0,0.3,0.1,0.5,0.1,0.8C63.2,21.7,63.6,19.6,63.1,17.5z
		"/>
	<path fill="#FFFFFF" d="M63.2,22.3c-0.1-1.6,0.1-3.2-0.1-4.8l0,0c0.1,1.8-0.2,3.7,0.1,5.5C63.2,22.8,63.2,22.5,63.2,22.3z"/>
	<path fill="#FFFFFF" d="M64.1,34.5c-0.1,0-0.1,0-0.2,0c0,0,0,0.1,0,0.1C64,34.6,64.1,34.6,64.1,34.5z"/>
	<path fill="#FFFFFF" d="M64.5,34.8c0-0.6,0.2-1.3-0.2-2.1c-0.2,0.8-0.3,1.3-0.5,1.8v0c0,0,0,0,0,0.1c0.1,0,0.1,0,0.2,0
		c0,0.1-0.1,0.1-0.1,0.1c0,0.1,0,0.2-0.1,0.4C64.2,35.3,64.5,35.3,64.5,34.8z"/>
	<path fill="#FFFFFF" d="M63.9,34.6C63.9,34.6,63.9,34.6,63.9,34.6c0,0.1,0,0.1,0,0.1C63.9,34.7,63.9,34.7,63.9,34.6
		C64,34.7,63.9,34.6,63.9,34.6z"/>
	<path fill="#FFFFFF" d="M63.9,34.5C63.9,34.6,63.9,34.6,63.9,34.5C63.9,34.6,63.9,34.6,63.9,34.5C63.9,34.6,63.9,34.6,63.9,34.5z"
		/>
	<path fill="#FFFFFF" d="M64,34.7C63.9,34.7,63.9,34.7,64,34.7c-0.1,0.2-0.1,0.3-0.1,0.4C64,34.9,64,34.8,64,34.7z"/>
	<path fill="#FFFFFF" d="M63.4,29.6c0.4,1.5-0.1,3,0.3,4.5C63.5,32.5,63.9,31,63.4,29.6z"/>
	<path fill="#FFFFFF" d="M63.4,29.6L63.4,29.6c0.1,1.5-0.2,3,0.3,4.5C63.3,32.5,63.7,31,63.4,29.6z"/>
	<path fill="#FFFFFF" d="M63.4,24.1c-0.2,1.5-0.2,3,0,4.5C63.4,27,63.4,25.5,63.4,24.1L63.4,24.1z"/>
	<path fill="#FFFFFF" d="M63.4,24.1c-0.4,1.5-0.4,3,0,4.5C63.1,27,63.1,25.5,63.4,24.1z"/>
	<path fill="#FFFFFF" d="M63.1,13.1c-0.2,1.4-0.2,2.8,0,4.2C63.1,15.9,63.1,14.5,63.1,13.1L63.1,13.1z"/>
	<path fill="#FFFFFF" d="M63.1,13.1c-0.4,1.4-0.4,2.8,0,4.2C62.9,15.9,62.9,14.5,63.1,13.1z"/>
	<path fill="#FFFFFF" d="M63.1,8.9c0.2,1.3,0.2,2.6,0,3.9C63.5,11.5,63.5,10.2,63.1,8.9z"/>
	<path fill="#FFFFFF" d="M63.1,8.9L63.1,8.9c0,1.3,0,2.6,0,3.9C63.3,11.5,63.3,10.2,63.1,8.9z"/>
	<path fill="#FFFFFF" d="M64.7,3.6c-0.4,1.1-0.4,2.3,0,3.4C64.5,5.9,64.5,4.8,64.7,3.6z"/>
	<path fill="#FFFFFF" d="M64.7,3.6c-0.2,1.1-0.2,2.3,0,3.4l0,0C64.7,5.9,64.7,4.8,64.7,3.6z"/>
	<path fill="#FFFFFF" d="M61.9,36.4c0,0,0-0.1,0-0.1c-0.1,0.1-0.2,0.1-0.2,0.1c0,0,0.1,0,0.1,0C61.8,36.4,61.9,36.4,61.9,36.4z"/>
	<path fill="#FFFFFF" d="M61.9,36.4c0,0,0.1,0,0.1,0c0-0.1,0-0.2,0-0.3c0,0-0.1,0.1-0.1,0.1C61.9,36.3,61.9,36.3,61.9,36.4z"/>
	<path fill="#FFFFFF" d="M61.7,36.4c0.1,0,0.2-0.1,0.2-0.1c0,0,0-0.1,0-0.1c-0.8,0-1.7-0.1-2.5,0.2c0.5,0,0.9,0,1.4,0
		C61.1,36.3,61.4,36.3,61.7,36.4z"/>
	<path fill="#FFFFFF" d="M62.1,36.1L62.1,36.1c0,0-0.1,0-0.1,0c0,0,0,0.1,0,0.1C62,36.2,62,36.2,62.1,36.1z"/>
	<path fill="#FFFFFF" d="M61.8,36.4C61.7,36.4,61.7,36.4,61.8,36.4C61.7,36.4,61.7,36.4,61.8,36.4C61.7,36.4,61.7,36.4,61.8,36.4z"
		/>
	<path fill="#FFFFFF" d="M61.7,36.4c-0.3,0-0.6,0-0.9,0C61.1,36.4,61.4,36.4,61.7,36.4C61.7,36.4,61.7,36.4,61.7,36.4z"/>
	<path fill="#FFFFFF" d="M62.9,5.9c0.2,0.4,0,0.9,0.1,1.3c0,0.1,0.1,0.1,0.1,0.2C63.1,6.8,63.1,6.3,62.9,5.9z"/>
	<path fill="#FFFFFF" d="M62.9,5.9c0,0,0-0.1-0.1-0.1c0,0.5,0,1,0.2,1.4C62.9,6.7,63.1,6.3,62.9,5.9z"/>
	<path fill="#FFFFFF" d="M60.5,3.1c0.4-0.2,0.9-0.2,1.3,0C61.4,2.8,60.9,2.8,60.5,3.1z"/>
	<path fill="#FFFFFF" d="M60.5,3.1L60.5,3.1c0.4,0,0.9,0,1.3,0C61.4,2.9,60.9,2.9,60.5,3.1z"/>
	<path fill="#FFFFFF" d="M47.4,38.4c0.3,0,0.5-0.1,0.6-0.1C47.8,38.3,47.6,38.4,47.4,38.4z"/>
	<path fill="#FFFFFF" d="M40.5,38.7C40.4,38.7,40.4,38.6,40.5,38.7c-0.1,0-0.2,0-0.2,0C40.3,38.7,40.4,38.7,40.5,38.7z"/>
	<path fill="#FFFFFF" d="M40.2,38.7c0.1,0,0.1,0,0.2,0c-0.1-0.1-0.2-0.2-0.2-0.3c0,0,0-0.1,0-0.1c-0.6,0-1.2,0-1.7,0l0,0l0,0
		c-0.2,0-0.3,0-0.5,0c0,0.1,0,0.1,0,0.2C38.7,38.6,39.5,38.7,40.2,38.7z"/>
	<path fill="#FFFFFF" d="M46.5,38c-1.6,0-3.1,0.3-4.7,0.3c-0.1,0-0.1,0-0.2,0c-0.4,0-0.8,0.1-1.2,0.3c0,0,0,0,0,0c0,0,0,0,0,0
		c0.6,0,1.1-0.1,1.7-0.1c1.6-0.2,3.4-0.2,5-0.2c0.1,0,0.1,0,0.2,0c0.2,0,0.4,0,0.6-0.1c-0.1,0-0.3,0.1-0.6,0.1c-1,0.1-2.1,0-3.1,0.2
		c-1,0.1-2-0.3-3,0.2c-0.3,0.1-0.6,0.1-0.8-0.1c-0.1,0-0.2,0-0.2,0c-0.6,0.1-1.2,0-1.7,0c-0.2,0-0.4,0-0.7,0c-0.1,0-0.1,0-0.2,0
		c-0.2,0.1-0.4,0.2-0.6,0.4c1.7,0,3.5,0,5.2,0c0.3-0.1,0.5-0.2,0.8-0.1c0.3,0,0.7,0.1,1,0.1c0.2,0,0.5,0,0.7-0.1c0,0,0,0,0,0
		c0,0,0,0,0,0c1.7-0.2,3.4-0.5,5-1C48.7,37.8,47.6,37.9,46.5,38z"/>
	<path fill="#FFFFFF" d="M41.2,38.8c1-0.5,2-0.1,3-0.2c1.1-0.2,2.2-0.1,3.1-0.2c-0.1,0-0.1,0-0.2,0c-1.7-0.1-3.4,0-5,0.2
		c-0.6,0.1-1.1,0.1-1.7,0.1C40.7,38.9,41,38.9,41.2,38.8z"/>
	<path fill="#FFFFFF" d="M41.7,38.3c0.1,0,0.1,0,0.2,0c-0.5,0-1,0-1.5-0.1c0,0-0.1,0-0.1,0c0,0,0,0.1,0,0.1c0,0.1,0.1,0.3,0.2,0.3
		c0,0,0,0,0,0C40.8,38.4,41.2,38.3,41.7,38.3z"/>
	<path fill="#FFFFFF" d="M38.5,38.7c0.6-0.1,1.2,0.1,1.7,0c-0.8,0-1.5-0.1-2.3-0.3c0,0,0,0,0,0c-0.1,0.1-0.2,0.1-0.3,0.2
		c0.1,0,0.1,0,0.2,0C38.1,38.7,38.3,38.7,38.5,38.7z"/>
	<path fill="#FFFFFF" d="M43.1,38.9c-0.3,0-0.6,0.1-0.8,0.1c0.6,0,1.2,0,1.8-0.1C43.8,38.9,43.5,38.9,43.1,38.9z"/>
	<path fill="#FFFFFF" d="M44.8,38.9C44.8,38.9,44.8,38.9,44.8,38.9C44.8,38.9,44.8,38.9,44.8,38.9C44.8,38.9,44.8,38.9,44.8,38.9z"
		/>
	<path fill="#FFFFFF" d="M37.6,38.3c0.1,0,0.2,0.1,0.3,0.1c-0.1-0.1-0.1-0.1,0.1-0.2c-1.3,0.1-2.7-0.2-3.9,0.2
		C35.2,38.2,36.4,38.4,37.6,38.3z"/>
	<path fill="#FFFFFF" d="M38,38.5C37.9,38.4,37.9,38.4,38,38.5c-0.2-0.1-0.3-0.1-0.4-0.1c-1.2,0.1-2.4-0.2-3.5,0.1l0,0
		C35.3,38.5,36.7,38.5,38,38.5z"/>
	<path fill="#FFFFFF" d="M37.9,38.4C37.9,38.4,37.9,38.4,37.9,38.4c0.1,0,0.1-0.1,0.1-0.2C37.8,38.3,37.8,38.3,37.9,38.4z"/>
	<path fill="#FFFFFF" d="M37.9,38.4C37.9,38.4,37.9,38.4,37.9,38.4C38,38.4,38,38.4,37.9,38.4C37.9,38.4,37.9,38.4,37.9,38.4z"/>
	<polygon fill="#FFFFFF" points="62.1,36.4 62.1,36.4 62.1,36.4 	"/>
	<polygon fill="#FFFFFF" points="62.1,36.4 62.1,36.4 62.1,36.4 	"/>
	<path fill="#FFFFFF" d="M58.6,36.5c0.4,0,0.7-0.1,1.1-0.1c-0.1,0-0.2,0-0.3-0.1c-0.3,0-0.7,0-1,0l0,0c0,0.1,0,0.1,0,0.2
		C58.4,36.5,58.5,36.5,58.6,36.5z"/>
	<path fill="#FFFFFF" d="M61.3,36.5c-0.5,0.1-1,0-1.4,0.1c0.7,0,1.4,0,2.1-0.2c0,0,0,0,0,0C61.7,36.4,61.5,36.5,61.3,36.5z"/>
	<path fill="#FFFFFF" d="M62.1,36.4c0,0-0.1,0-0.1,0c0,0,0,0,0,0C62,36.4,62,36.4,62.1,36.4L62.1,36.4z"/>
	<path fill="#FFFFFF" d="M59.7,36.4c-0.4,0-0.7,0.1-1.1,0.1c-0.1,0-0.1,0-0.2,0.1c0,0,0,0,0,0.1l0,0c0.5,0,1,0,1.5,0
		c0.5-0.1,1,0,1.4-0.1C60.8,36.5,60.2,36.5,59.7,36.4z"/>
	<path fill="#FFFFFF" d="M61.9,36.4L61.9,36.4c-0.1,0-0.1,0-0.2,0C61.8,36.4,61.8,36.4,61.9,36.4C61.9,36.4,61.9,36.4,61.9,36.4z"/>
	<path fill="#FFFFFF" d="M61.9,36.4c0,0,0.1,0,0.1,0h0l0,0l0,0v0C62,36.4,62,36.4,61.9,36.4L61.9,36.4z"/>
	<path fill="#FFFFFF" d="M60.8,36.4c-0.5,0-0.9,0-1.4,0c0.1,0,0.2,0,0.3,0.1C60.1,36.4,60.4,36.4,60.8,36.4z"/>
	<path fill="#FFFFFF" d="M61.8,36.4C61.8,36.4,61.8,36.4,61.8,36.4c-0.1,0-0.1,0-0.2,0c-0.1,0.1-0.3,0.1-0.4,0.1
		c0.2,0,0.4-0.1,0.6-0.1C61.9,36.4,61.9,36.4,61.8,36.4C61.9,36.4,61.9,36.4,61.8,36.4z"/>
	<path fill="#FFFFFF" d="M61.9,36.4C61.9,36.4,61.9,36.4,61.9,36.4c0,0,0.1,0,0.1,0h0C62,36.4,62,36.4,61.9,36.4z"/>
	<path fill="#FFFFFF" d="M61.3,36.5c0.1,0,0.3-0.1,0.4-0.1c-0.3,0-0.6,0-0.9,0c-0.4,0-0.7,0-1.1,0.1C60.2,36.5,60.8,36.5,61.3,36.5z
		"/>
	<path fill="#FFFFFF" d="M56.6,36.8C56.6,36.8,56.6,36.8,56.6,36.8c0.2,0,0.2,0,0.3-0.1c0,0,0-0.1,0-0.1c-1.2,0.1-2.5-0.2-3.7,0.2
		C54.3,36.7,55.4,36.7,56.6,36.8z"/>
	<path fill="#FFFFFF" d="M56.8,36.8c-0.1,0-0.1,0-0.2,0c0,0-0.1,0-0.1,0c0.1,0,0.2,0,0.3,0C56.8,36.8,56.8,36.8,56.8,36.8z"/>
	<path fill="#FFFFFF" d="M55.1,36.9C55.1,36.9,55.1,36.9,55.1,36.9C55.1,36.9,55.1,36.9,55.1,36.9c0.4,0,0.8,0,1.1,0
		c0.1,0,0.3,0,0.4,0c-1.1-0.2-2.3-0.2-3.4,0l0,0C53.8,36.9,54.4,36.9,55.1,36.9z"/>
	<path fill="#FFFFFF" d="M55.1,36.9C55.1,36.9,55.1,36.9,55.1,36.9C55.1,36.9,55.1,36.9,55.1,36.9C55.1,36.9,55.1,36.9,55.1,36.9z"
		/>
	<path fill="#FFFFFF" d="M56.8,36.9c-0.1,0-0.2,0-0.3,0c-0.1,0-0.3,0-0.4,0C56.4,36.9,56.6,36.9,56.8,36.9L56.8,36.9z"/>
	<path fill="#FFFFFF" d="M50.3,37.2c-1,0.1-2.1-0.2-3.1,0.2C48.2,37.1,49.2,37.5,50.3,37.2z"/>
	<path fill="#FFFFFF" d="M50.3,37.2c-1,0.3-2.1-0.1-3.1,0.2C48.2,37.3,49.3,37.6,50.3,37.2z"/>
	<path fill="#FFFFFF" d="M44.5,37.7c-1,0.1-1.9-0.2-2.9,0.2C42.6,37.6,43.6,38,44.5,37.7z"/>
	<path fill="#FFFFFF" d="M44.5,37.7c-0.9,0.3-1.9-0.1-2.9,0.2l0,0C42.6,37.9,43.6,38.1,44.5,37.7z"/>
	<path fill="#FFFFFF" d="M52.6,36.9c-0.7,0-1.4-0.1-2.1,0.2C51.2,36.8,52,37.2,52.6,36.9z"/>
	<path fill="#FFFFFF" d="M52.6,36.9c-0.7,0.3-1.4-0.1-2.1,0.2C51.2,37.2,52,37.2,52.6,36.9z"/>
	<path fill="#FFFFFF" d="M46.9,37.4c-0.7,0-1.4-0.1-2.1,0.2C45.4,37.3,46.2,37.7,46.9,37.4z"/>
	<path fill="#FFFFFF" d="M46.9,37.4c-0.7,0.3-1.4-0.1-2.1,0.2c0,0,0,0,0,0C45.5,37.6,46.2,37.8,46.9,37.4z"/>
	<path fill="#FFFFFF" d="M40.2,38.2c0-0.1,0-0.2,0.1-0.2v0c-0.6,0-1.3-0.1-1.8,0.2C39.1,38,39.6,38,40.2,38.2z"/>
	<path fill="#FFFFFF" d="M40.3,38.2c0-0.1,0-0.2,0-0.2c-0.1,0.1-0.1,0.1-0.1,0.2C40.3,38.2,40.3,38.2,40.3,38.2z"/>
	<path fill="#FFFFFF" d="M40.2,38.2C40.2,38.2,40.2,38.2,40.2,38.2c-0.6-0.2-1.1-0.2-1.7,0l0,0C39.1,38.2,39.6,38.2,40.2,38.2z"/>
	<path fill="#FFFFFF" d="M40.2,38.2C40.2,38.2,40.2,38.2,40.2,38.2c0,0,0.1,0,0.1,0C40.3,38.2,40.3,38.2,40.2,38.2z"/>
	<path fill="#FFFFFF" d="M57,36.8C57,36.8,57,36.7,57,36.8c0.3-0.1,0.6-0.1,0.8-0.1c-0.2,0-0.4,0-0.7,0l0,0l0,0c-0.1,0-0.2,0-0.3,0
		v0h0C56.9,36.7,56.9,36.7,57,36.8z"/>
	<path fill="#FFFFFF" d="M56.8,36.9c0.5,0,1.1,0.1,1.6-0.3l0,0c-0.2,0-0.4,0-0.6,0c-0.2,0-0.5,0-0.7,0.1c0,0,0,0-0.1,0
		C57,36.8,56.9,36.8,56.8,36.9z"/>
	<polygon fill="#FFFFFF" points="56.8,36.9 56.8,36.9 56.8,36.9 	"/>
	<polygon fill="#FFFFFF" points="56.8,36.9 56.8,36.9 56.8,36.9 	"/>
	<polygon fill="#FFFFFF" points="58.4,36.6 58.4,36.6 58.4,36.6 	"/>
	<path fill="#FFFFFF" d="M57,36.8c0,0,0-0.1-0.1-0.1h0c0,0,0,0.1,0,0.1C56.9,36.8,56.9,36.8,57,36.8z"/>
	<path fill="#FFFFFF" d="M56.8,36.9L56.8,36.9c0.1,0,0.1-0.1,0.1-0.1c0,0-0.1,0-0.1,0C56.8,36.8,56.8,36.8,56.8,36.9L56.8,36.9z"/>
	<polygon fill="#FFFFFF" points="56.8,36.9 56.8,36.9 56.8,36.9 	"/>
	<path fill="#FFFFFF" d="M58.3,36.6C58.3,36.6,58.3,36.6,58.3,36.6C58.3,36.5,58.3,36.5,58.3,36.6c0.1-0.1,0.1-0.2,0.1-0.2l0,0
		c-0.5,0-0.9,0-1.3,0.2C57.5,36.4,57.9,36.4,58.3,36.6z"/>
	<path fill="#FFFFFF" d="M58.3,36.6C58.3,36.6,58.3,36.6,58.3,36.6C58.3,36.6,58.3,36.6,58.3,36.6C58.4,36.6,58.4,36.6,58.3,36.6z"
		/>
	<path fill="#FFFFFF" d="M58.3,36.6C58.4,36.6,58.4,36.6,58.3,36.6c0-0.1,0.1-0.1,0.1-0.2C58.4,36.4,58.3,36.5,58.3,36.6
		C58.3,36.5,58.3,36.5,58.3,36.6z"/>
	<path fill="#FFFFFF" d="M58.4,36.6C58.4,36.6,58.4,36.6,58.4,36.6C58.4,36.6,58.4,36.6,58.4,36.6C58.4,36.6,58.4,36.6,58.4,36.6
		L58.4,36.6z"/>
	<path fill="#FFFFFF" d="M57.7,36.6c0.2,0,0.4,0,0.5,0c-0.4-0.2-0.8-0.1-1.2,0l0,0C57.3,36.6,57.5,36.6,57.7,36.6z"/>
	<path fill="#FFFFFF" d="M58.4,36.6c0,0-0.1,0-0.1,0c-0.2,0-0.3,0-0.5,0C58,36.6,58.2,36.6,58.4,36.6L58.4,36.6z"/>
	<polygon fill="#FFFFFF" points="58.4,36.6 58.4,36.6 58.4,36.6 	"/>
	<path fill="#FFFFFF" d="M34.8,39.7c1.3-0.1,2.6,0.2,3.9-0.2C37.5,39.9,36.1,39.4,34.8,39.7z"/>
	<path fill="#FFFFFF" d="M34.8,39.7c1.3-0.3,2.6,0.1,3.9-0.2l0,0C37.4,39.6,36.1,39.3,34.8,39.7z"/>
	<path fill="#FFFFFF" d="M39.3,39.5c0.9,0.4,1.7,0.4,2.6,0C41,39.7,40.2,39.7,39.3,39.5z"/>
	<path fill="#FFFFFF" d="M39.3,39.5c0.9,0.2,1.7,0.2,2.6,0l0,0C41,39.5,40.2,39.5,39.3,39.5z"/>
	<path fill="#FFFFFF" d="M48.4,39c0.8,0,1.6,0,2.4,0l0,0c-0.1-0.1-0.2-0.1-0.4-0.2C49.8,39,49.1,38.7,48.4,39z"/>
	<path fill="#FFFFFF" d="M50.8,39c-0.1-0.1-0.2-0.2-0.3-0.3c0,0-0.1,0-0.1,0C50.6,38.8,50.7,38.9,50.8,39z"/>
	<path fill="#FFFFFF" d="M50.4,38.8C50.4,38.7,50.4,38.7,50.4,38.8c-0.7,0-1.4-0.1-2,0.2C49.1,38.7,49.8,39,50.4,38.8z"/>
	<path fill="#FFFFFF" d="M50.4,38.8C50.5,38.7,50.5,38.7,50.4,38.8C50.5,38.7,50.4,38.7,50.4,38.8C50.4,38.7,50.4,38.7,50.4,38.8z"
		/>
	<path fill="#FFFFFF" d="M45.6,39.2c0.7,0,1.4,0.1,2.1-0.2C47,39.3,46.2,38.9,45.6,39.2z"/>
	<path fill="#FFFFFF" d="M45.6,39.2c0.7-0.3,1.4,0.1,2.1-0.2l0,0C46.9,39,46.2,38.9,45.6,39.2z"/>
	<path fill="#FFFFFF" d="M43.2,39.2c0.5,0.3,1,0.3,1.6,0C44.3,39.4,43.7,39.4,43.2,39.2z"/>
	<path fill="#FFFFFF" d="M43.2,39.2c0.5,0.2,1,0.2,1.6,0l0,0C44.3,39.2,43.7,39.2,43.2,39.2z"/>
	<polygon fill="#FFFFFF" points="64.9,36.6 64.9,36.6 64.9,36.6 	"/>
	<path fill="#FFFFFF" d="M63.4,38.3c-1.4,0.1-2.8,0-4.3,0c-0.2,0-0.5,0-0.7,0c-0.2,0-0.4,0.1-0.6,0.2c1.9,0,3.8,0,5.7,0
		c1.3,0,1.7-0.5,1.3-1.8l0,0C65.1,37.9,64.8,38.3,63.4,38.3z"/>
	<rect x="64.9" y="36.6" fill="#FFFFFF" width="0" height="0"/>
	<path fill="#FFFFFF" d="M59.1,38.3c1.4,0,2.9,0,4.3,0c1.4-0.1,1.7-0.4,1.5-1.7l0,0c0,1.4-1.1,1.5-2.1,1.6c-1.5,0.1-3-0.2-4.4,0.1
		C58.7,38.3,58.9,38.3,59.1,38.3z"/>
	<path fill="#FFFFFF" d="M35.6,39.2c0.1,0,0.1,0,0.2-0.1c0-0.1,0-0.2-0.1-0.2c-0.1,0-0.2,0-0.2,0C35.4,39,35.4,39.1,35.6,39.2z"/>
	<path fill="#FFFFFF" d="M35.2,29.8c2.8-0.9,5.7-1.6,7-4.7l0,0c0.3-0.8,0.7-1.7,1-2.5c0.7-2.1,0.4-4.2-0.7-6.1
		c-1.1-0.6-2.1-1.3-3-2.1c-0.7-0.6-1.5-1-2.3-1.4c-0.8-0.2-1.6-0.3-2.4-0.5c-0.2,0-0.5-0.1-0.7-0.1c-3.4-0.1-6.9,1.7-8.4,4.9
		c-0.1,0.1-0.2,0.2-0.3,0.3l0,0v0c-1.9,3.2-1.9,6.4,0,9.7c0.1,0.2,0.1,0.4,0.2,0.6c0.5,0.6,1,1.3,1.8,1.6
		C30,30.6,32.6,30.6,35.2,29.8z M27.5,27.2C27.5,27.2,27.5,27.2,27.5,27.2c-1.7-1.9-1.7-4.2-1.5-6.6l0,0l0,0
		c0.4-1.8,0.6-3.8,2.6-4.8c0,0,0,0,0,0c1.7-2.5,6.6-2.3,8.5-0.9c0.3,0.2,0.5,0.4,0.7,0.8c0.5,0.5,0.9,1,1.4,1.5
		c1.5,0.8,2.3,2.3,2.2,3.8c0,0.1,0,0.3-0.1,0.4c0,3.5-1.3,5.1-5.3,6.5l0,0c-1.7,0.8-3.5,0.9-5.4,0.8C29.3,28.7,28.3,28.2,27.5,27.2z
		"/>
	<path fill="#FFFFFF" d="M26.8,14.7c-0.2,0.1-0.4,0.3-0.5,0.4c-0.2,0.5-0.4,0.9-0.8,1.3c-0.1,0.1-0.1,0.2-0.2,0.3
		c0,0.1,0,0.2,0.1,0.3C25.7,16.2,26.1,15.4,26.8,14.7z"/>
	<path fill="#FFFFFF" d="M34.1,12.4c1.1,0,2.1,0.2,3.1,0.6c0.4,0.1,0.7,0.2,1.1,0.4c1.6,0.8,2.8,1.9,4.2,3c0,0,0,0,0,0l0,0l0,0l0,0
		c0,0,0,0,0,0c-0.1-0.5-0.5-0.7-0.8-1c-2-1.6-4.1-2.8-6.8-3.2c-2.8-0.4-5.2,0.1-7.5,1.6c-0.1,0.2-0.2,0.4-0.3,0.6
		C29.1,12.7,31.5,12,34.1,12.4z"/>
	<path fill="#FFFFFF" d="M38.3,13.4c-0.4-0.2-0.7-0.3-1.1-0.4c0.8,0.3,1.6,0.8,2.3,1.4c0.9,0.8,1.9,1.5,3,2.1c0,0,0,0,0,0
		C41.1,15.3,39.9,14.2,38.3,13.4z"/>
	<path fill="#FFFFFF" d="M27.1,14.4c-0.1,0.1-0.2,0.2-0.4,0.3c-0.7,0.7-1.1,1.5-1.4,2.3c0,0.1,0.1,0.3,0.1,0.4l0,0
		c0.1-0.1,0.2-0.2,0.3-0.3c1.5-3.2,5-4.9,8.4-4.9C31.5,12,29.1,12.7,27.1,14.4z"/>
	<polygon fill="#FFFFFF" points="42.4,16.4 42.4,16.4 42.4,16.4 	"/>
	<path fill="#FFFFFF" d="M39,28.6c-2.7,1.3-5.6,2.1-8.6,1.9c-1.1-0.1-2-0.7-2.9-1.1c0.9,0.9,2,1.3,3.3,1.3c3.1,0.1,6-0.7,8.8-2.2
		c1.4-0.8,2.4-1.7,2.9-3.3c0,0-0.1,0-0.1,0C41.8,26.8,40.5,27.8,39,28.6z"/>
	<path fill="#FFFFFF" d="M39,28.6c1.5-0.7,2.8-1.7,3.3-3.5c-0.1,0-0.1,0-0.2,0l0,0l0,0c-1.3,3.1-4.2,3.8-7,4.7
		c-2.6,0.8-5.2,0.8-7.7-0.4c0.9,0.5,1.8,1.1,2.9,1.1C33.4,30.7,36.3,29.9,39,28.6z"/>
	<path fill="#FFFFFF" d="M42.5,16.4C42.5,16.4,42.5,16.4,42.5,16.4C42.5,16.4,42.5,16.4,42.5,16.4c1.8,2.2,1.4,4.7,0.5,7.1
		c-0.2,0.5-0.4,1-0.7,1.5c0,0,0.1,0,0.1,0.1c0.9-1.4,1.3-2.9,1.5-4.5C44.1,19,43.8,17.5,42.5,16.4z"/>
	<path fill="#FFFFFF" d="M43.1,22.6c-0.3,0.9-0.6,1.7-1,2.5c0.1-0.1,0.1-0.1,0.2-0.1c0.2-0.5,0.5-1,0.7-1.5c0.9-2.4,1.3-4.9-0.5-7.1
		c0,0,0,0,0,0C43.5,18.4,43.8,20.4,43.1,22.6z"/>
	<polygon fill="#FFFFFF" points="42.5,16.4 42.5,16.4 42.5,16.4 	"/>
	<path fill="#FFFFFF" d="M42.5,16.4C42.5,16.4,42.5,16.4,42.5,16.4C42.5,16.4,42.5,16.4,42.5,16.4L42.5,16.4z"/>
	<path fill="#FFFFFF" d="M42.4,16.4L42.4,16.4C42.5,16.4,42.5,16.4,42.4,16.4C42.5,16.4,42.5,16.4,42.4,16.4
		C42.5,16.4,42.5,16.4,42.4,16.4z"/>
	<ellipse transform="matrix(-0.7106 -0.7036 0.7036 -0.7106 61.0724 57.9761)" fill="#FFFFFF" cx="42.5" cy="16.4" rx="0" ry="0"/>
	<path fill="#FFFFFF" d="M42.4,16.4C42.5,16.4,42.5,16.4,42.4,16.4C42.5,16.4,42.5,16.4,42.4,16.4L42.4,16.4L42.4,16.4z"/>
	<path fill="#FFFFFF" d="M42.3,25.1C42.3,25.1,42.3,25.1,42.3,25.1c0,0,0.1,0,0.1,0C42.4,25.1,42.4,25.1,42.3,25.1
		C42.3,25.1,42.3,25.1,42.3,25.1z"/>
	<path fill="#FFFFFF" d="M42.2,25.1L42.2,25.1c0.1,0,0.1,0,0.2,0c0,0,0,0,0,0c0,0,0,0,0-0.1C42.3,25,42.2,25,42.2,25.1z"/>
	<path fill="#FFFFFF" d="M25.1,17.4c0-0.1,0.1-0.1,0.1-0.2c0-0.2,0-0.4,0-0.5c-1.5,2.4-1.8,5.1-1.3,7.8c0.2,1.3,0.6,2.4,1.7,3.2
		C23.3,24.4,23.4,21,25.1,17.4z"/>
	<path fill="#FFFFFF" d="M25.4,17.5L25.4,17.5c-0.1-0.1-0.2-0.2-0.2-0.2c0,0.1-0.1,0.1-0.1,0.2c-1.8,3.5-1.9,7,0.5,10.3
		c-0.1-0.2-0.1-0.4-0.2-0.6C23.5,24,23.5,20.7,25.4,17.5z"/>
	<path fill="#FFFFFF" d="M25.2,17.3c0-0.1,0.1-0.1,0.1-0.2c0-0.1,0-0.2-0.1-0.3C25.3,16.9,25.2,17.1,25.2,17.3z"/>
	<path fill="#FFFFFF" d="M25.2,17.3c0,0.1,0.1,0.2,0.2,0.2c0-0.1-0.1-0.3-0.1-0.4C25.3,17.1,25.3,17.2,25.2,17.3z"/>
	<polygon fill="#FFFFFF" points="26.2,15.2 26.2,15.2 26.2,15.2 	"/>
	<rect x="26.2" y="15.2" fill="#FFFFFF" width="0" height="0"/>
	
		<rect x="26.2" y="15.2" transform="matrix(0.4948 -0.869 0.869 0.4948 5.032523e-02 30.4475)" fill="#FFFFFF" width="0" height="0"/>
	<polygon fill="#FFFFFF" points="26.2,15.2 26.2,15.2 26.2,15.2 	"/>
	<rect x="26.2" y="15.2" fill="#FFFFFF" width="0" height="0"/>
	<polygon fill="#FFFFFF" points="26.2,15.2 26.2,15.2 26.2,15.2 	"/>
	<path fill="#FFFFFF" d="M28.5,16.1c2.6-2.5,6.5-2.7,9.1-0.3c-0.1-0.3-0.4-0.6-0.7-0.8c-1.9-1.3-6.8-1.6-8.5,0.9c0,0,0,0,0,0
		c0,0,0,0,0,0C28.5,16,28.5,16,28.5,16.1z"/>
	<path fill="#FFFFFF" d="M28.5,16.1c0,0,0,0.1,0,0.1c0.9-0.5,1.4-1.3,2.5-1.6c2.4-0.6,4.6-0.3,6.6,1.1C35,13.4,31.2,13.6,28.5,16.1z
		"/>
	<path fill="#FFFFFF" d="M40.9,23.6c-0.6,1.5-1.6,2.6-3.1,3.3c-0.6,0.3-1.2,0.7-1.9,0.9c0,0.1,0,0.1,0,0.2l0,0l0,0
		c4-1.4,5.3-3,5.3-6.5c0-0.1,0-0.2,0-0.3C40.8,22,41.1,22.8,40.9,23.6z"/>
	<path fill="#FFFFFF" d="M41.2,21.1c0,0.1,0,0.3-0.1,0.4C41.2,21.3,41.3,21.2,41.2,21.1z"/>
	<path fill="#FFFFFF" d="M37.8,27c1.5-0.7,2.5-1.8,3.1-3.3c0.3-0.8-0.1-1.7,0.2-2.5c0-0.1,0-0.2,0-0.3v0c-0.1,0.3-0.2,0.7-0.2,1
		c0.1,2.3-1.1,3.8-3,4.9c-0.6,0.3-1.3,0.7-2,1c0,0,0,0.1,0,0.1C36.6,27.7,37.2,27.3,37.8,27z"/>
	<path fill="#FFFFFF" d="M35.9,28c-0.1,0-0.1-0.1-0.1-0.1c-1.7,0.7-3.5,0.9-5.3,0.7c-1.2-0.1-2.1-0.7-2.9-1.6c0,0,0,0.1,0,0.1
		c0,0,0,0,0,0c0,0,0,0,0,0c0.8,0.9,1.8,1.5,3,1.6C32.4,28.9,34.2,28.8,35.9,28z"/>
	<path fill="#FFFFFF" d="M35.8,27.8C35.8,27.8,35.8,27.7,35.8,27.8c-0.4,0-0.9,0.2-1.4,0.3c-2.5,0.7-4.9,0.8-6.9-1.2
		c0,0.1,0,0.1,0,0.2c0.8,0.8,1.8,1.4,2.9,1.6C32.3,28.8,34.1,28.6,35.8,27.8C35.8,27.9,35.8,27.8,35.8,27.8z"/>
	<path fill="#FFFFFF" d="M35.9,27.8C35.9,27.8,35.8,27.9,35.9,27.8c-0.1,0-0.1,0-0.1,0c0,0,0,0.1,0.1,0.1l0,0
		C35.9,27.9,35.9,27.9,35.9,27.8z"/>
	<path fill="#FFFFFF" d="M35.9,27.8c0,0,0-0.1,0-0.1C35.8,27.7,35.8,27.8,35.9,27.8c-0.1,0-0.1,0-0.1,0
		C35.8,27.9,35.8,27.9,35.9,27.8C35.8,27.9,35.9,27.8,35.9,27.8z"/>
	<path fill="#FFFFFF" d="M27.4,27C27.4,27,27.4,27,27.4,27c-1.3-1.9-1.5-4-1.4-6.2c0-0.1,0-0.1,0-0.2c-0.1,0-0.1,0-0.2,0l0,0
		c-0.1,2.3-0.1,4.6,1.5,6.6C27.4,27.1,27.4,27.1,27.4,27z"/>
	<path fill="#FFFFFF" d="M27.5,26.9c-1.1-1.9-1.5-4-1.2-6.2c-0.1,0-0.1,0-0.2,0c0,0.1,0,0.1,0,0.2C26,23,26.1,25.1,27.5,26.9
		C27.4,27,27.4,27,27.4,27C27.4,27,27.5,26.9,27.5,26.9z"/>
	<path fill="#FFFFFF" d="M27.5,27.1C27.5,27,27.4,27,27.5,27.1c-0.1,0-0.1,0.1,0,0.1c0,0,0,0,0,0C27.5,27.2,27.5,27.1,27.5,27.1z"/>
	<path fill="#FFFFFF" d="M27.4,27C27.4,27,27.5,27,27.4,27c0.1,0,0.1,0,0.1-0.1C27.5,26.9,27.4,27,27.4,27z"/>
	<path fill="#FFFFFF" d="M26.1,20.6c0.1-0.5,0.3-0.9,0.4-1.4c0.2-1.3,0.8-2.4,2-3c0,0,0,0,0,0c0,0,0-0.1,0-0.1c0-0.1,0-0.1,0.1-0.1
		c-1.9,1-2.2,2.9-2.6,4.8l0,0C26,20.6,26.1,20.6,26.1,20.6z"/>
	<path fill="#FFFFFF" d="M28.5,16.2C28.5,16.2,28.5,16.2,28.5,16.2C28.5,16.1,28.5,16.1,28.5,16.2c-1.3,0.6-1.8,1.7-2.1,3
		c-0.1,0.5-0.2,0.9-0.4,1.4c0.1,0,0.1,0,0.2,0.1C26.7,19,26.9,17.3,28.5,16.2z"/>
	<path fill="#FFFFFF" d="M28.4,16c0,0,0,0.1,0,0.1C28.5,16.1,28.5,16.1,28.4,16c0.1,0,0.1,0,0.1-0.1c0,0,0,0,0,0
		C28.5,15.9,28.5,15.9,28.4,16z"/>
	<path fill="#FFFFFF" d="M28.5,16.2c0,0,0-0.1,0-0.1C28.5,16.1,28.5,16.1,28.5,16.2C28.5,16.2,28.5,16.2,28.5,16.2z"/>
	<path fill="#FFFFFF" d="M26.1,20.6c-0.1,0-0.1,0-0.2,0.1C26,20.7,26.1,20.7,26.1,20.6C26.1,20.6,26.1,20.6,26.1,20.6z"/>
	<path fill="#FFFFFF" d="M26.1,20.6C26.1,20.6,26.1,20.6,26.1,20.6c0,0.1,0.1,0.1,0.2,0.1C26.2,20.6,26.2,20.6,26.1,20.6z"/>
	<path fill="#FFFFFF" d="M41.2,21C41.2,21,41.2,21,41.2,21c0.2-1.4-0.6-2.9-2.1-3.7C40.3,18.2,41.1,19.4,41.2,21z"/>
	<path fill="#FFFFFF" d="M41.1,20.8c0,0,0.1,0.1,0.1,0.1c-0.1-1.6-0.9-2.8-2.1-3.7C39.9,18.3,40.9,19.4,41.1,20.8L41.1,20.8z"/>
	<path fill="#FFFFFF" d="M41.2,21c0,0.1-0.1,0.1-0.1,0.2c0,0.1,0,0.2,0,0.3C41.2,21.3,41.2,21.2,41.2,21C41.2,21,41.2,21,41.2,21
		C41.2,21,41.2,21,41.2,21z"/>
	<path fill="#FFFFFF" d="M41.1,21.2c0-0.1,0-0.1,0.1-0.2c0,0,0,0,0,0c0,0-0.1-0.1-0.1-0.1l0,0v0C41.1,20.9,41.1,21,41.1,21.2z"/>
	<path fill="#FFFFFF" d="M31.4,17.5c-0.4,1.4,0.2,2.7,0.1,4c-0.1,1.3-0.1,2.7,0,4c0,0.5,0.1,1.1,0.7,1.3c0.4,0.2,0.8,0,1.2-0.3
		c1.3-1.1,2.6-2.2,3.9-3.2c0-0.1,0-0.2,0-0.3c-1.2,0.9-2.5,1.9-3.7,2.8c-0.3,0.2-0.6,0.6-1,0.4c-0.4-0.2-0.5-0.6-0.5-1
		c-0.1-2.3,0.1-4.5-0.2-6.8c-0.1-0.5,0.1-1,0.5-1.3c0.5-0.3,0.9,0.1,1.2,0.4c0.7,0.6,1.4,1.1,2.1,1.7l0,0v0c0-0.1,0-0.2,0-0.3
		c-0.9-0.8-1.6-1.7-2.6-2.3C32.4,16.3,31.7,16.5,31.4,17.5z"/>
	<path fill="#FFFFFF" d="M35.7,19.3C35.7,19.3,35.7,19.4,35.7,19.3c0.6,0.4,1.3,0.8,2,1.2c1.3,0.7,1.3,0.8,0.3,2c0.1,0,0.2,0,0.3,0
		c0.5-0.1,0.9-0.4,0.9-0.9c0-0.5-0.3-1-0.8-1.2c-0.9-0.4-1.8-0.9-2.7-1.4c0.1,0.1,0.1,0.1,0.1,0.2C35.7,19.3,35.7,19.3,35.7,19.3z"
		/>
	<path fill="#FFFFFF" d="M35.6,19.3C35.6,19.3,35.6,19.4,35.6,19.3C35.7,19.4,35.7,19.3,35.6,19.3c0.1,0,0.1,0,0.1-0.1
		c0-0.1,0-0.2-0.1-0.2C35.6,19.1,35.6,19.2,35.6,19.3L35.6,19.3z"/>
	<path fill="#FFFFFF" d="M37.9,22.6C37.9,22.5,37.9,22.5,37.9,22.6c-0.2,0.1-0.5,0.2-0.7,0.4c0,0,0,0,0,0c0,0.1,0,0.2,0,0.3
		c0.5-0.1,0.8-0.4,1.1-0.8C38.2,22.6,38.1,22.6,37.9,22.6z"/>
	<path fill="#FFFFFF" d="M37.3,23C37.3,23,37.3,23,37.3,23C37.2,23,37.2,23,37.3,23c-0.1,0.1-0.1,0.2,0,0.3
		C37.3,23.2,37.3,23.1,37.3,23z"/>
	<path fill="#FFFFFF" d="M37.9,22.5C37.9,22.5,37.9,22.5,37.9,22.5c0.2,0.1,0.3,0.1,0.4,0C38.2,22.5,38.1,22.5,37.9,22.5
		C37.9,22.5,37.9,22.5,37.9,22.5z"/>
	<path fill="#FFFFFF" d="M37.9,22.5c-0.3-1.1-1.1-1.9-2-2.6c-0.2-0.1-0.3-0.3-0.3-0.5c-0.7,0.4-1.2-0.3-1.7-0.6
		c-1.4-0.7-1.4-0.7-1.5,0.9c-0.1,1.5-0.1,3,0.1,4.5c0.1,0.9,0.5,1.1,1.2,0.6c0.7-0.5,1.4-0.9,2-1.5c0.4-0.4,0.9-0.7,1.4-0.3
		C37.3,22.5,37.5,22.4,37.9,22.5z M35.1,22.8c-0.5,0.3-0.9,1.1-1.5,0.8c-0.7-0.3-0.7-1.2-0.7-1.8c-0.2-1.4,0.4-2.2,1.3-2.1
		c0.6,0.3,1.6,0.4,1.9,1.2C36.4,21.8,35.7,22.4,35.1,22.8z"/>
	<path fill="#FFFFFF" d="M35.8,23.2c-0.6,0.6-1.3,1-2,1.5c-0.7,0.5-1.1,0.3-1.2-0.6c-0.2-1.5-0.2-3-0.1-4.5c0.1-1.5,0.1-1.6,1.5-0.9
		c0.5,0.3,0.9,1,1.7,0.6c0,0,0,0,0,0l0,0c-0.7-0.6-1.4-1.1-2.1-1.7c-0.4-0.3-0.7-0.7-1.2-0.4c-0.5,0.3-0.6,0.8-0.5,1.3
		c0.4,2.2,0.2,4.5,0.2,6.8c0,0.4,0,0.8,0.5,1c0.4,0.2,0.7-0.2,1-0.4c1.2-0.9,2.5-1.9,3.7-2.8c0,0,0-0.1,0-0.1
		C36.6,22.5,36.2,22.8,35.8,23.2z"/>
	<path fill="#FFFFFF" d="M35.9,19.9c1,0.6,1.7,1.4,2,2.6c0,0,0,0,0,0c1-1.2,1-1.2-0.3-2c-0.7-0.4-1.3-0.8-2-1.1c0,0,0,0,0,0
		C35.6,19.6,35.7,19.8,35.9,19.9z"/>
	<path fill="#FFFFFF" d="M35.7,19.4C35.6,19.4,35.6,19.3,35.7,19.4C35.6,19.4,35.6,19.4,35.7,19.4C35.6,19.4,35.6,19.4,35.7,19.4z"
		/>
	<path fill="#FFFFFF" d="M37.2,22.9C37.2,22.9,37.2,23,37.2,22.9c0.3-0.1,0.5-0.3,0.7-0.4c0,0,0,0,0,0
		C37.5,22.4,37.3,22.5,37.2,22.9z"/>
	<path fill="#FFFFFF" d="M37.2,22.9C37.2,23,37.2,23,37.2,22.9C37.2,23,37.2,23,37.2,22.9C37.2,23,37.2,22.9,37.2,22.9z"/>
	<path fill="#FFFFFF" d="M37.9,22.5C37.9,22.5,37.9,22.5,37.9,22.5C37.9,22.5,37.9,22.5,37.9,22.5C37.9,22.5,37.9,22.5,37.9,22.5z"
		/>
	<path fill="#FFFFFF" d="M33.6,22.4c0-0.1-0.1-0.1-0.1-0.1c0,0,0,0,0,0C33.5,22.3,33.6,22.3,33.6,22.4z"/>
	<path fill="#FFFFFF" d="M34.2,19.6c-1-0.1-1.5,0.7-1.3,2.1c0.1,0.7,0,1.5,0.7,1.8c0.6,0.3,1.1-0.4,1.5-0.8c0.6-0.4,1.3-1,1-1.9
		C35.7,20,34.8,19.9,34.2,19.6z M35.6,21.7c-0.2,0.4-0.5,0.8-1,0.8c-0.1,0.1-0.3,0.2-0.4,0.3h0c-0.1,0.2-0.3,0.5-0.4,0.4
		c-0.4-0.2-0.2-0.7-0.3-1c0,0,0,0,0,0c-0.5-0.6-0.2-1.3-0.1-1.9c0-0.6,0.5-0.5,0.8-0.2C34.6,20.6,35.8,20.6,35.6,21.7z"/>
	<polygon fill="#FFFFFF" points="33.4,22.3 33.4,22.2 33.5,22.3 	"/>
	<polygon fill="#FFFFFF" points="33.5,22.3 33.5,22.3 33.5,22.3 33.5,22.3 	"/>
	<path fill="#FFFFFF" d="M33.5,22.3C33.5,22.3,33.5,22.3,33.5,22.3C33.5,22.3,33.5,22.3,33.5,22.3C33.4,22.3,33.4,22.3,33.5,22.3
		C33.5,22.3,33.5,22.3,33.5,22.3z"/>
	<path fill="#FFFFFF" d="M33.5,22.3C33.5,22.3,33.5,22.3,33.5,22.3C33.4,22.3,33.4,22.3,33.5,22.3L33.5,22.3L33.5,22.3z"/>
	<rect x="33.5" y="22.3" fill="#FFFFFF" width="0" height="0"/>
	<path fill="#FFFFFF" d="M33.5,22.3C33.5,22.3,33.5,22.3,33.5,22.3C33.5,22.3,33.5,22.3,33.5,22.3C33.5,22.3,33.5,22.3,33.5,22.3z"
		/>
	<g>
		<g>
			<path fill="#FFFFFF" d="M24.3,37.9c-6.6,0.1-13.1,0.3-19.7,0.2c-1.6,0-1.6,2.5,0,2.5c6.6,0.1,13.1-0.1,19.7-0.2
				C25.9,40.3,25.9,37.8,24.3,37.9L24.3,37.9z"/>
		</g>
	</g>
	<g>
		<g>
			<path fill="#FFFFFF" d="M3,32.4c0,2.4,0.5,4.8,0.4,7.2c0,1.6,2.5,1.6,2.5,0c0-2.4-0.4-4.8-0.4-7.2C5.5,30.8,3,30.8,3,32.4L3,32.4
				z"/>
		</g>
	</g>
	<g>
		<g>
			<path fill="#FFFFFF" d="M3.8,32.5c0,2.1,0,4.2,0,6.3c0,1.6,2.5,1.6,2.5,0c0-2.1,0-4.2,0-6.3C6.3,30.9,3.8,30.9,3.8,32.5L3.8,32.5
				z"/>
		</g>
	</g>
	<g>
		<g>
			<path fill="#FFFFFF" d="M25.2,38.3c-6.8,0-13.6,0.4-20.4,0.4c-1.6,0-1.6,2.5,0,2.5c6.8,0,13.6-0.4,20.4-0.4
				C26.8,40.8,26.8,38.3,25.2,38.3L25.2,38.3z"/>
		</g>
	</g>
	<g>
		<g>
			<path fill="#FFFFFF" d="M3.9,17.6c0-1.1,0-2.2,0-3.2c0-0.8-1.2-0.8-1.2,0c0,1.1,0,2.2,0,3.2C2.6,18.4,3.9,18.4,3.9,17.6L3.9,17.6
				z"/>
		</g>
	</g>
	<g>
		<g>
			<path fill="#FFFFFF" d="M4.4,17.6c-0.3-0.6-0.3-1.3-0.6-1.9c-0.2-0.5-1.1-0.4-1.1,0.1c0,0.2-0.1,0.4-0.1,0.7
				c0.4-0.1,0.7-0.3,1.1-0.4c0.1,0,0.1,0,0-0.1c0-0.8-1.3-0.8-1.2,0c0,0.4,0.1,0.7,0.3,1c0.4,0.5,1,0,1.1-0.4c0-0.1,0-0.2,0.1-0.3
				c-0.4,0-0.8,0.1-1.1,0.1c0.1,0.3,0.2,0.6,0.2,0.9c0.1,0.3,0.2,0.7,0.4,1C3.7,18.9,4.8,18.3,4.4,17.6L4.4,17.6z"/>
		</g>
	</g>
	<g>
		<g>
			<path fill="#FFFFFF" d="M24.5,37.7c-0.9,0-1.8,0-2.7,0c-0.8,0-0.8,1.2,0,1.2c0.9,0,1.8,0,2.7,0C25.3,38.9,25.3,37.7,24.5,37.7
				L24.5,37.7z"/>
		</g>
	</g>
	<g>
		<g>
			<path fill="#FFFFFF" d="M18.5,2.8c-0.8,0-1.7,0.2-2.5,0c0,0.4,0.1,0.8,0.1,1.1c0.2-0.1,0.5-0.1,0.8-0.2c0.8-0.2,0.5-1.4-0.3-1.2
				c-0.4,0.1-0.7,0.2-1.1,0.3C15.1,3,15.2,3.9,15.7,4c0.9,0.2,1.9,0,2.8,0C19.3,4,19.3,2.7,18.5,2.8L18.5,2.8z"/>
		</g>
	</g>
	<g>
		<g>
			<path fill="#FFFFFF" d="M36.2,3.1c1.3,0.1,2.3-0.6,3.5-0.9c0.8-0.1,0.5-1.4-0.3-1.2c-1.1,0.2-2,0.9-3.2,0.8
				C35.4,1.8,35.4,3,36.2,3.1L36.2,3.1z"/>
		</g>
	</g>
	<g>
		<g>
			<path fill="#FFFFFF" d="M51,2.1C51.2,2,51.2,1.9,51,2.1c0.8,0.1,1.2-1.1,0.4-1.3c-0.5-0.1-0.9,0-1.3,0.4
				C49.7,1.8,50.5,2.7,51,2.1L51,2.1z"/>
		</g>
	</g>
	<g>
		<g>
			<path fill="#FFFFFF" d="M64.1,7c0,3-0.2,6-0.2,9c0,0.8,1.2,0.8,1.2,0c0-3,0.2-6,0.2-9C65.4,6.2,64.2,6.2,64.1,7L64.1,7z"/>
		</g>
	</g>
</g>
</svg>
