<?xml version="1.0" encoding="utf-8"?>
<!-- Generator: Adobe Illustrator 18.0.0, SVG Export Plug-In . SVG Version: 6.00 Build 0)  -->
<!DOCTYPE svg PUBLIC "-//W3C//DTD SVG 1.1//EN" "http://www.w3.org/Graphics/SVG/1.1/DTD/svg11.dtd">
<svg version="1.1" id="Слой_1" xmlns="http://www.w3.org/2000/svg" xmlns:xlink="http://www.w3.org/1999/xlink" x="0px" y="0px"
	 viewBox="0 0 33.1 36.6" enable-background="new 0 0 33.1 36.6" xml:space="preserve">
<g>
	<path fill="#FFFFFF" d="M1.9,13.3c0-0.1-0.1-0.1-0.1-0.2C1.8,13.1,1.9,13,2,13c0,0.1,0.1,0.1,0.1,0.2C2,13.2,2,13.3,1.9,13.3z"/>
	<path fill="#FFFFFF" d="M25.5,32.7c-0.1,0.1-0.2,0-0.2-0.1c0-0.1,0.1-0.1,0.1-0.2c0.1,0,0.1,0.1,0.2,0.1
		C25.6,32.6,25.6,32.7,25.5,32.7z"/>
	<path fill="#FFFFFF" d="M25.1,30.6c0.6,1,1.3,1.8,2.4,2.3C26.6,32.3,25.8,31.4,25.1,30.6z"/>
	<path fill="#FFFFFF" d="M25.1,30.6c0.8,0.8,1.5,1.6,2.4,2.3C26.7,32.1,26.1,31.2,25.1,30.6z"/>
	<path fill="#FFFFFF" d="M25.3,32.6c0,0.2,0.1,0.2,0.2,0.1c0.1,0,0.1-0.1,0.1-0.2c-0.1,0-0.1-0.1-0.2-0.1
		C25.4,32.4,25.3,32.5,25.3,32.6z"/>
	<path fill="#FFFFFF" d="M5.2,21.9c-0.2-0.4-0.6-0.7-0.8-1.1C4.5,21.3,4.8,21.7,5.2,21.9z"/>
	<path fill="#FFFFFF" d="M4.5,20.8c0.2,0.4,0.5,0.7,0.8,1.1C5.2,21.4,4.8,21.1,4.5,20.8z"/>
	<path fill="#FFFFFF" d="M1.8,13.1c0,0.1,0.1,0.1,0.1,0.2c0.1,0,0.1-0.1,0.2-0.1C2.1,13.1,2,13.1,2,13C1.9,13,1.8,13.1,1.8,13.1z"/>
	<g>
		<path fill="#FFFFFF" d="M0.5,18.5c0.2,1,0.5,2.1,1,3c0.2,0.2,0.4,0.4,0.6,0.8c2,3.5,4.6,6.2,9,6.7c2.1,0.2,4.1,0.4,6-0.5
			c0.7-0.3,1.3-0.4,2-0.3c1.2,0.2,2.1,0.8,2.8,1.9c0.3,0.5,0.6,0.9,1.2,1.2c1.1,1.3,2.2,2.4,3.3,3.7c1.4,1.7,2.9,1.9,4.8,1.2
			c1.8-0.7,2.5-2.4,1.4-4.1c-1.4-2.3-2.9-4.5-4.2-6.9c-0.8-1.6-1.9-3.3-1.2-5.3c1.5-4.3,0.9-8.5-0.5-12.6c-0.5-1.4-1.2-2.7-2.6-3.5
			c-0.4-0.2-0.6-0.5-0.7-0.7c-0.2-0.1-0.3-0.2-0.5-0.4c-0.5-0.5-1.3-0.8-2.3-1.1c-0.8-0.3-1.6-0.5-2.3-0.8c-2.2-0.7-4.4-1-6.7-0.4
			c-0.3,0.1-0.6,0.1-0.7,0.1c-0.1,0-0.1,0-0.2,0C9.8,0.5,9,1.2,8.1,1.5C7.7,1.6,7.1,1.7,6.7,1.8C6.5,1.9,6.4,2,6.2,2.1
			C5.8,2.3,5.4,2.6,5.2,3C4.7,3.8,4.1,4.2,3.5,4.4C3.3,4.6,3.1,4.8,2.9,5C2.7,5.2,2.5,5.4,2.4,5.6c0.2-0.2,0.2-0.2,0,0
			C2,6.1,1.7,6.4,1.5,6.9C0.6,9.2,0,11.8,0,14.3c0,0.8,0.1,1.6,0.2,2.4c0,0,0.1,0,0.1,0 M14.3,26c-2.3,0.1-4.6-0.5-6.7-1.5
			c-1.1-0.5-1.7-1.6-2.4-2.6c-0.4-0.2-0.7-0.6-0.8-1.1c-0.7-1.7-1.4-3.4-1.6-5.3c-0.3-3.3,0.5-6.3,2.7-8.8c1.2-1.3,2.9-2,4.5-2.9
			c2.7-1.4,5.6-1.3,8.3-0.4c3.5,1.1,5.5,3.9,6.5,7.4c0.8,2.6,1.3,5.2,0.1,7.9C22.9,23.3,19.4,25.9,14.3,26z M29.4,33
			c-0.7,0.7-1.3,0.4-2-0.1c-1.1-0.5-1.8-1.3-2.4-2.3c-0.6-1.3-2-2-2.5-3.4c-0.2-0.5-0.3-0.7,0.2-1.1c2.8-2,2-1.8,3.8,0.5
			c1.1,1.4,2,2.9,2.9,4.5C29.7,31.7,30.1,32.4,29.4,33z"/>
		<path fill="#FFFFFF" d="M15.5,19.9c-1.4,0.7-2.9,0.5-4.3,0.2c-1.5-0.3-2.3-1.2-2.3-2.8c0-0.3,0-0.7-0.1-1
			c-0.3-0.7-0.8-1.2-1.6-1.2c-0.8,0-0.9,0.7-1,1.3C6.1,17,6,17.4,6,17.9c-0.1,1.6,1.1,2.5,2,3.5c1.7,2.1,5.7,2.6,7.9,1
			c0.5-0.3,0.7-0.7,0.9-1.2c0.2-0.4,0-0.8-0.2-1.1C16.3,19.8,15.9,19.7,15.5,19.9z"/>
	</g>
</g>
</svg>
