<?xml version="1.0" encoding="utf-8"?>
<!-- Generator: Adobe Illustrator 18.0.0, SVG Export Plug-In . SVG Version: 6.00 Build 0)  -->
<!DOCTYPE svg PUBLIC "-//W3C//DTD SVG 1.1//EN" "http://www.w3.org/Graphics/SVG/1.1/DTD/svg11.dtd">
<svg version="1.1" id="Слой_1" xmlns="http://www.w3.org/2000/svg" xmlns:xlink="http://www.w3.org/1999/xlink" x="0px" y="0px"
	 viewBox="0 0 16.3 7.9" enable-background="new 0 0 16.3 7.9" xml:space="preserve">
<g>
	<path fill="#FFFFFF" d="M9.6,5.2c0-0.1-0.1-0.1-0.1-0.2C9.5,5.1,9.5,5.1,9.6,5.2z"/>
	<path fill="#FFFFFF" d="M5.9,0C5.9,0,5.9,0,5.9,0C5.9,0,5.9,0,5.9,0C5.9,0,5.9,0,5.9,0C5.9,0,5.9,0,5.9,0z"/>
	<path fill="#FFFFFF" d="M15.7,3.6c-0.6-0.5-1-1.2-1.4-1.8c-0.4-0.6-0.6-1.2-1.5-0.7c-0.9,0.6-0.7,1.2-0.2,1.8
		c0.8,0.4,1.3,1,1.6,1.9c0.2,0.1,0.4,0.2,0.6,0.2c0.4,0.1,1,0.4,1.3-0.1C16.6,4.3,16,3.9,15.7,3.6z"/>
	<path fill="#FFFFFF" d="M2.6,0.4C1.3,1.1,0.8,2.5,0.1,3.7c-0.3,0.5,0.3,0.9,0.8,0.8c0.5,0,2.9-2.8,3-3.3C3.9,0.5,3.4,0,2.6,0.4z"/>
	<path fill="#FFFFFF" d="M9.6,5.2C9.5,5.1,9.5,5.1,9.5,5C9.3,4.6,9.3,4.3,9.3,3.9c-0.4,0-0.7,0-1.1,0C8,5.1,7.8,6.2,8.5,7.3
		c0.3,0.4,0.6,0.8,1.1,0.5c0.4-0.2,0.5-0.6,0.3-1.1C9.8,6.2,9.7,5.7,9.6,5.2z"/>
	<path fill="#FFFFFF" d="M14.3,4.7c-0.5-0.7-1-1.3-1.6-1.9C13,3.7,13.6,4.2,14.3,4.7z"/>
	<path fill="#FFFFFF" d="M12.7,2.9c0.6,0.6,1.1,1.2,1.6,1.9C14,3.9,13.4,3.3,12.7,2.9z"/>
	<path fill="#FFFFFF" d="M9.3,3.9L9.3,3.9L9.3,3.9C9,3.4,8.6,3.1,8.2,3.9C8.6,3.4,9,3.6,9.3,3.9z"/>
	<path fill="#FFFFFF" d="M9.3,3.9C9,3.6,8.6,3.4,8.2,3.9C8.6,3.9,9,3.9,9.3,3.9L9.3,3.9z"/>
	<path fill="#FFFFFF" d="M9.3,3.9c0.3,0.3,0,0.7,0.2,1.1c0,0.1,0.1,0.1,0.1,0.2C9.7,4.7,9.7,4.3,9.3,3.9L9.3,3.9L9.3,3.9z"/>
	<path fill="#FFFFFF" d="M9.3,3.9L9.3,3.9c0,0.4,0,0.8,0.2,1.1C9.4,4.6,9.6,4.2,9.3,3.9z"/>
	<polygon fill="#FFFFFF" points="9.3,3.9 9.3,3.9 9.3,3.9 	"/>
	<polygon fill="#FFFFFF" points="9.3,3.9 9.3,3.9 9.3,3.9 	"/>
	<polygon fill="#FFFFFF" points="9.3,3.9 9.3,3.9 9.3,3.9 	"/>
	<rect x="9.3" y="3.9" fill="#FFFFFF" width="0" height="0"/>
	<polygon fill="#FFFFFF" points="9.3,3.9 9.3,3.9 9.3,3.9 	"/>
</g>
</svg>
