<?xml version="1.0" encoding="utf-8"?>
<!-- Generator: Adobe Illustrator 18.0.0, SVG Export Plug-In . SVG Version: 6.00 Build 0)  -->
<!DOCTYPE svg PUBLIC "-//W3C//DTD SVG 1.1//EN" "http://www.w3.org/Graphics/SVG/1.1/DTD/svg11.dtd">
<svg version="1.1" id="Слой_1" xmlns="http://www.w3.org/2000/svg" xmlns:xlink="http://www.w3.org/1999/xlink" x="0px" y="0px"
	 viewBox="0 0 17.3 8.6" enable-background="new 0 0 17.3 8.6" xml:space="preserve">
<g>
	<path fill="#FFFFFF" d="M9.6,3.5c-0.7,0-0.7,0.8-0.8,1.6C9,5.9,9,6.9,9,7.9c0,0.4,0.3,0.6,0.7,0.7c0.4,0,0.5-0.2,0.7-0.5
		c0.4-1,0.6-2,0.5-3C10.8,4.4,10.4,3.5,9.6,3.5z"/>
	<path fill="#FFFFFF" d="M16.8,3.2C16,2.7,15.5,2,14.9,1.3c-0.5-0.6-0.9-0.7-1.4-0.2c-0.5,0.5-0.4,1,0,1.5c0.5,0.5,0.9,1,1.4,1.5
		c0.3,0.4,0.8,0.6,1.2,0.5c0.5,0,0.9,0,1.1-0.4C17.4,3.8,17.2,3.4,16.8,3.2z"/>
	<path fill="#FFFFFF" d="M3,0.2C2.1,0.8,1.3,1.3,0.4,1.8C0,2-0.1,2.4,0.1,2.9c0.3,0.6,0.7,0.4,1.1,0.2c1-0.4,1.8-1,2.6-1.6
		C4,1.3,4.2,1.1,4.2,0.7C4,0.2,3.6-0.3,3,0.2z"/>
</g>
</svg>
