<?xml version="1.0" encoding="utf-8"?>
<!-- Generator: Adobe Illustrator 18.0.0, SVG Export Plug-In . SVG Version: 6.00 Build 0)  -->
<!DOCTYPE svg PUBLIC "-//W3C//DTD SVG 1.1//EN" "http://www.w3.org/Graphics/SVG/1.1/DTD/svg11.dtd">
<svg version="1.1" id="Слой_1" xmlns="http://www.w3.org/2000/svg" xmlns:xlink="http://www.w3.org/1999/xlink" x="0px" y="0px"
	 viewBox="0 0 82.1 82.8" enable-background="new 0 0 82.1 82.8" xml:space="preserve">
<g>
	<path fill="#FFFFFF" d="M80.1,5.8c0.5,2,0.1,4,0.3,6c0.1,0.7-0.2,2,0.3,2c0.9-0.1,0.4-1.3,0.5-2c0.1-3.2,0.2-6.3,0-9.5
		c0-0.5,0-1-0.6-1.2c1-0.3,1,0.4,1,1c0,2.3,0.1,4.7,0,7c-0.1,3.3-0.2,6.5-0.2,9.8c0,2.5-0.1,5-0.2,7.4c-0.2,3.5,0.4,7,0.3,10.6
		c-0.1,2,0,4.1-0.1,6.1c0,0.6,0,1.1,0.2,1.7c0.4,1.2-0.3,2.2-1.5,2.1c-3.4-0.5-6.8-0.3-10.2-0.2c-0.2-0.5,0.1-0.8,0.5-1.1
		c1.3-0.6,2.8-0.4,4.1-0.3c1,0.1,2,0,3-0.2c1.5-0.2,2.1-1,2.2-2.5c0.3-3.7,0.3-7.4,0.3-11.2c0-0.8-0.1-1.7-0.2-2.5
		c0-3.5-0.1-6.9,0.1-10.4c0.1-0.1,0.2-0.2,0.3-0.3c0.8,0,0.6,0.6,0.7,1c0.1,0.6,0.1,1.3,0,1.7c0-1.4-0.2-3,0-4.6
		c-0.1,0.4-0.1,0.9-0.7,0.8c-0.1-0.1-0.2-0.2-0.3-0.3c-0.2-3.4-0.1-6.7-0.1-10.1C79.7,6.3,79.8,6,80.1,5.8z"/>
	<path fill="#FFFFFF" d="M70.4,45.8c-0.2,0.3-0.3,0.5-0.5,0.8c-2.3,0-4.5,0-6.8,0c-2.4,0.2-4.7,0.2-7.1,0l-0.1,0l-0.1,0
		c-1,0.2-1.9,0.2-2.9,0c-0.9,0-1.8,0.2-2.6,0.5c-0.4,0.5,0.1,1.1-0.3,1.6c0,1,0,1.9,0,2.9c-0.2,0.4-0.3,0.9,0,1.3c0,0.3,0,0.7,0,1
		c-0.4,1,0.1,2.1-0.3,3.1c0,3.1,0,6.1,0,9.2c-0.2,0.2-0.3,0.4-0.5,0.5c0,0.1,0,0.2,0,0.3c-0.8-0.1-0.6-0.7-0.6-1.2
		c0-1.9-0.1-3.7,0-5.6c0.1-3.4-0.4-6.9-0.3-10.3c0-1.6-1.1-2.7-2.7-2.7c-2.3,0-4.6-0.5-6.9-0.2c-0.5,0-1,0.1-1.6,0.2
		c-0.8,0-1.6,0.1-2.3-0.1c-0.4-0.5-1-1-0.2-1.7c5.2-0.1,10.3,0,15.5-0.1c0.8,0.1,1.6,0.1,2.3,0c1.6,0,3.2,0,4.8,0c0.5,0,0.9,0,1.4,0
		c0.5,0,1,0,1.6,0c0.6,0,1.2-0.2,1.8-0.2c2.4,0.1,4.8,0.2,7.2,0C69.6,45.2,70.3,45,70.4,45.8z"/>
	<path fill="#FFFFFF" d="M56,46.6c2.4,0,4.7,0,7.1,0C60.7,47,58.3,47,56,46.6z"/>
	<path fill="#FFFFFF" d="M49.2,66.8c0.2-0.2,0.4-0.3,0.5-0.5c-0.1,1.7,0.2,3.3-0.3,5C49.2,69.8,49.7,68.2,49.2,66.8z"/>
	<path fill="#FFFFFF" d="M49.7,57.1c0.1-1-0.4-2.2,0.3-3.1C49.9,55,50.2,56.1,49.7,57.1z"/>
	<path fill="#FFFFFF" d="M80.6,1.1c-0.9,0.4-1.9,0.3-2.9,0.3c-0.2-0.1-0.2-0.2,0-0.3C78.7,1.1,79.6,1.1,80.6,1.1z"/>
	<path fill="#FFFFFF" d="M52.8,46.6c1,0,1.9,0,2.9,0C54.8,47,53.8,47,52.8,46.6z"/>
	<path fill="#FFFFFF" d="M77.7,1.1c0,0.1,0,0.2,0,0.3c-0.9,0-1.8,0-2.6,0C75.9,0.9,76.8,1.1,77.7,1.1z"/>
	<path fill="#FFFFFF" d="M50,48.7c0-0.5-0.1-1.1,0.3-1.6C50.2,47.7,50.3,48.2,50,48.7z"/>
	<path fill="#FFFFFF" d="M50,52.9c-0.5-0.4-0.3-0.9,0-1.3C50,52,50,52.5,50,52.9z"/>
	<path fill="#FFFFFF" d="M0.8,21c0.2,0.9,0.1,1.7,0,2.6c-0.6,5.8,0,11.5,0.4,17.3c0.1,1.5,0.4,3,0.6,4.5c0.1,0.6,0.6,0.8,0.9,1.3
		c-0.9-0.3-1.3-1-1.4-1.9c-0.2-2.3-0.5-4.6-0.6-6.9c-0.3-5.4-0.5-10.9,0-16.3C0.6,21.4,0.7,21.2,0.8,21z"/>
	<path fill="#FFFFFF" d="M3.1,2.1C2,2.3,1.7,3,1.6,4c-0.3,3.7,0.5,7.4,0,11.1c-0.2,1.9-0.1,4-0.9,5.8C1,16.9,1.6,12.8,1.3,8.8
		c-0.2-1.8-0.3-3.6,0-5.5C1.5,2.2,2,1.6,3.1,2.1z"/>
	<path fill="#FFFFFF" d="M78.8,2.4c-0.5,0-1,0-1.6,0C77.7,1.8,78.2,2,78.8,2.4z"/>
	<path fill="#FFFFFF" d="M74.3,2.4c-0.5,0.3-1,0.2-1.6,0.3C73.2,2.3,73.8,2.4,74.3,2.4z"/>
	<path fill="#FFFFFF" d="M80.3,17c0-0.8-0.1-1.6,0.3-2.5c0.6,1,0.7,6.7,0.1,8.8c-0.6-1.9-0.3-3.5-0.4-5C80.2,17.9,80.1,17.5,80.3,17
		z"/>
	<path fill="#FFFFFF" d="M80.3,31.4c-0.4-0.7-0.2-1.6-0.3-2.4C80.5,29.8,80.3,30.7,80.3,31.4z"/>
	<path fill="#FFFFFF" d="M80.3,17c0,0.4,0,0.9,0,1.3c-0.1,0-0.2,0-0.3,0c0-0.4,0-0.9,0-1.3C80.2,17,80.3,17,80.3,17z"/>
	<path fill="#FFFFFF" d="M50.5,45.8c0.5,0,1,0,1.6,0C51.5,46.5,51,46.2,50.5,45.8z"/>
	<path fill="#FFFFFF" d="M60.2,45.8c0.5-0.3,1-0.2,1.6-0.3C61.3,45.9,60.7,45.8,60.2,45.8z"/>
	<path fill="#FFFFFF" d="M38.5,46.6c-0.4,0.3-0.9,0.3-1.3,0.3C37.5,46.6,38,46.6,38.5,46.6z"/>
	<path fill="#FFFFFF" d="M57.3,45.8c0.4-0.3,0.9-0.3,1.3,0C58.2,45.8,57.7,45.8,57.3,45.8z"/>
	<path fill="#FFFFFF" d="M28,80.9C28,80.9,28,80.9,28,80.9c0.3,1.6,1.5,1.3,2.6,1.2c1.1-0.1,2.1-0.3,3.2,0c0,0,0,0,0,0
		c0.1-0.1,0.2-0.2,0.4-0.2c0.8-0.1,1.6,0,2.4-0.3c0.5-0.2,1.1,0.1,1.6-0.1c3.1,0.2,6.2,0,9.4-0.2c0.5,0,1.1,0,1.6,0
		c0.2,0,0.4,0,0.6,0c1.3,0.1,1.4,0,1.5-1.2c-3.9,1.8-7.9,0.9-12,0.8c-0.3,0-0.7-0.1-1,0c-2.4,0.6-4.8,0-7.2,0
		c-0.5,0-0.9-0.1-1.1-0.6c-0.2-0.4,0.1-0.8,0.3-1.1c0.7-0.8,1.5-1.4,2.8-1.4c2.6,0,5.3-0.1,7.9,0.3c2.4,0.3,4.7-0.4,7.1-0.7
		c0.6-0.1,1.2,0.4,1.8,0.1c0,0,0,0,0,0c-0.8-0.6-1-1.4-0.9-2.5c0.1-1.4,0.1-2.9,0.2-4.3c0-1.4,0.2-2.7,0.3-4.1c0,0-0.1,0-0.1,0
		c0,0-0.1,0-0.1,0c0,0.1,0.1,0.2,0.1,0.3c-0.4,0.5-0.5,1.1-0.5,1.7c0,2.1,0,4.2-0.2,6.3c-0.1,0.8-0.3,1.3-1.2,1.4
		c-1.5,0.1-2.9,0.4-4.4,0.6c-0.3,0-0.7,0-1,0c-2.8,0-5.6,0-8.4,0c-0.7,0-1.4-0.2-1.8-0.8l0,0c-0.1,0-0.2,0-0.2,0c-0.2,0-0.3,0-0.5,0
		c-0.1,0.3-0.2,0.7-0.6,0.8c-0.8,0.3-1.1,0.9-1,1.8c0,0.4-0.1,0.9-0.7,0.8c-0.2,0.2-0.4,0.5-0.6,0.7C28,80.5,28,80.7,28,80.9
		L28,80.9z"/>
	<path fill="#FFFFFF" d="M49.7,81.3c-0.2,0-0.4,0-0.6,0c-0.5,0-1.1,0-1.6,0c-3.1,0.2-6.2,0.4-9.4,0.2c-0.5,0.2-1.1-0.1-1.6,0.1
		c-0.8,0.3-1.6,0.2-2.4,0.3c-0.2,0-0.3,0.1-0.4,0.2c0,0,0,0,0,0c0.1,0,0.2,0.1,0.3,0.1h0c0.9,0,1.7,0,2.6,0c0.4-0.5,0.9-0.2,1.3-0.3
		c-0.1,0.1-0.2,0.1-0.3,0.1c0.1,0,0.2-0.1,0.3-0.1c3.3,0.1,6.6,0,9.9-0.3c0.4,0,0.9,0,1.3,0l0,0l0,0c2.6,0.4,2.8,0.2,2.6-1.8
		c-0.2,0.1-0.4,0.2-0.6,0.3C51.1,81.3,51,81.4,49.7,81.3z"/>
	<path fill="#FFFFFF" d="M48.9,75.1c-0.1,1.1,0.1,1.8,0.9,2.5c0,0,0,0,0,0c0.1-0.1,0.3-0.2,0.4-0.4v0c-0.7-0.5-0.9-1.2-0.8-1.9
		c0-1.4,0-2.7,0.1-4.1c0.2-1.4,0.1-2.8,0.1-4.2c0-0.2-0.1-0.3-0.2-0.3c0,1.4-0.3,2.7-0.3,4.1C49,72.3,49,73.7,48.9,75.1z"/>
	<path fill="#FFFFFF" d="M29,78.7c0-0.8,0-1.6,1.1-1.7c0.4-0.1,0.4-0.5,0.6-0.8c0,0,0.1-0.1,0.1-0.1c-0.2-1.7-0.3-3.3-0.1-5
		c0.1-1,0.1-2.1,0.1-3.1c0.1-5.5,0.3-11,0.3-16.5c0-1-0.2-2-0.3-3c-0.1-0.5-0.4-0.8-0.8-1h0h0c0,0.1,0,0.2,0,0.3
		c0.1,0.2,0.3,0.5,0.3,0.7c0.5,4.5,0.3,9,0.2,13.5c0,3.7-0.2,7.4-0.4,11.1c-0.1,1.4,1,3.1-1,4.1c-0.2,0.1-0.2,0.5-0.2,0.8
		c0,0.5-0.1,1-0.3,1.5C29,79.5,29,79.1,29,78.7z"/>
	<path fill="#FFFFFF" d="M29.3,78.8c0-0.8,0.2-1.4,1-1.8c0.3-0.1,0.5-0.5,0.6-0.8h0c0-0.1,0-0.1,0-0.2c0,0-0.1,0.1-0.1,0.1
		c-0.1,0.3-0.2,0.7-0.6,0.8c-1.1,0.2-1.1,0.9-1.1,1.7c0,0.4,0,0.8-0.5,1C29.2,79.7,29.3,79.3,29.3,78.8z"/>
	<path fill="#FFFFFF" d="M33.7,82.5c-0.1-0.1-0.1-0.2,0-0.3c-0.1,0-0.1,0-0.2,0c-1,0-2,0-3,0.2c-0.7,0.2-1.5,0.1-2.2-0.2
		c-0.2-0.1-0.3-0.1-0.4-0.2c-0.3-0.2-0.4-0.4-0.3-0.7c0-0.1,0-0.2,0-0.3c0.1-0.2,0.2-0.4,0.3-0.6c-1.1,1.1-1,1.7,0.4,2.2
		c0.6,0.2,1.1,0.2,1.7,0.2C31.2,82.6,32.5,82.4,33.7,82.5L33.7,82.5C33.7,82.5,33.7,82.5,33.7,82.5z"/>
	<polygon fill="#FFFFFF" points="33.7,82.5 33.7,82.5 33.7,82.5 	"/>
	<path fill="#FFFFFF" d="M33.7,82.5C33.7,82.5,33.7,82.5,33.7,82.5c0-0.1,0-0.2,0-0.3c0,0,0,0-0.1,0C33.7,82.3,33.7,82.4,33.7,82.5z
		"/>
	<polygon fill="#FFFFFF" points="33.7,82.5 33.7,82.5 33.7,82.5 	"/>
	<path fill="#FFFFFF" d="M30.5,82.4c-0.8,0.2-1.5,0.1-2.3-0.2C28.1,82.1,28,82,27.9,82c0.1,0.1,0.2,0.2,0.4,0.2
		C29.1,82.5,29.8,82.6,30.5,82.4c1-0.2,2-0.2,3-0.2C32.5,82.2,31.5,82.2,30.5,82.4z"/>
	<path fill="#FFFFFF" d="M27.7,81.3c0-0.1,0.1-0.3,0.3-0.4l0,0c0-0.2,0-0.3,0-0.5c-0.1,0.2-0.2,0.4-0.3,0.6
		C27.7,81.1,27.7,81.2,27.7,81.3z"/>
	<path fill="#FFFFFF" d="M33.7,82.5L33.7,82.5c1.1,0.4,2.2,0.3,3.2,0C35.9,82.7,34.8,82.7,33.7,82.5z"/>
	<path fill="#FFFFFF" d="M33.7,82.5L33.7,82.5c1.1,0.2,2.2,0.2,3.2,0l0,0C35.9,82.5,34.8,82.5,33.7,82.5z"/>
	<rect x="33.7" y="82.5" fill="#FFFFFF" width="0" height="0"/>
	<polygon fill="#FFFFFF" points="33.7,82.5 33.7,82.5 33.7,82.5 	"/>
	<polygon fill="#FFFFFF" points="33.7,82.5 33.7,82.5 33.7,82.5 	"/>
	<rect x="33.7" y="82.5" fill="#FFFFFF" width="0" height="0"/>
	<path fill="#FFFFFF" d="M49.6,78.1c-2.6-0.3-5,0.7-7.5,0.5c-1.7-0.1-3.4-0.2-5.1-0.4c-1.2-0.1-2.3,0-3.5,0.1c2.9,0,5.9,0.2,8.8,0.3
		c1.9,0.1,3.8-0.4,5.7-0.6c1.2-0.1,1.7,0.3,2.1,1.3c0.2,0.4,0.2,0.7,0,0.8c0.2-0.1,0.3-0.2,0.4-0.3c0.2-0.2,0.3-0.3,0.5-0.3
		c-0.3-0.5-0.7-1-1-1.6C49.9,78.1,49.8,78.2,49.6,78.1z"/>
	<path fill="#FFFFFF" d="M32,80.3c-0.2,0-0.4,0.1-0.6,0.1c0.1,0,0.2,0.1,0.3,0.1c0.8,0,1.6,0.1,2.3,0.2C33.4,80.5,32.8,80.3,32,80.3
		z"/>
	<path fill="#FFFFFF" d="M40.8,80.6c0.1,0,0.1,0,0.2,0c2.6,0.4,5.2,0.1,7.7-0.1C46.1,80.7,43.4,80.7,40.8,80.6z"/>
	<path fill="#FFFFFF" d="M36,80.7c-0.1,0-0.1,0-0.2,0c0.3,0,0.6-0.1,0.9-0.1c0.5-0.1,1-0.2,1.4-0.2C37.4,80.4,36.7,80.4,36,80.7z"/>
	<path fill="#FFFFFF" d="M32.3,78.5C32.3,78.5,32.3,78.5,32.3,78.5c-0.4,0-0.7,0.2-0.9,0.5c-0.2,0.1-0.3,0.3-0.4,0.5
		C31.4,79.1,31.7,78.7,32.3,78.5z"/>
	<path fill="#FFFFFF" d="M50,78c0.3,0.6,0.7,1.1,1,1.6c0.3,0,0.5,0.1,0.8,0.3C51.3,79,51,78,50.2,77.3l0,0
		C50.3,77.6,50.2,77.9,50,78z"/>
	<path fill="#FFFFFF" d="M51,79.6c-0.2,0-0.3,0.1-0.5,0.3c-0.1,0.1-0.3,0.2-0.4,0.3c-0.1,0.1-0.4,0.2-0.7,0.2c-0.2,0-0.4,0-0.6,0
		c-2.6,0.2-5.1,0.5-7.7,0.1c-0.1,0-0.1,0-0.2,0c-0.5,0-1-0.1-1.5-0.1c-0.4,0-0.8-0.1-1.2-0.1c-0.5,0-1,0.1-1.4,0.2
		c-0.3,0.1-0.6,0.1-0.9,0.1c-0.6,0.1-1.1,0.1-1.6-0.1c-0.8-0.1-1.6-0.2-2.3-0.2c-0.1,0-0.2,0-0.3-0.1c-0.4,0.1-0.7,0.1-1.2-0.2
		c0.3-0.2,0.5-0.5,0.7-0.7c0.1-0.2,0.2-0.3,0.4-0.5c0.3-0.2,0.6-0.4,0.9-0.5c0,0,0,0,0,0c0.2-0.1,0.5-0.1,0.8-0.1c0.1,0,0.3,0,0.4,0
		c1.2-0.1,2.3-0.2,3.5-0.1c1.7,0.1,3.4,0.2,5.1,0.4c2.5,0.2,5-0.9,7.5-0.5c0.2,0,0.4,0,0.5-0.1c-0.1-0.1-0.1-0.3-0.2-0.4
		c-0.6,0.3-1.2-0.2-1.8-0.1c-2.4,0.3-4.7,1-7.1,0.7c-2.6-0.4-5.3-0.3-7.9-0.3c-1.2,0-2,0.6-2.8,1.4c-0.3,0.3-0.5,0.6-0.3,1.1
		c0.2,0.5,0.6,0.6,1.1,0.6c2.4-0.1,4.8,0.6,7.2,0c0.3-0.1,0.7,0,1,0c4,0.1,8.1,1,12-0.8c0-0.1,0-0.1,0-0.2
		C51.2,79.8,51.1,79.7,51,79.6z"/>
	<path fill="#FFFFFF" d="M51,79.6c0.1,0.1,0.1,0.2,0.2,0.3c0,0.1,0,0.1,0,0.2c0.2-0.1,0.4-0.2,0.6-0.3C51.5,79.7,51.3,79.6,51,79.6z
		"/>
	<path fill="#FFFFFF" d="M49.8,77.6c0.1,0.1,0.1,0.3,0.2,0.4c0.2-0.1,0.3-0.4,0.2-0.8C50.1,77.4,50,77.6,49.8,77.6z"/>
	<polygon fill="#FFFFFF" points="33.7,82.2 33.7,82.2 33.7,82.2 	"/>
	<path fill="#FFFFFF" d="M33.7,82.2C33.7,82.2,33.7,82.2,33.7,82.2c0.1,0,0.2,0,0.3,0l0,0C33.9,82.2,33.8,82.2,33.7,82.2L33.7,82.2z
		"/>
	<path fill="#FFFFFF" d="M28.4,82.1c0.7,0.2,1.5,0.4,2.3,0.2c1-0.3,2-0.2,3,0c0,0,0,0,0,0c0,0,0-0.1,0-0.1c-1.1-0.3-2.1-0.1-3.2,0
		c-1,0.1-2.3,0.4-2.6-1.2c0,0,0,0,0,0C27.6,81.5,27.8,81.9,28.4,82.1z"/>
	<path fill="#FFFFFF" d="M33.7,82.2c0.1,0,0.2,0,0.3,0C33.9,82.2,33.8,82.2,33.7,82.2C33.7,82.2,33.7,82.2,33.7,82.2z"/>
	<path fill="#FFFFFF" d="M33.7,82.2c-0.1,0-0.1,0-0.2,0C33.6,82.2,33.6,82.2,33.7,82.2C33.7,82.2,33.7,82.2,33.7,82.2
		C33.7,82.2,33.7,82.2,33.7,82.2z"/>
	<path fill="#FFFFFF" d="M27.7,81.3c-0.1,0.3,0,0.5,0.3,0.7C27.8,81.8,27.7,81.6,27.7,81.3z"/>
	<path fill="#FFFFFF" d="M33.7,82.2C33.7,82.2,33.7,82.2,33.7,82.2C33.7,82.2,33.7,82.2,33.7,82.2C33.7,82.2,33.7,82.2,33.7,82.2z"
		/>
	<path fill="#FFFFFF" d="M33.7,82.2c-1-0.2-2-0.2-3,0c-0.8,0.2-1.5,0.1-2.3-0.2c-0.6-0.2-0.8-0.6-0.5-1.2c-0.2,0.2-0.3,0.3-0.3,0.4
		c0,0.3,0.1,0.5,0.3,0.7c0.1,0.1,0.2,0.1,0.3,0.2c0.7,0.3,1.5,0.4,2.3,0.2c1-0.2,2-0.2,3-0.2C33.6,82.2,33.6,82.2,33.7,82.2z"/>
	<path fill="#FFFFFF" d="M36.6,82.2c0.4,0,0.7,0,1.1-0.1C37.3,82.2,36.9,81.9,36.6,82.2z"/>
	<path fill="#FFFFFF" d="M36.6,82.2c0.3-0.3,0.7-0.1,1.1-0.1c0.1,0,0.2-0.1,0.3-0.1C37.5,82,37,81.7,36.6,82.2z"/>
	<path fill="#FFFFFF" d="M47.9,81.7c0.4,0.3,0.9,0.3,1.3,0C48.8,81.8,48.3,82,47.9,81.7z"/>
	<path fill="#FFFFFF" d="M47.9,81.7c0.4,0.3,0.9,0.1,1.3,0l0,0C48.8,81.7,48.3,81.7,47.9,81.7z"/>
	<path fill="#FFFFFF" d="M31.4,48.6c0.6,3.2-0.1,6.5,0.1,9.7c0.1,1.4,0,2.7,0,4.1c0-0.1,0.1-0.2,0.1-0.3c0.4-1.1-0.1-2.3,0.3-3.4
		c-0.1-2.6,0.2-5.2,0.5-7.9c0.2-0.8-0.4-1.6-0.2-2.4c0-0.3,0-0.5,0-0.8h0c0.6-0.7,1.5-0.7,2.4-0.8l0,0c0.5-0.4,1.2-0.1,1.9-0.6
		c-0.8-0.3-1.6-0.1-2.1-0.5c-0.3-0.5-0.8-0.4-1.3-0.4c-1.3,0-2.6,0-3.9-0.2c-0.2,0-0.3,0-0.5,0c-1.9,0.3-3.9,0.3-5.8,0
		c-0.2,0-0.4,0-0.7,0c-0.5,0-1,0-1.6,0c-1.7,0-3.4,0-5.1,0c-2.7,0-5.4,0.1-8,0.5c-1.2,0.2-2.6,0.4-3.7-0.6c-0.8-1.2-0.5-2.5-0.3-3.8
		c0-0.4,0-0.8,0-1.2c-0.2-0.6-0.3-1.1-0.2-1.7c0-3.9-0.1-7.8,0-11.6c0-0.5,0-1,0-1.5c0-0.1,0-0.2,0-0.4c0-0.4,0.1-0.7,0.2-1.1
		c0-0.1,0-0.2,0-0.4c-0.1-0.5,0-0.9,0-1.4C3.2,20.1,3,18.3,3,16.5c0-4.1-0.1-8.2,0.2-12.3c0-0.2,0.1-0.4,0.3-0.5
		c0.9-0.4,1.9-0.4,2.8-0.4c0.4,0,1,0.1,1-0.6c-0.4,0-0.8-0.1-1-0.5c-1-0.5-1.9,0.3-2.9,0c-0.1,0-0.2,0-0.2,0c-1-0.3-1.6,0.2-1.7,1.2
		C1.3,4.5,1,5.8,1.2,7c0.7,4.7,0.2,9.3-0.4,14l0,0c-0.2,2-0.2,4-0.4,6.1c-0.3,3.3,0.2,6.6,0.3,9.9c0.1,2.6,0.3,5.2,0.7,7.7
		c0.1,0.9,0.6,1.5,1.2,2c0.5,0.6,1.1,0.7,1.8,0.7c1.9,0.1,3.8,0.3,5.7,0.3c2.7,0,5.4-0.3,8.1-0.3c2.9,0.1,5.9,0.3,8.8,0
		c1-0.1,2.1,0,3.1,0C31.2,47.1,31.3,47.8,31.4,48.6z"/>
	<path fill="#FFFFFF" d="M31.4,75.8c0-2.8,0-5.6,0-8.5c0-0.6,0-1.1,0.3-1.6l0,0v0c0-0.1,0-0.2,0-0.3c-0.2-0.4-0.2-0.9,0-1.3
		c0-0.4-0.1-0.7-0.2-1.1c-0.1,2.5-0.3,4.9-0.3,7.4c0,1.6-0.1,3.2-0.1,4.8c0,0.2,0,0.4,0,0.7C31.2,75.9,31.3,75.8,31.4,75.8z"/>
	<path fill="#FFFFFF" d="M31.1,75.9c0,0.1-0.1,0.2-0.2,0.3l0,0c0.2,0,0.3,0,0.5,0c0-0.1,0-0.2,0-0.4C31.3,75.8,31.2,75.9,31.1,75.9z
		"/>
	<path fill="#FFFFFF" d="M30.8,48.4c0.1,1,0.3,2,0.3,3c-0.1,5.5-0.2,11-0.3,16.5c0,1,0.1,2.1-0.1,3.1c-0.2,1.7-0.1,3.3,0.1,5
		c0.1-0.1,0.2-0.1,0.2-0.1c0.1-0.2,0-0.4,0-0.7c-0.1-1.6,0.1-3.2,0.1-4.8c-0.1-2.5,0.2-4.9,0.3-7.4c0-0.2,0-0.4,0-0.7
		c0.1-1.4,0.1-2.7,0-4.1c-0.2-3.2,0.5-6.5-0.1-9.7c-0.2-0.8-0.2-1.5-1.3-1.2h0C30.5,47.6,30.8,47.9,30.8,48.4z"/>
	<path fill="#FFFFFF" d="M31.1,75.9c-0.1,0-0.2,0.1-0.2,0.1c0,0.1,0,0.1,0,0.2h0l0,0C31,76.1,31,76,31.1,75.9z"/>
	<path fill="#FFFFFF" d="M33,47.9c0.1,0.1,0.1,0.1,0.2,0.2c4.1,0.2,8.2-0.6,12.3,0c1.6,0.2,1.9,0.4,2,2.1c0,1.2-0.1,2.4,0.1,3.7
		c0.4,4.4,0.2,8.7,0.1,13.1c0,2-0.2,3.9-0.3,5.9c-0.1,2.1-0.5,2.6-2.6,2.9c-0.2,0-0.3,0-0.5,0c-4,0.4-8,0.2-12,0.3
		c0,0.1-0.1,0.1-0.1,0.1c1.4,0.7,2.9,0.5,4.4,0.6c1.7,0.1,3.4,0,5.1,0c0.5,0,0.9,0,1.4-0.1c1-0.2,2.1-0.2,3.1-0.4
		c1.1-0.3,1.7-0.9,1.8-2c0.3-1.8,0.3-3.6,0.2-5.4c0-0.7,0.1-1.3,0.6-1.8c0.1-0.1,0.1-0.1,0.2-0.1c-0.4-1.5-0.2-3-0.1-4.5
		c0.2-4.5-0.4-9-0.3-13.6c0-1.1-0.4-2.1-1.6-1.9c-2.9,0.3-5.7-0.4-8.6-0.1c-0.4,0.3-0.9-0.1-1.3,0.3c-0.9,0-1.7,0-2.6,0h0
		C34.2,47.4,33.5,47.5,33,47.9z"/>
	<path fill="#FFFFFF" d="M48.3,68.7c0,1.8,0,3.6-0.2,5.4c-0.2,1.2-0.7,1.8-1.8,2c-1,0.2-2.1,0.1-3.1,0.4c-0.5,0.1-0.9,0.1-1.4,0.1
		c-1.7,0-3.4,0.1-5.1,0c-1.5-0.1-3,0.1-4.4-0.6c-0.1,0.1-0.1,0.1-0.2,0.2c-0.1,0-0.2,0-0.3,0h0l0,0h0l0,0c0.5,0.6,1.1,0.8,1.8,0.8
		c2.8,0,5.6,0,8.4,0c0.3-0.3,0.7-0.2,1,0c1.5-0.2,2.9-0.5,4.4-0.6c0.9-0.1,1.1-0.6,1.2-1.4c0.1-2.1,0.2-4.2,0.2-6.3
		c0-0.6,0.1-1.2,0.5-1.7c0-0.1-0.1-0.2-0.1-0.3c-0.1,0-0.2,0.1-0.2,0.1C48.3,67.4,48.3,68,48.3,68.7z"/>
	<path fill="#FFFFFF" d="M32.2,47.7c0.2,0,0.4,0,0.6,0c0.1,0.1,0.2,0.1,0.2,0.2c0.5-0.4,1.1-0.5,1.5-1C33.7,47,32.8,47,32.2,47.7z"
		/>
	<path fill="#FFFFFF" d="M31.6,75.9c-0.1,0.1-0.1,0.2-0.3,0.3c0.1,0,0.2,0,0.2,0c0,0,0,0,0,0C31.6,76.1,31.6,76,31.6,75.9z"/>
	<path fill="#FFFFFF" d="M31.6,65.7c-0.3,0.5-0.3,1.1-0.3,1.6c0,2.8,0,5.6,0,8.5c0.1,0,0.2,0,0.2,0c0,0,0,0,0,0
		C31.6,72.5,31.6,69.1,31.6,65.7L31.6,65.7z"/>
	<path fill="#FFFFFF" d="M31.6,75.9C31.6,75.9,31.6,75.9,31.6,75.9C31.6,75.9,31.6,75.9,31.6,75.9c-0.1,0-0.2,0-0.3,0
		c0,0.1,0,0.2,0,0.4C31.5,76.1,31.6,76,31.6,75.9z"/>
	<polygon fill="#FFFFFF" points="31.6,76.2 31.6,76.2 31.6,76.2 31.6,76.2 31.6,76.2 31.6,76.2 	"/>
	<path fill="#FFFFFF" d="M41.9,77c0.3,0,0.7,0,1,0C42.6,76.9,42.2,76.8,41.9,77z"/>
	<path fill="#FFFFFF" d="M41.9,77c0.3-0.2,0.7-0.1,1,0C42.6,76.7,42.2,76.7,41.9,77z"/>
	<path fill="#FFFFFF" d="M32.6,48.6c-0.1,0.9,0.4,1.8,0.2,2.7c-0.3,2.4-0.6,4.9-0.5,7.3c-0.2,1.1-0.3,2.2-0.2,3.3c0,0.7,0,1.5,0,2.2
		c-0.1,0.5,0,1.1,0,1.6c0,0.1,0,0.3-0.1,0.4c0.1,0.2,0.1,0.5,0.1,0.8c0,2.7,0,5.4,0,8.1c0,0.3,0,0.6-0.2,0.9c0,0,0.1,0,0.1,0
		c0.1,0,0.1,0,0.2-0.1c0,0,0.1,0,0.1,0c0.2-0.3,0.2-0.8,0.2-1.2c0.1-3.1,0-6.3,0.1-9.4c0.2-4.9,0.2-9.7,1-14.5
		c0.1-0.9,0.3-1.9-0.5-2.7c-0.1,0-0.3,0-0.4,0C32.7,48.2,32.6,48.4,32.6,48.6z"/>
	<path fill="#FFFFFF" d="M32,75.9C31.9,75.9,31.9,75.9,32,75.9c-0.1,0-0.1,0.1-0.2,0.1C31.9,76,31.9,75.9,32,75.9z"/>
	<path fill="#FFFFFF" d="M31.6,65.5c0,0.1,0,0.2,0,0.3v0c0.2,0.1,0.3,0.3,0.3,0.4c0-0.1,0-0.3,0.1-0.4c0-0.5,0-1.1,0-1.6
		c0-0.7,0-1.5,0-2.2c0-1.1,0-2.2,0.2-3.3c-0.1-2.5,0.3-4.9,0.5-7.3c0.1-0.9-0.3-1.8-0.2-2.7c0-0.2,0.1-0.4,0.2-0.5c0,0-0.1,0-0.1,0
		c-0.2,0-0.4-0.2-0.5-0.4l0,0h0c0,0.3,0,0.5,0,0.8c-0.1,0.8,0.5,1.5,0.2,2.4c-0.4,2.6-0.6,5.2-0.5,7.9c-0.4,1.1,0.1,2.3-0.3,3.4
		c-0.1,0.1-0.1,0.2-0.1,0.3c0,0.2,0,0.4,0,0.7c0,0.4,0.2,0.7,0.2,1.1C31.5,64.6,31.5,65,31.6,65.5z"/>
	<path fill="#FFFFFF" d="M31.5,63.1c0-0.2,0-0.4,0-0.7C31.4,62.6,31.4,62.9,31.5,63.1z"/>
	<path fill="#FFFFFF" d="M32.8,48c0.1,0,0.3,0,0.4,0c-0.1-0.1-0.1-0.1-0.2-0.2C33,47.9,32.9,47.9,32.8,48C32.8,48,32.8,48,32.8,48z"
		/>
	<path fill="#FFFFFF" d="M32,75.9C32,75.9,32,75.9,32,75.9c0.1,0,0.2,0.1,0.2,0.1c0,0,0.1-0.1,0.1-0.1c0,0-0.1,0-0.1,0
		C32.1,75.9,32,75.9,32,75.9z"/>
	<path fill="#FFFFFF" d="M32,75.9c-0.1,0-0.1,0.1-0.2,0.1c0,0.1-0.1,0.1-0.2,0.2c0.1,0,0.2,0,0.3,0c0.1-0.1,0.2-0.1,0.2-0.2
		C32.1,76,32.1,76,32,75.9C32,75.9,32,75.9,32,75.9z"/>
	<path fill="#FFFFFF" d="M32.7,48C32.8,48,32.8,48,32.7,48c0.1,0,0.1,0,0.1,0c0,0,0.1-0.1,0.1-0.1c-0.1-0.1-0.1-0.1-0.2-0.2
		c-0.2,0-0.4,0-0.6,0l0,0C32.3,47.8,32.5,48,32.7,48z"/>
	<path fill="#FFFFFF" d="M31.8,74.6c0,0.4,0.1,0.9-0.1,1.2c0.1,0,0.1,0,0.2,0C32,75.6,32,75.3,32,75c0-2.7,0-5.4,0-8.1
		c0-0.3,0-0.5-0.1-0.8c0,0,0,0,0,0C31.6,69,31.9,71.8,31.8,74.6z"/>
	<path fill="#FFFFFF" d="M31.8,76c0,0,0-0.1,0.1-0.1c-0.1,0-0.1,0-0.2,0c0,0,0,0,0,0c0,0.1,0,0.2,0,0.3C31.7,76.1,31.7,76.1,31.8,76
		C31.8,76,31.8,76,31.8,76z"/>
	<path fill="#FFFFFF" d="M31.8,74.6c0.1-2.8-0.2-5.6,0.2-8.5c0,0,0,0,0,0c-0.1-0.2-0.1-0.3-0.3-0.4c0,3.4,0,6.8,0,10.1c0,0,0,0,0,0
		C31.8,75.5,31.8,75,31.8,74.6z"/>
	<path fill="#FFFFFF" d="M31.6,75.9C31.6,75.9,31.6,75.9,31.6,75.9C31.7,75.9,31.7,75.9,31.6,75.9C31.7,75.9,31.7,75.9,31.6,75.9z"
		/>
	<path fill="#FFFFFF" d="M31.8,76c0,0.1-0.1,0.1-0.1,0.2c0,0,0,0,0,0h0C31.7,76.1,31.8,76.1,31.8,76C31.8,76,31.8,76,31.8,76z"/>
	<path fill="#FFFFFF" d="M22.8,45.6c2,0,4,0,6,0C26.8,46,24.8,46,22.8,45.6z"/>
	<path fill="#FFFFFF" d="M3.1,41.1c0,1.3,0,2.6,0,3.9C2.5,43.7,2.6,42.4,3.1,41.1z"/>
	<path fill="#FFFFFF" d="M32.2,48.5c0.3,0.8,0.7,1.5,0.2,2.4C32.3,50,31.7,49.3,32.2,48.5z"/>
	<path fill="#FFFFFF" d="M29,45.6c1.3,0.1,2.6-0.3,3.9,0.3C31.7,45.7,30.3,46.1,29,45.6z"/>
	<path fill="#FFFFFF" d="M31.9,58.7c-0.1,1.1,0.2,2.3-0.3,3.4C31.7,60.9,31.4,59.8,31.9,58.7z"/>
	<path fill="#FFFFFF" d="M2.9,38.3c0.3,0.6,0.2,1.2,0.3,1.8C2.9,39.5,2.3,38.9,2.9,38.3z"/>
	<path fill="#FFFFFF" d="M2.9,24.9c0.3,0.6,0.3,1.2,0,1.8C2.9,26.1,2.9,25.5,2.9,24.9z"/>
	<path fill="#FFFFFF" d="M20.7,45.6c0.5-0.3,1-0.3,1.6,0C21.7,45.6,21.2,45.6,20.7,45.6z"/>
	<path fill="#FFFFFF" d="M31.6,64.2c0,0.4,0,0.9,0,1.3C31.4,65,31.4,64.6,31.6,64.2z"/>
	<path fill="#FFFFFF" d="M2.9,3.4C2.8,3.6,2.7,3.8,2.6,4c-0.1,0-0.2-0.1-0.3-0.1C2.5,3.7,2.7,3.6,2.9,3.4z"/>
	<path fill="#FFFFFF" d="M3.1,23.6c0,0.4,0,0.7-0.3,1C2.7,24.2,2.8,23.9,3.1,23.6z"/>
	<path fill="#FFFFFF" d="M3.1,22c0,0.4,0,0.9,0,1.3C2.8,22.9,2.8,22.5,3.1,22z"/>
	<path fill="#FFFFFF" d="M73.3,6.8c0-0.1,0-0.2,0-0.3c1-0.2,2-0.3,3-0.2c0.9,0.1,1.2,0.6,1.2,1.4c-0.2,3.8-0.2,7.6,0,11.4
		c0.2,4.3,0,8.6-0.2,12.9c-0.1,0.5,0.2,1,0.3,1.5c0,2.5,0,5,0,7.6c0,0.9-0.4,1.4-1.3,1.5C74,42.6,72,42.9,69.9,43
		c-0.6-0.2-1.2-0.2-1.8,0c-13.2-0.1-26.4-0.6-39.5,0c-0.1-0.1-0.1-0.2-0.2-0.3c0-0.3,0.2-0.3,0.4-0.5c3,0,5.9,0,8.9,0
		c0.5-0.3,1.1,0.1,1.6-0.3c3.5,0,7,0.1,10.5-0.3c0.8,0.4,1.8-0.1,2.6,0.3c5.1,0.5,10.2-0.2,15.2,0c2.2,0.1,4.5-0.2,6.8-0.2
		c1.4,0,1.8-0.4,1.7-1.8c0-2.7-0.3-5.4-0.1-8.1c0.3-4.3,0.2-8.5,0.3-12.8c0.1-3.6,0-7.1-0.4-10.7c-0.1-0.7-0.5-1.1-1.2-1.2
		C74.2,7.1,73.7,7.1,73.3,6.8z"/>
	<path fill="#FFFFFF" d="M28.5,42.7c0,0.1,0,0.2,0,0.3c-0.2,0-0.4,0-0.5,0c-0.4-0.2-0.9-0.2-1.3,0c-3.8-0.1-7.5,0-11.3,0.1
		c-2.6,0.1-5.3,0.1-7.9,0.1c-1.5,0-1-1.2-1-2c0.2-0.4,0.2-0.9,0-1.3c0-0.6,0-1.2,0-1.8c-0.3-1.4,0.1-2.8-0.3-4.2
		c-0.1-0.4-0.2-0.7-0.3-1.1c0.2-2.2,0.2-4.4,0-6.5c0.5-1.4,0-3,0.5-4.5c0.3-0.6,0.1-1.2,0.1-1.8c0.1-0.4-0.1-0.9,0.1-1.3
		c0-0.5,0-1,0-1.6c0.1-0.5,0.4-1,0-1.6c0-0.3,0-0.5,0-0.8c0.9,0.3,0.7,1,0.7,1.7c0,2.7,0.2,5.3,0.6,8c0.5,0.4,0.4,0.9,0.4,1.4
		c0,1.1,0,2.1,0,3.2c-0.1,0.8-0.3,1.5-0.3,2.3c0,0.3-0.1,0.5-0.3,0.7c-0.9,0.1-0.1,0.4-0.1,0.6c0,0.1,0.1,0.2,0.1,0.4
		c0,0.5,0,1.1,0,1.6c0.1,1-0.3,2,0,3.1c0,0.1,0,0.2,0,0.4c-0.1,0.3-0.2,0.6-0.2,0.8c-0.1,0.5-0.1,0.9,0,1.4c0.1,0.4-0.1,0.8,0.1,1.2
		c0.4,0.6,0.9,0.9,1.6,0.5c1.2-0.3,2.5,0.1,3.7-0.3c0.1,0,0.2,0,0.3,0c0.5-0.3,1.1,0.1,1.6-0.3c2.7-0.3,5.2,0.7,7.9,0.6
		c1.6-0.1,3.3,0,4.9,0C28,42.1,28.4,42.3,28.5,42.7z"/>
	<path fill="#FFFFFF" d="M77.2,33.3c-0.3-0.4-0.3-0.7,0-1.1c0.1,0,0.2,0,0.3,0.1c0.5,3.1,0.2,6.2,0.2,9.3c0,0.8-0.3,1.5-1.3,1.5
		c0-0.1,0-0.2,0-0.3c0.5-0.3,0.7-0.7,0.9-1.1C77.3,38.8,77.5,36,77.2,33.3z"/>
	<path fill="#FFFFFF" d="M6,26.2c0.4,2.2,0.4,4.4,0,6.5C6,30.6,6,28.4,6,26.2z"/>
	<path fill="#FFFFFF" d="M6.3,33.8c0.5,1.4,0.3,2.8,0.3,4.2C6,36.6,6.4,35.2,6.3,33.8z"/>
	<path fill="#FFFFFF" d="M77.2,41.9c-0.1,0.4-0.4,0.7-0.8,0.8c-0.1,0-0.2,0-0.3,0c0.3-0.3,0.7-0.7,1-1
		C77.3,41.7,77.3,41.8,77.2,41.9C77.3,41.9,77.2,41.9,77.2,41.9z"/>
	<path fill="#FFFFFF" d="M6.8,15.5c0.7,0.5,0.3,1,0,1.6C6.8,16.5,6.8,16,6.8,15.5z"/>
	<path fill="#FFFFFF" d="M68,43c0.6-0.3,1.2-0.3,1.8,0C69.3,43,68.6,43,68,43z"/>
	<path fill="#FFFFFF" d="M6.8,20.2c0.1,0.6,0,1.1-0.3,1.6c0-0.5,0-1,0-1.6C6.6,20,6.7,20,6.8,20.2z"/>
	<path fill="#FFFFFF" d="M6.8,20.2c-0.1,0-0.2,0-0.3,0c0-0.5-0.1-1.1,0.3-1.6C6.8,19.1,6.8,19.7,6.8,20.2z"/>
	<path fill="#FFFFFF" d="M26.7,43c0.4-0.3,0.9-0.3,1.3,0C27.5,43,27.1,43,26.7,43z"/>
	<path fill="#FFFFFF" d="M6.5,39.8c0.3,0.4,0.3,0.9,0,1.3C6.5,40.7,6.5,40.3,6.5,39.8z"/>
	<path fill="#FFFFFF" d="M8.1,22.5c0.4,2.9,0.4,5.8,0,8.7c-0.2-0.7-0.2-1.4,0-2.1c0-1.6,0-3.1,0-4.7C8.1,23.8,8.1,23.1,8.1,22.5z"/>
	<path fill="#FFFFFF" d="M7.6,38c0.4,1,0.1,2.1,0.3,3.1c0,0.1,0,0.2,0,0.3c-0.3-0.3-0.4-0.6-0.5-1c0-0.5,0.3-1,0-1.6
		C7.2,38.4,7.3,38.2,7.6,38z"/>
	<path fill="#FFFFFF" d="M13.1,41.7c-1.2,0.4-2.4,0.3-3.7,0.3C10.6,41.4,11.8,41.8,13.1,41.7z"/>
	<path fill="#FFFFFF" d="M52.3,41.9c-0.9-0.1-1.8,0.2-2.6-0.3C50.6,41.7,51.5,41.5,52.3,41.9z"/>
	<path fill="#FFFFFF" d="M39.2,41.9c-0.5,0.3-1,0.2-1.6,0.3C38.2,41.9,38.7,41.9,39.2,41.9z"/>
	<path fill="#FFFFFF" d="M28.5,42.7c-0.3-0.3-0.5-0.5-0.8-0.8c0.3,0.1,0.7,0.2,1,0.3C28.7,42.4,28.6,42.5,28.5,42.7z"/>
	<path fill="#FFFFFF" d="M14.9,41.4c-0.5,0.3-1,0.2-1.6,0.3C13.8,41.3,14.4,41.4,14.9,41.4z"/>
	<path fill="#FFFFFF" d="M77.2,41.9c0-0.1,0-0.2,0-0.3c0-2.8,0-5.6,0-8.4c0.5,1.4,0.2,2.9,0.2,4.4C77.4,39.1,77.7,40.5,77.2,41.9z"
		/>
	<path fill="#FFFFFF" d="M7.8,34.6c-0.1,1-0.2,2.1-0.3,3.1c-0.6-1-0.1-2.1,0-3.1C7.7,34.4,7.7,34.4,7.8,34.6z"/>
	<path fill="#FFFFFF" d="M8.1,31.4c-0.1,1,0.1,2-0.3,2.9C7.5,34,7.7,33.5,7.6,33c0-0.1,0-0.2,0-0.3c0.1-0.3,0.1-0.5,0-0.8
		c0.1-0.2,0.2-0.3,0.3-0.5C7.9,31.3,8,31.3,8.1,31.4z"/>
	<path fill="#FFFFFF" d="M7.6,33c0.3,0.4,0.3,0.9,0.3,1.3c0,0.1,0,0.2,0,0.2c-0.1,0-0.2,0-0.3,0C7.4,34.1,7.3,33.5,7.6,33z"/>
	<path fill="#FFFFFF" d="M8.1,31.4c-0.1,0-0.2,0-0.3,0c0.1-0.8-0.2-1.6,0.3-2.4c0,0.7,0,1.4,0,2.1C8.1,31.3,8.1,31.4,8.1,31.4z"/>
	<path fill="#FFFFFF" d="M7.3,38.8c0.3,0.5,0.3,1,0,1.6C7.1,39.8,7.3,39.3,7.3,38.8z"/>
	<path fill="#FFFFFF" d="M7.6,32c0.2,0.3,0.2,0.5,0,0.8C7.3,32.5,7.3,32.2,7.6,32z"/>
	<path fill="#FFFFFF" d="M30.5,25.2c2.9,0,5.9,0,8.8,0c3.8,0,7.6-0.1,11.4-0.2c2.1,0,4.3,0.1,6.4,0.1c0.5,0,0.7,0.3,0.8,0.7
		c0.1,0.4,0,0.8-0.5,1c-0.5,0.1-1,0.3-1.4,0.3c-3.2-0.5-6.4-0.2-9.6,0c-1.8,0.1-3.5-0.2-5.3-0.2c-4.1,0-8.2,0.3-12.2,0.5
		c-1.5,0.1-3,0.1-4.4-0.2c-0.5-0.1-1.1-0.2-1.2-0.8c0-0.7,0.6-0.9,1.2-0.9C26.6,25.2,28.6,25.2,30.5,25.2
		C30.5,25.2,30.5,25.2,30.5,25.2z"/>
	<path fill="#FFFFFF" d="M33.5,28.6c2.1,0.6,4.2,0.2,6.4,0.4c2.5,0.2,5.1-0.1,7.7-0.2c1,0,1.9,0.1,2.9-0.2c0.6-0.2,0.9,0.2,1,0.8
		c0,0.5-0.2,0.9-0.7,0.9c-1.9,0.2-3.8,0.3-5.8,0.4c-3.2,0.1-6.3-0.4-9.5,0.1c-1.1,0.2-2.2-0.3-3.3-0.1c-0.4,0-0.7-0.3-0.8-0.7
		c-0.1-0.4,0.1-0.7,0.4-0.9C32.1,28.6,32.8,28.6,33.5,28.6z"/>
	<path fill="#FFFFFF" d="M39.1,23.5c-2.2,0-4.3,0-6.5,0c-0.6,0-1.3,0.1-1.3-0.7c0-0.8,0.8-1.2,1.3-1.2c2.3,0.3,4.7,0,7,0.2
		c2.8,0.3,5.5,0,8.3-0.3c0.6-0.1,1.2-0.1,1.8-0.1c0.5,0,1,0.2,1,0.8c0,0.7-0.5,0.9-1,0.9c-1.4,0-2.9,0.2-4.3,0.3
		C43.3,23.6,41.2,23.6,39.1,23.5C39.1,23.5,39.1,23.5,39.1,23.5z"/>
	<path fill="#FFFFFF" d="M21.5,13.6c0-0.1-0.1-0.1-0.1-0.2C21.4,13.5,21.4,13.6,21.5,13.6z"/>
	<path fill="#FFFFFF" d="M6.2,2.1c-1-0.1-1.9,0.6-2.9,0C4.5,2,5.6,1.9,6.8,1.8c0.1,0,0.3,0,0.4,0c3.8-0.3,7.5-0.6,11.3-0.7
		c4.8-0.1,9.6-0.5,14.4-0.7c3.3-0.1,6.7-0.1,10,0c0.1,0,0.3,0,0.4,0.1c0,0,0.1,0,0.1,0c0.1,0,0.2,0.1,0.2,0.1l0,0l0,0l0,0
		c0.1,0,0.1,0,0.2,0c0-0.3,0.2-0.4,0.5-0.4c1,0,2-0.1,3,0.1c-0.2-0.1-0.5-0.2-0.7-0.2c-3,0-6.1-0.1-9.1-0.1
		c-5.7,0.1-11.3,0.7-16.9,0.7c-6.1,0-12.1,0.8-18.2,0.9C1.5,1.6,1.1,2,0.9,2.9C0.7,4.5,0.7,6,0.8,7.5c0.2,2.6,0.5,5.3,0.1,7.9
		c-0.5,4-0.8,8-0.9,12.1c-0.2,5.7,0.3,11.4,0.7,17c0.1,1.7,1.3,3,3.1,3.1C5.6,47.7,7.3,48,9.1,48c4.4,0,8.8-0.4,13.1-0.1
		c2.6,0.2,5.2-0.5,7.8-0.1c0.1-0.1,0.1-0.3,0.1-0.4c-0.3-0.5-0.7-0.5-1.2-0.5c-2.7,0-5.4,0.2-8.1,0c-3.3-0.2-6.6,0.2-9.9,0.2
		c-2.1,0-4.2-0.2-6.3-0.2c-0.7,0-1.2-0.3-1.6-0.7c-1.1-0.9-1.5-2.1-1.5-3.6c0-2.3-0.3-4.5-0.3-6.8c-0.1-2.2-0.3-4.4-0.2-6.6
		c0.1-2.6,0-5.3,0.6-7.9c0-0.1,0.1-0.3,0.1-0.5c-0.1-0.6-0.4-1.2-0.3-1.9c0.7-3.1,0.3-6.2,0.4-9.4c0-1.3,0.1-2.6,0-3.9
		C1.4,4,1.7,3.4,3.2,2.7c0.2,0,0.3,0,0.5,0c0.8-0.1,1.7-0.3,2.5-0.4c0,0,0-0.1,0-0.1C6.2,2.2,6.2,2.2,6.2,2.1z"/>
	<path fill="#FFFFFF" d="M67.9,7.2c-0.5,0-1,0-1.5-0.1C67,7.3,67.5,7.3,67.9,7.2z"/>
	<path fill="#FFFFFF" d="M81,10.3c0-1.6,0.5-3.3-0.2-4.9c-0.2-0.5-0.1-1.1,0.1-1.5c0.3-0.7,0.1-1.2-0.5-1.6
		c-0.1-0.1-0.2-0.1-0.4-0.2c-0.8-0.1-1.5-0.6-2.4-0.5C76.8,1.8,76,2,75.1,1.9c-0.3,0-0.6,0-0.9,0c-1.4,0-2.7,0-4-0.3
		c-0.9-0.2-1.7-0.1-2.6,0.1c-0.9,0.2-1.8,0.3-2.7,0.2c-0.4-0.1-0.9-0.1-1.3-0.2c-0.9,0-1.9-0.1-2.8,0c-0.1,0-0.3,0.1-0.4,0.1
		c-0.4,0.1-0.8-0.1-1.1,0C58,1.9,57,1.6,55.8,1.7c-0.9,0-1.7,0-2.6,0c-0.1,0-0.3,0-0.4,0c-0.4,0-0.8,0-1.3-0.1c-0.9-0.1-1.9,0-2.8,0
		c-0.9-0.2-1.9-0.2-2.8-0.3c-0.7-0.2-1.5,0-2-0.7c-0.1,0.1-0.2,0.2-0.3,0.3c-0.7,0.3-1.5,0.2-2.2,0.1c-2.9-0.6-5.7-0.2-8.6-0.1
		C30.8,1,28.7,1,26.6,1.2c-0.9,0.1-1.7,0.1-2.6,0.3c-1.1,0.2-2.1,0.2-3.2,0.1c-2.4-0.3-4.8-0.1-7.1,0.2c0,0,0,0-0.1,0
		c0,0-0.1,0-0.1,0c-0.1,0-0.2,0-0.3,0c-1.8,0.3-3.7,0.2-5.5,0.3c-0.5,0-1,0.1-1.5,0.1C6.2,3,6.7,3,7.2,3c0.7,0,1.5,0.1,2.2,0
		c1.9-0.4,3.5,0.1,5,1.2c0.1,0,0.2,0.1,0.3,0.1c0-0.1,0-0.2,0-0.4c0.9,0,0.7-1.2,1.6-1.3l0,0c3,0.1,5.9-0.3,8.9,0.3v0
		c0.3,0.3,0.4,0.6,0.2,1.1c-0.1,0.3-0.4,0.6,0,0.8c0.4,0.2,0.7,0,1-0.3c0.4-0.5,0.8-0.9,1.3-1.3c0.9-0.9,2-1,3.2-0.9
		c1,0.1,2.1,0.1,3.1,0.2c0.7,0,1.2,0.3,1.5,1c0.3,1,0.8,0.6,1.2,0c0.3-0.6,0.7-0.8,1.4-0.8c2.7,0,5.4,0,8,0c0.5,0,1-0.1,1.2,0.5
		c0.2,0.6,0.1,1-0.4,1.4v0c-0.5,0.5-1,1-1.6,1.6c0.1,0.5,0.4,0.8,0.9,0.8c1.4,0,2.8,0,4.2,0c0-0.1,0-0.2,0-0.3
		c-0.7-0.1-1.4-0.1-2.1-0.2c-0.4-0.1-0.9,0.1-1.1-0.5c-0.1-0.5,0.2-0.8,0.6-1.1l0,0v0C48,4.7,48,4.6,48.1,4.5l0,0
		c-0.2-1,0.7-0.5,1.1-0.8c0.2-0.7,0.7-0.8,1.3-0.8c1.4,0,2.9,0,4.3,0c1,0,1.9,0.4,2.5,1.2c0.3,0.4,0.7,0.7,0.4,1.3
		c-0.3,0.5-0.7,0.7-1.3,0.7c-1.4,0-2.9,0-4.3,0.1c-0.3,0-0.6,0-1,0.5c1.9,0.2,3.8,0.5,5.6,0c1.8-0.5,3.1-0.3,4.1,1.3
		c0.3,0.4,0.6,0.7,0.9,1.1c0.6,0.7,1.2,0.7,1.9,0c0.4-0.4,0.7-0.8,1.2-1h0c0.3-0.3,0.5-0.5,0.8-0.8v0l0,0c0.2-0.1,0.3-0.2,0.5-0.3
		c0.1-0.2,0-0.6,0.4-0.5c0.3,0.1,0,0.3-0.1,0.5c0.5,0,1.1,0.1,1.6-0.3c0.1,0,0.1,0,0.2,0c0-0.4-0.3-0.9,0-1.3
		c0.2-0.4,0.5-0.6,0.9-0.7c1.1-1,2.3-1.7,3.8-1.8c0.5-0.1,1-0.2,1.6-0.2c0.8,0,1.6,0,2.4,0c0.5,0,1-0.2,1.5,0.1
		c0.9,0.9,1.3,2.1,1.4,3.3c0.2,0.9,0.2,1.9,0.2,2.9c0,1.4,0,2.8,0,4.2c0,0.4,0,1,0.6,1c0.2,0,0.3,0,0.4-0.1C81,12.9,81,11.6,81,10.3
		z M14,2.4c-0.2,0-0.3-0.1-0.3-0.3c0,0-0.2-0.2,0-0.2c0.1,0,0.3,0.1,0.4,0.2C14.1,2.2,14.1,2.4,14,2.4z M67.3,4.2L67.3,4.2
		c-0.4,0.8-1,1.4-1.6,2.1l0,0l0,0c-0.3,0.4-0.6,0.8-1.1,1.1c-0.3,0.2-0.5,0.4-0.8,0.5l0,0v0c-0.8,0.4-2.1,0-2.4-0.9
		c-0.2-0.4-0.3-0.8-0.4-1.2l0,0l0,0l0,0l0,0c-0.6-0.1-0.9-0.5-1-1c0-0.2,0-0.3-0.1-0.5l0,0c-0.4-1,0.4-1,0.9-1
		c0.9-0.1,1.9-0.1,2.8-0.1l0,0c0.9-0.5,1.9-0.2,2.9-0.3C67,3.2,67.8,3.3,67.3,4.2z M67.8,5.3c-0.1-0.9,0.6-0.7,1.1-0.8
		C68.6,4.9,68.2,5.1,67.8,5.3z"/>
	<path fill="#FFFFFF" d="M6.8,1.8c0.1,0,0.3,0,0.4,0C7,1.7,6.9,1.8,6.8,1.8z"/>
	<path fill="#FFFFFF" d="M43.9,0.6c-0.1,0-0.1,0-0.2,0l0,0c-3.3,0.1-6.6,0.1-9.9,0.2c-6.1,0.2-12.2,0.5-18.2,0.7
		c-0.6,0-1.3-0.1-1.9,0.4c2.4-0.3,4.8-0.5,7.1-0.2C21.9,1.7,23,1.7,24,1.5c0.9-0.2,1.7-0.2,2.6-0.3C28.7,1,30.8,1,32.8,0.9
		c2.9-0.1,5.7-0.5,8.6,0.1c0.7,0.1,1.5,0.2,2.2-0.1C43.7,0.8,43.8,0.7,43.9,0.6C43.9,0.6,43.9,0.6,43.9,0.6
		C43.9,0.6,43.9,0.6,43.9,0.6z"/>
	<path fill="#FFFFFF" d="M43.5,0.4c0,0-0.1,0-0.1,0c0.1,0,0.2,0.1,0.3,0.1C43.6,0.5,43.5,0.4,43.5,0.4z"/>
	<path fill="#FFFFFF" d="M13.2,1.9c0.1,0,0.2,0,0.3,0c-0.4-0.1-0.7-0.2-1-0.2C10.4,1.8,8.3,2,6.3,2.1c0,0,0,0,0,0
		c0,0-0.1,0.1-0.1,0.2c0,0,0,0.1,0,0.1c0.5-0.1,1-0.1,1.5-0.1C9.5,2.1,11.3,2.2,13.2,1.9z"/>
	<polygon fill="#FFFFFF" points="43.7,0.6 43.7,0.6 43.7,0.6 	"/>
	<path fill="#FFFFFF" d="M6.8,1.8C5.6,1.9,4.5,2,3.4,2.1c1,0.6,1.9-0.1,2.9,0C6.4,2,6.6,1.8,6.8,1.8z"/>
	<path fill="#FFFFFF" d="M13.2,1.5c0.2,0,0.3,0,0.5-0.1c1.5-0.2,2.9-0.2,4.4-0.2c3.5,0,7-0.3,10.5-0.5c4.9-0.2,9.9-0.4,14.8-0.3
		c-0.1-0.1-0.3-0.1-0.4-0.1c-3.3,0-6.7-0.1-10,0C28.1,0.6,23.3,1,18.5,1.1c-3.8,0.1-7.5,0.3-11.3,0.7c0,0,0,0,0,0
		C9.2,2,11.2,1.3,13.2,1.5z"/>
	<path fill="#FFFFFF" d="M13.6,1.9C13.6,1.8,13.6,1.8,13.6,1.9C13.6,1.8,13.5,1.8,13.6,1.9C13.5,1.9,13.6,1.9,13.6,1.9z"/>
	<path fill="#FFFFFF" d="M15.5,1.5c6.1-0.3,12.2-0.5,18.2-0.7c3.3-0.1,6.6-0.1,9.9-0.2l0,0c-0.1,0-0.2-0.1-0.3-0.1
		c-4.9-0.1-9.9,0.1-14.8,0.3c-3.5,0.2-7,0.5-10.5,0.5c-1.5,0-2.9,0-4.4,0.2c-0.2,0.1-0.3,0.1-0.5,0.1c-2-0.2-4,0.5-6,0.3
		c0,0,0,0,0,0c-0.1,0-0.3,0-0.4,0C6.6,1.8,6.4,2,6.2,2.1c0,0,0,0,0,0c2.1-0.2,4.1-0.4,6.2-0.5c0.3,0,0.7,0.1,1,0.2
		c0.1,0,0.1,0,0.2,0C14.2,1.4,14.9,1.5,15.5,1.5z"/>
	<path fill="#FFFFFF" d="M43,9.8c-0.2,0.2-0.4,0.4-0.6,0.6C42.6,10.4,42.8,10.2,43,9.8z"/>
	<path fill="#FFFFFF" d="M8.1,8.3c0-1.2,0.4-1.7,1.6-1.9c1.9-0.2,3.8-0.1,5.7-0.2c1.4,0,1.7,1.3,2.3,2.2c0.5,0.1,0.9,0.3,1.1,0.8
		c-0.4-0.2-0.9-0.3-1.1-0.8c-0.2-0.1-0.4-0.1-0.4-0.2c-0.9-2-2.6-1.7-4.3-1.7c-4.6,0-4.5,0-4.6,4.4c-0.1,3.2,0,6.5,0.1,9.7
		c0-0.9,0-1.9,0-2.8c0-3-0.2-6,0.2-9C8.8,8.1,9,7.5,9.8,7.4c1.5-0.3,3-0.7,4.5-0.4c1.2,0.2,2,0.7,2.6,1.7c0.1,0.1,0.2,0.2,0.3,0.3
		c0.3,0.4,0.7,0.6,1,0.9c1.1,1.5,1.6,1.5,3.2,0.7c0.8-0.4,1.4-1,2-1.6c0.7-0.7,1.4-1.5,2.5-1.4c1.6,0.2,3.1-0.1,4.7-0.1
		c1.3,0,2.6,0.5,3.9,0.2c1.8-0.3,3.3,0.2,4.5,1.4c0.4,0.5,1,0.8,1.6,1c0.2,0.1,0.4,0.2,0.6,0.2c-0.7-0.5-1.3-1.2-1.8-2
		C40,8.5,40.2,9,40.6,9.4c1.1,1,1.4,1,2.3-0.2l0,0c0.1-0.5-0.1-0.7-0.6-0.8c-0.4-0.1-0.7-0.2-1-0.5l0,0l0,0
		c-0.7-0.6-1.4-1.2-2.1-1.8v0c-0.8-0.7-1.6-1.4-2.3-2.2c-0.9,0.9-1.3,0.9-2-0.3c-0.4-0.6-0.7-0.7-1.4-0.7c-0.9,0-1.8,0.1-2.7,0
		c-1.8-0.3-3.1,0.5-4,1.8c-0.3,0.5-0.7,0.9-1.3,0.8c-0.5-0.1-0.8-0.5-0.8-1c-0.4,0.4-0.9,0.8-1.3,1.2v0C22.6,6,22,6.7,21.4,7.4l0,0
		c-0.6,0.8-1.3,0.9-2.1,0.2c-1.1-1-2.1-2-3-3.2c-0.2-0.3-0.3-0.5-0.3-0.8c-0.1,0.1-0.2,0.2-0.3,0.3c-0.3,0.4-0.6,0.5-1,0.4
		c0,0.6-0.4,0.8-1.1,1C12,5.6,10.3,5.7,8.7,5.4c-1.1-0.2-1.8,0.3-2,1.4C6.6,7.3,6.5,7.9,6.6,8.4c0.2,2.1,0.2,4.2,0.2,6.3
		c0.5,0.5,0.4,1.2,0.4,1.8c-0.1,2.2,0.2,4.5,0.1,6.7c0,0.5,0.1,1.2,0.9,1.1c0,0,0,0,0.1-0.1c0-0.6-0.1-1.2-0.1-1.8
		C8.1,17.8,7.9,13.1,8.1,8.3z M27,4.7c0.7-0.5,1-1.6,2.1-1.6c1.6,0,3.2,0,4.8,0c1.4,0,0.9,1.4,1.9,2.2c-3.1,0.1-5.8,0-8.5-0.1
		C27.1,5.1,26.9,4.9,27,4.7z"/>
	<path fill="#FFFFFF" d="M15.7,3.9c0.1-0.1,0.2-0.2,0.3-0.3c0-0.3,0-0.6,0.2-0.9c-0.8,0.1-0.7,1.3-1.6,1.3c0,0.1,0,0.3,0,0.4
		C15.1,4.4,15.4,4.3,15.7,3.9z"/>
	<path fill="#FFFFFF" d="M25.4,5.4c0.7,0.2,1-0.3,1.3-0.8c1-1.4,2.2-2.2,4-1.8c0.9,0.2,1.8,0,2.7,0c0.7,0,1,0.2,1.4,0.7
		c0.7,1.2,1.1,1.3,2,0.3c-0.1-0.1-0.2-0.3-0.3-0.4c-0.4,0.5-0.8,1-1.2,0c-0.3-0.8-0.8-1-1.5-1c-1-0.1-2.1,0-3.1-0.2
		c-1.2-0.1-2.3,0-3.2,0.9c-0.4,0.4-0.9,0.9-1.3,1.3c-0.3,0.3-0.6,0.5-1,0.3c-0.4-0.2-0.1-0.5,0-0.8c0.2-0.4,0.1-0.8-0.2-1.1
		c0,0.6-0.2,1.1-0.5,1.5C24.6,4.9,24.9,5.2,25.4,5.4z"/>
	<path fill="#FFFFFF" d="M73.3,6.8c-1.7,0.2-3.4,0.4-5.2,0.4c-0.3,0.4-0.8,0.3-1.2,0.3c-0.1,0-0.2-0.1-0.3-0.1
		c-0.1,0-0.1-0.2-0.1-0.2c0,0.1,0,0.1-0.1,0.2c-0.1,0.1-0.2,0.2-0.3,0.3c0.1,0,0.1,0,0.2,0C66.1,7.8,66,7.9,65.9,8
		c0.1,0.1,0.2,0.1,0.3,0.2c0.4,0.1,0.7,0.2,1.1,0.2c1.6,0,3.1-0.2,4.7-0.1c2.4,0.1,2.9,0.5,3,2.9c0.1,2.4,0.1,4.7,0.1,7.1
		c0.1,6.8-0.5,13.6-0.2,20.4c0.1,1.3-0.4,1.8-1.8,1.9c-1.1,0.1-2.2,0-3.3,0.1c-4.7,0.4-9.5,0.4-14.2,0.3c-5-0.2-9.9-0.1-14.9-0.1
		c-0.5,0-1,0-1.4,0.1c-3.5,0.5-7,0.2-10.4,0.1c-3.6-0.1-7.2,0-10.8-0.5c-3.3-0.5-6.6,0-9.9,0.5c0,0.1,0,0.2,0,0.3
		c-0.1,0-0.2,0-0.3,0c0,0,0-0.1-0.1-0.1c0,0,0,0,0,0c-0.1,0.1-0.2,0.3-0.2,0.5c0.2,1.3,1.1,1.3,2,1.2c1.1-0.2,2.3-0.2,3.4-0.2
		c0.1,0,0.3,0,0.4-0.1c0.6-0.1,1.2-0.1,1.8-0.2c1.7-0.4,3.4,0.2,5.1,0.3c2.4,0.1,4.8-0.2,7.2-0.1c0.4,0.1,0.9,0.2,1.4,0.2
		c2.1-0.1,4.2-0.2,6.3-0.1c0.8,0,1.6,0.3,2.4,0c0.6-0.2,1.2-0.2,1.9-0.1c3.4,0.1,6.8-0.1,10.2-0.1c0.9,0.1,1.8,0,2.7,0.1
		c2,0,3.9,0.3,5.9,0.2c5.4-0.2,10.7-0.1,16.1-0.4c1.8-0.1,2.3-0.5,2.3-2.4c0.1-2.8-0.3-5.7-0.1-8.5c0.2-3.4,0.1-6.7,0.2-10.1
		c0.1-3.8-0.1-7.6-0.2-11.4C76.5,6.8,76.3,6.8,73.3,6.8C73.3,6.8,73.3,6.8,73.3,6.8z"/>
	<path fill="#FFFFFF" d="M66.1,7.7c0.1-0.1,0.2-0.2,0.3-0.3c0-0.1,0.1-0.1,0.1-0.2c0.1,0.1,0.1,0.2,0.1,0.2c0.1,0.1,0.2,0.1,0.3,0.1
		c0.4,0,0.9,0.1,1.2-0.3c0,0-0.1,0-0.1,0c-0.5,0.1-1,0.1-1.5-0.1c-0.1,0-0.2,0-0.3,0c-0.2,0.1-0.3,0.2-0.5,0.3l0,0
		c0,0.1,0,0.2,0,0.3C65.8,7.7,65.9,7.7,66.1,7.7z"/>
	<path fill="#FFFFFF" d="M56.1,3.7C56,3.7,56,3.7,56.1,3.7c-0.1,0-0.1,0-0.1,0c0,0,0,0-0.1,0c0.3,0.1,0.6,0.3,0.8,0.5
		C56.6,4,56.3,3.9,56.1,3.7z"/>
	<path fill="#FFFFFF" d="M42.6,8c0.1,0,0.1,0,0.2,0.1c0.5,0.2,0.7,0.5,0.6,0.9c0.8-0.5,1.4-1.4,2.4-1.6c-0.7,0.9-1.6,1.4-2.4,2.1
		c0.2,0,0.4-0.2,0.6-0.3c0.6-0.4,1.3-0.6,2-0.9c0.9-0.1,1.7-0.1,2.6-0.2c2.6-0.2,5.1,0.1,7.7-0.2c1.9-0.3,3.3,0.3,4.4,1.7
		c0.1,0.2,0.3,0.3,0.4,0.5c1.2,1.2,2,1.2,3.2,0.1c0.4-0.4,0.8-0.7,1-1.2c0-0.2,0-0.3,0-0.5c-0.1,0.1-0.3,0.2-0.4,0.2
		c0,0,0-0.1,0.1-0.1c-0.2,0.2-0.4,0.3-0.6,0.5c-1.6,1.4-1.9,1.4-3.4-0.2c-0.3-0.3-0.7-0.7-0.9-1.1c-0.5-0.8-1.3-1-2.2-0.8
		c-2,0.5-4,0.1-6,0.2c-0.4,0-0.9,0-1-0.6c-0.1-0.6,0.4-0.7,0.8-0.8c0.6-0.2,1.3-0.1,1.9-0.1c0.7,0,1.4,0,2.1,0c0.1,0,0.2,0,0.2,0
		c-0.2,0-0.3,0-0.5,0c-2-0.1-4,0.2-6,0.3c-0.3,0-0.7,0-1-0.1c0.2,0.1,0.4,0.1,0.7,0.1c0.4,0,0.8,0,1.2,0.1c0.3,0.1,0.5,0.3,0.5,0.6
		c0,0.4-0.3,0.6-0.6,0.6c-1.5,0-3,0.1-4.6,0c-0.5,0-0.8-0.4-0.8-0.9c-0.4,0.3-0.9,0.6-1.2,1C43.3,7.7,43,7.9,42.6,8z"/>
	<path fill="#FFFFFF" d="M50.8,3.5c1.3,0,2.7,0,4,0C53.4,3.2,52.1,3.1,50.8,3.5z"/>
	<path fill="#FFFFFF" d="M49.2,3.7c0.2-0.1,0.4-0.2,0.6-0.2v0c0.3,0,0.7,0,1,0c1.3-0.3,2.7-0.3,4,0c0,0,0.1,0,0.1,0
		c0.3,0,0.6,0,0.9,0.2c0.1,0,0.1,0,0.2,0.1c0,0,0,0,0.1,0c0,0,0.1,0,0.1,0c0,0,0,0,0,0c0,0,0,0,0.1,0c0.2,0.1,0.5,0.3,0.6,0.4
		c0.3,0.3,0.5,0.6,0.4,0.9c-0.1,0.5-0.6,0.5-1.1,0.5c-0.1,0-0.2,0-0.2,0c-0.7,0-1.4,0-2.1,0c-0.7,0-1.3-0.1-1.9,0.1
		c-0.4,0.1-0.9,0.2-0.8,0.8c0.1,0.6,0.6,0.6,1,0.6c2-0.1,4,0.3,6-0.2c0.9-0.2,1.6,0,2.2,0.8c0.3,0.4,0.6,0.7,0.9,1.1
		c1.5,1.6,1.8,1.6,3.4,0.2c0.2-0.2,0.4-0.3,0.6-0.5c0.1-0.1,0.1-0.3,0.2-0.4c-0.1,0-0.2,0-0.3,0l0,0h0c-0.5,0.2-0.8,0.6-1.2,1
		c-0.7,0.7-1.3,0.6-1.9,0c-0.3-0.4-0.7-0.7-0.9-1.1c-1-1.6-2.3-1.8-4.1-1.3c-1.8,0.5-3.6,0.1-5.6,0c0.4-0.4,0.7-0.5,1-0.5
		c1.4,0,2.9-0.1,4.3-0.1c0.6,0,1-0.2,1.3-0.7c0.3-0.5-0.1-0.9-0.4-1.3c-0.7-0.8-1.5-1.2-2.5-1.2c-1.4,0-2.9,0-4.3,0
		C49.9,2.9,49.4,3,49.2,3.7L49.2,3.7L49.2,3.7z"/>
	<path fill="#FFFFFF" d="M44.9,6.3c0,0.5,0.3,0.8,0.8,0.9c1.5,0.1,3,0.1,4.6,0c0.3,0,0.6-0.2,0.6-0.6c0-0.4-0.2-0.5-0.5-0.6
		C50,5.9,49.6,6,49.2,5.9c-0.2,0-0.5,0-0.7-0.1c-0.2-0.1-0.4-0.2-0.6-0.4c0-0.2,0-0.4-0.1-0.6l0,0c-0.4,0.2-0.7,0.6-0.6,1.1
		c0.1,0.6,0.7,0.4,1.1,0.5c0.7,0.1,1.4,0.1,2.1,0.2c0,0.1,0,0.2,0,0.3c-1.4,0-2.8,0-4.2,0c-0.5,0-0.8-0.3-0.9-0.8l0,0
		C45.1,6.1,45,6.2,44.9,6.3z"/>
	<path fill="#FFFFFF" d="M56,3.7C56,3.7,56,3.7,56,3.7L56,3.7z"/>
	<path fill="#FFFFFF" d="M42.8,8.1c-0.1,0-0.1,0-0.2-0.1c-0.4,0.1-0.8,0.1-1.3-0.1l0,0c0.2,0.3,0.6,0.5,1,0.5
		c0.5,0.1,0.7,0.3,0.6,0.8c0.2-0.1,0.3-0.2,0.5-0.3C43.5,8.6,43.3,8.2,42.8,8.1z"/>
	<path fill="#FFFFFF" d="M23,3.1c-1.9,0-3.8-0.2-5.8,0.1c2.1,0,4.1,0,6.2,0C23.3,3.1,23.1,3.1,23,3.1z"/>
	<path fill="#FFFFFF" d="M18.6,6.3c0.1,0.1,0.2,0.2,0.3,0.2c-0.4-0.5-0.9-1-1.3-1.5C17.9,5.5,18.2,5.9,18.6,6.3z"/>
	<path fill="#FFFFFF" d="M16.5,3.2c0.1,0,0.3-0.1,0.5-0.1c0.1,0,0.2,0,0.3,0c1.9-0.2,3.8-0.1,5.8-0.1c0.1,0,0.3,0,0.4,0.1
		c0.2,0,0.3,0,0.5,0c0.2,0,0.6-0.1,0.7,0.2c0,0,0,0,0,0c0.2-0.2,0.4-0.3,0.5-0.5l0,0v0c-3-0.6-5.9-0.1-8.9-0.3l0,0h0
		C16.3,2.8,16.4,3,16.5,3.2z"/>
	<path fill="#FFFFFF" d="M24.5,3.9c0,0.1-0.1,0.1-0.2,0.2c-0.4,0.4-0.7,0.8-1.1,1.1c0,0.1,0,0.2,0,0.3c0.5-0.4,1-0.7,1.3-1.2
		c0-0.1,0-0.1,0-0.2C24.6,4.1,24.6,4,24.5,3.9z"/>
	<path fill="#FFFFFF" d="M19.5,7.2c-0.2-0.2-0.4-0.4-0.6-0.6c-0.1-0.1-0.2-0.2-0.3-0.2c-0.4-0.4-0.8-0.8-1.1-1.2
		c-0.3-0.4-0.6-0.7-1-1.1c-0.2-0.3-0.3-0.5-0.3-0.6c-0.1,0.1-0.2,0.1-0.3,0.2c0,0.3,0.2,0.5,0.3,0.8c0.9,1.2,1.9,2.3,3,3.2
		c0.8,0.7,1.5,0.6,2.1-0.2c-0.1,0-0.2,0-0.3,0C20.5,7.8,20,7.7,19.5,7.2z"/>
	<path fill="#FFFFFF" d="M24.6,3.4c0,0.2,0,0.3-0.1,0.5c0.1,0.1,0.1,0.2,0.1,0.3c0,0.1,0,0.1,0,0.2c0.3-0.4,0.5-0.8,0.5-1.5l0,0
		C24.9,3.1,24.8,3.3,24.6,3.4z"/>
	<path fill="#FFFFFF" d="M16,3.6c0.1-0.1,0.2-0.2,0.3-0.2c0-0.1,0.1-0.1,0.2-0.1c-0.1-0.2-0.2-0.4-0.3-0.6h0C16,3,16,3.3,16,3.6z"/>
	<path fill="#FFFFFF" d="M37.8,4c-0.1-0.2-0.4-0.4-0.3-0.7c0,0,0,0,0,0c-0.1,0.1-0.3,0.2-0.4,0.3c0.8,0.4,1.4,1.1,2.1,1.7
		C38.9,4.8,38.2,4.6,37.8,4z"/>
	<path fill="#FFFFFF" d="M45.4,3.1c-2.4,0-4.8-0.1-7.1,0c0,0-0.1,0-0.1,0c2.6,0,5.1,0,7.7,0C45.8,3.1,45.6,3.1,45.4,3.1z"/>
	<path fill="#FFFFFF" d="M37.5,3.3c0.1-0.3,0.4-0.2,0.6-0.2c0,0,0,0,0,0c0,0,0.1,0,0.1,0c2.4-0.1,4.8-0.1,7.1,0c0.2,0,0.3,0,0.5,0.1
		c0,0,0.1,0,0.1,0c0.5,0,1,0,0.8,0.8c0,0.2,0,0.4,0,0.6c0.5-0.4,0.6-0.8,0.4-1.4C47,2.5,46.5,2.6,46,2.6c-2.7,0-5.4,0-8,0
		c-0.6,0-1.1,0.2-1.4,0.8c0.2,0.1,0.3,0.1,0.5,0.2C37.3,3.5,37.4,3.4,37.5,3.3z"/>
	<path fill="#FFFFFF" d="M39.2,5.4c-0.7-0.6-1.3-1.3-2.1-1.7c0,0,0,0-0.1,0.1c0,0-0.1,0.1-0.1,0.1c0.7,0.8,1.5,1.5,2.3,2.2
		C39.3,5.9,39.3,5.7,39.2,5.4C39.2,5.5,39.2,5.4,39.2,5.4z"/>
	<path fill="#FFFFFF" d="M37.1,3.7C37.1,3.7,37.1,3.7,37.1,3.7c-0.1-0.2-0.3-0.2-0.4-0.3c0.1,0.1,0.2,0.3,0.3,0.4
		C37,3.8,37,3.8,37.1,3.7z"/>
	<path fill="#FFFFFF" d="M44.9,6.1C44.9,6.1,44.9,6.1,44.9,6.1c0-0.3,0.2-0.5,0.3-0.7c-0.3,0.3-0.6,0.5-0.9,0.8
		C44.5,6.2,44.7,6.1,44.9,6.1z"/>
	<path fill="#FFFFFF" d="M41.3,7.3c-0.5-0.6-1.1-1.1-1.7-1.5c0.7,0.6,1.3,1.4,2.1,1.9c0,0,0,0,0,0C41.6,7.5,41.5,7.4,41.3,7.3z"/>
	<path fill="#FFFFFF" d="M46.5,4.2C46,4.6,45.6,5,45.2,5.4c-0.1,0.2-0.2,0.4-0.3,0.7c0,0,0,0,0,0c0.1,0,0.2,0,0.4,0l0,0
		c0.5-0.5,1-1,1.6-1.6v0l0,0C46.7,4.4,46.6,4.3,46.5,4.2z"/>
	<path fill="#FFFFFF" d="M39.6,5.7C39.6,5.7,39.6,5.7,39.6,5.7c-0.1,0.1-0.2,0.2-0.4,0.3l0,0v0c0.7,0.6,1.4,1.2,2.1,1.8l0,0
		c0.1-0.1,0.3-0.2,0.4-0.3C40.9,7.2,40.3,6.4,39.6,5.7z"/>
	<path fill="#FFFFFF" d="M43.2,7.3c-0.5,0.6-1,0.6-1.4,0.3c0,0,0,0,0,0c0,0,0,0,0,0C42,7.8,42.3,7.9,42.6,8c0.4-0.1,0.7-0.3,1-0.7
		c0.4-0.4,0.8-0.7,1.2-1c0-0.1,0-0.2,0-0.2c-0.2,0-0.4,0.1-0.6,0.1C43.9,6.6,43.5,6.9,43.2,7.3z"/>
	<path fill="#FFFFFF" d="M44.9,6.1c0,0.1,0,0.2,0,0.2C45,6.2,45.1,6.1,45.3,6l0,0l0,0C45.1,6.1,45,6.1,44.9,6.1z"/>
	<path fill="#FFFFFF" d="M42.6,8c-0.3-0.1-0.6-0.2-0.9-0.4c0,0,0,0,0,0c-0.1,0.1-0.3,0.2-0.4,0.3C41.8,8.1,42.2,8.1,42.6,8z"/>
	<path fill="#FFFFFF" d="M46.5,4.2c0.1,0.1,0.2,0.2,0.3,0.3l0,0c0-0.2,0-0.4,0-0.6C46.7,4,46.6,4.1,46.5,4.2z"/>
	<path fill="#FFFFFF" d="M39.6,5.7c-0.1-0.1-0.2-0.2-0.3-0.2c0,0.2,0,0.4,0,0.5l0,0C39.4,6,39.5,5.9,39.6,5.7z"/>
	<path fill="#FFFFFF" d="M66.5,2.9c-0.9,0.4-1.9,0.2-2.9,0.3l0,0l0,0c-0.9,0-1.9,0-2.8,0.1c-0.5,0.1-1.3,0.1-0.9,1l0,0l0,0l0.1-0.1
		l0,0c0-0.7,0.5-0.5,0.9-0.5c1,0,2,0,3,0c0.9-0.1,1.8-0.2,2.7-0.2c0.3,0,0.6,0,0.6,0.4c0,0.1,0,0.2,0.1,0.4l0,0l0,0
		C67.8,3.3,67,3.2,66.5,2.9z"/>
	<path fill="#FFFFFF" d="M68.2,7.1c0,0,0,0.1-0.1,0.1c0.5-0.1,1-0.2,1.5-0.2c1.2,0,2.4-0.1,3.6-0.2c0,0,0,0,0,0c0,0,0,0,0,0
		c0-0.1,0-0.1-0.1-0.2c-1.7-0.2-3.4,0.3-5.1,0.3C68.2,6.9,68.2,7,68.2,7.1z"/>
	<path fill="#FFFFFF" d="M66.5,7.1c0.5,0.1,1,0.1,1.5,0.1c0.1,0,0.1,0,0.2,0c0,0,0-0.1,0.1-0.1c0-0.1,0-0.1,0-0.2
		c-0.1,0-0.1,0-0.2,0C67.5,7.2,67,7.1,66.5,7.1z"/>
	<path fill="#FFFFFF" d="M69.7,6.9c-0.5,0-1,0.1-1.5,0.2c0,0,0,0,0,0c1.7,0,3.5-0.1,5.2-0.4c0,0,0,0,0.1-0.1c0,0,0,0,0,0
		C72.1,6.9,70.9,6.9,69.7,6.9z"/>
	<path fill="#FFFFFF" d="M68.1,7.2c-0.1,0-0.1,0-0.2,0C68,7.2,68,7.2,68.1,7.2C68.1,7.2,68.1,7.2,68.1,7.2z"/>
	<path fill="#FFFFFF" d="M62.8,7.6c-0.3-0.8-1.1-1.1-1.6-1.8c-0.1,0-0.2,0-0.3,0l0,0c0.1,0.4,0.3,0.8,0.4,1.2
		c0.4,0.9,1.7,1.3,2.4,0.9v0C63.5,7.9,63.1,7.9,62.8,7.6z"/>
	<path fill="#FFFFFF" d="M66.5,4.5c-0.5,0.6-0.9,1.2-1.4,1.8c0,0.1,0.1,0.1,0.1,0.2l0,0c0.2,0,0.3-0.1,0.5-0.1l0,0
		c0.6-0.6,1.2-1.3,1.6-2.1c-0.1,0-0.2-0.1-0.3-0.1C66.8,4.2,66.6,4.3,66.5,4.5z"/>
	<path fill="#FFFFFF" d="M67.2,3.9C67.1,3.9,67,4,66.9,4.1c0.1,0.1,0.2,0.1,0.3,0.1l0,0C67.2,4.1,67.2,4,67.2,3.9z"/>
	<path fill="#FFFFFF" d="M65.2,6.4c-0.1,0-0.1-0.1-0.2-0.1c-0.5,0.3-0.8,0.9-1.4,1.2c0.1,0.1,0.2,0.3,0.2,0.4l0,0
		c0.3-0.2,0.5-0.4,0.8-0.5C64.8,7.1,65,6.7,65.2,6.4C65.2,6.4,65.2,6.4,65.2,6.4z"/>
	<path fill="#FFFFFF" d="M62.8,7.6c0.3,0.4,0.6,0.3,1,0.3c0-0.2-0.1-0.3-0.2-0.4C63.4,7.6,63.2,7.6,62.8,7.6z"/>
	<path fill="#FFFFFF" d="M65.2,6.4C65.2,6.4,65.2,6.4,65.2,6.4C65.2,6.4,65.2,6.4,65.2,6.4c0-0.1,0-0.1-0.1-0.2c0,0-0.1,0-0.1,0
		C65.1,6.3,65.1,6.4,65.2,6.4z"/>
	<path fill="#FFFFFF" d="M49.5,4C49.5,4,49.5,4,49.5,4c-0.1,0-0.1,0-0.1,0c-0.4,0.2-0.7,0.4-0.9,0.7c0,0,0,0,0,0
		C48.8,4.5,49.2,4.3,49.5,4z"/>
	<path fill="#FFFFFF" d="M48.5,4.8C48.5,4.8,48.5,4.8,48.5,4.8C48.7,4.4,49,4.2,49.4,4c0,0,0.1,0,0.1-0.1c-0.1-0.1-0.2-0.1-0.3-0.3
		l0,0c-0.3,0.4-0.6,0.6-1.1,0.8l0,0l0,0C48,4.6,48,4.7,47.9,4.7v0c0.2,0,0.3,0.1,0.4,0.2C48.3,4.9,48.4,4.8,48.5,4.8z"/>
	<path fill="#FFFFFF" d="M49.6,3.9c0,0-0.1,0.1-0.1,0.1C49.5,4,49.5,4,49.6,3.9C49.5,3.9,49.6,3.9,49.6,3.9z"/>
	<polygon fill="#FFFFFF" points="49.2,3.7 49.2,3.7 49.2,3.7 	"/>
	<path fill="#FFFFFF" d="M49.8,3.5L49.8,3.5L49.8,3.5c-0.2,0.1-0.4,0.2-0.6,0.2c0.1,0.1,0.2,0.2,0.3,0.3c0,0,0.1-0.1,0.1-0.1
		C49.7,3.8,49.7,3.6,49.8,3.5z"/>
	<path fill="#FFFFFF" d="M48.3,4.9c-0.1-0.1-0.3-0.2-0.4-0.2c0,0.2,0,0.4,0.1,0.6C48,5.2,48.1,5,48.3,4.9z"/>
	<path fill="#FFFFFF" d="M66.5,2.9c-1,0.1-2-0.2-2.9,0.3C64.5,2.8,65.5,3.3,66.5,2.9z"/>
	<path fill="#FFFFFF" d="M66.5,2.9c-0.9,0.4-1.9-0.1-2.9,0.3l0,0C64.5,3.1,65.5,3.4,66.5,2.9z"/>
	<path fill="#FFFFFF" d="M61.2,5.6c-0.1-0.4-0.7-0.6-0.8-1.1c-0.1-0.1-0.2-0.2-0.3-0.2c-0.1,0-0.2,0-0.2,0c0,0.2,0,0.3,0.1,0.5
		c0.4,0.3,0.8,0.6,1,1l0,0l0,0l0,0l0,0C61,5.7,61.1,5.6,61.2,5.6z"/>
	<path fill="#FFFFFF" d="M59.9,4.2L59.9,4.2L59.9,4.2L59.9,4.2L59.9,4.2c0,0.1,0.1,0.1,0.1,0.1C60,4.3,60,4.2,59.9,4.2z"/>
	<path fill="#FFFFFF" d="M61.2,5.6C61.1,5.6,61,5.7,61,5.8c0.1,0,0.2,0,0.3,0C61.3,5.7,61.2,5.6,61.2,5.6z"/>
	<path fill="#FFFFFF" d="M67.8,5.3c0.4-0.2,0.8-0.4,1.1-0.8C68.3,4.6,67.6,4.4,67.8,5.3z"/>
	<path fill="#FFFFFF" d="M49.2,3.7L49.2,3.7c-0.4,0.2-1.2-0.2-1.1,0.8C48.3,4,48.9,4,49.2,3.7z"/>
	<polygon fill="#FFFFFF" points="49.2,3.7 49.2,3.7 49.2,3.7 	"/>
	<path fill="#FFFFFF" d="M49.2,3.7L49.2,3.7C48.9,4,48.3,4,48.1,4.5l0,0C48.5,4.3,48.9,4.1,49.2,3.7z"/>
	<polygon fill="#FFFFFF" points="49.2,3.7 49.2,3.7 49.2,3.7 	"/>
	<path fill="#FFFFFF" d="M65.2,6.4c0,0.4-0.4,0.6-0.6,0.9c0.4-0.3,0.8-0.6,1.1-1.1l0,0C65.5,6.5,65.4,6.5,65.2,6.4z"/>
	<path fill="#FFFFFF" d="M65.2,6.4L65.2,6.4C65.2,6.4,65.2,6.4,65.2,6.4c0.2,0.1,0.3,0.1,0.5-0.1C65.5,6.3,65.4,6.4,65.2,6.4
		L65.2,6.4z"/>
	<path fill="#FFFFFF" d="M65.2,6.4c-0.2,0.3-0.4,0.6-0.6,0.9C64.8,7,65.2,6.8,65.2,6.4C65.2,6.4,65.2,6.4,65.2,6.4z"/>
	<path fill="#FFFFFF" d="M65.2,6.4C65.2,6.4,65.2,6.4,65.2,6.4L65.2,6.4C65.2,6.4,65.2,6.4,65.2,6.4C65.2,6.4,65.2,6.4,65.2,6.4z"/>
	<path fill="#FFFFFF" d="M59.9,4.7c0.1,0.6,0.5,0.9,1,1C60.5,5.5,60.2,5.2,59.9,4.7z"/>
	<path fill="#FFFFFF" d="M59.9,4.7c0.3,0.4,0.6,0.8,1,1l0,0C60.7,5.4,60.3,5,59.9,4.7z"/>
	<path fill="#FFFFFF" d="M13.7,2.1c0,0.2,0.1,0.3,0.3,0.3c0,0,0.1-0.1,0.1-0.2C14,2,13.9,1.9,13.7,1.9C13.5,1.9,13.7,2.1,13.7,2.1z"
		/>
	<path fill="#FFFFFF" d="M65.2,8.1c0.2-0.1,0.3-0.3,0.5-0.4c0-0.1,0-0.2,0-0.3v0c-0.3,0.3-0.5,0.5-0.8,0.8C65,8.1,65.1,8.1,65.2,8.1
		z"/>
	<path fill="#FFFFFF" d="M65.6,7.7C65.7,7.7,65.7,7.7,65.6,7.7L65.6,7.7c0-0.1,0-0.2,0-0.3C65.6,7.5,65.6,7.6,65.6,7.7z"/>
	<path fill="#FFFFFF" d="M65.2,8.2L65.2,8.2C65.2,8.1,65.2,8.1,65.2,8.2c-0.1-0.1-0.2-0.1-0.3,0l0,0C65,8.1,65.1,8.1,65.2,8.2z"/>
	<path fill="#FFFFFF" d="M66.5,7.1c0.1-0.2,0.4-0.4,0.1-0.5c-0.3-0.1-0.3,0.3-0.4,0.5C66.3,7,66.4,7,66.5,7.1z"/>
	<path fill="#FFFFFF" d="M66.2,7.1c0.1,0,0.2,0,0.3,0C66.4,7,66.3,7,66.2,7.1z"/>
	<path fill="#FFFFFF" d="M81.8,43.9c-0.1-4.7,0.1-9.4-0.2-14.2c-0.3-5.1,0.4-10.2,0.2-15.3c-0.1-2-0.3-4,0.3-6c-0.3-2.3,0.1-4.7,0-7
		c-0.3-0.6-0.7-1-1.5-1c-2,0.1-4,0.1-5.9,0.1c-9.1-0.1-18.2,0-27.3-0.4c-1.2,0.2-2.4-0.2-3.5,0.3l0,0h0c0.7,0,1.4,0,2.1,0l0,0
		c1,0.1,2-0.2,2.9,0.3c0.9,0.2,1.7,0,2.6,0l0,0c0.4,0,0.9,0,1.3,0c0.1,0,0.2,0,0.3,0c1,0.1,2-0.2,2.9,0.3c1,0,2.1,0,3.1,0
		C59.2,1,59.3,1,59.3,1c0.3-0.1,0.6-0.1,0.9,0.1h0l0,0c0.1,0,0.2,0,0.3,0l0,0c1-0.4,1.9-0.4,2.9,0c0.4,0,0.9,0,1.3,0l0,0
		c2.7,0,5.5,0,8.2,0c0.5,0,1,0,1.5,0.3l0,0c0.3,0,0.5,0,0.8,0c0.8-0.3,1.6-0.1,2.4-0.1c1,0,2.1,0.1,3.1-0.1l0,0
		c0.6,0,0.8,0.2,0.8,0.8c0,1.5,0,2.9,0,4.4c0.1,2-0.2,4.1-0.1,6.1c0,0.3,0,0.7-0.1,1c0,0.3-0.1,0.6-0.3,0.8
		c-0.1,4.1-0.2,8.3-0.3,12.4c-0.1,5.9,0.3,11.8,0.1,17.8c0,1.3-0.3,1.5-1.6,1.7c-2,0.3-4-0.1-5.9,0c-1.2,0.1-2.4,0.2-3.5,0
		c-2.2,0.2-4.4,0.2-6.5,0c-2.3,0.2-4.6,0.1-6.9,0.1c-0.2,0-0.3,0-0.5,0c-1,0-2,0-3,0c-1,0-2,0.1-2.9,0.6c-0.5,0.5-0.4,1.2-0.4,1.9
		c0,0.9,0,1.9-0.1,2.8c0,0.5-0.2,0.9-0.1,1.4c0.1,0.4,0,0.8,0,1.1c0.3,1,0.1,2.1,0.2,3.2c-0.2,3,0,6,0,9c0,0.2,0,0.3,0,0.5
		c0.1,0,0.3,0.1,0.2,0.3c0,1.4,0.1,2.8-0.1,4.2c0,1.4,0,2.7-0.1,4.1c0,0.8,0.1,1.5,0.8,1.9v0l0,0c0.7,0.7,1.1,1.7,1.6,2.6
		c0.2,2.1,0,2.2-2.6,1.8l0,0c-0.4,0.3-0.9,0.3-1.3,0c-3.3,0.2-6.6,0.3-9.9,0.3c-0.1,0.1-0.2,0.1-0.3,0.1c-0.3,0.1-0.7,0.1-1.1,0.1
		c-0.9,0-1.7,0-2.6,0h0l0,0c-0.1,0-0.2,0-0.3,0c0,0.1,0,0.2,0,0.3c1.1,0,2.2,0,3.2,0l0,0l0,0c4.6,0.2,9.1-0.7,13.7-0.1
		c1.5,0.2,2.1-0.6,1.7-2.1c-0.2-0.7-0.4-1.2-0.7-1.8c-0.8-1.4-1.8-2.6-1.7-4.5c0.3-8.2,0.4-16.4,0.6-24.6c0-2.2,0.1-2.2,2.3-2.2
		c5.4,0,10.8,0,16.2,0c3.7,0,7.4-0.6,11.2,0.1c1.2,0.2,2.3-1.4,1.8-2.5C81.8,44.5,81.8,44.2,81.8,43.9z"/>
	<path fill="#FFFFFF" d="M44.4,0.2c-0.3,0-0.5,0.1-0.5,0.4c0,0,0,0,0.1,0l0,0c1.1-0.5,2.3-0.1,3.5-0.3C46.4,0,45.4,0.2,44.4,0.2z"/>
	<path fill="#FFFFFF" d="M81.3,13.4c0-0.3,0.1-0.7,0.1-1c-0.1-2,0.2-4.1,0.1-6.1c-0.1-1.5,0-2.9,0-4.4c0-0.6-0.2-0.9-0.8-0.8l0,0
		c-1,0.3-2.1,0.1-3.1,0.1c-0.8,0.1-1.6-0.1-2.4,0.1c-0.3,0-0.5,0-0.8,0l0,0l0,0c-2.7,0-5.4,0-8.1,0c-0.6,0-1.1,0.1-1.6-0.3h0l0,0
		c-0.4,0-0.9,0-1.3,0c-1,0-1.9,0-2.9,0l0,0l0,0c-0.1,0-0.2,0-0.3,0l0,0c-0.4,0-0.7,0-1.1,0C59.2,1,59.3,1,59.3,1
		c-0.1,0-0.1,0.1-0.2,0.1c-1,0-2.1,0-3.1,0c-1-0.1-2,0.2-2.9-0.3c-0.1,0-0.2,0-0.3,0c-0.4,0.3-0.9,0.3-1.3,0h0l0,0
		c-0.9,0-1.7,0.2-2.6,0C48,0.9,47,0.9,46,0.6h0l0,0c-0.7,0-1.4,0-2.1,0h0c0,0,0,0,0,0c0.5,0.8,1.3,0.5,2,0.7
		c0.9,0.1,1.9,0.1,2.8,0.3c0.9,0,1.9-0.1,2.8,0c0.4,0.1,0.8,0.1,1.3,0.1c0.1,0,0.3,0,0.4,0c0.9,0,1.7,0,2.6,0
		C57,1.6,58,1.9,59.2,1.8c0.4-0.1,0.8,0.1,1.1,0c0.1,0,0.3-0.1,0.4-0.1c0.9-0.1,1.9-0.1,2.8,0c0.4,0,0.9,0.1,1.3,0.2
		c0.9,0.1,1.8,0,2.7-0.2c0.9-0.2,1.7-0.3,2.6-0.1c1.3,0.3,2.7,0.3,4,0.3c0.3,0,0.6,0,0.9,0C76,2,76.8,1.8,77.7,1.6
		c0.9-0.2,1.6,0.4,2.4,0.5c0.1,0.1,0.2,0.1,0.4,0.2c0.6,0.4,0.8,0.9,0.5,1.6c-0.2,0.5-0.3,1.1-0.1,1.5C81.5,7,81,8.6,81,10.3
		c0,1.3,0,2.6,0,3.9C81.2,14,81.2,13.7,81.3,13.4z"/>
	<path fill="#FFFFFF" d="M43.9,0.6C43.9,0.6,43.9,0.6,43.9,0.6C43.9,0.6,43.9,0.6,43.9,0.6C43.9,0.6,43.9,0.6,43.9,0.6
		C43.9,0.6,43.9,0.6,43.9,0.6z"/>
	<path fill="#FFFFFF" d="M70.8,1.2c1.2,0.1,2.3-0.1,3.5,0.1c-0.5-0.3-1-0.3-1.5-0.3c-2.7,0-5.5,0-8.2,0C66.7,1.4,68.8,1.1,70.8,1.2z
		"/>
	<path fill="#FFFFFF" d="M66.3,1.3c2.7,0,5.4,0,8.1,0l0,0c-1.2-0.3-2.3-0.1-3.5-0.1c-2.1-0.1-4.1,0.2-6.2-0.1h0
		C65.1,1.4,65.7,1.3,66.3,1.3z"/>
	<path fill="#FFFFFF" d="M48.9,0.8C48,0.4,47,0.6,46,0.6C47,0.9,48,0.5,48.9,0.8z"/>
	<path fill="#FFFFFF" d="M48.9,0.8C48,0.5,47,0.9,46,0.6h0C47,0.9,48,0.9,48.9,0.8z"/>
	<path fill="#FFFFFF" d="M56,1.1c-0.9-0.4-1.9-0.2-2.9-0.3C54.1,1.2,55.1,0.7,56,1.1z"/>
	<path fill="#FFFFFF" d="M56,1.1c-0.9-0.4-1.9,0.1-2.9-0.3C54,1.3,55,1,56,1.1z"/>
	<path fill="#FFFFFF" d="M63.3,1.1c-1-0.4-1.9-0.4-2.9,0C61.4,0.9,62.4,0.9,63.3,1.1z"/>
	<path fill="#FFFFFF" d="M63.3,1.1c-1-0.2-1.9-0.2-2.9,0l0,0C61.4,1.1,62.4,1.1,63.3,1.1z"/>
	<path fill="#FFFFFF" d="M52.9,0.8c-0.4,0-0.9,0-1.3,0C52,1,52.4,1,52.9,0.8z"/>
	<path fill="#FFFFFF" d="M52.9,0.8C52.4,1,52,1,51.5,0.8h0C52,1.1,52.4,1.1,52.9,0.8z"/>
	<path fill="#FFFFFF" d="M60.2,1.1L60.2,1.1c-0.3-0.2-0.6-0.2-0.9-0.1C59.6,0.9,59.9,1,60.2,1.1z"/>
	<path fill="#FFFFFF" d="M60.2,1.1C59.9,1,59.6,0.9,59.3,1c-0.1,0-0.1,0.1-0.2,0.1C59.5,1.1,59.8,1.1,60.2,1.1z"/>
	<path fill="#FFFFFF" d="M8.1,40.8c0-1.5-0.2-3.1-0.1-4.6c0.3-3.6,0.8-7.2,0.6-10.9c-0.1-1.5-0.1-3.1-0.2-4.6c0,0.7,0,1.4,0,2
		c-0.1,0.6,0.2,1.2-0.3,1.7c0.1,2.2,0,4.4-0.2,6.7C8,31.1,8,31.3,8,31.5c-0.2,0.9-0.1,1.9-0.2,2.8c0,0.1,0,0.3,0,0.4
		c0,1-0.5,2-0.1,3c0,0.1,0,0.2,0,0.3c0.1,1-0.3,2,0.2,3C7.9,40.9,8,40.8,8.1,40.8C8.1,40.8,8.1,40.8,8.1,40.8z"/>
	<path fill="#FFFFFF" d="M8.5,22.7c0-0.7,0-1.4,0-2c-0.1-3.2-0.2-6.4-0.1-9.7C8.5,6.5,8.4,6.6,13,6.6c1.7,0,3.4-0.3,4.3,1.7
		c0.1,0.1,0.3,0.2,0.4,0.2c0,0,0,0,0,0c0,0,0,0,0,0c-0.7-0.8-0.9-2.2-2.3-2.2c-1.9,0-3.8-0.1-5.7,0.2C8.4,6.6,8.1,7.1,8.1,8.3
		c-0.1,4.7,0,9.5,0,14.2c0.1,0.6,0.1,1.2,0.1,1.8C8.6,23.9,8.4,23.3,8.5,22.7z"/>
	<path fill="#FFFFFF" d="M8.2,41.1c0-0.1,0-0.2,0-0.3c0,0,0,0,0,0c-0.1,0-0.3,0.1-0.4,0.2c0,0,0,0.1,0.1,0.1
		C7.9,41.1,8,41.1,8.2,41.1z"/>
	<path fill="#FFFFFF" d="M43.2,9.4c-0.1,0.2-0.2,0.3-0.3,0.4c0.1-0.1,0.3-0.3,0.5-0.4C43.4,9.4,43.3,9.4,43.2,9.4z"/>
	<path fill="#FFFFFF" d="M42.4,10.5C42.4,10.5,42.4,10.5,42.4,10.5c-0.3,0.2-0.6,0.1-1.2-0.1c0,0,0.1,0.1,0.1,0.1
		C41.8,10.7,42.2,10.9,42.4,10.5z"/>
	<path fill="#FFFFFF" d="M42.4,10.5c0.2-0.2,0.4-0.5,0.6-0.6c0.1-0.1,0.2-0.3,0.3-0.4c-0.1,0-0.2-0.1-0.3-0.2l0,0l0,0
		c-0.9,1.2-1.2,1.2-2.3,0.2C40.2,9,40,8.5,39.4,8.4c0.5,0.8,1.1,1.4,1.8,2C41.8,10.6,42.1,10.7,42.4,10.5z"/>
	<path fill="#FFFFFF" d="M45.8,7.4c-1,0.2-1.6,1-2.4,1.6c0,0.1-0.1,0.3-0.1,0.5c0,0,0,0,0,0c0.1,0,0.1,0,0.2,0
		C44.2,8.8,45.2,8.2,45.8,7.4z"/>
	<path fill="#FFFFFF" d="M43.2,9.4C43.3,9.4,43.3,9.4,43.2,9.4c0.1-0.2,0.1-0.3,0.2-0.5c-0.2,0.1-0.3,0.2-0.5,0.3l0,0
		C43,9.3,43.1,9.4,43.2,9.4z"/>
	<path fill="#FFFFFF" d="M23.1,5.3c-0.8,0.4-1.4,1.1-1.9,1.8c0.1,0.1,0.2,0.1,0.2,0.2l0,0l0,0C22,6.7,22.6,6,23.3,5.5v0l0,0
		C23.2,5.5,23.1,5.4,23.1,5.3z"/>
	<path fill="#FFFFFF" d="M21.2,7.1c0,0.1-0.1,0.1-0.1,0.2c0.1,0,0.2,0,0.3,0l0,0C21.4,7.3,21.3,7.2,21.2,7.1z"/>
	<path fill="#FFFFFF" d="M23.1,5.3c0.1,0.1,0.1,0.1,0.2,0.2l0,0c0-0.1,0-0.2,0-0.3C23.2,5.3,23.1,5.3,23.1,5.3z"/>
	<path fill="#FFFFFF" d="M18.8,9.2c-0.2-0.5-0.6-0.7-1.1-0.8c0,0,0,0,0,0c0,0,0,0,0,0C17.9,9,18.4,9.1,18.8,9.2z"/>
	<path fill="#FFFFFF" d="M17.7,8.4C17.7,8.4,17.7,8.4,17.7,8.4C17.7,8.4,17.7,8.5,17.7,8.4C17.7,8.5,17.7,8.5,17.7,8.4
		C17.7,8.5,17.7,8.5,17.7,8.4z"/>
	<path fill="#FFFFFF" d="M65.8,7.9C65.7,7.9,65.7,7.9,65.8,7.9c-0.1,0.2-0.2,0.3-0.3,0.3c0,0-0.1,0.1-0.1,0.1c0,0.1,0,0.1,0.1,0.2
		c0.2-0.1,0.4-0.3,0.5-0.5C65.9,8,65.8,7.9,65.8,7.9z"/>
	<path fill="#FFFFFF" d="M65.8,7.9C65.7,7.9,65.7,7.8,65.8,7.9C65.7,7.9,65.7,7.9,65.8,7.9C65.7,7.9,65.7,7.9,65.8,7.9z"/>
	<path fill="#FFFFFF" d="M65.2,8.2C65.2,8.2,65.2,8.2,65.2,8.2c0,0.1,0.1,0.1,0.1,0.1c0,0,0.1-0.1,0.1-0.1
		C65.4,8.2,65.3,8.2,65.2,8.2z"/>
	<path fill="#FFFFFF" d="M65.8,7.9c0,0,0.1,0.1,0.1,0.1c0.1-0.1,0.2-0.2,0.4-0.3c-0.1,0-0.1,0-0.2,0c-0.1,0-0.1,0.1-0.2,0.1
		C65.9,7.8,65.8,7.9,65.8,7.9z"/>
	<path fill="#FFFFFF" d="M65.7,7.7c0,0.1,0,0.1,0,0.2c0,0,0,0.1,0.1,0.1c0,0,0.1-0.1,0.1-0.1c0.1,0,0.1-0.1,0.2-0.1
		C65.9,7.7,65.8,7.7,65.7,7.7L65.7,7.7z"/>
	<path fill="#FFFFFF" d="M65.4,8.5c0-0.1,0-0.1-0.1-0.2c-0.1,0.1-0.2,0.2-0.3,0.3c0,0,0,0,0,0c0,0,0,0.1-0.1,0.1
		C65.1,8.7,65.2,8.6,65.4,8.5z"/>
	<path fill="#FFFFFF" d="M65.3,8.3c0,0,0-0.1-0.1-0.1c0,0,0,0,0,0c0,0,0,0-0.1,0h0C65.1,8.3,65,8.4,65,8.6c0,0,0,0,0,0
		C65.1,8.5,65.2,8.4,65.3,8.3z"/>
	<path fill="#FFFFFF" d="M65.7,8c-0.1,0.1-0.2,0.1-0.2,0.2C65.6,8.1,65.6,8.1,65.7,8z"/>
	<path fill="#FFFFFF" d="M65.4,8.2C65.5,8.1,65.6,8,65.7,8c0,0,0-0.1,0-0.2c0,0,0,0,0,0c0,0,0-0.1,0-0.1c-0.2,0.1-0.3,0.3-0.5,0.4
		c0,0,0,0,0,0C65.3,8.2,65.4,8.2,65.4,8.2z"/>
	<path fill="#FFFFFF" d="M65.7,7.8c0,0,0-0.1,0-0.2l0,0h0c0,0,0,0-0.1,0C65.7,7.7,65.7,7.8,65.7,7.8C65.7,7.8,65.7,7.8,65.7,7.8z"/>
	<path fill="#FFFFFF" d="M65.2,8.2C65.2,8.1,65.2,8.1,65.2,8.2C65.2,8.1,65.2,8.1,65.2,8.2L65.2,8.2L65.2,8.2
		C65.2,8.2,65.2,8.2,65.2,8.2z"/>
	<path fill="#FFFFFF" d="M39.6,5.7C39.6,5.7,39.6,5.7,39.6,5.7C39.6,5.7,39.6,5.7,39.6,5.7C39.6,5.7,39.6,5.7,39.6,5.7z"/>
	<path fill="#FFFFFF" d="M27.6,12c-0.6-0.5-1-1.2-1.4-1.8c-0.4-0.6-0.6-1.2-1.5-0.7c-0.9,0.6-0.7,1.2-0.2,1.8c0.8,0.4,1.3,1,1.6,1.9
		c0.2,0.1,0.4,0.2,0.6,0.2c0.4,0.1,1,0.4,1.3-0.1C28.4,12.7,27.9,12.3,27.6,12z"/>
	<path fill="#FFFFFF" d="M41.9,11.7c-0.7,0-0.7,0.8-0.8,1.6c0.3,0.8,0.3,1.8,0.3,2.8c0,0.4,0.3,0.6,0.7,0.7c0.4,0,0.5-0.2,0.7-0.5
		c0.4-1,0.6-2,0.5-3C43.1,12.6,42.8,11.7,41.9,11.7z"/>
	<path fill="#FFFFFF" d="M49.2,11.4c-0.8-0.5-1.3-1.2-1.9-1.9c-0.5-0.6-0.9-0.7-1.4-0.2c-0.5,0.5-0.4,1,0,1.5c0.5,0.5,0.9,1,1.4,1.5
		c0.3,0.4,0.8,0.6,1.2,0.5c0.5,0,0.9,0,1.1-0.4C49.7,12,49.5,11.6,49.2,11.4z"/>
	<path fill="#FFFFFF" d="M14.5,8.9c-1.4,0.7-1.9,2.1-2.5,3.3c-0.3,0.5,0.3,0.9,0.8,0.8c0.5,0,2.9-2.8,3-3.3
		C15.8,8.9,15.2,8.5,14.5,8.9z"/>
	<path fill="#FFFFFF" d="M69,12.8c0.6,0.4,1.1-0.3,0.9-0.9c-0.4-1.2-1.1-2.2-2.2-2.8c-0.6-0.4-1.5,0.2-1.5,1.1c0,0.1,0,0.3,0.1,0.4
		C67.2,11.3,68,12.2,69,12.8z"/>
	<path fill="#FFFFFF" d="M56.9,8.5c-1,0.4-2,0.7-2.7,1.6c-0.4,0.5-0.2,1,0.1,1.4c0.4,0.4,0.9,0.3,1.3,0c0.5-0.5,1.1-0.9,1.6-1.2
		c0.3-0.2,0.5-0.5,0.5-0.9C57.8,8.8,57.5,8.3,56.9,8.5z"/>
	<path fill="#FFFFFF" d="M35.3,8.4C34.5,9,33.7,9.5,32.8,10c-0.5,0.2-0.5,0.6-0.3,1.1c0.3,0.6,0.7,0.4,1.1,0.2c1-0.4,1.8-1,2.6-1.6
		c0.2-0.2,0.4-0.3,0.4-0.7C36.3,8.4,36,7.9,35.3,8.4z"/>
	<path fill="#FFFFFF" d="M21.5,13.6c-0.1-0.1-0.1-0.1-0.1-0.2c-0.2-0.3-0.2-0.7-0.2-1.1c-0.4,0-0.7,0-1.1,0
		c-0.3,1.2-0.5,2.4,0.2,3.5c0.3,0.4,0.6,0.8,1.1,0.5c0.4-0.2,0.5-0.6,0.3-1.1C21.6,14.7,21.6,14.2,21.5,13.6z"/>
	<path fill="#FFFFFF" d="M62.8,12.1c-0.2-0.2-0.5-0.3-0.8,0c-0.7,0.7-0.5,1.4-0.3,2.2c0,0,0,0.1,0,0.1c0,0.9,0.4,1.5,1.3,1.5
		c1-0.1,0.8-1,0.9-1.8C63.9,13.3,63.4,12.7,62.8,12.1z M62.7,15.3c-0.8-0.1-0.7-1.1-0.8-1.7c-0.1-0.4,0-1,0.4-0.9
		c0.8,0.1,0.9,0.8,1,1.5C63.2,14.6,63.5,15.4,62.7,15.3z"/>
	<path fill="#FFFFFF" d="M26.1,13.2c-0.5-0.7-1-1.3-1.6-1.9C24.8,12.1,25.5,12.7,26.1,13.2z"/>
	<path fill="#FFFFFF" d="M24.5,11.3c0.6,0.6,1.1,1.2,1.6,1.9C25.8,12.4,25.3,11.7,24.5,11.3z"/>
	<path fill="#FFFFFF" d="M21.2,12.3L21.2,12.3L21.2,12.3c-0.4-0.5-0.7-0.8-1.1,0C20.5,11.8,20.8,12.1,21.2,12.3z"/>
	<path fill="#FFFFFF" d="M21.2,12.3c-0.4-0.3-0.7-0.5-1.1,0C20.5,12.3,20.8,12.3,21.2,12.3L21.2,12.3z"/>
	<path fill="#FFFFFF" d="M21.2,12.3c0.3,0.3,0,0.7,0.2,1.1c0,0.1,0.1,0.1,0.1,0.2C21.5,13.2,21.6,12.7,21.2,12.3L21.2,12.3
		L21.2,12.3z"/>
	<path fill="#FFFFFF" d="M21.2,12.3L21.2,12.3c0,0.4,0,0.8,0.2,1.1C21.2,13.1,21.4,12.7,21.2,12.3z"/>
	<polygon fill="#FFFFFF" points="21.2,12.3 21.2,12.3 21.2,12.3 	"/>
	<polygon fill="#FFFFFF" points="21.2,12.3 21.2,12.3 21.2,12.3 	"/>
	<polygon fill="#FFFFFF" points="21.2,12.3 21.2,12.3 21.2,12.3 	"/>
	<rect x="21.2" y="12.3" fill="#FFFFFF" width="0" height="0"/>
	<polygon fill="#FFFFFF" points="21.2,12.3 21.2,12.3 21.2,12.3 	"/>
	<path fill="#FFFFFF" d="M62.4,12.6c-0.5,0-0.5,0.6-0.4,0.9c0.1,0.6,0,1.6,0.8,1.7c0.7,0.1,0.5-0.7,0.6-1.2
		C63.3,13.4,63.2,12.7,62.4,12.6z"/>
</g>
</svg>
