<?xml version="1.0" encoding="utf-8"?>
<!-- Generator: Adobe Illustrator 18.0.0, SVG Export Plug-In . SVG Version: 6.00 Build 0)  -->
<!DOCTYPE svg PUBLIC "-//W3C//DTD SVG 1.1//EN" "http://www.w3.org/Graphics/SVG/1.1/DTD/svg11.dtd">
<svg version="1.1" id="Слой_1" xmlns="http://www.w3.org/2000/svg" xmlns:xlink="http://www.w3.org/1999/xlink" x="0px" y="0px"
	 viewBox="0 0 108.5 117.7" enable-background="new 0 0 108.5 117.7" xml:space="preserve">
<g>
	<path fill="#FFFFFF" d="M108.3,113.1c-0.5-2.4-0.7-4.9-0.9-7.4c-0.6-4.9-1.1-9.8-1.6-14.8c-0.5-4-1.1-8-1.5-12
		c-0.4-4.5-0.5-9-1.1-13.5c-0.6-0.5-0.7-1-0.2-1.6c-0.1-2.6-0.4-5.3-0.9-7.9c-0.1-0.6-0.4-1.2-1.1-1c-2.7,0.6-5.4,0.2-8.1,0.3
		c-0.9,0.1-1.6-0.2-2-0.9c-0.6-1-1.4-1.9-2.2-2.7c-3.3-3.9-7.5-5.6-11.9-1.7c-0.2,0.2-0.4,0.4-0.7,0.3c-0.3-0.1-0.3-0.4-0.3-0.7
		c0-1,0-1.9,0-2.9c0-2.2,0.1-4.4-0.1-6.5c-0.2-2.9-0.3-5.8,0.1-8.7c0.1-0.6,0.3-0.7,0.8-0.9c1.7-0.5,3.4-0.1,5-0.1
		c3.3,0,6.6-1.1,9.8,0.2c0.7,0.3,1.2,0,1.4-0.7c0.1-0.6,0.1-1.2,0.1-1.8c-0.1-2.4-0.4-4.9-0.4-7.3c0.1-6.2-0.3-12.4,0.2-18.5
		c0.1-1-0.2-1.8-1.4-1.9c-2.5-0.2-4.9-0.3-7.4,0C77.7,1,71.3,0.7,64.9,0.7c-2.3,0-4.6-0.1-6.9,0c-1.2,0.1-1.6,0.5-1.6,1.7
		c0,2.5-0.2,4.9-1.3,7.2c-0.1,0.6-0.4,1-1.1,1.1c-1.6,1-3.2,1.9-5,2.4c-2.5,0.7-5,0.8-7.4-0.1c-2.7-1-3.7-3.4-4.9-5.6
		c-1-1.8-0.8-3.8-0.6-5.7c0.1-1.3,0-1.7-1.3-1.7c-3-0.1-6,0.3-8.9,0.3C20.6,0.4,15.2,0.9,9.8,1c-2.5,0-5,0.1-7.6,0.3
		C0.6,1.4-0.1,1.9,0,3.6C0.2,7.8,0.4,12,0.5,16.2c0.1,2.5-0.1,4.9-0.1,7.4c0,2.5,0,5,0.1,7.4c0,1.1,0.6,1.6,1.3,1
		c0.9-0.7,1.8-0.4,2.8-0.4c0.6,0.1,1.1,0,1.7,0c2.9,0,5.8-0.4,8.7-0.1c0.5,0,1.2,0.1,1.1,0.8c-0.1,0.8,0.1,1.6,0.1,2.4
		c0,4,0,7.9,0.1,11.9c0.2,4.2,0.5,8.3,0.4,12.5c0,1.2-0.3,2-1.5,2.4c-0.3,0.1-0.6,0.4-0.9,0.5c-1.5,1.4-2.9,2.8-3.6,4.8
		c-0.7,2-0.1,3.9,0.7,5.7c0.7,1.7,2.2,2.9,4,3.4c0.6,0.2,1.3,0.2,1.3,1.2c0,2.8,0.2,5.6-0.1,8.4c-0.2,1.9,0.8,3,2.6,3.3
		c0.6,0.1,1.1-0.1,1.7-0.1c6.9,0.2,13.8-0.4,20.7-0.4c3.6,0,7.1-0.2,10.7-0.4c1.8-0.1,3.6-0.2,5.5-0.3c0.6,0,0.9,0,0.9,0.8
		c0,4.8-0.7,9.5-0.8,14.3c-0.1,4.3-0.5,8.5-1.2,12.7c-0.1,0.8,0.3,1.5,1,1.3c1.9-0.4,3.6,0.1,5.5,0.2c3.4,0.1,6.8-0.1,10.2-0.1
		c9.3,0.2,18.7,0,28,0c2,0,4.1-0.3,6.1,0.4c0.8,0.3,1.1-0.4,1.1-0.9C108.5,115.5,108.5,114.3,108.3,113.1z M76.1,54.3
		c1.2-2.7,3.5-3.2,5.6-3.5c3-0.1,4.4,1.6,5.8,3.3c0.6,0.7,0.2,1.3-0.9,1.4c-3.3,0.1-6.6,0.2-9.8,0.2C75.5,55.7,75.6,55.6,76.1,54.3z
		 M89.5,2.4c0-0.3,0.2-0.3,0.5-0.3c0.2,0,0.4,0.1,0.3,0.3c-0.1,0.2-0.3,0.3-0.5,0.4C89.6,2.8,89.5,2.6,89.5,2.4z M54,11.7
		c0.1,0,0.1,0.1,0.2,0.2C54.1,12,54.1,12,54,12c-0.1,0-0.2-0.1-0.2-0.1C53.8,11.8,53.9,11.7,54,11.7z M18.1,2.5
		c0.1-0.3,0.5-0.1,0.8-0.1h0c0.2,0,0.3,0,0.5,0c0.4,0,0.7,0,1.1,0v0c0.3,0,0.7,0,1,0c3.4-0.4,6.9-0.3,10.4-0.1
		C28.4,2.9,24.9,3,21.5,2.9c-0.3-0.1-0.7-0.2-1-0.3c-0.4,0.1-0.7,0.2-1.1,0.3l0,0v0c-0.3,0-0.5,0-0.8,0C18.3,2.9,18,2.9,18.1,2.5z
		 M15.7,73.4c-1.1-0.7-1.6-1.6-1.9-2.7c-0.4-1.8-0.3-5,1.5-6.1c0.9-0.5,1.9-0.6,2.7-1.1c0.4-0.2,0.9-0.7,1.1,0.3
		c-0.6,0.8-1.6,1.1-2.4,1.5c-2,1.1-2.5,2.3-1.9,4.7c0.5,1.8,1.7,2.7,3.7,2.7c0.5,0,1,0,1.6,0c0.5,0,0.6,0.3,0.6,0.7
		c0,0.4-0.1,0.6-0.5,0.5C18.6,73.8,17.1,74.3,15.7,73.4z M20.4,69.1c0.1,1,0.1,1.7-1.3,1.6c-1.4-0.1-2.1-0.5-2.1-1.6
		c0-1.1,0.9-1.8,2.3-1.9C20.7,67.3,20.3,68.3,20.4,69.1z M57.8,86.2c-4.9,0.6-9.9,0.9-14.8,0.8c-4.9,0-9.8,0.5-14.6,0.1
		c-2.6-0.2-5.2-0.3-7.8-0.2c-0.8,0-1.1-0.3-1.2-1.1c-0.6-2.8-0.4-5.5-0.4-8.3c0-0.7,0.3-1,1-1.1c0.8-0.1,1,0.4,1.1,1
		c0,0.4,0.1,0.8,0,1.2c-0.2,0.7,0.1,1.2,0.7,1.5c0.6,0.3,1.1,0.7,1.6,1.1c2.6,2.4,5.7,2.3,8.9,1.7c2.5-0.5,5-0.8,7.3-1.9
		c0.9-0.4,1.7-1.1,2.6-1.5c0.9-0.4,1.1-1.4,1-2.4c-0.3-3-0.2-6.1,0-9.1c0.2-2.6,0.1-5.1,0-7.7c0-1.4-1.3-2-2.1-2.8
		c-1.4-1.4-3.3-2-5.2-2.1c-3.4-0.2-6.7,0-9.9,0.9c-1.4,0.4-2.8,0.9-4.1,1.6c-0.8,0.4-1.3,1-1.4,1.9c0,0.7-0.2,1.1-1,1
		c-0.8,0-0.6-0.6-0.6-1.1c-0.1-4.2-0.4-8.4-0.2-12.6c0.3-4.5-0.2-8.9,0.1-13.4c0.1-1.1,0.2-2.3,0.1-3.5c0-1.1-0.5-1.5-1.6-1.5
		c-4.2,0.3-8.5,0.5-12.8,0.6c-1.8,0.1-1.8,0-1.8-1.8c0-0.6,0-1.2,0-1.8c0-0.5-0.3-0.9,0-1.4c0.1-1.2,0.2-2.3,0.2-3.5
		c0-3,0.3-6,0.2-9c-0.1-2.3,0.1-4.7-0.2-7c-0.1-0.7,0.1-1.2,1-1.2C8,4,12.4,3.9,16.8,4.1c4.3,0.2,8.6,0.3,12.9-0.1
		c1.4-0.1,2.7,0,4,0.2c0.4,0.1,0.5,0.2,0.5,0.6c-0.1,2.9,1.6,5.1,3.2,7.2c0.2,0.2,0.3,0.4,0.5,0.6c0.8,0.2,1.2,0.7,1.6,1.4
		c2,1.6,4.4,1.9,6.8,1.7c1.7-0.2,3.4-0.5,5.1-1.1c4.6-1.5,6.7-4.7,7.2-9.2c0.3-2.7,0.3-2.7,3-2.7c4.7,0,9.4-0.2,14.1,0.1
		c3.8,0.2,7.6,0.6,11.5,0.5c0.8,0,1.5,0.6,2.4,0.3c0.3-0.1,0.2,0.4,0.3,0.6c0.6,4.5,0.8,9.1,0.9,13.6c0.1,3.1,0,6.1-0.3,9.2
		c-0.1,0.9-0.4,1.3-1.2,1.3c-4.4,0.4-8.7,0.8-13.1-0.1c-1.7-0.3-3,1.1-2.5,2.8c0.6,2.4,0.5,4.8,0.4,7.2c-0.1,2.8,0,5.6,0.1,8.4
		c0.1,1.8,0,3.6,0.5,5.4c0.3,1-1.9,3.4-3,3.4c-1.8,0.1-3.6,0.2-5.3,0.2c-1.1,0-2.1-0.5-3.2-0.3c-1,0.2-1.5,0.6-1.5,1.6
		c-0.2,3.5-0.2,7.1-0.6,10.6c-0.4,3.7-0.6,7.3-1.1,11c-0.3,2-0.4,4.1-0.6,6.1C59,85.7,58.8,86,57.8,86.2z M35.5,62.7
		c1.3-0.2,2.5-0.5,3.8-0.8c0.7-0.2,1,0,1,0.8c0.2,3.4,0,6.8,0,10.2c0,1,0.2,2,0.2,3c0,1.1-0.5,1.8-1.3,2.4
		c-3.4,2.3-7.2,3.1-11.3,2.6c-1.9-0.2-3.3-1.4-4.7-2.6C22.9,77.9,23,77.5,23,77c0-1.3,0-2.6,0-3.9c0,0-0.1,0-0.1,0
		c0-3.2,0-6.3,0-9.5c0-0.4,0-1.1,0.8-0.8C27.6,64.4,31.5,63.2,35.5,62.7z M25.5,59c2-0.9,4.1-1.4,6.3-1c1.4,0.2,2.8,0.1,4.2,0.1
		c0.7,0,1.5,0,2.2,0.2c0.6,0.2,0.7,0.6,0.2,1.1c-0.5,0.5-1.2,0.8-1.9,1.1c-1.6,0.5-3.2,0.9-4.9,0.8c-1.9-0.1-3.8,0.6-5.7,0
		c-0.7-0.2-1.8-0.1-1.9-1C23.8,59.4,24.9,59.3,25.5,59z M69.1,56.5c-0.1,0-0.1,0.1-0.2,0.1c-0.1,0-0.1-0.1-0.1-0.2
		c0.1,0,0.1-0.1,0.2-0.1C69,56.3,69.1,56.4,69.1,56.5z M106,113.1c0,0.8-0.3,1.1-1.1,1.1c-4,0-8,0.5-12,0.2
		c-4.4,0.3-8.8-0.3-13.1-0.2c-6,0.1-12,0.3-17.9,0.9c-2.9,0.3-2.9,0.3-2.5-2.5c0.3-1.7,0-3.5,0.2-5.2c0.3-3.8,0.3-7.7,0.6-11.6
		c0.3-4.4,0.8-8.8,1.2-13.2c0.2-2.2,0.3-4.4,0.6-6.6c0.3-3,0.8-5.9,1.1-8.9c0.3-2.2,0.4-4.5,0.7-6.7c0.3-2,0.4-2.1,2.4-2.2
		c4.7-0.4,9.4,0.1,14.1-0.4c5.4-0.6,10.8-0.1,16.2-0.3c0.8,0,1.6-0.2,2.5-0.2c0.6,0,0.8,0.2,1,0.9c0.6,2.5,0.6,5.2,1,7.7
		c0.7,5.5,1.2,11,1.8,16.6c0.5,4.2,0.9,8.4,1.4,12.6c0.6,4.9,1.1,9.8,1.7,14.8C106,110.8,106,111.9,106,113.1z"/>
	<path fill="#FFFFFF" d="M14.4,62.3c-2.1,0.9-3.5,2.3-3.6,4.8C11.1,64.8,12.6,63.4,14.4,62.3z"/>
	<path fill="#FFFFFF" d="M14.4,62.3c-1.8,1.1-3.3,2.5-3.6,4.8C11.4,65,12.8,63.6,14.4,62.3z"/>
	<path fill="#FFFFFF" d="M103.1,65.4c0-0.5,0.2-1.1-0.2-1.6C102.9,64.4,102.8,64.9,103.1,65.4z"/>
	<path fill="#FFFFFF" d="M103.1,65.4c-0.3-0.5-0.2-1.1-0.2-1.6C102.3,64.4,102.5,65,103.1,65.4z"/>
	<path fill="#FFFFFF" d="M55.2,9.7c-0.4,0.4-0.7,0.7-1.1,1.1C54.6,10.5,55,10.1,55.2,9.7z"/>
	<path fill="#FFFFFF" d="M55.2,9.7c-0.2,0.5-0.6,0.8-1.1,1.1C54.7,10.6,55.1,10.3,55.2,9.7z"/>
	<path fill="#FFFFFF" d="M39.5,14c-0.3-0.7-0.8-1.2-1.6-1.4C38.5,12.9,39,13.5,39.5,14z"/>
	<path fill="#FFFFFF" d="M39.5,14c-0.5-0.5-0.9-1-1.6-1.4C38.3,13.1,38.8,13.7,39.5,14z"/>
	<path fill="#FFFFFF" d="M2.3,24.6c-0.3,0.5,0,0.9,0,1.4C2.6,25.5,2.3,25.1,2.3,24.6z"/>
	<path fill="#FFFFFF" d="M2.3,24.6c0,0.5,0.3,0.9,0,1.4C2.7,25.5,2.6,25.1,2.3,24.6z"/>
	<path fill="#FFFFFF" d="M54,12c0.1,0,0.1-0.1,0.2-0.2c-0.1-0.1-0.1-0.1-0.2-0.2c-0.2,0-0.2,0.1-0.2,0.2C53.9,12,54,12.1,54,12z"/>
	<path fill="#FFFFFF" d="M20.4,2.4L20.4,2.4c0,0.1,0,0.1,0,0.2C20.4,2.5,20.4,2.5,20.4,2.4z"/>
	<path fill="#FFFFFF" d="M68.8,56.4c0,0.1,0.1,0.2,0.1,0.2c0.1,0,0.1-0.1,0.2-0.1c0-0.1-0.1-0.2-0.1-0.2
		C68.9,56.3,68.9,56.3,68.8,56.4z"/>
</g>
</svg>
