<?xml version="1.0" encoding="utf-8"?>
<!-- Generator: Adobe Illustrator 18.0.0, SVG Export Plug-In . SVG Version: 6.00 Build 0)  -->
<!DOCTYPE svg PUBLIC "-//W3C//DTD SVG 1.1//EN" "http://www.w3.org/Graphics/SVG/1.1/DTD/svg11.dtd">
<svg version="1.1" id="Слой_1" xmlns="http://www.w3.org/2000/svg" xmlns:xlink="http://www.w3.org/1999/xlink" x="0px" y="0px"
	 viewBox="0 0 17.7 10.2" enable-background="new 0 0 17.7 10.2" xml:space="preserve">
<g>
	<path fill="#FFFFFF" d="M16.6,6.7c-3.3,0.1-6.7,0.1-10-0.3C4.9,6.2,3.1,6,1.3,5.9C0.8,5.9,0,6.1,0,5.1c0-0.9,0.7-0.9,1.4-0.9
		c1.6,0,3.2-0.1,4.8,0c2.9,0.2,5.9,0.5,8.5,0.8c0.8,0,1.3,0,1.9,0c0.6,0,1.1,0.2,1.1,0.9C17.7,6.5,17.2,6.7,16.6,6.7z"/>
	<g>
		<path fill="#FFFFFF" d="M11.3,9.8C10.4,9,9.4,9.4,8.4,9.3c-1.2-0.1-2.3,0.2-3.7,0c0.8-0.5,1.5-0.4,2.2-0.4c1.6,0,3.3-0.4,4.9,0.1
			c0.3,0.1,0.7,0,0.6,0.5c-0.2,0.2-0.5,0.5-0.6,0.7c-0.1,0-0.2,0-0.3,0C11.4,10,11.4,9.9,11.3,9.8z"/>
		<path fill="#FFFFFF" d="M12.4,9.4c0-0.5-0.4-0.4-0.6-0.5c-1.6-0.4-3.3-0.1-4.9-0.1c-0.7,0-1.4-0.1-2.2,0.4c1.4,0.2,2.6-0.2,3.7,0
			c1,0.1,2-0.3,2.9,0.5c0.1,0.1,0.1,0.2,0.2,0.4c-0.2,0-0.3,0-0.5,0C10.7,10,10.4,10,10,10c-1.9-0.2-3.7,0.2-5.6,0.1
			c-0.6,0-1.1-0.2-1.1-0.8c0-0.5,0.5-0.9,1.1-0.9c2.8-0.2,5.7-0.4,8.5,0c1,0.2,1.3,0.8,0.7,1.7c-0.6,0-1.2,0-1.8,0.1
			C12,9.9,12.2,9.7,12.4,9.4z"/>
	</g>
	<path fill="#FFFFFF" d="M12.4,2.4C9.7,2.5,7.2,2,4.6,1.7c-0.5-0.1-1.3,0-1.2-0.8C3.6,0.1,4.3-0.1,5,0c0.9,0.1,1.9,0.4,2.8,0.4
		c1.7-0.1,3.5,0.9,5.2,0c0.4-0.2,0.8,0.1,1.1,0.3c0.3,0.3,0.1,0.6,0.1,0.9C13.9,3,12.8,2.1,12.4,2.4z"/>
</g>
</svg>
