<?xml version="1.0" encoding="utf-8"?>
<!-- Generator: Adobe Illustrator 18.0.0, SVG Export Plug-In . SVG Version: 6.00 Build 0)  -->
<!DOCTYPE svg PUBLIC "-//W3C//DTD SVG 1.1//EN" "http://www.w3.org/Graphics/SVG/1.1/DTD/svg11.dtd">
<svg version="1.1" id="Слой_1" xmlns="http://www.w3.org/2000/svg" xmlns:xlink="http://www.w3.org/1999/xlink" x="0px" y="0px"
	 viewBox="0 0 21.2 23" enable-background="new 0 0 21.2 23" xml:space="preserve">
<path fill="#FFFFFF" d="M21.1,1.6c-0.4-0.7-1.1-1-1.8-1.1c-0.7-0.1-1.5,0-2.2-0.3c-1.1-0.5-1.9-0.1-2.5,0.9
	c-1.4,2.4-3.1,4.6-4.9,6.7C6.3,12,3.4,16.5,0.4,20.9C-0.4,22.2,0,23,1.7,23c0.9-0.1,1.9-0.2,3-0.3c0.6-0.1,1.1-0.5,1.4-1
	c1.6-2.6,3.4-5.1,5.4-7.5c3-3.6,6-7.2,9-10.8C20.9,2.8,21.5,2.3,21.1,1.6z M17.8,3.6c-2.3,3.9-5.5,7.2-8.4,10.6
	C8,15.8,7,17.6,5.8,19.3c-0.3,0.5-0.6,0.9-1.1,1.2c-0.4,0.3-0.9,0.2-1.2,0c-0.5-0.3,0-0.7,0.2-1c1.1-1.8,2.4-3.4,3.6-5.1
	c1.9-2.7,4.1-5.2,5.8-8c0.8-1.3,2-2.4,3-3.6c0.3-0.4,0.8-0.3,1.2-0.2C17.6,2.5,18,2.6,18.2,3C18.3,3.2,18.1,3.5,17.8,3.6z"/>
</svg>
