<?xml version="1.0" encoding="utf-8"?>
<!-- Generator: Adobe Illustrator 18.0.0, SVG Export Plug-In . SVG Version: 6.00 Build 0)  -->
<!DOCTYPE svg PUBLIC "-//W3C//DTD SVG 1.1//EN" "http://www.w3.org/Graphics/SVG/1.1/DTD/svg11.dtd">
<svg version="1.1" id="Слой_1" xmlns="http://www.w3.org/2000/svg" xmlns:xlink="http://www.w3.org/1999/xlink" x="0px" y="0px"
	 viewBox="0 0 48.5 67.5" enable-background="new 0 0 48.5 67.5" xml:space="preserve">
<g>
	<path fill="#FFFFFF" d="M47.3,58.8c0-0.1,0-0.2,0-0.4c0-0.4,0-0.7,0-1.1c-0.6,0.2-1,0.6-0.9,1.6c0.1,1.4,0.3,2.8,0.3,4.3
		c0,0.5,0.3,1.1,1.1,0.9c0-0.2,0-0.4,0-0.6c-0.2-1.4-0.4-2.8-0.6-4.1C47.2,59.1,47.2,59,47.3,58.8z"/>
	<path fill="#FFFFFF" d="M2.8,61.5c0,0.1,0,0.2,0,0.3c-0.3,0.4-0.4,0.8-0.3,1.3c-0.1,0.4-0.2,0.9-0.3,1.3c0.2,0.2,0,0.6,0.3,0.8
		c0.1,0.1,0.2,0.2,0.3,0.3c-0.3,0.2-0.4,0.9-1,0.6c-0.4-0.2-0.3-0.7-0.4-1.2c-0.3-1.8,0.4-3.5,0.1-5.3c-0.2-1.1,0.1-2.3,0.2-3.5
		c0.3-4.3,0.6-8.6,1.5-12.8C3.4,42.4,4,43,4.3,42.9c0,0.2,0,0.3,0,0.5c-0.3,0.5,0,1.1-0.3,1.6c0,0.1,0,0.2,0,0.3
		c-0.4,1.2,0.1,2.5-0.3,3.7c0,0.1,0,0.2,0,0.3c-0.4,1.1,0.1,2.3-0.3,3.4c0,0.1,0,0.2,0,0.3c-0.4,1.4,0.1,2.8-0.3,4.2
		c0,0.2,0,0.4,0,0.5c-0.4,0.5,0,1.1-0.3,1.6c0.1,0.3-0.1,0.6-0.3,0.8C3,60.5,2.8,61,2.8,61.5z"/>
	<path fill="#FFFFFF" d="M5.6,27.5c-0.3,3.4-0.5,6.8-0.8,10.2c0,0.4-0.2,0.8-0.2,1.3c-0.4,0.8,0,1.8-0.3,2.6c0,0.1,0,0.2,0,0.3
		c-0.3,0.1-0.8,0.3-0.7-0.1c0.1-0.9-0.4-1.7-0.2-2.6c0.9-3.1,0.6-6.3,1.1-9.5c0.1-0.9,0.2-1.7,0.6-2.5C5.3,27.3,5.5,27.4,5.6,27.5z"
		/>
	<path fill="#FFFFFF" d="M9,65.4c0.3,0,0.5,0,0.8,0c0.9-0.1,1.7-0.1,2.6,0c0.3,0.2,0.7,0.2,1,0c0.4,0.1,1-0.4,1.3,0.3
		c-0.1,0.8-0.7,1-1.4,1c-2.7-0.3-5.5,0.2-8.2-0.2c-0.5-0.1-1.1,0-1.1-0.7c0.2,0,0.3,0,0.5,0c0.7-0.4,1.4,0.2,2.1-0.3
		c0.4,0,0.9,0,1.3,0C8.3,65.6,8.7,65.8,9,65.4z"/>
	<path fill="#FFFFFF" d="M6.9,15.4C6.7,18,6.4,20.5,6.2,23c-0.5,0.2-0.8,0-0.7-0.5c0.1-2,0.2-4,0.6-6C6.1,16.1,6.3,15.5,6.9,15.4z"
		/>
	<path fill="#FFFFFF" d="M7.7,12c-0.2,0.8-0.3,1.6-0.5,2.4c-0.8-0.6-1.1-1.9-0.6-2.5C7.1,11.3,7.5,11.3,7.7,12z"/>
	<path fill="#FFFFFF" d="M15.3,65.4c0.3,0,0.5,0,0.8,0c0.4,0.5,1.2,0.2,1.6,0.6C16.3,66.8,15.4,66.6,15.3,65.4z"/>
	<path fill="#FFFFFF" d="M45.4,53.9c-0.4-1.8-0.4-3.7-0.5-5.5C45.5,50.2,45.4,52.1,45.4,53.9z"/>
	<path fill="#FFFFFF" d="M44.9,48.2c-0.3-1.4-0.4-2.8-0.5-4.2c0.5,0.2,0.4,0.8,0.8,1C44.5,46,45.1,47.1,44.9,48.2z"/>
	<path fill="#FFFFFF" d="M18.7,65.7c0.1,0,0.2,0,0.3,0c0,0.2,0.1,0.5-0.2,0.7c-0.2,0.1-0.3,0-0.4-0.2C18.3,65.9,18.5,65.8,18.7,65.7
		z"/>
	<path fill="#FFFFFF" d="M14.8,65.7c-0.4-0.1-0.9-0.2-1.3-0.3c0.5-0.3,1-0.3,1.6,0C15,65.5,14.9,65.6,14.8,65.7z"/>
	<path fill="#FFFFFF" d="M5.9,25.4c-0.3-0.3-0.7-0.5-0.6-1.2C5.9,24.5,5.9,25,5.9,25.4L5.9,25.4z"/>
	<path fill="#FFFFFF" d="M45.7,56c-0.3-0.7-0.2-1.4-0.3-2.1C45.8,54.6,45.6,55.3,45.7,56z"/>
	<path fill="#FFFFFF" d="M20.2,66c0.1,0.1,0.1,0.1,0.2,0.2c-0.1,0.1-0.1,0.1-0.2,0.2c0,0-0.1-0.1-0.2-0.1
		C20.1,66.2,20.2,66.1,20.2,66z"/>
	<path fill="#FFFFFF" d="M5,26c0-0.1,0.1-0.2,0.1-0.2c0.2,0,0.3,0.2,0.4,0.4c0,0.1,0,0.2-0.1,0.2C5.2,26.3,5.1,26.1,5,26z"/>
	<path fill="#FFFFFF" d="M5.4,26.4c0.1,0.3-0.1,0.6-0.3,0.8C4.9,26.8,5,26.6,5.4,26.4z"/>
	<path fill="#FFFFFF" d="M22.9,66.2C22.8,66.2,22.8,66.3,22.9,66.2c-0.1,0.1-0.2,0.1-0.2,0C22.7,66.2,22.7,66.1,22.9,66.2
		C22.8,66.1,22.8,66.1,22.9,66.2z"/>
	<path fill="#FFFFFF" d="M44.4,44c-0.3-1.5-0.4-3-0.5-4.5C44.4,40.9,44.5,42.5,44.4,44z"/>
	<path fill="#FFFFFF" d="M43.1,34.3c-0.4-0.9-0.2-1.9-0.3-2.9C43.2,32.3,43.1,33.3,43.1,34.3z"/>
	<path fill="#FFFFFF" d="M42.3,27.7c-0.4-0.8-0.2-1.6-0.3-2.4C42.4,26.1,42.2,26.9,42.3,27.7z"/>
	<path fill="#FFFFFF" d="M43.8,39.5c-0.3-0.6-0.2-1.2-0.3-1.8C43.9,38.3,44.1,38.9,43.8,39.5z"/>
	<path fill="#FFFFFF" d="M41.7,23.3c-0.3-0.7-0.2-1.4-0.3-2.1C41.9,21.9,41.7,22.6,41.7,23.3z"/>
	<path fill="#FFFFFF" d="M42.8,31.4c-0.3-0.7-0.2-1.4-0.3-2.1C42.9,30,42.8,30.7,42.8,31.4z"/>
	<path fill="#FFFFFF" d="M43.6,37.7c-0.3-0.6-0.2-1.2-0.3-1.8C43.7,36.4,43.6,37.1,43.6,37.7z"/>
	<path fill="#FFFFFF" d="M42,25.1c-0.3-0.6-0.2-1.2-0.3-1.8C42.1,23.9,42,24.5,42,25.1z"/>
	<path fill="#FFFFFF" d="M42.5,29.3c-0.3-0.5-0.2-1-0.3-1.6C42.7,28.2,42.7,28.7,42.5,29.3z"/>
	<path fill="#FFFFFF" d="M12.4,65.4c-0.9,0.4-1.7,0.2-2.6,0C10.7,65,11.6,65,12.4,65.4z"/>
	<path fill="#FFFFFF" d="M3.8,48.9c0.1-1.2-0.4-2.5,0.3-3.7C4,46.5,4.3,47.7,3.8,48.9z"/>
	<path fill="#FFFFFF" d="M3.3,57c0.1-1.4-0.3-2.8,0.3-4.2C3.4,54.3,3.8,55.7,3.3,57z"/>
	<path fill="#FFFFFF" d="M4.3,41.6C4.2,40.7,4,39.8,4.6,39C4.5,39.9,4.8,40.8,4.3,41.6z"/>
	<path fill="#FFFFFF" d="M6.7,65.4c-0.6,1.1-1.4,0.1-2.1,0.3C5.3,65.3,6,65.4,6.7,65.4z"/>
	<path fill="#FFFFFF" d="M3.5,52.6c0.1-1.1-0.2-2.3,0.3-3.4C3.7,50.3,4,51.5,3.5,52.6z"/>
	<path fill="#FFFFFF" d="M2.5,63.1c-0.7-0.6-0.2-1,0.3-1.3C2.7,62.2,2.8,62.7,2.5,63.1z"/>
	<path fill="#FFFFFF" d="M2.8,61.5c-0.2-0.5-0.1-1,0-1.6C3.1,60.5,3.1,61,2.8,61.5z"/>
	<path fill="#FFFFFF" d="M4.1,45c0-0.5-0.3-1.1,0.3-1.6C4.3,44,4.4,44.5,4.1,45z"/>
	<path fill="#FFFFFF" d="M3,59.1c-0.1-0.6-0.3-1.1,0.3-1.6C3.3,58.1,3.3,58.7,3,59.1z"/>
	<path fill="#FFFFFF" d="M9,65.4c-0.3,1-0.7,0.2-1,0C8.3,65.4,8.7,65.4,9,65.4z"/>
	<path fill="#FFFFFF" d="M2.5,65.2c-0.4-0.2-0.4-0.4-0.3-0.8C2.3,64.6,2.4,64.9,2.5,65.2z"/>
	<path fill="#FFFFFF" d="M2.2,61.8c0-0.1,0.1-0.2,0.1-0.3c0,0,0-0.1,0-0.1c0,0.1-0.1,0.1-0.1,0.2c-0.4,0.5-0.4,1.1-0.3,1.6
		C2,63.1,2,63,2,63C2.3,62.6,2.3,62.2,2.2,61.8z"/>
	<path fill="#FFFFFF" d="M5.5,27.6c-0.1,0-0.2-0.1-0.2-0.1c0-0.1-0.1-0.1-0.1-0.2c0,0.1,0.1,0.1,0.1,0.2c0,0.2,0,0.5-0.1,0.7
		C5.2,27.9,5.3,27.7,5.5,27.6z"/>
	<path fill="#FFFFFF" d="M4,39.1C4,39.1,4,39.1,4,39.1c-0.3,0.7-0.1,1.3,0.2,1.8C4.2,40.3,3.9,39.7,4,39.1z"/>
	<path fill="#FFFFFF" d="M4.5,35.7c-0.1,0.9,0,1.8-0.2,2.7C4.6,37.6,4.4,36.6,4.5,35.7z"/>
	<path fill="#FFFFFF" d="M2.5,58.9c0.1-0.4,0.4-0.8,0.2-1.3c-0.1-0.3,0-0.6,0-0.9c0.1-1.3,0.1-2.5,0.1-3.8c0-0.1,0-0.3,0.1-0.4
		C3,51.4,2.9,50.3,3,49.2c0-0.1,0-0.3,0.1-0.4c0.2-1.1,0.3-2.3,0.3-3.4c0-0.1,0.1-0.3,0.1-0.4c0.1-0.3,0.1-0.7,0.2-1
		c-0.6,0.9-0.5,2.1-0.6,3c-0.3,3.7-0.6,7.4-0.9,11.1c-0.1,0.8-0.3,1.6,0.1,2.4c0,0.1,0.1,0.2,0.1,0.3c0-0.3-0.1-0.7-0.1-1
		C2.3,59.6,2.4,59.3,2.5,58.9z"/>
	<path fill="#FFFFFF" d="M8,66.1C7.6,66,7.2,65.9,6.8,66c-0.5-0.2-1-0.1-1.6,0c0.1,0,0.2,0,0.3,0c0.9-0.1,2,0.3,2.9,0.2
		c0.2,0,0.5,0,0.7-0.1c0,0-0.1,0-0.1,0C8.7,66,8.3,66.1,8,66.1z"/>
	<path fill="#FFFFFF" d="M15.7,65.6c0.1,0.2,0.2,0.3,0.4,0.4c-0.1-0.2-0.1-0.4-0.1-0.5C15.9,65.6,15.8,65.6,15.7,65.6z"/>
	<path fill="#FFFFFF" d="M12.2,65.9c-0.8-0.4-1.6-0.2-2.3,0.2c1.3-0.1,2.6-0.1,3.9,0c0.4,0,0.6-0.3,0.7-0.6c-0.3,0.1-0.6,0.4-1,0.5
		C13.1,66.1,12.7,66.1,12.2,65.9z"/>
	<path fill="#FFFFFF" d="M6.1,18.1c0,0.1,0,0.1,0,0.2c0.1-0.7,0.3-1.4,0.5-2.1C6.2,16.8,6.2,17.5,6.1,18.1z"/>
	<path fill="#FFFFFF" d="M5.1,27.1C5.1,27.1,5.1,27.1,5.1,27.1C5.1,27.1,5.1,27.1,5.1,27.1z"/>
	<path fill="#FFFFFF" d="M5.9,21.3c0,0.2,0,0.4,0,0.6c0-0.4,0-0.8,0-1.2C5.9,20.9,5.9,21.1,5.9,21.3z"/>
	<path fill="#FFFFFF" d="M4.6,33.9c0.1-1.2,0.2-2.4,0.3-3.6C4.9,31.5,4.8,32.7,4.6,33.9z"/>
	<path fill="#FFFFFF" d="M2.4,61.3C2.4,61.3,2.4,61.3,2.4,61.3C2.4,61.3,2.4,61.3,2.4,61.3z"/>
	<path fill="#FFFFFF" d="M27,9.7C27.1,9.7,27.1,9.7,27,9.7C27.1,9.7,27.1,9.7,27,9.7C27.1,9.7,27.1,9.6,27,9.7
		C27,9.6,27.1,9.7,27,9.7C27.1,9.7,27.1,9.7,27,9.7z"/>
	<path fill="#FFFFFF" d="M7,12.8c-0.1,0.2-0.2,0.4-0.1,0.6C6.9,13.2,6.9,13,7,12.8z"/>
	<path fill="#FFFFFF" d="M44.5,44.8c0,0.1,0,0.2,0,0.3c0.1,0,0.1-0.1,0.2-0.1c0,0,0,0,0,0C44.7,44.9,44.6,44.8,44.5,44.8z"/>
	<path fill="#FFFFFF" d="M14.8,9.2c0,0-0.1-0.1-0.1-0.1C14.8,9.1,14.8,9.2,14.8,9.2C14.8,9.2,14.8,9.2,14.8,9.2z"/>
	<polygon fill="#FFFFFF" points="0.4,65.7 0.4,65.7 0.4,65.7 	"/>
	<path fill="#FFFFFF" d="M48,65.1c0.1,1.7,0,1.9-1.7,1.9c-4.2,0-8.4,0-12.6,0c-2.4,0-4.9-0.5-7.3-0.4c-3.3,0.1-6.6,0-9.9,0.2
		c-3.9,0.3-7.7,0.3-11.6,0c-0.6-0.1-1.2-0.1-1.8-0.1c-1.7-0.1-2.6-0.8-2.3-2.5c0.3-2.7,0.4-5.5,0.5-8.2c0.4-5.7,1.3-11.3,1.8-17
		c0.2-3.1,0.7-6.1,1.1-9.2c0.7-5.5,1.1-11,1.8-16.5C6.4,10,6.6,9.8,9.9,9.7c1.6,0,3.3,0.1,4.9-0.4c0,0,0-0.1-0.1-0.1
		c-2.3,0.1-4.6,0.2-6.9,0.3c-1.7,0.1-2.5,1.1-2.2,2.8c0.1,0.6,0,1.2-0.1,1.8c-0.2,1.5-0.5,3.1-0.7,4.6c-0.6,6.4-1.2,12.9-2.1,19.3
		C2.3,41.4,2.1,45,1.7,48.5c-0.5,4.1-0.9,8.3-1,12.5c0,1.1-0.3,2.1-0.5,3.2c-0.4,0.6-0.1,1.1,0.2,1.5v0l0,0c0,0,0,0,0,0
		c0,0.5,0.3,0.8,0.7,1.1C2,67.6,3,66.9,3.9,67c1.5,0.2,3,0.4,4.5,0.4c4,0.2,8.1-0.3,12.1-0.3c2.2,0,4.5-0.4,6.7-0.1
		c2.5,0.3,5,0.4,7.5,0.4c4.1,0,8.2,0,12.3,0c0.6,0,1.4-0.4,1.4-0.7c-0.1-1.1,0.5-2.4-0.7-3.2c-0.1,0-0.2,0.1-0.3,0.2
		c0.1,0.1,0.1,0.3,0.2,0.4C47.9,64.5,48,64.8,48,65.1z"/>
	<path fill="#FFFFFF" d="M20.2,1.7c-0.1,0.1-0.1,0.1-0.2,0.2c-0.9,0.8-1.8,1.4-2.6,2.3c-1.3,1.4-1.8,3.2-2.6,4.9
		c0,0,0.1,0.1,0.1,0.1l0,0c0.2-0.4,0.6-0.7,0.7-1.1C16.3,5.7,18,3.8,20,2.3c0.4-0.3,0.6-0.6,0.7-1C20.5,1.5,20.4,1.6,20.2,1.7z"/>
	<path fill="#FFFFFF" d="M44.8,44.9C44.8,44.9,44.8,44.9,44.8,44.9C44.8,44.9,44.8,44.9,44.8,44.9C44.8,44.9,44.8,44.9,44.8,44.9z"
		/>
	<path fill="#FFFFFF" d="M45.7,35.7c-0.6-5.6-1.1-11.3-1.5-16.9C44,15.9,43.5,13,43,10.1c-0.4-2.1-1.3-2.8-3.5-2.6
		c-0.9,0.1-1.7,0.2-2.6,0.2c-1.8,0.1-2.9-0.5-3.8-2.1c-1.6-2.8-3.6-5.1-7.2-5.5c-0.1,0-0.1,0-0.1,0c-1,0-1.6,0-2.4,0.3
		c0,0.1,0,0.3,0,0.4c0.7,0.5,1.5,0.5,2.4,0.6c2.7,0.3,4.6,1.7,5.8,4.1c0.8,0.7,1.3,1.6,1.6,2.6c0.2,0.3,0.2,0.6,0.5,0.8
		c2.1-0.1,4.2,0.1,6.3-0.2c1.2-0.2,1.7,0.4,2,1.7c1.3,6.4,1.3,12.9,1.9,19.3c0.4,4.1,0.9,8.1,1.3,12.2c0.1,1,0.3,2.1,0.1,3.1
		c0.7,2.4,0.5,4.9,0.8,7.4c0.1,1,0.2,2.1,0.3,3.1c0.1,0.6,0.4,1,1,0.9c0-0.9,0.1-1.8,0.1-2.7c-0.1-0.3-0.1-0.6-0.1-1
		C46.8,47.1,46.3,41.4,45.7,35.7z"/>
	<path fill="#FFFFFF" d="M5.1,27.1c0,0,0,0.1,0.1,0.1C5.1,27.2,5.1,27.1,5.1,27.1C5.1,27.1,5.1,27.1,5.1,27.1z"/>
	<path fill="#FFFFFF" d="M47.2,58.1c0-0.3,0-0.7,0-1c-1,0-1.4-0.7-1.4-1.5c-0.1-2.4-0.7-4.7-0.6-7.2c0.1-1-0.3-2-0.4-3
		c0-0.2,0-0.3,0-0.5c-0.1,0-0.2,0.1-0.2,0.1c0.1,1,0.2,2.1,0.3,3.1c0,0.1,0,0.2,0,0.3c0.4,1.8,0.3,3.7,0.5,5.5
		c0.4,0.7-0.1,1.4,0.3,2.1c0,0.3,0,0.5,0,0.8c0.1,1.8,0.6,3.5,0.5,5.3c0,3-0.4,2.9-3.2,3c-4.5,0.2-9,0.3-13.5,0.6
		c-3.5,0.2-7,0.1-10.6,0.1c-0.1,0.1-0.2,0.1-0.3,0c-0.8-0.4-1.7-0.2-2.6-0.3c0,0-0.1,0.1-0.1,0.1c0,0.2,0.1,0.3,0.1,0.5
		c-0.2-0.1-0.3-0.3-0.4-0.4c-0.1,0-0.2-0.1-0.4-0.2c-0.1,0-0.2,0-0.3,0c-0.2,0-0.4,0-0.5,0.1c-0.2,0.3-0.3,0.7-0.7,0.6
		c-1.3-0.1-2.6-0.1-3.9,0c0,0,0,0,0,0c-0.2,0-0.5,0-0.7,0c-0.2,0-0.5,0-0.7,0.1c-0.9,0.1-1.9-0.3-2.9-0.2c-0.1,0-0.2,0-0.3,0
		C5,66,4.8,66,4.5,66c-0.2-0.1-0.3-0.2-0.5-0.3c-0.4-0.1-0.9-0.2-1.3-0.3c-0.2,0.1-0.4,0-0.5-0.2C2.1,65,2,64.7,2,64.3
		c0.2-0.4-0.2-0.8,0-1.2c-0.1-0.5-0.1-1.1,0.3-1.6c0-0.1,0.1-0.1,0.1-0.2c0,0,0,0,0,0c0,0,0,0,0,0c0-0.1,0-0.2,0-0.3
		c0-0.1,0-0.2-0.1-0.3c-0.4-0.8-0.2-1.6-0.1-2.4c0.3-3.7,0.6-7.4,0.9-11.1c0.1-1,0.1-2.1,0.6-3c0.1-0.2,0.1-0.4,0.2-0.6
		c0.1-0.2,0.2-0.3,0.4-0.5c0-0.3,0-0.7,0-1c-0.1-0.1-0.2-0.2-0.2-0.4c0-0.2,0-0.3,0-0.5c-0.3-0.6-0.5-1.2-0.2-1.8c0,0,0,0,0,0
		c0-0.1,0-0.2,0-0.3c0.1-0.1,0.1-0.3,0.2-0.4c0.2-0.9,0.1-1.8,0.2-2.7c0-0.2,0-0.4,0-0.6c0.1-0.4,0.1-0.8,0.2-1.3
		c0.1-1.2,0.2-2.4,0.3-3.6C5,29.8,5,29.4,5,28.9c0-0.2,0-0.5,0.1-0.8c0-0.2,0-0.5,0.1-0.7c0-0.1-0.1-0.1-0.1-0.2c0,0,0-0.1-0.1-0.1
		c0,0,0,0,0,0c0,0,0,0.1,0,0.1c0,0.1,0.1,0.1,0.1,0.2c0.1,0.1,0.1,0.1,0.2,0.1c0,0,0.1-0.1,0.1-0.1c0.4-0.7,0.2-1.4,0.3-2.1v0
		c0.4-0.7,0.2-1.6,0.3-2.4c-0.1-0.1-0.3-0.2-0.3-0.3c0-0.3,0-0.6,0-0.9c0-0.2-0.1-0.4,0-0.6c0-0.2,0-0.4,0.1-0.6
		c0-0.8,0.1-1.6,0.2-2.4c0-0.1,0-0.1,0-0.2c0-0.6,0.1-1.3,0.5-1.9c0.1-0.3,0.2-0.5,0.3-0.8c0.2-0.3,0.3-0.7,0.3-1
		c-0.1-0.3-0.2-0.7-0.3-1c-0.1-0.3-0.1-0.5,0.1-0.6c0.1-0.3,0.3-0.5,0.7-0.7c0.4-1,1.2-1.4,2.3-1.3c0.6,0,1.1,0.1,1.6-0.3
		c-0.4-0.1-0.8-0.1-1.6-0.2c0.1-0.1,0.2-0.1,0.3-0.1c-1,0.1-1.9,0.2-2.9,0.5c-0.9,0.3-1.3,0.8-1.1,1.7c0.2,0.9,0,1.9-0.3,2.8
		C6.1,15.4,6,15.6,6,15.8c0,4.4-1.1,8.7-1.1,13.1c0,2.6-0.7,5.1-1,7.7c-0.5,3.3-0.7,6.7-1.1,10C2,51.8,1.7,57,1.4,62.2
		c0,0.3,0,0.6-0.1,0.9c-0.6,1.8,0.9,3,2.3,3c2.9,0.1,5.8,0.5,8.7,0.4c4.5-0.2,9-0.3,13.5-0.5c1.8-0.1,3.5,0.2,5.3,0.2
		c4.6,0,9.2,0,13.9,0c2.2,0,2.3-0.2,2.6-2.3c0-0.1,0.1-0.2,0.2-0.3c-0.8-1.5-0.6-3.3-0.8-4.9C46.8,58.4,47,58.2,47.2,58.1z"/>
	<path fill="#FFFFFF" d="M18.7,4.2c-0.4,0.4-0.8,0.9-1.1,1.3c0.1-0.1,0.2-0.1,0.4-0.2C18.4,5.1,18.5,4.6,18.7,4.2z"/>
	<path fill="#FFFFFF" d="M12.2,10.2L12.2,10.2c1.4,0.4,2.8,0.4,4.2,0c-0.7,0-1.4,0-2.1,0c1.3-0.4,1.9-1.1,2-2.5
		c-0.1,0.2-0.2,0.4-0.3,0.5c-0.3,0.5-0.4,1.1-1.2,0.9l0,0c0,0,0,0,0,0c0,0,0,0,0,0.1c-0.3,0.9-1,0.7-1.7,0.8c-0.4,0-0.9,0-1.3,0
		C12,10.1,12.1,10.1,12.2,10.2L12.2,10.2z"/>
	<path fill="#FFFFFF" d="M44.8,66.3c-4.6,0-9.2,0-13.9,0c-1.8,0-3.5-0.3-5.3-0.2c-4.5,0.2-9,0.3-13.5,0.5c-2.9,0.1-5.8-0.3-8.7-0.4
		c-1.4,0-2.8-1.2-2.3-3c0.1-0.3,0.1-0.6,0.1-0.9C1.7,57,2,51.8,2.7,46.6c0.5-3.3,0.6-6.7,1.1-10c0.4-2.6,1-5.1,1-7.7
		c0-4.4,1.1-8.7,1.1-13.1c0-0.2,0.1-0.4,0.1-0.6c0.3-0.9,0.5-1.9,0.3-2.8c-0.2-1,0.2-1.4,1.1-1.7c0.9-0.3,1.9-0.4,2.9-0.5
		c0.6-0.2,1-0.2,1.4-0.1c0.4,0,0.9,0,1.3,0c0.7,0,1.4,0.2,1.7-0.8c0,0,0,0,0-0.1c-1.6,0.6-3.2,0.4-4.9,0.4C6.6,9.8,6.4,10,6,13.2
		c-0.8,5.5-1.2,11-1.8,16.5c-0.4,3.1-0.9,6.1-1.1,9.2c-0.4,5.7-1.4,11.3-1.8,17c-0.2,2.7-0.2,5.5-0.5,8.2c-0.2,1.7,0.6,2.4,2.3,2.5
		c0.6,0,1.2,0.1,1.8,0.1c3.9,0.3,7.7,0.3,11.6,0c3.3-0.2,6.6-0.2,9.9-0.2c2.4,0,4.8,0.5,7.3,0.4c4.2-0.1,8.4,0,12.6,0
		c1.7,0,1.9-0.2,1.7-1.9c0-0.3-0.2-0.7-0.2-1c-0.1-0.1-0.2-0.3-0.2-0.4c-0.1,0.1-0.1,0.2-0.2,0.3C47.2,66.2,47,66.3,44.8,66.3z"/>
	<path fill="#FFFFFF" d="M21,1.2c0,0-0.1,0-0.1,0c0,0-0.1,0.1-0.1,0.1c-0.1,0.4-0.4,0.7-0.7,1c-2,1.5-3.6,3.3-4.4,5.8
		c-0.1,0.4-0.5,0.7-0.7,1.1l0,0l0,0c0.8,0.2,0.9-0.5,1.2-0.9c0.1-0.2,0.2-0.4,0.3-0.5c0,0,0-0.1,0-0.1c0.1-0.8,0.5-1.6,1.3-2.1
		c0.3-0.5,0.7-0.9,1.1-1.3c0.1-0.3,0.3-0.6,0.7-0.8c0.4-0.2,0.7-0.6,1.2-0.8c0.1,0,0.1-0.1,0.2-0.1c0.3-0.3,0.5-0.7,0.5-1.3
		c0,0,0-0.1,0-0.1C21.1,1.2,21.1,1.2,21,1.2z"/>
	<path fill="#FFFFFF" d="M47.3,56.4c-0.6,0.1-0.9-0.3-1-0.9c-0.1-1-0.2-2.1-0.3-3.1c-0.3-2.5-0.1-5-0.8-7.4c-0.1,0-0.2-0.1-0.3-0.1
		c0,0,0,0-0.1,0c0,0.2,0,0.3,0,0.5c0.1,1,0.5,1.9,0.4,3c-0.1,2.4,0.4,4.8,0.6,7.2c0.1,0.9,0.5,1.5,1.4,1.5
		C47.3,56.8,47.3,56.6,47.3,56.4z"/>
	<path fill="#FFFFFF" d="M26.8,3.7c0.1,0.1,0.2,0.1,0.2,0.1C27,3.7,26.9,3.7,26.8,3.7L26.8,3.7z"/>
	<path fill="#FFFFFF" d="M31.1,5.6c-1.4-2.2-3.4-3.5-6-3.7c-0.8-0.1-1.7-0.2-2.2-1c-0.1-0.1-0.1-0.2-0.1-0.4
		c-0.2,0.1-0.4,0.1-0.5,0.2c0.3,1-0.2,1.7-1.1,2.2c-1,0.6-2,1.1-2.3,2.4c-0.1,0.3-0.4,0.5-0.6,0.6c-0.8,0.5-1.3,1.2-1.3,2.1
		c0,1-0.5,1.5-1.5,1.8c0.5-0.1,0.9-0.1,0.9,0.3h0.2c0.7-0.5,1.8,0,2.4-0.8l0,0c-0.1-0.1-0.2-0.2-0.3-0.3c-0.6-1.7,0.6-2.6,1.7-3.6
		c0.4-0.4,0.9-0.6,1.4-0.9l0,0c0.6-0.7,1.4-0.7,2.2-1l0,0c1-0.4,1.9-0.4,2.9,0l0,0h0h0c0.4,0,0.8,0,1.1,0.2c0.1,0,0.1,0.1,0.2,0.1
		c0.9,0.6,1.7,1.2,2.6,1.8C30.9,5.7,31,5.7,31.1,5.6C31.1,5.7,31.1,5.7,31.1,5.6z"/>
	<path fill="#FFFFFF" d="M25.8,1.4c-0.8-0.1-1.7-0.1-2.4-0.6c-0.1-0.1-0.1-0.2-0.2-0.3c-0.1,0-0.2,0.1-0.4,0.1c0,0-0.1,0-0.1,0
		c0,0.1,0.1,0.3,0.1,0.4c0.5,0.8,1.4,0.9,2.2,1c2.6,0.2,4.6,1.5,6,3.7c0,0,0,0,0,0c0.2-0.1,0.3-0.1,0.5-0.2
		C30.4,3.1,28.5,1.7,25.8,1.4z"/>
	<path fill="#FFFFFF" d="M21.6,1c0.3,0.8-0.2,1.1-0.9,1.5c-0.3,0.3-0.6,0.6-0.9,0.8c-0.4,0.3-0.8,0.6-1.1,0.9
		c-0.2,0.5-0.3,0.9-0.7,1.1c-0.1,0.1-0.3,0.1-0.4,0.2c-0.5,0.7-0.9,1.5-1.3,2.2c-0.1,1.3-0.7,2.1-2,2.5h2.1
		c-0.1-0.4-0.5-0.4-0.9-0.3c1-0.2,1.4-0.8,1.5-1.8c0-0.9,0.4-1.7,1.3-2.1c0.3-0.1,0.6-0.3,0.6-0.6c0.3-1.2,1.3-1.8,2.3-2.4
		c0.9-0.5,1.4-1.2,1.1-2.2C22,0.9,21.8,1,21.6,1z"/>
	<path fill="#FFFFFF" d="M16.3,7.6c0,0,0,0.1,0,0.1c0.4-0.8,0.8-1.5,1.3-2.2C16.8,6,16.4,6.8,16.3,7.6z"/>
	<path fill="#FFFFFF" d="M19.8,3.3c0.3-0.2,0.6-0.4,0.9-0.8c-0.1,0-0.1,0.1-0.2,0.1c-0.4,0.2-0.8,0.6-1.2,0.8
		c-0.3,0.2-0.5,0.5-0.7,0.8C19,3.8,19.4,3.5,19.8,3.3z"/>
	<path fill="#FFFFFF" d="M42.4,19c-0.2-2.8-0.7-5.6-1.2-8.4c-0.2-0.7-0.6-1.2-1.4-1.1c-1.8,0.3-3.6-0.1-5.4-0.1c0.4,0,0.9,0,1.2,0.5
		c-1.4,0.2-2.6,0.1-4,0.1c0.2-0.6,1.7-0.3,0.7-1.3c-0.2,0-0.4,0-0.5,0c-0.1,0.1-0.2,0.2-0.2,0.3l0,0l0,0C29.7,9.5,27.9,9,26,9.1
		c-0.6,0-1.2,0-1.8,0l0,0h0c0,0.1,0,0.2,0,0.3c0.9,0.2,1.9-0.3,2.8,0.2c0,0,0.1,0,0.1,0c1.3-0.5,2.4,0,3.5,0
		c-1.2,0.4-2.4,0.2-3.7,0.1c0.1,0,0.1,0,0.2-0.1c0,0,0,0,0,0C26,9.9,24.9,10.4,24,9.4c-1.5,0-3.1,0-4.6,0c0,0.1,0,0.2-0.1,0.3
		c-0.2,0.2-0.3,0.4-0.5,0.5c6.4,0,12.8,0,19.2,0c2.3,0,2.7,0.3,3,2.6c0.1,0.8,0.1,1.6,0.1,2.3l0,0l0,0l0,0l0,0
		c0.4,0.8,0.2,1.7,0.3,2.6c0,0.2,0,0.3,0,0.5l0,0c0.5,0.9,0.2,1.9,0.3,2.9l0,0c0.4,0.7-0.1,1.4,0.3,2.1l0,0c0.4,0.6-0.1,1.3,0.3,1.8
		c0,0.1,0,0.2,0,0.2c0.4,0.8-0.1,1.6,0.3,2.4c0.3,0.5,0,1.1,0.3,1.6l0,0c0.4,0.7-0.1,1.4,0.3,2.1l0,0c0.3,0.9,0,1.9,0.3,2.9
		c0,0.5,0,1.1,0.3,1.6c0.4,0.6-0.1,1.3,0.3,1.8l0,0l0,0c0,0,0,0,0,0c0.3,0.6,0.2,1.2,0.3,1.8l0,0c0.4,1.5,0.3,3,0.5,4.5l0,0
		c0.1,0.3,0.1,0.5,0.2,0.8c0.1,0.1,0.2,0.1,0.3,0.1c-0.2-2.6-0.3-5.2-0.7-7.8C43.2,31.1,42.8,25,42.4,19z M23,9.9
		c-0.1,0-0.2,0-0.4-0.1c0.1-0.1,0.1-0.1,0.2-0.1c0.1,0,0.3-0.1,0.4,0.1C23.2,9.9,23,9.9,23,9.9z"/>
	<path fill="#FFFFFF" d="M26,9.1C26.3,9.1,26.5,9,26.7,9C26.5,9,26.3,9,26,9.1z"/>
	<path fill="#FFFFFF" d="M34.4,9.3c1.8,0,3.6,0.4,5.4,0.1c0.8-0.1,1.2,0.4,1.4,1.1c0.6,2.8,1.1,5.6,1.2,8.4
		c0.4,6.1,0.8,12.1,1.7,18.1c0.4,2.6,0.5,5.2,0.7,7.8c0,0,0,0,0.1,0c0,0,0.1,0,0.1,0c0.1,0,0.1,0.1,0.2,0.1c0.2-1,0-2.1-0.1-3.1
		c-0.4-4.1-0.9-8.1-1.3-12.2c-0.6-6.4-0.6-12.9-1.9-19.3c-0.3-1.3-0.8-1.9-2-1.7c-2.1,0.3-4.2,0.1-6.3,0.2
		C33.8,9.2,34.1,9.3,34.4,9.3z"/>
	<path fill="#FFFFFF" d="M44.9,44.9c0.1,0,0.2,0.1,0.3,0.1C45.1,45,45,44.9,44.9,44.9C44.9,44.9,44.9,44.9,44.9,44.9z"/>
	<path fill="#FFFFFF" d="M19,9.4c-0.6,0.8-1.7,0.3-2.4,0.8c0.7,0,1.4,0,2.1,0c0.2-0.1,0.4-0.2,0.5-0.5c0-0.1,0.1-0.2,0.1-0.3
		C19.2,9.4,19.1,9.4,19,9.4L19,9.4z"/>
	<path fill="#FFFFFF" d="M34,9.6c-0.1-0.1-0.3-0.2-0.4-0.4c-0.2,0-0.4-0.1-0.5-0.3C33.2,9.5,33.6,9.5,34,9.6z"/>
	<path fill="#FFFFFF" d="M32.3,8.2c0.2,0,0.3,0.1,0.4,0.1c0-0.1,0-0.1,0-0.2c0,0,0-0.1,0-0.1c-0.1,0-0.2,0-0.3,0
		C32.3,8.2,32.3,8.2,32.3,8.2z"/>
	<path fill="#FFFFFF" d="M32.7,8.2c0,0.1,0,0.1,0,0.2c0.2,0.1,0.3,0.3,0.3,0.5c0,0,0,0.1,0,0.1c0.1,0.1,0.3,0.2,0.5,0.3
		c-0.1-0.1-0.1-0.2,0-0.4c-0.3-0.2-0.4-0.5-0.5-0.8c-0.1,0-0.3,0-0.4,0C32.7,8.1,32.7,8.2,32.7,8.2z"/>
	<path fill="#FFFFFF" d="M32.3,8.6c0.9,1-0.6,0.7-0.7,1.3c1.4,0,2.6,0.1,4-0.1c-0.3-0.5-0.8-0.5-1.2-0.5c-0.2,0-0.5,0-0.7,0
		c0,0,0,0-0.1,0c0.1,0.1,0.2,0.2,0.4,0.4c-0.4-0.1-0.8-0.2-0.9-0.6c-0.2-0.2-0.3-0.4-0.3-0.6c-0.1-0.1-0.3-0.1-0.4-0.1
		C32.3,8.4,32.3,8.5,32.3,8.6z"/>
	<path fill="#FFFFFF" d="M33.1,8.9c0-0.2-0.1-0.4-0.3-0.5C32.8,8.6,32.9,8.8,33.1,8.9C33.1,9,33.1,8.9,33.1,8.9z"/>
	<path fill="#FFFFFF" d="M33.6,9.3C33.6,9.3,33.7,9.3,33.6,9.3c0.3,0,0.5,0,0.8,0c-0.3,0-0.6-0.1-0.7-0.4
		C33.6,9.1,33.6,9.2,33.6,9.3z"/>
	<path fill="#FFFFFF" d="M31.3,6.5L31.3,6.5L31.3,6.5c0.3,0.3,0.5,0.6,0.5,1c0.1,0.1,0.3,0.3,0.4,0.4c0,0,0,0,0.1-0.1
		c0.1-0.1,0.2-0.1,0.4-0.1c-0.3-0.7-0.7-1.3-1.2-1.9c-0.1,0.1-0.4,0.1-0.6,0.1C30.9,6.2,31.1,6.4,31.3,6.5z"/>
	<path fill="#FFFFFF" d="M31.4,6c0.5,0.6,1,1.2,1.2,1.9c0.2,0,0.4,0.1,0.5,0.2c-0.3-1-0.8-1.9-1.6-2.6l0,0h0
		C31.6,5.8,31.5,5.9,31.4,6z"/>
	<path fill="#FFFFFF" d="M30.7,6L30.7,6C30.8,6,30.8,6.1,30.7,6c0.3,0,0.5,0.1,0.6,0c-0.1-0.1-0.2-0.2-0.3-0.3
		c-0.1,0-0.2,0.1-0.3,0.1C30.7,5.9,30.7,5.9,30.7,6z"/>
	<path fill="#FFFFFF" d="M31.4,6c0.1-0.1,0.2-0.2,0.2-0.5l0,0c-0.2,0.1-0.3,0.1-0.5,0.2C31.2,5.8,31.3,5.9,31.4,6z"/>
	<path fill="#FFFFFF" d="M32.2,7.9C32.2,7.9,32.2,7.9,32.2,7.9c0,0.1,0,0.1,0.1,0.2c0.1,0,0.2,0,0.3,0c0-0.1-0.1-0.2-0.1-0.2
		C32.5,7.8,32.4,7.9,32.2,7.9z"/>
	<path fill="#FFFFFF" d="M32.7,8.1c0.1,0,0.3,0,0.4,0c-0.2-0.1-0.3-0.2-0.5-0.2C32.6,7.9,32.7,8,32.7,8.1z"/>
	<path fill="#FFFFFF" d="M16.3,65.1c0.8-0.1,1.6-0.1,2.3,0c0.3,0.1,0.5,0.2,0.8,0.2c6.9,0.3,13.8-0.5,20.7-0.6
		c0.9,0,1.9-0.2,2.8-0.1c1.4,0.2,2.9-1.5,2.8-2.9c-0.1-1.6-0.5-3.2-0.5-4.8c0-0.1,0-0.2,0-0.3c0,0-0.1,0-0.1,0
		c-0.7,0.3-0.6,0.9-0.5,1.5c0.1,1.3,0.4,2.5,0.4,3.8c-0.1,1-0.5,1.7-1.6,1.7c-1.5,0-2.9,0.4-4.4,0.3c-2.7-0.1-5.3,0.1-8,0.3
		c-6.2,0.6-12.3-0.2-18.4-0.3c-2.2,0-4.4-0.1-6.5,0.1c-1.8,0.1-2.3-0.4-2.1-2.2c0.6-3.5,0.7-7,0.9-10.5c0.2-4,0.6-7.9,0.9-11.9
		c0.4-5.1,0.8-10.2,1.5-15.2c0.5-3.5,0.5-7,1.3-10.4c0.4-1.6,0.8-1.9,2.4-2.2c2.5-0.4,5-0.4,7.6-0.5c6.1-0.1,12.3,0,18.4,0
		c0.7,0,1.4,0,2,0.4c0.5,0.3,0.6,0.9,0.7,1.5c0.2,0.7,0.2,1.5,0.9,2c0,0,0,0,0,0c0-0.1,0-0.2,0-0.2c-0.2-1-0.3-1.9-0.5-2.9
		c-0.5-1-1.3-1.4-2.8-1.5c-2.7,0-5.4,0-8.1,0c-3.7,0-7.3,0-11,0c-0.5,0-1,0.1-1.4-0.2c0,0,0,0-0.1,0c-0.1,0-0.2-0.1-0.3-0.2
		c0,0.1,0,0.2,0,0.3c-1.3,0.6-2.6,0.3-3.9,0.2c-0.2-0.1-0.5-0.3-0.7,0.1c-0.3,0.3-0.7,0.3-1.1,0.3c-1.1,0-1.9,0.3-2.6,1.2
		c-0.5,0.1-0.8,0.3-1,0.5c-0.1,0.2-0.1,0.4-0.1,0.6C7,13.7,7.2,14,7.6,14.4c0,0.4,0.1,0.8-0.2,1.1c-0.3,0.2-0.6,0.4-0.8,0.7
		c-0.2,0.7-0.4,1.4-0.5,2.1c0,0.8-0.1,1.6-0.2,2.4c0,0.4,0,0.8,0,1.2c0.1,0.5,0.4,0.9,0.6,1.3c0,0.7,0.2,1.5-0.2,2.1
		c-0.5-0.1-0.3,0.2-0.1,0.4C6.3,26.3,6.5,27,6,27.6c-0.2,0.1-0.3,0.1-0.5,0c-0.2,0.2-0.3,0.3-0.3,0.5C5.1,28.8,5,29.6,5,30.3
		c-0.1,1.2-0.2,2.4-0.3,3.6c-0.1,0.6-0.1,1.2-0.2,1.8c0,0,0,0,0,0c0,0.9,0.1,1.8-0.2,2.7c-0.1,0.2-0.1,0.5-0.2,0.7
		c0,0.6,0.2,1.2,0.2,1.8c0.2,0.3,0.3,0.6,0.5,0.9c0,0.4,0.3,0.9-0.1,1.3c-0.4,0.2-0.7,0.5-0.9,0.9c-0.1,0.3-0.1,0.6-0.2,1
		c-0.1,0.1-0.1,0.3-0.1,0.4c0,1.1-0.1,2.3-0.3,3.4C3.1,49,3,49.1,3,49.2c-0.1,1.1,0,2.2-0.2,3.2c0,0.1-0.1,0.3-0.1,0.4
		c0,1.3,0,2.5-0.1,3.8c0,0.3-0.1,0.6,0,0.9c0.2,0.5-0.1,0.9-0.2,1.3c-0.1,0.3-0.2,0.7-0.2,1c0,0.3,0.1,0.7,0.1,1c0,0.1,0,0.2,0,0.3
		c0,0,0,0,0,0c0,0,0,0,0,0c0,0,0,0.1,0,0.1c0,0.1-0.1,0.2-0.1,0.3C2.3,62.2,2.3,62.6,2,63c0,0,0,0.1-0.1,0.1
		c0.1,0.5,0.3,1.1,0.3,1.6c0,0.3,0.4,0.3,0.6,0.3c0.4,0.2,0.9,0.2,1.3,0.3c0.3,0.3,0.6,0.5,1.1,0.6c0.5-0.1,1-0.2,1.6,0
		c0.4,0,0.8,0.1,1.2,0.2c0.3,0,0.7-0.1,1,0c0,0,0.1,0,0.1,0c0.2,0,0.5,0,0.7,0c0.8-0.4,1.5-0.6,2.3-0.2c0.4,0.2,0.9,0.1,1.3,0.1
		c0.3-0.1,0.6-0.4,1-0.5c0,0,0,0,0,0c0.1-0.2,0.3-0.3,0.5-0.3c0.1,0,0.3,0,0.4,0c0.2,0.1,0.2,0.2,0.3,0.3c0.1,0,0.2,0,0.3-0.1
		C16,65.3,16.1,65.2,16.3,65.1z"/>
	<path fill="#FFFFFF" d="M4.6,33.9c0,0.4-0.1,0.8-0.2,1.3c0,0.2,0,0.4,0,0.6c0,0,0,0,0,0C4.5,35.1,4.6,34.5,4.6,33.9z"/>
	<path fill="#FFFFFF" d="M6,27.6c0.5-0.6,0.3-1.2,0.2-1.9c-0.1-0.2-0.4-0.4,0.1-0.4c0.4-0.7,0.2-1.4,0.2-2.1
		c-0.2-0.4-0.5-0.8-0.6-1.3c0,0.3,0,0.6,0,0.9c0,0.1,0.2,0.2,0.3,0.3c-0.1,0.8,0.2,1.6-0.3,2.4v0c0,0.7,0.1,1.4-0.3,2.1
		c-0.1,0-0.1,0.1-0.1,0.1C5.6,27.6,5.8,27.6,6,27.6z"/>
	<path fill="#FFFFFF" d="M5,28.9c0,0.5,0,0.9-0.1,1.4c0.1-0.7,0.1-1.4,0.2-2.1C5.1,28.4,5,28.7,5,28.9z"/>
	<path fill="#FFFFFF" d="M45.3,56.7c0,0.1,0,0.2,0,0.3c0,1.6,0.4,3.2,0.5,4.8c0.1,1.3-1.4,3-2.8,2.9c-1-0.1-1.9,0.1-2.8,0.1
		c-6.9,0.1-13.8,0.8-20.7,0.6c-0.3,0-0.6-0.1-0.8-0.2c-0.8-0.1-1.5-0.1-2.3,0c-0.2,0.1-0.3,0.2-0.3,0.4c0,0,0.1,0,0.1-0.1
		c0.9,0.1,1.8-0.2,2.6,0.3c0.1,0.1,0.2,0.1,0.3,0c3.5,0,7.1,0.1,10.6-0.1c4.5-0.3,9-0.4,13.5-0.6c2.7-0.1,3.2,0.1,3.2-3
		c0-1.8-0.5-3.5-0.5-5.3C45.6,56.8,45.5,56.8,45.3,56.7C45.3,56.8,45.3,56.7,45.3,56.7z"/>
	<path fill="#FFFFFF" d="M2.4,60.9c0,0.1,0,0.2,0,0.3C2.4,61.2,2.4,61,2.4,60.9z"/>
	<path fill="#FFFFFF" d="M15.4,65.2c-0.1,0-0.2-0.1-0.4,0c-0.2,0.1-0.3,0.2-0.5,0.3c0,0,0,0,0,0c0.2-0.1,0.3-0.1,0.5-0.1
		c0.1,0,0.2,0,0.3,0c0.1,0.1,0.2,0.1,0.4,0.2C15.6,65.4,15.5,65.3,15.4,65.2z"/>
	<path fill="#FFFFFF" d="M2.8,65.1c-0.3,0-0.6,0-0.6-0.3c0-0.5-0.2-1.1-0.3-1.6c-0.2,0.4,0.2,0.8,0,1.2c0,0.3,0.1,0.6,0.3,0.9
		c0.1,0.2,0.3,0.3,0.5,0.2c0.4,0.1,0.9,0.2,1.3,0.3C4.2,65.8,4.3,66,4.5,66C4.8,66,5,66,5.3,66c-0.5,0-0.8-0.3-1.1-0.6
		C3.7,65.3,3.3,65.3,2.8,65.1z"/>
	<path fill="#FFFFFF" d="M4.6,43.2c0.4-0.4,0.1-0.9,0.1-1.3c-0.2-0.3-0.3-0.6-0.5-0.9c0,0.2,0,0.3,0,0.5c0,0.1,0.1,0.3,0.2,0.4
		c0,0.3,0,0.7,0,1c-0.1,0.1-0.3,0.3-0.4,0.5c-0.1,0.2-0.2,0.4-0.2,0.6C3.9,43.7,4.2,43.4,4.6,43.2z"/>
	<path fill="#FFFFFF" d="M7.4,15.6c0.2-0.3,0.2-0.7,0.2-1.1C7.2,14,7,13.7,6.9,13.4c0,0.3,0.1,0.6,0.3,1c0,0.4,0,0.7-0.3,1
		c-0.1,0.3-0.2,0.5-0.3,0.8C6.8,16,7.1,15.7,7.4,15.6z"/>
	<path fill="#FFFFFF" d="M5.9,20.7c0.1-0.8,0.2-1.6,0.2-2.4C6,19.1,6,19.9,5.9,20.7z"/>
	<path fill="#FFFFFF" d="M4,38.8c0,0.1,0,0.2,0,0.3c0.1-0.2,0.2-0.5,0.2-0.7C4.2,38.6,4.1,38.7,4,38.8z"/>
	<path fill="#FFFFFF" d="M2.4,61.3C2.4,61.3,2.4,61.3,2.4,61.3C2.4,61.3,2.4,61.3,2.4,61.3z"/>
	<path fill="#FFFFFF" d="M8,12.3c0.7-0.8,1.6-1.2,2.6-1.2c0.4,0,0.8,0,1.1-0.3c0.2-0.4,0.5-0.2,0.7-0.1c1.3,0,2.7,0.4,3.9-0.2
		c0-0.1,0-0.2,0-0.3c0,0,0,0,0,0c-1.4,0.4-2.8,0.4-4.2,0h0c-0.2,0.1-0.3,0.2-0.5,0.3c-0.5,0.3-1.1,0.3-1.6,0.3C9,10.7,8.2,11,7.7,12
		c-0.4,0.2-0.6,0.5-0.7,0.7C7.2,12.6,7.5,12.4,8,12.3z"/>
	<path fill="#FFFFFF" d="M9.8,66.1C9.9,66.1,9.9,66.1,9.8,66.1c-0.2,0-0.4,0-0.7,0C9.4,66.2,9.6,66.1,9.8,66.1z"/>
	<path fill="#FFFFFF" d="M16.6,10.2c-0.1,0-0.2,0-0.2,0c0,0,0,0,0,0c0.1,0.1,0.2,0.2,0.3,0.2c0,0,0,0,0.1,0
		C16.7,10.3,16.7,10.3,16.6,10.2z"/>
	<path fill="#FFFFFF" d="M16.4,10.2C16.4,10.2,16.4,10.2,16.4,10.2C16.4,10.2,16.4,10.2,16.4,10.2C16.4,10.2,16.4,10.2,16.4,10.2z"
		/>
	<path fill="#FFFFFF" d="M40.6,15c0,0.1,0,0.2,0,0.2c0,0,0,0,0,0C40.6,15.1,40.6,15,40.6,15z"/>
	<path fill="#FFFFFF" d="M40.8,15.1L40.8,15.1c0.1,0,0.1,0,0.2,0.1c0-0.8,0-1.6-0.1-2.3c-0.3-2.4-0.6-2.6-3-2.6
		c-6.4,0-12.8,0-19.2,0c-0.6,0.3-1.3,0.1-1.9,0.2c0.4,0.3,0.9,0.2,1.4,0.2c3.7,0,7.3,0,11,0c2.7,0,5.4,0,8.1,0
		c1.5,0,2.3,0.5,2.8,1.5c-0.1-0.4-0.1-0.7-0.2-1.1C40.8,12.2,40.6,13.7,40.8,15.1z"/>
	<path fill="#FFFFFF" d="M18.7,10.2c-0.7,0-1.4,0-2.1,0c0.1,0.1,0.1,0.1,0.2,0.2C17.4,10.3,18.1,10.5,18.7,10.2z"/>
	<path fill="#FFFFFF" d="M44.1,44.2c0-0.1-0.1-0.2-0.1-0.4c0-1.4-0.2-2.7-0.5-4c0-0.1,0-0.2-0.1-0.4c0-0.5-0.1-1.1-0.2-1.6
		c0-0.1,0-0.2,0-0.4c0-0.6-0.1-1.1-0.4-1.6c-0.2-0.5-0.1-1-0.2-1.5c0-0.9,0-1.8-0.2-2.7c0-0.1,0-0.2-0.1-0.4c0-0.6,0-1.2-0.2-1.7
		c0-0.1,0-0.2-0.1-0.3c0-0.5-0.1-0.9-0.2-1.4c0-0.1,0-0.2,0-0.4c0-0.7-0.1-1.3-0.2-2c0-0.1,0-0.2,0-0.4c0-0.5-0.1-1.1-0.2-1.6
		c0-0.1,0-0.2,0-0.4c0-0.6-0.1-1.2-0.2-1.8c0-0.1,0-0.3,0-0.4c0-0.9,0-1.7-0.2-2.6c0-0.2,0-0.4,0-0.6c0-0.8,0-1.7-0.2-2.5
		c0,0,0,0,0,0c0,0,0,0,0,0c0,0,0,0,0,0c-0.1,0-0.1,0.1-0.2,0.2c-0.5,0.8-0.4,1.7-0.3,2.6c0.6,6.2,1.4,12.3,2.2,18.4
		c0.5,3.8,1,7.7,1.4,11.5c0.3,2.5,0.4,5,0.8,7.5c0.1,0.5,0.2,1,0.7,1.3c0,0,0,0,0,0c0,0,0,0,0,0c0-0.2,0-0.4,0-0.5
		c0-0.7-0.1-1.4-0.2-2.1c0-0.1,0-0.3,0-0.4c0.1-1.7-0.2-3.4-0.5-5.1c0-0.1,0-0.3,0-0.4c0-0.8,0-1.5-0.1-2.3c0-0.3,0-0.6,0.2-0.8
		c0-0.1,0-0.2,0-0.3C44.3,44.6,44.2,44.5,44.1,44.2z"/>
	<polygon fill="#FFFFFF" points="45.4,53.9 45.4,53.9 45.4,53.9 	"/>
	<path fill="#FFFFFF" d="M44.4,45.8c0.1,0.8,0.1,1.5,0.1,2.3c0,0.1,0,0.3,0,0.4c0.3,1.7,0.6,3.4,0.5,5.1c0,0.1,0,0.3,0,0.4
		c0.2,0.7,0.2,1.4,0.2,2.1c0,0.2,0,0.4,0,0.5c0.1,0,0.3,0,0.4,0.1v0h0c0-0.3,0-0.5,0-0.8c-0.4-0.7,0.1-1.4-0.3-2.1l0,0l0,0
		c0,0,0,0,0,0c-0.2-1.8-0.1-3.7-0.5-5.5c0-0.1,0-0.2,0-0.3c-0.2-1-0.2-2.1-0.3-3.1C44.3,45.2,44.4,45.5,44.4,45.8z"/>
	<polygon fill="#FFFFFF" points="42.3,27.7 42.3,27.7 42.3,27.7 	"/>
	<polygon fill="#FFFFFF" points="43.6,37.7 43.6,37.7 43.6,37.7 	"/>
	<path fill="#FFFFFF" d="M44.4,44c-0.2-1.5-0.2-3-0.5-4.5l0,0c-0.1-0.6,0-1.2-0.3-1.8c-0.3-0.6,0.1-1.3-0.3-1.8
		c-0.2-0.5-0.3-1-0.3-1.6c-0.3-0.9,0.1-1.9-0.3-2.9l0,0c-0.4-0.7,0.1-1.4-0.3-2.1l0,0c-0.3-0.5,0.1-1.1-0.3-1.6l0,0l0,0c0,0,0,0,0,0
		c-0.3-0.8,0.1-1.6-0.3-2.4c0-0.1,0-0.2,0-0.2c-0.3-0.6,0.1-1.3-0.3-1.8l0,0c-0.3-0.7,0.1-1.4-0.3-2.1l0,0c-0.4-0.9-0.2-1.9-0.3-2.9
		l0,0l0,0c0-0.2,0-0.3,0-0.5C40.8,17,41.1,16,41,15.2l0,0l0,0l0,0v0c-0.1,0-0.1,0.1-0.2,0.1c0,0.1,0,0.2-0.1,0.3c0-0.1,0-0.2,0-0.3
		c0,0,0,0,0,0c0,0,0,0,0,0c0.2,0.8,0.2,1.7,0.2,2.5c0,0.2,0,0.4,0,0.6c0.2,0.8,0.2,1.7,0.2,2.6c0,0.1,0,0.3,0,0.4
		c0.2,0.6,0.2,1.2,0.2,1.8c0,0.1,0,0.2,0,0.4c0.1,0.5,0.2,1.1,0.2,1.6c0,0.1,0,0.2,0,0.4c0.2,0.7,0.2,1.3,0.2,2c0,0.1,0,0.2,0,0.4
		c0.1,0.4,0.2,0.9,0.2,1.4c0,0.1,0,0.2,0.1,0.3c0.2,0.6,0.2,1.2,0.2,1.7c0,0.1,0,0.2,0.1,0.4c0.2,0.9,0.2,1.8,0.2,2.7
		c0,0.5-0.1,1,0.2,1.5c0.2,0.5,0.3,1.1,0.4,1.6c0,0.1,0,0.2,0,0.4c0.2,0.5,0.2,1,0.2,1.6c0,0.1,0,0.2,0.1,0.4c0.3,1.3,0.5,2.6,0.5,4
		c0,0.1,0,0.2,0.1,0.4c0.1,0.3,0.2,0.5,0.5,0.6C44.5,44.5,44.4,44.2,44.4,44L44.4,44z"/>
	<path fill="#FFFFFF" d="M45.3,56.7C45.3,56.7,45.3,56.7,45.3,56.7C45.2,56.7,45.2,56.7,45.3,56.7C45.2,56.7,45.3,56.7,45.3,56.7
		C45.3,56.7,45.3,56.7,45.3,56.7z"/>
	<polygon fill="#FFFFFF" points="40.6,15.2 40.6,15.2 40.6,15.2 40.6,15.2 	"/>
	<path fill="#FFFFFF" d="M45.3,56.7C45.3,56.7,45.3,56.7,45.3,56.7c0,0.1,0.1,0.1,0.1,0.1c0.1,0,0.2,0,0.3,0v0
		C45.6,56.7,45.4,56.7,45.3,56.7z"/>
	<path fill="#FFFFFF" d="M40.6,15.2C40.6,15.2,40.6,15.2,40.6,15.2C40.6,15.2,40.6,15.2,40.6,15.2C40.6,15.2,40.6,15.2,40.6,15.2
		C40.6,15.2,40.6,15.2,40.6,15.2z"/>
	<path fill="#FFFFFF" d="M40.8,15.1L40.8,15.1c0,0,0,0.1,0,0.1c0.1,0,0.2,0,0.2-0.1v0C40.9,15.2,40.8,15.1,40.8,15.1L40.8,15.1z"/>
	<path fill="#FFFFFF" d="M12.2,10.2L12.2,10.2c-0.1-0.1-0.2-0.1-0.3-0.1c-0.5,0-0.9,0-1.4,0.1c-0.1,0-0.2,0.1-0.3,0.1
		c0.7,0.1,1.1,0.1,1.6,0.2C11.8,10.2,12,10.2,12.2,10.2z"/>
	<path fill="#FFFFFF" d="M10.4,10.1c0.5,0,0.9,0,1.4-0.1C11.4,9.9,11,9.9,10.4,10.1z"/>
	<path fill="#FFFFFF" d="M11.7,10.5c0.2-0.1,0.3-0.2,0.5-0.3C12,10.2,11.8,10.2,11.7,10.5z"/>
	<path fill="#FFFFFF" d="M19.2,8.8c0,0.1,0,0.2,0,0.4l0,0c0,0,0,0,0,0c0.4-0.3,1-0.1,1.5-0.1c1,0,2-0.1,2.9,0.1c0,0,0,0,0.1,0.1
		c0.1,0,0.3,0,0.4,0c0-0.1,0.1-0.1,0.1-0.2c0.6-0.3,1.2-0.1,1.7-0.2c1.3-0.1,2.7,0.1,4-0.1C26.7,8.7,23.3,8.8,20,8.9
		C19.6,8.9,19.4,8.9,19.2,8.8z"/>
	<path fill="#FFFFFF" d="M31.7,7.9c-0.1,0-0.1-0.1-0.2-0.1c0,0.1,0,0.1,0,0.2c0,0.1,0,0.3-0.1,0.4c0.1,0,0.2,0,0.3,0
		c0,0,0.1,0,0.1,0c0-0.1,0-0.2,0-0.3C31.8,7.9,31.7,7.9,31.7,7.9z"/>
	<path fill="#FFFFFF" d="M19.3,9.1c0-0.1,0-0.3,0-0.4c-0.3-0.2-0.3-0.5,0-1.1c0.5-1.4,1.8-2,2.7-2.9c0,0-0.1-0.1-0.1-0.1l0,0l0,0
		c-0.5,0.3-1,0.5-1.4,0.9c-1,1-2.3,1.9-1.7,3.6C18.9,9.1,19.1,9.1,19.3,9.1L19.3,9.1z"/>
	<path fill="#FFFFFF" d="M31.7,8.3c-0.1,0-0.2,0-0.3,0c-0.2,0.3-0.5,0.4-0.9,0.4c-0.2,0-0.3,0-0.5,0c-1.3,0.2-2.7,0-4,0.1
		c-0.6,0-1.2-0.1-1.7,0.2c-0.1,0.1-0.1,0.1-0.1,0.2c0,0,0,0,0.1,0l0,0c0.6,0,1.2,0,1.8,0C26.3,9,26.5,9,26.7,9
		c1.6-0.3,3.2,0,4.8-0.1l0,0c0.1-0.1,0.2-0.2,0.2-0.3c0-0.1,0-0.2,0-0.4C31.8,8.2,31.7,8.2,31.7,8.3z"/>
	<path fill="#FFFFFF" d="M23.7,9.1c-1-0.2-2-0.1-2.9-0.1c-0.5,0-1-0.1-1.5,0.1C20.8,9.1,22.3,9.1,23.7,9.1
		C23.7,9.1,23.7,9.1,23.7,9.1z"/>
	<path fill="#FFFFFF" d="M31.6,7.6c0,0.1,0,0.1,0,0.2c0.1,0.1,0.1,0.1,0.2,0.1c0,0,0.1,0,0.1,0c0-0.1,0-0.2,0-0.3
		C31.7,7.6,31.6,7.6,31.6,7.6z"/>
	<path fill="#FFFFFF" d="M30.4,6C30.4,6,30.4,6,30.4,6C30.4,6,30.4,6,30.4,6C30.4,6,30.4,6,30.4,6z"/>
	<path fill="#FFFFFF" d="M27.4,4.3c-0.2-0.1-0.3-0.2-0.5-0.2c-0.1,0-0.2,0-0.3-0.1c-0.8-0.2-1.6-0.2-2.4,0.1
		c-0.2,0.1-0.5,0.2-0.7,0.2C24.1,4.1,24.9,4,25.7,4C26.3,4,26.9,4.1,27.4,4.3z"/>
	<path fill="#FFFFFF" d="M22,4.8c0.5-0.2,1-0.3,1.5-0.5c0.2-0.1,0.5-0.2,0.7-0.2c0.8-0.3,1.6-0.3,2.4-0.1c0.1,0,0.2,0.1,0.3,0.1
		c0.2,0,0.4,0.1,0.5,0.2c1.1,0.3,2.1,1,3,1.8c0,0,0,0,0,0c0,0,0.1,0,0.1,0c0-0.1,0.1-0.2,0.2-0.3c-0.9-0.6-1.7-1.2-2.6-1.8
		c-0.4,0-0.7,0-1.1-0.2c-0.1,0-0.2-0.1-0.2-0.1c-1,0-1.9,0-2.9,0l0,0h0c-0.8,0.3-1.6,0.3-2.2,1C21.8,4.7,21.9,4.7,22,4.8
		C22,4.8,22,4.8,22,4.8z"/>
	<rect x="26.8" y="3.7" fill="#FFFFFF" width="0" height="0"/>
	<path fill="#FFFFFF" d="M28,3.8c0.1,0,0.1,0.1,0.2,0.1C28.1,3.9,28,3.8,28,3.8z"/>
	<path fill="#FFFFFF" d="M30.7,6c0-0.1,0-0.2,0-0.3c-0.1,0.1-0.2,0.2-0.2,0.3C30.6,6,30.7,6,30.7,6z"/>
	<path fill="#FFFFFF" d="M21.9,4.8C21.9,4.8,21.9,4.8,21.9,4.8C22,4.8,22,4.8,21.9,4.8c0-0.1-0.1-0.1-0.1-0.1l0,0
		C21.8,4.7,21.9,4.7,21.9,4.8z"/>
	<path fill="#FFFFFF" d="M24.1,9.4c0,0,0.1,0,0.1,0C24.2,9.4,24.1,9.4,24.1,9.4c0-0.1,0.1-0.2,0.1-0.3c-0.1,0-0.2,0-0.3,0
		C23.9,9.3,24,9.4,24.1,9.4z"/>
	<path fill="#FFFFFF" d="M19.2,9.2c-0.2,0-0.3,0-0.5-0.1c0.1,0.1,0.2,0.2,0.3,0.3h0C19.1,9.3,19.1,9.3,19.2,9.2z"/>
	<path fill="#FFFFFF" d="M24.1,9.3C24.1,9.4,24.2,9.4,24.1,9.3l0.1,0.1c0-0.1,0-0.2,0-0.3h0c0,0,0,0-0.1,0
		C24.1,9.2,24.1,9.3,24.1,9.3z"/>
	<path fill="#FFFFFF" d="M23.8,9.2c-1.5,0.2-3,0.2-4.5,0c0,0.1,0,0.1,0,0.2c1.5,0,3.1,0,4.6,0c0,0,0.1,0,0.1,0
		C24,9.4,23.9,9.3,23.8,9.2z"/>
	<path fill="#FFFFFF" d="M19.2,9.2c-0.1,0.1-0.2,0.1-0.2,0.2c0.1,0,0.2,0,0.3,0C19.3,9.3,19.3,9.3,19.2,9.2
		C19.3,9.2,19.2,9.2,19.2,9.2z"/>
	<polygon fill="#FFFFFF" points="19.3,9.1 19.3,9.2 19.3,9.1 	"/>
	<path fill="#FFFFFF" d="M23.8,9.2c0.1,0,0.2,0,0.3,0c0,0,0,0,0,0C24,9.1,23.9,9.1,23.8,9.2C23.8,9.2,23.8,9.2,23.8,9.2z"/>
	<path fill="#FFFFFF" d="M19.3,9.2C19.3,9.2,19.3,9.2,19.3,9.2c-0.2,0-0.4,0-0.6,0C18.9,9.2,19,9.2,19.3,9.2
		C19.2,9.2,19.3,9.2,19.3,9.2z"/>
	<path fill="#FFFFFF" d="M24.1,9.2C24.2,9.2,24.2,9.2,24.1,9.2C24.2,9.1,24.2,9.1,24.1,9.2C24.1,9.2,24.1,9.2,24.1,9.2z"/>
	<path fill="#FFFFFF" d="M19.3,9.1C19.3,9.2,19.3,9.2,19.3,9.1C19.3,9.2,19.3,9.2,19.3,9.1c1.5,0.2,3,0.2,4.5,0c0,0,0,0,0,0
		C22.3,9.1,20.8,9.1,19.3,9.1z"/>
	<path fill="#FFFFFF" d="M19.2,9.2C19.2,9.2,19.3,9.2,19.2,9.2C19.3,9.2,19.3,9.2,19.2,9.2C19.3,9.2,19.2,9.2,19.2,9.2z"/>
	<rect x="26.8" y="3.7" fill="#FFFFFF" width="0" height="0"/>
	<path fill="#FFFFFF" d="M26.8,3.7L26.8,3.7c-1-0.4-1.9-0.4-2.9,0C24.9,3.5,25.9,3.4,26.8,3.7z"/>
	<rect x="26.8" y="3.7" fill="#FFFFFF" width="0" height="0"/>
	<path fill="#FFFFFF" d="M26.8,3.7L26.8,3.7c-1-0.2-1.9-0.2-2.9,0l0,0C24.9,3.6,25.9,3.7,26.8,3.7z"/>
	<path fill="#FFFFFF" d="M26.8,3.7c0.1,0,0.2,0.1,0.2,0.1c0.3,0.1,0.6-0.1,0.9,0.1C27.6,3.6,27.2,3.7,26.8,3.7L26.8,3.7L26.8,3.7
		L26.8,3.7z"/>
	<polygon fill="#FFFFFF" points="26.8,3.7 26.8,3.7 26.8,3.7 	"/>
	<path fill="#FFFFFF" d="M27.1,3.8c0.3,0.1,0.7,0.1,1.1,0.2c-0.1,0-0.1-0.1-0.2-0.1C27.7,3.7,27.4,3.8,27.1,3.8z"/>
	<polygon fill="#FFFFFF" points="26.8,3.7 26.8,3.7 26.8,3.7 	"/>
	<polygon fill="#FFFFFF" points="26.8,3.7 26.8,3.7 26.8,3.7 	"/>
	<path fill="#FFFFFF" d="M27.4,9.7c-0.1,0-0.2,0-0.3,0c0,0,0,0-0.1,0C27.2,9.7,27.3,9.7,27.4,9.7z"/>
	<path fill="#FFFFFF" d="M28.7,9.7c-0.4-0.2-0.9-0.1-1.3,0C27.8,9.7,28.3,9.5,28.7,9.7z"/>
	<path fill="#FFFFFF" d="M28.7,9.7c-0.4-0.2-0.9,0-1.3,0c-0.1,0-0.2,0-0.3,0c-0.1,0-0.1,0-0.2,0.1c1.4,0.1,2.5,0.3,3.7-0.1
		c-1.1,0-2.2-0.5-3.5,0c0.1,0,0.2,0,0.3,0C27.8,9.7,28.3,9.5,28.7,9.7z"/>
	<path fill="#FFFFFF" d="M24.6,9.7c-0.1-0.1-0.3-0.1-0.4-0.2c0,0,0,0-0.1,0C24.3,9.5,24.5,9.6,24.6,9.7z"/>
	<path fill="#FFFFFF" d="M26.1,9.7c0.3,0,0.5,0,0.8,0c0.1,0,0.1,0,0.2,0.1c0,0,0,0,0.1,0c0,0-0.1,0-0.1,0c0,0,0,0,0,0
		C26.7,9.6,26.4,9.6,26.1,9.7z"/>
	<path fill="#FFFFFF" d="M24.6,9.7c0.5,0.1,0.9,0.1,1.4,0c0.3,0,0.6-0.1,0.9,0c0,0,0,0,0,0c-0.9-0.5-1.9,0-2.8-0.2l0,0
		C24.3,9.5,24.5,9.6,24.6,9.7z"/>
	<path fill="#FFFFFF" d="M26.1,9.7c-0.5,0-1,0.1-1.4,0C25.1,9.8,25.6,9.7,26.1,9.7z"/>
	<path fill="#FFFFFF" d="M26.1,9.7c-0.5,0.1-1,0.2-1.4,0c-0.2,0-0.3-0.1-0.5-0.2c-0.1,0-0.1,0-0.2,0c1,0.9,2,0.5,3.1,0.3
		c-0.1,0-0.1,0-0.2-0.1C26.6,9.6,26.3,9.6,26.1,9.7z"/>
	<path fill="#FFFFFF" d="M24.2,9.5C24.2,9.4,24.2,9.4,24.2,9.5L24.2,9.5C24.2,9.4,24.1,9.4,24.2,9.5C24.1,9.4,24.1,9.4,24.2,9.5z"/>
	<polygon fill="#FFFFFF" points="24.2,9.4 24.2,9.4 24.2,9.4 	"/>
	<path fill="#FFFFFF" d="M24.2,9.5C24.1,9.4,24.1,9.4,24.2,9.5c-0.1,0-0.2,0-0.2,0C24,9.5,24.1,9.5,24.2,9.5z"/>
	<path fill="#FFFFFF" d="M27.6,9c-0.3,0-0.6,0-0.9,0c-0.2,0-0.4,0.1-0.7,0.1c1.8-0.1,3.7,0.3,5.5-0.3l0,0C30.2,9.2,28.9,8.9,27.6,9z
		"/>
	<path fill="#FFFFFF" d="M26.7,9c0.3,0,0.6,0,0.9,0c1.3-0.1,2.7,0.2,4-0.1C29.9,9,28.3,8.7,26.7,9z"/>
	<path fill="#FFFFFF" d="M41.5,21.2c-0.1-1,0.2-2-0.3-2.9C41.6,19.2,41.1,20.3,41.5,21.2z"/>
	<path fill="#FFFFFF" d="M41.5,21.2c-0.4-0.9,0.1-1.9-0.3-2.9l0,0C41.3,19.3,41.1,20.3,41.5,21.2z"/>
	<path fill="#FFFFFF" d="M41.2,17.8c-0.1-0.9,0.2-1.8-0.3-2.6v0C41.3,16,40.9,16.9,41.2,17.8z"/>
	<path fill="#FFFFFF" d="M41.2,17.8c-0.4-0.8,0.1-1.8-0.3-2.6C41.1,16,40.8,17,41.2,17.8z"/>
	<path fill="#FFFFFF" d="M32.1,8C32.1,8,32,8,32,8c0,0.1,0,0.2,0,0.3c0,0,0,0,0.1,0C32,8.2,32,8.1,32.1,8z"/>
	<path fill="#FFFFFF" d="M32,8.2C32,8.2,32,8.2,32,8.2c-0.1,0.1-0.1,0.3-0.2,0.4c0.2,0,0.4,0,0.5,0C32.1,8.5,32,8.4,32,8.2z"/>
	<path fill="#FFFFFF" d="M32,8.2c0.1,0,0.2,0,0.2,0c0,0,0,0,0.1,0c0,0,0-0.1,0-0.1c-0.1,0-0.1-0.1-0.2-0.1C32,8.1,32,8.2,32,8.2z"/>
	<path fill="#FFFFFF" d="M32.3,8.2c-0.1,0-0.2,0-0.2,0c0,0.1,0.1,0.3,0.3,0.4C32.3,8.5,32.3,8.4,32.3,8.2
		C32.3,8.2,32.3,8.2,32.3,8.2z"/>
	<path fill="#FFFFFF" d="M32,8c0.1,0,0.1,0,0.2,0c0,0,0,0,0.1-0.1c-0.1-0.1-0.3-0.3-0.4-0.4l0,0C31.9,7.7,31.9,7.9,32,8z"/>
	<polygon fill="#FFFFFF" points="31.8,7.6 31.8,7.6 31.8,7.6 	"/>
	<path fill="#FFFFFF" d="M32.1,8c0.1,0,0.1,0,0.2,0.1C32.3,8.1,32.2,8,32.1,8C32.2,8,32.1,8,32.1,8z"/>
	<path fill="#FFFFFF" d="M32,8c-0.1,0-0.1,0-0.2,0c0,0.1,0,0.2,0,0.3c0.1,0,0.1,0,0.2,0C32,8.2,32,8.1,32,8z"/>
	<path fill="#FFFFFF" d="M31.8,8.2c0,0.1,0,0.2,0,0.4c0.1-0.1,0.1-0.3,0.2-0.4C31.9,8.2,31.8,8.2,31.8,8.2z"/>
	<path fill="#FFFFFF" d="M31.8,7.6L31.8,7.6L31.8,7.6L31.8,7.6c0,0.1,0,0.2,0,0.3c0.1,0,0.1,0,0.2,0C31.9,7.9,31.9,7.7,31.8,7.6
		C31.8,7.6,31.8,7.6,31.8,7.6L31.8,7.6z"/>
	<path fill="#FFFFFF" d="M22.8,9.7c-0.1,0-0.1,0.1-0.2,0.1c0.1,0,0.3,0.1,0.4,0.1c0.1,0,0.2-0.1,0.2-0.1C23.1,9.6,22.9,9.7,22.8,9.7
		z"/>
	<path fill="#FFFFFF" d="M31.4,7.5C31.2,7.3,31.1,7.2,31,7C31.1,7.2,31.2,7.4,31.4,7.5C31.3,7.5,31.3,7.5,31.4,7.5z"/>
	<path fill="#FFFFFF" d="M30.7,6.1c0,0-0.1,0.1-0.1,0.1C30.7,6.5,30.8,6.7,31,7c0.1,0.2,0.3,0.3,0.4,0.5c0,0,0.1,0,0.1,0
		c0,0,0,0,0.1,0c-0.1-0.3-0.2-0.6-0.3-0.9l0,0c-0.2-0.2-0.3-0.3-0.5-0.5C30.8,6.1,30.7,6.1,30.7,6.1L30.7,6.1z"/>
	<path fill="#FFFFFF" d="M30.7,6.1L30.7,6.1c0,0,0.1,0,0.1,0C30.8,6.1,30.8,6,30.7,6.1L30.7,6.1L30.7,6.1C30.7,6,30.7,6.1,30.7,6.1z
		"/>
	<path fill="#FFFFFF" d="M31.5,7.9c0-0.1,0-0.1,0-0.2c0,0-0.1-0.1-0.1-0.1c0,0-0.1-0.1-0.1-0.1c0,0,0,0-0.1,0
		C31.4,7.7,31.4,7.8,31.5,7.9z"/>
	<path fill="#FFFFFF" d="M31.5,7.7c0-0.1,0-0.1,0-0.2c0,0,0-0.1,0-0.1c0,0,0,0-0.1,0c0,0-0.1,0-0.1,0C31.4,7.6,31.4,7.6,31.5,7.7
		C31.5,7.7,31.5,7.7,31.5,7.7z"/>
	<path fill="#FFFFFF" d="M30.5,6.2c0,0,0-0.1,0-0.1c0,0-0.1,0-0.1,0c0,0,0,0,0,0C30.5,6.1,30.5,6.2,30.5,6.2z"/>
	<path fill="#FFFFFF" d="M30.5,6.1C30.5,6,30.5,6,30.5,6.1C30.5,6,30.5,6,30.5,6.1C30.5,6,30.5,6.1,30.5,6.1
		C30.5,6.1,30.5,6.1,30.5,6.1z"/>
	<path fill="#FFFFFF" d="M30.5,6.2L30.5,6.2c0,0,0.1-0.1,0.1-0.1c0,0-0.1,0-0.1,0C30.5,6.1,30.5,6.2,30.5,6.2z"/>
	<path fill="#FFFFFF" d="M30.5,6.1C30.5,6.1,30.5,6.1,30.5,6.1c0,0,0.1,0,0.1,0c0,0,0.1,0,0.1-0.1v0C30.7,6,30.6,6,30.5,6.1
		C30.5,6,30.5,6,30.5,6.1z"/>
	<path fill="#FFFFFF" d="M31.6,7.5c0.1,0,0.2,0,0.2,0.1c0,0,0,0,0,0l0,0l0,0v0l0,0c-0.1-0.4-0.2-0.8-0.5-1l0,0
		C31.4,6.8,31.6,7.1,31.6,7.5z"/>
	<path fill="#FFFFFF" d="M31.8,7.6L31.8,7.6c-0.1-0.1-0.2-0.1-0.2-0.1c0,0,0,0.1,0,0.1C31.6,7.6,31.7,7.6,31.8,7.6z"/>
	<polygon fill="#FFFFFF" points="31.8,7.6 31.8,7.6 31.8,7.6 	"/>
	<rect x="31.8" y="7.6" fill="#FFFFFF" width="0" height="0"/>
	<rect x="31.8" y="7.6" fill="#FFFFFF" width="0" height="0"/>
	<polygon fill="#FFFFFF" points="31.8,7.6 31.8,7.6 31.8,7.6 31.8,7.6 31.8,7.6 	"/>
	<polygon fill="#FFFFFF" points="31.8,7.6 31.8,7.6 31.8,7.6 	"/>
	<path fill="#FFFFFF" d="M31.6,7.5c0-0.3-0.1-0.6-0.3-0.9C31.3,6.9,31.4,7.2,31.6,7.5C31.5,7.5,31.5,7.5,31.6,7.5z"/>
	<path fill="#FFFFFF" d="M31.6,7.5C31.5,7.5,31.5,7.5,31.6,7.5C31.5,7.5,31.5,7.5,31.6,7.5C31.6,7.5,31.6,7.5,31.6,7.5z"/>
	<path fill="#FFFFFF" d="M40.4,13.4c-0.1-0.5-0.2-0.9-0.4-1.3c0.2,1,0.3,1.9,0.5,2.9c0-0.1,0-0.1,0-0.2
		C40.6,14.3,40.5,13.8,40.4,13.4z"/>
	<path fill="#FFFFFF" d="M40.8,15.1c-0.2-1.4,0.1-2.9-0.9-4.1c0.1,0.4,0.1,0.7,0.2,1.1c0.2,0.4,0.3,0.8,0.4,1.3
		c0.1,0.5,0.1,1,0.1,1.4c0,0.1,0,0.1,0,0.2c0,0.1,0,0.2,0,0.2C40.7,15.2,40.7,15.1,40.8,15.1z"/>
	<path fill="#FFFFFF" d="M40.7,15.5c0-0.1,0-0.2,0.1-0.3c0,0-0.1,0-0.1,0C40.6,15.3,40.7,15.4,40.7,15.5z"/>
	<path fill="#FFFFFF" d="M40.8,15.1c-0.1,0-0.1,0-0.1,0.1c0,0,0,0,0,0c0,0,0.1,0,0.1,0C40.8,15.2,40.8,15.2,40.8,15.1L40.8,15.1z"/>
	<polygon fill="#FFFFFF" points="30.5,6.2 30.5,6.2 30.5,6.2 	"/>
	<g>
		<g>
			<path fill="#FFFFFF" d="M20.1,3.4c1.2-1.3,3.4-2,5.1-2.2c0.8-0.1,0.5-1.3-0.3-1.2c-1.9,0.3-4.3,1.1-5.6,2.5
				C18.6,3.1,19.5,4,20.1,3.4L20.1,3.4z"/>
		</g>
	</g>
</g>
</svg>
