<?xml version="1.0" encoding="utf-8"?>
<!-- Generator: Adobe Illustrator 18.0.0, SVG Export Plug-In . SVG Version: 6.00 Build 0)  -->
<!DOCTYPE svg PUBLIC "-//W3C//DTD SVG 1.1//EN" "http://www.w3.org/Graphics/SVG/1.1/DTD/svg11.dtd">
<svg version="1.1" id="Слой_1" xmlns="http://www.w3.org/2000/svg" xmlns:xlink="http://www.w3.org/1999/xlink" x="0px" y="0px"
	 viewBox="0 0 11.2 15.7" enable-background="new 0 0 11.2 15.7" xml:space="preserve">
<g>
	<path fill="#FFFFFF" d="M6.7,5.1C6.9,5.6,7.5,6,7.2,6.6h0h0c0.4,2,1,3.9,1.6,5.9c0.1,0.4,0.6,1.2-0.3,1.3c-0.7,0.1-0.9-0.6-1-1.3
		c0-0.6,0.1-1.3-0.5-1.8c-0.5-0.2-0.7-0.4-0.7-0.9C6.3,8.9,5.9,8.2,5.5,7.4C5,6.6,4.6,6.7,4.1,7.4c0.9,2.1,2,4.1,1.7,6.6
		c-0.1,0.6,0,1.8,1.2,1.7c1-0.1,1.9-0.1,2.8,0.1c1,0.2,1.5-0.4,1.3-1.4C10.9,13.7,11,13,11,12.4C10.6,9.1,9.9,6,7.4,3.7
		C6.5,3.9,6.4,4.3,6.7,5.1z"/>
	<path fill="#FFFFFF" d="M0.9,5.3c1.2,0.4,2.4,1,3.2,2.1C4,7,4.1,6.6,4.5,6.4c0.4-0.2,0.7,0,1,0.3c-0.7-1.2-1.8-2-3-2.4
		C1.9,4.1,1.6,3.8,2,3.2c0.3-0.5,0.5-1,1.3-0.7c1.2,0.5,2.2,1.3,2.9,2.4c0,0,0-0.1,0-0.1c-0.4-1,0.1-1.4,1.2-1.1
		C6.5,1.9,4.9,0.9,3.2,0.1C2.7-0.2,2.3,0.1,2,0.6c-0.6,1-1.2,1.9-1.7,2.9C-0.2,4.3-0.1,4.9,0.9,5.3z"/>
	<path fill="#FFFFFF" d="M6.1,4.8c0,0,0,0.1,0,0.1c0,0,0.1,0.1,0.1,0.1c0.3,0.5,0.6,1,0.9,1.6h0C7.5,6,6.9,5.6,6.7,5.1
		C6.4,4.3,6.5,3.9,7.4,3.7C6.2,3.4,5.8,3.8,6.1,4.8z"/>
	<path fill="#FFFFFF" d="M5.5,7.4c0.4,0.8,0.8,1.5,0.9,2.4c0.1,0.5,0.3,0.8,0.7,0.9C6.6,9.5,6.2,8.3,5.7,7.1C5.7,7,5.6,6.9,5.5,6.7
		c-0.3-0.3-0.6-0.5-1-0.3C4.1,6.6,4,7,4.1,7.4C4.6,6.7,5,6.6,5.5,7.4z"/>
</g>
</svg>
