<?xml version="1.0" encoding="utf-8"?>
<!-- Generator: Adobe Illustrator 18.0.0, SVG Export Plug-In . SVG Version: 6.00 Build 0)  -->
<!DOCTYPE svg PUBLIC "-//W3C//DTD SVG 1.1//EN" "http://www.w3.org/Graphics/SVG/1.1/DTD/svg11.dtd">
<svg version="1.1" id="Слой_1" xmlns="http://www.w3.org/2000/svg" xmlns:xlink="http://www.w3.org/1999/xlink" x="0px" y="0px"
	 viewBox="0 0 10.6 2" enable-background="new 0 0 10.6 2" xml:space="preserve">
<g>
	<path fill="#FFFFFF" d="M8,1.6C7.1,0.9,6.1,1.3,5.1,1.2C3.9,1,2.8,1.4,1.4,1.2c0.8-0.5,1.5-0.4,2.2-0.4c1.6,0,3.3-0.4,4.9,0.1
		c0.3,0.1,0.7,0,0.6,0.5C8.9,1.5,8.6,1.8,8.5,2C8.3,2,8.2,2,8.1,2C8.1,1.9,8,1.8,8,1.6z"/>
	<path fill="#FFFFFF" d="M9.1,1.3c0-0.5-0.4-0.4-0.6-0.5C6.8,0.4,5.2,0.7,3.6,0.7c-0.7,0-1.4-0.1-2.2,0.4c1.4,0.2,2.6-0.2,3.7,0
		c1,0.1,2-0.3,2.9,0.5C8,1.8,8.1,1.9,8.1,2C8,2,7.8,2,7.7,2C7.4,1.8,7,1.9,6.7,1.8C4.8,1.7,3,2,1.1,2C0.5,2,0,1.8,0,1.2
		c0-0.5,0.5-0.9,1.1-0.9c2.8-0.2,5.7-0.4,8.5,0c1,0.2,1.3,0.8,0.7,1.7C9.7,2,9.1,2,8.5,2C8.6,1.8,8.9,1.5,9.1,1.3z"/>
</g>
</svg>
